<?xml version="1.0" encoding="UTF-8"?>
<svg width="18px" height="20px" viewBox="0 0 18 20" version="1.1" xmlns="http://www.w3.org/2000/svg" xmlns:xlink="http://www.w3.org/1999/xlink">
    <title>copy</title>
    <defs>
        <path d="M17.2008203,2.57582031 L15.1741797,0.549179688 C14.822551,0.197548381 14.3456393,0 13.8483594,0 L7.125,0 C6.08945313,0 5.25,0.839453125 5.25,1.875 L5.25,3.75 L2.125,3.75 C1.08945312,3.75 0.25,4.58945312 0.25,5.625 L0.25,18.125 C0.25,19.1605469 1.08945312,20 2.125,20 L10.875,20 C11.9105469,20 12.75,19.1605469 12.75,18.125 L12.75,16.25 L15.875,16.25 C16.9105469,16.25 17.75,15.4105469 17.75,14.375 L17.75,3.90164063 C17.75,3.4043607 17.5524516,2.92744902 17.2008203,2.57582031 Z M10.640625,18.125 L2.359375,18.125 C2.22993326,18.125 2.125,18.0200667 2.125,17.890625 L2.125,5.859375 C2.125,5.72993326 2.22993326,5.625 2.359375,5.625 L5.25,5.625 L5.25,14.375 C5.25,15.4105469 6.08945313,16.25 7.125,16.25 L10.875,16.25 L10.875,17.890625 C10.875,18.0200667 10.7700667,18.125 10.640625,18.125 Z M15.640625,14.375 L7.359375,14.375 C7.22993326,14.375 7.125,14.2700667 7.125,14.140625 L7.125,2.109375 C7.125,1.97993326 7.22993326,1.875 7.359375,1.875 L11.5,1.875 L11.5,5.3125 C11.5,5.83027344 11.9197266,6.25 12.4375,6.25 L15.875,6.25 L15.875,14.140625 C15.875,14.2700667 15.7700667,14.375 15.640625,14.375 L15.640625,14.375 Z M15.875,4.375 L13.375,4.375 L13.375,1.875 L13.75125,1.875 C13.8133984,1.875 13.8730078,1.8996875 13.9169922,1.94363281 L15.8063672,3.83300781 C15.8503193,3.87696739 15.875,3.93658704 15.875,3.99875 L15.875,4.375 L15.875,4.375 Z" id="path-1"></path>
    </defs>
    <g id="Page-1" stroke="none" stroke-width="1" fill="none" fill-rule="evenodd">
        <g id="Policies-and-Disclaimers-from-Landing-Page" transform="translate(-18.000000, -55.000000)">
            <g id="copy" transform="translate(18.000000, 55.000000)">
                <mask id="mask-2" fill="white">
                    <use xlink:href="#path-1"></use>
                </mask>
                <use id="Mask" fill="#000000" fill-rule="nonzero" xlink:href="#path-1"></use>
                <g id="Color" mask="url(#mask-2)" fill="#525CD7">
                    <g transform="translate(-1.000000, 0.000000)" id="Purple">
                        <rect x="0" y="0" width="20" height="20"></rect>
                    </g>
                </g>
            </g>
        </g>
    </g>
</svg>