<?xml version="1.0" encoding="UTF-8"?>
<svg width="9px" height="7px" viewBox="0 0 9 7" version="1.1" xmlns="http://www.w3.org/2000/svg" xmlns:xlink="http://www.w3.org/1999/xlink">
    <!-- Generator: Sketch 63 (92445) - https://sketch.com -->
    <title>Shape</title>
    <desc>Created with Sketch.</desc>
    <g id="Page-1" stroke="none" stroke-width="1" fill="none" fill-rule="evenodd" opacity="0.5">
        <g id="Player-Analysis-5" transform="translate(-782.000000, -332.000000)" fill="#FFFFFF" fill-rule="nonzero">
            <g id="Group-52" transform="translate(776.000000, 328.000000)">
                <g id="Group-53" transform="translate(6.000000, 2.000000)">
                    <path d="M8.61318811,2 C8.81967545,2 8.98840815,2.15793265 8.99942757,2.35696002 L9,2.37769086 L9,8.62241693 C9,8.82403529 8.83825336,8.98868856 8.63441959,8.99944142 L8.61318811,9 L0.38659111,9 C0.18021048,9 0.0115844863,8.84206735 0.000572065221,8.64313734 L0,8.62241693 L0,2.37769086 C0,2.1759683 0.161746639,2.01131156 0.365380982,2.00055858 L0.38659111,2 L8.61318811,2 Z M5.11190021,3.26770041 L4.03734913,3.26770041 C3.98066309,3.26770041 3.9340666,3.30915168 3.92769917,3.36271172 L3.92695761,3.37527332 L3.92695761,4.84971205 L2.41680159,4.84971205 C2.36032056,4.84971205 2.31392908,4.89144214 2.3075899,4.94495571 L2.30685163,4.95750054 L2.30685163,6.00671368 C2.30685163,6.06216316 2.34920875,6.10757511 2.40396025,6.11377963 L2.41680159,6.11450217 L3.92695761,6.11450217 L3.92695761,7.58872532 C3.92695761,7.64397462 3.96950509,7.68946522 4.02446056,7.69568199 L4.03734913,7.69640602 L5.11190021,7.69640602 C5.16838124,7.69640602 5.21515345,7.65486181 5.22154703,7.6012885 L5.22229173,7.58872532 L5.22229173,6.11450217 L6.73222696,6.11450217 C6.788708,6.11450217 6.83528984,6.0730509 6.84165622,6.01931826 L6.8423977,6.00671368 L6.8423977,4.95750054 C6.8423977,4.90235133 6.79985022,4.85668201 6.74507153,4.85043919 L6.73222696,4.84971205 L5.22229173,4.84971205 L5.22229173,3.37527332 C5.22229173,3.32002402 5.17955388,3.27462637 5.12474798,3.26842288 L5.11190021,3.26770041 Z" id="Shape"></path>
                </g>
            </g>
        </g>
    </g>
</svg>