<?xml version="1.0" encoding="UTF-8"?>
<svg width="40px" height="40px" viewBox="0 0 40 40" version="1.1" xmlns="http://www.w3.org/2000/svg" xmlns:xlink="http://www.w3.org/1999/xlink">
    <!-- Generator: Sketch 63 (92445) - https://sketch.com -->
    <title>Group 3</title>
    <desc>Created with Sketch.</desc>
    <g id="Page-1" stroke="none" stroke-width="1" fill="none" fill-rule="evenodd">
        <g id="Player-Analysis-2" transform="translate(-30.000000, -834.000000)" fill="#FFFFFF">
            <g id="Group-3" transform="translate(30.000000, 834.000000)">
                <g id="Group-2">
                    <path d="M19.5862069,1.24344979e-13 C30.4033703,1.24344979e-13 39.1724138,8.76904352 39.1724138,19.5862069 C39.1724138,30.4033703 30.4033703,39.1724138 19.5862069,39.1724138 C8.76904352,39.1724138 1.24344979e-13,30.4033703 1.24344979e-13,19.5862069 C1.24344979e-13,8.76904352 8.76904352,1.24344979e-13 19.5862069,1.24344979e-13 Z M19.5862069,2.48275862 C10.1402332,2.48275862 2.48275862,10.1402332 2.48275862,19.5862069 C2.48275862,29.0321805 10.1402332,36.6896552 19.5862069,36.6896552 C29.0321805,36.6896552 36.6896552,29.0321805 36.6896552,19.5862069 C36.6896552,10.1402332 29.0321805,2.48275862 19.5862069,2.48275862 Z M17.0890043,12.8011337 L12.0938607,26.6225791 L7.77515352,26.6225791 L12.7692691,12.8011337 L17.0890043,12.8011337 Z M23.1267893,12.8011337 C23.6502938,12.8011337 24.0743924,13.1678683 24.0743924,13.6201311 L24.0698342,13.6891368 L24.0698342,13.6891368 L24.058907,13.7561987 L19.5401842,26.6225791 L15.3426573,26.6225791 L18.8063788,16.7609171 C18.9043693,16.4817625 18.6909117,16.2000672 18.3714692,16.1550565 L18.2818752,16.1488288 L17.3162892,16.1488288 L18.4926757,12.8011337 L23.1267893,12.8011337 Z M30.9569912,12.6896552 C31.4800261,12.6896552 31.9041489,13.0563898 31.9041489,13.5086526 L31.8995905,13.5776583 L31.8995905,13.5776583 L31.8886627,13.6447202 L27.3696813,26.5111006 L23.1724138,26.5111006 L26.6363334,16.6494386 C26.7338717,16.370284 26.5207834,16.0885887 26.2010047,16.043578 L26.1113003,16.0373503 L25.1456591,16.0373503 L26.3221129,12.6896552 L30.9569912,12.6896552 Z" id="Shape"></path>
                </g>
            </g>
        </g>
    </g>
</svg>