<?xml version="1.0" encoding="UTF-8"?>
<svg width="19px" height="19px" viewBox="0 0 19 19" version="1.1" xmlns="http://www.w3.org/2000/svg" xmlns:xlink="http://www.w3.org/1999/xlink">
    <!-- Generator: Sketch 63 (92445) - https://sketch.com -->
    <title>Group</title>
    <desc>Created with Sketch.</desc>
    <g id="Page-1" stroke="none" stroke-width="1" fill="none" fill-rule="evenodd" opacity="0.70186942">
        <g id="Player-Analysis-1" transform="translate(-153.000000, -573.000000)" fill="#707D91">
            <g id="Group" transform="translate(153.000000, 574.000000)">
                <path d="M2.37717414,7.45313521 L12.954825,16.1310134 C12.8880188,16.229934 12.8153799,16.3264036 12.7367125,16.4201558 C12.439381,16.7745016 11.9045601,16.8152261 11.5421381,16.511118 L11.5421381,16.511118 L7.82358687,13.390883 L5.4905387,16.1713015 C5.46266697,16.2044968 5.42727961,16.2306061 5.38717404,16.2475654 L5.38717404,16.2475654 L3.65424013,16.9801195 C3.44147272,17.0700443 3.21141537,16.8765021 3.26294464,16.6517836 L3.26294464,16.6517836 L3.68344871,14.8179701 C3.69316796,14.7755135 3.7127448,14.7361351 3.74060491,14.7029327 L3.74060491,14.7029327 L6.07365308,11.9225142 L2.35510186,8.80227924 C1.99267982,8.49817104 1.93991497,7.96440351 2.23724643,7.61005767 C2.28264557,7.55595309 2.32930702,7.50365413 2.37717414,7.45313521 Z M9.93141994,0.217400339 C10.2287514,-0.1369455 10.7635723,-0.177670019 11.1259944,0.126438175 L11.1259944,0.126438175 L18.5630968,6.36690809 C18.9255188,6.67101628 18.9782837,7.20478381 18.6809522,7.55912965 L18.6809522,7.55912965 L17.6042332,8.84231338 C17.3069018,9.19665921 16.7720808,9.23738373 16.4096588,8.93327554 L16.4096588,8.93327554 L15.2556228,7.96492439 L12.9372323,11.4072619 C13.6262356,12.8482953 13.8283194,14.46918 13.1712943,15.7631451 L2.68829315,7.1629983 C3.8458777,6.21043632 5.5307832,6.09440408 7.139136,6.54208139 L7.139136,6.54208139 L10.1265923,3.66115678 L8.97255637,2.69280563 C8.61013434,2.38869743 8.55736948,1.85492991 8.85470095,1.50058407 L8.85470095,1.50058407 Z" id="Combined-Shape" fill-rule="nonzero"></path>
                <polygon id="Rectangle" transform="translate(8.183433, 10.996023) rotate(40.000000) translate(-8.183433, -10.996023) " points="-1.81371125 10.6464833 18.1834325 10.5618465 18.1805763 11.3455631 -1.81656745 11.4302"></polygon>
            </g>
        </g>
    </g>
</svg>