<?xml version="1.0" encoding="UTF-8"?>
<svg width="9px" height="11px" viewBox="0 0 9 11" version="1.1" xmlns="http://www.w3.org/2000/svg" xmlns:xlink="http://www.w3.org/1999/xlink">
    <!-- Generator: Sketch 63 (92445) - https://sketch.com -->
    <title>thumbtack</title>
    <desc>Created with Sketch.</desc>
    <defs>
        <path d="M6.98501306,4.60338695 L6.69825599,2.06249748 L7.68747998,2.06249748 C7.99814323,2.06249748 8.24997852,1.83164815 8.24997852,1.54687311 L8.24997852,0.51562437 C8.24997852,0.230849327 7.99814323,0 7.68747998,0 L1.31249658,0 C1.00183333,0 0.749998047,0.230849327 0.749998047,0.51562437 L0.749998047,1.54687311 C0.749998047,1.83164815 1.00183333,2.06249748 1.31249658,2.06249748 L2.30172057,2.06249748 L2.0149635,4.60338695 C0.878083651,5.08792347 0,5.95677201 0,7.04686638 C0,7.33164143 0.251835282,7.56249075 0.562498535,7.56249075 L3.74999023,7.56249075 L3.74999023,9.79701341 C3.74999023,9.82369697 3.75676365,9.8500153 3.76979487,9.87388441 L4.33229341,10.9051332 C4.40122291,11.0315041 4.59863646,11.0317404 4.66770659,10.9051332 L5.23020513,9.87388441 C5.24322071,9.85001537 5.25000092,9.82369823 5.25000977,9.79701341 L5.25000977,7.56249075 L8.43750146,7.56249075 C8.74816472,7.56249075 9,7.33164143 9,7.04686638 C9,5.94723296 8.10977576,5.08276722 6.98501306,4.60338695 Z" id="path-1"></path>
    </defs>
    <g id="Page-1" stroke="none" stroke-width="1" fill="none" fill-rule="evenodd">
        <g id="Player-Analysis-1" transform="translate(-158.000000, -238.000000)">
            <g id="thumbtack" transform="translate(158.000000, 238.000000)">
                <mask id="mask-2" fill="white">
                    <use xlink:href="#path-1"></use>
                </mask>
                <use id="Mask" fill="#5F6C84" fill-rule="nonzero" xlink:href="#path-1"></use>
            </g>
        </g>
    </g>
</svg>