<?xml version="1.0" encoding="UTF-8"?>
<svg width="13px" height="17px" viewBox="0 0 13 17" version="1.1" xmlns="http://www.w3.org/2000/svg" xmlns:xlink="http://www.w3.org/1999/xlink">
    <!-- Generator: Sketch 63 (92445) - https://sketch.com -->
    <title>Mask</title>
    <desc>Created with Sketch.</desc>
    <defs>
        <path d="M10.0894633,7.11432529 L9.67525866,3.1874961 L11.1041377,3.1874961 C11.5528736,3.1874961 11.9166356,2.83072896 11.9166356,2.39062208 L11.9166356,0.796874026 C11.9166356,0.356767142 11.5528736,0 11.1041377,0 L1.8958284,0 C1.44709259,0 1.08333051,0.356767142 1.08333051,0.796874026 L1.08333051,2.39062208 C1.08333051,2.83072896 1.44709259,3.1874961 1.8958284,3.1874961 L3.32470749,3.1874961 L2.91050284,7.11432529 C1.26834305,7.86315445 0,9.20592039 0,10.8906117 C0,11.3307186 0.363762074,11.6874857 0.812497884,11.6874857 L5.41665256,11.6874857 L5.41665256,15.1408389 C5.41665256,15.1820771 5.42643639,15.2227509 5.44525926,15.2596395 L6.25775714,16.8533876 C6.35732199,17.0486881 6.64247489,17.0490534 6.74224286,16.8533876 L7.55474074,15.2596395 C7.57354103,15.222751 7.58333466,15.1820791 7.58334744,15.1408389 L7.58334744,11.6874857 L12.1875021,11.6874857 C12.6362379,11.6874857 13,11.3307186 13,10.8906117 C13,9.19117822 11.7141205,7.85518571 10.0894633,7.11432529 Z" id="path-1"></path>
    </defs>
    <g id="Page-1" stroke="none" stroke-width="1" fill="none" fill-rule="evenodd">
        <g id="Player-Analysis-1" transform="translate(-156.000000, -274.000000)">
            <g id="thumbtack" transform="translate(156.000000, 274.000000)">
                <mask id="mask-2" fill="white">
                    <use xlink:href="#path-1"></use>
                </mask>
                <use id="Mask" fill="#4C53C0" fill-rule="nonzero" xlink:href="#path-1"></use>
            </g>
        </g>
    </g>
</svg>