<?xml version="1.0" encoding="UTF-8"?>
<svg width="13px" height="13px" viewBox="0 0 13 13" version="1.1" xmlns="http://www.w3.org/2000/svg" xmlns:xlink="http://www.w3.org/1999/xlink">
    <!-- Generator: Sketch 63 (92445) - https://sketch.com -->
    <title>Group 18</title>
    <desc>Created with Sketch.</desc>
    <g id="Page-1" stroke="none" stroke-width="1" fill="none" fill-rule="evenodd">
        <g id="Player-Analysis-3" transform="translate(-1002.000000, -152.000000)" fill-rule="nonzero">
            <g id="Group-15" transform="translate(773.000000, 134.000000)">
                <g id="Group-18" transform="translate(229.000000, 18.000000)">
                    <path d="M5.4025974,-7.38076267e-13 C2.42522441,-7.38076267e-13 -5.59552404e-14,2.42522441 -5.59552404e-14,5.4025974 C-5.59552404e-14,8.37997045 2.42522441,10.8051948 5.4025974,10.8051948 C6.69733419,10.8051948 7.88637943,10.3454262 8.81826319,9.58222396 L12.0439936,12.8079544 C12.1794997,12.9490923 12.3807197,13.0059464 12.5700494,12.95659 C12.7593792,12.9072336 12.9072336,12.7593792 12.95659,12.5700494 C13.0059464,12.3807197 12.9490923,12.1794997 12.8079544,12.0439936 L9.58222396,8.81826319 C10.3454262,7.88637943 10.8051948,6.69733419 10.8051948,5.4025974 C10.8051948,2.42522441 8.37997045,-7.38076267e-13 5.4025974,-7.38076267e-13 Z" id="Path" fill="#979797"></path>
                    <path d="M5.4025974,1.08051948 C7.7960145,1.08051948 9.72467532,3.00918052 9.72467532,5.4025974 C9.72467532,7.7960145 7.7960145,9.72467532 5.4025974,9.72467532 C3.00918052,9.72467532 1.08051948,7.7960145 1.08051948,5.4025974 C1.08051948,3.00918052 3.00918052,1.08051948 5.4025974,1.08051948 Z" id="Path" fill="#FFFFFF"></path>
                </g>
            </g>
        </g>
    </g>
</svg>