<?xml version="1.0" encoding="UTF-8"?>
<svg width="9px" height="7px" viewBox="0 0 9 7" version="1.1" xmlns="http://www.w3.org/2000/svg" xmlns:xlink="http://www.w3.org/1999/xlink">
    <!-- Generator: Sketch 63 (92445) - https://sketch.com -->
    <title>Shape</title>
    <desc>Created with Sketch.</desc>
    <g id="Page-1" stroke="none" stroke-width="1" fill="none" fill-rule="evenodd" opacity="0.5">
        <g id="Player-Analysis-5" transform="translate(-782.000000, -482.000000)" fill="#FFFFFF" fill-rule="nonzero">
            <g id="Group-52" transform="translate(776.000000, 478.000000)">
                <path d="M14.6131881,4 C14.8196754,4 14.9884082,4.15793265 14.9994276,4.35696002 L15,10.6224169 C15,10.8240353 14.8382534,10.9886886 14.6344196,10.9994414 L6.38659111,11 C6.18021048,11 6.01158449,10.8420673 6.00057207,10.6431373 L6,4.37769086 C6,4.1759683 6.16174664,4.01131156 6.36538098,4.00055858 L14.6131881,4 Z M11.0865234,9 L9.9,9 L9.9,10.1425781 L11.0865234,10.1425781 L11.0865234,9 Z M11.0865234,5 L9.9,5 L9.9,7.71191406 L11.0865234,7.71191406 L11.0865234,5 Z" id="Shape"></path>
            </g>
        </g>
    </g>
</svg>