<?xml version="1.0" encoding="UTF-8"?>
<svg width="250px" height="32px" viewBox="0 0 250 32" version="1.1" xmlns="http://www.w3.org/2000/svg" xmlns:xlink="http://www.w3.org/1999/xlink">
    <title>StefanWM</title>
    <g id="Page-1" stroke="none" stroke-width="1" fill="none" fill-rule="evenodd">
        <g id="Official-Email" transform="translate(-323.000000, -1248.000000)" fill="#3E3583" fill-rule="nonzero">
            <path d="M331.109523,1279.76019 C331.812088,1279.84126 332.528164,1279.85477 333.257751,1279.80072 C333.987338,1279.74668 334.608838,1279.67913 335.122251,1279.59806 C336.311208,1279.43593 337.554207,1279.19273 338.851251,1278.86847 C340.148294,1278.54421 341.398049,1278.09835 342.600517,1277.5309 C343.802984,1276.96344 344.910875,1276.26763 345.92419,1275.44347 C346.937505,1274.61931 347.754913,1273.63977 348.376413,1272.50485 C348.889826,1271.55909 349.099244,1270.78222 349.004668,1270.17423 C348.910092,1269.56624 348.606098,1269.09336 348.092685,1268.75559 C347.579272,1268.41782 346.923994,1268.18813 346.126853,1268.06653 C345.329712,1267.94494 344.505549,1267.88414 343.654364,1267.88414 C342.80318,1267.88414 341.985772,1267.93143 341.202142,1268.026 C340.418511,1268.12058 339.783501,1268.19489 339.297109,1268.24893 C338.99987,1268.27595 338.45268,1268.35702 337.655539,1268.49213 C336.858398,1268.62724 335.95317,1268.76234 334.939854,1268.89745 C333.926539,1269.03256 332.859181,1269.15416 331.737779,1269.26225 C330.616377,1269.37033 329.589551,1269.41087 328.657301,1269.38384 C327.725051,1269.35682 326.954931,1269.24198 326.346942,1269.03932 C325.738953,1268.83665 325.434959,1268.50564 325.434959,1268.04627 C325.407937,1267.31668 325.624111,1266.61412 326.08348,1265.93857 C326.54285,1265.26303 327.002219,1264.66855 327.461589,1264.15514 C328.920763,1262.6149 330.555578,1261.25706 332.366034,1260.08161 C334.17649,1258.90617 336.013968,1257.83205 337.878468,1256.85927 C340.013185,1255.75138 342.201946,1254.76508 344.44475,1253.90039 C346.687554,1253.03569 348.984402,1252.33313 351.335293,1251.79269 C352.037858,1251.63056 352.780956,1251.46843 353.564586,1251.3063 C354.348217,1251.14417 355.131847,1251.02257 355.915477,1250.94151 C356.699108,1250.86044 357.482738,1250.84693 358.266368,1250.90098 C359.049999,1250.95502 359.806607,1251.10364 360.536194,1251.34684 C360.968542,1251.48194 361.198227,1251.71838 361.225248,1252.05616 C361.25227,1252.39393 361.164449,1252.78574 360.961786,1253.2316 C360.759123,1253.67746 360.475395,1254.15034 360.110602,1254.65024 C359.745808,1255.15014 359.367504,1255.62302 358.975689,1256.06888 C358.583874,1256.51474 358.225836,1256.90656 357.901575,1257.24433 C357.577314,1257.5821 357.347629,1257.81854 357.212521,1257.95365 C356.239738,1258.84537 355.212912,1259.69655 354.132043,1260.5072 C353.051173,1261.31786 351.902749,1262.00691 350.686771,1262.57437 C350.470597,1262.65543 350.308467,1262.78378 350.20038,1262.95943 C350.092293,1263.13507 350.03825,1263.32422 350.03825,1263.52688 C350.03825,1263.72955 350.078782,1263.92545 350.159847,1264.11461 C350.240913,1264.30376 350.389532,1264.45238 350.605706,1264.56046 C350.902945,1264.72259 351.193429,1264.74962 351.477157,1264.64153 C351.760885,1264.53344 352.037858,1264.41184 352.308075,1264.27674 C353.388945,1263.7363 354.422526,1263.10129 355.40882,1262.3717 C356.395113,1261.64212 357.347629,1260.872 358.266368,1260.06135 C358.617651,1259.73708 359.036488,1259.33851 359.522879,1258.86563 C360.00927,1258.39275 360.495662,1257.87934 360.982053,1257.32539 C361.468444,1256.77145 361.921058,1256.17697 362.339895,1255.54196 C362.758732,1254.90695 363.076237,1254.27869 363.292411,1253.65719 C363.508585,1253.03569 363.582895,1252.41419 363.515341,1251.79269 C363.447786,1251.17119 363.184324,1250.60374 362.724955,1250.09032 C362.400694,1249.73904 362.002123,1249.46207 361.529243,1249.25941 C361.056363,1249.05674 360.569971,1248.91488 360.070069,1248.83381 C359.570167,1248.75275 359.056754,1248.70546 358.52983,1248.69195 C358.002906,1248.67844 357.523271,1248.68519 357.090923,1248.71222 C354.604923,1248.79328 352.159456,1249.19185 349.754521,1249.90793 C347.349587,1250.624 345.012207,1251.44141 342.742381,1252.36015 C340.580642,1253.25187 338.466191,1254.23141 336.399028,1255.29876 C334.331865,1256.36612 332.339012,1257.56183 330.420469,1258.8859 C330.042165,1259.15612 329.528752,1259.53442 328.88023,1260.02081 C328.231708,1260.5072 327.56292,1261.06115 326.873866,1261.68265 C326.184812,1262.30415 325.529535,1262.97969 324.908035,1263.70928 C324.286535,1264.43887 323.806899,1265.18196 323.469127,1265.93857 C323.131356,1266.69518 322.975981,1267.43828 323.003002,1268.16787 C323.030024,1268.89745 323.367796,1269.573 324.016318,1270.1945 C324.394622,1270.5728 324.833725,1270.86328 325.333627,1271.06595 C325.833529,1271.26861 326.353698,1271.41047 326.894132,1271.49154 C327.434567,1271.5726 327.988513,1271.61314 328.555969,1271.61314 C329.123426,1271.61314 329.65035,1271.59963 330.136741,1271.5726 C331.21761,1271.51856 332.29848,1271.43074 333.379349,1271.30914 C334.460219,1271.18754 335.541088,1271.05919 336.621958,1270.92408 C337.864957,1270.73493 339.107957,1270.55929 340.350957,1270.39716 C341.593957,1270.23503 342.850468,1270.12694 344.120489,1270.0729 C344.255598,1270.0729 344.498794,1270.06614 344.850076,1270.05263 C345.201359,1270.03912 345.545886,1270.05939 345.883658,1270.11343 C346.221429,1270.16747 346.478136,1270.26881 346.653777,1270.41743 C346.829418,1270.56604 346.795641,1270.80249 346.552446,1271.12675 C346.282228,1271.72122 345.930946,1272.26841 345.498598,1272.76832 C345.06625,1273.26822 344.59337,1273.72083 344.079957,1274.12616 C343.566544,1274.53148 343.019354,1274.88952 342.438386,1275.20027 C341.857419,1275.51102 341.269696,1275.788 340.675218,1276.03119 C338.675609,1276.84184 336.581425,1277.35526 334.392664,1277.57143 C334.17649,1277.59845 333.858985,1277.62547 333.440148,1277.6525 C333.021311,1277.67952 332.588963,1277.68627 332.143105,1277.67276 C331.697246,1277.65925 331.278409,1277.61196 330.886594,1277.5309 C330.494779,1277.44983 330.217806,1277.2877 330.055676,1277.04451 C330.136741,1277.04451 330.157007,1276.99046 330.116474,1276.88238 C330.075942,1276.77429 330.001632,1276.65945 329.893545,1276.53785 C329.785458,1276.41625 329.657105,1276.29465 329.508485,1276.17306 C329.359866,1276.05146 329.204491,1275.99066 329.04236,1275.99066 C328.528947,1275.96364 328.18442,1276.15279 328.008779,1276.55812 C327.833138,1276.96344 327.812871,1277.36877 327.94798,1277.77409 C328.164154,1278.42261 328.56948,1278.8955 329.163958,1279.19273 C329.758436,1279.48997 330.406958,1279.67913 331.109523,1279.76019 Z M357.455716,1272.059 C358.266368,1272.08602 359.07702,1271.9374 359.887672,1271.61314 C360.698325,1271.28888 361.454933,1270.97813 362.157498,1270.68089 C362.860063,1270.38365 363.562629,1270.09992 364.265194,1269.8297 C364.967759,1269.55949 365.683835,1269.35682 366.413422,1269.22171 C366.737683,1269.14065 367.115987,1269.0866 367.548335,1269.05958 C367.980682,1269.03256 368.304943,1268.87043 368.521117,1268.57319 C368.710269,1268.30297 368.784579,1268.05302 368.744047,1267.82334 C368.703514,1267.59365 368.602182,1267.39775 368.440052,1267.23562 C368.277922,1267.07349 368.075259,1266.95189 367.832063,1266.87082 C367.588867,1266.78976 367.345672,1266.76274 367.102476,1266.78976 C366.53502,1266.8438 365.974319,1266.94513 365.420373,1267.09375 C364.866427,1267.24237 364.319237,1267.41126 363.778802,1267.60041 C362.860063,1267.92467 361.94808,1268.29622 361.042852,1268.71506 C360.137624,1269.13389 359.212129,1269.4514 358.266368,1269.66757 C358.968933,1268.26244 359.93496,1266.94513 361.164449,1265.71564 C362.393938,1264.48615 363.562629,1263.34449 364.67052,1262.29064 L364.67052,1262.29064 L365.075846,1261.92584 C365.535215,1261.92584 365.987829,1261.9326 366.433688,1261.94611 C366.879547,1261.95962 367.332161,1261.97989 367.79153,1262.00691 C368.575161,1262.03393 369.352036,1262.07446 370.122155,1262.12851 C370.892275,1262.18255 371.669149,1262.25011 372.45278,1262.33117 C372.885128,1262.38521 373.432318,1262.43926 374.09435,1262.4933 C374.756383,1262.54734 375.303573,1262.70948 375.735921,1262.97969 C375.816986,1263.27693 375.979116,1263.48635 376.222312,1263.60795 C376.465508,1263.72955 376.722214,1263.77008 376.992432,1263.72955 C377.262649,1263.68901 377.499089,1263.56742 377.701752,1263.36475 C377.904415,1263.16209 377.992236,1262.88512 377.965214,1262.53383 C377.911171,1262.15553 377.776062,1261.84478 377.559888,1261.60158 C377.343714,1261.35839 377.087008,1261.16924 376.789768,1261.03413 C376.087203,1260.70987 375.33735,1260.47343 374.540209,1260.32481 C373.743068,1260.17619 372.918905,1260.08161 372.06772,1260.04108 C371.216535,1260.00055 370.372106,1259.98704 369.534432,1260.00055 C368.696758,1260.01406 367.886106,1260.02081 367.102476,1260.02081 C367.886106,1259.31825 368.683248,1258.62244 369.4939,1257.93338 C370.304552,1257.24433 371.128715,1256.54852 371.966389,1255.84595 C372.155541,1255.6568 372.263628,1255.44063 372.290649,1255.19743 C372.317671,1254.95424 372.277139,1254.73131 372.169052,1254.52864 C372.060965,1254.32598 371.90559,1254.17736 371.702927,1254.08279 C371.500264,1253.98821 371.263823,1253.98145 370.993606,1254.06252 C370.507215,1254.19763 370.027579,1254.51513 369.554699,1255.01504 C369.081818,1255.51494 368.669737,1255.92702 368.318454,1256.25128 C367.588867,1256.87278 366.872791,1257.49428 366.170226,1258.11578 C365.467661,1258.73728 364.765096,1259.37229 364.062531,1260.02081 C360.711835,1260.07486 357.320607,1260.20996 353.888847,1260.42614 C350.457086,1260.64231 347.119902,1261.18275 343.877294,1262.04744 C343.607076,1262.12851 343.465212,1262.3109 343.451701,1262.59463 C343.43819,1262.87836 343.580055,1263.07427 343.877294,1263.18236 C344.012402,1263.2364 344.161022,1263.2364 344.323152,1263.18236 C344.485283,1263.12831 344.633902,1263.08778 344.769011,1263.06076 C345.336467,1262.92565 345.897168,1262.82432 346.451114,1262.75676 C347.00506,1262.68921 347.565761,1262.6149 348.133217,1262.53383 C349.700478,1262.3717 351.260983,1262.24335 352.814733,1262.14877 C354.368483,1262.0542 355.928988,1261.97989 357.496249,1261.92584 C358.279879,1261.89882 359.049999,1261.88531 359.806607,1261.88531 L359.806607,1261.88531 L362.116966,1261.88531 C362.008879,1261.96638 361.914303,1262.0542 361.833237,1262.14877 C361.752172,1262.24335 361.657596,1262.34468 361.549509,1262.45277 C361.387379,1262.6149 361.049607,1262.95943 360.536194,1263.48635 C360.022781,1264.01327 359.46208,1264.62802 358.854091,1265.33058 C358.246102,1266.03315 357.67189,1266.76949 357.131455,1267.53961 C356.591021,1268.30973 356.19245,1269.02581 355.935744,1269.68784 C355.679037,1270.34987 355.64526,1270.89706 355.834412,1271.32941 C356.023564,1271.76176 356.563999,1272.00495 357.455716,1272.059 Z M370.608546,1271.65367 C371.081427,1271.70771 371.554307,1271.72122 372.027187,1271.6942 C372.500068,1271.66718 372.952682,1271.62665 373.38503,1271.5726 C375.033356,1271.41047 376.65466,1271.16052 378.248942,1270.82275 C379.843225,1270.48498 381.451018,1270.12694 383.072322,1269.74864 C383.693822,1269.61353 384.308567,1269.47166 384.916556,1269.32305 C385.524545,1269.17443 386.139289,1269.07309 386.760789,1269.01905 C387.220159,1268.99203 387.524153,1268.85692 387.672773,1268.61372 C387.821392,1268.37053 387.855169,1268.10707 387.774104,1267.82334 C387.693039,1267.53961 387.517398,1267.28966 387.24718,1267.07349 C386.976963,1266.85731 386.639191,1266.76274 386.233865,1266.78976 C385.288105,1266.89784 384.349099,1267.06673 383.416849,1267.29641 C382.484599,1267.5261 381.545594,1267.74903 380.599833,1267.9652 C379.30279,1268.26244 377.998991,1268.54617 376.688437,1268.81639 C375.377883,1269.0866 374.060573,1269.27576 372.736508,1269.38384 L372.736508,1269.38384 L372.148785,1269.38384 C371.838035,1269.38384 371.500264,1269.37033 371.13547,1269.34331 C370.770677,1269.31629 370.42615,1269.269 370.101889,1269.20145 C369.777628,1269.13389 369.561454,1269.04607 369.453367,1268.93799 C369.777628,1268.99203 370.155932,1269.03932 370.58828,1269.07985 C371.020628,1269.12038 371.439465,1269.12038 371.844791,1269.07985 C372.250117,1269.03932 372.61491,1268.9515 372.939171,1268.81639 C373.263432,1268.68128 373.506628,1268.45159 373.668758,1268.12733 C373.85791,1267.69499 373.878176,1267.33695 373.729557,1267.05322 C373.580937,1266.76949 373.317475,1266.54656 372.939171,1266.38443 C372.560867,1266.2223 372.115008,1266.12772 371.601595,1266.1007 C371.088182,1266.07368 370.574769,1266.08719 370.061356,1266.14124 C369.547943,1266.19528 369.081818,1266.2831 368.662981,1266.4047 C368.244144,1266.5263 367.94015,1266.68167 367.750998,1266.87082 C367.453759,1267.14104 367.251096,1267.44503 367.143009,1267.78281 C367.034922,1268.12058 367.001145,1268.4651 367.041677,1268.81639 C367.08221,1269.16767 367.190297,1269.50544 367.365938,1269.8297 C367.541579,1270.15396 367.778019,1270.43769 368.075259,1270.68089 C368.426541,1270.97813 368.818356,1271.20106 369.250704,1271.34968 C369.683052,1271.49829 370.135666,1271.59963 370.608546,1271.65367 Z M382.666996,1277.08504 C383.153387,1277.24717 383.639779,1277.24717 384.12617,1277.08504 C384.612561,1276.92291 385.078686,1276.67971 385.524545,1276.35545 C385.970403,1276.03119 386.382485,1275.6664 386.760789,1275.26107 C387.139093,1274.85575 387.476865,1274.49095 387.774104,1274.16669 C388.422626,1273.38306 389.057637,1272.5589 389.679137,1271.6942 C390.300637,1270.82951 390.800539,1269.92428 391.178843,1268.97852 C391.800343,1269.11363 392.448865,1269.18118 393.124408,1269.18118 L393.124408,1269.18118 L394.745712,1269.18118 C395.01593,1269.18118 395.509076,1269.20145 396.225152,1269.24198 C396.941228,1269.28251 397.650549,1269.269 398.353114,1269.20145 C399.055679,1269.13389 399.643402,1268.98527 400.116282,1268.75559 C400.589163,1268.5259 400.731027,1268.12733 400.541875,1267.55988 C400.433788,1267.26264 400.264902,1267.05997 400.035217,1266.95189 C399.805532,1266.8438 399.54207,1266.77625 399.244831,1266.74922 C398.947592,1266.7222 398.650353,1266.72896 398.353114,1266.76949 C398.055875,1266.81002 397.799168,1266.83029 397.582995,1266.83029 C396.880429,1266.88433 396.191375,1266.91811 395.515832,1266.93162 C394.840288,1266.94513 394.151234,1266.92487 393.448669,1266.87082 C393.124408,1266.8438 392.786636,1266.82353 392.435354,1266.81002 C392.084071,1266.79651 391.75981,1266.7222 391.462571,1266.58709 C391.246397,1266.37092 391.009957,1266.26283 390.753251,1266.26283 C390.496544,1266.26283 390.260104,1266.32363 390.04393,1266.44523 C389.827756,1266.56683 389.665626,1266.74922 389.557539,1266.99242 C389.449452,1267.23562 389.449452,1267.49232 389.557539,1267.76254 C389.638604,1268.03276 389.773713,1268.23542 389.962865,1268.37053 C389.584561,1268.99203 389.145457,1269.59326 388.645555,1270.17423 C388.145653,1270.7552 387.666017,1271.28888 387.206648,1271.77527 C386.909409,1272.12655 386.598659,1272.47108 386.274398,1272.80885 C385.950137,1273.14662 385.598855,1273.46413 385.22055,1273.76137 C385.085442,1273.89647 384.74767,1274.09914 384.207235,1274.36935 L384.207235,1274.36935 L384.693626,1273.59923 L384.693626,1273.59923 L385.585344,1272.14006 C385.882583,1271.65367 386.193333,1271.18079 386.517594,1270.72142 C387.193137,1269.77566 387.875436,1268.84341 388.56449,1267.92467 C389.253544,1267.00593 389.949354,1266.1007 390.651919,1265.20899 C391.840876,1263.77683 393.070365,1262.35819 394.340386,1260.95306 C395.610408,1259.54793 397.002027,1258.29142 398.515244,1257.18353 C398.704397,1257.04842 398.825994,1256.88629 398.880038,1256.69714 C398.934081,1256.50799 398.940837,1256.31883 398.900304,1256.12968 C398.859772,1255.94053 398.771951,1255.77164 398.636842,1255.62302 C398.501734,1255.47441 398.312581,1255.38658 398.069386,1255.35956 C397.880234,1255.33254 397.684326,1255.35956 397.481663,1255.44063 C397.279,1255.52169 397.089848,1255.62978 396.914207,1255.76489 C396.738565,1255.9 396.569679,1256.04862 396.407549,1256.21075 C396.245419,1256.37288 396.096799,1256.50799 395.96169,1256.61607 C395.042951,1257.3997 394.157989,1258.23062 393.306805,1259.10883 C392.45562,1259.98704 391.624702,1260.88551 390.81405,1261.80425 C389.922332,1262.80405 389.050881,1263.81061 388.199697,1264.82393 C387.348512,1265.83724 386.517594,1266.87082 385.706941,1267.92467 C384.950333,1268.89745 384.20048,1269.91752 383.457382,1270.98488 C382.714284,1272.05224 382.153583,1273.1804 381.775279,1274.36935 C381.586127,1274.90979 381.538839,1275.44347 381.633415,1275.97039 C381.727991,1276.49732 382.072518,1276.86886 382.666996,1277.08504 Z M407.105142,1271.79738 L407.229754,1271.79553 C407.689124,1271.78202 408.148493,1271.72122 408.607863,1271.61314 C409.067232,1271.50505 409.513091,1271.36994 409.945439,1271.20781 C410.377787,1271.04568 410.783113,1270.89706 411.161417,1270.76195 C411.972069,1270.49174 412.796232,1270.17423 413.633906,1269.80944 C414.47158,1269.44464 415.322764,1269.19469 416.18746,1269.05958 C416.430656,1269.03256 416.64683,1268.93799 416.835982,1268.77585 C417.025134,1268.61372 417.160242,1268.43133 417.241308,1268.22866 C417.322373,1268.026 417.335884,1267.81658 417.28184,1267.60041 C417.227797,1267.38424 417.079177,1267.18157 416.835982,1266.99242 C416.538743,1266.77625 416.221237,1266.70869 415.883465,1266.78976 C415.545694,1266.87082 415.228188,1266.95189 414.930949,1267.03295 C414.390515,1267.19508 413.829814,1267.39775 413.248846,1267.64094 C412.667879,1267.88414 412.080156,1268.12733 411.485678,1268.37053 C410.8912,1268.61372 410.289966,1268.8299 409.681977,1269.01905 C409.073988,1269.2082 408.472754,1269.34331 407.878276,1269.42438 C408.09445,1269.04607 408.189026,1268.68803 408.162004,1268.35026 C408.134983,1268.01249 407.851254,1267.69499 407.31082,1267.39775 C406.770385,1267.18157 406.22995,1267.10051 405.689515,1267.15455 C405.60845,1267.07349 405.513874,1266.99918 405.405787,1266.93162 C405.2977,1266.86407 405.176102,1266.80327 405.040994,1266.74922 C404.419494,1266.56007 403.784483,1266.43172 403.135961,1266.36416 C402.48744,1266.29661 401.825407,1266.30337 401.149864,1266.38443 C400.744538,1266.43847 400.231125,1266.58034 399.609625,1266.81002 C398.988125,1267.03971 398.413913,1267.33695 397.886989,1267.70174 C397.360065,1268.06653 396.96825,1268.49888 396.711544,1268.99878 C396.454837,1269.49869 396.475103,1270.03237 396.772342,1270.59982 C397.015538,1271.05919 397.380332,1271.32941 397.866723,1271.41047 C398.353114,1271.49154 398.825994,1271.49154 399.285364,1271.41047 C399.987929,1271.27537 400.683739,1271.0727 401.372793,1270.80249 C402.061847,1270.53227 402.757657,1270.28907 403.460222,1270.0729 C404.000657,1269.91077 404.541092,1269.78917 405.081526,1269.7081 C404.946418,1270.08641 404.939662,1270.44445 405.06126,1270.78222 C405.182858,1271.11999 405.473342,1271.39696 405.932711,1271.61314 C406.338037,1271.74825 406.770385,1271.80904 407.229754,1271.79553 L407.105142,1271.79738 Z M399.69069,1269.14065 C400.123038,1268.89745 400.663472,1268.73532 401.311994,1268.65426 C401.041777,1268.76234 400.771559,1268.85692 400.501342,1268.93799 C400.231125,1269.01905 399.960907,1269.0866 399.69069,1269.14065 Z M424.73984,1271.5726 C425.0641,1271.70771 425.428894,1271.76176 425.83422,1271.73474 C426.239546,1271.70771 426.644872,1271.64016 427.050198,1271.53207 C427.455524,1271.42399 427.854095,1271.30239 428.24591,1271.16728 C428.637725,1271.03217 428.982252,1270.92408 429.279491,1270.84302 C430.252274,1270.54578 431.265589,1270.1945 432.319437,1269.78917 C433.373284,1269.38384 434.413621,1269.14065 435.440447,1269.05958 C435.683643,1269.05958 435.899817,1268.98527 436.088969,1268.83665 C436.278121,1268.68803 436.406474,1268.49888 436.474029,1268.2692 C436.541583,1268.03951 436.548338,1267.80983 436.494295,1267.58014 C436.440251,1267.35046 436.305143,1267.15455 436.088969,1266.99242 C435.737686,1266.74922 435.325605,1266.68843 434.852724,1266.81002 C434.379844,1266.93162 433.967762,1267.04646 433.61648,1267.15455 C432.859871,1267.37072 432.110018,1267.59365 431.36692,1267.82334 C430.623823,1268.05302 429.88748,1268.27595 429.157893,1268.49213 C428.779589,1268.62724 428.401285,1268.74208 428.02298,1268.83665 C427.644676,1268.93123 427.266372,1269.03256 426.888068,1269.14065 C427.023176,1268.81639 427.050198,1268.50564 426.969133,1268.2084 C426.888068,1267.91116 426.61785,1267.65445 426.158481,1267.43828 C425.83422,1267.27615 425.476182,1267.18833 425.084367,1267.17482 C424.692551,1267.16131 424.300736,1267.18157 423.908921,1267.23562 C423.517106,1267.28966 423.132046,1267.37072 422.753742,1267.47881 C422.375438,1267.5869 422.024155,1267.68147 421.699894,1267.76254 L421.699894,1267.76254 L419.592199,1268.33 C418.889634,1268.51915 418.187068,1268.68128 417.484503,1268.81639 C417.619612,1268.57319 417.693922,1268.32324 417.707433,1268.06653 C417.720944,1267.80983 417.606101,1267.53286 417.362906,1267.23562 C417.227797,1267.07349 417.058911,1266.95864 416.856248,1266.89109 C416.653585,1266.82353 416.444166,1266.78976 416.227993,1266.78976 C415.768623,1266.78976 415.451118,1266.95864 415.275476,1267.29641 C415.099835,1267.63419 415.066058,1267.97871 415.174145,1268.33 C415.012014,1268.54617 414.843129,1268.77585 414.667487,1269.01905 C414.491846,1269.26225 414.356737,1269.50544 414.262161,1269.74864 C414.167585,1269.99183 414.147319,1270.23503 414.201362,1270.47822 C414.255406,1270.72142 414.444558,1270.9511 414.768819,1271.16728 C415.012014,1271.30239 415.25521,1271.38345 415.498406,1271.41047 C415.903732,1271.4375 416.315813,1271.41047 416.73465,1271.32941 C417.153487,1271.24834 417.572324,1271.14026 417.991161,1271.00515 L417.991161,1271.00515 L419.247672,1270.59982 C419.666509,1270.46471 420.065079,1270.34312 420.443383,1270.23503 L420.443383,1270.23503 L422.145753,1269.8297 C422.713209,1269.69459 423.294177,1269.60002 423.888655,1269.54597 C423.780568,1269.9513 423.800834,1270.34987 423.949454,1270.74169 C424.098073,1271.1335 424.361535,1271.41047 424.73984,1271.5726 Z M449.667391,1279.96285 C450.234848,1279.98988 450.842837,1279.88854 451.491358,1279.65886 C452.13988,1279.42917 452.768135,1279.13869 453.376125,1278.78741 C453.984114,1278.43613 454.450239,1278.17942 454.774499,1278.01729 C456.638999,1276.99046 458.469722,1275.90959 460.266667,1274.77468 C462.063613,1273.63977 463.853803,1272.49134 465.637237,1271.32941 C467.474715,1270.16747 469.285172,1269.01905 471.068606,1267.88414 C472.852041,1266.74922 474.676008,1265.61431 476.540508,1264.4794 C477.405204,1263.93896 478.263144,1263.4188 479.114328,1262.91889 C479.965513,1262.41899 480.836964,1261.93936 481.728681,1261.47999 C482.02592,1261.31786 482.377203,1261.10844 482.782529,1260.85173 C483.187855,1260.59502 483.593181,1260.39912 483.998507,1260.26401 C483.836377,1260.91253 483.539138,1261.70967 483.10679,1262.65543 C482.674442,1263.60119 482.208317,1264.60775 481.708415,1265.67511 C481.208513,1266.74247 480.728877,1267.82334 480.269508,1268.91772 C479.810138,1270.0121 479.485877,1271.02541 479.296725,1271.95766 C479.107573,1272.88991 479.100817,1273.69381 479.276459,1274.36935 C479.4521,1275.0449 479.931736,1275.50427 480.715366,1275.74746 C481.174736,1275.90959 481.667882,1275.93662 482.194806,1275.82853 C482.72173,1275.72044 483.248654,1275.55156 483.775578,1275.32187 C484.302502,1275.09219 484.809159,1274.83548 485.295551,1274.55175 C485.781942,1274.26802 486.21429,1274.01807 486.592594,1273.8019 C488.132833,1272.99125 489.652806,1272.14682 491.152512,1271.26861 C492.652218,1270.3904 494.131658,1269.47842 495.590832,1268.53266 C498.455136,1266.7222 501.292418,1264.8577 504.102679,1262.93916 C506.91294,1261.02062 509.628624,1258.96696 512.249732,1256.7782 C512.628037,1256.45394 513.127939,1256.03511 513.749439,1255.52169 C514.370939,1255.00828 514.945151,1254.45433 515.472075,1253.85986 C515.998998,1253.26538 516.404324,1252.64388 516.688053,1251.99536 C516.971781,1251.34684 516.978536,1250.71182 516.708319,1250.09032 C516.57321,1249.79309 516.350281,1249.52962 516.039531,1249.29994 C515.728781,1249.07025 515.397765,1248.98243 515.046482,1249.03648 C514.749243,1249.09052 514.512803,1249.25265 514.337162,1249.52287 C514.16152,1249.79309 514.100721,1250.07681 514.154765,1250.37405 C514.181787,1250.53618 514.242586,1250.65778 514.337162,1250.73885 C514.431738,1250.81991 514.533069,1250.90098 514.641156,1250.98204 C514.614134,1251.19822 514.512803,1251.43466 514.337162,1251.69136 C514.16152,1251.94807 513.965613,1252.19802 513.749439,1252.44122 C513.533265,1252.68441 513.310336,1252.90734 513.080651,1253.11 C512.850966,1253.31267 512.668569,1253.48155 512.533461,1253.61666 C511.966004,1254.1571 511.371526,1254.69077 510.750026,1255.2177 C510.128526,1255.74462 509.507026,1256.26479 508.885526,1256.7782 C507.399331,1257.96716 505.886114,1259.11558 504.345875,1260.22348 C502.805636,1261.33137 501.238375,1262.39873 499.644093,1263.42555 C496.752767,1265.34409 493.814153,1267.20184 490.828251,1268.99878 C487.842349,1270.79573 484.741605,1272.30219 481.526018,1273.51817 C481.444953,1273.16689 481.492241,1272.74129 481.667882,1272.24139 C481.843524,1271.74149 481.971877,1271.35643 482.052942,1271.08621 C482.269116,1270.43769 482.498801,1269.80268 482.741996,1269.18118 C482.985192,1268.55968 483.241899,1267.93818 483.512116,1267.31668 C483.971485,1266.15475 484.478143,1264.98606 485.032089,1263.81061 C485.586034,1262.63517 485.998116,1261.43945 486.268333,1260.22348 C486.430463,1259.3858 486.37642,1258.80483 486.106203,1258.48057 C485.835985,1258.15631 485.423904,1258.00094 484.869958,1258.01445 C484.316013,1258.02796 483.687757,1258.17658 482.985192,1258.46031 C482.282627,1258.74404 481.586817,1259.05479 480.897763,1259.39256 C480.208709,1259.73033 479.587209,1260.0681 479.033263,1260.40587 C478.479318,1260.74364 478.094258,1260.98008 477.878084,1261.11519 C475.419106,1262.60139 473.014171,1264.11461 470.66328,1265.65484 C468.312389,1267.19508 465.920966,1268.72181 463.489009,1270.23503 C462.273031,1270.99164 461.070564,1271.74149 459.881608,1272.48459 C458.692651,1273.22769 457.490184,1273.95052 456.274206,1274.65308 C455.86888,1274.89628 455.429777,1275.15974 454.956896,1275.44347 C454.484016,1275.7272 454.00438,1276.01092 453.517989,1276.29465 C453.031597,1276.57838 452.538451,1276.83509 452.038549,1277.06477 C451.538646,1277.29446 451.0455,1277.46334 450.559109,1277.57143 C450.694217,1277.11206 450.937413,1276.61891 451.288695,1276.09199 C451.639978,1275.56507 451.923706,1275.15298 452.13988,1274.85575 C452.518184,1274.26127 452.903244,1273.6803 453.295059,1273.11284 C453.686875,1272.54539 454.085445,1271.97793 454.490771,1271.41047 C455.463554,1270.08641 456.456602,1268.78937 457.469918,1267.51934 C458.483233,1266.24932 459.503303,1264.99281 460.530129,1263.74981 C461.47589,1262.6149 462.441917,1261.50025 463.42821,1260.40587 C464.414504,1259.31149 465.421064,1258.22387 466.447889,1257.143 C467.069389,1256.49448 467.724667,1255.80542 468.413721,1255.07583 C469.102775,1254.34625 469.866139,1253.77879 470.703813,1253.37347 C471.028074,1253.26538 471.244248,1253.06947 471.352335,1252.78574 C471.460422,1252.50201 471.473932,1252.22504 471.392867,1251.95482 C471.311802,1251.68461 471.149672,1251.46843 470.906476,1251.3063 C470.66328,1251.14417 470.366041,1251.11715 470.014759,1251.22524 C469.528367,1251.3063 469.062242,1251.5495 468.616384,1251.95482 C468.170525,1252.36015 467.771955,1252.71143 467.420672,1253.00867 C466.042563,1254.22465 464.74552,1255.50818 463.529542,1256.85927 C462.313564,1258.21036 461.097586,1259.57495 459.881608,1260.95306 C458.611586,1262.43926 457.375342,1263.93221 456.172874,1265.43192 C454.970407,1266.93162 453.801717,1268.47862 452.666804,1270.0729 C452.126369,1270.80249 451.599445,1271.54558 451.086032,1272.30219 C450.572619,1273.0588 450.086228,1273.82892 449.626859,1274.61255 C449.464728,1274.90979 449.275576,1275.24081 449.059402,1275.6056 C448.843228,1275.97039 448.660832,1276.3487 448.512212,1276.74051 C448.363592,1277.13233 448.269016,1277.5309 448.228484,1277.93622 C448.187951,1278.34155 448.24875,1278.71985 448.410881,1279.07114 C448.681098,1279.63859 449.099935,1279.93583 449.667391,1279.96285 Z M510.040706,1278.58475 C510.297412,1278.69283 510.587896,1278.66581 510.912157,1278.50368 C511.371526,1278.26048 511.560678,1277.95649 511.479613,1277.5917 C511.398548,1277.2269 511.249928,1276.88238 511.033754,1276.55812 C510.871624,1276.26088 510.89189,1275.90284 511.094553,1275.484 C511.297216,1275.06516 511.466102,1274.74766 511.601211,1274.53148 C512.114624,1273.66679 512.715857,1272.88316 513.404912,1272.18059 C514.093966,1271.47803 514.789776,1270.78897 515.492341,1270.11343 C517.19471,1268.57319 518.971389,1267.12077 520.822378,1265.75618 C522.673367,1264.39158 524.571644,1263.06076 526.517209,1261.76371 C530.408339,1259.16963 534.488621,1256.73767 538.758056,1254.46785 C539.487643,1254.08954 540.271273,1253.67746 541.108947,1253.2316 C541.946621,1252.78574 542.804561,1252.36015 543.682767,1251.95482 C544.560974,1251.5495 545.452691,1251.19146 546.357919,1250.88071 C547.263147,1250.56996 548.148109,1250.37405 549.012805,1250.29299 C548.47237,1251.6711 547.749539,1252.95463 546.84431,1254.14358 C545.939082,1255.33254 545.05412,1256.49448 544.189425,1257.62939 C543.135577,1259.0075 542.068218,1260.35183 540.987349,1261.66238 C539.90648,1262.97294 538.812099,1264.30376 537.704208,1265.65484 C537.379947,1266.03315 536.994887,1266.4655 536.549029,1266.95189 C536.10317,1267.43828 535.677578,1267.95169 535.272252,1268.49213 C534.866926,1269.03256 534.508888,1269.57975 534.198138,1270.1337 C533.887388,1270.68764 533.718502,1271.23483 533.69148,1271.77527 C533.637437,1272.39677 533.759035,1272.80885 534.056274,1273.01151 C534.353513,1273.21418 534.718306,1273.28848 535.150654,1273.23444 C535.583002,1273.1804 536.022105,1273.0588 536.467964,1272.86965 C536.913822,1272.6805 537.258349,1272.50485 537.501545,1272.34272 C538.906675,1271.50505 540.278028,1270.59307 541.615604,1269.60677 C542.95318,1268.62048 544.27049,1267.61392 545.567533,1266.58709 L545.567533,1266.58709 L549.458663,1263.50662 C550.755707,1262.47979 552.066261,1261.47999 553.390326,1260.5072 C554.687369,1259.56144 556.004679,1258.62919 557.342255,1257.71045 C558.679831,1256.79171 560.091717,1256.0216 561.577912,1255.4001 C561.740042,1255.34605 561.908928,1255.28525 562.08457,1255.2177 C562.260211,1255.15014 562.456119,1255.08935 562.672292,1255.0353 C562.375053,1255.84595 561.949461,1256.62283 561.395515,1257.36593 C560.84157,1258.10902 560.321401,1258.81835 559.83501,1259.49389 C559.078401,1260.54774 558.315037,1261.59483 557.544918,1262.63517 C556.774798,1263.6755 556.011434,1264.70908 555.254826,1265.73591 C555.038652,1266.00613 554.741413,1266.37768 554.363108,1266.85056 C553.984804,1267.32344 553.586234,1267.85036 553.167397,1268.43133 C552.74856,1269.0123 552.356745,1269.62028 551.991951,1270.2553 C551.627158,1270.89031 551.35694,1271.50505 551.181299,1272.09953 C551.005658,1272.69401 550.95837,1273.24795 551.039435,1273.76137 C551.1205,1274.27478 551.404228,1274.69362 551.89062,1275.01788 C552.295946,1275.31512 552.762071,1275.45022 553.288994,1275.4232 C553.815918,1275.39618 554.309065,1275.32863 554.768435,1275.22054 C555.903347,1274.95032 556.997728,1274.59228 558.051575,1274.14643 C559.105423,1273.70057 560.159271,1273.24795 561.213119,1272.78858 C562.023771,1272.4373 562.8682,1272.03873 563.746406,1271.59287 C564.624613,1271.14701 565.51633,1270.72818 566.421558,1270.33636 C567.326786,1269.94455 568.245526,1269.61353 569.177775,1269.34331 C570.110025,1269.07309 571.03552,1268.93799 571.954259,1268.93799 C572.359585,1268.91096 572.643313,1268.77585 572.805443,1268.53266 C572.967574,1268.28946 573.028373,1268.026 572.98784,1267.74227 C572.947308,1267.45855 572.812199,1267.20184 572.582514,1266.97215 C572.352829,1266.74247 572.035324,1266.64114 571.629998,1266.66816 C570.657215,1266.7222 569.704699,1266.89784 568.772449,1267.19508 C567.840199,1267.49232 566.928216,1267.83009 566.036499,1268.2084 C564.982651,1268.61372 563.928803,1269.05958 562.874955,1269.54597 C561.821108,1270.03237 560.76726,1270.49849 559.713412,1270.94435 C558.659565,1271.39021 557.598961,1271.80229 556.531603,1272.18059 C555.464244,1272.5589 554.376619,1272.85614 553.268728,1273.07231 C553.29575,1272.82912 553.37006,1272.5589 553.491657,1272.26166 C553.613255,1271.96442 553.761875,1271.67394 553.937516,1271.39021 C554.113157,1271.10648 554.288799,1270.83626 554.46444,1270.57956 C554.640081,1270.32285 554.781945,1270.11343 554.890032,1269.9513 C555.619619,1268.78937 556.389739,1267.65445 557.200391,1266.54656 C558.065086,1265.33058 558.950048,1264.14838 559.855276,1262.99996 C560.760505,1261.85154 561.645466,1260.66933 562.510162,1259.45336 C562.753358,1259.1291 563.084374,1258.68999 563.503211,1258.13605 C563.922048,1257.5821 564.286841,1257.00113 564.597591,1256.39314 C564.908341,1255.78516 565.097493,1255.19068 565.165048,1254.60971 C565.232602,1254.02874 565.036694,1253.5356 564.577325,1253.13027 C564.280086,1252.86005 563.949069,1252.71819 563.584276,1252.70468 C563.219483,1252.69117 562.847934,1252.71143 562.469629,1252.76548 C561.577912,1252.90058 560.719972,1253.18431 559.895809,1253.61666 C559.071646,1254.04901 558.267749,1254.49487 557.484119,1254.95424 C556.10601,1255.79191 554.77519,1256.67687 553.491657,1257.60912 C552.208125,1258.54137 550.917837,1259.48038 549.620794,1260.42614 C548.296729,1261.42594 546.999685,1262.41899 545.729664,1263.40528 C544.459642,1264.39158 543.17611,1265.38463 541.879066,1266.38443 C541.122458,1266.95189 540.332072,1267.59365 539.507909,1268.30973 C538.683746,1269.02581 537.825806,1269.64055 536.934089,1270.15396 C537.204306,1269.77566 537.481279,1269.41087 537.765007,1269.05958 C538.048735,1268.7083 538.325708,1268.35702 538.595925,1268.00574 C539.13636,1267.27615 539.697061,1266.55332 540.278028,1265.83724 C540.858996,1265.12117 541.433208,1264.39833 542.000664,1263.66875 C543.162599,1262.23659 544.317778,1260.81795 545.466202,1259.41282 C546.614626,1258.00769 547.729272,1256.54852 548.810142,1255.0353 C549.053337,1254.71104 549.377598,1254.27869 549.782924,1253.73826 C550.18825,1253.19782 550.553044,1252.62361 550.877305,1252.01562 C551.201565,1251.40763 551.417739,1250.8064 551.525826,1250.21192 C551.633913,1249.61744 551.498804,1249.09052 551.1205,1248.63115 C550.904326,1248.36093 550.640864,1248.18529 550.330114,1248.10423 C550.019364,1248.02316 549.695104,1247.98938 549.357332,1248.0029 C549.01956,1248.01641 548.675033,1248.05694 548.32375,1248.12449 C547.972468,1248.19205 547.675229,1248.26636 547.432033,1248.34742 C545.05412,1248.96892 542.750517,1249.84037 540.521224,1250.96178 C538.291931,1252.08318 536.109926,1253.25187 533.975208,1254.46785 C529.759818,1256.84576 525.693046,1259.42633 521.774895,1262.20957 C519.964438,1263.50662 518.181004,1264.8577 516.424591,1266.26283 C514.668178,1267.66796 513.033363,1269.2082 511.520146,1270.88355 C511.195885,1271.23483 510.858113,1271.61989 510.50683,1272.03873 C510.155548,1272.45757 509.838043,1272.90343 509.554314,1273.37631 C509.270586,1273.84919 509.047657,1274.33558 508.885526,1274.83548 C508.723396,1275.33538 508.655842,1275.84204 508.682863,1276.35545 C508.709885,1276.59865 508.777439,1276.88238 508.885526,1277.20664 C508.993613,1277.5309 509.148988,1277.81463 509.351651,1278.05782 C509.554314,1278.30102 509.783999,1278.47666 510.040706,1278.58475 Z" id="StefanWM"></path>
        </g>
    </g>
</svg>