<?xml version="1.0" encoding="UTF-8"?>
<svg width="163px" height="549px" viewBox="0 0 163 549" version="1.1" xmlns="http://www.w3.org/2000/svg" xmlns:xlink="http://www.w3.org/1999/xlink">
    <title>Combined Shape Copy</title>
    <g id="Page-1" stroke="none" stroke-width="1" fill="none" fill-rule="evenodd" opacity="0.049999997">
        <g id="Concept-1-(CTA)-Mobile" transform="translate(-157.000000, -2861.000000)" fill="#FB285E" fill-rule="nonzero">
            <path d="M248.176268,3328.11026 L230.932745,3386.53895 C230.419106,3388.28858 231.635865,3390.05505 233.381239,3390.1605 L233.54638,3390.16547 L238.353378,3390.16547 L232.496947,3410 L209.424347,3410 C206.820659,3410 204.70936,3407.82716 204.70936,3405.14758 C204.70936,3404.9616 204.724833,3404.78245 204.747675,3404.60558 L204.786451,3404.3414 L227.282112,3328.11026 L248.176268,3328.11026 Z M209.784217,3327.64761 C212.387905,3327.64761 214.499204,3329.82045 214.499204,3332.50003 C214.499204,3332.68601 214.483731,3332.86516 214.460889,3333.04203 L214.422113,3333.30621 L191.926452,3409.53735 L171.032296,3409.53735 L188.275819,3351.10866 C188.789458,3349.35903 187.572699,3347.59256 185.827325,3347.48711 L185.662184,3347.48214 L180.855185,3347.48214 L186.711617,3327.64761 L209.784217,3327.64761 Z M325.320241,3327.64761 L300.33336,3409.53735 L278.720582,3409.53735 L303.712607,3327.64761 L325.320241,3327.64761 Z M287.335645,3327.64761 L270.093108,3386.0763 C269.577088,3387.82592 270.796042,3389.59239 272.539188,3389.69785 L272.704107,3389.70282 L277.510831,3389.70282 L271.654734,3409.53735 L248.585941,3409.53735 C245.979916,3409.53735 243.868737,3407.36451 243.868737,3404.68492 C243.868737,3404.49895 243.884209,3404.3198 243.90705,3404.14292 L243.945824,3403.87875 L266.440197,3327.64761 L287.335645,3327.64761 Z M170.622623,3328.11026 C173.228648,3328.11026 175.339827,3330.2831 175.339827,3332.96268 C175.339827,3333.14866 175.324354,3333.32781 175.301514,3333.50469 L175.26274,3333.76886 L157,3395.661 L157,3328.11 L170.622623,3328.11026 Z M198.797097,3235.93699 L173.810216,3317.82673 L157,3317.826 L157,3302.091 L177.189462,3235.93699 L198.797097,3235.93699 Z M160.812501,3235.93699 L157,3248.854 L157,3235.936 L160.812501,3235.93699 Z M287.41548,3046.13165 L270.209512,3104.56034 C269.696992,3106.30997 270.911101,3108.07644 272.652673,3108.18189 L272.817454,3108.18686 L277.613984,3108.18686 L271.770307,3128.02139 L248.747957,3128.02139 C246.14994,3128.02139 244.043239,3125.84855 244.043239,3123.16897 C244.043239,3122.983 244.058679,3122.80385 244.081471,3122.62697 L244.120162,3122.36279 L266.566829,3046.13165 L287.41548,3046.13165 Z M210.03074,3046.13165 C212.63109,3046.13165 214.737671,3048.3045 214.737671,3050.98408 C214.737671,3051.17005 214.722232,3051.3492 214.699441,3051.52608 L214.660752,3051.79025 L192.215369,3128.02139 L171.36543,3128.02139 L188.570413,3069.59271 C189.08531,3067.84308 187.869011,3066.07661 186.129661,3065.97115 L185.965101,3065.96619 L181.168846,3065.96619 L187.012189,3046.13165 L210.03074,3046.13165 Z M364.391439,3045.669 L339.458978,3127.55874 L317.893271,3127.55874 L342.830865,3045.669 L364.391439,3045.669 Z M326.489571,3045.669 L309.284587,3104.09769 C308.76969,3105.84732 309.98599,3107.61379 311.72534,3107.71924 L311.889899,3107.72421 L316.686154,3107.72421 L310.842812,3127.55874 L287.82426,3127.55874 C285.223911,3127.55874 283.11733,3125.3859 283.11733,3122.70632 C283.11733,3122.52034 283.132769,3122.34119 283.15556,3122.16432 L283.194249,3121.90014 L305.639632,3045.669 L326.489571,3045.669 Z M249.107043,3045.669 C251.70506,3045.669 253.811762,3047.84184 253.811762,3050.52142 C253.811762,3050.7074 253.796322,3050.88655 253.77353,3051.06342 L253.734839,3051.3276 L231.288172,3127.55874 L210.439521,3127.55874 L227.645489,3069.13005 C228.158009,3067.38042 226.9439,3065.61395 225.202328,3065.5085 L225.037547,3065.50353 L220.241017,3065.50353 L226.084694,3045.669 L249.107043,3045.669 Z M179.96173,3046.13165 L157,3121.535 L157,3050.716 L158.396023,3046.13165 L179.96173,3046.13165 Z M235.864382,2953.17327 L218.658414,3011.60196 C218.145893,3013.35159 219.360002,3015.11806 221.101575,3015.22351 L221.266356,3015.22848 L226.062886,3015.22848 L220.219209,3035.06301 L197.196859,3035.06301 C194.598842,3035.06301 192.492141,3032.89017 192.492141,3030.21059 C192.492141,3030.02461 192.507581,3029.84546 192.530373,3029.66859 L192.569064,3029.40441 L215.015731,2953.17327 L235.864382,2953.17327 Z M197.555945,2952.71062 C200.153962,2952.71062 202.260664,2954.88346 202.260664,2957.56304 C202.260664,2957.74902 202.245224,2957.92817 202.222432,2958.10504 L202.18374,2958.36922 L179.737073,3034.60036 L158.888422,3034.60036 L176.094391,2976.17167 C176.606911,2974.42204 175.392802,2972.65557 173.65123,2972.55012 L173.486448,2972.54515 L168.689919,2972.54515 L174.533596,2952.71062 L197.555945,2952.71062 Z M312.840341,2952.71062 L287.90788,3034.60036 L266.342173,3034.60036 L291.279767,2952.71062 L312.840341,2952.71062 Z M274.938473,2952.71062 L257.733489,3011.13931 C257.218592,3012.88893 258.434892,3014.65541 260.174241,3014.76086 L260.338801,3014.76583 L265.135056,3014.76583 L259.291714,3034.60036 L236.273162,3034.60036 C233.672813,3034.60036 231.566232,3032.42752 231.566232,3029.74794 C231.566232,3029.56196 231.581671,3029.38281 231.604462,3029.20593 L231.643151,3028.94176 L254.088534,2952.71062 L274.938473,2952.71062 Z M158.479642,2953.17327 C161.079992,2953.17327 163.186573,2955.34611 163.186573,2958.02569 C163.186573,2958.21167 163.171134,2958.39082 163.148343,2958.5677 L163.109654,2958.83187 L157,2979.58 L157,2953.173 L158.479642,2953.17327 Z M222.57029,2861.46265 L197.632696,2943.35239 L176.072122,2943.35239 L201.004583,2861.46265 L222.57029,2861.46265 Z M252.639301,2861.46265 C255.23965,2861.46265 257.346231,2863.63549 257.346231,2866.31508 C257.346231,2866.50105 257.330792,2866.6802 257.308002,2866.85708 L257.269312,2867.12125 L234.82393,2943.35239 L213.97399,2943.35239 L231.178974,2884.9237 C231.693871,2883.17408 230.477571,2881.40761 228.738222,2881.30215 L228.573662,2881.29718 L223.777407,2881.29718 L229.620749,2861.46265 L252.639301,2861.46265 Z M330.024041,2861.46265 L312.818072,2919.89134 C312.305552,2921.64097 313.519661,2923.40744 315.261234,2923.51289 L315.426015,2923.51786 L320.222544,2923.51786 L314.378867,2943.35239 L291.356518,2943.35239 C288.758501,2943.35239 286.6518,2941.17955 286.6518,2938.49997 C286.6518,2938.31399 286.667239,2938.13484 286.690031,2937.95797 L286.728723,2937.69379 L309.17539,2861.46265 L330.024041,2861.46265 Z M291.715604,2861 C294.313621,2861 296.420322,2863.17284 296.420322,2865.85242 C296.420322,2866.0384 296.404883,2866.21755 296.382091,2866.39442 L296.343399,2866.6586 L273.896732,2942.88974 L253.048081,2942.88974 L270.25405,2884.46105 C270.76657,2882.71142 269.552461,2880.94495 267.810888,2880.8395 L267.646107,2880.83453 L262.849578,2880.83453 L268.693254,2861 L291.715604,2861 Z M407,2861 L382.067538,2942.88974 L360.501832,2942.88974 L385.439425,2861 L407,2861 Z M369.098132,2861 L351.893148,2919.42869 C351.378251,2921.17831 352.594551,2922.94479 354.3339,2923.05024 L354.49846,2923.05521 L359.294715,2923.05521 L353.451373,2942.88974 L330.432821,2942.88974 C327.832471,2942.88974 325.725891,2940.7169 325.725891,2938.03732 C325.725891,2937.85134 325.74133,2937.67219 325.76412,2937.49531 L325.802809,2937.23114 L348.248192,2861 L369.098132,2861 Z" id="Combined-Shape-Copy"></path>
        </g>
    </g>
</svg>