<?xml version="1.0" encoding="UTF-8"?>
<svg width="690px" height="848px" viewBox="0 0 690 848" version="1.1" xmlns="http://www.w3.org/2000/svg" xmlns:xlink="http://www.w3.org/1999/xlink">
    <title>Concept 1 (CTA)</title>
    <defs>
        <linearGradient x1="43.7100821%" y1="0%" x2="43.7100821%" y2="100%" id="linearGradient-1">
            <stop stop-color="#FB295E" offset="0%"></stop>
            <stop stop-color="#FB295E" stop-opacity="0" offset="100%"></stop>
        </linearGradient>
        <filter x="-6.5%" y="-9.6%" width="113.0%" height="119.1%" filterUnits="objectBoundingBox" id="filter-2">
            <feGaussianBlur stdDeviation="17" in="SourceGraphic"></feGaussianBlur>
        </filter>
        <filter x="-6.9%" y="-10.4%" width="113.8%" height="120.9%" filterUnits="objectBoundingBox" id="filter-3">
            <feGaussianBlur stdDeviation="17" in="SourceGraphic"></feGaussianBlur>
        </filter>
        <linearGradient x1="3.17317992%" y1="29.1876262%" x2="78.8437603%" y2="64.696565%" id="linearGradient-4">
            <stop stop-color="#4AE1D3" offset="0%"></stop>
            <stop stop-color="#4AE1D3" stop-opacity="0.232408217" offset="0%"></stop>
            <stop stop-color="#24BFA8" offset="100%"></stop>
        </linearGradient>
        <filter x="-6.5%" y="-9.6%" width="113.0%" height="119.1%" filterUnits="objectBoundingBox" id="filter-5">
            <feGaussianBlur stdDeviation="17" in="SourceGraphic"></feGaussianBlur>
        </filter>
        <linearGradient x1="3.17317992%" y1="40.5372979%" x2="78.8437603%" y2="56.6820449%" id="linearGradient-6">
            <stop stop-color="#4AE1D3" offset="0%"></stop>
            <stop stop-color="#4AE1D3" stop-opacity="0.232408217" offset="0%"></stop>
            <stop stop-color="#24BFA8" offset="100%"></stop>
        </linearGradient>
        <filter x="-4.8%" y="-10.4%" width="109.6%" height="120.9%" filterUnits="objectBoundingBox" id="filter-7">
            <feGaussianBlur stdDeviation="17" in="SourceGraphic"></feGaussianBlur>
        </filter>
        <filter x="-64.3%" y="-55.4%" width="228.6%" height="210.8%" filterUnits="objectBoundingBox" id="filter-8">
            <feGaussianBlur stdDeviation="24" in="SourceGraphic"></feGaussianBlur>
        </filter>
    </defs>
    <g id="Page-2" stroke="none" stroke-width="1" fill="none" fill-rule="evenodd">
        <g id="Concept-1-(CTA)" transform="translate(-676.000000, -3817.000000)">
            <rect fill="#FFFFFF" x="0" y="0" width="1366" height="5948"></rect>
            <polygon id="Path-16" fill="#2F276E" points="-40 3658.76608 1400 3640 1400 4665 -40 4665"></polygon>
            <path d="M773.311837,4187.87284 L755.648751,4247.89794 C755.122615,4249.69537 756.36898,4251.5101 758.156821,4251.61844 L758.32598,4251.62354 L763.249941,4251.62354 L757.251013,4272 L733.61702,4272 C730.949981,4272 728.78731,4269.76779 728.78731,4267.015 C728.78731,4266.82394 728.80316,4266.6399 728.826558,4266.45819 L728.866277,4266.18679 L751.909292,4187.87284 L773.311837,4187.87284 Z M733.985647,4187.39754 C736.652686,4187.39754 738.815357,4189.62975 738.815357,4192.38254 C738.815357,4192.5736 738.799507,4192.75765 738.776109,4192.93935 L738.73639,4193.21075 L715.693374,4271.52471 L694.29083,4271.52471 L711.953915,4211.49961 C712.480052,4209.70217 711.233687,4207.88744 709.445846,4207.7791 L709.276687,4207.774 L704.352726,4207.774 L710.351654,4187.39754 L733.985647,4187.39754 Z M852.332844,4187.39754 L826.737993,4271.52471 L804.599342,4271.52471 L830.199462,4187.39754 L852.332844,4187.39754 Z M813.424023,4187.39754 L795.761948,4247.42264 C795.233372,4249.22007 796.481986,4251.03481 798.267545,4251.14314 L798.436477,4251.14825 L803.360156,4251.14825 L797.361571,4271.52471 L773.731477,4271.52471 C771.062043,4271.52471 768.899496,4269.2925 768.899496,4266.5397 C768.899496,4266.34865 768.915345,4266.1646 768.938742,4265.98289 L768.978459,4265.7115 L792.020156,4187.39754 L813.424023,4187.39754 Z M693.871189,4187.87284 C696.540623,4187.87284 698.70317,4190.10505 698.70317,4192.85784 C698.70317,4193.0489 698.687321,4193.23294 698.663925,4193.41465 L698.624208,4193.68604 L680,4256.987 L680,4187.872 L693.871189,4187.87284 Z M722.731192,4093.18117 L697.136341,4177.30833 L680,4177.308 L680,4160.87 L700.59781,4093.18117 L722.731192,4093.18117 Z M683.822372,4093.18117 L680,4106.171 L680,4093.181 L683.822372,4093.18117 Z M813.5058,3898.1899 L795.881184,3958.215 C795.356193,3960.01243 796.599843,3961.82716 798.383791,3961.9355 L798.552581,3961.9406 L803.465818,3961.9406 L797.479955,3982.31706 L773.897436,3982.31706 C771.236205,3982.31706 769.078244,3980.08485 769.078244,3977.33206 C769.078244,3977.141 769.09406,3976.95696 769.117406,3976.77525 L769.157039,3976.50385 L792.149869,3898.1899 L813.5058,3898.1899 Z M734.238168,3898.1899 C736.901788,3898.1899 739.059625,3900.4221 739.059625,3903.1749 C739.059625,3903.36596 739.043811,3903.55 739.020466,3903.73171 L738.980835,3904.0031 L715.989321,3982.31706 L694.632069,3982.31706 L712.255678,3922.29196 C712.783103,3920.49453 711.537209,3918.67979 709.755538,3918.57146 L709.586974,3918.56635 L704.674019,3918.56635 L710.659539,3898.1899 L734.238168,3898.1899 Z M892.354706,3897.7146 L866.815598,3981.84176 L844.725164,3981.84176 L870.269529,3897.7146 L892.354706,3897.7146 Z M853.530626,3897.7146 L835.907017,3957.7397 C835.379592,3959.53713 836.625486,3961.35187 838.407157,3961.4602 L838.575721,3961.46531 L843.488676,3961.46531 L837.503156,3981.84176 L813.924527,3981.84176 C811.260907,3981.84176 809.10307,3979.60956 809.10307,3976.85676 C809.10307,3976.66571 809.118884,3976.48166 809.142229,3976.29995 L809.18186,3976.02856 L832.173374,3897.7146 L853.530626,3897.7146 Z M774.265259,3897.7146 C776.92649,3897.7146 779.084451,3899.94681 779.084451,3902.6996 C779.084451,3902.89066 779.068635,3903.07471 779.045289,3903.25641 L779.005656,3903.52781 L756.012826,3981.84176 L734.656895,3981.84176 L752.281511,3921.81666 C752.806502,3920.01923 751.562852,3918.2045 749.778904,3918.09616 L749.610114,3918.09106 L744.696877,3918.09106 L750.68274,3897.7146 L774.265259,3897.7146 Z M703.437531,3898.1899 L680,3975.381 L680,3902.626 L681.347097,3898.1899 L703.437531,3898.1899 Z M760.700383,3802.69167 L743.075766,3862.71677 C742.550776,3864.5142 743.794426,3866.32894 745.578373,3866.43727 L745.747164,3866.44237 L750.660401,3866.44237 L744.674538,3886.81883 L721.092018,3886.81883 C718.430787,3886.81883 716.272827,3884.58662 716.272827,3881.83383 C716.272827,3881.64277 716.288642,3881.45873 716.311989,3881.27702 L716.351622,3881.00562 L739.344451,3802.69167 L760.700383,3802.69167 Z M721.459842,3802.21637 C724.121073,3802.21637 726.279033,3804.44858 726.279033,3807.20137 C726.279033,3807.39243 726.263218,3807.57648 726.239871,3807.75819 L726.200238,3808.02958 L703.207409,3886.34354 L681.851477,3886.34354 L699.476094,3826.31844 C700.001084,3824.52101 698.757434,3822.70627 696.973487,3822.59794 L696.804696,3822.59283 L691.891459,3822.59283 L697.877322,3802.21637 L721.459842,3802.21637 Z M839.549289,3802.21637 L814.010181,3886.34354 L791.919747,3886.34354 L817.464111,3802.21637 L839.549289,3802.21637 Z M800.725208,3802.21637 L783.1016,3862.24147 C782.574175,3864.0389 783.820069,3865.85364 785.60174,3865.96197 L785.770303,3865.96708 L790.683259,3865.96708 L784.697739,3886.34354 L761.11911,3886.34354 C758.455489,3886.34354 756.297652,3884.11133 756.297652,3881.35853 C756.297652,3881.16748 756.313467,3880.98343 756.336812,3880.80172 L756.376443,3880.53033 L779.367957,3802.21637 L800.725208,3802.21637 Z M681.432751,3802.69167 C684.096371,3802.69167 686.254208,3804.92388 686.254208,3807.67667 C686.254208,3807.86773 686.238393,3808.05177 686.215048,3808.23348 L686.175418,3808.50487 L680,3829.538 L680,3802.691 L681.432751,3802.69167 Z M747.082825,3708.47529 L721.53846,3792.60246 L699.453283,3792.60246 L724.992391,3708.47529 L747.082825,3708.47529 Z M777.883462,3708.47529 C780.547082,3708.47529 782.704919,3710.7075 782.704919,3713.4603 C782.704919,3713.65135 782.689105,3713.8354 782.66576,3714.01711 L782.626129,3714.2885 L759.634615,3792.60246 L738.277363,3792.60246 L755.900972,3732.57736 C756.428397,3730.77993 755.182503,3728.96519 753.400832,3728.85686 L753.232268,3728.85175 L748.319313,3728.85175 L754.304833,3708.47529 L777.883462,3708.47529 Z M857.151094,3708.47529 L839.526478,3768.50039 C839.001487,3770.29783 840.245137,3772.11256 842.029085,3772.2209 L842.197875,3772.226 L847.111112,3772.226 L841.125249,3792.60246 L817.54273,3792.60246 C814.881499,3792.60246 812.723538,3790.37025 812.723538,3787.61746 C812.723538,3787.4264 812.739354,3787.24235 812.7627,3787.06065 L812.802333,3786.78925 L835.795163,3708.47529 L857.151094,3708.47529 Z M817.910553,3708 C820.571784,3708 822.729745,3710.23221 822.729745,3712.985 C822.729745,3713.17606 822.713929,3713.3601 822.690583,3713.54181 L822.65095,3713.81321 L799.65812,3792.12716 L778.302189,3792.12716 L795.926805,3732.10206 C796.451796,3730.30463 795.208146,3728.4899 793.424198,3728.38156 L793.255408,3728.37646 L788.342171,3728.37646 L794.328034,3708 L817.910553,3708 Z M936,3708 L910.460892,3792.12716 L888.370458,3792.12716 L913.914823,3708 L936,3708 Z M897.17592,3708 L879.552311,3768.0251 C879.024886,3769.82253 880.27078,3771.63727 882.052451,3771.7456 L882.221015,3771.75071 L887.13397,3771.75071 L881.14845,3792.12716 L857.569821,3792.12716 C854.906201,3792.12716 852.748364,3789.89495 852.748364,3787.14216 C852.748364,3786.9511 852.764178,3786.76706 852.787523,3786.58535 L852.827154,3786.31396 L875.818668,3708 L897.17592,3708 Z" id="Combined-Shape-Copy" fill="#FB285E" fill-rule="nonzero" opacity="0.049999997"></path>
            <path d="M1625.37581,4099 C1664.94468,4099 1697,4126.77808 1697,4161.03444 C1697,4164.32643 1696.5496,4167.45115 1695.97547,4170.56301 L1695.82954,4171.34079 L1690.43036,4186.78396 L1632.32302,4352.56903 L1522.8237,4665 L1031.37355,4665 L1124.6278,4398.93127 C1132.62691,4376.09533 1113.16815,4353.03492 1085.81471,4352.576 L1084.98342,4352.56903 L1012,4352.56903 L1100.91669,4099 L1625.37581,4099 Z" id="Path" fill="url(#linearGradient-1)" fill-rule="nonzero"></path>
            <line x1="679.5" y1="3838" x2="680" y2="4559.13295" id="Path-22" stroke="#392C80"></line>
            <polygon id="Path-23" fill="#FB295E" opacity="0.100000001" style="mix-blend-mode: overlay;" filter="url(#filter-2)" points="662 3794.61405 1140.62171 4306 1444 4093.33471 700.977298 3773"></polygon>
            <polygon id="Path-23-Copy" fill="#FB295E" opacity="0.100000001" style="mix-blend-mode: overlay;" filter="url(#filter-3)" points="661 3794.57532 1229.56536 4262 1400 4176.94995 700 3773"></polygon>
            <polygon id="Path-23-Copy-3" fill="url(#linearGradient-4)" opacity="0.200000003" style="mix-blend-mode: overlay;" filter="url(#filter-5)" transform="translate(320.000000, 4009.500000) scale(-1, 1) translate(-320.000000, -4009.500000) " points="-71 3764.61405 407.621709 4276 711 4063.33471 -32.0227022 3743"></polygon>
            <polygon id="Path-23-Copy-2" fill="url(#linearGradient-6)" opacity="0.200000003" style="mix-blend-mode: overlay;" filter="url(#filter-7)" transform="translate(179.000000, 4017.500000) scale(-1, 1) translate(-179.000000, -4017.500000) " points="-353 3794.66413 511.718221 4262 711 4205.06865 -313.998158 3773"></polygon>
            <path d="M520.525177,4322.84405 C523.194675,4322.84405 525.357274,4325.07702 525.357274,4327.83076 C525.357274,4328.02188 525.341424,4328.20599 525.318027,4328.38776 L525.278309,4328.65925 L502.236063,4407 L480.831685,4407 L498.494181,4346.95436 C499.02277,4345.15632 497.774127,4343.34096 495.988524,4343.23259 L495.819589,4343.22748 L490.895793,4343.22748 L496.89452,4322.84405 L520.525177,4322.84405 Z M489.656576,4322.84405 L464.055846,4407 L441.921936,4407 L467.517398,4322.84405 L489.656576,4322.84405 Z M599.967719,4322.84405 L582.304213,4382.88969 C581.778064,4384.68774 583.024458,4386.50309 584.812342,4386.61146 L584.981505,4386.61657 L589.905583,4386.61657 L583.906512,4407 L560.271956,4407 C557.604853,4407 555.442131,4404.76703 555.442131,4402.01329 C555.442131,4401.82217 555.457981,4401.63806 555.481379,4401.45629 L555.521099,4401.1848 L578.564664,4322.84405 L599.967719,4322.84405 Z M678.990611,4322.36859 L653.395149,4406.52454 L631.255971,4406.52454 L656.856701,4322.36859 L678.990611,4322.36859 Z M640.080862,4322.36859 L622.418366,4382.41423 C621.889777,4384.21228 623.138421,4386.02764 624.924023,4386.13601 L625.092958,4386.14111 L630.016755,4386.14111 L624.018027,4406.52454 L600.38737,4406.52454 C597.717872,4406.52454 595.555274,4404.29157 595.555274,4401.53784 C595.555274,4401.34671 595.571123,4401.1626 595.59452,4400.98083 L595.634238,4400.70935 L618.676485,4322.36859 L640.080862,4322.36859 Z M560.640591,4322.36859 C563.307694,4322.36859 565.470416,4324.60157 565.470416,4327.3553 C565.470416,4327.54642 565.454566,4327.73053 565.431168,4327.9123 L565.391448,4328.18379 L542.347883,4406.52454 L520.944828,4406.52454 L538.608334,4346.4789 C539.134483,4344.68086 537.888089,4342.8655 536.100205,4342.75713 L535.931042,4342.75202 L531.006964,4342.75202 L537.006035,4322.36859 L560.640591,4322.36859 Z M663.002919,4227.31315 L637.402189,4311.4691 L615.268279,4311.4691 L640.863741,4227.31315 L663.002919,4227.31315 Z M680.001,4227.313 L680.001,4296.445 L675.582405,4311.4691 L654.178028,4311.4691 L671.840524,4251.42346 C672.369113,4249.62541 671.120469,4247.81005 669.334867,4247.70168 L669.165932,4247.69658 L664.242135,4247.69658 L670.240863,4227.31315 L680.001,4227.313 Z M436.73464,4227.31315 L411.13391,4311.4691 L389,4311.4691 L414.595461,4227.31315 L436.73464,4227.31315 Z M467.603241,4227.31315 C470.272738,4227.31315 472.435337,4229.54612 472.435337,4232.29985 C472.435337,4232.49098 472.419488,4232.67508 472.396091,4232.85686 L472.356373,4233.12834 L449.314126,4311.4691 L427.909749,4311.4691 L445.572245,4251.42346 C446.100834,4249.62541 444.85219,4247.81005 443.066588,4247.70168 L442.897653,4247.69658 L437.973856,4247.69658 L443.972584,4227.31315 L467.603241,4227.31315 Z M547.045783,4227.31315 L529.382276,4287.35879 C528.856127,4289.15683 530.102522,4290.97219 531.890406,4291.08056 L532.059569,4291.08567 L536.983647,4291.08567 L530.984576,4311.4691 L507.35002,4311.4691 C504.682917,4311.4691 502.520194,4309.23612 502.520194,4306.48239 C502.520194,4306.29127 502.536045,4306.10716 502.559443,4305.92539 L502.599163,4305.6539 L525.642728,4227.31315 L547.045783,4227.31315 Z M507.718655,4226.83769 C510.385758,4226.83769 512.54848,4229.07066 512.54848,4231.8244 C512.54848,4232.01552 512.53263,4232.19963 512.509232,4232.3814 L512.469511,4232.65288 L489.425946,4310.99364 L468.022891,4310.99364 L485.686398,4250.948 C486.212547,4249.14995 484.966153,4247.3346 483.178269,4247.22623 L483.009106,4247.22112 L478.085028,4247.22112 L484.084099,4226.83769 L507.718655,4226.83769 Z M626.068674,4226.83769 L600.473213,4310.99364 L578.334034,4310.99364 L603.934765,4226.83769 L626.068674,4226.83769 Z M587.158926,4226.83769 L569.49643,4286.88333 C568.967841,4288.68137 570.216484,4290.49673 572.002086,4290.6051 L572.171022,4290.61021 L577.094818,4290.61021 L571.096091,4310.99364 L547.465434,4310.99364 C544.795936,4310.99364 542.633337,4308.76067 542.633337,4306.00693 C542.633337,4305.81581 542.649187,4305.6317 542.672584,4305.44993 L542.712301,4305.17844 L565.754548,4226.83769 L587.158926,4226.83769 Z M533.398177,4133.06454 L507.797447,4217.22048 L485.663537,4217.22048 L511.258998,4133.06454 L533.398177,4133.06454 Z M564.266778,4133.06454 C566.936275,4133.06454 569.098874,4135.29751 569.098874,4138.05124 C569.098874,4138.24237 569.083025,4138.42647 569.059628,4138.60824 L569.01991,4138.87973 L545.977663,4217.22048 L524.573286,4217.22048 L542.235782,4157.17485 C542.76437,4155.3768 541.515727,4153.56144 539.730125,4153.45307 L539.56119,4153.44797 L534.637393,4153.44797 L540.636121,4133.06454 L564.266778,4133.06454 Z M643.70932,4133.06454 L626.045813,4193.11017 C625.519664,4194.90822 626.766059,4196.72358 628.553943,4196.83195 L628.723106,4196.83705 L633.647184,4196.83705 L627.648113,4217.22048 L604.013557,4217.22048 C601.346453,4217.22048 599.183731,4214.98751 599.183731,4212.23378 C599.183731,4212.04266 599.199582,4211.85855 599.22298,4211.67678 L599.2627,4211.40529 L622.306265,4133.06454 L643.70932,4133.06454 Z M680.001,4132.589 L680.001,4145.578 L666.159967,4192.63472 C665.631378,4194.43276 666.880021,4196.24812 668.665623,4196.35649 L668.834559,4196.3616 L673.758355,4196.3616 L667.759627,4216.74503 L644.12897,4216.74503 C641.459473,4216.74503 639.296874,4214.51206 639.296874,4211.75832 C639.296874,4211.5672 639.312724,4211.38309 639.33612,4211.20132 L639.375838,4210.92983 L662.418085,4132.58908 L680.001,4132.589 Z M680.001,4200.296 L680.001,4216.745 L674.997571,4216.74503 L680.001,4200.296 Z M604.382192,4132.58908 C607.049295,4132.58908 609.212017,4134.82205 609.212017,4137.57579 C609.212017,4137.76691 609.196167,4137.95102 609.172769,4138.13279 L609.133048,4138.40427 L586.089483,4216.74503 L564.686428,4216.74503 L582.349935,4156.69939 C582.876084,4154.90134 581.62969,4153.08599 579.841806,4152.97761 L579.672643,4152.97251 L574.748564,4152.97251 L580.747635,4132.58908 L604.382192,4132.58908 Z M680.001,3941.966 L680.001,4014.742 L677.893116,4021.68704 L655.807412,4021.68704 L680.001,3941.966 Z M650.631413,3842.00018 L625.086439,3926.15613 L603.000735,3926.15613 L628.540452,3842.00018 L650.631413,3842.00018 Z M680.001,3842 L680.001,3868.852 L663.183502,3926.15613 L641.825742,3926.15613 L659.44977,3866.11049 C659.977208,3864.31245 658.731284,3862.49709 656.949571,3862.38872 L656.781003,3862.38361 L651.86793,3862.38361 L657.853593,3842.00018 L680.001,3842 Z" id="Combined-Shape" fill="#24BFA8" fill-rule="nonzero" opacity="0.049999997"></path>
            <path d="M1199.35082,3822.73405 C1183.95742,3831.65921 1253.64759,3943.93779 1288.17016,3948.94621 C1322.69273,3953.95463 1160.02991,3952.69861 1183.28593,3945.94116 C1206.54195,3939.18371 1201.34966,3927.64451 1213.34269,3908.24485 C1225.33572,3888.84518 1214.74422,3813.80889 1199.35082,3822.73405 Z" id="Path-24-Copy" fill="#FB295E" opacity="0.319999993" style="mix-blend-mode: overlay;" filter="url(#filter-8)"></path>
        </g>
    </g>
</svg>