<?xml version="1.0" encoding="UTF-8"?>
<svg width="676px" height="848px" viewBox="0 0 676 848" version="1.1" xmlns="http://www.w3.org/2000/svg" xmlns:xlink="http://www.w3.org/1999/xlink">
    <title>Concept 1 (CTA)</title>
    <defs>
        <linearGradient x1="60.1094891%" y1="2.77555756e-15%" x2="60.1094891%" y2="100%" id="linearGradient-1">
            <stop stop-color="#27897B" offset="0%"></stop>
            <stop stop-color="#24BFA8" stop-opacity="0" offset="100%"></stop>
        </linearGradient>
        <filter x="-6.5%" y="-9.6%" width="113.0%" height="119.1%" filterUnits="objectBoundingBox" id="filter-2">
            <feGaussianBlur stdDeviation="17" in="SourceGraphic"></feGaussianBlur>
        </filter>
        <filter x="-6.9%" y="-10.4%" width="113.8%" height="120.9%" filterUnits="objectBoundingBox" id="filter-3">
            <feGaussianBlur stdDeviation="17" in="SourceGraphic"></feGaussianBlur>
        </filter>
        <linearGradient x1="3.17317992%" y1="29.1876262%" x2="78.8437603%" y2="64.696565%" id="linearGradient-4">
            <stop stop-color="#4AE1D3" offset="0%"></stop>
            <stop stop-color="#4AE1D3" stop-opacity="0.232408217" offset="0%"></stop>
            <stop stop-color="#24BFA8" offset="100%"></stop>
        </linearGradient>
        <filter x="-6.5%" y="-9.6%" width="113.0%" height="119.1%" filterUnits="objectBoundingBox" id="filter-5">
            <feGaussianBlur stdDeviation="17" in="SourceGraphic"></feGaussianBlur>
        </filter>
        <linearGradient x1="3.17317992%" y1="40.5372979%" x2="78.8437603%" y2="56.6820449%" id="linearGradient-6">
            <stop stop-color="#4AE1D3" offset="0%"></stop>
            <stop stop-color="#4AE1D3" stop-opacity="0.232408217" offset="0%"></stop>
            <stop stop-color="#24BFA8" offset="100%"></stop>
        </linearGradient>
        <filter x="-4.8%" y="-10.4%" width="109.6%" height="120.9%" filterUnits="objectBoundingBox" id="filter-7">
            <feGaussianBlur stdDeviation="17" in="SourceGraphic"></feGaussianBlur>
        </filter>
        <filter x="-16.7%" y="-19.2%" width="133.3%" height="138.4%" filterUnits="objectBoundingBox" id="filter-8">
            <feGaussianBlur stdDeviation="8" in="SourceGraphic"></feGaussianBlur>
        </filter>
    </defs>
    <g id="Page-2" stroke="none" stroke-width="1" fill="none" fill-rule="evenodd">
        <g id="Concept-1-(CTA)" transform="translate(0.000000, -3817.000000)">
            <rect fill="#FFFFFF" x="0" y="0" width="1366" height="5948"></rect>
            <polygon id="Path-16" fill="#2F276E" points="-40 3658.76608 1400 3640 1400 4665 -40 4665"></polygon>
            <path d="M-266.375812,4099 C-305.944684,4099 -338,4126.77808 -338,4161.03444 C-338,4164.32643 -337.549601,4167.45115 -336.975467,4170.56301 L-336.829545,4171.34079 L-331.430358,4186.78396 L-273.323019,4352.56903 L-163.823702,4665 L327.626452,4665 L234.372196,4398.93127 C226.373092,4376.09533 245.831846,4353.03492 273.185291,4352.576 L274.01658,4352.56903 L347,4352.56903 L258.083314,4099 L-266.375812,4099 Z" id="Path" fill="url(#linearGradient-1)" fill-rule="nonzero"></path>
            <polygon id="Path-23" fill="#FB295E" opacity="0.100000001" style="mix-blend-mode: overlay;" filter="url(#filter-2)" points="662 3794.61405 1140.62171 4306 1444 4093.33471 700.977298 3773"></polygon>
            <polygon id="Path-23-Copy" fill="#FB295E" opacity="0.100000001" style="mix-blend-mode: overlay;" filter="url(#filter-3)" points="661 3794.57532 1229.56536 4262 1400 4176.94995 700 3773"></polygon>
            <polygon id="Path-23-Copy-3" fill="url(#linearGradient-4)" opacity="0.200000003" style="mix-blend-mode: overlay;" filter="url(#filter-5)" transform="translate(320.000000, 4009.500000) scale(-1, 1) translate(-320.000000, -4009.500000) " points="-71 3764.61405 407.621709 4276 711 4063.33471 -32.0227022 3743"></polygon>
            <polygon id="Path-23-Copy-2" fill="url(#linearGradient-6)" opacity="0.200000003" style="mix-blend-mode: overlay;" filter="url(#filter-7)" transform="translate(179.000000, 4017.500000) scale(-1, 1) translate(-179.000000, -4017.500000) " points="-353 3794.66413 511.718221 4262 711 4205.06865 -313.998158 3773"></polygon>
            <path d="M156.789602,3827.73317 C141.362141,3836.64767 93.8981487,3923.17031 75.5323107,3923.17031 C57.1664726,3923.17031 97.1925747,3954.79509 44.7321664,3944.04376 C-7.72824202,3933.29243 117.381694,3957.54253 140.689171,3950.79314 C163.996648,3944.04376 158.792863,3932.51835 170.812432,3913.14185 C182.832,3893.76535 172.217062,3818.81867 156.789602,3827.73317 Z" id="Path-24" fill="#24BFA8" opacity="0.5" style="mix-blend-mode: overlay;" filter="url(#filter-8)"></path>
            <path d="M520.525177,4322.84405 C523.194675,4322.84405 525.357274,4325.07702 525.357274,4327.83076 C525.357274,4328.02188 525.341424,4328.20599 525.318027,4328.38776 L525.278309,4328.65925 L502.236063,4407 L480.831685,4407 L498.494181,4346.95436 C499.02277,4345.15632 497.774127,4343.34096 495.988524,4343.23259 L495.819589,4343.22748 L490.895793,4343.22748 L496.89452,4322.84405 L520.525177,4322.84405 Z M489.656576,4322.84405 L464.055846,4407 L441.921936,4407 L467.517398,4322.84405 L489.656576,4322.84405 Z M599.967719,4322.84405 L582.304213,4382.88969 C581.778064,4384.68774 583.024458,4386.50309 584.812342,4386.61146 L584.981505,4386.61657 L589.905583,4386.61657 L583.906512,4407 L560.271956,4407 C557.604853,4407 555.442131,4404.76703 555.442131,4402.01329 C555.442131,4401.82217 555.457981,4401.63806 555.481379,4401.45629 L555.521099,4401.1848 L578.564664,4322.84405 L599.967719,4322.84405 Z M678.990611,4322.36859 L653.395149,4406.52454 L631.255971,4406.52454 L656.856701,4322.36859 L678.990611,4322.36859 Z M640.080862,4322.36859 L622.418366,4382.41423 C621.889777,4384.21228 623.138421,4386.02764 624.924023,4386.13601 L625.092958,4386.14111 L630.016755,4386.14111 L624.018027,4406.52454 L600.38737,4406.52454 C597.717872,4406.52454 595.555274,4404.29157 595.555274,4401.53784 C595.555274,4401.34671 595.571123,4401.1626 595.59452,4400.98083 L595.634238,4400.70935 L618.676485,4322.36859 L640.080862,4322.36859 Z M560.640591,4322.36859 C563.307694,4322.36859 565.470416,4324.60157 565.470416,4327.3553 C565.470416,4327.54642 565.454566,4327.73053 565.431168,4327.9123 L565.391448,4328.18379 L542.347883,4406.52454 L520.944828,4406.52454 L538.608334,4346.4789 C539.134483,4344.68086 537.888089,4342.8655 536.100205,4342.75713 L535.931042,4342.75202 L531.006964,4342.75202 L537.006035,4322.36859 L560.640591,4322.36859 Z M663.002919,4227.31315 L637.402189,4311.4691 L615.268279,4311.4691 L640.863741,4227.31315 L663.002919,4227.31315 Z M680.001,4227.313 L680.001,4296.445 L675.582405,4311.4691 L654.178028,4311.4691 L671.840524,4251.42346 C672.369113,4249.62541 671.120469,4247.81005 669.334867,4247.70168 L669.165932,4247.69658 L664.242135,4247.69658 L670.240863,4227.31315 L680.001,4227.313 Z M436.73464,4227.31315 L411.13391,4311.4691 L389,4311.4691 L414.595461,4227.31315 L436.73464,4227.31315 Z M467.603241,4227.31315 C470.272738,4227.31315 472.435337,4229.54612 472.435337,4232.29985 C472.435337,4232.49098 472.419488,4232.67508 472.396091,4232.85686 L472.356373,4233.12834 L449.314126,4311.4691 L427.909749,4311.4691 L445.572245,4251.42346 C446.100834,4249.62541 444.85219,4247.81005 443.066588,4247.70168 L442.897653,4247.69658 L437.973856,4247.69658 L443.972584,4227.31315 L467.603241,4227.31315 Z M547.045783,4227.31315 L529.382276,4287.35879 C528.856127,4289.15683 530.102522,4290.97219 531.890406,4291.08056 L532.059569,4291.08567 L536.983647,4291.08567 L530.984576,4311.4691 L507.35002,4311.4691 C504.682917,4311.4691 502.520194,4309.23612 502.520194,4306.48239 C502.520194,4306.29127 502.536045,4306.10716 502.559443,4305.92539 L502.599163,4305.6539 L525.642728,4227.31315 L547.045783,4227.31315 Z M507.718655,4226.83769 C510.385758,4226.83769 512.54848,4229.07066 512.54848,4231.8244 C512.54848,4232.01552 512.53263,4232.19963 512.509232,4232.3814 L512.469511,4232.65288 L489.425946,4310.99364 L468.022891,4310.99364 L485.686398,4250.948 C486.212547,4249.14995 484.966153,4247.3346 483.178269,4247.22623 L483.009106,4247.22112 L478.085028,4247.22112 L484.084099,4226.83769 L507.718655,4226.83769 Z M626.068674,4226.83769 L600.473213,4310.99364 L578.334034,4310.99364 L603.934765,4226.83769 L626.068674,4226.83769 Z M587.158926,4226.83769 L569.49643,4286.88333 C568.967841,4288.68137 570.216484,4290.49673 572.002086,4290.6051 L572.171022,4290.61021 L577.094818,4290.61021 L571.096091,4310.99364 L547.465434,4310.99364 C544.795936,4310.99364 542.633337,4308.76067 542.633337,4306.00693 C542.633337,4305.81581 542.649187,4305.6317 542.672584,4305.44993 L542.712301,4305.17844 L565.754548,4226.83769 L587.158926,4226.83769 Z M533.398177,4133.06454 L507.797447,4217.22048 L485.663537,4217.22048 L511.258998,4133.06454 L533.398177,4133.06454 Z M564.266778,4133.06454 C566.936275,4133.06454 569.098874,4135.29751 569.098874,4138.05124 C569.098874,4138.24237 569.083025,4138.42647 569.059628,4138.60824 L569.01991,4138.87973 L545.977663,4217.22048 L524.573286,4217.22048 L542.235782,4157.17485 C542.76437,4155.3768 541.515727,4153.56144 539.730125,4153.45307 L539.56119,4153.44797 L534.637393,4153.44797 L540.636121,4133.06454 L564.266778,4133.06454 Z M643.70932,4133.06454 L626.045813,4193.11017 C625.519664,4194.90822 626.766059,4196.72358 628.553943,4196.83195 L628.723106,4196.83705 L633.647184,4196.83705 L627.648113,4217.22048 L604.013557,4217.22048 C601.346453,4217.22048 599.183731,4214.98751 599.183731,4212.23378 C599.183731,4212.04266 599.199582,4211.85855 599.22298,4211.67678 L599.2627,4211.40529 L622.306265,4133.06454 L643.70932,4133.06454 Z M680.001,4132.589 L680.001,4145.578 L666.159967,4192.63472 C665.631378,4194.43276 666.880021,4196.24812 668.665623,4196.35649 L668.834559,4196.3616 L673.758355,4196.3616 L667.759627,4216.74503 L644.12897,4216.74503 C641.459473,4216.74503 639.296874,4214.51206 639.296874,4211.75832 C639.296874,4211.5672 639.312724,4211.38309 639.33612,4211.20132 L639.375838,4210.92983 L662.418085,4132.58908 L680.001,4132.589 Z M680.001,4200.296 L680.001,4216.745 L674.997571,4216.74503 L680.001,4200.296 Z M604.382192,4132.58908 C607.049295,4132.58908 609.212017,4134.82205 609.212017,4137.57579 C609.212017,4137.76691 609.196167,4137.95102 609.172769,4138.13279 L609.133048,4138.40427 L586.089483,4216.74503 L564.686428,4216.74503 L582.349935,4156.69939 C582.876084,4154.90134 581.62969,4153.08599 579.841806,4152.97761 L579.672643,4152.97251 L574.748564,4152.97251 L580.747635,4132.58908 L604.382192,4132.58908 Z M680.001,3941.966 L680.001,4014.742 L677.893116,4021.68704 L655.807412,4021.68704 L680.001,3941.966 Z M650.631413,3842.00018 L625.086439,3926.15613 L603.000735,3926.15613 L628.540452,3842.00018 L650.631413,3842.00018 Z M680.001,3842 L680.001,3868.852 L663.183502,3926.15613 L641.825742,3926.15613 L659.44977,3866.11049 C659.977208,3864.31245 658.731284,3862.49709 656.949571,3862.38872 L656.781003,3862.38361 L651.86793,3862.38361 L657.853593,3842.00018 L680.001,3842 Z" id="Combined-Shape" fill="#24BFA8" fill-rule="nonzero" opacity="0.049999997"></path>
        </g>
    </g>
</svg>