<?xml version="1.0" encoding="UTF-8"?>
<svg width="159px" height="549px" viewBox="0 0 159 549" version="1.1" xmlns="http://www.w3.org/2000/svg" xmlns:xlink="http://www.w3.org/1999/xlink">
    <title>Concept 1 (CTA) Mobile</title>
    <defs>
        <linearGradient x1="-141.742175%" y1="-247.938868%" x2="0%" y2="-73.5709379%" id="linearGradient-1">
            <stop stop-color="#23F2E3" offset="0%"></stop>
            <stop stop-color="#FB295E" offset="100%"></stop>
        </linearGradient>
        <linearGradient x1="60.1094891%" y1="2.77555756e-15%" x2="60.1094891%" y2="100%" id="linearGradient-2">
            <stop stop-color="#27897B" offset="0%"></stop>
            <stop stop-color="#24BFA8" stop-opacity="0" offset="100%"></stop>
        </linearGradient>
    </defs>
    <g id="Symbols" stroke="none" stroke-width="1" fill="none" fill-rule="evenodd">
        <g id="Concept-1-(CTA)-Mobile" transform="translate(0.000000, -2861.000000)">
            <rect fill="#EDF1F4" x="0" y="0" width="320" height="4189"></rect>
            <g id="Group-3-Copy-4" transform="translate(-595.000000, 1504.000000)" fill="url(#linearGradient-1)" fill-rule="nonzero">
                <g id="Group-2" transform="translate(0.916171, 0.000000)">
                    <path d="M700,0 C313.400675,0 0,313.400675 0,700 C0,1086.59932 313.400675,1400 700,1400 C1086.59932,1400 1400,1086.59932 1400,700 C1400,313.400675 1086.59932,0 700,0 Z M700,88.7323944 C1037.59378,88.7323944 1311.26761,362.406223 1311.26761,700 C1311.26761,1037.59378 1037.59378,1311.26761 700,1311.26761 C362.406223,1311.26761 88.7323944,1037.59378 88.7323944,700 C88.7323944,362.406223 362.406223,88.7323944 700,88.7323944 Z" id="Oval"></path>
                </g>
            </g>
            <rect id="Rectangle" fill="#ECF1F4" x="-10" y="2670" width="344" height="254"></rect>
            <rect id="Rectangle" fill="#322372" x="-1" y="2860" width="323" height="1190"></rect>
            <g id="Group-63" transform="translate(-384.000000, 2858.000000)" fill-rule="nonzero">
                <g id="Group-76" fill="#24BFA8" opacity="0.049999997">
                    <path d="M375.298828,475.091981 C377.699878,475.091981 379.645003,477.106104 379.645003,479.589953 C379.645003,479.762343 379.630747,479.928408 379.609703,480.092363 L379.573979,480.337242 L358.848892,551 L339.596967,551 L355.483299,496.839295 C355.958732,495.217472 354.835654,493.580033 353.229614,493.482284 L353.077667,493.477678 L348.649015,493.477678 L354.044502,475.091981 L375.298828,475.091981 Z M347.534416,475.091981 L324.508129,551 L304.600035,551 L327.621583,475.091981 L347.534416,475.091981 Z M446.752521,475.091981 L430.865281,529.252686 C430.392042,530.874509 431.513097,532.511948 433.121189,532.609697 L433.273341,532.614303 L437.702247,532.614303 L432.306451,551 L411.048618,551 C408.649722,551 406.704486,548.985877 406.704486,546.502028 C406.704486,546.329638 406.718742,546.163573 406.739788,545.999618 L406.775513,545.754739 L427.501787,475.091981 L446.752521,475.091981 Z M517.828765,474.663122 L494.807217,550.571141 L474.894384,550.571141 L497.920671,474.663122 L517.828765,474.663122 Z M482.831833,474.663122 L466.945501,528.823827 C466.470068,530.44565 467.593146,532.083089 469.199185,532.180838 L469.351133,532.185444 L473.779785,532.185444 L468.384298,550.571141 L447.129972,550.571141 C444.728922,550.571141 442.783797,548.557018 442.783797,546.073169 C442.783797,545.900779 442.798053,545.734714 442.819097,545.570759 L442.854821,545.32588 L463.579908,474.663122 L482.831833,474.663122 Z M411.380182,474.663122 C413.779078,474.663122 415.724314,476.677246 415.724314,479.161094 C415.724314,479.333485 415.710057,479.499549 415.689012,479.663504 L415.653286,479.908384 L394.927013,550.571141 L375.676278,550.571141 L391.563519,496.410436 C392.036758,494.788613 390.915702,493.151174 389.30761,493.053425 L389.155459,493.048819 L384.726553,493.048819 L390.122349,474.663122 L411.380182,474.663122 Z M503.448817,388.923838 L480.42253,464.831858 L460.514436,464.831858 L483.535984,388.923838 L503.448817,388.923838 Z M531.21323,388.923838 C533.614279,388.923838 535.559404,390.937962 535.559404,393.42181 C535.559404,393.594201 535.545148,393.760265 535.524104,393.924221 L535.48838,394.1691 L514.763293,464.831858 L495.511368,464.831858 L511.3977,410.671153 C511.873133,409.049329 510.750055,407.411891 509.144016,407.314141 L508.992069,407.309536 L504.563416,407.309536 L509.958903,388.923838 L531.21323,388.923838 Z M299.93438,388.923838 L276.908094,464.831858 L257,464.831858 L280.021547,388.923838 L299.93438,388.923838 Z M327.698793,388.923838 C330.099843,388.923838 332.044967,390.937962 332.044967,393.42181 C332.044967,393.594201 332.030712,393.760265 332.009668,393.924221 L331.973944,394.1691 L311.248856,464.831858 L291.996932,464.831858 L307.883264,410.671153 C308.358697,409.049329 307.235619,407.411891 305.629579,407.314141 L305.477632,407.309536 L301.048979,407.309536 L306.444467,388.923838 L327.698793,388.923838 Z M399.152486,388.923838 L383.265246,443.084543 C382.792007,444.706367 383.913062,446.343805 385.521154,446.441555 L385.673306,446.44616 L390.102212,446.44616 L384.706416,464.831858 L363.448582,464.831858 C361.049687,464.831858 359.104451,462.817734 359.104451,460.333886 C359.104451,460.161495 359.118707,459.995431 359.139752,459.831475 L359.175478,459.586596 L379.901751,388.923838 L399.152486,388.923838 Z M363.780147,388.49498 C366.179043,388.49498 368.124279,390.509103 368.124279,392.992951 C368.124279,393.165342 368.110022,393.331406 368.088977,393.495362 L368.053251,393.740241 L347.326978,464.402999 L328.076243,464.402999 L343.963484,410.242294 C344.436722,408.62047 343.315667,406.983032 341.707575,406.885282 L341.555424,406.880677 L337.126517,406.880677 L342.522314,388.49498 L363.780147,388.49498 Z M470.228729,388.49498 L447.207182,464.402999 L427.294349,464.402999 L450.320635,388.49498 L470.228729,388.49498 Z M435.231797,388.49498 L419.345466,442.655684 C418.870032,444.277508 419.993111,445.914946 421.59915,446.012696 L421.751097,446.017302 L426.17975,446.017302 L420.784263,464.402999 L399.529936,464.402999 C397.128887,464.402999 395.183762,462.388875 395.183762,459.905027 C395.183762,459.732636 395.198018,459.566572 395.219062,459.402616 L395.254786,459.157737 L415.979873,388.49498 L435.231797,388.49498 Z M545.999,415.281 L545.999,464.402 L531.59068,464.402999 L545.999,415.281 Z M545.999,388.62 L545.999645,407.063105 C545.758418,406.963896 545.497354,406.902019 545.222012,406.885282 L545.06986,406.880677 L540.640954,406.880677 L545.999,388.62 Z M386.877302,303.912315 L363.851016,379.820334 L343.942922,379.820334 L366.964469,303.912315 L386.877302,303.912315 Z M414.641715,303.912315 C417.042764,303.912315 418.987889,305.926439 418.987889,308.410287 C418.987889,308.582678 418.973633,308.748742 418.952589,308.912698 L418.916865,309.157577 L398.191778,379.820334 L378.939853,379.820334 L394.826185,325.65963 C395.301618,324.037806 394.17854,322.400368 392.572501,322.302618 L392.420554,322.298012 L387.991901,322.298012 L393.387388,303.912315 L414.641715,303.912315 Z M486.095408,303.912315 L470.208167,358.07302 C469.734928,359.694844 470.855984,361.332282 472.464076,361.430032 L472.616227,361.434637 L477.045134,361.434637 L471.649337,379.820334 L450.391504,379.820334 C447.992608,379.820334 446.047372,377.806211 446.047372,375.322363 C446.047372,375.149972 446.061629,374.983908 446.082674,374.819952 L446.1184,374.575073 L466.844673,303.912315 L486.095408,303.912315 Z M522.174719,303.483456 L506.288387,357.644161 C505.812954,359.265985 506.936032,360.903423 508.542072,361.001173 L508.694019,361.005778 L513.122672,361.005778 L507.727184,379.391476 L486.472858,379.391476 C484.071808,379.391476 482.126684,377.377352 482.126684,374.893504 C482.126684,374.721113 482.140939,374.555049 482.161983,374.391093 L482.197707,374.146214 L502.922794,303.483456 L522.174719,303.483456 Z M545.999,303.483 L545.999,340.321 L534.150103,379.391476 L514.237271,379.391476 L537.263557,303.483456 L545.999,303.483 Z M450.723069,303.483456 C453.121964,303.483456 455.0672,305.49758 455.0672,307.981428 C455.0672,308.153819 455.052944,308.319883 455.031899,308.483839 L454.996173,308.728718 L434.269899,379.391476 L415.019165,379.391476 L430.906405,325.230771 C431.379644,323.608947 430.258589,321.971509 428.650497,321.873759 L428.498345,321.869154 L424.069439,321.869154 L429.465235,303.483456 L450.723069,303.483456 Z M545.999,155.268 L545.999,203.45 L531.897611,203.450665 L545.999,155.268 Z M539.817772,127.542646 L516.841635,203.450665 L496.9769,203.450665 L519.948308,127.542646 L539.817772,127.542646 Z M545.999,128.614 L546,146.016114 C545.840034,145.971841 545.673093,145.943472 545.500568,145.932949 L545.348951,145.928343 L540.929944,145.928343 L545.999,128.614 Z M492.321406,41.3745035 L469.345269,117.282523 L449.480533,117.282523 L472.451942,41.3745035 L492.321406,41.3745035 Z M520.02535,41.3745035 C522.42117,41.3745035 524.362059,43.388627 524.362059,45.8724754 C524.362059,46.044866 524.347834,46.2109303 524.326836,46.3748859 L524.29119,46.619765 L503.61124,117.282523 L484.401245,117.282523 L500.252977,63.1218177 C500.727375,61.4999943 499.606743,59.8625558 498.004201,59.7648063 L497.852585,59.7602006 L493.433578,59.7602006 L498.817314,41.3745035 L520.02535,41.3745035 Z M545.999,40.945 L545.999,95.023 L539.610786,116.853664 L520.401978,116.853664 L536.254618,62.6929589 C536.726826,61.0711354 535.608212,59.4336969 534.003622,59.3359475 L533.851802,59.3313417 L529.432542,59.3313417 L534.816586,40.9456447 L545.999,40.945 Z M545.999,0.002 L545.999,32.27 L536.2341,32.2709995 L545.999,0.002 Z" id="Combined-Shape"></path>
                </g>
                <path d="M49.1436034,89 C21.9941583,89 0,108.042216 0,131.525373 C0,133.782075 0.30903318,135.924111 0.702964336,138.057325 L0.803086125,138.590507 L4.50763747,149.176992 L44.376907,262.824707 L119.507825,477 L456.707201,477 L392.722529,294.606592 C387.234092,278.952274 400.585354,263.14408 419.353412,262.829482 L419.923785,262.824707 L470,262.824707 L408.991471,89 L49.1436034,89 Z" id="Path" fill="url(#linearGradient-2)"></path>
            </g>
            <g id="Group-69" transform="translate(157.000000, 2861.000000)" fill="#FB285E" fill-rule="nonzero" opacity="0.049999997">
                <path d="M91.1762683,467.110262 L73.932745,525.53895 C73.4191062,527.288576 74.6358652,529.055049 76.3812388,529.160501 L76.5463796,529.165469 L81.3533785,529.165469 L75.4969468,549 L52.4243468,549 C49.8206592,549 47.7093598,546.827159 47.7093598,544.147578 C47.7093598,543.961603 47.7248332,543.782452 47.747675,543.605576 L47.7864508,543.3414 L70.2821116,467.110262 L91.1762683,467.110262 Z M52.784217,466.647608 C55.3879046,466.647608 57.499204,468.820449 57.499204,471.50003 C57.499204,471.686005 57.4837306,471.865156 57.4608888,472.042031 L57.422113,472.306207 L34.9264523,548.537346 L14.0322955,548.537346 L31.2758188,490.108658 C31.7894576,488.359032 30.5726986,486.592559 28.827325,486.487107 L28.6621842,486.482138 L23.8551854,486.482138 L29.711617,466.647608 L52.784217,466.647608 Z M168.320241,466.647608 L143.33336,548.537346 L121.720582,548.537346 L146.712607,466.647608 L168.320241,466.647608 Z M130.335645,466.647608 L113.093108,525.076296 C112.577088,526.825922 113.796042,528.592395 115.539188,528.697847 L115.704107,528.702816 L120.510831,528.702816 L114.654734,548.537346 L91.5859409,548.537346 C88.9799156,548.537346 86.8687368,546.364505 86.8687368,543.684924 C86.8687368,543.498949 86.8842094,543.319798 86.90705,543.142923 L86.9458236,542.878747 L109.440197,466.647608 L130.335645,466.647608 Z M13.6226229,467.110262 C16.2286482,467.110262 18.339827,469.283102 18.339827,471.962684 C18.339827,472.148659 18.3243544,472.32781 18.3015139,472.504685 L18.2627403,472.768861 L0,534.661 L0,467.11 L13.6226229,467.110262 Z M41.7970967,374.936989 L16.8102157,456.826727 L0,456.826 L0,441.091 L20.1894625,374.936989 L41.7970967,374.936989 Z M3.81250096,374.936989 L0,387.854 L0,374.936 L3.81250096,374.936989 Z M130.41548,185.131655 L113.209512,243.560343 C112.696992,245.309969 113.911101,247.076442 115.652673,247.181894 L115.817454,247.186863 L120.613984,247.186863 L114.770307,267.021393 L91.7479571,267.021393 C89.1499401,267.021393 87.0432389,264.848552 87.0432389,262.168971 C87.0432389,261.982996 87.0586786,261.803845 87.0814707,261.62697 L87.120162,261.362793 L109.566829,185.131655 L130.41548,185.131655 Z M53.0307402,185.131655 C55.6310898,185.131655 57.7376706,187.304496 57.7376706,189.984077 C57.7376706,190.170052 57.7222317,190.349203 57.6994409,190.526078 L57.6607517,190.790254 L35.2153689,267.021393 L14.3654295,267.021393 L31.5704135,208.592705 C32.0853104,206.843078 30.8690105,205.076606 29.129661,204.971154 L28.9651015,204.966185 L24.1688463,204.966185 L30.0121887,185.131655 L53.0307402,185.131655 Z M207.391439,184.669001 L182.458978,266.558739 L160.893271,266.558739 L185.830865,184.669001 L207.391439,184.669001 Z M169.489571,184.669001 L152.284587,243.097689 C151.76969,244.847315 152.98599,246.613788 154.72534,246.71924 L154.889899,246.724209 L159.686154,246.724209 L153.842812,266.558739 L130.82426,266.558739 C128.223911,266.558739 126.11733,264.385898 126.11733,261.706317 C126.11733,261.520342 126.132769,261.341191 126.15556,261.164316 L126.194249,260.90014 L148.639632,184.669001 L169.489571,184.669001 Z M92.1070435,184.669001 C94.7050605,184.669001 96.8117617,186.841842 96.8117617,189.521423 C96.8117617,189.707398 96.7963219,189.886549 96.7735299,190.063424 L96.7348385,190.3276 L74.2881715,266.558739 L53.4395206,266.558739 L70.6454889,208.130051 C71.158009,206.380425 69.9439,204.613952 68.2023276,204.5085 L68.0375465,204.503531 L63.2410169,204.503531 L69.0846938,184.669001 L92.1070435,184.669001 Z M22.9617296,185.131655 L0,260.535 L0,189.716 L1.39602277,185.131655 L22.9617296,185.131655 Z M78.8643819,92.1732725 L61.6584136,150.60196 C61.1458935,152.351587 62.3600025,154.118059 64.1015748,154.223512 L64.2663559,154.22848 L69.0628855,154.22848 L63.2192087,174.063011 L40.196859,174.063011 C37.598842,174.063011 35.4921408,171.89017 35.4921408,169.210589 C35.4921408,169.024614 35.5075805,168.845463 35.5303726,168.668587 L35.5690639,168.404411 L58.0157309,92.1732725 L78.8643819,92.1732725 Z M40.5559454,91.7106186 C43.1539624,91.7106186 45.2606636,93.8834595 45.2606636,96.5630406 C45.2606636,96.7490159 45.2452238,96.9281665 45.2224318,97.1050422 L45.1837404,97.3692183 L22.7370734,173.600357 L1.8884225,173.600357 L19.0943908,115.171669 C19.6069109,113.422042 18.3928019,111.65557 16.6512296,111.550118 L16.4864485,111.545149 L11.6899188,111.545149 L17.5335957,91.7106186 L40.5559454,91.7106186 Z M155.840341,91.7106186 L130.90788,173.600357 L109.342173,173.600357 L134.279767,91.7106186 L155.840341,91.7106186 Z M117.938473,91.7106186 L100.733489,150.139307 C100.218592,151.888933 101.434892,153.655406 103.174241,153.760858 L103.338801,153.765826 L108.135056,153.765826 L102.291714,173.600357 L79.2731623,173.600357 C76.6728127,173.600357 74.5662319,171.427516 74.5662319,168.747935 C74.5662319,168.56196 74.5816708,168.382809 74.6044616,168.205933 L74.6431507,167.941757 L97.0885336,91.7106186 L117.938473,91.7106186 Z M1.47964208,92.1732725 C4.07999167,92.1732725 6.18657251,94.3461134 6.18657251,97.0256944 C6.18657251,97.2116698 6.17113357,97.3908204 6.14834279,97.5676961 L6.10965364,97.8318721 L0,118.58 L0,92.173 L1.47964208,92.1732725 Z M65.5702902,0.462653889 L40.6326964,82.3523923 L19.0721219,82.3523923 L44.0045834,0.462653889 L65.5702902,0.462653889 Z M95.6393008,0.462653889 C98.2396504,0.462653889 100.346231,2.63549471 100.346231,5.3150758 C100.346231,5.50105118 100.330792,5.68020178 100.308002,5.85707745 L100.269312,6.12125349 L77.8239296,82.3523923 L56.9739902,82.3523923 L74.1789741,23.9237044 C74.693871,22.1740777 73.4775712,20.4076054 71.7382216,20.3021531 L71.5736621,20.2971844 L66.7774069,20.2971844 L72.6207493,0.462653889 L95.6393008,0.462653889 Z M173.024041,0.462653889 L155.818072,58.8913418 C155.305552,60.6409685 156.519661,62.4074408 158.261234,62.512893 L158.426015,62.5178617 L163.222544,62.5178617 L157.378867,82.3523923 L134.356518,82.3523923 C131.758501,82.3523923 129.6518,80.1795514 129.6518,77.4999703 C129.6518,77.313995 129.667239,77.1348444 129.690031,76.9579687 L129.728723,76.6937927 L152.17539,0.462653889 L173.024041,0.462653889 Z M134.715604,4.40536496e-13 C137.313621,4.40536496e-13 139.420322,2.17284082 139.420322,4.85242191 C139.420322,5.03839729 139.404883,5.21754789 139.382091,5.39442356 L139.343399,5.6585996 L116.896732,81.8897384 L96.0480812,81.8897384 L113.25405,23.4610505 C113.76657,21.7114238 112.552461,19.9449515 110.810888,19.8394992 L110.646107,19.8345305 L105.849578,19.8345305 L111.693254,4.40536496e-13 L134.715604,4.40536496e-13 Z M250,0 L225.067538,81.8897384 L203.501832,81.8897384 L228.439425,0 L250,0 Z M212.098132,0 L194.893148,58.4286879 C194.378251,60.1783146 195.594551,61.9447869 197.3339,62.0502392 L197.49846,62.0552078 L202.294715,62.0552078 L196.451373,81.8897384 L173.432821,81.8897384 C170.832471,81.8897384 168.725891,79.7168975 168.725891,77.0373165 C168.725891,76.8513411 168.74133,76.6721905 168.76412,76.4953148 L168.802809,76.2311388 L191.248192,0 L212.098132,0 Z" id="Combined-Shape-Copy"></path>
            </g>
            <line x1="158.5" y1="2860.5" x2="158.5" y2="3409.5" id="Path-22" stroke="#392C80"></line>
        </g>
    </g>
</svg>