<?xml version="1.0" encoding="UTF-8"?>
<svg width="1366px" height="457px" viewBox="0 0 1366 457" version="1.1" xmlns="http://www.w3.org/2000/svg" xmlns:xlink="http://www.w3.org/1999/xlink">
    <!-- Generator: Sketch 64 (93537) - https://sketch.com -->
    <title>Oval</title>
    <desc>Created with Sketch.</desc>
    <defs>
        <linearGradient x1="-141.742175%" y1="-247.938868%" x2="0%" y2="-73.5709379%" id="linearGradient-1">
            <stop stop-color="#23F2E3" offset="0%"></stop>
            <stop stop-color="#FB295E" offset="100%"></stop>
        </linearGradient>
    </defs>
    <g id="Page-1" stroke="none" stroke-width="1" fill="none" fill-rule="evenodd">
        <g id="Concept-1-(CTA)" transform="translate(0.000000, -2050.000000)" fill="url(#linearGradient-1)" fill-rule="nonzero">
            <g id="Group-3" transform="translate(0.000000, 2017.000000)">
                <g transform="translate(-841.000000, 33.000000)" id="Group-2">
                    <g>
                        <path d="M1426,0 C638.441947,0 0,638.441947 0,1426 C0,2213.55805 638.441947,2852 1426,2852 C2213.55805,2852 2852,2213.55805 2852,1426 C2852,638.441947 2213.55805,0 1426,0 Z M1426,180.760563 C2113.72675,180.760563 2671.23944,738.273249 2671.23944,1426 C2671.23944,2113.72675 2113.72675,2671.23944 1426,2671.23944 C738.273249,2671.23944 180.760563,2113.72675 180.760563,1426 C180.760563,738.273249 738.273249,180.760563 1426,180.760563 Z" id="Oval"></path>
                    </g>
                </g>
            </g>
        </g>
    </g>
</svg>