<?xml version="1.0" encoding="UTF-8"?>
<svg width="46px" height="46px" viewBox="0 0 46 46" version="1.1" xmlns="http://www.w3.org/2000/svg" xmlns:xlink="http://www.w3.org/1999/xlink">
    <title>Group</title>
    <g id="Page-2" stroke="none" stroke-width="1" fill="none" fill-rule="evenodd">
        <g id="Artboard" transform="translate(-785.000000, -3320.000000)">
            <g id="Group" transform="translate(785.000000, 3320.000000)">
                <g id="Group-42-Copy" fill="#525CD7">
                    <circle id="Oval" cx="23" cy="23" r="23"></circle>
                </g>
                <g id="noun_stats_1495334-copy" transform="translate(10.000000, 10.000000)" fill="#FFFFFF">
                    <path d="M13.2,26.4 C5.9098413,26.4 0,20.4901587 0,13.2 C0,5.9098413 5.9098413,0 13.2,0 C20.4901587,0 26.4,5.9098413 26.4,13.2 C26.4,20.4901587 20.4901587,26.4 13.2,26.4 Z M13.2,2.2 C7.12486775,2.2 2.2,7.12486775 2.2,13.2 C2.2,19.2751322 7.12486775,24.2 13.2,24.2 C19.2751322,24.2 24.2,19.2751322 24.2,13.2 C24.2,7.12486775 19.2751322,2.2 13.2,2.2 L13.2,2.2 Z M17.6,18.7 C17.3093547,18.6997187 17.0308563,18.583382 16.8263743,18.3768345 C16.6218923,18.170287 16.5083603,17.8906334 16.511,17.6 L16.511,12.111 C16.511,11.5095619 16.9985619,11.022 17.6,11.022 C18.2014381,11.022 18.689,11.5095619 18.689,12.111 L18.689,17.6 C18.6916397,17.8906334 18.5781077,18.170287 18.3736257,18.3768345 C18.1691437,18.583382 17.8906453,18.6997187 17.6,18.7 Z M13.2,18.7 C12.5924868,18.7 12.1,18.2075132 12.1,17.6 L12.1,8.8 C12.1,8.19248678 12.5924868,7.7 13.2,7.7 C13.8075132,7.7 14.3,8.19248678 14.3,8.8 L14.3,17.6 C14.3,18.2075132 13.8075132,18.7 13.2,18.7 Z M8.8,18.7 C8.50935473,18.6997187 8.23085627,18.583382 8.02637427,18.3768345 C7.82189226,18.170287 7.7083603,17.8906334 7.711,17.6 L7.711,14.3121 C7.711,13.7106619 8.19856191,13.2231 8.8,13.2231 C9.40143809,13.2231 9.889,13.7106619 9.889,14.3121 L9.889,17.6 C9.8916397,17.8906334 9.77810774,18.170287 9.57362573,18.3768345 C9.36914373,18.583382 9.09064527,18.6997187 8.8,18.7 Z" id="Shape"></path>
                </g>
            </g>
        </g>
    </g>
</svg>