<?xml version="1.0" encoding="UTF-8"?>
<svg width="46px" height="46px" viewBox="0 0 46 46" version="1.1" xmlns="http://www.w3.org/2000/svg" xmlns:xlink="http://www.w3.org/1999/xlink">
    <title>Group 42</title>
    <defs>
        <rect id="path-1" x="0" y="0" width="28" height="28"></rect>
    </defs>
    <g id="Page-2" stroke="none" stroke-width="1" fill="none" fill-rule="evenodd">
        <g id="Artboard" transform="translate(-1023.000000, -3320.000000)">
            <g id="Group-42" transform="translate(1023.000000, 3320.000000)">
                <circle id="Oval" fill="#525CD7" cx="23" cy="23" r="23"></circle>
                <g id="noun_jersey_2785234-copy-3" transform="translate(9.000000, 9.000000)">
                    <g id="noun_jersey_2785234-copy-2">
                        <mask id="mask-2" fill="white">
                            <use xlink:href="#path-1"></use>
                        </mask>
                        <g id="Rectangle"></g>
                        <path d="M11.5144145,3.5 L11.4618866,3.5152903 L7.33999036,4.57337937 L2.1,8.03423055 L4.09164657,11.9743236 L7.08220631,10.4916009 L7.08220631,11.3006764 L7.08220631,12.174845 L7.08220631,14.5059611 L7.08220631,15.3805665 L7.08220631,23.5521421 L7.37618606,23.6556793 C9.33737527,24.3520434 10.2925887,25.2 14,25.2 C17.7074113,25.2 18.6635075,24.3520434 20.6246968,23.6556793 L20.9177937,23.5521421 L20.9177937,10.4916009 L23.9092362,11.9743236 L25.9,8.03423055 L20.6573612,4.57337937 L16.4829371,3.5 L11.5144145,3.5 Z M12.0410178,4.37373168 L15.9594236,4.37373168 C15.634545,5.86562852 12.3663378,5.86562852 12.0410178,4.37373168 Z M16.8365073,4.49299605 L20.2927557,5.38332864 L24.7629252,8.33392052 L23.5154976,10.8013388 L20.0349716,9.07877678 L20.0349716,11.3006764 L7.9659112,11.3006764 L7.9659112,9.07877678 L4.48538521,10.8013388 L3.23795764,8.33392052 L7.70812716,5.38332864 L11.1643755,4.49474352 C11.5965169,6.98968433 16.4065729,6.98924746 16.8365073,4.49343292 L16.8365073,4.49299605 Z M15.9881153,6.89532131 L15.9881153,7.33349775 L15.9881153,8.93373732 C15.9881153,9.40686302 16.1117104,9.84285513 16.418491,10.14604 C16.7248303,10.4492249 17.1649171,10.5719842 17.6434067,10.5719842 C18.1214548,10.5719842 18.5584517,10.4492249 18.864791,10.14604 C19.1715716,9.84285513 19.298698,9.40686302 19.298698,8.93373732 L19.298698,6.89532131 L15.9881153,6.89532131 Z M16.8709373,7.76948985 L18.415876,7.76948985 L18.415876,8.93373732 C18.415876,9.2613867 18.3381876,9.43001691 18.239753,9.52743799 C18.1417597,9.62485908 17.9744649,9.69825254 17.6434067,9.69825254 C17.3123484,9.69825254 17.1424051,9.62485908 17.0439705,9.52743799 C16.9459772,9.43001691 16.8709373,9.2613867 16.8709373,8.93373732 L16.8709373,7.76948985 Z M7.9659112,12.174845 L20.0349716,12.174845 L20.0349716,14.5059611 L7.9659112,14.5059611 L7.9659112,12.174845 Z M7.9659112,15.3805665 L20.0349716,15.3805665 L20.0349716,22.9457723 C18.2009088,23.6447576 17.3776772,24.3262683 14,24.3262683 C10.6245298,24.3262683 9.79688416,23.6473788 7.9659112,22.9492672 L7.9659112,15.3805665 Z" id="Shape" stroke="#FFFFFF" stroke-width="0.5" fill="#FFFFFF" fill-rule="nonzero" mask="url(#mask-2)"></path>
                    </g>
                </g>
            </g>
        </g>
    </g>
</svg>