<?xml version="1.0" encoding="UTF-8"?>
<svg width="46px" height="46px" viewBox="0 0 46 46" version="1.1" xmlns="http://www.w3.org/2000/svg" xmlns:xlink="http://www.w3.org/1999/xlink">
    <title>Group 2</title>
    <g id="Page-2" stroke="none" stroke-width="1" fill="none" fill-rule="evenodd">
        <g id="Artboard" transform="translate(-785.000000, -3459.000000)">
            <g id="Group-2" transform="translate(785.000000, 3459.000000)">
                <g id="Group-42-Copy-2" fill="#525CD7">
                    <circle id="Oval" cx="23" cy="23" r="23"></circle>
                </g>
                <g id="noun_Data_2500461-Copy" transform="translate(9.000000, 11.000000)" fill="#FFFFFF" fill-rule="nonzero">
                    <path d="M22.468134,10.827234 L22.31311,10.9906383 L22.31311,19.4604255 C22.31311,20.1685106 21.744689,20.7676596 21.0729187,20.7676596 L4.87291866,20.7676596 C4.175311,20.7676596 3.63272727,20.1685106 3.63272727,19.4604255 L3.63272727,18.7251064 C3.40019139,18.7795745 3.1676555,18.8068085 2.9092823,18.8068085 C2.65090909,18.8068085 2.39253589,18.7795745 2.16,18.7251064 L2.16,19.4604255 C2.16,21.04 3.37435407,22.32 4.87291866,22.32 L21.0470813,22.32 C22.5456459,22.32 23.76,21.04 23.76,19.4604255 L23.76,10.8 C23.5274641,10.8544681 23.2690909,10.8817021 23.0107177,10.8817021 C22.8298565,10.8817021 22.6231579,10.8817021 22.468134,10.827234 Z" id="Path"></path>
                    <path d="M3.63272727,11.52 L3.63272727,2.85283019 C3.63272727,2.11924528 4.175311,1.54867925 4.87291866,1.54867925 L21.0470813,1.54867925 C21.7188517,1.54867925 22.2872727,2.11924528 22.2872727,2.85283019 L22.2872727,3.58641509 C22.5198086,3.53207547 22.7523445,3.50490566 23.0107177,3.50490566 C23.2690909,3.50490566 23.5274641,3.53207547 23.76,3.58641509 L23.76,2.85283019 C23.76,1.27698113 22.5456459,0 21.0470813,0 L4.87291866,0 C3.37435407,0 2.16,1.27698113 2.16,2.85283019 L2.16,11.52 C2.39253589,11.4656604 2.65090909,11.4384906 2.9092823,11.4384906 C3.14181818,11.4384906 3.40019139,11.4384906 3.63272727,11.52 Z" id="Path"></path>
                    <path d="M22.8946372,5.04 C21.6492114,5.04 20.6157729,6.0687931 20.6157729,7.30862069 C20.6157729,7.65155172 20.6952681,7.96810345 20.8277603,8.25827586 L17.0119874,11.9777586 C16.7205047,11.8194828 16.3760252,11.7403448 16.0050473,11.7403448 C15.4485804,11.7403448 14.9451104,11.9513793 14.5476341,12.2943103 L11.3678233,10.4741379 C11.3943218,10.3422414 11.4208202,10.2103448 11.4208202,10.052069 C11.4208202,8.81224138 10.3873817,7.78344828 9.14195584,7.78344828 C7.89652997,7.78344828 6.86309148,8.81224138 6.86309148,10.052069 C6.86309148,10.2631034 6.91608833,10.4741379 6.96908517,10.6851724 L3.57728707,13.1384483 C3.20630915,12.8746552 2.75583596,12.7427586 2.27886435,12.7427586 C1.03343849,12.7427586 0,13.7715517 0,15.0113793 C0,16.2512069 1.03343849,17.28 2.27886435,17.28 C3.52429022,17.28 4.55772871,16.2512069 4.55772871,15.0113793 C4.55772871,14.8003448 4.50473186,14.5893103 4.45173502,14.3782759 L7.87003155,11.925 C8.24100946,12.1887931 8.69148265,12.3206897 9.16845426,12.3206897 C9.72492114,12.3206897 10.2283912,12.1096552 10.6258675,11.7667241 L13.8056782,13.5868966 C13.7791798,13.7187931 13.7526814,13.8506897 13.7526814,14.0089655 C13.7526814,15.2487931 14.7861199,16.2775862 16.0315457,16.2775862 C17.2769716,16.2775862 18.3104101,15.2487931 18.3104101,14.0089655 C18.3104101,13.6660345 18.2309148,13.3494828 18.0984227,13.0593103 L21.9141956,9.33982759 C22.2056782,9.49810345 22.5501577,9.57724138 22.9211356,9.57724138 C24.1665615,9.57724138 25.2,8.54844828 25.2,7.30862069 C25.2,6.0687931 24.1400631,5.04 22.8946372,5.04 Z M2.27886435,15.75 C1.85488959,15.75 1.51041009,15.407069 1.51041009,14.985 C1.51041009,14.562931 1.85488959,14.22 2.27886435,14.22 C2.70283912,14.22 3.04731861,14.5893103 3.04731861,15.0113793 C3.04731861,15.4334483 2.70283912,15.75 2.27886435,15.75 Z M9.14195584,10.817069 C8.71798107,10.817069 8.37350158,10.4741379 8.37350158,10.052069 C8.37350158,9.63 8.71798107,9.28706897 9.14195584,9.28706897 C9.5659306,9.28706897 9.91041009,9.63 9.91041009,10.052069 C9.91041009,10.4741379 9.5659306,10.817069 9.14195584,10.817069 Z M16.0315457,14.7739655 C15.607571,14.7739655 15.2630915,14.4310345 15.2630915,14.0089655 C15.2630915,13.5868966 15.607571,13.2439655 16.0315457,13.2439655 C16.4555205,13.2439655 16.8,13.5868966 16.8,14.0089655 C16.7735016,14.4310345 16.4555205,14.7739655 16.0315457,14.7739655 Z M22.8946372,8.07362069 C22.4706625,8.07362069 22.126183,7.73068966 22.126183,7.30862069 C22.126183,6.88655172 22.4706625,6.54362069 22.8946372,6.54362069 C23.318612,6.54362069 23.6630915,6.88655172 23.6630915,7.30862069 C23.6630915,7.73068966 23.318612,8.07362069 22.8946372,8.07362069 Z" id="Shape"></path>
                </g>
            </g>
        </g>
    </g>
</svg>