<?xml version="1.0" encoding="UTF-8"?>
<svg width="46px" height="46px" viewBox="0 0 46 46" version="1.1" xmlns="http://www.w3.org/2000/svg" xmlns:xlink="http://www.w3.org/1999/xlink">
    <title>Group 4</title>
    <g id="Page-2" stroke="none" stroke-width="1" fill="none" fill-rule="evenodd">
        <g id="Artboard" transform="translate(-1023.000000, -3459.000000)">
            <g id="Group-4" transform="translate(1023.000000, 3459.000000)">
                <g id="Group-3">
                    <g id="Group-42-Copy-3"></g>
                    <circle id="Oval" fill="#525CD7" cx="23" cy="23" r="23"></circle>
                </g>
                <g id="noun_Compare_2177797-Copy-10" transform="translate(12.000000, 10.000000)" fill="#FFFFFF" fill-rule="nonzero">
                    <path d="M14.0821375,24.6537055 C14.0821375,23.7174392 14.0821375,22.7811728 14.0821375,21.8449065 C14.0821375,21.7101409 14.0821375,21.5718288 14.0821375,21.4370632 C14.0821375,21.0540451 13.7581653,20.7277705 13.3778502,20.7277705 C12.0537899,20.7277705 10.7332512,20.7277705 9.40919095,20.7277705 C7.31745752,20.7277705 5.2257241,20.7277705 3.13399067,20.7277705 C2.65507527,20.7277705 2.17968131,20.7277705 1.70076591,20.7277705 C1.93670217,20.9653836 2.169117,21.1994501 2.40505326,21.4370632 C2.40505326,19.9901061 2.40505326,18.543149 2.40505326,17.096192 C2.40505326,16.8940436 2.40505326,16.6918951 2.40505326,16.4862003 C2.169117,16.7238133 1.93670217,16.9578799 1.70076591,17.1954929 C3.02482613,17.1954929 4.34536491,17.1954929 5.66942513,17.1954929 C7.76115855,17.1954929 9.85289198,17.1954929 11.9446254,17.1954929 C12.4235408,17.1954929 12.8989348,17.1954929 13.3778502,17.1954929 C13.7581653,17.1954929 14.0821375,16.8692183 14.0821375,16.4862003 C14.0821375,15.5499339 14.0821375,14.6136676 14.0821375,13.6774012 C14.0821375,13.5426356 14.0821375,13.4043236 14.0821375,13.2695579 C13.6806937,13.4362417 13.2792499,13.6029255 12.8813276,13.7696093 C13.6630865,14.4115192 14.4448455,15.0569755 15.2266045,15.6988854 C16.4626288,16.7167204 17.7021745,17.7345554 18.9381988,18.7523904 C19.2234352,18.9900034 19.512193,19.22407 19.7974294,19.4616831 C19.7974294,19.1283155 19.7974294,18.7914015 19.7974294,18.4580339 C19.0156704,19.0999438 18.2339114,19.7454001 17.4521525,20.38731 C16.2161282,21.405145 14.9765824,22.42298 13.7405581,23.440815 C13.4553218,23.6784281 13.166564,23.9124947 12.8813276,24.1501077 C12.5960912,24.3841743 12.6207413,24.9125973 12.8813276,25.1537569 C13.1841711,25.4339275 13.5715292,25.4055558 13.8778942,25.1537569 C14.6596531,24.511847 15.4414121,23.8663906 16.2231711,23.2244808 C17.4591954,22.2066458 18.6987411,21.1888108 19.9347654,20.1709758 C20.2200018,19.9333627 20.5087596,19.6992961 20.793996,19.4616831 C21.068668,19.2347094 21.068668,18.6850076 20.793996,18.4580339 C20.012237,17.816124 19.230478,17.1706677 18.4487191,16.5287578 C17.2126948,15.5109228 15.973149,14.4930878 14.7371247,13.4752528 C14.4518884,13.2376398 14.1631306,13.0035732 13.8778942,12.7659601 C13.6525222,12.581544 13.3919359,12.4999754 13.110221,12.6205551 C12.8531561,12.7304955 12.6770843,12.9858409 12.6770843,13.2695579 C12.6770843,14.2058243 12.6770843,15.1420906 12.6770843,16.078357 C12.6770843,16.2131226 12.6770843,16.3514347 12.6770843,16.4862003 C12.9130205,16.2485872 13.1454353,16.0145206 13.3813716,15.7769076 C12.0573114,15.7769076 10.7367726,15.7769076 9.41271239,15.7769076 C7.32097896,15.7769076 5.22924553,15.7769076 3.1375121,15.7769076 C2.65859671,15.7769076 2.18320275,15.7769076 1.70428735,15.7769076 C1.32397218,15.7769076 1,16.1031822 1,16.4862003 C1,17.9331573 1,19.3801144 1,20.8270715 C1,21.0292199 1,21.2313683 1,21.4370632 C1,21.8200812 1.32397218,22.1463559 1.70428735,22.1463559 C3.02834757,22.1463559 4.34888635,22.1463559 5.67294656,22.1463559 C7.76467999,22.1463559 9.85641342,22.1463559 11.9481468,22.1463559 C12.4270622,22.1463559 12.9024562,22.1463559 13.3813716,22.1463559 C13.1454353,21.9087428 12.9130205,21.6746762 12.6770843,21.4370632 C12.6770843,22.3733295 12.6770843,23.3095959 12.6770843,24.2458622 C12.6770843,24.3806278 12.6770843,24.5189399 12.6770843,24.6537055 C12.6770843,25.0260842 13.0010564,25.3807305 13.3813716,25.3629982 C13.7581653,25.3452659 14.0821375,25.0509094 14.0821375,24.6537055 Z" id="Path"></path>
                    <path d="M8.32291575,12.4536181 C8.32291575,11.5172366 8.32291575,10.580855 8.32291575,9.64447339 C8.32291575,9.5096912 8.32291575,9.3713621 8.32291575,9.2365799 C8.08697949,9.4742222 7.85456466,9.70831759 7.6186284,9.94595989 C8.94268862,9.94595989 10.2632274,9.94595989 11.5872876,9.94595989 C13.679021,9.94595989 15.7707545,9.94595989 17.8624879,9.94595989 C18.3414033,9.94595989 18.8167973,9.94595989 19.2957127,9.94595989 C19.6760278,9.94595989 20,9.61964509 20,9.2365799 C20,7.78944473 20,6.34230957 20,4.8951744 C20,4.6930011 20,4.4908278 20,4.28510761 C20,3.90204242 19.6760278,3.57572762 19.2957127,3.57572762 C17.9716524,3.57572762 16.6511137,3.57572762 15.3270534,3.57572762 C13.23532,3.57572762 11.1435866,3.57572762 9.05185316,3.57572762 C8.57293776,3.57572762 8.0975438,3.57572762 7.6186284,3.57572762 C7.85456466,3.81336992 8.08697949,4.04746531 8.32291575,4.28510761 C8.32291575,3.34872603 8.32291575,2.41234445 8.32291575,1.47596287 C8.32291575,1.34118067 8.32291575,1.20285158 8.32291575,1.06806938 C8.32291575,0.784317385 8.14684391,0.52894059 7.88977903,0.418986693 C7.61158553,0.301938995 7.34747777,0.379970794 7.12210582,0.56440959 C6.34034686,1.20639848 5.5585879,1.85193426 4.77682895,2.49392315 C3.54080465,3.51188343 2.30125891,4.5298437 1.06523462,5.54780398 C0.779998239,5.78544628 0.491240426,6.01954167 0.20600405,6.25718397 C-0.0686680166,6.48418556 -0.0686680166,7.03395505 0.20600405,7.26095665 C0.987763007,7.90294553 1.76952196,8.54848132 2.55128092,9.1904702 C3.78730522,10.2084305 5.02685096,11.2263908 6.26287525,12.244351 C6.54811163,12.4819933 6.83686944,12.7160887 7.12210582,12.953731 C7.4073422,13.1878264 7.84400035,13.2552175 8.11867242,12.953731 C8.35460868,12.6948073 8.42503742,12.2017882 8.11867242,11.9499583 C7.33691346,11.3079695 6.5551545,10.6624337 5.77339555,10.0204448 C4.53737125,9.00248451 3.29782551,7.98452423 2.06180121,6.96656395 C1.77656484,6.72892166 1.48780703,6.49482626 1.20257065,6.25718397 C1.20257065,6.59059256 1.20257065,6.92754805 1.20257065,7.26095665 C1.98432961,6.61896776 2.76608856,5.97343197 3.54784752,5.33144309 C4.78387182,4.31348281 6.02341755,3.29552253 7.25944185,2.27756225 C7.54467823,2.03991996 7.83343604,1.80582456 8.11867242,1.56818227 C7.71722863,1.40147797 7.31578484,1.23477368 6.91786249,1.06806938 C6.91786249,2.00445096 6.91786249,2.94083254 6.91786249,3.87721412 C6.91786249,4.01199632 6.91786249,4.15032541 6.91786249,4.28510761 C6.91786249,4.6681728 7.24183467,4.99448759 7.62214984,4.99448759 C8.94621005,4.99448759 10.2667488,4.99448759 11.5908091,4.99448759 C13.6825425,4.99448759 15.7742759,4.99448759 17.8660093,4.99448759 C18.3449247,4.99448759 18.8203187,4.99448759 19.2992341,4.99448759 C19.0632978,4.7568453 18.830883,4.5227499 18.5949467,4.28510761 C18.5949467,5.73224278 18.5949467,7.17937795 18.5949467,8.62651312 C18.5949467,8.82868641 18.5949467,9.03085971 18.5949467,9.2365799 C18.830883,8.99893761 19.0632978,8.76484221 19.2992341,8.52719992 C17.9751739,8.52719992 16.6546351,8.52719992 15.3305749,8.52719992 C13.2388414,8.52719992 11.147108,8.52719992 9.05537459,8.52719992 C8.5764592,8.52719992 8.10106523,8.52719992 7.62214984,8.52719992 C7.24183467,8.52719992 6.91786249,8.85351471 6.91786249,9.2365799 C6.91786249,10.1729615 6.91786249,11.1093431 6.91786249,12.0457246 C6.91786249,12.1805068 6.91786249,12.3188359 6.91786249,12.4536181 C6.91786249,12.8260426 7.24183467,13.1807326 7.62214984,13.1629981 C8.00246501,13.1452636 8.32291575,12.8508709 8.32291575,12.4536181 Z" id="Path"></path>
                </g>
            </g>
        </g>
    </g>
</svg>