<?xml version="1.0" encoding="UTF-8"?>
<svg width="293px" height="168px" viewBox="0 0 293 168" version="1.1" xmlns="http://www.w3.org/2000/svg" xmlns:xlink="http://www.w3.org/1999/xlink">
    <title>Group 58</title>
    <g id="Page-1" stroke="none" stroke-width="1" fill="none" fill-rule="evenodd" opacity="0.411156064">
        <g id="Concept-1-(Email)" transform="translate(-44.000000, -4878.000000)" fill="#FFFFFF" fill-rule="nonzero">
            <g id="Group-58" transform="translate(44.185606, 4878.000000)">
                <polygon id="Fill-4" opacity="0.2" points="52.2835992 168 0.814393939 168 60.332937 2 111.814394 2"></polygon>
                <path d="M185.419371,2 L129.693684,2 L115.547518,42.2068945 L127.158787,42.2068945 C131.57984,42.2068945 134.751465,45.9007405 133.465996,49.5582712 L91.8143939,168 L142.29008,168 L186.524634,42.2068945 L195.769199,15.9193675 L196.628181,13.4706379 C196.730298,12.9362753 196.814394,12.4019127 196.814394,11.8364222 C196.814394,6.40460042 191.714566,2 185.419371,2" id="Fill-8" opacity="0.2"></path>
                <path d="M225.329126,0 L211.316883,39.9646843 L222.818227,39.9646843 C227.203375,39.9646843 230.339024,43.6362782 229.071674,47.2717755 L187.814394,165 L237.80627,165 L281.622049,39.9646843 L290.779095,13.8355158 L291.629944,11.4015376 C291.731094,10.8703941 291.814394,10.3392506 291.814394,9.7771666 C291.814394,4.37806669 286.762847,0 280.533199,0 L225.329126,0 Z" id="Fill-12" opacity="0.2"></path>
            </g>
        </g>
    </g>
</svg>