<?xml version="1.0" encoding="UTF-8"?>
<svg width="20px" height="20px" viewBox="0 0 20 20" version="1.1" xmlns="http://www.w3.org/2000/svg" xmlns:xlink="http://www.w3.org/1999/xlink">
    <!-- Generator: Sketch 63.1 (92452) - https://sketch.com -->
    <title>Group 3 Copy</title>
    <desc>Created with Sketch.</desc>
    <g id="Player-Popup" stroke="none" stroke-width="1" fill="none" fill-rule="evenodd">
        <g id="Popup---Player-Overview" transform="translate(-554.000000, -563.000000)">
            <g id="Group-3-Copy" transform="translate(556.000000, 565.000000)">
                <g id="Group-14-Copy-4" fill="#4149AC" stroke="#FFFFFF" stroke-width="2">
                    <circle id="Oval" cx="8" cy="8" r="9"></circle>
                </g>
                <g id="noun_Soccer-Ball_300401" transform="translate(3.000000, 3.000000)" fill="#FFFFFF" fill-rule="nonzero">
                    <path d="M5.1,0 C2.283525,0 0,2.283525 0,5.1 C0,7.916475 2.283525,10.2 5.1,10.2 C7.916475,10.2 10.2,7.916475 10.2,5.1 C10.2,2.283525 7.916475,0 5.1,0 Z M8.4436875,8.0446125 L6.8002125,8.0446125 L5.9740125,9.4751625 C5.6909625,9.5319 5.3989875,9.5625 5.1,9.5625 C4.8010125,9.5625 4.5090375,9.5319 4.2259875,9.4751625 L3.3997875,8.0446125 L1.755675,8.0446125 C1.36935,7.6060125 1.067175,7.092825 0.875925,6.5273625 L1.7002125,5.1 L0.875925,3.6726375 C1.067175,3.107175 1.3687125,2.5939875 1.755675,2.1553875 L3.400425,2.1553875 L4.226625,0.7242 C4.5090375,0.6681 4.8010125,0.6375 5.1,0.6375 C5.3989875,0.6375 5.6909625,0.6681 5.9740125,0.7248375 L6.8002125,2.156025 L8.444325,2.156025 C8.83065,2.594625 9.1321875,3.1078125 9.324075,3.6726375 L8.4997875,5.1 L9.324075,6.5273625 C9.1321875,7.092825 8.83065,7.60665 8.4436875,8.0446125 Z" id="Shape"></path>
                    <polygon id="Path" points="4.11825 3.3997875 3.1371375 5.1 4.11825 6.8002125 6.08175 6.8002125 7.0628625 5.1 6.08175 3.3997875"></polygon>
                </g>
            </g>
        </g>
    </g>
</svg>