<?xml version="1.0" encoding="UTF-8"?>
<svg width="32px" height="33px" viewBox="0 0 32 33" version="1.1" xmlns="http://www.w3.org/2000/svg" xmlns:xlink="http://www.w3.org/1999/xlink">
    <!-- Generator: Sketch 63.1 (92452) - https://sketch.com -->
    <title>Group 31</title>
    <desc>Created with Sketch.</desc>
    <g id="Player-Popup" stroke="none" stroke-width="1" fill="none" fill-rule="evenodd">
        <g id="Popup---Fixtures" transform="translate(-397.000000, -754.000000)">
            <g id="Group-2" transform="translate(399.000000, 757.000000)">
                <g id="Group-31" transform="translate(0.500000, 0.000000)">
                    <g id="Group-3-Copy-4" fill="#FB295E" stroke="#FFFFFF" stroke-width="2.8">
                        <g id="Group-14-Copy-4" transform="translate(0.500000, 0.000000)">
                            <ellipse id="Oval" cx="12.6608696" cy="13.1478261" rx="14.0608696" ry="14.5478261"></ellipse>
                        </g>
                    </g>
                    <g id="Group-8" transform="translate(4.500000, 5.000000)" fill="#FFFFFF" fill-rule="nonzero">
                        <g id="noun_jersey_1879645" transform="translate(3.000000, 0.000000)">
                            <path d="M11.8125,15.1416 L1.4175,15.1416 L1.4175,6.183 L0,6.183 L0,3.1914 L4.106025,0.0216 L9.123975,0.0216 L13.23,3.1914 L13.23,6.183 L11.8125,6.183 L11.8125,15.1416 Z M2.3625,14.0616 L10.8675,14.0616 L10.8675,5.103 L12.285,5.103 L12.285,3.7638 L8.831025,1.1016 L4.398975,1.1016 L0.945,3.7638 L0.945,5.103 L2.3625,5.103 L2.3625,14.0616 Z" id="Shape"></path>
                            <path d="M6.615,4.4874 L3.898125,0.918 C3.73945858,0.692865903 3.76407048,0.36485911 3.95395948,0.173885036 C4.14384847,-0.0170890376 4.43165444,-0.00328536301 4.606875,0.2052 L6.615,2.8458 L8.623125,0.2052 C8.73209851,0.0505759057 8.90652696,-0.0232348429 9.07733427,0.0129978385 C9.24814158,0.04923052 9.38777517,0.189662012 9.44093819,0.378679488 C9.4941012,0.567696964 9.45221804,0.774810404 9.331875,0.918 L6.615,4.4874 Z" id="Path"></path>
                        </g>
                        <path d="M0.492902446,13.1666019 L1.24675325,12.1718579 C1.53669586,11.7905393 1.97160979,11.5584324 2.40652371,11.5584324 L7.32105104,11.5584324 L7.00211416,13.3821298 C6.91513138,13.8463437 7.37903957,14.177925 7.71247357,13.8960809 L11.8151616,10.4144767 C12.0616128,10.2155279 12.0616128,9.78447212 11.8151616,9.58552331 L7.71247357,6.10391911 C7.37903957,5.82207496 6.91513138,6.15365631 7.00211416,6.6178702 L7.32105104,8.42498858 L2.30504379,8.42498858 C1.02929629,8.42498858 0,9.60210238 0,11.0610603 L0,12.951074 C0,13.2494973 0.318936877,13.3987089 0.492902446,13.1666019 Z" id="Path" stroke="#FB295E" stroke-width="0.672"></path>
                    </g>
                </g>
            </g>
        </g>
    </g>
</svg>