<?xml version="1.0" encoding="UTF-8"?>
<svg width="26px" height="29px" viewBox="0 0 26 29" version="1.1" xmlns="http://www.w3.org/2000/svg" xmlns:xlink="http://www.w3.org/1999/xlink">
    <!-- Generator: Sketch 63.1 (92452) - https://sketch.com -->
    <title>Group 11</title>
    <desc>Created with Sketch.</desc>
    <g id="Player-Popup" stroke="none" stroke-width="1" fill="none" fill-rule="evenodd">
        <g id="Popup---Player-Overview-(No-Match)" transform="translate(-479.000000, -641.000000)" fill-rule="nonzero">
            <g id="Group-10" transform="translate(391.000000, 547.000000)">
                <g id="Group-11" transform="translate(88.000000, 94.000000)">
                    <g id="noun_negative_3057070" opacity="0.535505022" transform="translate(18.000000, 0.000000)" fill="#606380">
                        <path d="M2.81098809,3.22222222 L1.22902324,1.57162232 C0.884443235,1.21209183 0.884443235,0.629178016 1.22902324,0.269647524 C1.57360368,-0.0898825079 2.13227868,-0.0898825079 2.47685912,0.269647524 L4.05882353,1.92024789 L5.64078794,0.269647524 C5.98536838,-0.0898825079 6.54404338,-0.0898825079 6.88862382,0.269647524 C7.23320382,0.629178016 7.23320382,1.21209183 6.88862382,1.57162232 L5.30665897,3.22222222 L6.88862382,4.87282213 C7.23320382,5.23235262 7.23320382,5.81526643 6.88862382,6.17479692 C6.54404338,6.53432695 5.98536838,6.53432695 5.64078794,6.17479692 L4.05882353,4.52419656 L2.47685912,6.17479692 C2.13227868,6.53432695 1.57360368,6.53432695 1.22902324,6.17479692 C0.884443235,5.81526643 0.884443235,5.23235262 1.22902324,4.87282213 L2.81098809,3.22222222 Z" id="Shape"></path>
                    </g>
                    <g id="noun_soccer_1914416" transform="translate(0.000000, 9.000000)" fill="#AAACBB">
                        <path d="M10.195355,5.0616373 C10.0874512,4.97945423 9.91258805,4.97945423 9.80423174,5.0616373 L6.13482101,7.85301932 C6.02669091,7.93520239 5.97262586,8.10951574 6.01379674,8.2423823 L7.41564239,12.7588981 C7.45681326,12.8922383 7.59864919,13 7.73188899,13 L12.267924,13 C12.4016162,13 12.543226,12.8922383 12.5843968,12.7588981 L13.9860163,8.2423823 C14.0276396,8.1092789 13.9731221,7.93520239 13.8652182,7.85278249 L10.195355,5.0616373 Z" id="Path"></path>
                        <path d="M10,0 C4.486,0 0,4.486 0,10 C0,15.514 4.486,20 10,20 C15.514,20 20,15.5137778 20,10 C20,4.486 15.514,0 10,0 Z M17.2635556,14.3197778 C17.228,14.2222222 17.1208889,14.1755556 17.0253333,14.2155556 L14.1602222,15.4135556 C14.0642222,15.4537778 13.932,15.5502222 13.8642222,15.6291111 L11.8395556,17.9835556 C11.7717778,18.0624444 11.7831111,18.1782222 11.8646667,18.2424444 L12.4671111,18.7146667 C11.6824444,18.9371111 10.8555556,19.0586667 10.0004444,19.0586667 C9.14533333,19.0586667 8.31822222,18.9371111 7.53355556,18.7146667 L8.13577778,18.2424444 C8.21755556,18.1782222 8.22888889,18.0624444 8.16111111,17.9835556 L6.13644444,15.6291111 C6.06866667,15.5504444 5.936,15.4537778 5.84,15.4135556 L2.97533333,14.2155556 C2.87933333,14.1753333 2.77266667,14.222 2.73688889,14.32 L2.47466667,15.0368889 C1.56733333,13.6857778 1.01577778,12.078 0.95,10.3473333 L1.58466667,10.774 C1.67088889,10.832 1.78466667,10.8066667 1.83866667,10.718 L3.45222222,8.06511111 C3.50622222,7.97622222 3.55688889,7.82022222 3.56555556,7.71666667 L3.81977778,4.622 C3.82844444,4.51844444 3.75088889,4.43133333 3.64711111,4.42755556 L2.88777778,4.39977778 C3.91533333,3.09755556 5.29022222,2.08177778 6.87377778,1.49777778 L6.66333333,2.23622222 C6.63488889,2.33622222 6.69377778,2.43666667 6.79488889,2.46044444 L9.81688889,3.17511111 C9.918,3.19911111 10.082,3.19911111 10.1831111,3.17511111 L13.2051111,2.46044444 C13.3062222,2.43644444 13.3651111,2.336 13.3368889,2.236 L13.1264444,1.49777778 C14.7097778,2.08177778 16.0848889,3.09755556 17.1126667,4.39977778 L16.3533333,4.42755556 C16.2493333,4.43133333 16.1722222,4.51844444 16.1808889,4.622 L16.4353333,7.71666667 C16.4437778,7.82022222 16.4944444,7.97622222 16.5484444,8.06511111 L18.162,10.718 C18.2162222,10.8066667 18.33,10.832 18.4164444,10.774 L19.0508889,10.3473333 C18.9853333,12.0777778 18.4337778,13.6853333 17.5264444,15.0368889 L17.2635556,14.3197778 Z" id="Shape"></path>
                    </g>
                </g>
            </g>
        </g>
    </g>
</svg>