<?xml version="1.0" encoding="UTF-8"?>
<svg width="38px" height="36px" viewBox="0 0 38 36" version="1.1" xmlns="http://www.w3.org/2000/svg" xmlns:xlink="http://www.w3.org/1999/xlink">
    <!-- Generator: Sketch 63.1 (92452) - https://sketch.com -->
    <title>Group 11</title>
    <desc>Created with Sketch.</desc>
    <g id="Player-Popup" stroke="none" stroke-width="1" fill="none" fill-rule="evenodd">
        <g id="Popup---Player-Overview" transform="translate(-297.000000, -272.000000)">
            <g id="Group-11" transform="translate(297.000000, 272.000000)">
                <rect id="Rectangle" fill="#444CB3" x="0" y="0" width="38" height="36" rx="7"></rect>
                <g id="noun_switch_2207864" transform="translate(11.000000, 10.000000)" fill="#FFFFFF" fill-rule="nonzero">
                    <path d="M9.702,3.366 C9.936,3.132 9.936,2.736 9.702,2.502 L7.722,0.522 C7.488,0.288 7.092,0.288 6.858,0.522 C6.624,0.756 6.624,1.152 6.858,1.386 L7.812,2.34 L5.112,2.34 C3.6,2.34 2.376,3.564 2.376,5.076 L2.376,8.424 C2.376,8.766 2.646,9.036 2.988,9.036 C3.33,9.036 3.6,8.766 3.6,8.424 L3.6,5.058 C3.6,4.23 4.284,3.546 5.112,3.546 L7.812,3.546 L6.858,4.5 C6.624,4.734 6.624,5.13 6.858,5.364 C6.984,5.49 7.128,5.544 7.29,5.544 C7.452,5.544 7.596,5.49 7.722,5.364 L9.702,3.366 Z" id="Path"></path>
                    <path d="M14.292,7.164 C13.95,7.164 13.68,7.434 13.68,7.776 L13.68,11.124 C13.68,11.952 12.996,12.636 12.168,12.636 L9.468,12.636 L10.422,11.682 C10.656,11.448 10.656,11.052 10.422,10.818 C10.188,10.584 9.792,10.584 9.558,10.818 L7.578,12.816 C7.344,13.05 7.344,13.446 7.578,13.68 L9.576,15.678 C9.702,15.804 9.846,15.858 10.008,15.858 C10.17,15.858 10.314,15.804 10.44,15.678 C10.674,15.444 10.674,15.048 10.44,14.814 L9.468,13.86 L12.168,13.86 C13.68,13.86 14.904,12.636 14.904,11.124 L14.904,7.776 C14.904,7.434 14.634,7.164 14.292,7.164 Z" id="Path"></path>
                    <path d="M14.292,0.036 C12.69,0.036 11.394,1.332 11.394,2.934 C11.394,4.536 12.69,5.832 14.292,5.832 C15.894,5.832 17.19,4.536 17.19,2.934 C17.19,1.332 15.894,0.036 14.292,0.036 Z" id="Path"></path>
                    <path d="M2.988,10.368 C1.386,10.368 0.09,11.664 0.09,13.266 C0.09,14.868 1.386,16.164 2.988,16.164 C4.59,16.164 5.886,14.868 5.886,13.266 C5.886,11.664 4.59,10.368 2.988,10.368 Z" id="Path"></path>
                </g>
            </g>
        </g>
    </g>
</svg>