<?xml version="1.0" encoding="UTF-8"?>
<svg width="14px" height="14px" viewBox="0 0 14 14" version="1.1" xmlns="http://www.w3.org/2000/svg" xmlns:xlink="http://www.w3.org/1999/xlink">
    <!-- Generator: Sketch 63.1 (92452) - https://sketch.com -->
    <title>Shape</title>
    <desc>Created with Sketch.</desc>
    <g id="Player-Popup" stroke="none" stroke-width="1" fill="none" fill-rule="evenodd">
        <g id="Popup---Comparison-(Select-Player)" transform="translate(-1345.000000, -136.000000)" fill="#333589" fill-rule="nonzero">
            <g id="noun_Search_875352" transform="translate(1345.000000, 136.000000)">
                <path d="M13.7676706,12.6756757 L11.2550707,10.1818182 C13.2169637,7.67076167 13.0104487,4.09336609 10.7559926,1.84029484 C9.56853104,0.653562654 7.98524892,0 6.29870928,0 C4.61216964,0 3.02888752,0.653562654 1.84142594,1.84029484 C0.653964352,3.02702703 0,4.60933661 0,6.29484029 C0,7.98034398 0.653964352,9.56265356 1.84142594,10.7493857 C3.02888752,11.9361179 4.61216964,12.5896806 6.29870928,12.5896806 C7.69268593,12.5896806 9.06945298,12.1253071 10.1708666,11.2481572 L12.6662569,13.7764128 C12.8211432,13.9312039 13.0104487,14 13.2169637,14 C13.4234788,14 13.6127843,13.9140049 13.7676706,13.7764128 C14.0774431,13.4840295 14.0774431,12.985258 13.7676706,12.6756757 Z M11.0485556,6.29484029 C11.0485556,7.56756757 10.5494776,8.75429975 9.65457898,9.64864865 C8.75968039,10.5429975 7.55500922,11.041769 6.29870928,11.041769 C5.04240934,11.041769 3.83773817,10.5429975 2.94283958,9.64864865 C2.047941,8.75429975 1.54886294,7.55036855 1.54886294,6.29484029 C1.54886294,5.02211302 2.047941,3.83538084 2.94283958,2.94103194 C3.83773817,2.04668305 5.04240934,1.54791155 6.29870928,1.54791155 C7.57221881,1.54791155 8.75968039,2.04668305 9.65457898,2.94103194 C10.5494776,3.83538084 11.0485556,5.02211302 11.0485556,6.29484029 Z" id="Shape"></path>
            </g>
        </g>
    </g>
</svg>