<?xml version="1.0" encoding="UTF-8"?>
<svg width="288px" height="261px" viewBox="0 0 288 261" version="1.1" xmlns="http://www.w3.org/2000/svg" xmlns:xlink="http://www.w3.org/1999/xlink">
    <!-- Generator: Sketch 63.1 (92452) - https://sketch.com -->
    <title>Combined Shape</title>
    <desc>Created with Sketch.</desc>
    <g id="Player-Popup" stroke="none" stroke-width="1" fill="none" fill-rule="evenodd" opacity="0.400000006">
        <g id="Popup---Player-Overview" transform="translate(-62.000000, -30.000000)" fill="#525CD7">
            <path d="M124.008,238.8 L108.103088,291 L94.352,291 L110.253639,238.8 L124.008,238.8 Z M142.552665,238.8 C144.22291,238.8 145.576,240.185061 145.576,241.89314 C145.576,242.011689 145.566083,242.125887 145.551444,242.238635 L145.526594,242.407032 L131.109574,291 L117.717333,291 L128.768363,253.755071 C129.099089,252.639784 128.317841,251.51376 127.200629,251.44654 L127.09493,251.443373 L124.014221,251.443373 L127.767491,238.8 L142.552665,238.8 Z M191.408,238.8 L180.356338,276.044929 C180.027139,277.160216 180.80698,278.28624 181.925619,278.35346 L182.03146,278.356627 L185.112346,278.356627 L181.358861,291 L166.571247,291 C164.9025,291 163.549333,289.614939 163.549333,287.90686 C163.549333,287.788311 163.559251,287.674113 163.57389,287.561365 L163.598742,287.392968 L178.016586,238.8 L191.408,238.8 Z M240.834667,238.8 L224.933028,291 L211.178667,291 L227.083579,238.8 L240.834667,238.8 Z M216.570667,238.8 L205.519637,276.044929 C205.188911,277.160216 205.970159,278.28624 207.087371,278.35346 L207.19307,278.356627 L210.273779,278.356627 L206.520509,291 L191.735335,291 C190.06509,291 188.712,289.614939 188.712,287.90686 C188.712,287.788311 188.721917,287.674113 188.736556,287.561365 L188.761406,287.392968 L203.178426,238.8 L216.570667,238.8 Z M167.716753,238.8 C169.3855,238.8 170.738667,240.185061 170.738667,241.89314 C170.738667,242.011689 170.728749,242.125887 170.71411,242.238635 L170.689258,242.407032 L156.271414,291 L142.88,291 L153.931662,253.755071 C154.260861,252.639784 153.48102,251.51376 152.362381,251.44654 L152.25654,251.443373 L149.175654,251.443373 L152.929139,238.8 L167.716753,238.8 Z M230.949333,180.3 L215.044421,232.5 L201.293333,232.5 L217.194972,180.3 L230.949333,180.3 Z M250.392665,180.3 C252.06291,180.3 253.416,181.685061 253.416,183.39314 C253.416,183.511689 253.406083,183.625887 253.391444,183.738635 L253.366594,183.907032 L238.949574,232.5 L225.557333,232.5 L236.608363,195.255071 C236.939089,194.139784 236.157841,193.01376 235.040629,192.94654 L234.93493,192.943373 L231.854221,192.943373 L235.607491,180.3 L250.392665,180.3 Z M299.248,180.3 L288.196338,217.544929 C287.867139,218.660216 288.64698,219.78624 289.765619,219.85346 L289.87146,219.856627 L292.952346,219.856627 L289.198861,232.5 L274.411247,232.5 C272.7425,232.5 271.389333,231.114939 271.389333,229.40686 C271.389333,229.288311 271.399251,229.174113 271.41389,229.061365 L271.438742,228.892968 L285.856586,180.3 L299.248,180.3 Z M91.656,180.3 L75.7510879,232.5 L62,232.5 L77.9016388,180.3 L91.656,180.3 Z M110.200665,180.3 C111.87091,180.3 113.224,181.685061 113.224,183.39314 C113.224,183.511689 113.214083,183.625887 113.199444,183.738635 L113.174594,183.907032 L98.7575745,232.5 L85.3653333,232.5 L96.4163628,195.255071 C96.7470891,194.139784 95.9658407,193.01376 94.8486294,192.94654 L94.7429302,192.943373 L91.6622208,192.943373 L95.4154907,180.3 L110.200665,180.3 Z M159.056,180.3 L148.004338,217.544929 C147.675139,218.660216 148.45498,219.78624 149.573619,219.85346 L149.67946,219.856627 L152.760346,219.856627 L149.006861,232.5 L134.219247,232.5 C132.5505,232.5 131.197333,231.114939 131.197333,229.40686 C131.197333,229.288311 131.207251,229.174113 131.22189,229.061365 L131.246742,228.892968 L145.664586,180.3 L159.056,180.3 Z M135.364753,179.4 C137.0335,179.4 138.386667,180.785061 138.386667,182.49314 C138.386667,182.611689 138.376749,182.725887 138.36211,182.838635 L138.337258,183.007032 L123.919414,231.6 L110.528,231.6 L121.579662,194.355071 C121.908861,193.239784 121.12902,192.11376 120.010381,192.04654 L119.90454,192.043373 L116.823654,192.043373 L120.577139,179.4 L135.364753,179.4 Z M207.584,179.4 L191.682361,231.6 L177.928,231.6 L193.832912,179.4 L207.584,179.4 Z M184.218667,179.4 L173.167637,216.644929 C172.836911,217.760216 173.618159,218.88624 174.735371,218.95346 L174.84107,218.956627 L177.921779,218.956627 L174.168509,231.6 L159.383335,231.6 C157.71309,231.6 156.36,230.214939 156.36,228.50686 C156.36,228.388311 156.369917,228.274113 156.384556,228.161365 L156.409406,227.992968 L170.826426,179.4 L184.218667,179.4 Z M274.658086,179.4 C276.326833,179.4 277.68,180.785061 277.68,182.49314 C277.68,182.611689 277.670083,182.725887 277.655443,182.838635 L277.630591,183.007032 L263.212747,231.6 L249.821333,231.6 L260.872995,194.355071 C261.202195,193.239784 260.422354,192.11376 259.303714,192.04654 L259.197873,192.043373 L256.116987,192.043373 L259.870472,179.4 L274.658086,179.4 Z M347.776,179.4 L331.874361,231.6 L318.12,231.6 L334.024912,179.4 L347.776,179.4 Z M323.512,179.4 L312.460971,216.644929 C312.130244,217.760216 312.911493,218.88624 314.028704,218.95346 L314.134403,218.956627 L317.215113,218.956627 L313.461843,231.6 L298.676668,231.6 C297.006423,231.6 295.653333,230.214939 295.653333,228.50686 C295.653333,228.388311 295.66325,228.274113 295.677889,228.161365 L295.70274,227.992968 L310.119759,179.4 L323.512,179.4 Z M150.968,122.7 L135.063088,174.9 L121.312,174.9 L137.213639,122.7 L150.968,122.7 Z M170.411332,122.7 C172.081577,122.7 173.434667,124.085061 173.434667,125.79314 C173.434667,125.911689 173.42475,126.025887 173.410111,126.138635 L173.38526,126.307032 L158.968241,174.9 L145.576,174.9 L156.627029,137.655071 C156.957756,136.539784 156.176507,135.41376 155.059296,135.34654 L154.953597,135.343373 L151.872887,135.343373 L155.626157,122.7 L170.411332,122.7 Z M219.266667,122.7 L208.215005,159.944929 C207.885805,161.060216 208.665646,162.18624 209.784286,162.25346 L209.890127,162.256627 L212.971013,162.256627 L209.217528,174.9 L194.429914,174.9 C192.761167,174.9 191.408,173.514939 191.408,171.80686 C191.408,171.688311 191.417917,171.574113 191.432557,171.461365 L191.457409,171.292968 L205.875253,122.7 L219.266667,122.7 Z M194.676753,122.7 C196.3455,122.7 197.698667,124.085061 197.698667,125.79314 C197.698667,125.911689 197.688749,126.025887 197.67411,126.138635 L197.649258,126.307032 L183.231414,174.9 L169.84,174.9 L180.891662,137.655071 C181.220861,136.539784 180.44102,135.41376 179.322381,135.34654 L179.21654,135.343373 L176.135654,135.343373 L179.889139,122.7 L194.676753,122.7 Z M243.530667,122.7 L232.479637,159.944929 C232.148911,161.060216 232.930159,162.18624 234.047371,162.25346 L234.15307,162.256627 L237.233779,162.256627 L233.480509,174.9 L218.695335,174.9 C217.02509,174.9 215.672,173.514939 215.672,171.80686 C215.672,171.688311 215.681917,171.574113 215.696556,171.461365 L215.721406,171.292968 L230.138426,122.7 L243.530667,122.7 Z M267.794667,122.7 L251.893028,174.9 L238.138667,174.9 L254.043579,122.7 L267.794667,122.7 Z M317.904,21 L312.460338,39.3449292 C312.131139,40.4602156 312.91098,41.5862401 314.029619,41.6534599 L314.13546,41.6566272 L317.216346,41.6566272 L313.462861,54.3 L298.675247,54.3 C297.0065,54.3 295.653333,52.9149389 295.653333,51.20686 C295.653333,51.0883114 295.663251,50.9741132 295.67789,50.8613651 L295.702742,50.6929681 L304.512,21 L317.904,21 Z M273.093,21 L263.213574,54.3 L249.821333,54.3 L259.702,21 L273.093,21 Z M250.353,21 L240.207088,54.3 L226.456,54.3 L236.6,21 L250.353,21 Z M350,32.252 L350,54.3 L343.282667,54.3 L350,32.252 Z M343.066,21 L337.623637,39.3449292 C337.292911,40.4602156 338.074159,41.5862401 339.191371,41.6534599 L339.29707,41.6566272 L342.377779,41.6566272 L338.624509,54.3 L323.839335,54.3 C322.16909,54.3 320.816,52.9149389 320.816,51.20686 C320.816,51.0883114 320.825917,50.9741132 320.840556,50.8613651 L320.865406,50.6929681 L329.674,21 L343.066,21 Z M297.357,21 L287.476747,54.3 L274.085333,54.3 L283.966,21 L297.357,21 Z" id="Combined-Shape"></path>
        </g>
    </g>
</svg>