<?xml version="1.0" encoding="UTF-8"?>
<svg width="71px" height="42px" viewBox="0 0 71 42" version="1.1" xmlns="http://www.w3.org/2000/svg" xmlns:xlink="http://www.w3.org/1999/xlink">
    <!-- Generator: Sketch 63 (92445) - https://sketch.com -->
    <title>Shape</title>
    <desc>Created with Sketch.</desc>
    <g id="Page-1" stroke="none" stroke-width="1" fill="none" fill-rule="evenodd" opacity="0.049463">
        <g id="Artboard" transform="translate(-4.000000, -12.000000)" fill="#F3F2F6" fill-rule="nonzero">
            <path d="M19,41 L15.2458057,54 L12,54 L15.7534216,41 L19,41 Z M24.2403318,41 C24.6600114,41 25,41.3449386 25,41.7703222 C25,41.7998458 24.9975083,41.828286 24.99383,41.856365 L24.9875858,41.898303 L21.3650458,54 L18,54 L20.7767735,44.7244429 C20.8598745,44.4466896 20.6635715,44.166262 20.3828517,44.1495215 L20.3562929,44.1487327 L19.5822082,44.1487327 L20.525286,41 L24.2403318,41 Z M36,41 L33.2230677,50.2755571 C33.1403502,50.5533104 33.3362996,50.833738 33.6173781,50.8504785 L33.6439728,50.8512673 L34.4181017,50.8512673 L33.4749699,54 L29.7593112,54 C29.340008,54 29,53.6550614 29,53.2296778 C29,53.2001542 29.0024919,53.171714 29.0061704,53.143635 L29.0124149,53.101697 L32.6351622,41 L36,41 Z M48,41 L44.2465784,54 L41,54 L44.7541943,41 L48,41 Z M43,41 L40.2232265,50.2755571 C40.1401255,50.5533104 40.3364285,50.833738 40.6171483,50.8504785 L40.6437071,50.8512673 L41.4177918,50.8512673 L40.474714,54 L36.7596682,54 C36.3399886,54 36,53.6550614 36,53.2296778 C36,53.2001542 36.0024917,53.171714 36.00617,53.143635 L36.0124142,53.101697 L39.6349542,41 L43,41 Z M30.2406888,41 C30.659992,41 31,41.3449386 31,41.7703222 C31,41.7998458 30.9975081,41.828286 30.9938296,41.856365 L30.9875851,41.898303 L27.3648378,54 L24,54 L26.7769323,44.7244429 C26.8596498,44.4466896 26.6637004,44.166262 26.3826219,44.1495215 L26.3560272,44.1487327 L25.5818983,44.1487327 L26.5250301,41 L30.2406888,41 Z M46,26 L42.2458057,39 L39,39 L42.7534216,26 L46,26 Z M51.2403318,26 C51.6600114,26 52,26.3449386 52,26.7703222 C52,26.7998458 51.9975083,26.828286 51.99383,26.856365 L51.9875858,26.898303 L48.3650458,39 L45,39 L47.7767735,29.7244429 C47.8598745,29.4466896 47.6635715,29.166262 47.3828517,29.1495215 L47.3562929,29.1487327 L46.5822082,29.1487327 L47.525286,26 L51.2403318,26 Z M63,26 L60.2230677,35.2755571 C60.1403502,35.5533104 60.3362996,35.833738 60.6173781,35.8504785 L60.6439728,35.8512673 L61.4181017,35.8512673 L60.4749699,39 L56.7593112,39 C56.340008,39 56,38.6550614 56,38.2296778 C56,38.2001542 56.0024919,38.171714 56.0061704,38.143635 L56.0124149,38.101697 L59.6351622,26 L63,26 Z M11,26 L7.24580574,39 L4,39 L7.75342163,26 L11,26 Z M16.2403318,26 C16.6600114,26 17,26.3449386 17,26.7703222 C17,26.7998458 16.9975083,26.828286 16.99383,26.856365 L16.9875858,26.898303 L13.3650458,39 L10,39 L12.7767735,29.7244429 C12.8598745,29.4466896 12.6635715,29.166262 12.3828517,29.1495215 L12.3562929,29.1487327 L11.5822082,29.1487327 L12.525286,26 L16.2403318,26 Z M28,26 L25.2230677,35.2755571 C25.1403502,35.5533104 25.3362996,35.833738 25.6173781,35.8504785 L25.6439728,35.8512673 L26.4181017,35.8512673 L25.4749699,39 L21.7593112,39 C21.340008,39 21,38.6550614 21,38.2296778 C21,38.2001542 21.0024919,38.171714 21.0061704,38.143635 L21.0124149,38.101697 L24.6351622,26 L28,26 Z M22.2406888,26 C22.659992,26 23,26.3449386 23,26.7703222 C23,26.7998458 22.9975081,26.828286 22.9938296,26.856365 L22.9875851,26.898303 L19.3648378,39 L16,39 L18.7769323,29.7244429 C18.8596498,29.4466896 18.6637004,29.166262 18.3826219,29.1495215 L18.3560272,29.1487327 L17.5818983,29.1487327 L18.5250301,26 L22.2406888,26 Z M40,26 L36.2465784,39 L33,39 L36.7541943,26 L40,26 Z M34,26 L31.2232265,35.2755571 C31.1401255,35.5533104 31.3364285,35.833738 31.6171483,35.8504785 L31.6437071,35.8512673 L32.4177918,35.8512673 L31.474714,39 L27.7596682,39 C27.3399886,39 27,38.6550614 27,38.2296778 C27,38.2001542 27.0024917,38.171714 27.00617,38.143635 L27.0124142,38.101697 L30.6349542,26 L34,26 Z M57.2406888,26 C57.659992,26 58,26.3449386 58,26.7703222 C58,26.7998458 57.9975081,26.828286 57.9938296,26.856365 L57.9875851,26.898303 L54.3648378,39 L51,39 L53.7769323,29.7244429 C53.8596498,29.4466896 53.6637004,29.166262 53.3826219,29.1495215 L53.3560272,29.1487327 L52.5818983,29.1487327 L53.5250301,26 L57.2406888,26 Z M75,26 L71.2465784,39 L68,39 L71.7541943,26 L75,26 Z M69,26 L66.2232265,35.2755571 C66.1401255,35.5533104 66.3364285,35.833738 66.6171483,35.8504785 L66.6437071,35.8512673 L67.4177918,35.8512673 L66.474714,39 L62.7596682,39 C62.3399886,39 62,38.6550614 62,38.2296778 C62,38.2001542 62.0024917,38.171714 62.00617,38.143635 L62.0124142,38.101697 L65.6349542,26 L69,26 Z M26,12 L22.2458057,25 L19,25 L22.7534216,12 L26,12 Z M31.2403318,12 C31.6600114,12 32,12.3449386 32,12.7703222 C32,12.7998458 31.9975083,12.828286 31.99383,12.856365 L31.9875858,12.898303 L28.3650458,25 L25,25 L27.7767735,15.7244429 C27.8598745,15.4466896 27.6635715,15.166262 27.3828517,15.1495215 L27.3562929,15.1487327 L26.5822082,15.1487327 L27.525286,12 L31.2403318,12 Z M43,12 L40.2230677,21.2755571 C40.1403502,21.5533104 40.3362996,21.833738 40.6173781,21.8504785 L40.6439728,21.8512673 L41.4181017,21.8512673 L40.4749699,25 L36.7593112,25 C36.340008,25 36,24.6550614 36,24.2296778 C36,24.2001542 36.0024919,24.171714 36.0061704,24.143635 L36.0124149,24.101697 L39.6351622,12 L43,12 Z M37.2406888,12 C37.659992,12 38,12.3449386 38,12.7703222 C38,12.7998458 37.9975081,12.828286 37.9938296,12.856365 L37.9875851,12.898303 L34.3648378,25 L31,25 L33.7769323,15.7244429 C33.8596498,15.4466896 33.6637004,15.166262 33.3826219,15.1495215 L33.3560272,15.1487327 L32.5818983,15.1487327 L33.5250301,12 L37.2406888,12 Z M49,12 L46.2232265,21.2755571 C46.1401255,21.5533104 46.3364285,21.833738 46.6171483,21.8504785 L46.6437071,21.8512673 L47.4177918,21.8512673 L46.474714,25 L42.7596682,25 C42.3399886,25 42,24.6550614 42,24.2296778 C42,24.2001542 42.0024917,24.171714 42.00617,24.143635 L42.0124142,24.101697 L45.6349542,12 L49,12 Z M55,12 L51.2465784,25 L48,25 L51.7541943,12 L55,12 Z" id="Shape"></path>
        </g>
    </g>
</svg>