<?xml version="1.0" encoding="UTF-8"?>
<svg width="661px" height="466px" viewBox="0 0 661 466" version="1.1" xmlns="http://www.w3.org/2000/svg" xmlns:xlink="http://www.w3.org/1999/xlink">
    <title>V1</title>
    <defs>
        <linearGradient x1="149.345602%" y1="-7.25562284%" x2="149.345602%" y2="110.572556%" id="linearGradient-1">
            <stop stop-color="#2F276E" offset="0%"></stop>
            <stop stop-color="#2F276E" stop-opacity="0" offset="100%"></stop>
        </linearGradient>
        <linearGradient x1="149.345602%" y1="-7.25562284%" x2="149.345602%" y2="110.572556%" id="linearGradient-2">
            <stop stop-color="#2F276E" offset="0%"></stop>
            <stop stop-color="#2F276E" stop-opacity="0" offset="100%"></stop>
        </linearGradient>
        <linearGradient x1="149.345602%" y1="-7.25562284%" x2="149.345602%" y2="110.572556%" id="linearGradient-3">
            <stop stop-color="#2F276E" offset="0%"></stop>
            <stop stop-color="#2F276E" stop-opacity="0" offset="100%"></stop>
        </linearGradient>
        <rect id="path-4" x="0" y="0" width="381" height="93" rx="12.168"></rect>
        <filter x="-27.7%" y="-83.3%" width="155.4%" height="326.9%" filterUnits="objectBoundingBox" id="filter-5">
            <feOffset dx="0" dy="28" in="SourceAlpha" result="shadowOffsetOuter1"></feOffset>
            <feGaussianBlur stdDeviation="30.5" in="shadowOffsetOuter1" result="shadowBlurOuter1"></feGaussianBlur>
            <feColorMatrix values="0 0 0 0 0.184313725   0 0 0 0 0.152941176   0 0 0 0 0.431372549  0 0 0 0.228037587 0" type="matrix" in="shadowBlurOuter1"></feColorMatrix>
        </filter>
        <rect id="path-6" x="0" y="0" width="381" height="94" rx="12.168"></rect>
        <filter x="-27.7%" y="-82.4%" width="155.4%" height="324.5%" filterUnits="objectBoundingBox" id="filter-7">
            <feOffset dx="0" dy="28" in="SourceAlpha" result="shadowOffsetOuter1"></feOffset>
            <feGaussianBlur stdDeviation="30.5" in="shadowOffsetOuter1" result="shadowBlurOuter1"></feGaussianBlur>
            <feColorMatrix values="0 0 0 0 0.184313725   0 0 0 0 0.152941176   0 0 0 0 0.431372549  0 0 0 0.228037587 0" type="matrix" in="shadowBlurOuter1"></feColorMatrix>
        </filter>
        <rect id="path-8" x="0" y="0" width="381" height="93" rx="12.168"></rect>
        <filter x="-27.7%" y="-83.3%" width="155.4%" height="326.9%" filterUnits="objectBoundingBox" id="filter-9">
            <feOffset dx="0" dy="28" in="SourceAlpha" result="shadowOffsetOuter1"></feOffset>
            <feGaussianBlur stdDeviation="30.5" in="shadowOffsetOuter1" result="shadowBlurOuter1"></feGaussianBlur>
            <feColorMatrix values="0 0 0 0 0.184313725   0 0 0 0 0.152941176   0 0 0 0 0.431372549  0 0 0 0.228037587 0" type="matrix" in="shadowBlurOuter1"></feColorMatrix>
        </filter>
    </defs>
    <g id="Symbols" stroke="none" stroke-width="1" fill="none" fill-rule="evenodd">
        <g id="V1" transform="translate(0.000000, -1495.000000)">
            <g id="Group-29" transform="translate(-161.000000, 1493.000000)">
                <g id="Group-58" opacity="0.411156064" fill-rule="nonzero">
                    <polygon id="Fill-4" fill="url(#linearGradient-1)" opacity="0.2" points="146.524945 473 0 473 169.440177 2 316 2"></polygon>
                    <path d="M522.659839,2 L364.505033,2 L324.356865,116.081008 L357.310755,116.081008 C369.858124,116.081008 378.859497,126.56174 375.211213,136.939432 L257,473 L400.254805,473 L525.796681,116.081008 L552.033638,41.4941089 L554.471509,34.5462074 C554.761326,33.0300341 555,31.5138607 555,29.9093665 C555,14.4973904 540.526201,2 522.659839,2" id="Fill-8" fill="url(#linearGradient-2)" opacity="0.2"></path>
                    <path d="M634.051262,0 L594.439729,113.354377 L626.953144,113.354377 C639.34962,113.354377 648.213857,123.768353 644.631157,134.079945 L528,468 L669.323188,468 L793.187024,113.354377 L819.073289,39.242554 L821.478574,32.3389068 C821.764518,30.8323905 822,29.3258743 822,27.7315998 C822,12.4177891 807.719665,0 790.108931,0 L634.051262,0 Z" id="Fill-12" fill="url(#linearGradient-3)" opacity="0.2"></path>
                </g>
                <g id="Group-55" transform="translate(322.000000, 46.000000)">
                    <g id="Rectangle-Copy-16">
                        <use fill="black" fill-opacity="1" filter="url(#filter-5)" xlink:href="#path-4"></use>
                        <use fill="#FFFFFF" fill-rule="evenodd" xlink:href="#path-4"></use>
                    </g>
                </g>
                <g id="Group-55-Copy" transform="translate(322.000000, 152.000000)">
                    <g id="Rectangle-Copy-16">
                        <use fill="black" fill-opacity="1" filter="url(#filter-7)" xlink:href="#path-6"></use>
                        <use fill="#FFFFFF" fill-rule="evenodd" xlink:href="#path-6"></use>
                    </g>
                </g>
                <g id="Group-55-Copy-2" transform="translate(322.000000, 259.000000)">
                    <g id="Rectangle-Copy-16">
                        <use fill="black" fill-opacity="1" filter="url(#filter-9)" xlink:href="#path-8"></use>
                        <use fill="#FFFFFF" fill-rule="evenodd" xlink:href="#path-8"></use>
                    </g>
                </g>
                <g id="noun_clipboard_1617580-copy" opacity="0.5" transform="translate(348.000000, 293.000000)" stroke="#3D397B" stroke-linecap="round" stroke-linejoin="round" stroke-width="1.65">
                    <g id="Group-30">
                        <rect id="Rectangle" x="9.16226159e-14" y="1.75837321" width="24.4832536" height="22.6076555" rx="4.02818182"></rect>
                        <path d="M18.940245,-2.15967595e-14 L18.940245,3.3492823 C18.9446514,4.04726223 18.670501,4.71818663 18.1785189,5.21331237 C17.6865368,5.70843812 17.0173722,5.98684211 16.319378,5.98684211 L8.12200957,5.98684211 C7.42401538,5.98684211 6.75485076,5.70843812 6.26286867,5.21331237 C5.77088658,4.71818663 5.49673615,4.04726223 5.50114259,3.3492823 L5.50114259,-2.15967595e-14" id="Path"></path>
                        <line x1="6.22966507" y1="11.8229665" x2="15.9425837" y2="11.8229665" id="Path"></line>
                        <line x1="6.22966507" y1="17.6674641" x2="10.0897129" y2="17.6674641" id="Path"></line>
                    </g>
                </g>
                <text id="You-have-a-trade-off" font-family="Roboto-Bold, Roboto" font-size="17" font-weight="bold" line-spacing="16" fill="#606380">
                    <tspan x="384" y="99">You have a trade offer!</tspan>
                </text>
                <text id="Your-draft-begins-in" font-family="Roboto-Bold, Roboto" font-size="17" font-weight="bold" line-spacing="16" fill="#606380">
                    <tspan x="384" y="312">Your draft begins in 24 hours</tspan>
                </text>
                <text id="Time-to-select-your" font-family="Roboto-Bold, Roboto" font-size="17" font-weight="bold" line-spacing="16" fill="#606380">
                    <tspan x="384" y="205">Time to select your starting 11</tspan>
                </text>
                <g id="noun_Time_2181849-Copy" opacity="0.5" transform="translate(348.000000, 187.000000)" fill="#3D397B" fill-rule="nonzero">
                    <path d="M24.1213636,10.2454261 C24.0290625,9.69161932 23.4752557,9.29164773 22.9214489,9.38394886 C22.367642,9.47625 21.9676705,10.0300568 22.0599716,10.5838636 C22.1522727,11.1376705 22.2138068,11.7222443 22.2138068,12.3068182 C22.2138068,17.7833523 17.7833523,22.2138068 12.3068182,22.2138068 C6.83028409,22.2138068 2.39982955,17.7833523 2.39982955,12.3068182 C2.39982955,6.83028409 6.83028409,2.39982955 12.3068182,2.39982955 C13.7221023,2.39982955 15.1373864,2.7075 16.4296023,3.29207386 L15.9373295,3.99971591 C15.6296591,4.3996875 15.8757955,4.98426136 16.3988352,5.04579545 L20.5523864,5.63036932 C21.0754261,5.69190341 21.4753977,5.16886364 21.2292614,4.67659091 L19.3832386,0.892244318 C19.1678693,0.430738636 18.5525284,0.399971591 18.244858,0.799943182 L17.6602841,1.59988636 C16.0296307,0.738409091 14.183608,0.307670455 12.3068182,0.307670455 C9.10704545,0.307670455 6.091875,1.56911932 3.81511364,3.81511364 C1.56911932,6.091875 0.307670455,9.10704545 0.307670455,12.3068182 C0.307670455,15.5065909 1.56911932,18.5217614 3.81511364,20.7985227 C6.091875,23.044517 9.10704545,24.3059659 12.3068182,24.3059659 C15.5065909,24.3059659 18.5217614,23.044517 20.7985227,20.7985227 C23.044517,18.5217614 24.3059659,15.5065909 24.3059659,12.3068182 C24.3059659,11.5991761 24.2444318,10.9223011 24.1213636,10.2454261 Z" id="Path"></path>
                    <path d="M12.3375852,6.06110795 C12.3375852,6.06110795 12.3375852,6.06110795 12.3375852,6.06110795 C11.7530114,6.06110795 11.2915057,6.52261364 11.2915057,7.1071875 L11.2607386,12.7683239 C11.2607386,12.7683239 11.2607386,12.7683239 11.2607386,12.7990909 C11.2607386,12.7990909 11.2607386,12.829858 11.2607386,12.829858 C11.2607386,12.829858 11.2607386,12.860625 11.2607386,12.860625 C11.2607386,12.860625 11.2607386,12.891392 11.2607386,12.891392 C11.2607386,12.891392 11.2607386,12.9221591 11.2607386,12.9221591 C11.2607386,12.9221591 11.2607386,12.9221591 11.2607386,12.9529261 C11.2607386,12.9529261 11.2607386,12.9836932 11.2607386,12.9836932 C11.2607386,12.9836932 11.2607386,12.9836932 11.2607386,13.0144602 C11.2607386,13.0144602 11.2607386,13.0452273 11.2607386,13.0452273 C11.2607386,13.0452273 11.2607386,13.0452273 11.2607386,13.0759943 C11.2607386,13.0759943 11.2607386,13.1067614 11.2607386,13.1067614 C11.2607386,13.1067614 11.2607386,13.1067614 11.2607386,13.1375284 C11.2607386,13.1375284 11.2607386,13.1682955 11.2607386,13.1682955 C11.2607386,13.1682955 11.2607386,13.1682955 11.2607386,13.1990625 C11.2607386,13.1990625 11.2607386,13.2298295 11.2607386,13.2298295 C11.2607386,13.2298295 11.2607386,13.2298295 11.2607386,13.2605966 C11.2607386,13.2605966 11.2607386,13.2913636 11.2607386,13.2913636 C11.2607386,13.2913636 11.2607386,13.3221307 11.2607386,13.3221307 C11.2607386,13.3221307 11.2607386,13.3221307 11.2607386,13.3528977 C11.2607386,13.3528977 11.2607386,13.3836648 11.2607386,13.3836648 C11.2607386,13.3836648 11.2607386,13.3836648 11.2607386,13.4144318 C11.2607386,13.4144318 11.2607386,13.4451989 11.2915057,13.4451989 C11.2915057,13.4451989 11.2915057,13.4451989 11.2915057,13.4451989 C11.2915057,13.4451989 11.2915057,13.4759659 11.3222727,13.4759659 C11.3222727,13.4759659 11.3222727,13.4759659 11.3222727,13.4759659 C11.3222727,13.4759659 11.3222727,13.506733 11.3530398,13.506733 C11.3530398,13.506733 11.3530398,13.506733 11.3530398,13.506733 C11.3530398,13.506733 11.3530398,13.5375 11.3838068,13.5375 C11.3838068,13.5375 11.3838068,13.5375 11.3838068,13.5375 C11.3838068,13.5375 11.3838068,13.568267 11.4145739,13.568267 C11.4145739,13.568267 11.4145739,13.568267 11.4453409,13.5990341 C11.4453409,13.5990341 11.4453409,13.5990341 11.476108,13.6298011 C11.476108,13.6298011 11.476108,13.6298011 11.506875,13.6605682 C11.506875,13.6605682 11.506875,13.6605682 11.506875,13.6605682 L16.5219034,18.306392 C16.7372727,18.4909943 16.9834091,18.5832955 17.2295455,18.5832955 C17.5064489,18.5832955 17.7833523,18.4602273 17.9987216,18.244858 C18.3986932,17.8141193 18.3679261,17.1680114 17.9371875,16.7680398 L13.3528977,12.3068182 L13.3836648,7.1071875 C13.3836648,6.55338068 12.9221591,6.06110795 12.3375852,6.06110795 Z" id="Path"></path>
                </g>
                <circle id="Oval" fill="#55C97B" cx="680" cy="68" r="5"></circle>
                <g id="noun_Trade_2583464-(1)" transform="translate(348.000000, 79.000000)">
                    <rect id="Rectangle" x="0" y="0.543478261" width="25" height="25"></rect>
                    <path d="M20.1134843,17.5444036 L18.2921087,15.7279685 L18.2611302,15.6955038 C18.235712,15.6654147 18.2285631,15.6582883 18.2055278,15.6266155 C17.9013033,15.1990327 18.1618402,14.4816438 18.7202471,14.3874172 C18.9688693,14.3454507 19.2294062,14.4325509 19.4152771,14.608335 L22.5933512,17.775615 C22.7482436,17.93873 22.8308529,18.1525214 22.8244983,18.3805655 C22.8086119,18.5737696 22.7275913,18.7543046 22.5933512,18.8960404 L19.4152771,22.0641123 C19.3866816,22.0910342 19.380327,22.0981605 19.3493485,22.1234988 C19.0038194,22.3974685 18.4223772,22.3087847 18.1809039,21.9255438 C17.9910614,21.6246522 18.0426922,21.2065712 18.2921087,20.9436869 L20.1134843,19.1280436 L2.96411665,19.1280436 C2.66624667,19.0947872 2.37949716,18.9514678 2.24843437,18.6798735 C2.09274766,18.3568109 2.18806606,17.9395218 2.468461,17.7170204 C2.60746699,17.6061656 2.78460034,17.5641991 2.96411665,17.5444036 L20.1134843,17.5444036 Z M4.88239932,8.04018788 L22.031767,8.04018788 C22.3288427,8.07344432 22.6163865,8.21676375 22.7474493,8.48835802 C22.8165551,8.63246926 22.8086119,8.67681118 22.826087,8.8320079 C22.8197324,8.89060259 22.8125835,8.94998909 22.806229,9.00858377 C22.766513,9.12023039 22.726797,9.23425248 22.6529252,9.3261036 C22.5409261,9.46625574 22.3812678,9.56523324 22.208106,9.60403243 C22.150915,9.61749337 22.0905467,9.61749337 22.031767,9.62382793 L4.88239932,9.62382793 L6.70377496,11.4402631 C6.70377496,11.4402631 6.94365959,11.748281 6.93492207,12.0444217 C6.93174479,12.0840127 6.93174479,12.0935146 6.92539023,12.1331056 C6.85072415,12.5701902 6.35506851,12.8853346 5.92216413,12.7610188 C5.83637758,12.7364724 5.75456263,12.6976732 5.68227951,12.6462049 C5.64574079,12.6200749 5.61237935,12.5907775 5.57981224,12.5598966 L2.40253244,9.39261648 C2.37473125,9.36331914 2.36758237,9.35698458 2.34295845,9.3261036 C2.12134318,9.04896659 2.11657726,8.62059196 2.34295845,8.33870403 C2.36758237,8.30782305 2.37473125,8.30069667 2.40253244,8.27219115 L5.57981224,5.10411924 C5.60920207,5.07719736 5.61555663,5.07007098 5.64653511,5.04473274 C6.06673037,4.71137651 6.8245116,4.94258796 6.92539023,5.53170206 C6.96748919,5.77954172 6.87931967,6.03846687 6.70377496,6.22454457 L4.88239932,8.04018788 L4.88239932,8.04018788 Z" id="Shape" fill="#9E9CBD"></path>
                </g>
            </g>
        </g>
    </g>
</svg>