<?xml version="1.0" encoding="UTF-8"?>
<svg width="315px" height="245px" viewBox="0 0 315 245" version="1.1" xmlns="http://www.w3.org/2000/svg" xmlns:xlink="http://www.w3.org/1999/xlink">
    <title>Group 7</title>
    <defs>
        <linearGradient x1="-37.0701457%" y1="-247.938868%" x2="27.2949937%" y2="-73.5709379%" id="linearGradient-1">
            <stop stop-color="#23F2E3" offset="0%"></stop>
            <stop stop-color="#FB295E" offset="100%"></stop>
        </linearGradient>
        <linearGradient x1="-26.5264956%" y1="-247.938868%" x2="30.044428%" y2="-73.5709379%" id="linearGradient-2">
            <stop stop-color="#23F2E3" offset="0%"></stop>
            <stop stop-color="#FB295E" offset="100%"></stop>
        </linearGradient>
        <linearGradient x1="-141.742175%" y1="-247.938868%" x2="0%" y2="-73.5709379%" id="linearGradient-3">
            <stop stop-color="#23F2E3" offset="0%"></stop>
            <stop stop-color="#FB295E" offset="100%"></stop>
        </linearGradient>
        <linearGradient x1="-26.288425%" y1="-247.938868%" x2="30.1065089%" y2="-73.5709379%" id="linearGradient-4">
            <stop stop-color="#23F2E3" offset="0%"></stop>
            <stop stop-color="#FB295E" offset="100%"></stop>
        </linearGradient>
    </defs>
    <g id="Page-1" stroke="none" stroke-width="1" fill="none" fill-rule="evenodd">
        <g id="Concept-1-(CTA)" transform="translate(-281.000000, -258.000000)">
            <g id="Group-7" transform="translate(281.000000, 258.000000)">
                <g id="Group-3" transform="translate(80.000000, 0.000000)" fill-rule="nonzero">
                    <g id="Group-2">
                        <polygon id="Fill-4" fill="url(#linearGradient-1)" points="47.5450545 104.662358 30.5667567 104.662358 50.2003131 50.3255836 67.1826524 50.3255836"></polygon>
                        <path d="M90.9192263,50.3255836 L72.7009591,50.3255836 L68.0761862,63.486505 L71.8722312,63.486505 C73.3175956,63.486505 74.3544874,64.6956115 73.934232,65.8928308 L60.3171721,104.662358 L76.8190691,104.662358 L91.2805674,63.486505 L94.3028713,54.8818097 L94.5836961,54.0802671 C94.6170809,53.9053542 94.6445744,53.7304413 94.6445744,53.5453394 C94.6445744,51.7673413 92.9772995,50.3255836 90.9192263,50.3255836" id="Fill-8" fill="url(#linearGradient-2)"></path>
                        <path d="M77,0 C34.4740743,0 0,34.4740743 0,77 C0,119.525926 34.4740743,154 77,154 C119.525926,154 154,119.525926 154,77 C154,34.4740743 119.525926,0 77,0 Z M77,9.76056338 C114.135315,9.76056338 144.239437,39.8646846 144.239437,77 C144.239437,114.135315 114.135315,144.239437 77,144.239437 C39.8646846,144.239437 9.76056338,114.135315 9.76056338,77 C9.76056338,39.8646846 39.8646846,9.76056338 77,9.76056338 Z" id="Oval" fill="url(#linearGradient-3)"></path>
                    </g>
                    <path d="M103.878795,49.9459459 L99.2803906,63.051482 L103.054792,63.051482 C104.493868,63.051482 105.522896,64.2555003 105.106989,65.4476814 L91.5675676,104.054054 L107.973425,104.054054 L122.352471,63.051482 L125.357543,54.482998 L125.636766,53.6848286 C125.669961,53.5106518 125.697297,53.336475 125.697297,53.1521519 C125.697297,51.3816363 124.039529,49.9459459 121.995142,49.9459459 L103.878795,49.9459459 Z" id="Fill-12" fill="url(#linearGradient-4)"></path>
                </g>
                <g id="Group-3-Copy" transform="translate(0.000000, 183.000000)" fill="#FFFFFF">
                    <polyline id="Fill-1" points="55.074442 2.51351351 29.6145705 32.8499893 22.4232421 2.74134105 22.3685281 2.51351351 13.6725636 2.51351351 0 47.7567568 9.94368259 47.7567568 16.9673005 24.5124459 22.02716 47.0473042 22.0794952 47.2774926 28.5928452 47.2774926 47.2741226 24.6706267 40.2980821 47.7567568 50.1216317 47.7567568 63.7941953 2.51351351 55.074442 2.51351351"></polyline>
                    <path d="M82.8736141,31.3334175 C81.4044599,36.3880227 77.6566875,39.6524061 73.3246834,39.6524061 C71.4302176,39.6524061 69.9782131,39.0261823 69.1230167,37.8409564 C68.082604,36.399816 67.9499799,34.2086223 68.7365777,31.5044203 C70.2160217,26.4144352 73.9706539,23.1264653 78.3015148,23.1264653 C80.1925506,23.1264653 81.6422685,23.7503304 82.494035,24.9320184 C83.5390209,26.3790553 83.6693584,28.5926564 82.8736141,31.3334175 Z M80.4692318,15.0810811 C70.9831831,15.0810811 62.4129263,21.76434 59.6323948,31.3334175 C58.2398424,36.120315 58.6502909,40.2397121 60.8202946,43.2470017 C62.9182697,46.1552276 66.5837237,47.7567568 71.1398167,47.7567568 C80.6270087,47.7567568 89.1949788,41.0734979 91.977797,31.5044203 C93.3737794,26.7021916 92.9679041,22.5804358 90.8047603,19.5825808 C88.7113584,16.6802516 85.0413312,15.0810811 80.4692318,15.0810811 L80.4692318,15.0810811 Z" id="Fill-2"></path>
                    <path d="M120.155936,31.3334175 C118.686782,36.3880227 114.939009,39.6524061 110.607005,39.6524061 C108.713683,39.6524061 107.260535,39.0261823 106.406482,37.8421357 C105.366069,36.4009954 105.232302,34.2098016 106.0189,31.5044203 C107.498344,26.4144352 111.252976,23.1264653 115.583837,23.1264653 C117.474873,23.1264653 118.92459,23.7503304 119.776357,24.9320184 C120.821343,26.3790553 120.95168,28.5926564 120.155936,31.3334175 Z M128.087082,19.5825808 C125.99368,16.6802516 122.32251,15.0810811 117.75041,15.0810811 C108.264362,15.0810811 99.6952482,21.76434 96.9147167,31.3334175 C95.5221643,36.120315 95.9326128,40.2397121 98.1026165,43.2470017 C100.200592,46.1552276 103.866046,47.7567568 108.423282,47.7567568 C117.909331,47.7567568 126.477301,41.0734979 129.260119,31.5044203 C130.656101,26.7033709 130.250226,22.5804358 128.087082,19.5825808 L128.087082,19.5825808 Z" id="Fill-3"></path>
                    <path d="M155.173181,15.0810811 C151.888561,15.0810811 148.950046,16.182265 146.776781,18.2053142 L147.48135,15.6900418 L139.053487,15.6900418 L130.073879,47.7567568 L138.955723,47.7567568 L143.907936,30.0752339 C144.931641,26.4178593 147.728568,23.9603539 150.865981,23.9603539 C152.23916,23.9603539 153.226906,24.3839787 153.807867,25.2191936 C154.505694,26.2253025 154.577612,27.8235235 154.012383,29.8405554 L148.996118,47.7567568 L157.87684,47.7567568 L163.323487,28.3097293 C164.485408,24.1601315 164.23482,20.7229936 162.598691,18.3689875 C161.105273,16.2171659 158.537584,15.0810811 155.173181,15.0810811" id="Fill-4"></path>
                    <polyline id="Fill-5" points="207.174463 15.9189189 198.010554 47.7567568 207.074705 47.7567568 216.237467 15.9189189 207.174463 15.9189189"></polyline>
                    <path d="M228.956767,38.8399986 C227.039968,38.8399986 225.568161,38.2276117 224.697213,37.0699649 C223.612097,35.626145 223.481217,33.4050648 224.31766,30.6434355 C225.858477,25.5606242 229.718252,22.2772883 234.15271,22.2772883 C236.092117,22.2772883 237.571063,22.8802538 238.430113,24.0237686 C239.424802,25.3474664 239.561631,27.3306579 238.826323,29.7590075 L238.393228,31.1886953 C236.984482,35.8369474 233.279383,38.8399986 228.956767,38.8399986 Z M243.827135,14.8391428 L242.995451,17.5854625 C241.643816,15.4797937 238.71091,14.2432432 234.964168,14.2432432 C225.871565,14.2432432 217.784359,20.7651637 214.843125,30.4726737 C213.315396,35.516622 213.700898,39.92463 215.928241,42.8876404 C217.889064,45.4949954 221.113475,46.8728659 225.255238,46.8728659 C228.560557,46.8728659 231.940835,45.8388742 234.48824,44.0759065 L233.413832,47.6253952 C232.179989,51.6930574 228.899656,54.026016 224.414035,54.026016 C222.281878,54.026016 220.700608,53.4995988 219.842748,52.5044701 C219.206194,51.7660728 218.981318,50.7886091 219.172879,49.6026983 L219.229991,49.2505758 L209.804238,49.5673683 L209.769733,49.8135007 C209.268819,53.3877204 209.943447,56.2588728 211.778149,58.3433436 C213.912686,60.7705155 217.511891,62 222.477009,62 C232.151434,62 240.168439,56.1670148 242.903835,47.1401964 L252.691293,14.8391428 L243.827135,14.8391428 L243.827135,14.8391428 Z" id="Fill-6"></path>
                    <path d="M276.132465,15.1720383 C272.374932,15.1720383 269.793875,16.6577987 268.307267,17.8747301 L273.326675,0 L264.445233,0 L251.034301,47.7567568 L259.916866,47.7567568 L264.868855,30.1232527 C265.891389,26.477259 268.687066,24.0265944 271.82546,24.0265944 C273.198578,24.0265944 274.188526,24.44904 274.768336,25.2819299 C275.466132,26.2852383 275.538046,27.8790104 274.972843,29.8904276 L269.955683,47.7567568 L278.837125,47.7567568 L284.283525,28.3638627 C285.445394,24.2258159 285.19594,20.7994459 283.559885,18.4507923 C282.066536,16.3049606 279.496715,15.1720383 276.132465,15.1720383" id="Fill-7"></path>
                    <path d="M304.206556,23.0769474 L311.547474,23.0769474 L314,14.7132207 L306.72215,14.7132207 L309.869618,4.18918919 L300.461723,4.18918919 L297.315445,14.7132207 L291.597645,14.7132207 L289.145119,23.0769474 L294.799851,23.0769474 L290.758717,36.6546155 C289.722254,40.0977154 289.895989,42.8130056 291.278733,44.7274617 C292.709076,46.7088568 295.453144,47.7567568 299.215826,47.7567568 C301.580294,47.7567568 302.87974,47.5754129 304.135157,47.4001543 L304.42789,47.3575568 L306.967284,38.6980813 L306.237833,38.8295252 C305.58097,38.9487984 304.836049,39.0851106 303.747228,39.0851106 C302.823812,39.0851106 301.585054,38.8952471 300.924621,37.9885277 C300.380805,37.2412447 300.320117,36.1276228 300.746126,34.6793058 L304.206556,23.0769474" id="Fill-8"></path>
                    <path d="M219.481408,9.7306315 L221.169294,3.93720681 C221.284259,3.54168256 221.140553,3.11666159 220.810031,2.8806878 L217.027962,0.172352258 C216.749696,-0.0274210073 216.387819,-0.0555769708 216.083425,0.0986104486 L210.160144,3.09118714 C209.927602,3.20917404 209.753849,3.42101415 209.679384,3.67575858 L207.991497,9.4678425 C207.876532,9.86202599 208.021544,10.2897285 208.350761,10.5243615 L212.134136,13.2340378 C212.412402,13.4324703 212.772972,13.4606263 213.077366,13.3077796 L219.001954,10.3125214 C219.234495,10.1958753 219.406942,9.98403517 219.481408,9.7306315" id="Fill-9"></path>
                    <path d="M194.446932,0 L191.310195,0 L188.740297,7.67722898 L190.998376,7.67722898 C191.609263,7.67722898 192.047433,8.28569469 191.871238,8.89176013 L180.612137,47.7567568 L189.775443,47.7567568 L202.903139,2.44106359 C203.255529,1.22413218 202.375713,0 201.148143,0 L194.446932,0" id="Fill-10"></path>
                    <path d="M179.534237,0 L176.397448,0 L173.827505,7.67722898 L176.085623,7.67722898 C176.696521,7.67722898 177.133538,8.28569469 176.958499,8.89176013 L165.699208,47.7567568 L174.862669,47.7567568 L187.990587,2.44106359 C188.341824,1.22413218 187.463152,0 186.235562,0 L179.534237,0" id="Fill-11"></path>
                </g>
            </g>
        </g>
    </g>
</svg>