<?xml version="1.0" encoding="UTF-8"?>
<svg width="6px" height="9px" viewBox="0 0 6 9" version="1.1" xmlns="http://www.w3.org/2000/svg" xmlns:xlink="http://www.w3.org/1999/xlink">
    <title>Path Copy</title>
    <g id="Page-1" stroke="none" stroke-width="1" fill="none" fill-rule="evenodd">
        <g id="Trades---Overview---Trades-Received-(You)" transform="translate(-710.000000, -795.000000)" fill="#FFFFFF" fill-rule="nonzero">
            <g id="Group-8" transform="translate(706.000000, 792.000000)">
                <path d="M7.515,6.735 L6.9,6.735 C6.42,6.735 6.045,6.315 6.09,5.835 C6.135,5.415 6.525,5.1 6.945,5.1 L7.665,5.1 C7.935,5.1 8.16,5.295 8.22,5.55 C8.235,5.625 8.295,5.67 8.37,5.67 L9.195,5.67 C9.285,5.67 9.36,5.595 9.36,5.505 C9.27,4.68 8.61,4.035 7.77,3.975 L7.77,3.165 C7.77,3.075 7.695,3 7.605,3 L6.795,3 C6.705,3 6.63,3.075 6.63,3.165 L6.63,3.99 C5.61,4.125 4.845,5.04 4.95,6.12 C5.055,7.14 5.955,7.875 6.975,7.875 L7.5,7.875 C7.98,7.875 8.355,8.295 8.31,8.775 C8.265,9.195 7.875,9.51 7.455,9.51 L6.735,9.51 C6.465,9.51 6.24,9.315 6.18,9.06 C6.165,8.985 6.105,8.94 6.03,8.94 L5.205,8.94 C5.115,8.94 5.025,9.015 5.04,9.105 C5.13,9.93 5.79,10.575 6.63,10.635 L6.63,11.445 C6.63,11.535 6.705,11.61 6.795,11.61 L7.605,11.61 C7.695,11.61 7.77,11.535 7.77,11.445 L7.77,10.605 C8.64,10.455 9.36,9.78 9.45,8.88 C9.57,7.725 8.655,6.735 7.515,6.735 Z" id="Path-Copy"></path>
            </g>
        </g>
    </g>
</svg>