<?xml version="1.0" encoding="UTF-8"?>
<svg width="33px" height="36px" viewBox="0 0 33 36" version="1.1" xmlns="http://www.w3.org/2000/svg" xmlns:xlink="http://www.w3.org/1999/xlink">
    <title>noun_person_2915265 copy</title>
    <g id="Page-1" stroke="none" stroke-width="1" fill="none" fill-rule="evenodd">
        <g id="Trades---Overview---Trades-Pending-(All)" transform="translate(-388.000000, -325.000000)" fill="#CFD0DC" fill-rule="nonzero">
            <g id="Rectangle-2" transform="translate(119.000000, 246.000000)">
                <g id="Group-5" transform="translate(14.000000, 72.488281)">
                    <g id="noun_person_2915265-copy" transform="translate(255.000000, 7.075484)">
                        <circle id="Oval" cx="16.5" cy="13.9362348" r="7.5"></circle>
                        <path d="M16.5004042,0.436234818 C7.4017785,0.436234818 0,7.83841752 0,16.9362348 C0,26.0340521 7.4021827,33.4362348 16.5004042,33.4362348 C25.5986257,33.4362348 33,26.0340521 33,16.9362348 C33,7.83841752 25.5986257,0.436234818 16.5004042,0.436234818 Z M16.5004042,23.5190966 C11.6572352,23.5190966 7.54931285,25.0368815 6.09175424,27.1427829 C3.50889248,24.5097999 1.912692,20.9067279 1.912692,16.9362348 C1.912692,8.89298502 8.456346,2.34852261 16.5004042,2.34852261 C24.543654,2.34852261 31.0877122,8.89258082 31.0877122,16.9362348 C31.0877122,20.9067279 29.4911075,24.5097999 26.90865,27.1431871 C25.4506871,25.0372857 21.343169,23.5190966 16.5004042,23.5190966 Z" id="Shape"></path>
                    </g>
                </g>
            </g>
        </g>
    </g>
</svg>