<?xml version="1.0" encoding="UTF-8"?>
<svg width="92px" height="36px" viewBox="0 0 92 36" version="1.1" xmlns="http://www.w3.org/2000/svg" xmlns:xlink="http://www.w3.org/1999/xlink">
    <title>Shape</title>
    <g id="Page-1" stroke="none" stroke-width="1" fill="none" fill-rule="evenodd" opacity="0.189811195">
        <g id="Trades---Overview---View-Opponents-Team" transform="translate(-1274.000000, -864.000000)" fill="#F3F2F6" fill-rule="nonzero">
            <g id="Group-8" transform="translate(1031.000000, 0.000000)">
                <g id="Group-13" transform="translate(0.000000, 855.000000)">
                    <path d="M271.196721,52.875 L263.969678,72 L257.721311,72 L264.946868,52.875 L271.196721,52.875 Z M280.963824,52.875 C281.771732,52.875 282.42623,53.3824577 282.42623,54.0082625 C282.42623,54.0516963 282.421433,54.0935361 282.414352,54.1348447 L282.402331,54.1965419 L275.42873,72 L268.95082,72 L274.296271,58.3542285 C274.456246,57.9456107 274.078351,57.5330586 273.537949,57.5084306 L273.486821,57.5072702 L271.996663,57.5072702 L273.812143,52.875 L280.963824,52.875 Z M303.762295,52.875 L298.416538,66.5207715 C298.257302,66.9293893 298.634516,67.3419414 299.175609,67.3665694 L299.226805,67.3677298 L300.717048,67.3677298 L298.901464,72 L291.748604,72 C290.941421,72 290.286885,71.4925423 290.286885,70.8667375 C290.286885,70.8233037 290.291682,70.7814639 290.298764,70.7401553 L290.310785,70.6784581 L297.284785,52.875 L303.762295,52.875 Z M327.344262,52.875 L320.118706,72 L313.868852,72 L321.095896,52.875 L327.344262,52.875 Z M317.237705,52.875 L311.892253,66.5207715 C311.732279,66.9293893 312.110174,67.3419414 312.650576,67.3665694 L312.701703,67.3677298 L314.191861,67.3677298 L312.376381,72 L305.224701,72 C304.416793,72 303.762295,71.4925423 303.762295,70.8667375 C303.762295,70.8233037 303.767092,70.7814639 303.774173,70.7401553 L303.786193,70.6784581 L310.759795,52.875 L317.237705,52.875 Z M292.194019,52.875 C293.001202,52.875 293.655738,53.3824577 293.655738,54.0082625 C293.655738,54.0516963 293.650941,54.0935361 293.643859,54.1348447 L293.631838,54.1965419 L286.657838,72 L280.180328,72 L285.526085,58.3542285 C285.685321,57.9456107 285.308107,57.5330586 284.767014,57.5084306 L284.715818,57.5072702 L283.225575,57.5072702 L285.041159,52.875 L292.194019,52.875 Z M322.852459,30.375 L315.625415,49.5 L309.377049,49.5 L316.602606,30.375 L322.852459,30.375 Z M332.619561,30.375 C333.427469,30.375 334.081967,30.8824577 334.081967,31.5082625 C334.081967,31.5516963 334.07717,31.5935361 334.07009,31.6348447 L334.058069,31.6965419 L327.084467,49.5 L320.606557,49.5 L325.952009,35.8542285 C326.111983,35.4456107 325.734089,35.0330586 325.193686,35.0084306 L325.142559,35.0072702 L323.652401,35.0072702 L325.467881,30.375 L332.619561,30.375 Z M355.418033,30.375 L350.072275,44.0207715 C349.91304,44.4293893 350.290254,44.8419414 350.831346,44.8665694 L350.882542,44.8677298 L352.372786,44.8677298 L350.557202,49.5 L343.404341,49.5 C342.597158,49.5 341.942623,48.9925423 341.942623,48.3667375 C341.942623,48.3233037 341.94742,48.2814639 341.954501,48.2401553 L341.966522,48.1784581 L348.940523,30.375 L355.418033,30.375 Z M255.47541,30.375 L248.248366,49.5 L242,49.5 L249.225556,30.375 L255.47541,30.375 Z M265.242512,30.375 C266.05042,30.375 266.704918,30.8824577 266.704918,31.5082625 C266.704918,31.5516963 266.700121,31.5935361 266.69304,31.6348447 L266.68102,31.6965419 L259.707418,49.5 L253.229508,49.5 L258.57496,35.8542285 C258.734934,35.4456107 258.357039,35.0330586 257.816637,35.0084306 L257.76551,35.0072702 L256.275352,35.0072702 L258.090832,30.375 L265.242512,30.375 Z M288.040984,30.375 L282.695226,44.0207715 C282.53599,44.4293893 282.913204,44.8419414 283.454297,44.8665694 L283.505493,44.8677298 L284.995737,44.8677298 L283.180153,49.5 L276.027292,49.5 C275.220109,49.5 274.565574,48.9925423 274.565574,48.3667375 C274.565574,48.3233037 274.570371,48.2814639 274.577452,48.2401553 L274.589473,48.1784581 L281.563474,30.375 L288.040984,30.375 Z M277.595659,30.375 C278.402842,30.375 279.057377,30.8824577 279.057377,31.5082625 C279.057377,31.5516963 279.05258,31.5935361 279.045499,31.6348447 L279.033478,31.6965419 L272.059477,49.5 L265.581967,49.5 L270.927725,35.8542285 C271.08696,35.4456107 270.709746,35.0330586 270.168654,35.0084306 L270.117458,35.0072702 L268.627214,35.0072702 L270.442798,30.375 L277.595659,30.375 Z M311.622951,30.375 L304.397394,49.5 L298.147541,49.5 L305.374585,30.375 L311.622951,30.375 Z M300.393443,30.375 L295.047991,44.0207715 C294.888017,44.4293893 295.265911,44.8419414 295.806314,44.8665694 L295.857441,44.8677298 L297.347599,44.8677298 L295.532119,49.5 L288.380439,49.5 C287.572531,49.5 286.918033,48.9925423 286.918033,48.3667375 C286.918033,48.3233037 286.92283,48.2814639 286.92991,48.2401553 L286.941931,48.1784581 L293.915533,30.375 L300.393443,30.375 Z M344.972708,30.375 C345.779891,30.375 346.434426,30.8824577 346.434426,31.5082625 C346.434426,31.5516963 346.429629,31.5935361 346.422548,31.6348447 L346.410527,31.6965419 L339.436526,49.5 L332.959016,49.5 L338.304774,35.8542285 C338.46401,35.4456107 338.086796,35.0330586 337.545703,35.0084306 L337.494507,35.0072702 L336.004263,35.0072702 L337.819847,30.375 L344.972708,30.375 Z M379,30.375 L371.774444,49.5 L365.52459,49.5 L372.751634,30.375 L379,30.375 Z M367.770492,30.375 L362.42504,44.0207715 C362.265066,44.4293893 362.642961,44.8419414 363.183363,44.8665694 L363.23449,44.8677298 L364.724648,44.8677298 L362.909168,49.5 L355.757488,49.5 C354.94958,49.5 354.295082,48.9925423 354.295082,48.3667375 C354.295082,48.3233037 354.299879,48.2814639 354.30696,48.2401553 L354.31898,48.1784581 L361.292582,30.375 L367.770492,30.375 Z M284.672131,9 L277.445087,28.125 L271.196721,28.125 L278.422278,9 L284.672131,9 Z M294.439234,9 C295.247141,9 295.901639,9.50745773 295.901639,10.1332625 C295.901639,10.1766963 295.896843,10.2185361 295.889762,10.2598447 L295.877741,10.3215419 L288.90414,28.125 L282.42623,28.125 L287.771681,14.4792285 C287.931655,14.0706107 287.553761,13.6580586 287.013359,13.6334306 L286.962231,13.6322702 L285.472073,13.6322702 L287.287553,9 L294.439234,9 Z M317.237705,9 L311.891948,22.6457715 C311.732712,23.0543893 312.109926,23.4669414 312.651018,23.4915694 L312.702215,23.4927298 L314.192458,23.4927298 L312.376874,28.125 L305.224014,28.125 C304.41683,28.125 303.762295,27.6175423 303.762295,26.9917375 C303.762295,26.9483037 303.767092,26.9064639 303.774173,26.8651553 L303.786194,26.8034581 L310.760195,9 L317.237705,9 Z M305.669429,9 C306.476612,9 307.131148,9.50745773 307.131148,10.1332625 C307.131148,10.1766963 307.126351,10.2185361 307.119269,10.2598447 L307.107248,10.3215419 L300.133247,28.125 L293.655738,28.125 L299.001495,14.4792285 C299.160731,14.0706107 298.783517,13.6580586 298.242424,13.6334306 L298.191228,13.6322702 L296.700985,13.6322702 L298.516568,9 L305.669429,9 Z M328.467213,9 L323.121762,22.6457715 C322.961787,23.0543893 323.339682,23.4669414 323.880084,23.4915694 L323.931211,23.4927298 L325.42137,23.4927298 L323.60589,28.125 L316.454209,28.125 C315.646301,28.125 314.991803,27.6175423 314.991803,26.9917375 C314.991803,26.9483037 314.9966,26.9064639 315.003681,26.8651553 L315.015701,26.8034581 L321.989303,9 L328.467213,9 Z M340.819672,9 L333.594116,28.125 L327.344262,28.125 L334.571306,9 L340.819672,9 Z" id="Shape"></path>
                </g>
            </g>
        </g>
    </g>
</svg>