<?xml version="1.0" encoding="UTF-8"?>
<svg width="60px" height="23px" viewBox="0 0 60 23" version="1.1" xmlns="http://www.w3.org/2000/svg" xmlns:xlink="http://www.w3.org/1999/xlink">
    <title>Shape</title>
    <g id="Page-1" stroke="none" stroke-width="1" fill="none" fill-rule="evenodd" opacity="0.049999997">
        <g id="Trades---Overview---Trades-Sent-(You)" transform="translate(-1273.000000, -437.000000)" fill="#F3F2F6" fill-rule="nonzero">
            <g id="Group" transform="translate(974.000000, 400.000000)">
                <g id="Shape" transform="translate(271.000000, 33.000000)">
                    <path d="M43.7468815,30.6 L40.0386327,42.3 L36.8325504,42.3 L40.5400361,30.6 L43.7468815,30.6 Z M49.0465502,30.6 C49.4610937,30.6 49.7969213,30.9104447 49.7969213,31.29329 C49.7969213,31.3198612 49.79446,31.3454574 49.7908268,31.3707285 L49.784659,31.4084727 L46.2064531,42.3 L42.8825902,42.3 L45.6253803,33.9519986 C45.7074643,33.7020206 45.5135638,33.4496358 45.2362796,33.4345693 L45.2100458,33.4338594 L44.4454347,33.4338594 L45.3769707,30.6 L49.0465502,30.6 Z M61.0327094,30.6 L58.2897623,38.9480014 C58.2080572,39.1979794 58.4016085,39.4503642 58.679247,39.4654307 L58.7055162,39.4661406 L59.470171,39.4661406 L58.5385817,42.3 L54.8683967,42.3 C54.4542251,42.3 54.1183783,41.9895553 54.1183783,41.60671 C54.1183783,41.5801388 54.1208396,41.5545426 54.1244731,41.5292715 L54.1306412,41.4915273 L57.7090519,30.6 L61.0327094,30.6 Z M73.1327889,30.6 L69.4253032,42.3 L66.2184578,42.3 L69.9267067,30.6 L73.1327889,30.6 Z M67.9470405,30.6 L65.2042504,38.9480014 C65.1221664,39.1979794 65.3160669,39.4503642 65.5933511,39.4654307 L65.6195849,39.4661406 L66.384196,39.4661406 L65.45266,42.3 L61.7830805,42.3 C61.368537,42.3 61.0327094,41.9895553 61.0327094,41.60671 C61.0327094,41.5801388 61.0351707,41.5545426 61.0388039,41.5292715 L61.0449717,41.4915273 L64.6231776,30.6 L67.9470405,30.6 Z M55.0969426,30.6 C55.5111142,30.6 55.846961,30.9104447 55.846961,31.29329 C55.846961,31.3198612 55.8444997,31.3454574 55.8408662,31.3707285 L55.8346981,31.4084727 L52.2562875,42.3 L48.9326299,42.3 L51.675577,33.9519986 C51.7572821,33.7020206 51.5637309,33.4496358 51.2860923,33.4345693 L51.2598231,33.4338594 L50.4951683,33.4338594 L51.4267576,30.6 L55.0969426,30.6 Z M71.4042061,17.1 L67.6959572,28.8 L64.489875,28.8 L68.1973607,17.1 L71.4042061,17.1 Z M76.7038748,17.1 C77.1184182,17.1 77.4542459,17.4104447 77.4542459,17.79329 C77.4542459,17.8198612 77.4517846,17.8454574 77.4481513,17.8707285 L77.4419836,17.9084727 L73.8637777,28.8 L70.5399147,28.8 L73.2827049,20.4519986 C73.3647889,20.2020206 73.1708884,19.9496358 72.8936042,19.9345693 L72.8673703,19.9338594 L72.1027593,19.9338594 L73.0342953,17.1 L76.7038748,17.1 Z M88.690034,17.1 L85.9470869,25.4480014 C85.8653818,25.6979794 86.058933,25.9503642 86.3365716,25.9654307 L86.3628407,25.9661406 L87.1274956,25.9661406 L86.1959063,28.8 L82.5257212,28.8 C82.1115497,28.8 81.7757028,28.4895553 81.7757028,28.10671 C81.7757028,28.0801388 81.7781642,28.0545426 81.7817977,28.0292715 L81.7879658,27.9915273 L85.3663764,17.1 L88.690034,17.1 Z M35.1039676,17.1 L31.3957187,28.8 L28.1896365,28.8 L31.8971222,17.1 L35.1039676,17.1 Z M40.4036363,17.1 C40.8181797,17.1 41.1540074,17.4104447 41.1540074,17.79329 C41.1540074,17.8198612 41.1515461,17.8454574 41.1479129,17.8707285 L41.1417451,17.9084727 L37.5635392,28.8 L34.2396762,28.8 L36.9824664,20.4519986 C37.0645504,20.2020206 36.8706499,19.9496358 36.5933657,19.9345693 L36.5671319,19.9338594 L35.8025208,19.9338594 L36.7340568,17.1 L40.4036363,17.1 Z M52.3897955,17.1 L49.6468484,25.4480014 C49.5651433,25.6979794 49.7586945,25.9503642 50.0363331,25.9654307 L50.0626023,25.9661406 L50.8272571,25.9661406 L49.8956678,28.8 L46.2254827,28.8 C45.8113112,28.8 45.4754643,28.4895553 45.4754643,28.10671 C45.4754643,28.0801388 45.4779257,28.0545426 45.4815592,28.0292715 L45.4877273,27.9915273 L49.0661379,17.1 L52.3897955,17.1 Z M46.4540287,17.1 C46.8682003,17.1 47.2040471,17.4104447 47.2040471,17.79329 C47.2040471,17.8198612 47.2015857,17.8454574 47.1979523,17.8707285 L47.1917842,17.9084727 L43.6133735,28.8 L40.289716,28.8 L43.0326631,20.4519986 C43.1143682,20.2020206 42.9208169,19.9496358 42.6431783,19.9345693 L42.6169092,19.9338594 L41.8522544,19.9338594 L42.7838437,17.1 L46.4540287,17.1 Z M64.489875,17.1 L60.7823892,28.8 L57.5755438,28.8 L61.2837927,17.1 L64.489875,17.1 Z M58.4398352,17.1 L55.6970451,25.4480014 C55.614961,25.6979794 55.8088616,25.9503642 56.0861458,25.9654307 L56.1123796,25.9661406 L56.8769907,25.9661406 L55.9454547,28.8 L52.2758752,28.8 C51.8613317,28.8 51.5255041,28.4895553 51.5255041,28.10671 C51.5255041,28.0801388 51.5279653,28.0545426 51.5315986,28.0292715 L51.5377664,27.9915273 L55.1159723,17.1 L58.4398352,17.1 Z M82.7542672,17.1 C83.1684388,17.1 83.5042856,17.4104447 83.5042856,17.79329 C83.5042856,17.8198612 83.5018242,17.8454574 83.4981908,17.8707285 L83.4920227,17.9084727 L79.913612,28.8 L76.5899545,28.8 L79.3329016,20.4519986 C79.4146067,20.2020206 79.2210554,19.9496358 78.9434168,19.9345693 L78.9171477,19.9338594 L78.1524929,19.9338594 L79.0840822,17.1 L82.7542672,17.1 Z M100.790113,17.1 L97.0826277,28.8 L93.8757823,28.8 L97.5840312,17.1 L100.790113,17.1 Z M94.7400737,17.1 L91.9972835,25.4480014 C91.9151995,25.6979794 92.1091001,25.9503642 92.3863843,25.9654307 L92.4126181,25.9661406 L93.1772292,25.9661406 L92.2456932,28.8 L88.5761137,28.8 C88.1615702,28.8 87.8257426,28.4895553 87.8257426,28.10671 C87.8257426,28.0801388 87.8282038,28.0545426 87.8318371,28.0292715 L87.8380049,27.9915273 L91.4162108,17.1 L94.7400737,17.1 Z M50.6612127,4.5 L46.9529638,16.2 L43.7468815,16.2 L47.4543673,4.5 L50.6612127,4.5 Z M55.9608814,4.5 C56.3754248,4.5 56.7112524,4.81044473 56.7112524,5.19329 C56.7112524,5.21986124 56.7087912,5.24545739 56.7051579,5.27072851 L56.6989902,5.30847267 L53.1207842,16.2 L49.7969213,16.2 L52.5397115,7.85199863 C52.6217955,7.60202063 52.427895,7.34963583 52.1506107,7.33456933 L52.1243769,7.33385943 L51.3597658,7.33385943 L52.2913018,4.5 L55.9608814,4.5 Z M67.9470405,4.5 L65.2040935,12.8480014 C65.1223883,13.0979794 65.3159396,13.3503642 65.5935782,13.3654307 L65.6198473,13.3661406 L66.3845022,13.3661406 L65.4529128,16.2 L61.7827278,16.2 C61.3685562,16.2 61.0327094,15.8895553 61.0327094,15.50671 C61.0327094,15.4801388 61.0351708,15.4545426 61.0388042,15.4292715 L61.0449724,15.3915273 L64.623383,4.5 L67.9470405,4.5 Z M62.0112738,4.5 C62.4254454,4.5 62.7612922,4.81044473 62.7612922,5.19329 C62.7612922,5.21986124 62.7588308,5.24545739 62.7551973,5.27072851 L62.7490292,5.30847267 L59.1706186,16.2 L55.846961,16.2 L58.5899081,7.85199863 C58.6716132,7.60202063 58.478062,7.34963583 58.2004234,7.33456933 L58.1741543,7.33385943 L57.4094994,7.33385943 L58.3410888,4.5 L62.0112738,4.5 Z M73.9970803,4.5 L71.2542901,12.8480014 C71.1722061,13.0979794 71.3661066,13.3503642 71.6433909,13.3654307 L71.6696247,13.3661406 L72.4342358,13.3661406 L71.5026998,16.2 L67.8331202,16.2 C67.4185768,16.2 67.0827492,15.8895553 67.0827492,15.50671 C67.0827492,15.4801388 67.0852104,15.4545426 67.0888437,15.4292715 L67.0950114,15.3915273 L70.6732173,4.5 L73.9970803,4.5 Z M80.04712,4.5 L76.3396343,16.2 L73.1327889,16.2 L76.8410378,4.5 L80.04712,4.5 Z"></path>
                </g>
            </g>
        </g>
    </g>
</svg>