<?xml version="1.0" encoding="UTF-8"?>
<svg width="217px" height="126px" viewBox="0 0 217 126" version="1.1" xmlns="http://www.w3.org/2000/svg" xmlns:xlink="http://www.w3.org/1999/xlink">
    <title>Combined Shape</title>
    <g id="Page-1" stroke="none" stroke-width="1" fill="none" fill-rule="evenodd" opacity="0.348070128">
        <g id="Trades---Overview---Trades-Received-(You)" transform="translate(-501.000000, -91.000000)" fill="#3740A7">
            <path d="M565.371111,203.273063 L548.733476,257 L534.348889,257 L550.9831,203.273063 L565.371111,203.273063 Z M584.748065,203.273063 C586.468485,203.273063 587.862222,204.698639 587.862222,206.456682 C587.862222,206.578699 587.852008,206.696237 587.836929,206.812283 L587.811332,206.985606 L572.961218,257 L559.166667,257 L570.549675,218.665594 C570.890336,217.517684 570.085619,216.358721 568.934846,216.289535 L568.825971,216.286275 L565.652716,216.286275 L569.518736,203.273063 L584.748065,203.273063 Z M635.171111,203.273063 L623.787452,241.607468 C623.448363,242.755379 624.251631,243.914341 625.403874,243.983527 L625.512895,243.986787 L628.686332,243.986787 L624.820091,257 L609.588249,257 C607.869372,257 606.475556,255.574424 606.475556,253.816381 C606.475556,253.694364 606.485771,253.576825 606.50085,253.460779 L606.526449,253.287456 L621.377413,203.273063 L635.171111,203.273063 Z M686.357778,203.273063 L669.723566,257 L655.335556,257 L671.973191,203.273063 L686.357778,203.273063 Z M660.764444,203.273063 L649.381436,241.607468 C649.040775,242.755379 649.845492,243.914341 650.996265,243.983527 L651.10514,243.986787 L654.278395,243.986787 L650.412375,257 L635.183046,257 C633.462626,257 632.068889,255.574424 632.068889,253.816381 C632.068889,253.694364 632.079103,253.576825 632.094182,253.460779 L632.119779,253.287456 L646.969893,203.273063 L660.764444,203.273063 Z M610.342862,203.273063 C612.061739,203.273063 613.455556,204.698639 613.455556,206.456682 C613.455556,206.578699 613.44534,206.696237 613.430261,206.812283 L613.404662,206.985606 L598.553699,257 L584.76,257 L596.143659,218.665594 C596.482748,217.517684 595.67948,216.358721 594.527237,216.289535 L594.418216,216.286275 L591.244779,216.286275 L595.11102,203.273063 L610.342862,203.273063 Z M676.275556,143.405904 L659.63792,197.132841 L645.253333,197.132841 L661.887545,143.405904 L676.275556,143.405904 Z M696.428065,143.405904 C698.148485,143.405904 699.542222,144.831481 699.542222,146.589524 C699.542222,146.71154 699.532008,146.829079 699.516929,146.945125 L699.491332,147.118448 L684.641218,197.132841 L670.846667,197.132841 L682.229675,158.798436 C682.570336,157.650525 681.765619,156.491563 680.614846,156.422377 L680.505971,156.419117 L677.332716,156.419117 L681.198736,143.405904 L696.428065,143.405904 Z M724,173.907 L724,197.132 L721.268249,197.132841 C719.549372,197.132841 718.155556,195.707265 718.155556,193.949222 C718.155556,193.827205 718.165771,193.709667 718.18085,193.593621 L718.206449,193.420298 L724,173.907 Z M532.022222,143.405904 L515.384587,197.132841 L501,197.132841 L517.634211,143.405904 L532.022222,143.405904 Z M550.62362,143.405904 C552.344041,143.405904 553.737778,144.831481 553.737778,146.589524 C553.737778,146.71154 553.727563,146.829079 553.712485,146.945125 L553.686887,147.118448 L538.836773,197.132841 L525.042222,197.132841 L536.42523,158.798436 C536.765892,157.650525 535.961174,156.491563 534.810401,156.422377 L534.701527,156.419117 L531.528271,156.419117 L535.394292,143.405904 L550.62362,143.405904 Z M601.046667,143.405904 L589.663007,181.74031 C589.323918,182.88822 590.127186,184.047183 591.27943,184.116369 L591.388451,184.119629 L594.561888,184.119629 L590.695647,197.132841 L575.463805,197.132841 C573.744928,197.132841 572.351111,195.707265 572.351111,193.949222 C572.351111,193.827205 572.361326,193.709667 572.376406,193.593621 L572.402004,193.420298 L587.252968,143.405904 L601.046667,143.405904 Z M576.993973,142.638376 C578.71285,142.638376 580.106667,144.063953 580.106667,145.821996 C580.106667,145.944012 580.096452,146.061551 580.081372,146.177597 L580.055773,146.35092 L565.20481,196.365314 L551.411111,196.365314 L562.79477,158.030908 C563.133859,156.882998 562.330592,155.724035 561.178348,155.654849 L561.069327,155.651589 L557.89589,155.651589 L561.762131,142.638376 L576.993973,142.638376 Z M651.457778,142.638376 L634.823566,196.365314 L620.435556,196.365314 L637.073191,142.638376 L651.457778,142.638376 Z M627.415556,142.638376 L616.032547,180.972782 C615.691886,182.120692 616.496603,183.279655 617.647376,183.348841 L617.756251,183.352101 L620.929506,183.352101 L617.063486,196.365314 L601.834157,196.365314 C600.113737,196.365314 598.72,194.939737 598.72,193.181694 C598.72,193.059678 598.730215,192.942139 598.745293,192.826093 L598.77089,192.65277 L613.621005,142.638376 L627.415556,142.638376 Z M721.247306,142.638376 C722.441317,142.638376 723.478476,143.326264 724.000546,144.335641 L724,147.391 L709.458143,196.365314 L695.664444,196.365314 L707.048104,158.030908 C707.387193,156.882998 706.583925,155.724035 705.431681,155.654849 L705.32266,155.651589 L702.149223,155.651589 L706.015464,142.638376 L721.247306,142.638376 Z M593.291111,84.3062731 L576.653476,138.03321 L562.268889,138.03321 L578.9031,84.3062731 L593.291111,84.3062731 Z M613.44362,84.3062731 C615.164041,84.3062731 616.557778,85.7318495 616.557778,87.4898926 C616.557778,87.6119089 616.547563,87.7294476 616.532485,87.8454938 L616.506887,88.0188167 L601.656773,138.03321 L587.862222,138.03321 L599.24523,99.6988047 C599.585892,98.5508943 598.781174,97.3919316 597.630401,97.3227456 L597.521527,97.3194857 L594.348271,97.3194857 L598.214292,84.3062731 L613.44362,84.3062731 Z M663.866667,84.3062731 L652.483007,122.640679 C652.143918,123.788589 652.947186,124.947552 654.09943,125.016738 L654.208451,125.019998 L657.381888,125.019998 L653.515647,138.03321 L638.283805,138.03321 C636.564928,138.03321 635.171111,136.607634 635.171111,134.849591 C635.171111,134.727574 635.181326,134.610036 635.196406,134.49399 L635.222004,134.320667 L650.072968,84.3062731 L663.866667,84.3062731 Z M638.262862,84.3062731 C639.981739,84.3062731 641.375556,85.7318495 641.375556,87.4898926 C641.375556,87.6119089 641.36534,87.7294476 641.350261,87.8454938 L641.324662,88.0188167 L626.473699,138.03321 L612.68,138.03321 L624.063659,99.6988047 C624.402748,98.5508943 623.59948,97.3919316 622.447237,97.3227456 L622.338216,97.3194857 L619.164779,97.3194857 L623.03102,84.3062731 L638.262862,84.3062731 Z M688.684444,84.3062731 L677.301436,122.640679 C676.960775,123.788589 677.765492,124.947552 678.916265,125.016738 L679.02514,125.019998 L682.198395,125.019998 L678.332375,138.03321 L663.103046,138.03321 C661.382626,138.03321 659.988889,136.607634 659.988889,134.849591 C659.988889,134.727574 659.999103,134.610036 660.014182,134.49399 L660.039779,134.320667 L674.889893,84.3062731 L688.684444,84.3062731 Z M714.277778,84.3062731 L697.643566,138.03321 L683.255556,138.03321 L699.893191,84.3062731 L714.277778,84.3062731 Z M710.555,10 L709.458995,13.6937269 L695.664444,13.6937269 L696.761,10 L710.555,10 Z M687.15,10 L686.006809,13.6937269 L671.622222,13.6937269 L672.765,10 L687.15,10 Z M724,10 L724,13.693 L721.257778,13.6937269 L722.354,10 L724,10 Z" id="Combined-Shape"></path>
        </g>
    </g>
</svg>