<?xml version="1.0" encoding="UTF-8"?>
<svg width="161px" height="178px" viewBox="0 0 161 178" version="1.1" xmlns="http://www.w3.org/2000/svg" xmlns:xlink="http://www.w3.org/1999/xlink">
    <title>Combined Shape</title>
    <g id="Page-1" stroke="none" stroke-width="1" fill="none" fill-rule="evenodd" opacity="0.645154391">
        <g id="Trades---TradeRoom" transform="translate(-515.000000, -36.000000)" fill="#3740A7">
            <path d="M561.48,175.125461 L549.466578,214 L539.08,214 L551.090949,175.125461 L561.48,175.125461 Z M575.471382,175.125461 C576.713634,175.125461 577.72,176.156948 577.72,177.428994 C577.72,177.51728 577.712624,177.602326 577.701737,177.686292 L577.683254,177.811701 L566.960535,214 L557,214 L565.219249,186.262846 C565.465228,185.432266 564.884172,184.59369 564.053241,184.54363 L563.974627,184.541271 L561.683336,184.541271 L564.474847,175.125461 L575.471382,175.125461 Z M611.88,175.125461 L603.66028,202.862615 C603.415437,203.693195 603.995447,204.531771 604.827439,204.581831 L604.906159,204.58419 L607.197581,204.58419 L604.405911,214 L593.407561,214 C592.166424,214 591.16,212.968513 591.16,211.696468 C591.16,211.608182 591.167376,211.523136 591.178264,211.43917 L591.196748,211.313761 L601.92008,175.125461 L611.88,175.125461 Z M648.84,175.125461 L636.829051,214 L626.44,214 L638.453422,175.125461 L648.84,175.125461 Z M630.36,175.125461 L622.140751,202.862615 C621.894772,203.693195 622.475828,204.531771 623.306759,204.581831 L623.385373,204.58419 L625.676664,204.58419 L622.885153,214 L611.888618,214 C610.646366,214 609.64,212.968513 609.64,211.696468 C609.64,211.608182 609.647376,211.523136 609.658263,211.43917 L609.676746,211.313761 L620.399465,175.125461 L630.36,175.125461 Z M593.952439,175.125461 C595.193576,175.125461 596.2,176.156948 596.2,177.428994 C596.2,177.51728 596.192624,177.602326 596.181736,177.686292 L596.163252,177.811701 L585.43992,214 L575.48,214 L583.69972,186.262846 C583.944563,185.432266 583.364553,184.59369 582.532561,184.54363 L582.453841,184.541271 L580.162419,184.541271 L582.954089,175.125461 L593.952439,175.125461 Z M641.56,131.808118 L629.546578,170.682657 L619.16,170.682657 L631.170949,131.808118 L641.56,131.808118 Z M656.111382,131.808118 C657.353634,131.808118 658.36,132.839605 658.36,134.11165 C658.36,134.199936 658.352624,134.284982 658.341737,134.368948 L658.323254,134.494358 L647.600535,170.682657 L637.64,170.682657 L645.859249,142.945503 C646.105228,142.114923 645.524172,141.276347 644.693241,141.226287 L644.614627,141.223928 L642.323336,141.223928 L645.114847,131.808118 L656.111382,131.808118 Z M676,153.945 L676,170.682 L674.047561,170.682657 C672.806424,170.682657 671.8,169.65117 671.8,168.379124 C671.8,168.290839 671.807376,168.205793 671.818264,168.121826 L671.836748,167.996417 L676,153.945 Z M537.4,131.808118 L525.386578,170.682657 L515,170.682657 L527.010949,131.808118 L537.4,131.808118 Z M550.831382,131.808118 C552.073634,131.808118 553.08,132.839605 553.08,134.11165 C553.08,134.199936 553.072624,134.284982 553.061737,134.368948 L553.043254,134.494358 L542.320535,170.682657 L532.36,170.682657 L540.579249,142.945503 C540.825228,142.114923 540.244172,141.276347 539.413241,141.226287 L539.334627,141.223928 L537.043336,141.223928 L539.834847,131.808118 L550.831382,131.808118 Z M587.24,131.808118 L579.02028,159.545272 C578.775437,160.375852 579.355447,161.214428 580.187439,161.264488 L580.266159,161.266847 L582.557581,161.266847 L579.765911,170.682657 L568.767561,170.682657 C567.526424,170.682657 566.52,169.65117 566.52,168.379124 C566.52,168.290839 566.527376,168.205793 566.538264,168.121826 L566.556748,167.996417 L577.28008,131.808118 L587.24,131.808118 Z M569.872439,131.252768 C571.113576,131.252768 572.12,132.284254 572.12,133.5563 C572.12,133.644586 572.112624,133.729632 572.101736,133.813598 L572.083252,133.939007 L561.35992,170.127306 L551.4,170.127306 L559.61972,142.390152 C559.864563,141.559573 559.284553,140.720996 558.452561,140.670936 L558.373841,140.668578 L556.082419,140.668578 L558.874089,131.252768 L569.872439,131.252768 Z M623.64,131.252768 L611.629051,170.127306 L601.24,170.127306 L613.253422,131.252768 L623.64,131.252768 Z M606.28,131.252768 L598.060751,158.989922 C597.814772,159.820501 598.395828,160.659077 599.226759,160.709137 L599.305373,160.711496 L601.596664,160.711496 L598.805153,170.127306 L587.808618,170.127306 C586.566366,170.127306 585.56,169.095819 585.56,167.823774 C585.56,167.735488 585.567376,167.650442 585.578263,167.566476 L585.596746,167.441067 L596.319465,131.252768 L606.28,131.252768 Z M674.032439,131.252768 C674.879997,131.252768 675.618099,131.733787 676.000991,132.443951 L676,134.759 L665.51992,170.127306 L655.56,170.127306 L663.77972,142.390152 C664.024563,141.559573 663.444553,140.720996 662.612561,140.670936 L662.533841,140.668578 L660.242419,140.668578 L663.034089,131.252768 L674.032439,131.252768 Z M581.64,89.0461255 L569.626578,127.920664 L559.24,127.920664 L571.250949,89.0461255 L581.64,89.0461255 Z M596.191382,89.0461255 C597.433634,89.0461255 598.44,90.0776123 598.44,91.3496578 C598.44,91.4379437 598.432624,91.5229897 598.421737,91.6069558 L598.403254,91.732365 L587.680535,127.920664 L577.72,127.920664 L585.939249,100.18351 C586.185228,99.3529307 585.604172,98.5143544 584.773241,98.4642943 L584.694627,98.4619356 L582.403336,98.4619356 L585.194847,89.0461255 L596.191382,89.0461255 Z M632.6,89.0461255 L624.38028,116.78328 C624.135437,117.613859 624.715447,118.452435 625.547439,118.502495 L625.626159,118.504854 L627.917581,118.504854 L625.125911,127.920664 L614.127561,127.920664 C612.886424,127.920664 611.88,126.889177 611.88,125.617132 C611.88,125.528846 611.887376,125.4438 611.898264,125.359834 L611.916748,125.234425 L622.64008,89.0461255 L632.6,89.0461255 Z M614.112439,89.0461255 C615.353576,89.0461255 616.36,90.0776123 616.36,91.3496578 C616.36,91.4379437 616.352624,91.5229897 616.341736,91.6069558 L616.323252,91.732365 L605.59992,127.920664 L595.64,127.920664 L603.85972,100.18351 C604.104563,99.3529307 603.524553,98.5143544 602.692561,98.4642943 L602.613841,98.4619356 L600.322419,98.4619356 L603.114089,89.0461255 L614.112439,89.0461255 Z M650.52,89.0461255 L642.300751,116.78328 C642.054772,117.613859 642.635828,118.452435 643.466759,118.502495 L643.545373,118.504854 L645.836664,118.504854 L643.045153,127.920664 L632.048618,127.920664 C630.806366,127.920664 629.8,126.889177 629.8,125.617132 C629.8,125.528846 629.807376,125.4438 629.818263,125.359834 L629.836746,125.234425 L640.559465,89.0461255 L650.52,89.0461255 Z M669,89.0461255 L656.989051,127.920664 L646.6,127.920664 L658.613422,89.0461255 L669,89.0461255 Z M676,36 L676,37.953 L674.04,37.9538745 L674.618,36 L676,36 Z" id="Combined-Shape"></path>
        </g>
    </g>
</svg>