<?xml version="1.0" encoding="UTF-8"?>
<svg width="18px" height="11px" viewBox="0 0 18 11" version="1.1" xmlns="http://www.w3.org/2000/svg" xmlns:xlink="http://www.w3.org/1999/xlink">
    <title>noun_transfer_2849570 copy 2</title>
    <g id="Page-1" stroke="none" stroke-width="1" fill="none" fill-rule="evenodd">
        <g id="Trades---TradeRoom---Trade-Summary-(Errors)" transform="translate(-733.000000, -440.000000)" fill="#444CB4" fill-rule="nonzero">
            <g id="noun_transfer_2849570-copy-2" transform="translate(733.000000, 440.000000)">
                <path d="M13.0927644,7.85480887 C13.0927644,8.28844056 12.7262858,8.6399685 12.2742115,8.6399685 L2.78718363,8.6399685 L3.85130237,9.65282442 C4.00626479,9.80025118 4.09342894,10.0009347 4.09342894,10.2102878 C4.09342894,10.4196408 4.00626479,10.6203243 3.85130237,10.7677511 C3.69760548,10.9163917 3.48838675,11 3.27012983,11 C3.0518729,11 2.84265417,10.9163917 2.68895728,10.7677511 L0.233298633,8.41227221 C0.158777063,8.33760062 0.100361051,8.24954891 0.0614025278,8.15316953 C-0.0204675093,7.9620135 -0.0204675093,7.74760424 0.0614025278,7.55644821 C0.100361051,7.46006884 0.158777063,7.37201713 0.233298633,7.29734554 L2.68895728,4.94186665 C3.00993001,4.63398815 3.53032964,4.63398815 3.85130237,4.94186665 C4.17227511,5.24974515 4.17227511,5.74891482 3.85130237,6.05679332 L2.78718363,7.06964924 L12.2742115,7.06964924 C12.7262858,7.06964924 13.0927644,7.42117718 13.0927644,7.85480887 Z M17.9385975,3.44221176 C18.0204675,3.25105573 18.0204675,3.03664647 17.9385975,2.84549044 C17.8996389,2.74911106 17.8412229,2.66105936 17.7667014,2.58638776 L15.3110427,0.230908875 C14.99007,-0.0769696249 14.4696704,-0.0769696249 14.1486976,0.230908875 C13.8277249,0.538787374 13.8277249,1.03795705 14.1486976,1.34583555 L15.2128164,2.35869147 L5.72578847,2.35869147 C5.2737142,2.35869147 4.90723559,2.71021941 4.90723559,3.1438511 C4.90723559,3.57748279 5.2737142,3.92901073 5.72578847,3.92901073 L15.2128164,3.92901073 L14.1486976,4.94186665 C13.9937352,5.0892934 13.9065711,5.28997696 13.9065711,5.49932999 C13.9065711,5.70868302 13.9937352,5.90936657 14.1486976,6.05679332 C14.3023945,6.20543397 14.5116133,6.28904223 14.7298702,6.28904223 C14.9481271,6.28904223 15.1573458,6.20543397 15.3110427,6.05679332 L17.7667014,3.70131444 C17.8412229,3.62664284 17.8996389,3.53859114 17.9385975,3.44221176 L17.9385975,3.44221176 Z" id="Shape"></path>
            </g>
        </g>
    </g>
</svg>