<?xml version="1.0" encoding="UTF-8"?>
<svg width="201px" height="369px" viewBox="0 0 201 369" version="1.1" xmlns="http://www.w3.org/2000/svg" xmlns:xlink="http://www.w3.org/1999/xlink">
    <title>Combined Shape Copy</title>
    <g id="Page-1" stroke="none" stroke-width="1" fill="none" fill-rule="evenodd" opacity="0.645154391">
        <g id="Trades---Overview---Wagers-Learn-More-Popout-(IN-PROGRESS)" transform="translate(-371.000000, -295.000000)" fill="#3740A7">
            <g id="Combined-Shape" transform="translate(371.000000, 199.000000)">
                <path d="M-147.114504,359.849257 L-183.844471,479 L-215.600509,479 L-178.878101,359.849257 L-147.114504,359.849257 Z M-104.991245,359.849257 C-101.237164,359.849257 -98.1959288,363.010771 -98.1959288,366.9096 C-98.1959288,367.180197 -98.2182177,367.440864 -98.2511204,367.698221 L-98.3069752,368.0826 L-130.710997,479 L-160.811705,479 L-135.973158,393.985422 C-135.22981,391.43969 -136.985762,388.869447 -139.496832,388.716013 L-139.734404,388.708783 L-146.658677,388.708783 L-138.222741,359.849257 L-104.991245,359.849257 Z M7.46819338,359.849257 L-17.3717741,444.863835 C-18.1116908,447.409567 -16.358902,449.97981 -13.8446233,450.133244 L-13.6067315,450.140474 L-6.68206228,450.140474 L-15.1184804,479 L-48.3554601,479 C-52.1061736,479 -55.1475827,475.838485 -55.1475827,471.939657 C-55.1475827,471.66906 -55.1252926,471.408393 -55.0923881,471.151036 L-55.0365301,470.766656 L-22.6306539,359.849257 L7.46819338,359.849257 Z M120.959288,359.849257 L84.23688,479 L52.4732824,479 L89.2032492,359.849257 L120.959288,359.849257 Z M64.2137405,359.849257 L39.3751941,444.863835 C38.6318461,447.409567 40.3877977,449.97981 42.8988674,450.133244 L43.1364393,450.140474 L50.0607123,450.140474 L41.624777,479 L8.3932808,479 C4.63919976,479 1.59796438,475.838485 1.59796438,471.939657 C1.59796438,471.66906 1.62025332,471.408393 1.65315598,471.151036 L1.70901086,470.766656 L34.1130331,359.849257 L64.2137405,359.849257 Z M-48.2425043,359.849257 C-44.4917908,359.849257 -41.4503817,363.010771 -41.4503817,366.9096 C-41.4503817,367.180197 -41.4726718,367.440864 -41.5055762,367.698221 L-41.5614343,368.0826 L-73.9673105,479 L-104.066158,479 L-79.2261903,393.985422 C-78.4862736,391.43969 -80.2390624,388.869447 -82.7533411,388.716013 L-82.9912328,388.708783 L-89.9159021,388.708783 L-81.479484,359.849257 L-48.2425043,359.849257 Z M97.4783715,227.025478 L60.7484047,346.176221 L28.9923664,346.176221 L65.714774,227.025478 L97.4783715,227.025478 Z M141.558373,227.025478 C145.312454,227.025478 148.35369,230.186992 148.35369,234.085821 C148.35369,234.356418 148.331401,234.617085 148.298498,234.874441 L148.242643,235.258821 L115.838621,346.176221 L85.7379135,346.176221 L110.57646,261.161642 C111.319808,258.61591 109.563856,256.045668 107.052786,255.892233 L106.815215,255.885004 L99.8909416,255.885004 L108.326877,227.025478 L141.558373,227.025478 Z M-219.513995,227.025478 L-256.243962,346.176221 L-288,346.176221 L-251.277592,227.025478 L-219.513995,227.025478 Z M-179.347479,227.025478 C-175.593398,227.025478 -172.552163,230.186992 -172.552163,234.085821 C-172.552163,234.356418 -172.574452,234.617085 -172.607354,234.874441 L-172.663209,235.258821 L-205.067232,346.176221 L-235.167939,346.176221 L-210.329393,261.161642 C-209.586045,258.61591 -211.341996,256.045668 -213.853066,255.892233 L-214.090638,255.885004 L-221.014911,255.885004 L-212.578976,227.025478 L-179.347479,227.025478 Z M-68.8447837,227.025478 L-93.6847512,312.040056 C-94.4246679,314.585788 -92.6718791,317.15603 -90.1576004,317.309465 L-89.9197086,317.316695 L-82.9950394,317.316695 L-91.4314575,346.176221 L-124.668437,346.176221 C-128.419151,346.176221 -131.46056,343.014706 -131.46056,339.115877 C-131.46056,338.845281 -131.43827,338.584614 -131.405365,338.327257 L-131.349507,337.942877 L-98.943631,227.025478 L-68.8447837,227.025478 Z M-120.641995,225.072187 C-116.891282,225.072187 -113.849873,228.233701 -113.849873,232.13253 C-113.849873,232.403127 -113.872163,232.663794 -113.905067,232.92115 L-113.960925,233.30553 L-146.366802,344.22293 L-176.465649,344.22293 L-151.625681,259.208352 C-150.885765,256.66262 -152.638553,254.092377 -155.152832,253.938943 L-155.390724,253.931713 L-162.315393,253.931713 L-153.878975,225.072187 L-120.641995,225.072187 Z M42.6895674,225.072187 L5.96715985,344.22293 L-25.7964377,344.22293 L10.9335291,225.072187 L42.6895674,225.072187 Z M-10.1424936,225.072187 L-34.98104,310.086765 C-35.724388,312.632497 -33.9684364,315.20274 -31.4573666,315.356174 L-31.2197948,315.363404 L-24.2955218,315.363404 L-32.7314571,344.22293 L-65.9629533,344.22293 C-69.7170343,344.22293 -72.7582697,341.061415 -72.7582697,337.162587 C-72.7582697,336.89199 -72.7359808,336.631323 -72.7030781,336.373966 L-72.6472232,335.989586 L-40.243201,225.072187 L-10.1424936,225.072187 Z M196.350371,225.072187 C198.149579,225.072187 199.785569,225.799682 201.000916,226.987081 L201,240.257 L170.625565,344.22293 L140.526718,344.22293 L165.366685,259.208352 C166.106602,256.66262 164.353813,254.092377 161.839534,253.938943 L161.601642,253.931713 L154.676973,253.931713 L163.113391,225.072187 L196.350371,225.072187 Z M-84.4987277,96.1549894 L-121.228694,215.305732 L-152.984733,215.305732 L-116.262325,96.1549894 L-84.4987277,96.1549894 Z M-40.4187261,96.1549894 C-36.6646451,96.1549894 -33.6234097,99.3165039 -33.6234097,103.215333 C-33.6234097,103.48593 -33.6456986,103.746596 -33.6786013,104.003953 L-33.7344562,104.388333 L-66.1384784,215.305732 L-96.2391858,215.305732 L-71.4006394,130.291154 C-70.6572914,127.745422 -72.413243,125.17518 -74.9243127,125.021745 L-75.1618846,125.014516 L-82.0861576,125.014516 L-73.6502223,96.1549894 L-40.4187261,96.1549894 Z M70.0839695,96.1549894 L45.244002,181.169568 C44.5040853,183.7153 46.2568741,186.285542 48.7711528,186.438977 L49.0090445,186.446206 L55.9337138,186.446206 L47.4972957,215.305732 L14.260316,215.305732 C10.5096025,215.305732 7.46819338,212.144218 7.46819338,208.245389 C7.46819338,207.974792 7.49048347,207.714126 7.52338795,207.456769 L7.57924602,207.072389 L39.9851222,96.1549894 L70.0839695,96.1549894 Z M14.3732718,96.1549894 C18.1239853,96.1549894 21.1653944,99.3165039 21.1653944,103.215333 C21.1653944,103.48593 21.1431043,103.746596 21.1101998,104.003953 L21.0543418,104.388333 L-11.3515344,215.305732 L-41.4503817,215.305732 L-16.6104142,130.291154 C-15.8704975,127.745422 -17.6232863,125.17518 -20.137565,125.021745 L-20.3754568,125.014516 L-27.300126,125.014516 L-18.8637079,96.1549894 L14.3732718,96.1549894 Z M124.872774,96.1549894 L100.034227,181.169568 C99.2908792,183.7153 101.046831,186.285542 103.557901,186.438977 L103.795472,186.446206 L110.719745,186.446206 L102.28381,215.305732 L69.0523139,215.305732 C65.2982328,215.305732 62.2569975,212.144218 62.2569975,208.245389 C62.2569975,207.974792 62.2792864,207.714126 62.3121891,207.456769 L62.3680439,207.072389 L94.7720662,96.1549894 L124.872774,96.1549894 Z M181.618321,96.1549894 L144.895913,215.305732 L113.132316,215.305732 L149.862282,96.1549894 L181.618321,96.1549894 Z M175.256,-74 L170.627425,-58.1549894 L140.526718,-58.1549894 L145.156,-74 L175.256,-74 Z M124.334,-74 L119.450695,-58.1549894 L87.6946565,-58.1549894 L92.578,-74 L124.334,-74 Z M201,-70.914 L201,-58.155 L197.272265,-58.1549894 L201,-70.914 Z" id="Combined-Shape-Copy"></path>
            </g>
        </g>
    </g>
</svg>