<?xml version="1.0" encoding="UTF-8"?>
<svg width="282px" height="369px" viewBox="0 0 282 369" version="1.1" xmlns="http://www.w3.org/2000/svg" xmlns:xlink="http://www.w3.org/1999/xlink">
    <title>Combined Shape</title>
    <g id="Page-1" stroke="none" stroke-width="1" fill="none" fill-rule="evenodd" opacity="0.645154391">
        <g id="Trades---Overview---Wagers-Learn-More-Popout-(IN-PROGRESS)" transform="translate(-812.000000, -295.000000)" fill="#3740A7">
            <g id="Combined-Shape" transform="translate(371.000000, 199.000000)">
                <path d="M581.885496,359.849257 L545.155529,479 L513.399491,479 L550.121899,359.849257 L581.885496,359.849257 Z M624.008755,359.849257 C627.762836,359.849257 630.804071,363.010771 630.804071,366.9096 C630.804071,367.180197 630.781782,367.440864 630.74888,367.698221 L630.693025,368.0826 L598.289003,479 L568.188295,479 L593.026842,393.985422 C593.77019,391.43969 592.014238,388.869447 589.503168,388.716013 L589.265596,388.708783 L582.341323,388.708783 L590.777259,359.849257 L624.008755,359.849257 Z M736.468193,359.849257 L711.628226,444.863835 C710.888309,447.409567 712.641098,449.97981 715.155377,450.133244 L715.393268,450.140474 L722.317938,450.140474 L713.88152,479 L680.64454,479 C676.893826,479 673.852417,475.838485 673.852417,471.939657 C673.852417,471.66906 673.874707,471.408393 673.907612,471.151036 L673.96347,470.766656 L706.369346,359.849257 L736.468193,359.849257 Z M849.959288,359.849257 L813.23688,479 L781.473282,479 L818.203249,359.849257 L849.959288,359.849257 Z M793.21374,359.849257 L768.375194,444.863835 C767.631846,447.409567 769.387798,449.97981 771.898867,450.133244 L772.136439,450.140474 L779.060712,450.140474 L770.624777,479 L737.393281,479 C733.6392,479 730.597964,475.838485 730.597964,471.939657 C730.597964,471.66906 730.620253,471.408393 730.653156,471.151036 L730.709011,470.766656 L763.113033,359.849257 L793.21374,359.849257 Z M680.757496,359.849257 C684.508209,359.849257 687.549618,363.010771 687.549618,366.9096 C687.549618,367.180197 687.527328,367.440864 687.494424,367.698221 L687.438566,368.0826 L655.032689,479 L624.933842,479 L649.77381,393.985422 C650.513726,391.43969 648.760938,388.869447 646.246659,388.716013 L646.008767,388.708783 L639.084098,388.708783 L647.520516,359.849257 L680.757496,359.849257 Z M826.478372,227.025478 L789.748405,346.176221 L757.992366,346.176221 L794.714774,227.025478 L826.478372,227.025478 Z M870.558373,227.025478 C874.312454,227.025478 877.35369,230.186992 877.35369,234.085821 C877.35369,234.356418 877.331401,234.617085 877.298498,234.874441 L877.242643,235.258821 L844.838621,346.176221 L814.737913,346.176221 L839.57646,261.161642 C840.319808,258.61591 838.563856,256.045668 836.052786,255.892233 L835.815215,255.885004 L828.890942,255.885004 L837.326877,227.025478 L870.558373,227.025478 Z M930,305.47 L930,346.176 L927.194158,346.176221 C923.443445,346.176221 920.402036,343.014706 920.402036,339.115877 C920.402036,338.845281 920.424326,338.584614 920.45723,338.327257 L920.513088,337.942877 L930,305.47 Z M509.486005,227.025478 L472.756038,346.176221 L441,346.176221 L477.722408,227.025478 L509.486005,227.025478 Z M549.652521,227.025478 C553.406602,227.025478 556.447837,230.186992 556.447837,234.085821 C556.447837,234.356418 556.425548,234.617085 556.392646,234.874441 L556.336791,235.258821 L523.932768,346.176221 L493.832061,346.176221 L518.670607,261.161642 C519.413955,258.61591 517.658004,256.045668 515.146934,255.892233 L514.909362,255.885004 L507.985089,255.885004 L516.421024,227.025478 L549.652521,227.025478 Z M660.155216,227.025478 L635.315249,312.040056 C634.575332,314.585788 636.328121,317.15603 638.8424,317.309465 L639.080291,317.316695 L646.004961,317.316695 L637.568542,346.176221 L604.331563,346.176221 C600.580849,346.176221 597.53944,343.014706 597.53944,339.115877 C597.53944,338.845281 597.56173,338.584614 597.594635,338.327257 L597.650493,337.942877 L630.056369,227.025478 L660.155216,227.025478 Z M608.358005,225.072187 C612.108718,225.072187 615.150127,228.233701 615.150127,232.13253 C615.150127,232.403127 615.127837,232.663794 615.094933,232.92115 L615.039075,233.30553 L582.633198,344.22293 L552.534351,344.22293 L577.374319,259.208352 C578.114235,256.66262 576.361447,254.092377 573.847168,253.938943 L573.609276,253.931713 L566.684607,253.931713 L575.121025,225.072187 L608.358005,225.072187 Z M771.689567,225.072187 L734.96716,344.22293 L703.203562,344.22293 L739.933529,225.072187 L771.689567,225.072187 Z M718.857506,225.072187 L694.01896,310.086765 C693.275612,312.632497 695.031564,315.20274 697.542633,315.356174 L697.780205,315.363404 L704.704478,315.363404 L696.268543,344.22293 L663.037047,344.22293 C659.282966,344.22293 656.24173,341.061415 656.24173,337.162587 C656.24173,336.89199 656.264019,336.631323 656.296922,336.373966 L656.352777,335.989586 L688.756799,225.072187 L718.857506,225.072187 Z M925.350371,225.072187 C927.149579,225.072187 928.785569,225.799682 930.000916,226.987081 L930,240.257 L899.625565,344.22293 L869.526718,344.22293 L894.366685,259.208352 C895.106602,256.66262 893.353813,254.092377 890.839534,253.938943 L890.601642,253.931713 L883.676973,253.931713 L892.113391,225.072187 L925.350371,225.072187 Z M644.501272,96.1549894 L607.771306,215.305732 L576.015267,215.305732 L612.737675,96.1549894 L644.501272,96.1549894 Z M688.581274,96.1549894 C692.335355,96.1549894 695.37659,99.3165039 695.37659,103.215333 C695.37659,103.48593 695.354301,103.746596 695.321399,104.003953 L695.265544,104.388333 L662.861522,215.305732 L632.760814,215.305732 L657.599361,130.291154 C658.342709,127.745422 656.586757,125.17518 654.075687,125.021745 L653.838115,125.014516 L646.913842,125.014516 L655.349778,96.1549894 L688.581274,96.1549894 Z M799.083969,96.1549894 L774.244002,181.169568 C773.504085,183.7153 775.256874,186.285542 777.771153,186.438977 L778.009045,186.446206 L784.933714,186.446206 L776.497296,215.305732 L743.260316,215.305732 C739.509603,215.305732 736.468193,212.144218 736.468193,208.245389 C736.468193,207.974792 736.490483,207.714126 736.523388,207.456769 L736.579246,207.072389 L768.985122,96.1549894 L799.083969,96.1549894 Z M743.373272,96.1549894 C747.123985,96.1549894 750.165394,99.3165039 750.165394,103.215333 C750.165394,103.48593 750.143104,103.746596 750.1102,104.003953 L750.054342,104.388333 L717.648466,215.305732 L687.549618,215.305732 L712.389586,130.291154 C713.129503,127.745422 711.376714,125.17518 708.862435,125.021745 L708.624543,125.014516 L701.699874,125.014516 L710.136292,96.1549894 L743.373272,96.1549894 Z M853.872774,96.1549894 L829.034227,181.169568 C828.290879,183.7153 830.046831,186.285542 832.557901,186.438977 L832.795472,186.446206 L839.719745,186.446206 L831.28381,215.305732 L798.052314,215.305732 C794.298233,215.305732 791.256997,212.144218 791.256997,208.245389 C791.256997,207.974792 791.279286,207.714126 791.312189,207.456769 L791.368044,207.072389 L823.772066,96.1549894 L853.872774,96.1549894 Z M910.618321,96.1549894 L873.895913,215.305732 L842.132316,215.305732 L878.862282,96.1549894 L910.618321,96.1549894 Z M904.256,-74 L899.627425,-58.1549894 L869.526718,-58.1549894 L874.156,-74 L904.256,-74 Z M853.334,-74 L848.450695,-58.1549894 L816.694656,-58.1549894 L821.578,-74 L853.334,-74 Z M930,-70.914 L930,-58.155 L926.272265,-58.1549894 L930,-70.914 Z"></path>
            </g>
        </g>
    </g>
</svg>