<?xml version="1.0" encoding="UTF-8"?>
<svg width="250px" height="125px" viewBox="0 0 250 125" version="1.1" xmlns="http://www.w3.org/2000/svg" xmlns:xlink="http://www.w3.org/1999/xlink">
    <title>Combined Shape</title>
    <g id="Page-1" stroke="none" stroke-width="1" fill="none" fill-rule="evenodd" opacity="0.645154391">
        <g id="Trades---Overview---Trades-Received-(You)" transform="translate(-1096.000000, -92.000000)" fill="#3740A7">
            <g id="Combined-Shape" transform="translate(1082.000000, 91.000000)">
                <path d="M86,136 L67.2290287,197 L51,197 L69.7671082,136 L86,136 Z M107.527231,136 C109.445767,136 111,137.618558 111,139.614589 C111,139.753123 110.988609,139.886573 110.971794,140.018328 L110.943249,140.215114 L94.3830663,197 L79,197 L91.6938215,153.476232 C92.073712,152.172928 91.176327,150.857076 89.8930365,150.778524 L89.7716247,150.774823 L86.232952,150.774823 L90.5441647,136 L107.527231,136 Z M165,136 L152.305452,179.523768 C151.927315,180.827072 152.823084,182.142924 154.108014,182.221476 L154.22959,182.225177 L157.768465,182.225177 L153.457005,197 L136.471137,197 C134.554322,197 133,195.381442 133,193.385411 C133,193.246877 133.011391,193.113427 133.028207,192.981672 L133.056754,192.784886 L149.617884,136 L165,136 Z M223,136 L204.232892,197 L188,197 L206.770971,136 L223,136 Z M194,136 L181.306179,179.523768 C180.926288,180.827072 181.823673,182.142924 183.106963,182.221476 L183.228375,182.225177 L186.767048,182.225177 L182.455835,197 L165.472769,197 C163.554233,197 162,195.381442 162,193.385411 C162,193.246877 162.011391,193.113427 162.028206,192.981672 L162.056751,192.784886 L178.616934,136 L194,136 Z M136.528863,136 C138.445678,136 140,137.618558 140,139.614589 C140,139.753123 139.988609,139.886573 139.971793,140.018328 L139.943246,140.215114 L123.382116,197 L108,197 L120.694548,153.476232 C121.072685,152.172928 120.176916,150.857076 118.891986,150.778524 L118.77041,150.774823 L115.231535,150.774823 L119.542995,136 L136.528863,136 Z M211,68 L192.229029,129 L176,129 L194.767108,68 L211,68 Z M233.527231,68 C235.445767,68 237,69.618558 237,71.6145889 C237,71.7531227 236.988609,71.8865727 236.971794,72.0183281 L236.943249,72.2151139 L220.383066,129 L205,129 L217.693821,85.4762322 C218.073712,84.1729281 217.176327,82.8570757 215.893037,82.7785239 L215.771625,82.7748227 L212.232952,82.7748227 L216.544165,68 L233.527231,68 Z M264,107.832 L264,129 L262.471137,129 C260.554322,129 259,127.381442 259,125.385411 C259,125.246877 259.011391,125.113427 259.028207,124.981672 L259.056754,124.784886 L264,107.832 Z M49,68 L30.2290287,129 L14,129 L32.7671082,68 L49,68 Z M69.527231,68 C71.4457666,68 73,69.618558 73,71.6145889 C73,71.7531227 72.9886092,71.8865727 72.9717941,72.0183281 L72.9432493,72.2151139 L56.3830663,129 L41,129 L53.6938215,85.4762322 C54.073712,84.1729281 53.176327,82.8570757 51.8930365,82.7785239 L51.7716247,82.7748227 L48.232952,82.7748227 L52.5441647,68 L69.527231,68 Z M126,68 L113.305452,111.523768 C112.927315,112.827072 113.823084,114.142924 115.108014,114.221476 L115.22959,114.225177 L118.768465,114.225177 L114.457005,129 L97.4711368,129 C95.5543222,129 94,127.381442 94,125.385411 C94,125.246877 94.0113914,125.113427 94.0282074,124.981672 L94.0567538,124.784886 L110.617884,68 L126,68 Z M99.5288632,67 C101.445678,67 103,68.618558 103,70.6145889 C103,70.7531227 102.988609,70.8865727 102.971793,71.0183281 L102.943246,71.2151139 L86.3821157,128 L71,128 L83.6945478,84.4762322 C84.0726846,83.1729281 83.1769161,81.8570757 81.8919856,81.7785239 L81.7704103,81.7748227 L78.2315351,81.7748227 L82.5429945,67 L99.5288632,67 Z M183,67 L164.232892,128 L148,128 L166.770971,67 L183,67 Z M156,67 L143.306179,110.523768 C142.926288,111.827072 143.823673,113.142924 145.106963,113.221476 L145.228375,113.225177 L148.767048,113.225177 L144.455835,128 L127.472769,128 C125.554233,128 124,126.381442 124,124.385411 C124,124.246877 124.011391,124.113427 124.028206,123.981672 L124.056751,123.784886 L140.616934,67 L156,67 Z M261.528863,67 C262.49633,67 263.371452,67.4123256 264.000987,68.0773999 L264,74.448 L248.382116,128 L233,128 L245.694548,84.4762322 C246.072685,83.1729281 245.176916,81.8570757 243.891986,81.7785239 L243.77041,81.7748227 L240.231535,81.7748227 L244.542995,67 L261.528863,67 Z M118,1 L99.2290287,62 L83,62 L101.767108,1 L118,1 Z M140.527231,1 C142.445767,1 144,2.61855799 144,4.61458886 C144,4.75312269 143.988609,4.8865727 143.971794,5.01832811 L143.943249,5.21511392 L127.383066,62 L112,62 L124.693821,18.4762322 C125.073712,17.1729281 124.176327,15.8570757 122.893037,15.7785239 L122.771625,15.7748227 L119.232952,15.7748227 L123.544165,1 L140.527231,1 Z M197,1 L184.305452,44.5237678 C183.927315,45.8270719 184.823084,47.1429243 186.108014,47.2214761 L186.22959,47.2251773 L189.768465,47.2251773 L185.457005,62 L168.471137,62 C166.554322,62 165,60.381442 165,58.3854111 C165,58.2468773 165.011391,58.1134273 165.028207,57.9816719 L165.056754,57.7848861 L181.617884,1 L197,1 Z M168.528863,1 C170.445678,1 172,2.61855799 172,4.61458886 C172,4.75312269 171.988609,4.8865727 171.971793,5.01832811 L171.943246,5.21511392 L155.382116,62 L140,62 L152.694548,18.4762322 C153.072685,17.1729281 152.176916,15.8570757 150.891986,15.7785239 L150.77041,15.7748227 L147.231535,15.7748227 L151.542995,1 L168.528863,1 Z M225,1 L212.306179,44.5237678 C211.926288,45.8270719 212.823673,47.1429243 214.106963,47.2214761 L214.228375,47.2251773 L217.767048,47.2251773 L213.455835,62 L196.472769,62 C194.554233,62 193,60.381442 193,58.3854111 C193,58.2468773 193.011391,58.1134273 193.028206,57.9816719 L193.056751,57.7848861 L209.616934,1 L225,1 Z M254,1 L235.232892,62 L219,62 L237.770971,1 L254,1 Z M250.716,-86 L248.383066,-78 L233,-78 L235.333,-86 L250.716,-86 Z M224.691,-86 L222.229029,-78 L206,-78 L208.461,-86 L224.691,-86 Z M264,-84.857 L264,-78 L262,-78 L264,-84.857 Z"></path>
            </g>
        </g>
    </g>
</svg>