<?xml version="1.0" encoding="UTF-8"?>
<svg width="58px" height="58px" viewBox="0 0 58 58" version="1.1" xmlns="http://www.w3.org/2000/svg" xmlns:xlink="http://www.w3.org/1999/xlink">
    <!-- Generator: Sketch 64 (93537) - https://sketch.com -->
    <title>noun_Error_2190948</title>
    <desc>Created with Sketch.</desc>
    <g id="Page-1" stroke="none" stroke-width="1" fill="none" fill-rule="evenodd">
        <g id="Help-Screen---1" transform="translate(-702.000000, -655.000000)" fill="#FB295E" fill-rule="nonzero">
            <g id="noun_Error_2190948" transform="translate(702.000000, 655.000000)">
                <path d="M28.4944982,42.9971361 C29.3907731,42.9971361 30.31596,42.6334236 30.952026,41.9925968 C31.6227866,41.3113575 31.9697317,40.4453753 31.9986438,39.4985681 C32.0102086,39.1694948 31.946602,38.8288752 31.8540833,38.5055752 C31.697958,37.9744394 31.3914898,37.4375304 30.9982854,37.0449518 C30.6629051,36.7101054 30.2928303,36.4791768 29.8649314,36.3002072 C29.4196851,36.1096911 29.003351,36 28.5002806,36 C28.1938124,36 27.8353025,36.0577321 27.5403992,36.1327839 C27.0141991,36.2713411 26.4359573,36.6119608 26.0485352,36.9987661 C25.4066868,37.639593 24.967223,38.5748537 25.0019175,39.4927949 C25.0308296,40.3991896 25.3488626,41.2593985 25.9849286,41.917545 C26.6614716,42.6391968 27.5288343,42.9451772 28.4944982,42.9971361 C29.2115181,43.0375486 30.0441863,42.64497 30.5414743,42.1542468 C31.0445447,41.6519771 31.4204019,40.8321807 31.3857074,40.1105288 C31.3510129,39.3657841 31.1081513,38.5921734 30.5414743,38.0668108 C29.9574501,37.5356751 29.2924719,37.264334 28.4944982,37.2239215 C28.4713685,37.2239215 28.4482389,37.2239215 28.4251092,37.2181483 C28.6795356,37.2527876 28.9397444,37.2874269 29.1941708,37.3220662 C29.1247818,37.3105197 29.07274,37.2989733 29.0091334,37.2701072 C29.2404302,37.3682519 29.4717269,37.4663965 29.6972412,37.558768 C29.6567643,37.5414483 29.6220698,37.5183554 29.5873753,37.4952626 C29.7839775,37.6453662 29.9747973,37.7954698 30.1713995,37.9455733 C30.1193578,37.9051608 30.0788808,37.8647483 30.0384039,37.8127894 C30.1887468,38.0090787 30.3390897,38.1995948 30.4894326,38.3958841 C30.4663029,38.3612448 30.4431732,38.3266055 30.4258259,38.286193 C30.5241271,38.5171216 30.6224282,38.7480502 30.7149469,38.9732055 C30.6918172,38.9097002 30.6744699,38.851968 30.6629051,38.7884627 C30.6975996,39.0424841 30.7322941,39.3022788 30.7669886,39.5563002 C30.7612062,39.469702 30.7612062,39.5101145 30.7669886,39.4235163 C30.7322941,39.6775377 30.6975996,39.9373324 30.6629051,40.1913538 C30.6744699,40.1220753 30.6860348,40.0701163 30.7149469,40.006611 C30.6166458,40.2375395 30.5183446,40.4684681 30.4258259,40.6936235 C30.4431732,40.653211 30.4663029,40.6185717 30.4894326,40.5839324 C30.3390897,40.7802217 30.1887468,40.9707378 30.0384039,41.1670271 C30.0788808,41.1150682 30.1193578,41.0746557 30.1713995,41.0342432 C29.9747973,41.1843467 29.7839775,41.3344503 29.5873753,41.4845539 C29.6220698,41.461461 29.6567643,41.4383682 29.6972412,41.4210485 C29.4659445,41.5191932 29.2346478,41.6173378 29.0091334,41.7097093 C29.07274,41.6866164 29.1305642,41.6692968 29.1941708,41.6577503 C28.9397444,41.6923896 28.6795356,41.7270289 28.4251092,41.7616682 C28.5118455,41.755895 28.4713685,41.755895 28.5581048,41.7616682 C28.3036784,41.7270289 28.0434696,41.6923896 27.7890432,41.6577503 C27.8584322,41.6692968 27.9104739,41.6808432 27.9740805,41.7097093 C27.7427838,41.6115646 27.5114871,41.51342 27.2859728,41.4210485 C27.3264497,41.4383682 27.3611442,41.461461 27.3958387,41.4845539 C27.1992365,41.3344503 27.0084167,41.1843467 26.8118144,41.0342432 C26.8638562,41.0746557 26.9043331,41.1150682 26.9448101,41.1670271 C26.7944672,40.9707378 26.6441243,40.7802217 26.4937814,40.5839324 C26.5169111,40.6185717 26.5400408,40.653211 26.557388,40.6936235 C26.4590869,40.4626949 26.3607858,40.2317663 26.2682671,40.006611 C26.2913968,40.0701163 26.308744,40.1278485 26.3203089,40.1913538 C26.2856144,39.9373324 26.2509199,39.6775377 26.2162254,39.4235163 C26.2220078,39.5101145 26.2220078,39.469702 26.2162254,39.5563002 C26.2509199,39.3022788 26.2856144,39.0424841 26.3203089,38.7884627 C26.308744,38.8577412 26.2971792,38.9097002 26.2682671,38.9732055 C26.3665682,38.742277 26.4648693,38.5113484 26.557388,38.286193 C26.5400408,38.3266055 26.5169111,38.3612448 26.4937814,38.3958841 C26.6441243,38.1995948 26.7944672,38.0090787 26.9448101,37.8127894 C26.9043331,37.8647483 26.8638562,37.9051608 26.8118144,37.9455733 C27.0084167,37.7954698 27.1992365,37.6453662 27.3958387,37.4952626 C27.3611442,37.5183554 27.3264497,37.5414483 27.2859728,37.558768 C27.5172695,37.4606233 27.7485662,37.3624787 27.9740805,37.2701072 C27.9104739,37.2932001 27.8526498,37.3105197 27.7890432,37.3220662 C28.0434696,37.2874269 28.3036784,37.2527876 28.5581048,37.2181483 C28.5349751,37.2181483 28.5118455,37.2239215 28.4887158,37.2239215 C27.7485662,37.2239215 26.9679397,37.5472215 26.4417397,38.0668108 C25.9386693,38.5690805 25.5628121,39.388877 25.5975066,40.1105288 C25.6322011,40.8552735 25.8750627,41.6288843 26.4417397,42.1542468 C27.0141991,42.6680629 27.7138717,42.9971361 28.4944982,42.9971361 Z" id="Path"></path>
                <path d="M26,16.0336602 C26,17.8282086 26,19.622757 26,21.4112427 C26,24.2728199 26,27.134397 26,29.9899115 C26,30.6507418 26,31.3115722 26,31.9663398 C26,32.7423607 26.336,33.5608203 26.876,34.1125227 C27.398,34.6399744 28.25,35.0340475 29,34.9976716 C29.774,34.9612956 30.578,34.7066637 31.124,34.1125227 C31.664,33.5183817 32,32.7908621 32,31.9663398 C32,30.1717914 32,28.377243 32,26.5887573 C32,23.7271801 32,20.865603 32,18.0100885 C32,17.3492582 32,16.6884278 32,16.0336602 C32,15.2576393 31.664,14.4391797 31.124,13.8874773 C30.602,13.3600256 29.75,12.9659525 29,13.0023284 C28.226,13.0387044 27.422,13.2933363 26.876,13.8874773 C26.342,14.4816183 26,15.2091379 26,16.0336602 L26,16.0336602 Z" id="Path"></path>
                <path d="M52.0750936,29.007126 C52.0750936,30.1921475 51.992146,31.3712439 51.8381005,32.5444152 C51.8736494,32.2837105 51.9091984,32.0170807 51.9447474,31.7563759 C51.6366562,34.0019917 51.0382485,36.2061317 50.1613737,38.2976947 C50.2620958,38.0606904 50.3628179,37.8236861 50.4576151,37.5926069 C49.5866652,39.6604694 48.4490979,41.6098298 47.0804622,43.3873621 C47.2345078,43.1859085 47.3885534,42.9903799 47.542599,42.7889263 C46.1621137,44.5723836 44.5624096,46.1780878 42.7790359,47.5527128 C42.9804801,47.39866 43.1759995,47.2446072 43.3774437,47.0905544 C41.5999948,48.4592542 39.6507259,49.5909498 37.5829603,50.4678657 C37.8199535,50.3671389 38.0569467,50.266412 38.288015,50.1716103 C36.1965502,51.0485262 33.9925136,51.6469621 31.7470031,51.9550677 C32.0076956,51.919517 32.274313,51.8839664 32.5350055,51.8484158 C30.1887729,52.1624465 27.8010666,52.1624465 25.454834,51.8484158 C25.7155265,51.8839664 25.9821439,51.919517 26.2428364,51.9550677 C23.9973259,51.6469621 21.7932893,51.0485262 19.7018244,50.1716103 C19.9388176,50.2723371 20.1758108,50.373064 20.4068792,50.4678657 C18.3391136,49.5968749 16.3898447,48.4592542 14.6123958,47.0905544 C14.81384,47.2446072 15.0093594,47.39866 15.2108036,47.5527128 C13.4274298,46.1721627 11.821801,44.5723836 10.4472405,42.7889263 C10.6012861,42.9903799 10.7553317,43.1859085 10.9093772,43.3873621 C9.54074159,41.6098298 8.40909913,39.6604694 7.53222434,37.5926069 C7.63294644,37.8296112 7.73366855,38.0666155 7.82846582,38.2976947 C6.95159103,36.2061317 6.35318324,34.0019917 6.0450921,31.7563759 C6.08064108,32.0170807 6.11619005,32.2837105 6.15173903,32.5444152 C5.83772306,30.1980726 5.83772306,27.8102543 6.15173903,25.4639117 C6.11619005,25.7246164 6.08064108,25.9912462 6.0450921,26.251951 C6.35318324,24.0063352 6.95159103,21.8021952 7.82846582,19.7106322 C7.72774372,19.9476365 7.62702161,20.1846408 7.53222434,20.41572 C8.4031743,18.3478575 9.54074159,16.3984971 10.9093772,14.6209648 C10.7553317,14.8224184 10.6012861,15.017947 10.4472405,15.2194006 C11.8277258,13.4359433 13.4274298,11.8302391 15.2108036,10.4556141 C15.0093594,10.6096669 14.81384,10.7637197 14.6123958,10.9177725 C16.3898447,9.54907268 18.3391136,8.41737713 20.4068792,7.54046121 C20.169886,7.64118804 19.9328928,7.74191487 19.7018244,7.83671659 C21.7932893,6.95980067 23.9973259,6.3613648 26.2428364,6.05325921 C25.9821439,6.08880985 25.7155265,6.1243605 25.454834,6.15991114 C27.8010666,5.84588044 30.1887729,5.84588044 32.5350055,6.15991114 C32.274313,6.1243605 32.0076956,6.08880985 31.7470031,6.05325921 C33.9925136,6.3613648 36.1965502,6.95980067 38.288015,7.83671659 C38.0510219,7.73598976 37.8140287,7.63526293 37.5829603,7.54046121 C39.6507259,8.41145203 41.5999948,9.54907268 43.3774437,10.9177725 C43.1759995,10.7637197 42.9804801,10.6096669 42.7790359,10.4556141 C44.5624096,11.8361642 46.1680385,13.4359433 47.542599,15.2194006 C47.3885534,15.017947 47.2345078,14.8224184 47.0804622,14.6209648 C48.4490979,16.3984971 49.5807404,18.3478575 50.4576151,20.41572 C50.356893,20.1787157 50.2561709,19.9417114 50.1613737,19.7106322 C51.0382485,21.8021952 51.6366562,24.0063352 51.9447474,26.251951 C51.9091984,25.9912462 51.8736494,25.7246164 51.8381005,25.4639117 C51.992146,26.6430081 52.0691688,27.8221045 52.0750936,29.007126 C52.0750936,29.7655398 52.4068841,30.5654293 52.9401188,31.1046141 C53.4555789,31.6200984 54.2969048,32.0052304 55.0375085,31.9696798 C55.8018115,31.9341292 56.5957387,31.6852746 57.1348982,31.1046141 C57.6681328,30.5239535 58.0058481,29.8129406 58,29.007126 C57.9939985,26.032722 57.5496362,23.0109171 56.6312876,20.1787157 C55.7366384,17.4294658 54.4568752,14.7750176 52.7801484,12.4168248 C51.8854991,11.1607019 50.9079022,9.94605489 49.835508,8.83213466 C48.7631139,7.72413955 47.5959224,6.74649679 46.3754075,5.8103298 C44.064724,4.03872263 41.4874231,2.69964831 38.7620014,1.69830513 C35.9773315,0.673261516 32.9971422,0.140001833 30.0406522,0.0214996815 C27.0426884,-0.0970024702 23.9736266,0.276279308 21.0823097,1.09394415 C18.3154143,1.88198346 15.613692,3.09070541 13.2082111,4.67270914 C10.81458,6.24878776 8.61646817,8.15074729 6.79162063,10.3608124 C5.81402374,11.5458339 4.89567515,12.7901065 4.1076728,14.1054804 C3.30189597,15.4504798 2.64423988,16.8665806 2.05175691,18.3123068 C0.920114451,21.0674818 0.303932168,24.0004101 0.078788641,26.968889 C-0.152279715,29.9669934 0.132112108,33.0302741 0.837166836,35.9513521 C1.51852225,38.7657782 2.6679392,41.5209532 4.17284593,43.9976482 C5.64812851,46.4269423 7.49667536,48.6844083 9.62368921,50.5745176 C11.7744024,52.4824023 14.185808,54.1236571 16.8105076,55.3086786 C18.2383915,55.9545153 19.6958996,56.5233256 21.2008063,56.9440083 C22.7590365,57.3765411 24.3409661,57.643171 25.9465949,57.8268493 C28.9504835,58.1764307 32.0076956,57.9809021 34.9641856,57.3824662 C37.8199535,56.8077308 40.6046234,55.7412114 43.1463754,54.3191856 C45.628879,52.9327104 47.9454874,51.143328 49.906606,49.0873156 C51.8854991,47.0194531 53.6036997,44.6375598 54.8775381,42.0719882 C56.1810006,39.4530907 57.140823,36.6564399 57.5851852,33.7649874 C57.8281032,32.1829837 57.9939985,30.5950548 57.9939985,28.9952758 C57.9939985,28.236862 57.662208,27.4369725 57.1289733,26.8977877 C56.6135132,26.3823033 55.7721873,25.9971713 55.0315836,26.032722 C54.2672806,26.0682726 53.4733534,26.3171272 52.9341939,26.8977877 C52.4068841,27.4902985 52.0750936,28.2013114 52.0750936,29.007126 Z" id="Path"></path>
            </g>
        </g>
    </g>
</svg>