<?xml version="1.0" encoding="UTF-8"?>
<svg width="60px" height="44px" viewBox="0 0 60 44" version="1.1" xmlns="http://www.w3.org/2000/svg" xmlns:xlink="http://www.w3.org/1999/xlink">
    <!-- Generator: Sketch 64 (93537) - https://sketch.com -->
    <title>noun_Email_691764</title>
    <desc>Created with Sketch.</desc>
    <g id="Page-1" stroke="none" stroke-width="1" fill="none" fill-rule="evenodd">
        <g id="Help-Screen---1" transform="translate(-1108.000000, -664.000000)" fill="#525CD7" fill-rule="nonzero" stroke="#525CD7">
            <g id="noun_Email_691764" transform="translate(1109.000000, 665.000000)">
                <path d="M51.6580625,42 L6.3419375,42 C2.8438125,42 0,39.25425 0,35.87675 L0,6.12325 C0,2.74575 2.8438125,0 6.3419375,0 L51.6580625,0 C55.1561875,0 58,2.74575 58,6.12325 L58,35.87675 C58,39.25425 55.1561875,42 51.6580625,42 Z M6.3419375,3.5 C4.843,3.5 3.625,4.676 3.625,6.12325 L3.625,35.87675 C3.625,37.32225 4.843,38.5 6.3419375,38.5 L51.6580625,38.5 C53.1551875,38.5 54.375,37.32225 54.375,35.87675 L54.375,6.12325 C54.375,4.676 53.1551875,3.5 51.6580625,3.5 L6.3419375,3.5 Z M29,27.08125 C27.9070625,27.08125 26.8159375,26.698 25.944125,25.935 L7.8426875,10.045 C7.101375,9.39575 7.0488125,8.288 7.72125,7.57225 C8.3955,6.85825 9.5391875,6.80575 10.2823125,7.455 L28.38375,23.34325 C28.7335625,23.65475 29.264625,23.653 29.61625,23.345 L47.7176875,7.455 C48.4571875,6.80575 49.6063125,6.85825 50.27875,7.57225 C50.9511875,8.288 50.8968125,9.39575 50.1573125,10.045 L32.055875,25.935 C31.1840625,26.698 30.0929375,27.08125 29,27.08125 Z M9.0625,35 C8.5985,35 8.1345,34.8285 7.7810625,34.48725 C7.072375,33.803 7.072375,32.697 7.7810625,32.01275 L20.4685625,19.76275 C21.17725,19.0785 22.32275,19.0785 23.0314375,19.76275 C23.740125,20.447 23.740125,21.553 23.0314375,22.23725 L10.3439375,34.48725 C9.9905,34.8285 9.5265,35 9.0625,35 Z M48.9375,35 C48.4735,35 48.0095,34.8285 47.6560625,34.48725 L34.9685625,22.23725 C34.259875,21.553 34.259875,20.447 34.9685625,19.76275 C35.67725,19.0785 36.82275,19.0785 37.5314375,19.76275 L50.2189375,32.01275 C50.927625,32.697 50.927625,33.803 50.2189375,34.48725 C49.8655,34.8285 49.4015,35 48.9375,35 Z" id="Shape"></path>
            </g>
        </g>
    </g>
</svg>