<?xml version="1.0" encoding="UTF-8"?>
<svg width="54px" height="48px" viewBox="0 0 54 48" version="1.1" xmlns="http://www.w3.org/2000/svg" xmlns:xlink="http://www.w3.org/1999/xlink">
    <!-- Generator: Sketch 64 (93537) - https://sketch.com -->
    <title>noun_rules_2560118</title>
    <desc>Created with Sketch.</desc>
    <g id="Page-1" stroke="none" stroke-width="1" fill="none" fill-rule="evenodd">
        <g id="Help-Screen---1" transform="translate(-705.000000, -391.000000)" fill="#525CD7" fill-rule="nonzero">
            <g id="noun_rules_2560118" transform="translate(705.000000, 391.000000)">
                <g id="Group">
                    <path d="M27.2875311,10.2867118 L48.5962869,10.2867118 C51.1031993,10.2867118 53.2967477,8.90759523 53.2967477,7.10413506 C53.2967477,5.3006749 51.2598814,3.9215583 48.5962869,3.9215583 L27.2875311,3.9215583 C24.7806187,3.9215583 22.5870703,5.3006749 22.5870703,7.10413506 C22.5870703,8.90759523 24.7806187,10.2867118 27.2875311,10.2867118 Z" id="Path"></path>
                    <path d="M12.5619535,1.1633251 L7.60329357,6.36153382 L6.0941362,4.77024544 C4.9083697,3.49721473 2.86022755,3.39112884 1.56666409,4.55807365 C0.273100634,5.72501847 0.165303679,7.74065042 1.35107018,9.01368112 L5.23176056,13.044945 C5.87854229,13.6814604 6.63312098,13.9997181 7.60329357,13.9997181 C8.46566921,13.9997181 9.32804485,13.6814604 9.97482658,13.044945 L17.3050195,5.3006749 C18.490786,4.02764419 18.3829891,2.01201224 17.0894256,0.845067426 C15.7958621,-0.215791495 13.74772,-0.109705603 12.5619535,1.1633251 Z" id="Path"></path>
                    <path d="M48.5962869,20.895301 L27.2875311,20.895301 C24.7806187,20.895301 22.5870703,22.2744176 22.5870703,24.0778778 C22.5870703,25.7752521 24.6239367,27.2604546 27.2875311,27.2604546 L48.5962869,27.2604546 C51.1031993,27.2604546 53.2967477,25.881338 53.2967477,24.0778778 C53.1400657,22.2744176 51.1031993,20.895301 48.5962869,20.895301 Z" id="Path"></path>
                    <path d="M12.5619535,18.030982 L7.60329357,23.2291907 L6.0941362,21.6379023 C4.9083697,20.3648716 2.86022755,20.2587857 1.56666409,21.4257305 C0.273100634,22.5926753 0.165303679,24.6083073 1.35107018,25.881338 L5.23176056,29.9126019 C5.87854229,30.5491172 6.63312098,30.8673749 7.60329357,30.8673749 C8.46566921,30.8673749 9.32804485,30.5491172 9.97482658,29.9126019 L17.3050195,22.1683318 C18.490786,20.895301 18.3829891,18.8796691 17.0894256,17.7127243 C15.7958621,16.6518654 13.74772,16.7579513 12.5619535,18.030982 Z" id="Path"></path>
                    <path d="M48.5962869,37.7629579 L27.2875311,37.7629579 C24.7806187,37.7629579 22.5870703,39.1420745 22.5870703,40.9455347 C22.5870703,42.6429089 24.6239367,44.1281114 27.2875311,44.1281114 L48.5962869,44.1281114 C51.1031993,44.1281114 53.2967477,42.7489948 53.2967477,40.9455347 C53.1400657,39.1420745 51.1031993,37.7629579 48.5962869,37.7629579 Z" id="Path"></path>
                    <path d="M12.5619535,34.8986388 L7.60329357,40.0968475 L6.0941362,38.611645 C4.9083697,37.3386143 2.86022755,37.2325284 1.56666409,38.3994733 C0.273100634,39.5664181 0.165303679,41.58205 1.35107018,42.8550807 L5.23176056,46.8863446 C5.87854229,47.52286 6.63312098,47.8411177 7.60329357,47.8411177 C8.46566921,47.8411177 9.32804485,47.52286 9.97482658,46.8863446 L17.3050195,39.1420745 C18.490786,37.8690438 18.3829891,35.8534118 17.0894256,34.686467 C15.7958621,33.6256081 13.74772,33.6256081 12.5619535,34.8986388 Z" id="Path"></path>
                </g>
            </g>
        </g>
    </g>
</svg>