<?xml version="1.0" encoding="UTF-8"?>
<svg width="207px" height="123px" viewBox="0 0 207 123" version="1.1" xmlns="http://www.w3.org/2000/svg" xmlns:xlink="http://www.w3.org/1999/xlink">
    <!-- Generator: Sketch 64 (93537) - https://sketch.com -->
    <title>Shape</title>
    <desc>Created with Sketch.</desc>
    <g id="Page-1" stroke="none" stroke-width="1" fill="none" fill-rule="evenodd" opacity="0.229478234">
        <g id="Help-Screen" transform="translate(-598.000000, -392.000000)" fill="#FFFFFF" fill-rule="nonzero">
            <g id="Group-11" transform="translate(598.000000, 309.000000)">
                <g id="Group-10">
                    <g id="Group-9">
                        <g id="Group-4">
                            <g id="Shape-2">
                                <g transform="translate(-85.207430, 83.247423)" id="Shape">
                                    <path d="M61.1495894,83.6634385 L46.1574302,121.804124 L33.1954914,121.804124 L48.1845651,83.6634385 L61.1495894,83.6634385 Z M82.5757337,83.6634385 C84.2517003,83.6634385 85.6094251,84.6754534 85.6094251,85.923486 C85.6094251,86.0101052 85.5994745,86.0935458 85.5847855,86.1759268 L85.5598497,86.2989686 L71.0934441,121.804124 L57.6553271,121.804124 L68.7442124,94.5905774 C69.0760717,93.7756772 68.2921471,92.9529311 67.1711087,92.903816 L67.0650475,92.9015018 L63.9737849,92.9015018 L67.7399118,83.6634385 L82.5757337,83.6634385 Z M131.034834,83.6634385 L119.945315,110.876985 C119.614987,111.691885 120.3975,112.514631 121.519971,112.563746 L121.626175,112.56606 L124.717614,112.56606 L120.951272,121.804124 L106.113002,121.804124 C104.438539,121.804124 103.080736,120.792109 103.080736,119.544076 C103.080736,119.457457 103.090688,119.374016 103.105377,119.291635 L103.130315,119.168594 L117.597548,83.6634385 L131.034834,83.6634385 Z M179.954506,83.6634385 L164.965432,121.804124 L152.000408,121.804124 L166.992567,83.6634385 L179.954506,83.6634385 Z M158.988932,83.6634385 L147.900047,110.876985 C147.568188,111.691885 148.352112,112.514631 149.473151,112.563746 L149.579212,112.56606 L152.670475,112.56606 L148.904348,121.804124 L134.068526,121.804124 C132.392559,121.804124 131.034834,120.792109 131.034834,119.544076 C131.034834,119.457457 131.044785,119.374016 131.059474,119.291635 L131.08441,119.168594 L145.550815,83.6634385 L158.988932,83.6634385 Z M107.036995,83.6634385 C108.711458,83.6634385 110.069261,84.6754534 110.069261,85.923486 C110.069261,86.0101052 110.05931,86.0935458 110.04462,86.1759268 L110.019683,86.2989686 L95.5524494,121.804124 L82.1151629,121.804124 L93.2046826,94.5905774 C93.53501,93.7756772 92.7524974,92.9529311 91.6300264,92.903816 L91.5238224,92.9015018 L88.4323829,92.9015018 L92.1987254,83.6634385 L107.036995,83.6634385 Z M172.965981,40.6013746 L157.973822,78.7420598 L145.011883,78.7420598 L160.000957,40.6013746 L172.965981,40.6013746 Z M194.392126,40.6013746 C196.068092,40.6013746 197.425817,41.6133895 197.425817,42.861422 C197.425817,42.9480413 197.415866,43.0314819 197.401177,43.1138629 L197.376242,43.2369046 L182.909836,78.7420598 L169.471719,78.7420598 L180.560604,51.5285134 C180.892464,50.7136132 180.108539,49.8908671 178.987501,49.841752 L178.881439,49.8394379 L175.790177,49.8394379 L179.556304,40.6013746 L194.392126,40.6013746 Z M242.851226,40.6013746 L231.761707,67.8149209 C231.431379,68.6298211 232.213892,69.4525672 233.336363,69.5016823 L233.442567,69.5039965 L236.534006,69.5039965 L232.767664,78.7420598 L217.929394,78.7420598 C216.254931,78.7420598 214.897128,77.7300448 214.897128,76.4820123 C214.897128,76.395393 214.907079,76.3119525 214.921769,76.2295715 L214.946707,76.1065297 L229.41394,40.6013746 L242.851226,40.6013746 Z M27.954098,40.6013746 L12.9619388,78.7420598 L0,78.7420598 L14.9890737,40.6013746 L27.954098,40.6013746 Z M49.3802423,40.6013746 C51.0562089,40.6013746 52.4139337,41.6133895 52.4139337,42.861422 C52.4139337,42.9480413 52.4039831,43.0314819 52.3892941,43.1138629 L52.3643583,43.2369046 L37.8979527,78.7420598 L24.4598357,78.7420598 L35.5487211,51.5285134 C35.8805803,50.7136132 35.0966557,49.8908671 33.9756173,49.841752 L33.8695561,49.8394379 L30.7782935,49.8394379 L34.5444204,40.6013746 L49.3802423,40.6013746 Z M97.839343,40.6013746 L86.7498232,67.8149209 C86.4194959,68.6298211 87.2020084,69.4525672 88.3244794,69.5016823 L88.4306835,69.5039965 L91.522123,69.5039965 L87.7557805,78.7420598 L72.9175105,78.7420598 C71.2430474,78.7420598 69.885245,77.7300448 69.885245,76.4820123 C69.885245,76.395393 69.8951961,76.3119525 69.909886,76.2295715 L69.9348232,76.1065297 L84.4020564,40.6013746 L97.839343,40.6013746 Z M73.8415039,40.6013746 C75.5159671,40.6013746 76.8737695,41.6133895 76.8737695,42.861422 C76.8737695,42.9480413 76.8638183,43.0314819 76.8491285,43.1138629 L76.8241913,43.2369046 L62.356958,78.7420598 L48.9196715,78.7420598 L60.0091912,51.5285134 C60.3395186,50.7136132 59.5570061,49.8908671 58.434535,49.841752 L58.328331,49.8394379 L55.2368915,49.8394379 L59.003234,40.6013746 L73.8415039,40.6013746 Z M146.759014,40.6013746 L131.769941,78.7420598 L118.804916,78.7420598 L133.797076,40.6013746 L146.759014,40.6013746 Z M122.299179,40.6013746 L111.210293,67.8149209 C110.878434,68.6298211 111.662359,69.4525672 112.783397,69.5016823 L112.889458,69.5039965 L115.980721,69.5039965 L112.214594,78.7420598 L97.3787721,78.7420598 C95.7028055,78.7420598 94.3450807,77.7300448 94.3450807,76.4820123 C94.3450807,76.395393 94.3550314,76.3119525 94.3697204,76.2295715 L94.3946562,76.1065297 L108.861062,40.6013746 L122.299179,40.6013746 Z M218.853387,40.6013746 C220.52785,40.6013746 221.885653,41.6133895 221.885653,42.861422 C221.885653,42.9480413 221.875702,43.0314819 221.861012,43.1138629 L221.836075,43.2369046 L207.368841,78.7420598 L193.931555,78.7420598 L205.021075,51.5285134 C205.351402,50.7136132 204.568889,49.8908671 203.446418,49.841752 L203.340214,49.8394379 L200.248775,49.8394379 L204.015117,40.6013746 L218.853387,40.6013746 Z M291.770898,40.6013746 L276.781824,78.7420598 L263.8168,78.7420598 L278.808959,40.6013746 L291.770898,40.6013746 Z M267.311062,40.6013746 L256.222177,67.8149209 C255.890318,68.6298211 256.674242,69.4525672 257.795281,69.5016823 L257.901342,69.5039965 L260.992604,69.5039965 L257.226477,78.7420598 L242.390655,78.7420598 C240.714689,78.7420598 239.356964,77.7300448 239.356964,76.4820123 C239.356964,76.395393 239.366915,76.3119525 239.381604,76.2295715 L239.40654,76.1065297 L253.872945,40.6013746 L267.311062,40.6013746 Z M90.8508185,0 L75.8586593,38.1406852 L62.8967205,38.1406852 L77.8857942,0 L90.8508185,0 Z M112.276963,0 C113.952929,0 115.310654,1.01201493 115.310654,2.26004747 C115.310654,2.34666674 115.300704,2.43010731 115.286015,2.51248832 L115.261079,2.63553005 L100.794673,38.1406852 L87.3565562,38.1406852 L98.4454416,10.9271388 C98.7773008,10.1122387 97.9933762,9.28949257 96.8723378,9.24037748 L96.7662766,9.23806328 L93.675014,9.23806328 L97.4411409,0 L112.276963,0 Z M158.988932,0 L147.899413,27.2135464 C147.569085,28.0284465 148.351598,28.8511926 149.474069,28.9003077 L149.580273,28.9026219 L152.671712,28.9026219 L148.90537,38.1406852 L134.0671,38.1406852 C132.392637,38.1406852 131.034834,37.1286703 131.034834,35.8806377 C131.034834,35.7940185 131.044786,35.7105779 131.059475,35.6281969 L131.084413,35.5051552 L145.551646,0 L158.988932,0 Z M136.738224,0 C138.412688,0 139.77049,1.01201493 139.77049,2.26004747 C139.77049,2.34666674 139.760539,2.43010731 139.745849,2.51248832 L139.720912,2.63553005 L125.253679,38.1406852 L111.816392,38.1406852 L122.905912,10.9271388 C123.236239,10.1122387 122.453727,9.28949257 121.331256,9.24037748 L121.225051,9.23806328 L118.133612,9.23806328 L121.899954,0 L136.738224,0 Z M185.195899,0 L174.107014,27.2135464 C173.775155,28.0284465 174.559079,28.8511926 175.680118,28.9003077 L175.786179,28.9026219 L178.877441,28.9026219 L175.111315,38.1406852 L160.275493,38.1406852 C158.599526,38.1406852 157.241801,37.1286703 157.241801,35.8806377 C157.241801,35.7940185 157.251752,35.7105779 157.266441,35.6281969 L157.291377,35.5051552 L171.757782,0 L185.195899,0 Z M209.655735,0 L194.666661,38.1406852 L181.701637,38.1406852 L196.693796,0 L209.655735,0 Z"></path>
                                </g>
                            </g>
                        </g>
                    </g>
                </g>
            </g>
        </g>
    </g>
</svg>