<?xml version="1.0" encoding="UTF-8"?>
<svg width="114px" height="112px" viewBox="0 0 114 112" version="1.1" xmlns="http://www.w3.org/2000/svg" xmlns:xlink="http://www.w3.org/1999/xlink">
    <!-- Generator: Sketch 64 (93537) - https://sketch.com -->
    <title>Shape</title>
    <desc>Created with Sketch.</desc>
    <g id="Page-1" stroke="none" stroke-width="1" fill="none" fill-rule="evenodd" opacity="0.229478234">
        <g id="Help-Screen---1" transform="translate(-803.000000, -329.000000)" fill="#FFFFFF" fill-rule="nonzero">
            <g id="Group-4" transform="translate(546.000000, 323.000000)">
                <g id="Shape-2" transform="translate(257.000000, 6.000000)">
                    <path d="M53.4409633,76.9950016 L40.3895985,111.752577 L29.1056339,111.752577 L42.1543127,76.9950016 L53.4409633,76.9950016 Z M72.0934084,76.9950016 C73.5524145,76.9950016 74.7343764,77.91725 74.7343764,79.054581 C74.7343764,79.1335171 74.725714,79.2095564 74.7129265,79.2846301 L74.6912188,79.396758 L62.0975466,111.752577 L50.3990471,111.752577 L60.0524323,86.9528944 C60.341331,86.2102765 59.6588886,85.4605087 58.6829731,85.4157501 L58.5906419,85.4136412 L55.8995555,85.4136412 L59.1781424,76.9950016 L72.0934084,76.9950016 Z M114.279287,76.9950016 L104.625349,101.794684 C104.337784,102.537302 105.018997,103.28707 105.99616,103.331829 L106.088615,103.333938 L108.779856,103.333938 L105.501081,111.752577 L92.5836841,111.752577 C91.1259868,111.752577 89.9439573,110.830329 89.9439573,109.692998 C89.9439573,109.614062 89.9526202,109.538022 89.9654084,109.462949 L89.9871174,109.350821 L102.58151,76.9950016 L114.279287,76.9950016 Z M93.3880628,76.9950016 C94.8457601,76.9950016 96.0277896,77.91725 96.0277896,79.054581 C96.0277896,79.1335171 96.0191267,79.2095564 96.0063385,79.2846301 L95.9846295,79.396758 L83.3902369,111.752577 L71.6924603,111.752577 L81.3463978,86.9528944 C81.633963,86.2102765 80.9527498,85.4605087 79.9755871,85.4157501 L79.8831316,85.4136412 L77.1918912,85.4136412 L80.4706657,76.9950016 L93.3880628,76.9950016 Z M24.5427597,37.7525773 L11.4913949,72.5101531 L0.207430341,72.5101531 L13.2561091,37.7525773 L24.5427597,37.7525773 Z M43.1952048,37.7525773 C44.6542109,37.7525773 45.8361729,38.6748257 45.8361729,39.8121568 C45.8361729,39.8910928 45.8275104,39.9671322 45.8147229,40.0422059 L45.7930152,40.1543337 L33.199343,72.5101531 L21.5008435,72.5101531 L31.1542287,47.7104702 C31.4431275,46.9678523 30.760685,46.2180844 29.7847695,46.1733259 L29.6924383,46.171217 L27.0013519,46.171217 L30.2799388,37.7525773 L43.1952048,37.7525773 Z M85.381083,37.7525773 L75.7271455,62.5522602 C75.4395803,63.2948781 76.1207935,64.044646 77.0979562,64.0894045 L77.1904118,64.0915134 L79.8816522,64.0915134 L76.6028776,72.5101531 L63.6854805,72.5101531 C62.2277832,72.5101531 61.0457537,71.5879047 61.0457537,70.4505736 C61.0457537,70.3716376 61.0544166,70.2955982 61.0672048,70.2205245 L61.0889138,70.1083967 L73.6833064,37.7525773 L85.381083,37.7525773 Z M64.4898593,37.7525773 C65.9475566,37.7525773 67.129586,38.6748257 67.129586,39.8121568 C67.129586,39.8910928 67.1209231,39.9671322 67.1081349,40.0422059 L67.0864259,40.1543337 L54.4920333,72.5101531 L42.7942567,72.5101531 L52.4481942,47.7104702 C52.7357594,46.9678523 52.0545462,46.2180844 51.0773835,46.1733259 L50.984928,46.171217 L48.2936876,46.171217 L51.5724621,37.7525773 L64.4898593,37.7525773 Z M127.967909,37.7525773 L114.919231,72.5101531 L103.63258,72.5101531 L116.683945,37.7525773 L127.967909,37.7525773 Z M106.674496,37.7525773 L97.021111,62.5522602 C96.7322123,63.2948781 97.4146547,64.044646 98.3905702,64.0894045 L98.4829014,64.0915134 L101.173988,64.0915134 L97.8954009,72.5101531 L84.9801349,72.5101531 C83.5211288,72.5101531 82.3391669,71.5879047 82.3391669,70.4505736 C82.3391669,70.3716376 82.3478294,70.2955982 82.3606168,70.2205245 L82.3823246,70.1083967 L94.9759967,37.7525773 L106.674496,37.7525773 Z M79.2972507,0.75257732 L66.2458859,35.5101531 L54.9619214,35.5101531 L68.0106002,0.75257732 L79.2972507,0.75257732 Z M97.9496958,0.75257732 C99.4087019,0.75257732 100.590664,1.67482571 100.590664,2.81215677 C100.590664,2.89109283 100.582001,2.96713216 100.569214,3.0422059 L100.547506,3.15433373 L87.9538341,35.5101531 L76.2553345,35.5101531 L85.9087197,10.7104702 C86.1976185,9.96785229 85.5151761,9.21808443 84.5392605,9.17332588 L84.4469293,9.17121696 L81.7558429,9.17121696 L85.0344298,0.75257732 L97.9496958,0.75257732 Z M119.24435,0.75257732 C120.702048,0.75257732 121.884077,1.67482571 121.884077,2.81215677 C121.884077,2.89109283 121.875414,2.96713216 121.862626,3.0422059 L121.840917,3.15433373 L109.246524,35.5101531 L97.5487477,35.5101531 L107.202685,10.7104702 C107.49025,9.96785229 106.809037,9.21808443 105.831874,9.17332588 L105.739419,9.17121696 L103.048179,9.17121696 L106.326953,0.75257732 L119.24435,0.75257732 Z" id="Shape"></path>
                </g>
            </g>
        </g>
    </g>
</svg>