<?xml version="1.0" encoding="UTF-8"?>
<svg width="466px" height="321px" viewBox="0 0 466 321" version="1.1" xmlns="http://www.w3.org/2000/svg" xmlns:xlink="http://www.w3.org/1999/xlink">
    <!-- Generator: Sketch 64 (93537) - https://sketch.com -->
    <title>Combined Shape</title>
    <desc>Created with Sketch.</desc>
    <g id="Page-1" stroke="none" stroke-width="1" fill="none" fill-rule="evenodd" opacity="0.100000001">
        <g id="Help-Screen---2" transform="translate(-900.000000, 0.000000)" fill="#9CA0DC">
            <path d="M1092.00667,154.523985 L1042.37979,321 L999.473333,321 L1049.08999,154.523985 L1092.00667,154.523985 Z M1149.8044,154.523985 C1154.93608,154.523985 1159.09333,158.941216 1159.09333,164.388614 C1159.09333,164.766689 1159.06287,165.130889 1159.01789,165.490465 L1158.94154,166.027516 L1114.6465,321 L1073.5,321 L1107.45333,202.218633 C1108.46946,198.661766 1106.06914,195.070653 1102.6366,194.856276 L1102.31185,194.846175 L1092.84664,194.846175 L1104.37824,154.523985 L1149.8044,154.523985 Z M1300.20667,154.523985 L1266.2514,273.305353 C1265.23996,276.862219 1267.63595,280.453332 1271.07287,280.667709 L1271.39806,280.67781 L1280.86382,280.67781 L1269.33156,321 L1223.8979,321 C1218.77082,321 1214.61333,316.582769 1214.61333,311.135371 C1214.61333,310.757297 1214.6438,310.393096 1214.68878,310.033521 L1214.76514,309.496469 L1259.06271,154.523985 L1300.20667,154.523985 Z M1452.88667,154.523985 L1403.27001,321 L1360.35333,321 L1409.98021,154.523985 L1452.88667,154.523985 Z M1376.54667,154.523985 L1342.59334,273.305353 C1341.57721,276.862219 1343.97753,280.453332 1347.41006,280.667709 L1347.73481,280.67781 L1357.20003,280.67781 L1345.66843,321 L1300.24227,321 C1295.11058,321 1290.95333,316.582769 1290.95333,311.135371 C1290.95333,310.757297 1290.9838,310.393096 1291.02878,310.033521 L1291.10513,309.496469 L1335.40017,154.523985 L1376.54667,154.523985 Z M1226.14877,154.523985 C1231.27585,154.523985 1235.43333,158.941216 1235.43333,164.388614 C1235.43333,164.766689 1235.40286,165.130889 1235.35788,165.490465 L1235.28153,166.027516 L1190.98395,321 L1149.84,321 L1183.79527,202.218633 C1184.80671,198.661766 1182.41071,195.070653 1178.97379,194.856276 L1178.6486,194.846175 L1169.18285,194.846175 L1180.71511,154.523985 L1226.14877,154.523985 Z M1422.81333,-30.9778598 L1373.18646,135.498155 L1330.28,135.498155 L1379.89666,-30.9778598 L1422.81333,-30.9778598 Z M1482.9244,-30.9778598 C1488.05608,-30.9778598 1492.21333,-26.5606289 1492.21333,-21.1132311 C1492.21333,-20.7351564 1492.18287,-20.3709559 1492.13789,-20.0113803 L1492.06154,-19.4743292 L1447.7665,135.498155 L1406.62,135.498155 L1440.57333,16.7167875 C1441.58946,13.1599208 1439.18914,9.56880829 1435.7566,9.35443128 L1435.43185,9.34433032 L1425.96664,9.34433032 L1437.49824,-30.9778598 L1482.9244,-30.9778598 Z M1568,53.622 L1568,135.498 L1557.0179,135.498155 C1551.89082,135.498155 1547.73333,131.080924 1547.73333,125.633526 C1547.73333,125.255452 1547.7638,124.891251 1547.80878,124.531675 L1547.88514,123.994624 L1568,53.622 Z M992.533333,-30.9778598 L942.906461,135.498155 L900,135.498155 L949.616659,-30.9778598 L992.533333,-30.9778598 Z M1048.01773,-30.9778598 C1053.14942,-30.9778598 1057.30667,-26.5606289 1057.30667,-21.1132311 C1057.30667,-20.7351564 1057.2762,-20.3709559 1057.23122,-20.0113803 L1057.15487,-19.4743292 L1012.85983,135.498155 L971.713333,135.498155 L1005.66666,16.7167875 C1006.68279,13.1599208 1004.28247,9.56880829 1000.84994,9.35443128 L1000.52519,9.34433032 L991.059973,9.34433032 L1002.59157,-30.9778598 L1048.01773,-30.9778598 Z M1198.42,-30.9778598 L1164.46473,87.8035077 C1163.45329,91.3603744 1165.84929,94.9514869 1169.28621,95.1658639 L1169.6114,95.1759649 L1179.07715,95.1759649 L1167.54489,135.498155 L1122.11123,135.498155 C1116.98415,135.498155 1112.82667,131.080924 1112.82667,125.633526 C1112.82667,125.255452 1112.85714,124.891251 1112.90212,124.531675 L1112.97847,123.994624 L1157.27605,-30.9778598 L1198.42,-30.9778598 Z M1126.67543,-33.3560886 C1131.80251,-33.3560886 1135.96,-28.9388577 1135.96,-23.4914599 C1135.96,-23.1133852 1135.92953,-22.7491847 1135.88455,-22.3896091 L1135.8082,-21.852558 L1091.51062,133.119926 L1050.36667,133.119926 L1084.32194,14.3385587 C1085.33337,10.781692 1082.93738,7.19057951 1079.50046,6.9762025 L1079.17527,6.96610153 L1069.70952,6.96610153 L1081.24177,-33.3560886 L1126.67543,-33.3560886 Z M1348.78667,-33.3560886 L1299.17001,133.119926 L1256.25333,133.119926 L1305.88021,-33.3560886 L1348.78667,-33.3560886 Z M1277.07333,-33.3560886 L1243.12001,85.4252789 C1242.10388,88.9821456 1244.5042,92.5732581 1247.93673,92.7876351 L1248.26148,92.7977361 L1257.72669,92.7977361 L1246.1951,133.119926 L1200.76893,133.119926 C1195.63725,133.119926 1191.48,128.702695 1191.48,123.255298 C1191.48,122.877223 1191.51047,122.513022 1191.55544,122.153447 L1191.6318,121.616396 L1235.92684,-33.3560886 L1277.07333,-33.3560886 Z M1556.95543,-33.3560886 C1562.08251,-33.3560886 1566.24,-28.9388577 1566.24,-23.4914599 C1566.24,-23.1133852 1566.20953,-22.7491847 1566.16455,-22.3896091 L1566.0882,-21.852558 L1521.79062,133.119926 L1480.64667,133.119926 L1514.60194,14.3385587 C1515.61337,10.781692 1513.21738,7.19057951 1509.78046,6.9762025 L1509.45527,6.96610153 L1499.98952,6.96610153 L1511.52177,-33.3560886 L1556.95543,-33.3560886 Z M1175.28667,-214.101476 L1125.65979,-47.6254613 L1082.75333,-47.6254613 L1132.36999,-214.101476 L1175.28667,-214.101476 Z M1235.39773,-214.101476 C1240.52942,-214.101476 1244.68667,-209.684245 1244.68667,-204.236847 C1244.68667,-203.858773 1244.6562,-203.494572 1244.61122,-203.134997 L1244.53487,-202.597945 L1200.23983,-47.6254613 L1159.09333,-47.6254613 L1193.04666,-166.406829 C1194.06279,-169.963695 1191.66247,-173.554808 1188.22994,-173.769185 L1187.90519,-173.779286 L1178.43997,-173.779286 L1189.97157,-214.101476 L1235.39773,-214.101476 Z M1385.8,-214.101476 L1351.84473,-95.3201085 C1350.83329,-91.7632418 1353.22929,-88.1721293 1356.66621,-87.9577523 L1356.9914,-87.9476513 L1366.45715,-87.9476513 L1354.92489,-47.6254613 L1309.49123,-47.6254613 C1304.36415,-47.6254613 1300.20667,-52.0426921 1300.20667,-57.4900899 C1300.20667,-57.8681647 1300.23714,-58.2323651 1300.28212,-58.5919407 L1300.35847,-59.1289919 L1344.65605,-214.101476 L1385.8,-214.101476 Z M1309.42877,-214.101476 C1314.55585,-214.101476 1318.71333,-209.684245 1318.71333,-204.236847 C1318.71333,-203.858773 1318.68286,-203.494572 1318.63788,-203.134997 L1318.56153,-202.597945 L1274.26395,-47.6254613 L1233.12,-47.6254613 L1267.07527,-166.406829 C1268.08671,-169.963695 1265.69071,-173.554808 1262.25379,-173.769185 L1261.9286,-173.779286 L1252.46285,-173.779286 L1263.99511,-214.101476 L1309.42877,-214.101476 Z M1459.82667,-214.101476 L1425.87334,-95.3201085 C1424.85721,-91.7632418 1427.25753,-88.1721293 1430.69006,-87.9577523 L1431.01481,-87.9476513 L1440.48003,-87.9476513 L1428.94843,-47.6254613 L1383.52227,-47.6254613 C1378.39058,-47.6254613 1374.23333,-52.0426921 1374.23333,-57.4900899 C1374.23333,-57.8681647 1374.2638,-58.2323651 1374.30878,-58.5919407 L1374.38513,-59.1289919 L1418.68017,-214.101476 L1459.82667,-214.101476 Z M1536.16667,-214.101476 L1486.55001,-47.6254613 L1443.63333,-47.6254613 L1493.26021,-214.101476 L1536.16667,-214.101476 Z M1524.394,-442 L1521.79316,-432.898524 L1480.64667,-432.898524 L1483.248,-442 L1524.394,-442 Z M1454.552,-442 L1451.83979,-432.898524 L1408.93333,-432.898524 L1411.645,-442 L1454.552,-442 Z M1568,-442 L1568,-432.899 L1556.98667,-432.898524 L1559.588,-442 L1568,-442 Z" id="Combined-Shape"></path>
        </g>
    </g>
</svg>