<?xml version="1.0" encoding="UTF-8"?>
<svg width="212px" height="191px" viewBox="0 0 212 191" version="1.1" xmlns="http://www.w3.org/2000/svg" xmlns:xlink="http://www.w3.org/1999/xlink">
    <!-- Generator: Sketch 64 (93537) - https://sketch.com -->
    <title>Combined Shape</title>
    <desc>Created with Sketch.</desc>
    <g id="Page-1" stroke="none" stroke-width="1" fill="none" fill-rule="evenodd" opacity="0.65">
        <g id="Help-Screen---1" transform="translate(-1113.000000, -75.000000)" fill="#525CD7">
            <path d="M1202.08667,190.9631 L1179.06094,266 L1159.15333,266 L1182.17432,190.9631 L1202.08667,190.9631 Z M1228.90348,190.9631 C1231.28446,190.9631 1233.21333,192.954109 1233.21333,195.409453 C1233.21333,195.579865 1233.1992,195.744024 1233.17833,195.906098 L1233.1429,196.148167 L1212.59103,266 L1193.5,266 L1209.25356,212.460842 C1209.72502,210.857631 1208.61133,209.238983 1207.01871,209.142356 L1206.86804,209.137803 L1202.47639,209.137803 L1207.82679,190.9631 L1228.90348,190.9631 Z M1298.68667,190.9631 L1282.9322,244.502258 C1282.46292,246.105469 1283.57461,247.724116 1285.16926,247.820744 L1285.32014,247.825297 L1289.71203,247.825297 L1284.36133,266 L1263.28116,266 C1260.90231,266 1258.97333,264.008991 1258.97333,261.553647 C1258.97333,261.383235 1258.98747,261.219076 1259.00834,261.057002 L1259.04377,260.814933 L1279.59682,190.9631 L1298.68667,190.9631 Z M1369.52667,190.9631 L1346.50568,266 L1326.59333,266 L1349.61906,190.9631 L1369.52667,190.9631 Z M1334.10667,190.9631 L1318.35311,244.502258 C1317.88165,246.105469 1318.99534,247.724116 1320.58795,247.820744 L1320.73863,247.825297 L1325.13027,247.825297 L1319.77988,266 L1298.70318,266 C1296.3222,266 1294.39333,264.008991 1294.39333,261.553647 C1294.39333,261.383235 1294.40747,261.219076 1294.42834,261.057002 L1294.46376,260.814933 L1315.01564,190.9631 L1334.10667,190.9631 Z M1264.32551,190.9631 C1266.70435,190.9631 1268.63333,192.954109 1268.63333,195.409453 C1268.63333,195.579865 1268.6192,195.744024 1268.59833,195.906098 L1268.5629,196.148167 L1248.00985,266 L1228.92,266 L1244.67446,212.460842 C1245.14375,210.857631 1244.03206,209.238983 1242.43741,209.142356 L1242.28653,209.137803 L1237.89464,209.137803 L1243.24534,190.9631 L1264.32551,190.9631 Z M1355.57333,107.350554 L1332.54761,182.387454 L1312.64,182.387454 L1335.66099,107.350554 L1355.57333,107.350554 Z M1383.46348,107.350554 C1385.84446,107.350554 1387.77333,109.341563 1387.77333,111.796907 C1387.77333,111.967319 1387.7592,112.131478 1387.73833,112.293552 L1387.7029,112.53562 L1367.15103,182.387454 L1348.06,182.387454 L1363.81356,128.848296 C1364.28502,127.245085 1363.17133,125.626437 1361.57871,125.52981 L1361.42804,125.525257 L1357.03639,125.525257 L1362.38679,107.350554 L1383.46348,107.350554 Z M1423,145.265 L1423,182.387 L1417.84116,182.387454 C1415.46231,182.387454 1413.53333,180.396444 1413.53333,177.941101 C1413.53333,177.770688 1413.54747,177.60653 1413.56834,177.444456 L1413.60377,177.202387 L1423,145.265 Z M1155.93333,107.350554 L1132.90761,182.387454 L1113,182.387454 L1136.02099,107.350554 L1155.93333,107.350554 Z M1181.67682,107.350554 C1184.0578,107.350554 1185.98667,109.341563 1185.98667,111.796907 C1185.98667,111.967319 1185.97253,112.131478 1185.95166,112.293552 L1185.91624,112.53562 L1165.36436,182.387454 L1146.27333,182.387454 L1162.02689,128.848296 C1162.49835,127.245085 1161.38466,125.626437 1159.79205,125.52981 L1159.64137,125.525257 L1155.24973,125.525257 L1160.60012,107.350554 L1181.67682,107.350554 Z M1251.46,107.350554 L1235.70554,160.889711 C1235.23625,162.492923 1236.34794,164.11157 1237.94259,164.208198 L1238.09347,164.212751 L1242.48536,164.212751 L1237.13466,182.387454 L1216.05449,182.387454 C1213.67565,182.387454 1211.74667,180.396444 1211.74667,177.941101 C1211.74667,177.770688 1211.7608,177.60653 1211.78167,177.444456 L1211.8171,177.202387 L1232.37015,107.350554 L1251.46,107.350554 Z M1218.17217,106.278598 C1220.55102,106.278598 1222.48,108.269607 1222.48,110.724951 C1222.48,110.895363 1222.46586,111.059522 1222.44499,111.221596 L1222.40957,111.463665 L1201.85651,181.315498 L1182.76667,181.315498 L1198.52113,127.77634 C1198.99041,126.173129 1197.87873,124.554482 1196.28407,124.457854 L1196.13319,124.453301 L1191.7413,124.453301 L1197.092,106.278598 L1218.17217,106.278598 Z M1321.22667,106.278598 L1298.20568,181.315498 L1278.29333,181.315498 L1301.31906,106.278598 L1321.22667,106.278598 Z M1287.95333,106.278598 L1272.19977,159.817756 C1271.72831,161.420967 1272.842,163.039614 1274.43462,163.136242 L1274.5853,163.140795 L1278.97694,163.140795 L1273.62654,181.315498 L1252.54985,181.315498 C1250.16887,181.315498 1248.24,179.324489 1248.24,176.869145 C1248.24,176.698733 1248.25414,176.534574 1248.275,176.3725 L1248.31043,176.130431 L1268.86231,106.278598 L1287.95333,106.278598 Z M1417.81217,106.278598 C1420.19102,106.278598 1422.12,108.269607 1422.12,110.724951 C1422.12,110.895363 1422.10586,111.059522 1422.08499,111.221596 L1422.04957,111.463665 L1401.49651,181.315498 L1382.40667,181.315498 L1398.16113,127.77634 C1398.63041,126.173129 1397.51873,124.554482 1395.92407,124.457854 L1395.77319,124.453301 L1391.3813,124.453301 L1396.732,106.278598 L1417.81217,106.278598 Z M1240.72667,24.8099631 L1217.70094,99.8468635 L1197.79333,99.8468635 L1220.81432,24.8099631 L1240.72667,24.8099631 Z M1268.61682,24.8099631 C1270.9978,24.8099631 1272.92667,26.8009725 1272.92667,29.2563163 C1272.92667,29.4267286 1272.91253,29.5908872 1272.89166,29.7529612 L1272.85624,29.99503 L1252.30436,99.8468635 L1233.21333,99.8468635 L1248.96689,46.3077056 C1249.43835,44.7044941 1248.32466,43.0858468 1246.73205,42.9892192 L1246.58137,42.9846663 L1242.18973,42.9846663 L1247.54012,24.8099631 L1268.61682,24.8099631 Z M1338.4,24.8099631 L1322.64554,78.349121 C1322.17625,79.9523324 1323.28794,81.5709797 1324.88259,81.6676074 L1325.03347,81.6721603 L1329.42536,81.6721603 L1324.07466,99.8468635 L1302.99449,99.8468635 C1300.61565,99.8468635 1298.68667,97.8558541 1298.68667,95.4005103 C1298.68667,95.230098 1298.7008,95.0659394 1298.72167,94.9038653 L1298.7571,94.6617965 L1319.31015,24.8099631 L1338.4,24.8099631 Z M1302.96551,24.8099631 C1305.34435,24.8099631 1307.27333,26.8009725 1307.27333,29.2563163 C1307.27333,29.4267286 1307.2592,29.5908872 1307.23833,29.7529612 L1307.2029,29.99503 L1286.64985,99.8468635 L1267.56,99.8468635 L1283.31446,46.3077056 C1283.78375,44.7044941 1282.67206,43.0858468 1281.07741,42.9892192 L1280.92653,42.9846663 L1276.53464,42.9846663 L1281.88534,24.8099631 L1302.96551,24.8099631 Z M1372.74667,24.8099631 L1356.99311,78.349121 C1356.52165,79.9523324 1357.63534,81.5709797 1359.22795,81.6676074 L1359.37863,81.6721603 L1363.77027,81.6721603 L1358.41988,99.8468635 L1337.34318,99.8468635 C1334.9622,99.8468635 1333.03333,97.8558541 1333.03333,95.4005103 C1333.03333,95.230098 1333.04747,95.0659394 1333.06834,94.9038653 L1333.10376,94.6617965 L1353.65564,24.8099631 L1372.74667,24.8099631 Z M1408.16667,24.8099631 L1385.14568,99.8468635 L1365.23333,99.8468635 L1388.25906,24.8099631 L1408.16667,24.8099631 Z M1402.73,-78 L1401.49769,-73.8099631 L1382.40667,-73.8099631 L1383.639,-78 L1402.73,-78 Z M1370.326,-78 L1369.04094,-73.8099631 L1349.13333,-73.8099631 L1350.418,-78 L1370.326,-78 Z M1423,-78 L1423,-73.81 L1417.82667,-73.8099631 L1419.059,-78 L1423,-78 Z" id="Combined-Shape"></path>
        </g>
    </g>
</svg>