<?xml version="1.0" encoding="UTF-8"?>
<svg width="24px" height="24px" viewBox="0 0 24 24" version="1.1" xmlns="http://www.w3.org/2000/svg" xmlns:xlink="http://www.w3.org/1999/xlink">
    <!-- Generator: Sketch 64 (93537) - https://sketch.com -->
    <title>Group 3</title>
    <desc>Created with Sketch.</desc>
    <g id="Page-1" stroke="none" stroke-width="1" fill="none" fill-rule="evenodd">
        <g id="Help-Screen---2" transform="translate(-134.000000, -61.000000)" fill="#6D6D6D">
            <g id="Group-3" transform="translate(134.000000, 61.000000)">
                <g id="Group-2">
                    <path d="M11.7517241,7.46069873e-14 C18.2420222,7.46069873e-14 23.5034483,5.26142611 23.5034483,11.7517241 C23.5034483,18.2420222 18.2420222,23.5034483 11.7517241,23.5034483 C5.26142611,23.5034483 7.46069873e-14,18.2420222 7.46069873e-14,11.7517241 C7.46069873e-14,5.26142611 5.26142611,7.46069873e-14 11.7517241,7.46069873e-14 Z M11.7517241,1.48965517 C6.08413995,1.48965517 1.48965517,6.08413995 1.48965517,11.7517241 C1.48965517,17.4193083 6.08413995,22.0137931 11.7517241,22.0137931 C17.4193083,22.0137931 22.0137931,17.4193083 22.0137931,11.7517241 C22.0137931,6.08413995 17.4193083,1.48965517 11.7517241,1.48965517 Z M10.2534026,7.68068021 L7.25631642,15.9735475 L4.66509211,15.9735475 L7.66156145,7.68068021 L10.2534026,7.68068021 Z M13.8760736,7.68068021 C14.1901763,7.68068021 14.4446354,7.90072097 14.4446354,8.17207866 L14.4419005,8.21348209 L14.4419005,8.21348209 L14.4353442,8.25371923 L11.7241105,15.9735475 L9.20559437,15.9735475 L11.2838273,10.0565503 C11.3426216,9.88905751 11.214547,9.72004031 11.0228815,9.69303392 L10.9691251,9.68929731 L10.3897735,9.68929731 L11.0956054,7.68068021 L13.8760736,7.68068021 Z M18.5741947,7.6137931 C18.8880157,7.6137931 19.1424893,7.83383387 19.1424893,8.10519156 L19.1397543,8.14659499 L19.1397543,8.14659499 L19.1331976,8.18683212 L16.4218088,15.9066604 L13.9034483,15.9066604 L15.9818001,9.98966316 C16.040323,9.82217041 15.91247,9.6531532 15.7206028,9.62614681 L15.6667802,9.62241021 L15.0873954,9.62241021 L15.7932677,7.6137931 L18.5741947,7.6137931 Z" id="Shape"></path>
                </g>
            </g>
        </g>
    </g>
</svg>