<?xml version="1.0" encoding="UTF-8"?>
<svg width="71px" height="71px" viewBox="0 0 71 71" version="1.1" xmlns="http://www.w3.org/2000/svg" xmlns:xlink="http://www.w3.org/1999/xlink">
    <!-- Generator: Sketch 64 (93537) - https://sketch.com -->
    <title>Group 3</title>
    <desc>Created with Sketch.</desc>
    <g id="Page-1" stroke="none" stroke-width="1" fill="none" fill-rule="evenodd">
        <g id="Help-Screen---1" transform="translate(-288.000000, -378.000000)" fill="#525CD7">
            <g id="Group-3" transform="translate(288.000000, 378.000000)">
                <g id="Group-2">
                    <path d="M35.2551724,2.23820962e-13 C54.7260665,2.23820962e-13 70.5103448,15.7842783 70.5103448,35.2551724 C70.5103448,54.7260665 54.7260665,70.5103448 35.2551724,70.5103448 C15.7842783,70.5103448 2.23820962e-13,54.7260665 2.23820962e-13,35.2551724 C2.23820962e-13,15.7842783 15.7842783,2.23820962e-13 35.2551724,2.23820962e-13 Z M35.2551724,4.46896552 C18.2524198,4.46896552 4.46896552,18.2524198 4.46896552,35.2551724 C4.46896552,52.257925 18.2524198,66.0413793 35.2551724,66.0413793 C52.257925,66.0413793 66.0413793,52.257925 66.0413793,35.2551724 C66.0413793,18.2524198 52.257925,4.46896552 35.2551724,4.46896552 Z M30.7602077,23.0420406 L21.7689493,47.9206424 L13.9952763,47.9206424 L22.9846843,23.0420406 L30.7602077,23.0420406 Z M41.6282208,23.0420406 C42.5705289,23.0420406 43.3339063,23.7021629 43.3339063,24.516236 L43.3257016,24.6404463 L43.3257016,24.6404463 L43.3060327,24.7611577 L35.1723315,47.9206424 L27.6167831,47.9206424 L33.8514818,30.1696508 C34.0278648,29.6671725 33.643641,29.1601209 33.0686446,29.0791018 L32.9073754,29.0678919 L31.1693205,29.0678919 L33.2868162,23.0420406 L41.6282208,23.0420406 Z M55.7225841,22.8413793 C56.664047,22.8413793 57.427468,23.5015016 57.427468,24.3155747 L57.4192628,24.439785 L57.4192628,24.439785 L57.3995928,24.5604964 L49.2654263,47.7199811 L41.7103448,47.7199811 L47.9454002,29.9689895 C48.120969,29.4665112 47.7374101,28.9594596 47.1618085,28.8784404 L47.0003406,28.8672306 L45.2621863,28.8672306 L47.3798032,22.8413793 L55.7225841,22.8413793 Z" id="Shape"></path>
                </g>
            </g>
        </g>
    </g>
</svg>