<?xml version="1.0" encoding="UTF-8"?>
<svg width="65px" height="59px" viewBox="0 0 65 59" version="1.1" xmlns="http://www.w3.org/2000/svg" xmlns:xlink="http://www.w3.org/1999/xlink">
    <!-- Generator: Sketch 64 (93537) - https://sketch.com -->
    <title>noun_referral_1354044</title>
    <desc>Created with Sketch.</desc>
    <g id="Page-1" stroke="none" stroke-width="1" fill="none" fill-rule="evenodd">
        <g id="Help-Screen---1" transform="translate(-294.000000, -650.000000)" fill="#525CD7" fill-rule="nonzero">
            <g id="noun_referral_1354044" transform="translate(294.000000, 650.000000)">
                <path d="M32.1310347,0 C26.1287703,0 21.2620694,4.6911834 21.2620694,10.4769763 C21.2620694,13.4189848 22.5305093,16.0710357 24.5578938,17.974226 L16,32.4084551 L20.723227,35 L29.2917182,20.5476976 C30.2022886,20.7857929 31.1413907,20.9547383 32.1310347,20.9547383 C38.1332991,20.9547383 43,16.2627691 43,10.4769763 C43,4.6911834 38.1332991,0 32.1310347,0 Z M32.1310347,15.7158573 C29.1294949,15.7158573 26.6961444,13.3702656 26.6961444,10.4769763 C26.6961444,7.58368694 29.1294949,5.23888103 32.1310347,5.23888103 C35.1325745,5.23888103 37.5659249,7.58368694 37.5659249,10.4769763 C37.5659249,13.3702656 35.1325745,15.7158573 32.1310347,15.7158573 Z" id="Shape"></path>
                <path d="M21.1939104,45.8749016 C19.9907591,41.3554956 15.8084531,38 10.7879059,38 C4.83040562,38 0,42.7013162 0,48.4996063 C0,54.2978963 4.83040562,59 10.7879059,59 C15.8084531,59 19.9907591,55.643717 21.1939104,51.1250984 L38,51.1250984 L38,45.8749016 L21.1939104,45.8749016 Z M10.7879059,53.7498031 C7.8087512,53.7498031 5.3943575,51.399145 5.3943575,48.4996063 C5.3943575,45.6000675 7.8087512,43.2501969 10.7879059,43.2501969 C13.7670606,43.2501969 16.1822634,45.6000675 16.1822634,48.4996063 C16.1822634,51.399145 13.7670606,53.7498031 10.7879059,53.7498031 Z" id="Shape"></path>
                <path d="M54.1313628,37.0457321 C53.1409335,37.0457321 52.2018598,37.2146738 51.2921321,37.4527637 L42.7238995,23 L38,25.5914867 L46.5576354,40.0253918 C44.5311273,41.9285394 43.2619105,44.5789592 43.2619105,47.5224732 C43.2619105,53.3081361 48.1292796,58 54.1313628,58 C60.133446,58 65,53.3081361 65,47.5224732 C65,41.7368102 60.133446,37.0457321 54.1313628,37.0457321 Z M54.1313628,52.7612366 C51.1299137,52.7612366 48.6966367,50.4156975 48.6966367,47.5224732 C48.6966367,44.6292488 51.1299137,42.2844955 54.1313628,42.2844955 C57.132812,42.2844955 59.5652738,44.6292488 59.5652738,47.5224732 C59.5652738,50.4156975 57.132812,52.7612366 54.1313628,52.7612366 Z" id="Shape"></path>
            </g>
        </g>
    </g>
</svg>