<?xml version="1.0" encoding="UTF-8"?>
<svg width="84px" height="74px" viewBox="0 0 84 74" version="1.1" xmlns="http://www.w3.org/2000/svg" xmlns:xlink="http://www.w3.org/1999/xlink">
    <!-- Generator: Sketch 64 (93537) - https://sketch.com -->
    <title>Group 6</title>
    <desc>Created with Sketch.</desc>
    <g id="Page-1" stroke="none" stroke-width="1" fill="none" fill-rule="evenodd">
        <g id="Help-Screen---1" transform="translate(-1083.000000, -383.000000)">
            <g id="Group-6" transform="translate(1083.000000, 383.000000)">
                <g id="noun_player_2591774-(1)" transform="translate(28.000000, 0.000000)" fill="#525CD7" fill-rule="nonzero">
                    <path d="M18,24 C24.627417,24 30,18.627417 30,12 C30,5.372583 24.627417,0 18,0 C11.372583,0 6,5.372583 6,12 C6.01072548,18.6229693 11.3770307,23.9892745 18,24 Z M18,4.51948052 C21.0466435,4.51162848 23.7969346,6.34292476 24.9646353,9.15692073 C26.1323359,11.9709167 25.4866457,15.2114153 23.3295366,17.3629215 C21.1724276,19.5144277 17.9302606,20.151688 15.1193111,18.9766727 C12.3083615,17.8016574 10.4842243,15.0466128 10.4998985,12 C10.4998985,7.85470132 13.8547152,4.4912586 18,4.48051948 L18,4.51948052 Z" id="Shape"></path>
                    <path d="M51.5666203,35.0818619 C46.3895792,29.764734 38.2553672,29.0207805 32.2476071,33.3149484 C31.7597948,32.6460297 31.2291608,32.0113192 30.659237,31.4150415 C27.3076904,27.9313897 22.7353132,25.9801562 17.9707455,26.0001522 C8.04577683,26.0001522 0,34.2768131 0,44.4864012 L0,53.8149442 C0,54.3977208 0.226288294,54.9563556 0.628615969,55.366653 C1.03094364,55.7769505 1.57594405,56.0049048 2.1424527,55.9999199 L53.8568283,55.9999199 C54.423337,56.0049048 54.9683374,55.7769505 55.3706651,55.366653 C55.7729927,54.9563556 55.9993025,54.3977208 55.999281,53.8149442 L55.999281,46.2153165 C56.0388849,42.0416712 54.440849,38.0279059 51.5666203,35.0818619 Z M4.26643599,44.4864012 C4.27661009,36.7155043 10.3980136,30.4185567 17.9522761,30.4079878 C21.5884587,30.3937051 25.0769844,31.8866583 27.6302521,34.5498879 C28.505882,35.4636728 29.2519914,36.4998055 29.8465825,37.6277372 C31.0324769,39.7094434 31.6691432,42.0737193 31.6935245,44.4864012 L31.6935245,51.6300513 L4.26643599,51.6300513 L4.26643599,44.4864012 Z M51.7513145,51.6300513 L35.9045522,51.6300513 L35.9045522,44.4864012 C35.9031903,43.7561242 35.8600202,43.0265636 35.7752663,42.3015082 C35.7752663,42.0735194 35.7752663,41.8455306 35.6644498,41.6175417 C35.5536332,41.3895529 35.498225,40.6485892 35.3874085,40.1546134 C35.2765919,39.6606376 35.2581225,39.6416385 35.1842448,39.3946506 C35.1103672,39.1476627 34.9072035,38.4826953 34.7409788,38.0457167 C34.574754,37.6087381 34.574754,37.5707399 34.4824069,37.3427511 L34.3900598,37.0767641 C37.7156288,34.5555896 42.1411766,34.1856811 45.8188007,36.1214952 C49.4964248,38.0573092 51.7936703,41.9659365 51.7513145,46.2153165 L51.7513145,51.7060475 L51.7513145,51.6300513 Z" id="Shape"></path>
                    <path d="M43,28 C47.9705627,28 52,23.9705627 52,19 C52,14.0294373 47.9705627,10 43,10 C38.0294373,10 34,14.0294373 34,19 C34.00938,23.9666723 38.0333277,27.99062 43,28 L43,28 Z M43,13.9886364 C45.8241834,13.9886364 48.1136364,16.2780893 48.1136364,19.1022727 C48.1136364,21.9264561 45.8241834,24.2159091 43,24.2159091 C40.1758166,24.2159091 37.8863636,21.9264561 37.8863636,19.1022727 C37.8863636,16.2780893 40.1758166,13.9886364 43,13.9886364 Z" id="Shape"></path>
                </g>
                <g id="noun_dollar_1974092" transform="translate(0.000000, 32.000000)">
                    <path d="M23.054962,18.7556843 L23.054962,10.3204079 C25.8563815,10.7778759 28.0014626,12.4252516 28.0014626,14.327919 L32,14.327919 C32,10.1440042 28.1798443,6.78629533 23.0549377,6.21587456 L23.0549377,2 L19.9450137,2 L19.9450137,6.21586222 C14.8201071,6.78627478 11,10.1439837 11,14.3279067 C11,19.6806309 16.8099524,21.5271488 19.9450137,22.2443239 L19.9450137,30.6795921 C17.1435942,30.2221241 14.9985131,28.5747484 14.9985131,26.672081 L11,26.672081 C11,30.8559958 14.8201314,34.2137047 19.945038,34.7841254 L19.945038,39 L23.0549863,39 L23.0549863,34.7841378 C28.1798929,34.2137252 32,30.8560163 32,26.6720933 C32,21.3193773 26.1900233,19.4728594 23.054962,18.7556843 Z M14.998505,14.3278984 C14.998505,12.4252516 17.1435942,10.7778759 19.9450056,10.3203873 L19.9450056,18.0470192 C16.6648766,17.141769 14.998505,15.8950499 14.998505,14.3278984 Z M23.054962,30.6795921 L23.054962,22.9529808 C26.3350991,23.8582474 28.0014626,25.1049501 28.0014626,26.6721016 C28.0014626,28.5747484 25.8563815,30.2221241 23.054962,30.6795921 Z" id="Shape" fill="#686ED9" fill-rule="nonzero"></path>
                    <circle id="Oval" fill="#F3F3F3" cx="21" cy="21" r="21"></circle>
                </g>
                <g id="noun_dollar_1974092" transform="translate(21.000000, 38.000000)" fill="#525CD7" fill-rule="nonzero">
                    <path d="M10.3328246,14.4914027 L10.3328246,7.19602844 C12.7340413,7.59167644 14.5726823,9.01643378 14.5726823,10.661984 L18,10.661984 C18,7.04346311 14.7255808,4.13949867 10.3328038,3.64616178 L10.3328038,0 L7.6671546,0 L7.6671546,3.64615111 C3.27437754,4.13948089 0,7.04344533 0,10.6619733 C0,15.2913564 4.97995917,16.8883449 7.6671546,17.5086044 L7.6671546,24.8039716 C5.26593792,24.4083236 3.42729693,22.9835662 3.42729693,21.338016 L0,21.338016 C0,24.9565369 3.27439836,27.8605013 7.66717541,28.3538382 L7.66717541,32 L10.3328454,32 L10.3328454,28.3538489 C14.7256225,27.8605191 18,24.9565547 18,21.3380267 C18,16.7086507 13.02002,15.1116622 10.3328246,14.4914027 Z M3.42728999,10.6619662 C3.42728999,9.01643378 5.26593792,7.59167644 7.66714766,7.19601067 L7.66714766,13.8785031 C4.85560852,13.095584 3.42728999,12.0173404 3.42728999,10.6619662 Z M10.3328246,24.8039716 L10.3328246,18.1214969 C13.1443707,18.9044302 14.5726823,19.9826596 14.5726823,21.3380338 C14.5726823,22.9835662 12.7340413,24.4083236 10.3328246,24.8039716 Z" id="Shape"></path>
                </g>
            </g>
        </g>
    </g>
</svg>