<?xml version="1.0" encoding="UTF-8"?>
<svg width="55px" height="30px" viewBox="0 0 55 30" version="1.1" xmlns="http://www.w3.org/2000/svg" xmlns:xlink="http://www.w3.org/1999/xlink">
    <!-- Generator: Sketch 64 (93537) - https://sketch.com -->
    <title>Shape</title>
    <desc>Created with Sketch.</desc>
    <g id="Page-1" stroke="none" stroke-width="1" fill="none" fill-rule="evenodd" opacity="0.198390994">
        <g id="Pre-Draft-Dashboard---Admin" transform="translate(-572.000000, -172.000000)" fill="#F3F2F6" fill-rule="nonzero">
            <g id="Shape-Copy" transform="translate(489.000000, 172.000000)">
                <path d="M99.6418919,44 L94.8041995,64 L90.6216216,64 L95.4583184,44 L99.6418919,44 Z M106.480543,44 C107.021347,44 107.459459,44.5306748 107.459459,45.1851111 C107.459459,45.230532 107.456249,45.2742861 107.451509,45.3174846 L107.443462,45.3820046 L102.775421,64 L98.4391892,64 L102.017367,49.7299122 C102.124452,49.3025994 101.871494,48.8711724 101.509756,48.8454177 L101.475532,48.8442042 L100.478039,48.8442042 L101.693298,44 L106.480543,44 Z M121.290541,44 L117.712158,58.2700878 C117.605567,58.6974006 117.858069,59.1288276 118.22027,59.1545823 L118.25454,59.1557958 L119.252091,59.1557958 L118.036761,64 L113.248726,64 C112.708408,64 112.27027,63.4693252 112.27027,62.8148889 C112.27027,62.769468 112.273481,62.7257139 112.278221,62.6825154 L112.286268,62.6179954 L116.954577,44 L121.290541,44 Z M136.324324,44 L131.487628,64 L127.304054,64 L132.141746,44 L136.324324,44 Z M130.310811,44 L126.732633,58.2700878 C126.625548,58.6974006 126.878506,59.1288276 127.240244,59.1545823 L127.274468,59.1557958 L128.271961,59.1557958 L127.056702,64 L122.269457,64 C121.728653,64 121.290541,63.4693252 121.290541,62.8148889 C121.290541,62.769468 121.293751,62.7257139 121.298491,62.6825154 L121.306538,62.6179954 L125.974579,44 L130.310811,44 Z M113.69722,44 C114.237538,44 114.675676,44.5306748 114.675676,45.1851111 C114.675676,45.230532 114.672465,45.2742861 114.667724,45.3174846 L114.659678,45.3820046 L109.991369,64 L105.655405,64 L109.233788,49.7299122 C109.340379,49.3025994 109.087876,48.8711724 108.725676,48.8454177 L108.691406,48.8442042 L107.693855,48.8442042 L108.909184,44 L113.69722,44 Z M133.918919,21 L129.081227,41 L124.898649,41 L129.735345,21 L133.918919,21 Z M140.156219,21 C140.697022,21 141.135135,21.5306748 141.135135,22.1851111 C141.135135,22.230532 141.131924,22.2742861 141.127184,22.3174846 L141.119138,22.3820046 L136.451097,41 L132.114865,41 L135.693043,26.7299122 C135.800128,26.3025994 135.54717,25.8711724 135.185432,25.8454177 L135.151208,25.8442042 L134.153714,25.8442042 L135.368974,21 L140.156219,21 Z M154.966216,21 L151.387833,35.2700878 C151.281243,35.6974006 151.533745,36.1288276 151.895946,36.1545823 L151.930216,36.1557958 L152.927766,36.1557958 L151.712437,41 L146.924402,41 C146.384084,41 145.945946,40.4693252 145.945946,39.8148889 C145.945946,39.769468 145.949157,39.7257139 145.953897,39.6825154 L145.961944,39.6179954 L150.630252,21 L154.966216,21 Z M90.0202703,21 L85.1825779,41 L81,41 L85.8366968,21 L90.0202703,21 Z M96.2575704,21 C96.7983738,21 97.2364865,21.5306748 97.2364865,22.1851111 C97.2364865,22.230532 97.2332756,22.2742861 97.2285357,22.3174846 L97.2204894,22.3820046 L92.552448,41 L88.2162162,41 L91.7943944,26.7299122 C91.9014792,26.3025994 91.6485212,25.8711724 91.2867829,25.8454177 L91.2525589,25.8442042 L90.2550656,25.8442042 L91.4703251,21 L96.2575704,21 Z M111.067568,21 L107.489185,35.2700878 C107.382594,35.6974006 107.635096,36.1288276 107.997297,36.1545823 L108.031567,36.1557958 L109.029118,36.1557958 L107.813788,41 L103.025753,41 C102.485435,41 102.047297,40.4693252 102.047297,39.8148889 C102.047297,39.769468 102.050508,39.7257139 102.055248,39.6825154 L102.063295,39.6179954 L106.731604,21 L111.067568,21 Z M104.075598,21 C104.615916,21 105.054054,21.5306748 105.054054,22.1851111 C105.054054,22.230532 105.050843,22.2742861 105.046103,22.3174846 L105.038056,22.3820046 L100.369748,41 L96.0337838,41 L99.6121666,26.7299122 C99.7187572,26.3025994 99.4662549,25.8711724 99.1040542,25.8454177 L99.0697841,25.8442042 L98.0722338,25.8442042 L99.2875629,21 L104.075598,21 Z M126.101351,21 L121.264655,41 L117.081081,41 L121.918773,21 L126.101351,21 Z M118.885135,21 L115.306957,35.2700878 C115.199872,35.6974006 115.45283,36.1288276 115.814568,36.1545823 L115.848792,36.1557958 L116.846286,36.1557958 L115.631026,41 L110.843781,41 C110.302978,41 109.864865,40.4693252 109.864865,39.8148889 C109.864865,39.769468 109.868076,39.7257139 109.872816,39.6825154 L109.880862,39.6179954 L114.548903,21 L118.885135,21 Z M147.974247,21 C148.514565,21 148.952703,21.5306748 148.952703,22.1851111 C148.952703,22.230532 148.949492,22.2742861 148.944752,22.3174846 L148.936705,22.3820046 L144.268396,41 L139.932432,41 L143.510815,26.7299122 C143.617406,26.3025994 143.364904,25.8711724 143.002703,25.8454177 L142.968433,25.8442042 L141.970882,25.8442042 L143.186212,21 L147.974247,21 Z M170,21 L165.163303,41 L160.97973,41 L165.817422,21 L170,21 Z M162.783784,21 L159.205606,35.2700878 C159.098521,35.6974006 159.351479,36.1288276 159.713217,36.1545823 L159.747441,36.1557958 L160.744934,36.1557958 L159.529675,41 L154.74243,41 C154.201626,41 153.763514,40.4693252 153.763514,39.8148889 C153.763514,39.769468 153.766724,39.7257139 153.771464,39.6825154 L153.779511,39.6179954 L158.447552,21 L162.783784,21 Z M108.662162,0 L103.82447,20 L99.6418919,20 L104.478589,0 L108.662162,0 Z M115.500814,0 C116.041617,0 116.47973,0.53067475 116.47973,1.1851111 C116.47973,1.23053203 116.476519,1.27428613 116.471779,1.31748462 L116.463733,1.38200456 L111.795691,20 L107.459459,20 L111.037638,5.72991219 C111.144722,5.30259937 110.891764,4.87117236 110.530026,4.84541766 L110.495802,4.84420415 L109.498309,4.84420415 L110.713568,0 L115.500814,0 Z M130.310811,0 L126.732428,14.2700878 C126.625837,14.6974006 126.87834,15.1288276 127.24054,15.1545823 L127.27481,15.1557958 L128.272361,15.1557958 L127.057032,20 L122.268997,20 C121.728678,20 121.290541,19.4693252 121.290541,18.8148889 C121.290541,18.769468 121.293752,18.7257139 121.298492,18.6825154 L121.306539,18.6179954 L125.974847,0 L130.310811,0 Z M122.71749,0 C123.257808,0 123.695946,0.53067475 123.695946,1.1851111 C123.695946,1.23053203 123.692735,1.27428613 123.687995,1.31748462 L123.679948,1.38200456 L119.011639,20 L114.675676,20 L118.254059,5.72991219 C118.360649,5.30259937 118.108147,4.87117236 117.745946,4.84541766 L117.711676,4.84420415 L116.714126,4.84420415 L117.929455,0 L122.71749,0 Z M137.527027,0 L133.948849,14.2700878 C133.841764,14.6974006 134.094722,15.1288276 134.45646,15.1545823 L134.490684,15.1557958 L135.488178,15.1557958 L134.272918,20 L129.485673,20 C128.944869,20 128.506757,19.4693252 128.506757,18.8148889 C128.506757,18.769468 128.509968,18.7257139 128.514708,18.6825154 L128.522754,18.6179954 L133.190795,0 L137.527027,0 Z M145.344595,0 L140.507898,20 L136.324324,20 L141.162017,0 L145.344595,0 Z" id="Shape"></path>
            </g>
        </g>
    </g>
</svg>