<?xml version="1.0" encoding="UTF-8"?>
<svg width="18px" height="18px" viewBox="0 0 18 18" version="1.1" xmlns="http://www.w3.org/2000/svg" xmlns:xlink="http://www.w3.org/1999/xlink">
    <!-- Generator: Sketch 64 (93537) - https://sketch.com -->
    <title>noun_confirm_353054</title>
    <desc>Created with Sketch.</desc>
    <g id="Page-1" stroke="none" stroke-width="1" fill="none" fill-rule="evenodd">
        <g id="Pre-Draft-Dashboard---Manager-(No-Invite-Permissions)-(Min.-Disclaimer)" transform="translate(-1304.000000, -350.000000)" fill="#F46869">
            <g id="noun_confirm_353054" transform="translate(1304.000000, 350.000000)">
                <path d="M9,0 C4.02,0 0,4.02 0,9 C0,13.98 4.02,18 9,18 C13.98,18 18,13.98 18,9 C18,4.02 13.98,0 9,0 Z M9,16.5 C4.86,16.5 1.5,13.14 1.5,9 C1.5,4.86 4.86,1.5 9,1.5 C13.14,1.5 16.5,4.86 16.5,9 C16.5,13.14 13.14,16.5 9,16.5 Z" id="Shape" fill-rule="nonzero"></path>
                <g id="noun_Cross_1904019" transform="translate(5.000000, 5.000000)">
                    <path d="M7.86455982,1.0744921 L6.9255079,0.135440181 C6.74492099,-0.0451467269 6.49209932,-0.0451467269 6.31151242,0.135440181 L4,2.4469526 L1.68848758,0.135440181 C1.50790068,-0.0451467269 1.21896163,-0.0451467269 1.0744921,0.135440181 L0.135440181,1.0744921 C-0.0451467269,1.21896163 -0.0451467269,1.50790068 0.135440181,1.68848758 L2.4469526,4 L0.135440181,6.31151242 C-0.0451467269,6.49209932 -0.0451467269,6.74492099 0.135440181,6.9255079 L1.0744921,7.86455982 C1.21896163,8.04514673 1.50790068,8.04514673 1.68848758,7.86455982 L4,5.5530474 L6.31151242,7.86455982 C6.49209932,8.04514673 6.74492099,8.04514673 6.9255079,7.86455982 L7.86455982,6.9255079 C8.04514673,6.74492099 8.04514673,6.49209932 7.86455982,6.31151242 L5.5530474,4 L7.86455982,1.68848758 C8.04514673,1.50790068 8.04514673,1.21896163 7.86455982,1.0744921 Z" id="Path"></path>
                </g>
            </g>
        </g>
    </g>
</svg>