<?xml version="1.0" encoding="UTF-8"?>
<svg width="15px" height="15px" viewBox="0 0 15 15" version="1.1" xmlns="http://www.w3.org/2000/svg" xmlns:xlink="http://www.w3.org/1999/xlink">
    <!-- Generator: Sketch 64 (93537) - https://sketch.com -->
    <title>noun_Pending message_1356657</title>
    <desc>Created with Sketch.</desc>
    <g id="Page-1" stroke="none" stroke-width="1" fill="none" fill-rule="evenodd">
        <g id="Pre-Draft-Dashboard---Admin" transform="translate(-1305.000000, -352.000000)" fill="#8F91A6" fill-rule="nonzero">
            <g id="Group-16" transform="translate(982.000000, 284.000000)">
                <g id="Group-7" transform="translate(16.000000, 58.154374)">
                    <g id="noun_Pending-message_1356657" transform="translate(307.000000, 9.845626)">
                        <path d="M11.7457232,0 L3.25427683,0 C1.42960985,0 0,1.93862069 0,4.41310345 L0,10.5868966 C0,13.0618966 1.42960985,15 3.25427683,15 L11.7457232,15 C13.5708973,15 15,13.0613793 15,10.5868966 L15,4.41310345 C15,1.93862069 13.5708973,0 11.7457232,0 Z M12.9714653,10.5868966 C12.9714653,11.9068966 12.3126986,12.9310345 11.7457232,12.9310345 L3.25427683,12.9310345 C2.68730137,12.9310345 2.02853472,11.9068966 2.02853472,10.5868966 L2.02853472,4.41310345 C2.02853472,3.09310345 2.68730137,2.06896552 3.25427683,2.06896552 L11.7457232,2.06896552 C12.3126986,2.06896552 12.9714653,3.09310345 12.9714653,4.41310345 L12.9714653,10.5868966 Z" id="Shape"></path>
                        <path d="M8.93856972,6.81659389 L8.12286055,6.81659389 L8.12286055,6.09170306 C8.12286055,5.48908297 7.64787051,5 7.06143028,5 C6.47499005,5 6,5.48908297 6,6.09170306 L6,7.90556769 C6,8.50818777 6.47552076,8.99727074 7.06143028,8.99727074 C7.0762903,8.99727074 7.09061961,8.99344978 7.10547963,8.99290393 C7.1288311,8.99454148 7.15112114,9 7.17500332,9 L8.93856972,9 C9.52447924,9 10,8.51091703 10,7.90829694 C10,7.30567686 9.52500995,6.81659389 8.93856972,6.81659389 Z" id="Path"></path>
                    </g>
                </g>
            </g>
        </g>
    </g>
</svg>