<?xml version="1.0" encoding="UTF-8"?>
<svg width="55px" height="33px" viewBox="0 0 55 33" version="1.1" xmlns="http://www.w3.org/2000/svg" xmlns:xlink="http://www.w3.org/1999/xlink">
    <!-- Generator: Sketch 64 (93537) - https://sketch.com -->
    <title>Shape</title>
    <desc>Created with Sketch.</desc>
    <g id="Page-1" stroke="none" stroke-width="1" fill="none" fill-rule="evenodd" opacity="0.25">
        <g id="Pre-Draft-Dashboard---Admin" transform="translate(-420.000000, -226.000000)" fill="#FFFFFF">
            <g id="Group-23" transform="translate(420.000000, 224.000000)">
                <g id="Group-3" transform="translate(-13.000000, 2.000000)">
                    <g id="Group-2">
                        <path d="M26.0666667,0 L12.0867623,38 L0,38 L13.9770272,0 L26.0666667,0 Z M42.6274675,0 C44.1223265,0 45.3333333,1.00828203 45.3333333,2.2517111 L45.3203175,2.44143201 L45.3203175,2.44143201 L45.2891151,2.62580867 L32.3859725,38 L20.4,38 L30.2906026,10.8868332 C30.5704132,10.1193393 29.9608881,9.34486003 29.0487252,9.22110997 L28.7928909,9.20398789 L26.0356751,9.20398789 L29.3948283,0 L42.6274675,0 Z M65.2954059,0 C66.7889239,0 68,1.00828203 68,2.2517111 L67.9869834,2.44143201 L67.9869834,2.44143201 L67.9557793,2.62580867 L55.0518985,38 L43.0666667,38 L52.9578351,10.8868332 C53.2363541,10.1193393 52.6278839,9.34486003 51.7147608,9.22110997 L51.4586113,9.20398789 L48.7012378,9.20398789 L52.0605832,0 L65.2954059,0 Z" id="Shape"></path>
                    </g>
                </g>
            </g>
        </g>
    </g>
</svg>