<?xml version="1.0" encoding="UTF-8"?>
<svg width="172px" height="123px" viewBox="0 0 172 123" version="1.1" xmlns="http://www.w3.org/2000/svg" xmlns:xlink="http://www.w3.org/1999/xlink">
    <!-- Generator: Sketch 64 (93537) - https://sketch.com -->
    <title>Combined Shape</title>
    <desc>Created with Sketch.</desc>
    <g id="Page-1" stroke="none" stroke-width="1" fill="none" fill-rule="evenodd" opacity="0.645154391">
        <g id="Pre-Draft-Dashboard---Admin" transform="translate(-1172.000000, -89.000000)" fill="#525CD7">
            <g id="Group-27" transform="translate(420.000000, 50.000000)">
                <g id="Group-17" transform="translate(0.000000, 39.000000)">
                    <path d="M803.172514,79.8634686 L789.946245,123 L778.511061,123 L791.734609,79.8634686 L803.172514,79.8634686 Z M818.576434,79.8634686 C819.9441,79.8634686 821.052067,81.008042 821.052067,82.4195477 C821.052067,82.5175128 821.043947,82.6118828 821.03196,82.7050545 L821.011611,82.8442128 L809.206352,123 L798.240223,123 L807.289269,92.2218955 C807.560082,91.3002558 806.920363,90.3697426 806.005544,90.3141942 L805.918993,90.3115769 L803.396379,90.3115769 L806.469713,79.8634686 L818.576434,79.8634686 Z M858.660782,79.8634686 L849.611218,110.641573 C849.341656,111.563213 849.980223,112.493726 850.896211,112.549274 L850.982879,112.551892 L853.505637,112.551892 L850.432126,123 L838.323408,123 C836.956968,123 835.848939,121.855427 835.848939,120.443921 C835.848939,120.345956 835.857059,120.251586 835.869047,120.158414 L835.889397,120.019256 L847.695332,79.8634686 L858.660782,79.8634686 Z M899.352179,79.8634686 L886.128632,123 L874.690726,123 L887.916995,79.8634686 L899.352179,79.8634686 Z M879.00648,79.8634686 L869.957434,110.641573 C869.686622,111.563213 870.326341,112.493726 871.24116,112.549274 L871.327711,112.551892 L873.850325,112.551892 L870.77699,123 L858.67027,123 C857.302603,123 856.194637,121.855427 856.194637,120.443921 C856.194637,120.345956 856.202757,120.251586 856.214744,120.158414 L856.235093,120.019256 L868.040352,79.8634686 L879.00648,79.8634686 Z M838.923296,79.8634686 C840.289736,79.8634686 841.397765,81.008042 841.397765,82.4195477 C841.397765,82.5175128 841.389645,82.6118828 841.377657,82.7050545 L841.357307,82.8442128 L829.551372,123 L818.585922,123 L827.635485,92.2218955 C827.905048,91.3002558 827.266481,90.3697426 826.350493,90.3141942 L826.263825,90.3115769 L823.741067,90.3115769 L826.814578,79.8634686 L838.923296,79.8634686 Z M891.337207,31.797048 L878.110938,74.9335793 L866.675754,74.9335793 L879.899301,31.797048 L891.337207,31.797048 Z M907.357663,31.797048 C908.72533,31.797048 909.833296,32.9416214 909.833296,34.3531271 C909.833296,34.4510921 909.825176,34.5454622 909.813189,34.6386338 L909.79284,34.7777921 L897.987581,74.9335793 L887.021453,74.9335793 L896.070498,44.1554748 C896.341311,43.2338352 895.701592,42.3033219 894.786773,42.2477735 L894.700222,42.2451562 L892.177608,42.2451562 L895.250942,31.797048 L907.357663,31.797048 Z M930,53.823 L930,74.933 L927.104637,74.9335793 C925.738197,74.9335793 924.630168,73.7890059 924.630168,72.3775002 C924.630168,72.2795352 924.638288,72.1851652 924.650276,72.0919935 L924.670626,71.9528352 L930,53.823 Z M776.661453,31.797048 L763.435183,74.9335793 L752,74.9335793 L765.223547,31.797048 L776.661453,31.797048 Z M791.448836,31.797048 C792.816503,31.797048 793.924469,32.9416214 793.924469,34.3531271 C793.924469,34.4510921 793.916349,34.5454622 793.904362,34.6386338 L793.884013,34.7777921 L782.078754,74.9335793 L771.112626,74.9335793 L780.161672,44.1554748 C780.432484,43.2338352 779.792765,42.3033219 778.877946,42.2477735 L778.791395,42.2451562 L776.268781,42.2451562 L779.342116,31.797048 L791.448836,31.797048 Z M831.533184,31.797048 L822.483621,62.5751525 C822.214058,63.4967921 822.852625,64.4273054 823.768613,64.4828538 L823.855281,64.4854711 L826.378039,64.4854711 L823.304529,74.9335793 L811.19581,74.9335793 C809.829371,74.9335793 808.721341,73.7890059 808.721341,72.3775002 C808.721341,72.2795352 808.729461,72.1851652 808.741449,72.0919935 L808.761799,71.9528352 L820.567734,31.797048 L831.533184,31.797048 Z M812.412234,31.1808118 C813.778674,31.1808118 814.886704,32.3253852 814.886704,33.7368909 C814.886704,33.834856 814.878583,33.929226 814.866596,34.0223977 L814.846246,34.161556 L803.040311,74.3173432 L792.07486,74.3173432 L801.124424,43.5392386 C801.393986,42.617599 800.75542,41.6870858 799.839431,41.6315373 L799.752764,41.62892 L797.230006,41.62892 L800.303516,31.1808118 L812.412234,31.1808118 Z M871.608045,31.1808118 L858.384498,74.3173432 L846.946592,74.3173432 L860.172861,31.1808118 L871.608045,31.1808118 Z M852.495419,31.1808118 L843.446373,61.9589163 C843.17556,62.880556 843.815279,63.8110692 844.730099,63.8666176 L844.81665,63.869235 L847.339264,63.869235 L844.265929,74.3173432 L832.159209,74.3173432 C830.791542,74.3173432 829.683575,73.1727698 829.683575,71.7612641 C829.683575,71.663299 829.691696,71.568929 829.703683,71.4757573 L829.724031,71.336599 L841.529291,31.1808118 L852.495419,31.1808118 Z M927.087988,31.1808118 C928.454428,31.1808118 929.562458,32.3253852 929.562458,33.7368909 C929.562458,33.834856 929.554337,33.929226 929.54235,34.0223977 L929.522,34.161556 L917.716065,74.3173432 L906.750615,74.3173432 L915.800178,43.5392386 C916.069741,42.617599 915.431174,41.6870858 914.515186,41.6315373 L914.428518,41.62892 L911.90576,41.62892 L914.97927,31.1808118 L927.087988,31.1808118 Z M825.367821,-15.6531365 L812.141552,27.4833948 L800.706369,27.4833948 L813.929916,-15.6531365 L825.367821,-15.6531365 Z M841.388277,-15.6531365 C842.755944,-15.6531365 843.863911,-14.5085631 843.863911,-13.0970574 C843.863911,-12.9990924 843.85579,-12.9047223 843.843804,-12.8115507 L843.823455,-12.6723924 L832.018195,27.4833948 L821.052067,27.4833948 L830.101113,-3.29470969 C830.371926,-4.21634932 829.732207,-5.14686257 828.817387,-5.202411 L828.730836,-5.20502831 L826.208222,-5.20502831 L829.281557,-15.6531365 L841.388277,-15.6531365 Z M881.472626,-15.6531365 L872.423062,15.124968 C872.1535,16.0466076 872.792066,16.9771209 873.708055,17.0326693 L873.794722,17.0352866 L876.31748,17.0352866 L873.24397,27.4833948 L861.135252,27.4833948 C859.768812,27.4833948 858.660782,26.3388214 858.660782,24.9273157 C858.660782,24.8293507 858.668903,24.7349807 858.68089,24.641809 L858.70124,24.5026507 L870.507175,-15.6531365 L881.472626,-15.6531365 Z M861.118603,-15.6531365 C862.485043,-15.6531365 863.593073,-14.5085631 863.593073,-13.0970574 C863.593073,-12.9990924 863.584952,-12.9047223 863.572964,-12.8115507 L863.552615,-12.6723924 L851.74668,27.4833948 L840.781229,27.4833948 L849.830793,-3.29470969 C850.100355,-4.21634932 849.461789,-5.14686257 848.5458,-5.202411 L848.459133,-5.20502831 L845.936374,-5.20502831 L849.009885,-15.6531365 L861.118603,-15.6531365 Z M901.201788,-15.6531365 L892.152742,15.124968 C891.881929,16.0466076 892.521648,16.9771209 893.436468,17.0326693 L893.523018,17.0352866 L896.045632,17.0352866 L892.972298,27.4833948 L880.865577,27.4833948 C879.497911,27.4833948 878.389944,26.3388214 878.389944,24.9273157 C878.389944,24.8293507 878.398064,24.7349807 878.410051,24.641809 L878.4304,24.5026507 L890.23566,-15.6531365 L901.201788,-15.6531365 Z M921.547486,-15.6531365 L908.323939,27.4833948 L896.886034,27.4833948 L910.112303,-15.6531365 L921.547486,-15.6531365 Z M918.496,-75 L917.716743,-72.3468635 L906.750615,-72.3468635 L907.53,-75 L918.496,-75 Z M899.886,-75 L899.073172,-72.3468635 L887.637989,-72.3468635 L888.45,-75 L899.886,-75 Z M930,-75 L930,-72.347 L927.096313,-72.3468635 L927.876,-75 L930,-75 Z" id="Combined-Shape"></path>
                </g>
            </g>
        </g>
    </g>
</svg>