<?xml version="1.0" encoding="UTF-8"?>
<svg width="22px" height="22px" viewBox="0 0 22 22" version="1.1" xmlns="http://www.w3.org/2000/svg" xmlns:xlink="http://www.w3.org/1999/xlink">
    <!-- Generator: Sketch 64 (93537) - https://sketch.com -->
    <title>noun_users_2417408</title>
    <desc>Created with Sketch.</desc>
    <g id="Page-1" stroke="none" stroke-width="1" fill="none" fill-rule="evenodd">
        <g id="Pre-Draft-Dashboard---Admin" transform="translate(-1310.000000, -230.000000)" fill="#FFFFFF" fill-rule="nonzero">
            <g id="noun_users_2417408" transform="translate(1310.000000, 230.000000)">
                <path d="M10.53,0 C4.71444158,0 0,4.71444158 0,10.53 C0,16.3455584 4.71444158,21.06 10.53,21.06 C16.3455584,21.06 21.06,16.3455584 21.06,10.53 C21.0531097,4.71729804 16.342702,0.00689031747 10.53,0 Z M9.871875,19.7101856 L9.871875,13.2144919 C9.48458521,13.0490742 9.0847114,12.9148293 8.67606188,12.8130356 C8.12710184,13.270524 7.43792099,13.5260343 6.723405,13.5369731 C6.00888901,13.5260343 5.31970816,13.270524 4.77074813,12.8130356 C3.76843661,13.0125051 2.82957869,13.4524606 2.0349225,14.0950631 C0.415593186,10.2381838 1.59763745,5.77441697 4.91355932,3.22443506 C8.22948119,0.674453152 12.8471027,0.678210517 16.1588704,3.23358539 C19.470638,5.78896025 20.6454164,10.2546448 19.0198125,14.1088837 C18.2209542,13.4761788 17.2888785,13.0330941 16.2938587,12.8130356 C15.1716843,13.7800805 13.5107194,13.7800805 12.388545,12.8130356 C11.9781851,12.9058504 11.5765658,13.0337784 11.188125,13.1954063 L11.188125,19.7108438 C10.9696275,19.7266388 10.7524463,19.7444081 10.53,19.7444081 C10.3075538,19.7444081 10.0903725,19.7259806 9.871875,19.7101856 Z" id="Shape"></path>
                <circle id="Oval" cx="6.723405" cy="9.07488563" r="3.06817875"></circle>
                <circle id="Oval" cx="14.3412019" cy="9.07488563" r="3.06817875"></circle>
            </g>
        </g>
    </g>
</svg>