<?xml version="1.0" encoding="UTF-8"?>
<svg width="34px" height="23px" viewBox="0 0 34 23" version="1.1" xmlns="http://www.w3.org/2000/svg" xmlns:xlink="http://www.w3.org/1999/xlink">
    <!-- Generator: Sketch 64 (93537) - https://sketch.com -->
    <title>Shape</title>
    <desc>Created with Sketch.</desc>
    <g id="Page-1" stroke="none" stroke-width="1" fill="none" fill-rule="evenodd" opacity="0.229478234">
        <g id="Update-Profile-Pic" transform="translate(-887.000000, -279.000000)" fill="#FFFFFF" fill-rule="nonzero">
            <g id="Group-13" transform="translate(839.000000, 279.000000)">
                <path d="M64,8 L59.7094923,23 L56,23 L60.2896247,8 L64,8 Z M70.1318078,8 C70.6114416,8 71,8.39800606 71,8.88883333 C71,8.92289902 70.9971523,8.9557146 70.9929485,8.98811347 L70.9858123,9.03650342 L66.8457666,23 L63,23 L66.1734554,12.2974341 C66.268428,11.9769495 66.0440818,11.6533793 65.7232591,11.6340632 L65.6929062,11.6331531 L64.808238,11.6331531 L65.8860412,8 L70.1318078,8 Z M84,8 L80.8263631,18.7025659 C80.7318288,19.0230505 80.955771,19.3466207 81.2770036,19.3659368 L81.3073974,19.3668469 L82.1921162,19.3668469 L81.1142514,23 L76.8677842,23 C76.3885806,23 76,22.6019939 76,22.1111667 C76,22.077101 76.0028479,22.0442854 76.0070518,22.0118865 L76.0141885,21.9634966 L80.1544711,8 L84,8 Z M97,8 L92.7103753,23 L89,23 L93.2905077,8 L97,8 Z M91,8 L87.8265446,18.7025659 C87.731572,19.0230505 87.9559182,19.3466207 88.2767409,19.3659368 L88.3070938,19.3668469 L89.191762,19.3668469 L88.1139588,23 L83.8681922,23 C83.3885584,23 83,22.6019939 83,22.1111667 C83,22.077101 83.0028477,22.0442854 83.0070515,22.0118865 L83.0141877,21.9634966 L87.1542334,8 L91,8 Z M77.1322158,8 C77.6114194,8 78,8.39800606 78,8.88883333 C78,8.92289902 77.9971521,8.9557146 77.9929482,8.98811347 L77.9858115,9.03650342 L73.8455289,23 L70,23 L73.1736369,12.2974341 C73.2681712,11.9769495 73.044229,11.6533793 72.7229964,11.6340632 L72.6926026,11.6331531 L71.8078838,11.6331531 L72.8857486,8 L77.1322158,8 Z M95,-9 L90.7094923,6 L87,6 L91.2896247,-9 L95,-9 Z M100.131808,-9 C100.611442,-9 101,-8.60199394 101,-8.11116667 C101,-8.07710098 100.997152,-8.0442854 100.992949,-8.01188653 L100.985812,-7.96349658 L96.8457666,6 L93,6 L96.1734554,-4.70256586 C96.268428,-5.02305047 96.0440818,-5.34662073 95.7232591,-5.36593676 L95.6929062,-5.36684689 L94.808238,-5.36684689 L95.8860412,-9 L100.131808,-9 Z M114,-9 L110.826363,1.70256586 C110.731829,2.02305047 110.955771,2.34662073 111.277004,2.36593676 L111.307397,2.36684689 L112.192116,2.36684689 L111.114251,6 L106.867784,6 C106.388581,6 106,5.60199394 106,5.11116667 C106,5.07710098 106.002848,5.0442854 106.007052,5.01188653 L106.014188,4.96349658 L110.154471,-9 L114,-9 Z M56,-9 L51.7094923,6 L48,6 L52.2896247,-9 L56,-9 Z M61.1318078,-9 C61.6114416,-9 62,-8.60199394 62,-8.11116667 C62,-8.07710098 61.9971523,-8.0442854 61.9929485,-8.01188653 L61.9858123,-7.96349658 L57.8457666,6 L54,6 L57.1734554,-4.70256586 C57.268428,-5.02305047 57.0440818,-5.34662073 56.7232591,-5.36593676 L56.6929062,-5.36684689 L55.808238,-5.36684689 L56.8860412,-9 L61.1318078,-9 Z M75,-9 L71.8263631,1.70256586 C71.7318288,2.02305047 71.955771,2.34662073 72.2770036,2.36593676 L72.3073974,2.36684689 L73.1921162,2.36684689 L72.1142514,6 L67.8677842,6 C67.3885806,6 67,5.60199394 67,5.11116667 C67,5.07710098 67.0028479,5.0442854 67.0070518,5.01188653 L67.0141885,4.96349658 L71.1544711,-9 L75,-9 Z M68.1322158,-9 C68.6114194,-9 69,-8.60199394 69,-8.11116667 C69,-8.07710098 68.9971521,-8.0442854 68.9929482,-8.01188653 L68.9858115,-7.96349658 L64.8455289,6 L61,6 L64.1736369,-4.70256586 C64.2681712,-5.02305047 64.044229,-5.34662073 63.7229964,-5.36593676 L63.6926026,-5.36684689 L62.8078838,-5.36684689 L63.8857486,-9 L68.1322158,-9 Z M88,-9 L83.7103753,6 L80,6 L84.2905077,-9 L88,-9 Z M82,-9 L78.8265446,1.70256586 C78.731572,2.02305047 78.9559182,2.34662073 79.2767409,2.36593676 L79.3070938,2.36684689 L80.191762,2.36684689 L79.1139588,6 L74.8681922,6 C74.3885584,6 74,5.60199394 74,5.11116667 C74,5.07710098 74.0028477,5.0442854 74.0070515,5.01188653 L74.0141877,4.96349658 L78.1542334,-9 L82,-9 Z M107.132216,-9 C107.611419,-9 108,-8.60199394 108,-8.11116667 C108,-8.07710098 107.997152,-8.0442854 107.992948,-8.01188653 L107.985812,-7.96349658 L103.845529,6 L100,6 L103.173637,-4.70256586 C103.268171,-5.02305047 103.044229,-5.34662073 102.722996,-5.36593676 L102.692603,-5.36684689 L101.807884,-5.36684689 L102.885749,-9 L107.132216,-9 Z M127,-9 L122.710375,6 L119,6 L123.290508,-9 L127,-9 Z M121,-9 L117.826545,1.70256586 C117.731572,2.02305047 117.955918,2.34662073 118.276741,2.36593676 L118.307094,2.36684689 L119.191762,2.36684689 L118.113959,6 L113.868192,6 C113.388558,6 113,5.60199394 113,5.11116667 C113,5.07710098 113.002848,5.0442854 113.007051,5.01188653 L113.014188,4.96349658 L117.154233,-9 L121,-9 Z M73,-24 L68.7094923,-9 L65,-9 L69.2896247,-24 L73,-24 Z M78.1318078,-24 C78.6114416,-24 79,-23.6019939 79,-23.1111667 C79,-23.077101 78.9971523,-23.0442854 78.9929485,-23.0118865 L78.9858123,-22.9634966 L74.8457666,-9 L71,-9 L74.1734554,-19.7025659 C74.268428,-20.0230505 74.0440818,-20.3466207 73.7232591,-20.3659368 L73.6929062,-20.3668469 L72.808238,-20.3668469 L73.8860412,-24 L78.1318078,-24 Z M91,-24 L87.8263631,-13.2974341 C87.7318288,-12.9769495 87.955771,-12.6533793 88.2770036,-12.6340632 L88.3073974,-12.6331531 L89.1921162,-12.6331531 L88.1142514,-9 L83.8677842,-9 C83.3885806,-9 83,-9.39800606 83,-9.88883333 C83,-9.92289902 83.0028479,-9.9557146 83.0070518,-9.98811347 L83.0141885,-10.0365034 L87.1544711,-24 L91,-24 Z M85.1322158,-24 C85.6114194,-24 86,-23.6019939 86,-23.1111667 C86,-23.077101 85.9971521,-23.0442854 85.9929482,-23.0118865 L85.9858115,-22.9634966 L81.8455289,-9 L78,-9 L81.1736369,-19.7025659 C81.2681712,-20.0230505 81.044229,-20.3466207 80.7229964,-20.3659368 L80.6926026,-20.3668469 L79.8078838,-20.3668469 L80.8857486,-24 L85.1322158,-24 Z M98,-24 L94.8265446,-13.2974341 C94.731572,-12.9769495 94.9559182,-12.6533793 95.2767409,-12.6340632 L95.3070938,-12.6331531 L96.191762,-12.6331531 L95.1139588,-9 L90.8681922,-9 C90.3885584,-9 90,-9.39800606 90,-9.88883333 C90,-9.92289902 90.0028477,-9.9557146 90.0070515,-9.98811347 L90.0141877,-10.0365034 L94.1542334,-24 L98,-24 Z M105,-24 L100.710375,-9 L97,-9 L101.290508,-24 L105,-24 Z" id="Shape"></path>
            </g>
        </g>
    </g>
</svg>