<?xml version="1.0" encoding="UTF-8"?>
<svg width="18px" height="18px" viewBox="0 0 18 18" version="1.1" xmlns="http://www.w3.org/2000/svg" xmlns:xlink="http://www.w3.org/1999/xlink">
    <!-- Generator: Sketch 64 (93537) - https://sketch.com -->
    <title>noun_confirm_353054 copy</title>
    <desc>Created with Sketch.</desc>
    <g id="Page-1" stroke="none" stroke-width="1" fill="none" fill-rule="evenodd">
        <g id="Referrals" transform="translate(-771.000000, -693.000000)" fill="#56C079" fill-rule="nonzero">
            <g id="noun_confirm_353054-copy" transform="translate(771.000000, 693.000000)">
                <path d="M9,0 C4.02,0 0,4.02 0,9 C0,13.98 4.02,18 9,18 C13.98,18 18,13.98 18,9 C18,4.02 13.98,0 9,0 Z M9,16.5 C4.86,16.5 1.5,13.14 1.5,9 C1.5,4.86 4.86,1.5 9,1.5 C13.14,1.5 16.5,4.86 16.5,9 C16.5,13.14 13.14,16.5 9,16.5 Z" id="Shape"></path>
                <polygon id="Path" points="8.54255319 10.2078652 6.34042553 7.96629213 5 9.34269663 8.54255319 13 14 7.37640449 12.6595745 6"></polygon>
            </g>
        </g>
    </g>
</svg>