<?xml version="1.0" encoding="UTF-8"?>
<svg width="310px" height="242px" viewBox="0 0 310 242" version="1.1" xmlns="http://www.w3.org/2000/svg" xmlns:xlink="http://www.w3.org/1999/xlink">
    <!-- Generator: Sketch 64 (93537) - https://sketch.com -->
    <title>Combined Shape</title>
    <desc>Created with Sketch.</desc>
    <g id="Page-1" stroke="none" stroke-width="1" fill="none" fill-rule="evenodd" opacity="0.100000001">
        <g id="Referrals" transform="translate(-642.000000, -95.000000)" fill="#525CD7">
            <path d="M731.086667,261.9631 L708.060942,337 L688.153333,337 L711.174319,261.9631 L731.086667,261.9631 Z M757.903482,261.9631 C760.284465,261.9631 762.213333,263.954109 762.213333,266.409453 C762.213333,266.579865 762.199197,266.744024 762.178329,266.906098 L762.142903,267.148167 L741.591026,337 L722.5,337 L738.253561,283.460842 C738.725021,281.857631 737.611329,280.238983 736.018712,280.142356 L735.868035,280.137803 L731.476395,280.137803 L736.826789,261.9631 L757.903482,261.9631 Z M827.686667,261.9631 L811.932204,315.502258 C811.46292,317.105469 812.574606,318.724116 814.169259,318.820744 L814.320139,318.825297 L818.71203,318.825297 L813.361329,337 L792.281159,337 C789.902312,337 787.973333,335.008991 787.973333,332.553647 C787.973333,332.383235 787.987471,332.219076 788.00834,332.057002 L788.043767,331.814933 L808.59682,261.9631 L827.686667,261.9631 Z M898.526667,261.9631 L875.505681,337 L855.593333,337 L878.619058,261.9631 L898.526667,261.9631 Z M863.106667,261.9631 L847.353105,315.502258 C846.881645,317.105469 847.995337,318.724116 849.587954,318.820744 L849.738632,318.825297 L854.130272,318.825297 L848.779877,337 L827.703184,337 C825.322202,337 823.393333,335.008991 823.393333,332.553647 C823.393333,332.383235 823.40747,332.219076 823.428338,332.057002 L823.463763,331.814933 L844.01564,261.9631 L863.106667,261.9631 Z M793.325508,261.9631 C795.704355,261.9631 797.633333,263.954109 797.633333,266.409453 C797.633333,266.579865 797.619196,266.744024 797.598327,266.906098 L797.562899,267.148167 L777.009846,337 L757.92,337 L773.674463,283.460842 C774.143746,281.857631 773.03206,280.238983 771.437408,280.142356 L771.286528,280.137803 L766.894636,280.137803 L772.245337,261.9631 L793.325508,261.9631 Z M884.573333,178.350554 L861.547609,253.387454 L841.64,253.387454 L864.660986,178.350554 L884.573333,178.350554 Z M912.463482,178.350554 C914.844465,178.350554 916.773333,180.341563 916.773333,182.796907 C916.773333,182.967319 916.759197,183.131478 916.738329,183.293552 L916.702903,183.53562 L896.151026,253.387454 L877.06,253.387454 L892.813561,199.848296 C893.285021,198.245085 892.171329,196.626437 890.578712,196.52981 L890.428035,196.525257 L886.036395,196.525257 L891.386789,178.350554 L912.463482,178.350554 Z M952,216.265 L952,253.387 L946.841159,253.387454 C944.462312,253.387454 942.533333,251.396444 942.533333,248.941101 C942.533333,248.770688 942.547471,248.60653 942.56834,248.444456 L942.603767,248.202387 L952,216.265 Z M684.933333,178.350554 L661.907609,253.387454 L642,253.387454 L665.020986,178.350554 L684.933333,178.350554 Z M710.676816,178.350554 C713.057798,178.350554 714.986667,180.341563 714.986667,182.796907 C714.986667,182.967319 714.97253,183.131478 714.951662,183.293552 L714.916237,183.53562 L694.36436,253.387454 L675.273333,253.387454 L691.026895,199.848296 C691.498355,198.245085 690.384663,196.626437 688.792046,196.52981 L688.641368,196.525257 L684.249728,196.525257 L689.600123,178.350554 L710.676816,178.350554 Z M780.46,178.350554 L764.705537,231.889711 C764.236254,233.492923 765.34794,235.11157 766.942592,235.208198 L767.093472,235.212751 L771.485364,235.212751 L766.134663,253.387454 L745.054492,253.387454 C742.675645,253.387454 740.746667,251.396444 740.746667,248.941101 C740.746667,248.770688 740.760804,248.60653 740.781673,248.444456 L740.817101,248.202387 L761.370154,178.350554 L780.46,178.350554 Z M747.172175,177.278598 C749.551021,177.278598 751.48,179.269607 751.48,181.724951 C751.48,181.895363 751.465863,182.059522 751.444993,182.221596 L751.409566,182.463665 L730.856513,252.315498 L711.766667,252.315498 L727.521129,198.77634 C727.990413,197.173129 726.878727,195.554482 725.284075,195.457854 L725.133195,195.453301 L720.741303,195.453301 L726.092004,177.278598 L747.172175,177.278598 Z M850.226667,177.278598 L827.205681,252.315498 L807.293333,252.315498 L830.319058,177.278598 L850.226667,177.278598 Z M816.953333,177.278598 L801.199772,230.817756 C800.728312,232.420967 801.842004,234.039614 803.434621,234.136242 L803.585298,234.140795 L807.976939,234.140795 L802.626544,252.315498 L781.549851,252.315498 C779.168868,252.315498 777.24,250.324489 777.24,247.869145 C777.24,247.698733 777.254137,247.534574 777.275005,247.3725 L777.31043,247.130431 L797.862307,177.278598 L816.953333,177.278598 Z M946.812175,177.278598 C949.191021,177.278598 951.12,179.269607 951.12,181.724951 C951.12,181.895363 951.105863,182.059522 951.084993,182.221596 L951.049566,182.463665 L930.496513,252.315498 L911.406667,252.315498 L927.161129,198.77634 C927.630413,197.173129 926.518727,195.554482 924.924075,195.457854 L924.773195,195.453301 L920.381303,195.453301 L925.732004,177.278598 L946.812175,177.278598 Z M769.726667,95.8099631 L746.700942,170.846863 L726.793333,170.846863 L749.814319,95.8099631 L769.726667,95.8099631 Z M797.616816,95.8099631 C799.997798,95.8099631 801.926667,97.8009725 801.926667,100.256316 C801.926667,100.426729 801.91253,100.590887 801.891662,100.752961 L801.856237,100.99503 L781.30436,170.846863 L762.213333,170.846863 L777.966895,117.307706 C778.438355,115.704494 777.324663,114.085847 775.732046,113.989219 L775.581368,113.984666 L771.189728,113.984666 L776.540123,95.8099631 L797.616816,95.8099631 Z M867.4,95.8099631 L851.645537,149.349121 C851.176254,150.952332 852.28794,152.57098 853.882592,152.667607 L854.033472,152.67216 L858.425364,152.67216 L853.074663,170.846863 L831.994492,170.846863 C829.615645,170.846863 827.686667,168.855854 827.686667,166.40051 C827.686667,166.230098 827.700804,166.065939 827.721673,165.903865 L827.757101,165.661797 L848.310154,95.8099631 L867.4,95.8099631 Z M831.965508,95.8099631 C834.344355,95.8099631 836.273333,97.8009725 836.273333,100.256316 C836.273333,100.426729 836.259196,100.590887 836.238327,100.752961 L836.202899,100.99503 L815.649846,170.846863 L796.56,170.846863 L812.314463,117.307706 C812.783746,115.704494 811.67206,114.085847 810.077408,113.989219 L809.926528,113.984666 L805.534636,113.984666 L810.885337,95.8099631 L831.965508,95.8099631 Z M901.746667,95.8099631 L885.993105,149.349121 C885.521645,150.952332 886.635337,152.57098 888.227954,152.667607 L888.378632,152.67216 L892.770272,152.67216 L887.419877,170.846863 L866.343184,170.846863 C863.962202,170.846863 862.033333,168.855854 862.033333,166.40051 C862.033333,166.230098 862.04747,166.065939 862.068338,165.903865 L862.103763,165.661797 L882.65564,95.8099631 L901.746667,95.8099631 Z M937.166667,95.8099631 L914.145681,170.846863 L894.233333,170.846863 L917.259058,95.8099631 L937.166667,95.8099631 Z M931.73,-7 L930.497693,-2.8099631 L911.406667,-2.8099631 L912.639,-7 L931.73,-7 Z M899.326,-7 L898.040942,-2.8099631 L878.133333,-2.8099631 L879.418,-7 L899.326,-7 Z M952,-7 L952,-2.81 L946.826667,-2.8099631 L948.059,-7 L952,-7 Z" id="Combined-Shape"></path>
        </g>
    </g>
</svg>