<?xml version="1.0" encoding="UTF-8"?>
<svg width="493px" height="156px" viewBox="0 0 493 156" version="1.1" xmlns="http://www.w3.org/2000/svg" xmlns:xlink="http://www.w3.org/1999/xlink">
    <title>Combined Shape</title>
    <g id="Page-1" stroke="none" stroke-width="1" fill="none" fill-rule="evenodd" opacity="0.100000001">
        <g id="Popout---Match-summary" transform="translate(-540.000000, -107.000000)" fill="#525CD7">
            <path d="M647.698417,200.980861 L628.73,263 L604.662,263 L623.626035,200.980861 L647.698417,200.980861 Z M680.117731,200.980861 C682.996142,200.980861 685.327985,203.395901 685.327985,206.374165 C685.327985,206.58087 685.310895,206.77999 685.285667,206.976581 L685.242841,207.270204 L668.9,263 L645.821,263 L656.3626,227.057028 C656.932557,225.112376 655.586195,223.149002 653.660853,223.031795 L653.478696,223.026273 L648.169566,223.026273 L654.637751,200.980861 L680.117731,200.980861 Z M722.940032,200.980861 C725.815861,200.980861 728.147837,203.395901 728.147837,206.374165 C728.147837,206.58087 728.130746,206.77999 728.105517,206.976581 L728.062688,207.270204 L711.719,263 L688.642,263 L699.183543,227.057028 C699.750868,225.112376 698.406931,223.149002 696.479128,223.031795 L696.296727,223.026273 L690.987293,223.026273 L697.455848,200.980861 L722.940032,200.980861 Z M764.479833,200.980861 L746.29,263 L723.213,263 L741.401787,200.980861 L764.479833,200.980861 Z M807.299686,200.980861 L789.111,263 L766.033,263 L784.220213,200.980861 L807.299686,200.980861 Z M850.119538,200.980861 L831.156,263 L807.084,263 L826.052885,200.980861 L850.119538,200.980861 Z M830.976,107 L805.414913,190.57884 L781.34826,190.57884 L806.904,107 L830.976,107 Z M871.756,107 L847.247585,190.57884 L824.168113,190.57884 L843.212866,125.637325 C843.782822,123.692674 842.436461,121.729299 840.511118,121.612092 L840.328962,121.60657 L835.019832,121.60657 L839.305,107 L871.756,107 Z M949.149,107 L932.284256,164.502674 C931.716931,166.447325 933.060867,168.4107 934.98867,168.527906 L935.171072,168.533429 L940.480505,168.533429 L934.01195,190.57884 L908.527766,190.57884 C905.651937,190.57884 903.319961,188.163801 903.319961,185.185537 C903.319961,184.978832 903.337052,184.779712 903.362281,184.583121 L903.40511,184.289498 L926.071,107 L949.149,107 Z M589.627,107 L564.066653,190.57884 L540,190.57884 L565.556,107 L589.627,107 Z M627.812,107 L603.304183,190.57884 L580.22471,190.57884 L599.269464,125.637325 C599.83942,123.692674 598.493058,121.729299 596.567716,121.612092 L596.38556,121.60657 L591.076429,121.60657 L595.362,107 L627.812,107 Z M705.205,107 L688.340853,164.502674 C687.773528,166.447325 689.117465,168.4107 691.045267,168.527906 L691.227669,168.533429 L696.537103,168.533429 L690.068548,190.57884 L664.584364,190.57884 C661.708534,190.57884 659.376559,188.163801 659.376559,185.185537 C659.376559,184.978832 659.393649,184.779712 659.418879,184.583121 L659.461707,184.289498 L682.127,107 L705.205,107 Z M671.549,107 L647.420181,189.278588 L624.342134,189.278588 L643.387977,124.337072 C643.955302,122.392421 642.611366,120.429047 640.683563,120.31184 L640.501161,120.306317 L635.191727,120.306317 L639.096,107 L671.549,107 Z M789.056,107 L763.898361,189.278588 L739.825979,189.278588 L764.989,107 L789.056,107 Z M748.941,107 L732.459367,163.202422 C731.889411,165.147073 733.235772,167.110447 735.161115,167.227654 L735.343271,167.233176 L740.652401,167.233176 L734.184216,189.278588 L708.704236,189.278588 C705.825825,189.278588 703.493983,186.863549 703.493983,183.885285 C703.493983,183.678579 703.511072,183.479459 703.5363,183.282868 L703.579127,182.989245 L725.861,107 L748.941,107 Z M912.897,107 L888.768441,189.278588 L865.690394,189.278588 L884.736237,124.337072 C885.303562,122.392421 883.959626,120.429047 882.031823,120.31184 L881.849421,120.306317 L876.539988,120.306317 L880.444,107 L912.897,107 Z M1033,107 L1007.84176,189.278588 L983.769381,189.278588 L1008.932,107 L1033,107 Z M990.289,107 L973.807627,163.202422 C973.237671,165.147073 974.584032,167.110447 976.509375,167.227654 L976.691531,167.233176 L982.000661,167.233176 L975.532476,189.278588 L950.052496,189.278588 C947.174085,189.278588 944.842243,186.863549 944.842243,183.885285 C944.842243,183.678579 944.859332,183.479459 944.88456,183.282868 L944.927387,182.989245 L967.209,107 L990.289,107 Z" id="Combined-Shape"></path>
        </g>
    </g>
</svg>