<?xml version="1.0" encoding="UTF-8"?>
<svg width="167px" height="159px" viewBox="0 0 167 159" version="1.1" xmlns="http://www.w3.org/2000/svg" xmlns:xlink="http://www.w3.org/1999/xlink">
    <!-- Generator: Sketch 64 (93537) - https://sketch.com -->
    <title>Verify Email Illo</title>
    <desc>Created with Sketch.</desc>
    <defs>
        <linearGradient x1="11.0234375%" y1="0%" x2="93.1015625%" y2="100%" id="linearGradient-1">
            <stop stop-color="#525CD7" offset="0%"></stop>
            <stop stop-color="#52D7BB" offset="100%"></stop>
        </linearGradient>
    </defs>
    <g id="Page-1" stroke="none" stroke-width="1" fill="none" fill-rule="evenodd">
        <g id="Verify-Your-Email" transform="translate(-630.000000, -323.000000)">
            <g id="Group" transform="translate(471.000000, 323.000000)">
                <g id="Verify-Email-Illo" transform="translate(159.000000, 0.000000)">
                    <circle id="Oval" stroke="#EFEFF2" stroke-width="3" cx="75" cy="75" r="73.5"></circle>
                    <path d="M78,26.7320508 L115.30127,48.2679492 C117.157677,49.339746 118.30127,51.3205081 118.30127,53.4641016 L118.30127,96.5358984 C118.30127,98.6794919 117.157677,100.660254 115.30127,101.732051 L78,123.267949 C76.1435935,124.339746 73.8564065,124.339746 72,123.267949 L34.6987298,101.732051 C32.8423234,100.660254 31.6987298,98.6794919 31.6987298,96.5358984 L31.6987298,53.4641016 C31.6987298,51.3205081 32.8423234,49.339746 34.6987298,48.2679492 L72,26.7320508 C73.8564065,25.660254 76.1435935,25.660254 78,26.7320508 Z" id="Polygon" fill="url(#linearGradient-1)"></path>
                    <path d="M89.4,61 L60.6,61 C58.6200002,61 57.018,62.6312502 57.018,64.625 L57,86.375 C57,88.36875 58.6200002,90 60.6,90 L89.4,90 C91.38,90 93,88.36875 93,86.375 L93,64.625 C93,62.6312502 91.38,61 89.4,61 Z M89.4,68.25 L75,77.3125 L60.6,68.25 L60.6,64.625 L75,73.6875 L89.4,64.625 L89.4,68.25 Z" id="Fill-3" fill="#FFFFFF"></path>
                    <path id="Path-2" d="M151.758092,154.966794 L153.189693,156.363403 C152.463679,157.107607 151.727622,157.769449 150.986303,158.343344 L150.615227,158.622937 L149.433062,157.009714 C150.207552,156.442171 150.985624,155.758615 151.758092,154.966794 Z M156.393766,148.739569 L158.117406,149.753998 C157.516477,150.775052 156.893426,151.741635 156.252577,152.647164 L155.865967,153.183101 L154.254766,151.998183 C154.990919,150.997194 155.706538,149.907257 156.393766,148.739569 Z M159.812865,141.669659 L161.672908,142.404669 C161.266142,143.434047 160.836144,144.437866 160.385028,145.411895 L160.042765,146.136765 L158.240663,145.269339 C158.796531,144.114506 159.32199,142.911887 159.812865,141.669659 Z M162.225127,134.149597 L164.164577,134.637997 C163.914602,135.630652 163.642563,136.612636 163.349467,137.581372 L163.049389,138.545597 L161.144509,137.936146 C161.541077,136.696646 161.902074,135.432448 162.225127,134.149597 Z M163.67272,126.414875 L165.657553,126.660713 C165.532661,127.669055 165.384209,128.67443 165.212804,129.674899 L165.033772,130.673661 L163.067922,130.305649 C163.309216,129.016701 163.511284,127.71826 163.67272,126.414875 Z M166.142769,118.560209 C166.147817,119.57315 166.127684,120.58891 166.082759,121.605994 L166.029583,122.623464 L164.033214,122.503008 C164.092672,121.517573 164.128245,120.533152 164.139568,119.551222 L164.142794,118.570176 L166.142769,118.560209 Z M165.546554,110.466408 C165.692282,111.469301 165.811094,112.479817 165.903252,113.49677 L165.986536,114.515825 L163.991827,114.6612 C163.919989,113.675512 163.822543,112.695977 163.699253,111.72375 L163.56734,110.754003 L165.546554,110.466408 Z M163.752704,102.469629 C164.072315,103.504477 164.359551,104.552741 164.614642,105.613267 L164.799938,106.410943 L162.848348,106.848317 C162.632842,105.886717 162.390305,104.935572 162.120572,103.995786 L161.841768,103.059818 L163.752704,102.469629 Z M160.690037,94.8693704 C161.181455,95.8404291 161.639402,96.8288353 162.064048,97.8336583 L162.376291,98.5903391 L160.521121,99.3375649 C160.130082,98.3667135 159.707282,97.4116299 159.252561,96.4731642 L158.905533,95.7724441 L160.690037,94.8693704 Z M156.392104,87.950596 C157.048991,88.8261942 157.672592,89.7218435 158.263028,90.6368102 L158.699639,91.3266458 L157.000346,92.3813507 C156.451216,91.496618 155.870397,90.6302193 155.257737,89.782806 L154.792269,89.1508159 L156.392104,87.950596 Z M150.915396,81.842565 C151.716705,82.5951031 152.486483,83.3688116 153.224814,84.1631432 L153.772668,84.7627501 L152.284669,86.0991107 C151.592367,85.3282525 150.869768,84.5768276 150.116732,83.8453291 L149.546245,83.3004491 L150.915396,81.842565 Z M144.540133,76.7573371 C145.452314,77.3754166 146.335843,78.0142954 147.190787,78.673583 L147.826635,79.1718693 L146.580716,80.7363775 C145.822812,80.1328089 145.040417,79.5461562 144.233434,78.9767259 L143.41825,78.4130476 L144.540133,76.7573371 Z M140.573296,67.4275991 L138.404,73.137 L138.414526,73.142744 C139.022357,73.4540558 139.620324,73.7729181 140.20844,74.099264 L141.083228,74.5943874 L140.083341,76.3265039 C139.304613,75.8769729 138.507044,75.4412209 137.690574,75.019431 L135.601898,80.5151965 L125,69 L140.573296,67.4275991 Z" fill="#B2E7F4" fill-rule="nonzero"></path>
                </g>
            </g>
        </g>
    </g>
</svg>