<?xml version="1.0" encoding="UTF-8"?>
<svg width="10px" height="10px" viewBox="0 0 10 10" version="1.1" xmlns="http://www.w3.org/2000/svg" xmlns:xlink="http://www.w3.org/1999/xlink">
    <!-- Generator: Sketch 64 (93537) - https://sketch.com -->
    <title>info-circle</title>
    <desc>Created with Sketch.</desc>
    <defs>
        <path d="M5,0.15625 C2.32505859,0.15625 0.15625,2.32583984 0.15625,5 C0.15625,7.67572266 2.32505859,9.84375 5,9.84375 C7.67494141,9.84375 9.84375,7.67572266 9.84375,5 C9.84375,2.32583984 7.67494141,0.15625 5,0.15625 Z M5,2.3046875 C5.45304688,2.3046875 5.8203125,2.67195312 5.8203125,3.125 C5.8203125,3.57804688 5.45304688,3.9453125 5,3.9453125 C4.54695312,3.9453125 4.1796875,3.57804688 4.1796875,3.125 C4.1796875,2.67195312 4.54695312,2.3046875 5,2.3046875 Z M6.09375,7.265625 C6.09375,7.39505859 5.98880859,7.5 5.859375,7.5 L4.140625,7.5 C4.01119141,7.5 3.90625,7.39505859 3.90625,7.265625 L3.90625,6.796875 C3.90625,6.66744141 4.01119141,6.5625 4.140625,6.5625 L4.375,6.5625 L4.375,5.3125 L4.140625,5.3125 C4.01119141,5.3125 3.90625,5.20755859 3.90625,5.078125 L3.90625,4.609375 C3.90625,4.47994141 4.01119141,4.375 4.140625,4.375 L5.390625,4.375 C5.52005859,4.375 5.625,4.47994141 5.625,4.609375 L5.625,6.5625 L5.859375,6.5625 C5.98880859,6.5625 6.09375,6.66744141 6.09375,6.796875 L6.09375,7.265625 Z" id="path-1"></path>
        <path d="M5,0.15625 C2.32505859,0.15625 0.15625,2.32583984 0.15625,5 C0.15625,7.67572266 2.32505859,9.84375 5,9.84375 C7.67494141,9.84375 9.84375,7.67572266 9.84375,5 C9.84375,2.32583984 7.67494141,0.15625 5,0.15625 Z M5,2.3046875 C5.45304688,2.3046875 5.8203125,2.67195312 5.8203125,3.125 C5.8203125,3.57804688 5.45304688,3.9453125 5,3.9453125 C4.54695312,3.9453125 4.1796875,3.57804688 4.1796875,3.125 C4.1796875,2.67195312 4.54695312,2.3046875 5,2.3046875 Z M6.09375,7.265625 C6.09375,7.39505859 5.98880859,7.5 5.859375,7.5 L4.140625,7.5 C4.01119141,7.5 3.90625,7.39505859 3.90625,7.265625 L3.90625,6.796875 C3.90625,6.66744141 4.01119141,6.5625 4.140625,6.5625 L4.375,6.5625 L4.375,5.3125 L4.140625,5.3125 C4.01119141,5.3125 3.90625,5.20755859 3.90625,5.078125 L3.90625,4.609375 C3.90625,4.47994141 4.01119141,4.375 4.140625,4.375 L5.390625,4.375 C5.52005859,4.375 5.625,4.47994141 5.625,4.609375 L5.625,6.5625 L5.859375,6.5625 C5.98880859,6.5625 6.09375,6.66744141 6.09375,6.796875 L6.09375,7.265625 Z" id="path-3"></path>
    </defs>
    <g id="Page-1" stroke="none" stroke-width="1" fill="none" fill-rule="evenodd">
        <g id="Sign-Up-4" transform="translate(-887.000000, -535.000000)">
            <g id="Solid/info-circle" transform="translate(887.000000, 535.000000)">
                <mask id="mask-2" fill="white">
                    <use xlink:href="#path-1"></use>
                </mask>
                <use id="Mask" fill="#000000" fill-rule="nonzero" xlink:href="#path-1"></use>
                <mask id="mask-4" fill="white">
                    <use xlink:href="#path-3"></use>
                </mask>
                <use id="Mask" fill="#B2E7F4" fill-rule="nonzero" xlink:href="#path-3"></use>
            </g>
        </g>
    </g>
</svg>