<?xml version="1.0" encoding="UTF-8"?>
<svg width="26px" height="26px" viewBox="0 0 26 26" version="1.1" xmlns="http://www.w3.org/2000/svg" xmlns:xlink="http://www.w3.org/1999/xlink">
    <!-- Generator: Sketch 63.1 (92452) - https://sketch.com -->
    <title>Group 55</title>
    <desc>Created with Sketch.</desc>
    <g id="Screens" stroke="none" stroke-width="1" fill="none" fill-rule="evenodd">
        <g id="League---Notifications" transform="translate(-882.000000, -343.000000)">
            <g id="Group-55" transform="translate(885.000000, 346.000000)">
                <g id="Group-7-Copy-4" fill="#8F91A6" stroke="#E6E2E2" stroke-width="2.53">
                    <g id="Group-14-Copy-7">
                        <circle id="Oval" cx="10.12" cy="10.12" r="11.385"></circle>
                    </g>
                </g>
                <g id="Group-53" transform="translate(4.000000, 4.000000)" fill="#FFFFFF" fill-rule="nonzero" opacity="0.5">
                    <path d="M10.9483191,-2.24099495e-11 C11.2107875,-2.24099495e-11 11.4252655,0.218398295 11.4392724,0.493624717 L11.44,0.522292507 L11.44,9.15785655 C11.44,9.43666595 11.234402,9.66435789 10.9753067,9.67922756 L10.9483191,9.68 L0.491400255,9.68 C0.229067543,9.68 0.0147251693,9.46160171 0.000727158459,9.18650993 L0,0.522292507 C0,0.24333902 0.20559795,0.0156422763 0.464439825,0.000772441712 L10.9483191,-2.24099495e-11 Z M7.03570313,1.6578125 C5.99585938,1.6578125 5.99585938,1.6578125 5.42652344,2.3453125 C4.91412109,2.9640625 4.91412109,2.9640625 4.86288086,4.05267578 L4.8571875,4.30039063 L4.8571875,5.44335938 C4.8571875,6.70234375 4.8571875,6.70234375 5.42867188,7.39414063 C6.00015625,8.0859375 6.00015625,8.0859375 7.04429688,8.0859375 C8.07984375,8.0859375 8.07984375,8.0859375 8.64917969,7.3984375 C9.16158203,6.7796875 9.16158203,6.7796875 9.21282227,5.69107422 L9.21851563,5.44335938 L9.21851563,4.3046875 C9.21851563,3.04140625 9.21851563,3.04140625 8.64703125,2.34960938 C8.07554688,1.6578125 8.07554688,1.6578125 7.03570313,1.6578125 Z M7.03570313,2.775 C7.418125,2.775 7.418125,2.775 7.59429688,3.10800781 C7.74530134,3.39344308 7.74530134,3.39344308 7.76687341,3.92985092 L7.77046875,4.115625 L7.77046875,5.6625 C7.76617188,6.33710938 7.76617188,6.33710938 7.59,6.65292969 C7.41382813,6.96875 7.41382813,6.96875 7.04429688,6.96875 C6.661875,6.96875 6.661875,6.96875 6.48570313,6.64433594 C6.33469866,6.36626674 6.33469866,6.36626674 6.31312659,5.81196987 L6.30953125,5.61953125 L6.30953125,4.02109375 C6.32242188,3.39375 6.32242188,3.39375 6.49214844,3.084375 C6.661875,2.775 6.661875,2.775 7.03570313,2.775 Z M2.70359375,2.65046875 L1.7909375,2.65046875 L2.523125,4.00914062 L1.7496875,5.44 L2.66234375,5.44 L3.09289063,4.615 L3.53117188,5.44 L4.43867188,5.44 L3.6678125,4.00914062 L4.40257812,2.65046875 L3.50023438,2.65046875 L3.09546875,3.41875 L2.70359375,2.65046875 Z" id="Shape"></path>
                </g>
            </g>
        </g>
    </g>
</svg>