<?xml version="1.0" encoding="UTF-8"?>
<svg width="26px" height="26px" viewBox="0 0 26 26" version="1.1" xmlns="http://www.w3.org/2000/svg" xmlns:xlink="http://www.w3.org/1999/xlink">
    <!-- Generator: Sketch 63.1 (92452) - https://sketch.com -->
    <title>Group 54</title>
    <desc>Created with Sketch.</desc>
    <g id="Screens" stroke="none" stroke-width="1" fill="none" fill-rule="evenodd">
        <g id="League---Notifications" transform="translate(-841.000000, -343.000000)">
            <g id="Group-54" transform="translate(844.000000, 346.000000)">
                <g id="Group-7-Copy-3" fill="#525CD7" stroke="#E6E2E2" stroke-width="2.53">
                    <g id="Group-14-Copy-7">
                        <circle id="Oval" cx="10.12" cy="10.12" r="11.385"></circle>
                    </g>
                </g>
                <path d="M14.5272299,4 C14.7796033,4 14.9858322,4.22561807 14.9993004,4.50994289 L15,4.53955838 L15,13.4605956 C15,13.7486218 14.8023097,13.9838408 14.5531795,13.999202 L14.5272299,14 L4.47250025,14 C4.22025725,14 4.01415882,13.7743819 4.00069919,13.4901962 L4,4.53955838 C4,4.25138329 4.19769034,4.01615938 4.44657676,4.00079798 L14.5272299,4 Z M10.7047776,5.83533381 C10.073137,5.83533381 10.073137,5.83533381 9.56180889,6.11033381 C9.05048077,6.38533381 9.05048077,6.38533381 8.76259014,6.87302912 C8.52268129,7.27944188 8.52268129,7.27944188 8.48269648,7.74702543 L8.47469952,7.93650568 L9.92704327,7.93650568 C9.92704327,7.51541193 9.92704327,7.51541193 10.1332933,7.23396662 C10.3395433,6.95252131 10.3395433,6.95252131 10.6704026,6.95252131 C11.0055589,6.95252131 11.0055589,6.95252131 11.1817308,7.16306818 C11.3579026,7.37361506 11.3579026,7.37361506 11.3579026,7.77752131 C11.3579026,8.22611506 11.3579026,8.22611506 10.7557816,8.95662678 L10.6145433,9.12244318 L8.60360577,11.2365057 L8.60360577,12.1818182 L12.9692308,12.1818182 L12.9692308,11.0646307 L10.5071214,11.0646307 L11.3149339,10.1322088 C11.9594651,9.48767756 11.9594651,9.48767756 12.2495042,9.10310724 C12.5395433,8.71853693 12.5395433,8.71853693 12.6770433,8.36834162 C12.8145433,8.01814631 12.8145433,8.01814631 12.8145433,7.64861506 C12.8145433,6.77205256 12.8145433,6.77205256 12.2666917,6.30369318 C11.7188401,5.83533381 11.7188401,5.83533381 10.7047776,5.83533381 Z M6.58513221,6.78137784 L5.67247596,6.78137784 L6.40466346,8.14004972 L5.63122596,9.57090909 L6.54388221,9.57090909 L6.97442909,8.74590909 L7.41271034,9.57090909 L8.32021034,9.57090909 L7.54935096,8.14004972 L8.28411659,6.78137784 L7.38177284,6.78137784 L6.97700721,7.54965909 L6.58513221,6.78137784 Z" id="Shape" fill="#FFFFFF" fill-rule="nonzero" opacity="0.5"></path>
            </g>
        </g>
    </g>
</svg>