<?xml version="1.0" encoding="UTF-8"?>
<svg width="35px" height="36px" viewBox="0 0 35 36" version="1.1" xmlns="http://www.w3.org/2000/svg" xmlns:xlink="http://www.w3.org/1999/xlink">
    <!-- Generator: Sketch 63.1 (92452) - https://sketch.com -->
    <title>Group 37</title>
    <desc>Created with Sketch.</desc>
    <g id="Screens" stroke="none" stroke-width="1" fill="none" fill-rule="evenodd">
        <g id="League---Notifications" transform="translate(-968.000000, -84.000000)">
            <g id="Group-35" transform="translate(928.000000, 84.500000)">
                <g id="Group-37" transform="translate(40.000000, 0.000000)">
                    <circle id="Oval-Copy-2" fill="#EFEEF8" cx="17.5" cy="17.5" r="17.5"></circle>
                    <g id="noun_Delete_2182424" transform="translate(11.000000, 9.500000)" fill="#3D397B" fill-rule="nonzero">
                        <path d="M6.1732935,0 C5.053752,0 4.136913,0.9172845 4.136913,2.0363805 L0.572913,2.0363805 C0.5706855,2.0363805 0.568458,2.0363805 0.565785,2.0363805 C0.2846745,2.0363805 0.0565785,2.2644765 0.0565785,2.545587 C0.0565785,2.8266975 0.2846745,3.0547935 0.565785,3.0547935 C0.568458,3.0547935 0.5706855,3.0547935 0.5733585,3.0547935 L1.0821195,3.0547935 L1.0821195,13.7467935 C1.0821195,14.027904 1.3102155,14.256 1.591326,14.256 L11.7741195,14.256 C12.05523,14.256 12.283326,14.0283495 12.283326,13.7467935 L12.283326,13.7467935 L12.283326,3.0547935 L12.7925325,3.0547935 C12.79476,3.0547935 12.7969875,3.0547935 12.7996605,3.0547935 C13.080771,3.0547935 13.308867,2.8266975 13.308867,2.545587 C13.308867,2.2644765 13.0812165,2.0363805 12.7996605,2.0363805 C12.7969875,2.0363805 12.79476,2.0363805 12.792087,2.0363805 L9.2285325,2.0363805 C9.2285325,0.916839 8.311248,0 7.192152,0 L6.1732935,0 Z M6.1732935,1.018413 L7.1917065,1.018413 C7.7646195,1.018413 8.2101195,1.4634675 8.2101195,2.036826 L5.155326,2.036826 C5.155326,1.463913 5.6003805,1.018413 6.173739,1.018413 L6.1732935,1.018413 Z M2.100087,3.0547935 L11.2644675,3.0547935 L11.2644675,13.237587 L2.100087,13.237587 L2.100087,3.0547935 Z M5.1477525,5.0844915 C4.8697605,5.0889465 4.6461195,5.3152605 4.6461195,5.593698 C4.6461195,5.596371 4.6461195,5.5985985 4.6461195,5.6012715 L4.6461195,5.600826 L4.6461195,10.6924455 C4.6461195,10.694673 4.6461195,10.6969005 4.6461195,10.6995735 C4.6461195,10.980684 4.87377,11.20878 5.155326,11.20878 C5.436882,11.20878 5.6645325,10.9811295 5.6645325,10.6995735 C5.6645325,10.6969005 5.6645325,10.694673 5.6645325,10.692 L5.6645325,10.6924455 L5.6645325,5.600826 C5.6645325,5.5985985 5.6645325,5.596371 5.6645325,5.5941435 C5.6645325,5.313033 5.436882,5.084937 5.155326,5.084937 C5.152653,5.084937 5.14998,5.084937 5.147307,5.084937 L5.1477525,5.084937 L5.1477525,5.0844915 Z M8.202546,5.0844915 C7.924554,5.0889465 7.700913,5.3152605 7.700913,5.593698 C7.700913,5.596371 7.700913,5.5985985 7.700913,5.6012715 L7.700913,5.600826 L7.700913,10.6924455 C7.700913,10.694673 7.700913,10.6969005 7.700913,10.6995735 C7.700913,10.980684 7.9285635,11.20878 8.2101195,11.20878 C8.4916755,11.20878 8.719326,10.9811295 8.719326,10.6995735 C8.719326,10.6969005 8.719326,10.694673 8.719326,10.692 L8.719326,10.6924455 L8.719326,5.600826 C8.719326,5.5985985 8.719326,5.596371 8.719326,5.5941435 C8.719326,5.313033 8.4916755,5.084937 8.2101195,5.084937 C8.2074465,5.084937 8.2047735,5.084937 8.2021005,5.084937 L8.202546,5.084937 L8.202546,5.0844915 Z" id="Shape"></path>
                    </g>
                </g>
            </g>
        </g>
    </g>
</svg>