<?xml version="1.0" encoding="UTF-8"?>
<svg width="26px" height="26px" viewBox="0 0 26 26" version="1.1" xmlns="http://www.w3.org/2000/svg" xmlns:xlink="http://www.w3.org/1999/xlink">
    <!-- Generator: Sketch 63.1 (92452) - https://sketch.com -->
    <title>Group 7</title>
    <desc>Created with Sketch.</desc>
    <g id="Screens" stroke="none" stroke-width="1" fill="none" fill-rule="evenodd">
        <g id="League---Notifications" transform="translate(-800.000000, -272.000000)">
            <g id="Group-7" transform="translate(803.000000, 275.000000)">
                <g id="Group-14-Copy-7" fill="#8F91A6" stroke="#E6E2E2" stroke-width="2.53">
                    <circle id="Oval" cx="10.12" cy="10.12" r="11.385"></circle>
                </g>
                <path d="M14.7450515,5.06 C14.9772351,5.06 15.1669656,5.2597848 15.1793563,5.51155443 L15.18,13.4373574 C15.18,13.6924046 14.9981249,13.900691 14.7689251,13.9142934 L5.49470023,13.915 C5.26263667,13.915 5.07302611,13.7152152 5.06064326,13.4635687 L5.06,5.53777894 C5.06,5.2825999 5.24187511,5.07430913 5.47085061,5.06070661 L14.7450515,5.06 Z M10.8737611,11.385 L9.28401683,11.385 L9.28401683,12.8303613 L10.8737611,12.8303613 L10.8737611,11.385 Z M10.9091846,6.325 L9.26132034,6.325 L9.26132034,9.75557129 L10.9091846,9.75557129 L10.9091846,6.325 Z" id="Shape" fill="#FFFFFF" fill-rule="nonzero" opacity="0.5"></path>
            </g>
        </g>
    </g>
</svg>