<?xml version="1.0" encoding="UTF-8"?>
<svg width="26px" height="26px" viewBox="0 0 26 26" version="1.1" xmlns="http://www.w3.org/2000/svg" xmlns:xlink="http://www.w3.org/1999/xlink">
    <!-- Generator: Sketch 63.1 (92452) - https://sketch.com -->
    <title>Group 7 Copy</title>
    <desc>Created with Sketch.</desc>
    <g id="Screens" stroke="none" stroke-width="1" fill="none" fill-rule="evenodd">
        <g id="League---Notifications" transform="translate(-758.000000, -343.000000)">
            <g id="Group-7-Copy" transform="translate(761.000000, 346.000000)">
                <g id="Group-14-Copy-7" fill="#F1C351" stroke="#FEF5DB" stroke-width="2.53">
                    <circle id="Oval" cx="10.12" cy="10.12" r="11.385"></circle>
                </g>
                <g id="Group-53" transform="translate(3.795000, 5.692500)" fill="#FFFFFF" fill-rule="nonzero" opacity="0.5">
                    <path d="M12.1063144,0.158125 C12.3965438,0.158125 12.633707,0.357909804 12.6491954,0.609679428 L12.65,0.635903941 L12.65,8.53548241 C12.65,8.79052965 12.4226561,8.99881602 12.1361564,9.0124184 L12.1063144,9.013125 L0.543375282,9.013125 C0.253295841,9.013125 0.0162826391,8.8133402 0.000804069449,8.56169374 L0,8.53548241 L0,0.635903941 C0,0.380724899 0.227343887,0.172434128 0.513563269,0.158831609 L0.543375282,0.158125 L12.1063144,0.158125 Z M7.18505973,1.76176602 L5.6747185,1.76176602 C5.59504311,1.76176602 5.52954916,1.81420188 5.52059939,1.88195533 L5.51955708,1.89784575 L5.51955708,3.76301074 L3.3969489,3.76301074 C3.31756167,3.76301074 3.25235588,3.81579931 3.2434458,3.88349397 L3.24240813,3.89936318 L3.24240813,5.22661781 C3.24240813,5.2967614 3.30194341,5.35420752 3.37889968,5.36205623 L3.3969489,5.36297025 L5.51955708,5.36297025 L5.51955708,7.22786254 C5.51955708,7.2977529 5.57935994,7.3552985 5.6566029,7.36316271 L5.6747185,7.36407862 L7.18505973,7.36407862 C7.26444696,7.36407862 7.33018791,7.31152519 7.33917443,7.24375495 L7.34022115,7.22786254 L7.34022115,5.36297025 L9.46251901,5.36297025 C9.54190624,5.36297025 9.60737961,5.31053439 9.61632791,5.2425626 L9.61737011,5.22661781 L9.61737011,3.89936318 C9.61737011,3.82959943 9.55756725,3.77182774 9.48057276,3.76393058 L9.46251901,3.76301074 L7.34022115,3.76301074 L7.34022115,1.89784575 C7.34022115,1.82795539 7.28015073,1.77052736 7.203118,1.76267994 L7.18505973,1.76176602 Z" id="Shape"></path>
                </g>
            </g>
        </g>
    </g>
</svg>