<?xml version="1.0" encoding="UTF-8"?>
<svg width="22px" height="22px" viewBox="0 0 22 22" version="1.1" xmlns="http://www.w3.org/2000/svg" xmlns:xlink="http://www.w3.org/1999/xlink">
    <!-- Generator: Sketch 63.1 (92452) - https://sketch.com -->
    <title>noun_Time_2181849</title>
    <desc>Created with Sketch.</desc>
    <g id="Screens" stroke="none" stroke-width="1" fill="none" fill-rule="evenodd">
        <g id="League---Notifications" transform="translate(-1396.000000, -447.000000)" fill="#3D397B" fill-rule="nonzero">
            <g id="noun_Time_2181849" transform="translate(1396.000000, 447.000000)">
                <path d="M21.2268,9.015975 C21.145575,8.528625 20.658225,8.17665 20.170875,8.257875 C19.683525,8.3391 19.33155,8.82645 19.412775,9.3138 C19.494,9.80115 19.54815,10.315575 19.54815,10.83 C19.54815,15.64935 15.64935,19.54815 10.83,19.54815 C6.01065,19.54815 2.11185,15.64935 2.11185,10.83 C2.11185,6.01065 6.01065,2.11185 10.83,2.11185 C12.07545,2.11185 13.3209,2.3826 14.45805,2.897025 L14.02485,3.51975 C13.7541,3.871725 13.9707,4.38615 14.430975,4.4403 L18.0861,4.954725 C18.546375,5.008875 18.89835,4.5486 18.68175,4.1154 L17.05725,0.785175 C16.867725,0.37905 16.326225,0.351975 16.055475,0.70395 L15.54105,1.4079 C14.106075,0.6498 12.481575,0.27075 10.83,0.27075 C8.0142,0.27075 5.36085,1.380825 3.3573,3.3573 C1.380825,5.36085 0.27075,8.0142 0.27075,10.83 C0.27075,13.6458 1.380825,16.29915 3.3573,18.3027 C5.36085,20.279175 8.0142,21.38925 10.83,21.38925 C13.6458,21.38925 16.29915,20.279175 18.3027,18.3027 C20.279175,16.29915 21.38925,13.6458 21.38925,10.83 C21.38925,10.207275 21.3351,9.611625 21.2268,9.015975 Z" id="Path"></path>
                <path d="M10.857075,5.333775 C10.857075,5.333775 10.857075,5.333775 10.857075,5.333775 C10.34265,5.333775 9.936525,5.7399 9.936525,6.254325 L9.90945,11.236125 C9.90945,11.236125 9.90945,11.236125 9.90945,11.2632 C9.90945,11.2632 9.90945,11.290275 9.90945,11.290275 C9.90945,11.290275 9.90945,11.31735 9.90945,11.31735 C9.90945,11.31735 9.90945,11.344425 9.90945,11.344425 C9.90945,11.344425 9.90945,11.3715 9.90945,11.3715 C9.90945,11.3715 9.90945,11.3715 9.90945,11.398575 C9.90945,11.398575 9.90945,11.42565 9.90945,11.42565 C9.90945,11.42565 9.90945,11.42565 9.90945,11.452725 C9.90945,11.452725 9.90945,11.4798 9.90945,11.4798 C9.90945,11.4798 9.90945,11.4798 9.90945,11.506875 C9.90945,11.506875 9.90945,11.53395 9.90945,11.53395 C9.90945,11.53395 9.90945,11.53395 9.90945,11.561025 C9.90945,11.561025 9.90945,11.5881 9.90945,11.5881 C9.90945,11.5881 9.90945,11.5881 9.90945,11.615175 C9.90945,11.615175 9.90945,11.64225 9.90945,11.64225 C9.90945,11.64225 9.90945,11.64225 9.90945,11.669325 C9.90945,11.669325 9.90945,11.6964 9.90945,11.6964 C9.90945,11.6964 9.90945,11.723475 9.90945,11.723475 C9.90945,11.723475 9.90945,11.723475 9.90945,11.75055 C9.90945,11.75055 9.90945,11.777625 9.90945,11.777625 C9.90945,11.777625 9.90945,11.777625 9.90945,11.8047 C9.90945,11.8047 9.90945,11.831775 9.936525,11.831775 C9.936525,11.831775 9.936525,11.831775 9.936525,11.831775 C9.936525,11.831775 9.936525,11.85885 9.9636,11.85885 C9.9636,11.85885 9.9636,11.85885 9.9636,11.85885 C9.9636,11.85885 9.9636,11.885925 9.990675,11.885925 C9.990675,11.885925 9.990675,11.885925 9.990675,11.885925 C9.990675,11.885925 9.990675,11.913 10.01775,11.913 C10.01775,11.913 10.01775,11.913 10.01775,11.913 C10.01775,11.913 10.01775,11.940075 10.044825,11.940075 C10.044825,11.940075 10.044825,11.940075 10.0719,11.96715 C10.0719,11.96715 10.0719,11.96715 10.098975,11.994225 C10.098975,11.994225 10.098975,11.994225 10.12605,12.0213 C10.12605,12.0213 10.12605,12.0213 10.12605,12.0213 L14.539275,16.109625 C14.7288,16.272075 14.9454,16.3533 15.162,16.3533 C15.405675,16.3533 15.64935,16.245 15.838875,16.055475 C16.19085,15.676425 16.163775,15.10785 15.784725,14.755875 L11.75055,10.83 L11.777625,6.254325 C11.777625,5.766975 11.3715,5.333775 10.857075,5.333775 Z" id="Path"></path>
            </g>
        </g>
    </g>
</svg>