<?xml version="1.0" encoding="UTF-8"?>
<svg width="20px" height="20px" viewBox="0 0 20 20" version="1.1" xmlns="http://www.w3.org/2000/svg" xmlns:xlink="http://www.w3.org/1999/xlink">
    <!-- Generator: Sketch 63.1 (92452) - https://sketch.com -->
    <title>Group 7</title>
    <desc>Created with Sketch.</desc>
    <g id="Screens" stroke="none" stroke-width="1" fill="none" fill-rule="evenodd">
        <g id="Next-Gameweek" transform="translate(-247.000000, -1190.000000)">
            <g id="Group-4-Copy-3" transform="translate(94.000000, 853.000000)">
                <g id="Group-4">
                    <g id="Group-7" transform="translate(155.000000, 339.000000)">
                        <g id="Group-14-Copy-7" fill="#FA6260" stroke="#FAE8EA" stroke-width="2">
                            <circle id="Oval" cx="8" cy="8" r="9"></circle>
                        </g>
                        <g id="Group-53" transform="translate(3.000000, 4.500000)" fill="#FFFFFF" fill-rule="nonzero" opacity="0.5">
                            <path d="M9.57020901,0.125 C9.79963939,0.125 9.98712017,0.282932651 9.99936397,0.481960022 L10,0.502690863 L10,6.74741693 C10,6.94903529 9.82028151,7.11368856 9.59379954,7.12444142 L9.57020901,7.125 L0.429545678,7.125 C0.200233866,7.125 0.0128716515,6.96706735 0.000635628023,6.76813734 L0,6.74741693 L0,0.502690863 C0,0.3009683 0.179718488,0.136311563 0.405978868,0.125558584 L0.429545678,0.125 L9.57020901,0.125 Z M5.67988912,1.39270041 L4.48594348,1.39270041 C4.42295898,1.39270041 4.37118511,1.43415168 4.36411019,1.48771172 L4.36328623,1.50027332 L4.36328623,2.97471205 L2.6853351,2.97471205 C2.6225784,2.97471205 2.57103231,3.01644214 2.56398877,3.06995571 L2.56316848,3.08250054 L2.56316848,4.13171368 C2.56316848,4.18716316 2.61023194,4.23257511 2.67106694,4.23877963 L2.6853351,4.23950217 L4.36328623,4.23950217 L4.36328623,5.71372532 C4.36328623,5.76897462 4.41056121,5.81446522 4.47162284,5.82068199 L4.48594348,5.82140602 L5.67988912,5.82140602 C5.74264582,5.82140602 5.79461495,5.77986181 5.80171892,5.7262885 L5.80254636,5.71372532 L5.80254636,4.23950217 L7.48025218,4.23950217 C7.54300889,4.23950217 7.59476649,4.1980509 7.60184025,4.14431826 L7.60266412,4.13171368 L7.60266412,3.08250054 C7.60266412,3.02735133 7.55538913,2.98168201 7.49452392,2.97543919 L7.48025218,2.97471205 L5.80254636,2.97471205 L5.80254636,1.50027332 C5.80254636,1.44502402 5.75505986,1.39962637 5.69416443,1.39342288 L5.67988912,1.39270041 Z" id="Shape"></path>
                        </g>
                    </g>
                </g>
            </g>
        </g>
    </g>
</svg>