<?xml version="1.0" encoding="UTF-8"?>
<svg width="17px" height="17px" viewBox="0 0 17 17" version="1.1" xmlns="http://www.w3.org/2000/svg" xmlns:xlink="http://www.w3.org/1999/xlink">
    <!-- Generator: Sketch 63.1 (92452) - https://sketch.com -->
    <title>noun_users_2417408</title>
    <desc>Created with Sketch.</desc>
    <g id="Screens" stroke="none" stroke-width="1" fill="none" fill-rule="evenodd" opacity="0.4">
        <g id="League---Overview-(League-Dropdown)" transform="translate(-209.000000, -24.000000)" fill="#AFB1BF" fill-rule="nonzero">
            <g id="noun_users_2417408" transform="translate(209.000000, 24.000000)">
                <path d="M8.1,0 C3.62649353,0 0,3.62649353 0,8.1 C0,12.5735065 3.62649353,16.2 8.1,16.2 C12.5735065,16.2 16.2,12.5735065 16.2,8.1 C16.1946998,3.6286908 12.5713092,0.00530024421 8.1,0 Z M7.59375,15.1616813 L7.59375,10.1649938 C7.29583478,10.0377494 6.98823954,9.93448406 6.67389375,9.85618125 C6.2516168,10.2080954 5.72147768,10.4046418 5.17185,10.4130563 C4.62222232,10.4046418 4.0920832,10.2080954 3.66980625,9.85618125 C2.89879739,10.0096193 2.17659899,10.3480466 1.565325,10.8423563 C0.319687067,7.875526 1.22895188,4.44185921 3.77966101,2.48033466 C6.33037014,0.518810117 9.88238672,0.521700397 12.4299003,2.48737337 C14.9774138,4.45304635 15.8810895,7.88818833 14.630625,10.8529875 C14.0161186,10.3662914 13.2991373,10.025457 12.5337375,9.85618125 C11.6705264,10.6000619 10.3928611,10.6000619 9.52965,9.85618125 C9.21398853,9.92757722 8.90505065,10.0259834 8.60625,10.1503125 L8.60625,15.1621875 C8.438175,15.1743375 8.2711125,15.1880063 8.1,15.1880063 C7.9288875,15.1880063 7.761825,15.1738312 7.59375,15.1616813 Z" id="Shape"></path>
                <circle id="Oval" cx="5.17185" cy="6.98068125" r="2.3601375"></circle>
                <circle id="Oval" cx="11.0316938" cy="6.98068125" r="2.3601375"></circle>
            </g>
        </g>
    </g>
</svg>