<?xml version="1.0" encoding="UTF-8"?>
<svg width="23px" height="20px" viewBox="0 0 23 20" version="1.1" xmlns="http://www.w3.org/2000/svg" xmlns:xlink="http://www.w3.org/1999/xlink">
    <!-- Generator: Sketch 63.1 (92452) - https://sketch.com -->
    <title>noun_4-5-1_1789970 copy 2</title>
    <desc>Created with Sketch.</desc>
    <g id="Screens" stroke="none" stroke-width="1" fill="none" fill-rule="evenodd">
        <g id="Next-Gameweek" transform="translate(-115.000000, -294.000000)" fill="#2A2471" fill-rule="nonzero">
            <g id="noun_4-5-1_1789970-copy-2" transform="translate(115.000000, 294.000000)">
                <path d="M22.5917451,17.3915809 C22.3408896,17.1430698 21.9916595,16.9871413 21.6079983,16.9871413 C21.224337,16.9871413 20.8751069,17.1430698 20.6242515,17.3915809 C20.3684773,17.640092 20.2159966,17.9860585 20.2159966,18.371007 C20.2159966,18.7510828 20.3684773,19.0970493 20.6242515,19.3455604 C20.8751069,19.5940715 21.224337,19.75 21.6079983,19.75 C21.9916595,19.75 22.3408896,19.5940715 22.5917451,19.3455604 C22.8426005,19.0970493 23,18.7510828 23,18.371007 C23,17.9860585 22.8426005,17.640092 22.5917451,17.3915809 Z M15.8530796,17.3915809 C15.6022241,17.1430698 15.252994,16.9871413 14.8693328,16.9871413 C14.4856715,16.9871413 14.1364414,17.1430698 13.885586,17.3915809 C13.6347305,17.640092 13.4773311,17.9860585 13.4773311,18.371007 C13.4773311,18.7510828 13.6347305,19.0970493 13.885586,19.3455604 C14.1364414,19.5940715 14.4856715,19.75 14.8693328,19.75 C15.252994,19.75 15.6022241,19.5940715 15.8530796,19.3455604 C16.103935,19.0970493 16.2613345,18.7510828 16.2613345,18.371007 C16.2613345,17.9860585 16.103935,17.640092 15.8530796,17.3915809 Z M9.11441403,17.3915809 C8.8635586,17.1430698 8.51432849,16.9871413 8.13066724,16.9871413 C7.74700599,16.9871413 7.39777588,17.1430698 7.14692044,17.3915809 C6.89606501,17.640092 6.73866553,17.9860585 6.73866553,18.371007 C6.73866553,18.7510828 6.89606501,19.0970493 7.14692044,19.3455604 C7.39777588,19.5940715 7.74700599,19.75 8.13066724,19.75 C8.51432849,19.75 8.8635586,19.5940715 9.11441403,19.3455604 C9.37018819,19.0970493 9.52266895,18.7510828 9.52266895,18.371007 C9.52266895,17.9860585 9.37018819,17.640092 9.11441403,17.3915809 Z M2.38066724,17.3915809 C2.1298118,17.1430698 1.78058169,16.9871413 1.39200171,16.9871413 C1.00834046,16.9871413 0.65911035,17.1430698 0.408254918,17.3915809 C0.157399486,17.640092 -7.68415775e-10,17.9860585 -7.68415775e-10,18.371007 C-7.68415775e-10,18.7510828 0.157399486,19.0970493 0.408254918,19.3455604 C0.65911035,19.5940715 1.00834046,19.75 1.39200171,19.75 C1.78058169,19.75 2.1298118,19.5940715 2.38066724,19.3455604 C2.63152267,19.0970493 2.78400342,18.7510828 2.78400342,18.371007 C2.78400342,17.9860585 2.63152267,17.640092 2.38066724,17.3915809 Z M9.48374679,1.15443963 C9.23289136,0.905928535 8.88366125,0.750000002 8.5,0.750000002 C8.11633875,0.750000002 7.76710864,0.905928535 7.51625321,1.15443963 C7.26539778,1.40295073 7.10799829,1.74891716 7.10799829,2.13386573 C7.10799829,2.51394153 7.26539778,2.85990796 7.51625321,3.10841906 C7.76710864,3.35693016 8.11633875,3.51285869 8.5,3.51285869 C8.88366125,3.51285869 9.23289136,3.35693016 9.48374679,3.10841906 C9.73460222,2.85990796 9.89200171,2.51394153 9.89200171,2.13386573 C9.89200171,1.74891716 9.73460222,1.40295073 9.48374679,1.15443963 L9.48374679,1.15443963 Z M15.3757485,1.15443963 C15.1248931,0.905928535 14.775663,0.750000002 14.3920017,0.750000002 C14.0083405,0.750000002 13.6591104,0.905928535 13.4082549,1.15443963 C13.1573995,1.40295073 13,1.74891716 13,2.12899296 C13,2.50906876 13.1573995,2.85503519 13.4082549,3.10354629 C13.6591104,3.35205739 14.0083405,3.50798593 14.3920017,3.50798593 C14.775663,3.50798593 15.1248931,3.35205739 15.3757485,3.10354629 C15.6266039,2.85503519 15.7840034,2.50906876 15.7840034,2.12899296 C15.7840034,1.74891716 15.6266039,1.40295073 15.3757485,1.15443963 Z M21.6079983,7.94436925 C21.3571429,7.69585815 21.0079127,7.54480238 20.6242515,7.54480238 C20.2356715,7.54480238 19.8913601,7.69585815 19.635586,7.94924202 C19.3847305,8.19288035 19.2322498,8.53884678 19.2322498,8.92379535 C19.2322498,9.30387114 19.3847305,9.64983758 19.635586,9.89834868 C19.8913601,10.1468598 20.2356715,10.3027883 20.6242515,10.3027883 C21.0079127,10.3027883 21.3571429,10.1468598 21.6079983,9.89834868 C21.8588537,9.64983758 22.0162532,9.30387114 22.0162532,8.92379535 C22.0162532,8.53884678 21.8588537,8.19288035 21.6079983,7.94436925 Z M14.8693328,9.40132648 C14.6184773,9.15281538 14.2692472,9.00175961 13.885586,9.00175961 C13.5019247,9.00175961 13.1526946,9.15281538 12.9018392,9.40619924 C12.646065,9.64983758 12.4935843,9.99580401 12.4935843,10.3807526 C12.4935843,10.7608284 12.646065,11.1067948 12.9018392,11.3553059 C13.1526946,11.603817 13.5019247,11.7597455 13.885586,11.7597455 C14.2692472,11.7597455 14.6184773,11.603817 14.8693328,11.3553059 C15.1201882,11.1067948 15.2775877,10.7608284 15.2775877,10.3807526 C15.2775877,9.99580401 15.1201882,9.64983758 14.8693328,9.40132648 Z M10.0981608,9.40132648 C9.84730539,9.15281538 9.49807528,9.00175961 9.11441403,9.00175961 C8.73075278,9.00175961 8.38152267,9.15281538 8.13066724,9.40619924 C7.8798118,9.64983758 7.72241232,9.99580401 7.72241232,10.3807526 C7.72241232,10.7608284 7.8798118,11.1067948 8.13066724,11.3553059 C8.38152267,11.603817 8.73075278,11.7597455 9.11441403,11.7597455 C9.49807528,11.7597455 9.84730539,11.603817 10.0981608,11.3553059 C10.3490163,11.1067948 10.5064157,10.7608284 10.5064157,10.3807526 C10.5064157,9.99580401 10.3490163,9.64983758 10.0981608,9.40132648 Z M3.85136869,7.94436925 C3.60543199,7.69585815 3.25620188,7.54480238 2.8676219,7.54480238 C2.48396065,7.54480238 2.13473054,7.69585815 1.88387511,7.94924201 C1.63301967,8.19288035 1.47562019,8.53884678 1.47562019,8.92379534 C1.47562019,9.30387114 1.63301967,9.64983757 1.88387511,9.89834867 C2.13473054,10.1468598 2.48396065,10.3027883 2.8676219,10.3027883 C3.25620188,10.3027883 3.60543199,10.1468598 3.85136869,9.89834867 C4.10714286,9.64983757 4.25962361,9.30387114 4.25962361,8.92379534 C4.25962361,8.53884678 4.10714286,8.19288035 3.85136869,7.94436925 L3.85136869,7.94436925 Z" id="Shape"></path>
            </g>
        </g>
    </g>
</svg>