<?xml version="1.0" encoding="UTF-8"?>
<svg width="21px" height="20px" viewBox="0 0 21 20" version="1.1" xmlns="http://www.w3.org/2000/svg" xmlns:xlink="http://www.w3.org/1999/xlink">
    <!-- Generator: Sketch 63.1 (92452) - https://sketch.com -->
    <title>noun_team_57049</title>
    <desc>Created with Sketch.</desc>
    <g id="Screens" stroke="none" stroke-width="1" fill="none" fill-rule="evenodd">
        <g id="League---Notifications" transform="translate(-1396.000000, -257.000000)" fill="#3D397B" fill-rule="nonzero">
            <g id="noun_team_57049" transform="translate(1396.000000, 257.000000)">
                <path d="M16.2972,19.7228 L8.445,19.7228 C6.2268,19.7228 4.422,17.9174 4.422,15.6992 L4.422,7.67 C4.422,5.4518 6.2268,3.647 8.445,3.647 L16.2972,3.647 C18.5154,3.647 20.3202,5.4518 20.3202,7.67 L20.3202,15.6992 C20.3202,17.9174 18.5154,19.7228 16.2972,19.7228 Z M8.445,5.447 C7.2192,5.447 6.222,6.4442 6.222,7.67 L6.222,15.6992 C6.222,16.9256 7.2192,17.9228 8.445,17.9228 L16.2972,17.9228 C17.523,17.9228 18.5202,16.9256 18.5202,15.6992 L18.5202,7.67 C18.5202,6.4442 17.523,5.447 16.2972,5.447 L8.445,5.447 L8.445,5.447 Z" id="Shape"></path>
                <path d="M4.845,16.1228 C2.6268,16.1228 0.822,14.3174 0.822,12.0992 L0.822,4.07 C0.822,1.8518 2.6268,0.047 4.845,0.047 L12.6972,0.047 C14.9154,0.047 16.7202,1.8518 16.7202,4.07 C16.7202,4.5668 16.317,4.97 15.8202,4.97 C15.3234,4.97 14.9202,4.5668 14.9202,4.07 C14.9202,2.8442 13.923,1.847 12.6972,1.847 L4.845,1.847 C3.6192,1.847 2.622,2.8442 2.622,4.07 L2.622,12.0992 C2.622,13.3256 3.6192,14.3228 4.845,14.3228 C5.3418,14.3228 5.745,14.726 5.745,15.2228 C5.745,15.7196 5.3418,16.1228 4.845,16.1228 Z" id="Path"></path>
                <g id="Group" transform="translate(6.000000, 6.200000)">
                    <path d="M11.424,12.8892 C11.4204,12.8892 11.4162,12.8892 11.412,12.8892 C10.917,12.8826 10.5204,12.4776 10.524,11.9832 C10.524,11.9568 10.509,10.806 9.7392,10.1856 C9.3996,9.9114 9.1134,9.7602 8.8374,9.615 C8.4324,9.4008 8.0136,9.1794 7.6002,8.685 C6.6516,7.551 7.1148,6.3462 7.6938,5.316 C7.7886,5.148 8.5932,3.6468 7.7316,2.7468 C7.3086,2.3046 6.459,2.2692 6.2622,2.2806 C5.772,2.3238 5.337,1.941 5.3028,1.4442 C5.2686,0.9474 5.643,0.5184 6.1392,0.4848 C6.3264,0.4722 7.9716,0.393 9.0324,1.5018 C10.3674,2.8968 9.9912,4.9038 9.2628,6.198 C8.7012,7.1964 8.85,7.374 8.9802,7.5306 C9.1668,7.7532 9.348,7.8486 9.6774,8.0226 C9.996,8.1912 10.3926,8.4006 10.8678,8.784 C12.3318,9.9648 12.324,11.9184 12.3228,12.0006 C12.3174,12.4938 11.9154,12.8892 11.424,12.8892 Z" id="Path"></path>
                    <path d="M1.1424,12.8862 C0.6552,12.8862 0.2556,12.501 0.243,12.0126 C0.2412,11.928 0.2076,9.9312 1.7142,8.7726 C2.2182,8.385 2.5788,8.1888 2.8698,8.0322 C3.1812,7.8636 3.3522,7.77 3.6282,7.4844 C3.8004,7.3056 3.8796,7.2234 3.3036,6.1992 C2.5758,4.9044 2.1996,2.898 3.534,1.503 C4.5954,0.3936 6.24,0.4716 6.4272,0.486 C6.9228,0.5196 7.2972,0.9486 7.2636,1.4454 C7.23,1.9416 6.7926,2.3244 6.3042,2.2818 C6.0414,2.2692 5.2422,2.3214 4.8348,2.748 C3.9738,3.648 4.7784,5.1492 4.8726,5.3178 C5.3628,6.1902 6.1044,7.5084 4.9242,8.7336 C4.455,9.2208 4.0854,9.4212 3.7272,9.615 C3.4692,9.7542 3.2022,9.9 2.8128,10.1994 C2.0388,10.7946 2.043,11.9622 2.0436,11.9736 C2.049,12.468 1.6548,12.8784 1.1598,12.8868 C1.1544,12.8862 1.1484,12.8862 1.1424,12.8862 Z" id="Path"></path>
                </g>
            </g>
        </g>
    </g>
</svg>