<?xml version="1.0" encoding="UTF-8"?>
<svg width="19px" height="19px" viewBox="0 0 19 19" version="1.1" xmlns="http://www.w3.org/2000/svg" xmlns:xlink="http://www.w3.org/1999/xlink">
    <!-- Generator: Sketch 63.1 (92452) - https://sketch.com -->
    <title>noun_Calendar_3155564</title>
    <desc>Created with Sketch.</desc>
    <g id="Screens" stroke="none" stroke-width="1" fill="none" fill-rule="evenodd">
        <g id="League---Notifications" transform="translate(-1397.000000, -351.000000)" fill="#3D397B" fill-rule="nonzero">
            <g id="noun_Calendar_3155564" transform="translate(1397.000000, 351.000000)">
                <path d="M15.609375,1.6875 L14.34375,1.6875 L14.34375,0.84375 C14.34375,0.377759742 13.9659903,0 13.5,0 C13.0340097,0 12.65625,0.377759742 12.65625,0.84375 L12.65625,1.6875 L5.90625,1.6875 L5.90625,0.84375 C5.90625,0.377759742 5.52849026,0 5.0625,0 C4.59650974,0 4.21875,0.377759742 4.21875,0.84375 L4.21875,1.6875 L2.953125,1.6875 C1.3238909,1.69167338 0.00417338238,3.0113909 0,4.640625 L0,15.609375 C0.00417338238,17.2386091 1.3238909,18.5583266 2.953125,18.5625 L15.609375,18.5625 C17.2386091,18.5583266 18.5583266,17.2386091 18.5625,15.609375 L18.5625,4.640625 C18.5583266,3.0113909 17.2386091,1.69167338 15.609375,1.6875 Z M16.875,15.609375 C16.8722253,16.3072078 16.3072078,16.8722253 15.609375,16.875 L2.953125,16.875 C2.25529217,16.8722253 1.69027472,16.3072078 1.6875,15.609375 L1.6875,4.640625 C1.69027472,3.94279217 2.25529217,3.37777472 2.953125,3.375 L4.21875,3.375 L4.21875,4.21875 C4.21875,4.68474026 4.59650974,5.0625 5.0625,5.0625 C5.52849026,5.0625 5.90625,4.68474026 5.90625,4.21875 L5.90625,3.375 L12.65625,3.375 L12.65625,4.21875 C12.65625,4.68474026 13.0340097,5.0625 13.5,5.0625 C13.9659903,5.0625 14.34375,4.68474026 14.34375,4.21875 L14.34375,3.375 L15.609375,3.375 C16.3072078,3.37777472 16.8722253,3.94279217 16.875,4.640625 L16.875,15.609375 Z" id="Shape"></path>
                <path d="M12.65625,12.65625 L5.90625,12.65625 C5.44025974,12.65625 5.0625,13.0340097 5.0625,13.5 C5.0625,13.9659903 5.44025974,14.34375 5.90625,14.34375 L12.65625,14.34375 C13.1222403,14.34375 13.5,13.9659903 13.5,13.5 C13.5,13.0340097 13.1222403,12.65625 12.65625,12.65625 Z" id="Path"></path>
                <path d="M12.65625,7.59375 L5.90625,7.59375 C5.44025974,7.59375 5.0625,7.97150974 5.0625,8.4375 C5.0625,8.90349026 5.44025974,9.28125 5.90625,9.28125 L12.65625,9.28125 C13.1222403,9.28125 13.5,8.90349026 13.5,8.4375 C13.5,7.97150974 13.1222403,7.59375 12.65625,7.59375 Z" id="Path"></path>
            </g>
        </g>
    </g>
</svg>