<?xml version="1.0" encoding="UTF-8"?>
<svg width="289px" height="225px" viewBox="0 0 289 225" version="1.1" xmlns="http://www.w3.org/2000/svg" xmlns:xlink="http://www.w3.org/1999/xlink">
    <!-- Generator: Sketch 63.1 (92452) - https://sketch.com -->
    <title>Combined Shape</title>
    <desc>Created with Sketch.</desc>
    <g id="Screens" stroke="none" stroke-width="1" fill="none" fill-rule="evenodd" opacity="0.100000001">
        <g id="League---Overview-(Draft)" transform="translate(-111.000000, -81.000000)" fill="#525CD7">
            <path d="M194,235.999591 L172.547461,305.999591 L154,305.999591 L175.448124,235.999591 L194,235.999591 Z M218.984611,235.999591 C221.202918,235.999591 223,237.856952 223,240.147479 C223,240.306453 222.986829,240.459592 222.967387,240.610787 L222.934382,240.836607 L203.78667,305.999591 L186,305.999591 L200.677231,256.054283 C201.116479,254.558688 200.078878,253.048694 198.595073,252.958552 L198.454691,252.954305 L194.363101,252.954305 L199.34794,235.999591 L218.984611,235.999591 Z M284,235.999591 L269.321929,285.944898 C268.884708,287.440493 269.920441,288.950487 271.406142,289.040629 L271.546713,289.044876 L275.638538,289.044876 L270.653413,305.999591 L251.013502,305.999591 C248.797185,305.999591 247,304.142229 247,301.851702 C247,301.692728 247.013171,301.539589 247.032615,301.388394 L247.065622,301.162575 L266.214429,235.999591 L284,235.999591 Z M350,235.999591 L328.551876,305.999591 L310,305.999591 L331.452539,235.999591 L350,235.999591 Z M317,235.999591 L302.322769,285.944898 C301.883521,287.440493 302.921122,288.950487 304.404927,289.040629 L304.545309,289.044876 L308.636899,289.044876 L303.65206,305.999591 L284.015389,305.999591 C281.797082,305.999591 280,304.142229 280,301.851702 C280,301.692728 280.013171,301.539589 280.032613,301.388394 L280.065618,301.162575 L299.21333,235.999591 L317,235.999591 Z M251.986498,235.999591 C254.202815,235.999591 256,237.856952 256,240.147479 C256,240.306453 255.986829,240.459592 255.967385,240.610787 L255.934378,240.836607 L236.785571,305.999591 L219,305.999591 L233.678071,256.054283 C234.115292,254.558688 233.079559,253.048694 231.593858,252.958552 L231.453287,252.954305 L227.361462,252.954305 L232.346587,235.999591 L251.986498,235.999591 Z M337,157.999591 L315.547461,227.999591 L297,227.999591 L318.448124,157.999591 L337,157.999591 Z M362.984611,157.999591 C365.202918,157.999591 367,159.856952 367,162.147479 C367,162.306453 366.986829,162.459592 366.967387,162.610787 L366.934382,162.836607 L347.78667,227.999591 L330,227.999591 L344.677231,178.054283 C345.116479,176.558688 344.078878,175.048694 342.595073,174.958552 L342.454691,174.954305 L338.363101,174.954305 L343.34794,157.999591 L362.984611,157.999591 Z M400,192.757 L400,227.999 L395.013502,227.999591 C392.797185,227.999591 391,226.142229 391,223.851702 C391,223.692728 391.013171,223.539589 391.032615,223.388394 L391.065622,223.162575 L400,192.757 Z M151,157.999591 L129.547461,227.999591 L111,227.999591 L132.448124,157.999591 L151,157.999591 Z M174.984611,157.999591 C177.202918,157.999591 179,159.856952 179,162.147479 C179,162.306453 178.986829,162.459592 178.967387,162.610787 L178.934382,162.836607 L159.78667,227.999591 L142,227.999591 L156.677231,178.054283 C157.116479,176.558688 156.078878,175.048694 154.595073,174.958552 L154.454691,174.954305 L150.363101,174.954305 L155.34794,157.999591 L174.984611,157.999591 Z M240,157.999591 L225.321929,207.944898 C224.884708,209.440493 225.920441,210.950487 227.406142,211.040629 L227.546713,211.044876 L231.638538,211.044876 L226.653413,227.999591 L207.013502,227.999591 C204.797185,227.999591 203,226.142229 203,223.851702 C203,223.692728 203.013171,223.539589 203.032615,223.388394 L203.065622,223.162575 L222.214429,157.999591 L240,157.999591 Z M208.986498,156.999591 C211.202815,156.999591 213,158.856952 213,161.147479 C213,161.306453 212.986829,161.459592 212.967385,161.610787 L212.934378,161.836607 L193.785571,226.999591 L176,226.999591 L190.678071,177.054283 C191.115292,175.558688 190.079559,174.048694 188.593858,173.958552 L188.453287,173.954305 L184.361462,173.954305 L189.346587,156.999591 L208.986498,156.999591 Z M305,156.999591 L283.551876,226.999591 L265,226.999591 L286.452539,156.999591 L305,156.999591 Z M274,156.999591 L259.322769,206.944898 C258.883521,208.440493 259.921122,209.950487 261.404927,210.040629 L261.545309,210.044876 L265.636899,210.044876 L260.65206,226.999591 L241.015389,226.999591 C238.797082,226.999591 237,225.142229 237,222.851702 C237,222.692728 237.013171,222.539589 237.032613,222.388394 L237.065618,222.162575 L256.21333,156.999591 L274,156.999591 Z M394.986498,156.999591 C397.202815,156.999591 399,158.856952 399,161.147479 C399,161.306453 398.986829,161.459592 398.967385,161.610787 L398.934378,161.836607 L379.785571,226.999591 L362,226.999591 L376.678071,177.054283 C377.115292,175.558688 376.079559,174.048694 374.593858,173.958552 L374.453287,173.954305 L370.361462,173.954305 L375.346587,156.999591 L394.986498,156.999591 Z M230,80.9995906 L208.547461,150.999591 L190,150.999591 L211.448124,80.9995906 L230,80.9995906 Z M255.984611,80.9995906 C258.202918,80.9995906 260,82.8569522 260,85.1474795 C260,85.3064527 259.986829,85.459592 259.967387,85.6107868 L259.934382,85.8366066 L240.78667,150.999591 L223,150.999591 L237.677231,101.054283 C238.116479,99.5586884 237.078878,98.0486938 235.595073,97.9585524 L235.454691,97.9543051 L231.363101,97.9543051 L236.34794,80.9995906 L255.984611,80.9995906 Z M321,80.9995906 L306.321929,130.944898 C305.884708,132.440493 306.920441,133.950487 308.406142,134.040629 L308.546713,134.044876 L312.638538,134.044876 L307.653413,150.999591 L288.013502,150.999591 C285.797185,150.999591 284,149.142229 284,146.851702 C284,146.692728 284.013171,146.539589 284.032615,146.388394 L284.065622,146.162575 L303.214429,80.9995906 L321,80.9995906 Z M287.986498,80.9995906 C290.202815,80.9995906 292,82.8569522 292,85.1474795 C292,85.3064527 291.986829,85.459592 291.967385,85.6107868 L291.934378,85.8366066 L272.785571,150.999591 L255,150.999591 L269.678071,101.054283 C270.115292,99.5586884 269.079559,98.0486938 267.593858,97.9585524 L267.453287,97.9543051 L263.361462,97.9543051 L268.346587,80.9995906 L287.986498,80.9995906 Z M353,80.9995906 L338.322769,130.944898 C337.883521,132.440493 338.921122,133.950487 340.404927,134.040629 L340.545309,134.044876 L344.636899,134.044876 L339.65206,150.999591 L320.015389,150.999591 C317.797082,150.999591 316,149.142229 316,146.851702 C316,146.692728 316.013171,146.539589 316.032613,146.388394 L316.065618,146.162575 L335.21333,80.9995906 L353,80.9995906 Z M386,80.9995906 L364.551876,150.999591 L346,150.999591 L367.452539,80.9995906 L386,80.9995906 Z M380.961,-15 L379.78667,-11.0004094 L362,-11.0004094 L363.175,-15 L380.961,-15 Z M350.773,-15 L349.547461,-11.0004094 L331,-11.0004094 L332.225,-15 L350.773,-15 Z M400,-15 L400,-11.001 L395,-11.0004094 L396.175,-15 L400,-15 Z" id="Combined-Shape"></path>
        </g>
    </g>
</svg>