<?xml version="1.0" encoding="UTF-8"?>
<svg width="19px" height="17px" viewBox="0 0 19 17" version="1.1" xmlns="http://www.w3.org/2000/svg" xmlns:xlink="http://www.w3.org/1999/xlink">
    <!-- Generator: Sketch 63.1 (92452) - https://sketch.com -->
    <title>Shape</title>
    <desc>Created with Sketch.</desc>
    <g id="Screens" stroke="none" stroke-width="1" fill="none" fill-rule="evenodd">
        <g id="League---Notifications" transform="translate(-1397.000000, -164.000000)" fill="#3D397B">
            <g id="noun_Trade_2583464-(1)" transform="translate(1395.000000, 160.000000)">
                <path d="M18.5044056,16.1408513 L16.82874,14.469731 L16.8002398,14.4398635 C16.776855,14.4121815 16.770278,14.4056252 16.7490856,14.3764863 C16.469199,13.9831101 16.708893,13.3231123 17.2226274,13.2364238 C17.4513597,13.1978147 17.6910537,13.2779468 17.8620549,13.4396682 L20.7858831,16.3535658 C20.9283841,16.5036316 21.0043846,16.7003197 20.9985385,16.9101203 C20.983923,17.0878681 20.909384,17.2539602 20.7858831,17.3843571 L17.8620549,20.2989833 C17.8357471,20.3237514 17.8299009,20.3303077 17.8014007,20.3536189 C17.4835138,20.605671 16.948587,20.5240819 16.7264316,20.1715003 C16.5517765,19.89468 16.5992768,19.5100455 16.82874,19.268192 L18.5044056,17.5978001 L2.72698731,17.5978001 C2.45294693,17.5672042 2.18913739,17.4353504 2.06855962,17.1854836 C1.92532785,16.8882661 2.01302077,16.50436 2.27098412,16.2996587 C2.39886963,16.1976723 2.56183231,16.1590632 2.72698731,16.1408513 L18.5044056,16.1408513 Z M4.49180738,7.39697285 L20.2692256,7.39697285 C20.5425353,7.42756878 20.8070756,7.55942265 20.9276533,7.80928937 C20.9912307,7.94187172 20.983923,7.98266629 21,8.12544727 C20.9941538,8.17935438 20.9875768,8.23398996 20.9817306,8.28789707 C20.9451919,8.39061196 20.9086532,8.49551228 20.8406912,8.58001531 C20.737652,8.70895528 20.5907664,8.80001458 20.4314576,8.83570983 C20.3788418,8.8480939 20.3233029,8.8480939 20.2692256,8.85392169 L4.49180738,8.85392169 L6.16747297,10.525042 C6.16747297,10.525042 6.38816682,10.8084186 6.3801283,11.080868 C6.37720521,11.1172917 6.37720521,11.1260334 6.37135901,11.1624571 C6.30266622,11.564575 5.84666303,11.8545078 5.448391,11.7401373 C5.36946737,11.7175546 5.29419762,11.6818594 5.22769715,11.6345086 C5.19408153,11.6104689 5.16338901,11.5835153 5.13342726,11.5551048 L2.21032985,8.64120716 C2.18475275,8.61425361 2.17817578,8.60842581 2.15552177,8.58001531 C1.95163573,8.32504926 1.94725108,7.9309446 2.15552177,7.67160771 C2.17817578,7.64319721 2.18475275,7.63664094 2.21032985,7.61041586 L5.13342726,4.69578971 C5.16046591,4.67102158 5.1663121,4.66446531 5.1948123,4.64115412 C5.58139194,4.33446639 6.27855067,4.54718092 6.37135901,5.08916589 C6.41009005,5.31717839 6.3289741,5.55538952 6.16747297,5.72658101 L4.49180738,7.39697285 L4.49180738,7.39697285 Z" id="Shape"></path>
            </g>
        </g>
    </g>
</svg>