<?xml version="1.0" encoding="UTF-8"?>
<svg width="106px" height="82px" viewBox="0 0 106 82" version="1.1" xmlns="http://www.w3.org/2000/svg" xmlns:xlink="http://www.w3.org/1999/xlink">
    <!-- Generator: Sketch 63.1 (92452) - https://sketch.com -->
    <title>Shape</title>
    <desc>Created with Sketch.</desc>
    <g id="Screens" stroke="none" stroke-width="1" fill="none" fill-rule="evenodd" opacity="0.649999976">
        <g id="League---Overview-(Draft)" transform="translate(-440.000000, -161.000000)" fill="#44A062" fill-rule="nonzero">
            <g id="Group-30-Copy" transform="translate(440.000000, 78.000000)">
                <g id="Group-10">
                    <g id="Shape">
                        <path d="M-16.9607313,172.955556 L-15.2848728,188.762032 L-13.7794406,172.955556 L-10.7685763,172.955556 L-9.20633535,188.876571 L-7.58728566,172.955556 L-4.86046512,172.955556 L-7.07600681,193 L-11.2230464,193 L-12.3592216,182.319175 L-13.4953968,193 L-17.7844583,193 L-20,172.955556 L-16.9607313,172.955556 Z M1.97674419,172.955556 L1.97674419,193 L-1.44186047,193 L-1.44186047,172.955556 L1.97674419,172.955556 Z M9.93902845,172.955556 L13.2596788,184.953587 L13.2596788,172.955556 L16.1395349,172.955556 L16.1395349,193 L12.8188845,193 L8.79296328,178.482095 L8.79296328,193 L5.88372093,193 L5.88372093,172.955556 L9.93902845,172.955556 Z M28.0087959,150.466667 L31.3294463,162.464698 L31.3294463,150.466667 L34.2093023,150.466667 L34.2093023,170.511111 L30.888652,170.511111 L26.8627307,155.993206 L26.8627307,170.511111 L23.9534884,170.511111 L23.9534884,150.466667 L28.0087959,150.466667 Z M20.0465116,150.466667 L20.0465116,170.511111 L16.627907,170.511111 L16.627907,150.466667 L20.0465116,150.466667 Z M1.10903617,150.466667 L2.78489463,166.273143 L4.2903268,150.466667 L7.30119115,150.466667 L8.86343209,166.387683 L10.4824818,150.466667 L13.2093023,150.466667 L10.9937606,170.511111 L6.84672106,170.511111 L5.71054584,159.830286 L4.57437061,170.511111 L0.285309132,170.511111 L-1.93023256,150.466667 L1.10903617,150.466667 Z M79.2878657,127.977778 L82.608516,139.97581 L82.608516,127.977778 L85.4883721,127.977778 L85.4883721,148.022222 L82.1677217,148.022222 L78.1418005,133.504317 L78.1418005,148.022222 L75.2325581,148.022222 L75.2325581,127.977778 L79.2878657,127.977778 Z M11.3648501,127.977778 L13.0407086,143.784254 L14.5461408,127.977778 L17.5570051,127.977778 L19.119246,143.898794 L20.7382957,127.977778 L23.4651163,127.977778 L21.2495746,148.022222 L17.102535,148.022222 L15.9663598,137.341397 L14.8301846,148.022222 L10.5411231,148.022222 L8.3255814,127.977778 L11.3648501,127.977778 Z M30.3023256,127.977778 L30.3023256,148.022222 L26.8837209,148.022222 L26.8837209,127.977778 L30.3023256,127.977778 Z M38.2646098,127.977778 L41.5852602,139.97581 L41.5852602,127.977778 L44.4651163,127.977778 L44.4651163,148.022222 L41.1444659,148.022222 L37.1185447,133.504317 L37.1185447,148.022222 L34.2093023,148.022222 L34.2093023,127.977778 L38.2646098,127.977778 Z M52.3881059,127.977778 L54.0639644,143.784254 L55.5693966,127.977778 L58.5802609,127.977778 L60.1425019,143.898794 L61.7615516,127.977778 L64.4883721,127.977778 L62.2728304,148.022222 L58.1257908,148.022222 L56.9896156,137.341397 L55.8534404,148.022222 L51.5643789,148.022222 L49.3488372,127.977778 L52.3881059,127.977778 Z M71.3255814,127.977778 L71.3255814,148.022222 L67.9069767,148.022222 L67.9069767,127.977778 L71.3255814,127.977778 Z M17.7529819,105.488889 L21.0736323,117.486921 L21.0736323,105.488889 L23.9534884,105.488889 L23.9534884,125.533333 L20.632838,125.533333 L16.6069168,111.015429 L16.6069168,125.533333 L13.6976744,125.533333 L13.6976744,105.488889 L17.7529819,105.488889 Z M9.79069767,105.488889 L9.79069767,125.533333 L6.37209302,125.533333 L6.37209302,105.488889 L9.79069767,105.488889 Z M58.7762378,105.488889 L62.0968881,117.486921 L62.0968881,105.488889 L64.9767442,105.488889 L64.9767442,125.533333 L61.6560938,125.533333 L57.6301726,111.015429 L57.6301726,125.533333 L54.7209302,125.533333 L54.7209302,105.488889 L58.7762378,105.488889 Z M72.8997338,105.488889 L74.5755923,121.295365 L76.0810245,105.488889 L79.0918888,105.488889 L80.6541298,121.409905 L82.2731795,105.488889 L85,105.488889 L82.7844583,125.533333 L78.6374187,125.533333 L77.5012435,114.852508 L76.3650683,125.533333 L72.0760068,125.533333 L69.8604651,105.488889 L72.8997338,105.488889 Z M99.7994936,105.488889 L103.120144,117.486921 L103.120144,105.488889 L106,105.488889 L106,125.533333 L102.67935,125.533333 L98.6534284,111.015429 L98.6534284,125.533333 L95.744186,125.533333 L95.744186,105.488889 L99.7994936,105.488889 Z M-9.14677778,105.488889 L-7.47091932,121.295365 L-5.96548715,105.488889 L-2.9546228,105.488889 L-1.39238187,121.409905 L0.22666783,105.488889 L2.95348837,105.488889 L0.737946682,125.533333 L-3.40909289,125.533333 L-4.54526812,114.852508 L-5.68144334,125.533333 L-9.97050482,125.533333 L-12.1860465,105.488889 L-9.14677778,105.488889 Z M91.8372093,105.488889 L91.8372093,125.533333 L88.4186047,125.533333 L88.4186047,105.488889 L91.8372093,105.488889 Z M50.8139535,105.488889 L50.8139535,125.533333 L47.3953488,125.533333 L47.3953488,105.488889 L50.8139535,105.488889 Z M31.876478,105.488889 L33.5523365,121.295365 L35.0577687,105.488889 L38.068633,105.488889 L39.6308739,121.409905 L41.2499236,105.488889 L43.9767442,105.488889 L41.7612025,125.533333 L37.6141629,125.533333 L36.4779877,114.852508 L35.3418125,125.533333 L31.052751,125.533333 L28.8372093,105.488889 L31.876478,105.488889 Z M21.6206641,83 L23.2965225,98.8064762 L24.8019547,83 L27.8128191,83 L29.37506,98.9210159 L30.9941097,83 L33.7209302,83 L31.5053885,103.044444 L27.358349,103.044444 L26.2221737,92.363619 L25.0859985,103.044444 L20.796937,103.044444 L18.5813953,83 L21.6206641,83 Z M48.5204238,83 L51.8410742,94.9980317 L51.8410742,83 L54.7209302,83 L54.7209302,103.044444 L51.4002799,103.044444 L47.3743586,88.5265397 L47.3743586,103.044444 L44.4651163,103.044444 L44.4651163,83 L48.5204238,83 Z M62.6439199,83 L64.3197783,98.8064762 L65.8252105,83 L68.8360749,83 L70.3983158,98.9210159 L72.0173655,83 L74.744186,83 L72.5286444,103.044444 L68.3816048,103.044444 L67.2454296,92.363619 L66.1092543,103.044444 L61.8201929,103.044444 L59.6046512,83 L62.6439199,83 Z M81.5813953,83 L81.5813953,103.044444 L78.1627907,103.044444 L78.1627907,83 L81.5813953,83 Z M89.5436796,83 L92.86433,94.9980317 L92.86433,83 L95.744186,83 L95.744186,103.044444 L92.4235357,103.044444 L88.3976144,88.5265397 L88.3976144,103.044444 L85.4883721,103.044444 L85.4883721,83 L89.5436796,83 Z M40.5581395,83 L40.5581395,103.044444 L37.1395349,103.044444 L37.1395349,83 L40.5581395,83 Z"></path>
                    </g>
                </g>
            </g>
        </g>
    </g>
</svg>