<?xml version="1.0" encoding="UTF-8"?>
<svg width="18px" height="18px" viewBox="0 0 18 18" version="1.1" xmlns="http://www.w3.org/2000/svg" xmlns:xlink="http://www.w3.org/1999/xlink">
    <!-- Generator: Sketch 63.1 (92452) - https://sketch.com -->
    <title>Group 6</title>
    <desc>Created with Sketch.</desc>
    <g id="Screens" stroke="none" stroke-width="1" fill="none" fill-rule="evenodd">
        <g id="Artboard" transform="translate(-33.000000, -627.000000)">
            <g id="Group-6" transform="translate(34.000000, 628.000000)">
                <circle id="Oval-Copy-4" stroke="#202058" cx="8" cy="8" r="8.5"></circle>
                <path d="M11.8175,6.24999623 L14,8.49999247 L12.3635,8.49999247 C12.3635,10.9864429 10.41125,12.9999925 8,12.9999925 C7.18181088,13.0015502 6.3786405,12.7603025 5.6765,12.302077 L6.473,11.481442 C6.92525,11.735078 7.44875,11.8749868 8,11.8749868 C9.80525,11.8749868 11.273,10.361353 11.273,8.49999247 L9.6365,8.49999247 L11.81825,6.24999623 L11.8175,6.24999623 Z M4.72775,8.5 L6.36425,8.5 L4.1825,10.7499887 L2,8.5 L3.6365,8.5 C3.6365,6.01354208 5.58875,4 8,4 C8.8565,4 9.653,4.25854502 10.3235,4.69708974 L9.527,5.51854291 C9.05373129,5.25735139 8.53037977,5.12247105 8,5.12499812 C6.19475,5.12499812 4.727,6.63863195 4.727,8.5 L4.72775,8.5 Z" id="Shape-Copy" fill="#202058" fill-rule="nonzero"></path>
            </g>
        </g>
    </g>
</svg>