<?xml version="1.0" encoding="UTF-8"?>
<svg width="20px" height="20px" viewBox="0 0 20 20" version="1.1" xmlns="http://www.w3.org/2000/svg" xmlns:xlink="http://www.w3.org/1999/xlink">
    <!-- Generator: Sketch 63.1 (92452) - https://sketch.com -->
    <title>Group</title>
    <desc>Created with Sketch.</desc>
    <g id="Screens" stroke="none" stroke-width="1" fill="none" fill-rule="evenodd">
        <g id="Artboard" transform="translate(-31.000000, -463.000000)">
            <g id="Group" transform="translate(33.000000, 465.000000)">
                <g id="Group-5-Copy" fill="#4CC273" stroke="#F7F7FA" stroke-width="2">
                    <g id="Group-14-Copy-6">
                        <circle id="Oval" cx="8" cy="8" r="9"></circle>
                    </g>
                </g>
                <path d="M11.8175,5.24999623 L14,7.49999247 L12.3635,7.49999247 C12.3635,9.98644285 10.41125,11.9999925 8,11.9999925 C7.18181088,12.0015502 6.3786405,11.7603025 5.6765,11.302077 L6.473,10.481442 C6.92525,10.735078 7.44875,10.8749868 8,10.8749868 C9.80525,10.8749868 11.273,9.36135299 11.273,7.49999247 L9.6365,7.49999247 L11.81825,5.24999623 L11.8175,5.24999623 Z M4.72775,7.5 L6.36425,7.5 L4.1825,9.7499887 L2,7.5 L3.6365,7.5 C3.6365,5.01354208 5.58875,3 8,3 C8.8565,3 9.653,3.25854502 10.3235,3.69708974 L9.527,4.51854291 C9.05373129,4.25735139 8.53037977,4.12247105 8,4.12499812 C6.19475,4.12499812 4.727,5.63863195 4.727,7.5 L4.72775,7.5 Z" id="Shape" fill="#FFFFFF" fill-rule="nonzero"></path>
            </g>
        </g>
    </g>
</svg>