<?xml version="1.0" encoding="UTF-8"?>
<svg width="289px" height="321px" viewBox="0 0 289 321" version="1.1" xmlns="http://www.w3.org/2000/svg" xmlns:xlink="http://www.w3.org/1999/xlink">
    <!-- Generator: Sketch 63.1 (92452) - https://sketch.com -->
    <title>Combined Shape</title>
    <desc>Created with Sketch.</desc>
    <g id="Screens" stroke="none" stroke-width="1" fill="none" fill-rule="evenodd" opacity="0.100000001">
        <g id="Popup---Calendar" transform="translate(-1101.000000, -524.000000)" fill="#525CD7">
            <path d="M1184,774.999591 L1162.54746,844.999591 L1144,844.999591 L1165.44812,774.999591 L1184,774.999591 Z M1208.98461,774.999591 C1211.20292,774.999591 1213,776.856952 1213,779.147479 C1213,779.306453 1212.98683,779.459592 1212.96739,779.610787 L1212.93438,779.836607 L1193.78667,844.999591 L1176,844.999591 L1190.67723,795.054283 C1191.11648,793.558688 1190.07888,792.048694 1188.59507,791.958552 L1188.45469,791.954305 L1184.3631,791.954305 L1189.34794,774.999591 L1208.98461,774.999591 Z M1274,774.999591 L1259.32193,824.944898 C1258.88471,826.440493 1259.92044,827.950487 1261.40614,828.040629 L1261.54671,828.044876 L1265.63854,828.044876 L1260.65341,844.999591 L1241.0135,844.999591 C1238.79719,844.999591 1237,843.142229 1237,840.851702 C1237,840.692728 1237.01317,840.539589 1237.03261,840.388394 L1237.06562,840.162575 L1256.21443,774.999591 L1274,774.999591 Z M1340,774.999591 L1318.55188,844.999591 L1300,844.999591 L1321.45254,774.999591 L1340,774.999591 Z M1307,774.999591 L1292.32277,824.944898 C1291.88352,826.440493 1292.92112,827.950487 1294.40493,828.040629 L1294.54531,828.044876 L1298.6369,828.044876 L1293.65206,844.999591 L1274.01539,844.999591 C1271.79708,844.999591 1270,843.142229 1270,840.851702 C1270,840.692728 1270.01317,840.539589 1270.03261,840.388394 L1270.06562,840.162575 L1289.21333,774.999591 L1307,774.999591 Z M1241.9865,774.999591 C1244.20281,774.999591 1246,776.856952 1246,779.147479 C1246,779.306453 1245.98683,779.459592 1245.96739,779.610787 L1245.93438,779.836607 L1226.78557,844.999591 L1209,844.999591 L1223.67807,795.054283 C1224.11529,793.558688 1223.07956,792.048694 1221.59386,791.958552 L1221.45329,791.954305 L1217.36146,791.954305 L1222.34659,774.999591 L1241.9865,774.999591 Z M1327,696.999591 L1305.54746,766.999591 L1287,766.999591 L1308.44812,696.999591 L1327,696.999591 Z M1352.98461,696.999591 C1355.20292,696.999591 1357,698.856952 1357,701.147479 C1357,701.306453 1356.98683,701.459592 1356.96739,701.610787 L1356.93438,701.836607 L1337.78667,766.999591 L1320,766.999591 L1334.67723,717.054283 C1335.11648,715.558688 1334.07888,714.048694 1332.59507,713.958552 L1332.45469,713.954305 L1328.3631,713.954305 L1333.34794,696.999591 L1352.98461,696.999591 Z M1390,731.757 L1390,766.999 L1385.0135,766.999591 C1382.79719,766.999591 1381,765.142229 1381,762.851702 C1381,762.692728 1381.01317,762.539589 1381.03261,762.388394 L1381.06562,762.162575 L1390,731.757 Z M1141,696.999591 L1119.54746,766.999591 L1101,766.999591 L1122.44812,696.999591 L1141,696.999591 Z M1164.98461,696.999591 C1167.20292,696.999591 1169,698.856952 1169,701.147479 C1169,701.306453 1168.98683,701.459592 1168.96739,701.610787 L1168.93438,701.836607 L1149.78667,766.999591 L1132,766.999591 L1146.67723,717.054283 C1147.11648,715.558688 1146.07888,714.048694 1144.59507,713.958552 L1144.45469,713.954305 L1140.3631,713.954305 L1145.34794,696.999591 L1164.98461,696.999591 Z M1230,696.999591 L1215.32193,746.944898 C1214.88471,748.440493 1215.92044,749.950487 1217.40614,750.040629 L1217.54671,750.044876 L1221.63854,750.044876 L1216.65341,766.999591 L1197.0135,766.999591 C1194.79719,766.999591 1193,765.142229 1193,762.851702 C1193,762.692728 1193.01317,762.539589 1193.03261,762.388394 L1193.06562,762.162575 L1212.21443,696.999591 L1230,696.999591 Z M1198.9865,695.999591 C1201.20281,695.999591 1203,697.856952 1203,700.147479 C1203,700.306453 1202.98683,700.459592 1202.96739,700.610787 L1202.93438,700.836607 L1183.78557,765.999591 L1166,765.999591 L1180.67807,716.054283 C1181.11529,714.558688 1180.07956,713.048694 1178.59386,712.958552 L1178.45329,712.954305 L1174.36146,712.954305 L1179.34659,695.999591 L1198.9865,695.999591 Z M1295,695.999591 L1273.55188,765.999591 L1255,765.999591 L1276.45254,695.999591 L1295,695.999591 Z M1264,695.999591 L1249.32277,745.944898 C1248.88352,747.440493 1249.92112,748.950487 1251.40493,749.040629 L1251.54531,749.044876 L1255.6369,749.044876 L1250.65206,765.999591 L1231.01539,765.999591 C1228.79708,765.999591 1227,764.142229 1227,761.851702 C1227,761.692728 1227.01317,761.539589 1227.03261,761.388394 L1227.06562,761.162575 L1246.21333,695.999591 L1264,695.999591 Z M1384.9865,695.999591 C1387.20281,695.999591 1389,697.856952 1389,700.147479 C1389,700.306453 1388.98683,700.459592 1388.96739,700.610787 L1388.93438,700.836607 L1369.78557,765.999591 L1352,765.999591 L1366.67807,716.054283 C1367.11529,714.558688 1366.07956,713.048694 1364.59386,712.958552 L1364.45329,712.954305 L1360.36146,712.954305 L1365.34659,695.999591 L1384.9865,695.999591 Z M1220,619.999591 L1198.54746,689.999591 L1180,689.999591 L1201.44812,619.999591 L1220,619.999591 Z M1245.98461,619.999591 C1248.20292,619.999591 1250,621.856952 1250,624.147479 C1250,624.306453 1249.98683,624.459592 1249.96739,624.610787 L1249.93438,624.836607 L1230.78667,689.999591 L1213,689.999591 L1227.67723,640.054283 C1228.11648,638.558688 1227.07888,637.048694 1225.59507,636.958552 L1225.45469,636.954305 L1221.3631,636.954305 L1226.34794,619.999591 L1245.98461,619.999591 Z M1311,619.999591 L1296.32193,669.944898 C1295.88471,671.440493 1296.92044,672.950487 1298.40614,673.040629 L1298.54671,673.044876 L1302.63854,673.044876 L1297.65341,689.999591 L1278.0135,689.999591 C1275.79719,689.999591 1274,688.142229 1274,685.851702 C1274,685.692728 1274.01317,685.539589 1274.03261,685.388394 L1274.06562,685.162575 L1293.21443,619.999591 L1311,619.999591 Z M1277.9865,619.999591 C1280.20281,619.999591 1282,621.856952 1282,624.147479 C1282,624.306453 1281.98683,624.459592 1281.96739,624.610787 L1281.93438,624.836607 L1262.78557,689.999591 L1245,689.999591 L1259.67807,640.054283 C1260.11529,638.558688 1259.07956,637.048694 1257.59386,636.958552 L1257.45329,636.954305 L1253.36146,636.954305 L1258.34659,619.999591 L1277.9865,619.999591 Z M1343,619.999591 L1328.32277,669.944898 C1327.88352,671.440493 1328.92112,672.950487 1330.40493,673.040629 L1330.54531,673.044876 L1334.6369,673.044876 L1329.65206,689.999591 L1310.01539,689.999591 C1307.79708,689.999591 1306,688.142229 1306,685.851702 C1306,685.692728 1306.01317,685.539589 1306.03261,685.388394 L1306.06562,685.162575 L1325.21333,619.999591 L1343,619.999591 Z M1376,619.999591 L1354.55188,689.999591 L1336,689.999591 L1357.45254,619.999591 L1376,619.999591 Z M1370.961,524 L1369.78667,527.999591 L1352,527.999591 L1353.175,524 L1370.961,524 Z M1340.773,524 L1339.54746,527.999591 L1321,527.999591 L1322.225,524 L1340.773,524 Z M1390,524 L1390,527.999 L1385,527.999591 L1386.175,524 L1390,524 Z" id="Combined-Shape"></path>
        </g>
    </g>
</svg>