<?xml version="1.0" encoding="UTF-8"?>
<svg width="22px" height="22px" viewBox="0 0 22 22" version="1.1" xmlns="http://www.w3.org/2000/svg" xmlns:xlink="http://www.w3.org/1999/xlink">
    <!-- Generator: Sketch 63.1 (92452) - https://sketch.com -->
    <title>Group 14 Copy 8</title>
    <desc>Created with Sketch.</desc>
    <g id="Screens" stroke="none" stroke-width="1" fill="none" fill-rule="evenodd">
        <g id="Popup---Calendar" transform="translate(-91.000000, -158.000000)">
            <g id="Group-14-Copy-8" transform="translate(91.000000, 158.000000)">
                <circle id="Oval" fill="#4149AC" cx="11" cy="11" r="11"></circle>
                <g id="noun_person_1393453" transform="translate(5.939891, 5.500000)" fill="#FFFFFF" fill-rule="nonzero">
                    <g id="Group" transform="translate(0.660109, 0.000000)">
                        <g transform="translate(0.000000, 5.730612)" id="Path">
                            <path d="M3.28316049,0.121536735 C1.45189136,0.467761224 0.108641975,1.43802551 0.108641975,3.62950714 L0.108641975,4.12902551 L8.8,4.12902551 L8.8,3.62950714 C8.8,1.43802551 7.45675062,0.467761224 5.62559012,0.121417347"></path>
                        </g>
                        <g transform="translate(1.846914, 0.000000)" id="Path">
                            <path d="M5.06890864,2.87390204 C5.06890864,4.36792041 3.9667358,6.3579949 2.60740741,6.3579949 C1.24807901,6.3579949 0.145906173,4.36792041 0.145906173,2.87390204 C0.145906173,1.38000306 1.24807901,0.168933673 2.60740741,0.168933673 C3.9667358,0.168933673 5.06890864,1.38012245 5.06890864,2.87390204 Z"></path>
                        </g>
                    </g>
                </g>
            </g>
        </g>
    </g>
</svg>