<?xml version="1.0" encoding="UTF-8"?>
<svg width="20px" height="20px" viewBox="0 0 20 20" version="1.1" xmlns="http://www.w3.org/2000/svg" xmlns:xlink="http://www.w3.org/1999/xlink">
    <!-- Generator: Sketch 63.1 (92452) - https://sketch.com -->
    <title>Group 14 Copy 5</title>
    <desc>Created with Sketch.</desc>
    <g id="Screens" stroke="none" stroke-width="1" fill="none" fill-rule="evenodd">
        <g id="Popup---Calendar" transform="translate(-1010.000000, -440.000000)">
            <g id="Group-14-Copy-5" transform="translate(1010.000000, 440.000000)">
                <circle id="Oval" fill="#4149AC" cx="10" cy="10" r="10"></circle>
                <g id="noun_person_1393453" transform="translate(5.399901, 5.000000)" fill="#FFFFFF" fill-rule="nonzero">
                    <g id="Group" transform="translate(0.600099, 0.000000)">
                        <g transform="translate(0.000000, 5.209647)" id="Path">
                            <path d="M2.98469136,0.110487941 C1.31990123,0.425237477 0.0987654321,1.30729592 0.0987654321,3.29955195 L0.0987654321,3.75365955 L8,3.75365955 L8,3.29955195 C8,1.30729592 6.7788642,0.425237477 5.11417284,0.110379406"></path>
                        </g>
                        <g transform="translate(1.679012, 0.000000)" id="Path">
                            <path d="M4.60809877,2.61263822 C4.60809877,3.97083673 3.60612346,5.77999536 2.37037037,5.77999536 C1.13461728,5.77999536 0.132641975,3.97083673 0.132641975,2.61263822 C0.132641975,1.25454824 1.13461728,0.153576067 2.37037037,0.153576067 C3.60612346,0.153576067 4.60809877,1.25465677 4.60809877,2.61263822 Z"></path>
                        </g>
                    </g>
                </g>
            </g>
        </g>
    </g>
</svg>