<?xml version="1.0" encoding="UTF-8"?>
<svg width="12px" height="12px" viewBox="0 0 12 12" version="1.1" xmlns="http://www.w3.org/2000/svg" xmlns:xlink="http://www.w3.org/1999/xlink">
    <!-- Generator: Sketch 63.1 (92452) - https://sketch.com -->
    <title>Group</title>
    <desc>Created with Sketch.</desc>
    <g id="Screens" stroke="none" stroke-width="1" fill="none" fill-rule="evenodd">
        <g id="Popup---Calendar" transform="translate(-768.000000, -253.000000)" fill="#000000" fill-rule="nonzero">
            <g id="Group-28" transform="translate(765.000001, 250.000000)">
                <g id="Group" transform="translate(2.999999, 3.000000)">
                    <path d="M6,0 C2.68652005,0 0,2.68652005 0,6 C0,9.31347995 2.68652005,12 6,12 C9.31347995,12 12,9.31347995 12,6 C12,2.68652005 9.31411133,0 6,0 Z M6.39019257,10.7138798 L6.39019257,10.0540882 C6.39019257,9.83878775 6.21593181,9.66452699 6.00063138,9.66452699 C5.78533095,9.66452699 5.61107019,9.83878775 5.61107019,10.0540882 L5.61107019,10.7138798 C3.30969168,10.5263601 1.47553404,8.69157108 1.28738293,6.39019257 L1.94717458,6.39019257 C2.16247501,6.39019257 2.33673577,6.21593181 2.33673577,6.00063138 C2.33673577,5.78533095 2.16247501,5.61107019 1.94717458,5.61107019 L1.28738293,5.61107019 C1.47490266,3.30969168 3.30969168,1.47553404 5.61107019,1.28738293 L5.61107019,1.94717458 C5.61107019,2.16247501 5.78533095,2.33673577 6.00063138,2.33673577 C6.21593181,2.33673577 6.39019257,2.16247501 6.39019257,1.94717458 L6.39019257,1.28675155 C8.69157108,1.47427128 10.5257287,3.3090603 10.7138798,5.61043881 L10.0540882,5.61043881 C9.83878775,5.61043881 9.66452699,5.78469957 9.66452699,6 C9.66452699,6.21530043 9.83878775,6.38956119 10.0540882,6.38956119 L10.7138798,6.38956119 C10.5257287,8.6909397 8.6909397,10.5257287 6.39019257,10.7138798 Z" id="Shape"></path>
                    <path d="M6.30382836,6.81310056 L6.30382836,6.81310056 C6.70102675,7.13085894 7.29933825,7.03186232 7.56365834,6.60403078 L10,3 L6.28515357,5.58083495 C5.89729258,5.91105444 5.90662997,6.49534218 6.30382836,6.81310056 Z" id="Path"></path>
                </g>
            </g>
        </g>
    </g>
</svg>