<?xml version="1.0" encoding="UTF-8"?>
<svg width="23px" height="22px" viewBox="0 0 23 22" version="1.1" xmlns="http://www.w3.org/2000/svg" xmlns:xlink="http://www.w3.org/1999/xlink">
    <!-- Generator: Sketch 63.1 (92452) - https://sketch.com -->
    <title>Group 28 Copy 2</title>
    <desc>Created with Sketch.</desc>
    <g id="Screens" stroke="none" stroke-width="1" fill="none" fill-rule="evenodd">
        <g id="Popup---Calendar" transform="translate(-90.000000, -351.000000)">
            <g id="Group-28-Copy-2" transform="translate(90.000000, 351.000000)">
                <g id="Group-52" transform="translate(-0.000001, 0.000000)" fill="#F86364">
                    <rect id="Rectangle" x="0" y="0" width="23" height="22" rx="11"></rect>
                </g>
                <g id="Group" transform="translate(3.999999, 4.000000)" fill="#000000" fill-rule="nonzero">
                    <path d="M7.50000129,0 C3.35815135,0 1.28744978e-06,3.35815006 1.28744978e-06,7.5 C1.28744978e-06,11.6418499 3.35815135,15 7.50000129,15 C11.6418512,15 15.0000013,11.6418499 15.0000013,7.5 C15.0000013,3.35815006 11.6426405,0 7.50000129,0 Z M7.987742,13.3923498 L7.987742,12.5676102 C7.987742,12.2984847 7.76991605,12.0806587 7.50079051,12.0806587 C7.23166497,12.0806587 7.01383902,12.2984847 7.01383902,12.5676102 L7.01383902,13.3923498 C4.13711588,13.1579501 1.84441884,10.8644639 1.60922995,7.98774071 L2.43396951,7.98774071 C2.70309505,7.98774071 2.920921,7.76991476 2.920921,7.50078922 C2.920921,7.23166369 2.70309505,7.01383774 2.43396951,7.01383774 L1.60922995,7.01383774 C1.84362962,4.1371146 4.13711588,1.84441755 7.01383902,1.60922866 L7.01383902,2.43396822 C7.01383902,2.70309376 7.23166497,2.92091971 7.50079051,2.92091971 C7.76991605,2.92091971 7.987742,2.70309376 7.987742,2.43396822 L7.987742,1.60843944 C10.8644651,1.8428391 13.1571622,4.13632537 13.3923511,7.01304851 L12.5676115,7.01304851 C12.298486,7.01304851 12.08066,7.23087446 12.08066,7.5 C12.08066,7.76912554 12.298486,7.98695149 12.5676115,7.98695149 L13.3923511,7.98695149 C13.1571622,10.8636746 10.8636759,13.1571609 7.987742,13.3923498 Z" id="Shape"></path>
                    <path d="M7.37978674,8.7663757 L7.37978674,8.7663757 C7.87628473,9.16357368 8.6241741,9.0398279 8.95457421,8.50503847 L12.0000013,4 L7.35644325,7.22604369 C6.87161701,7.63881805 6.88328875,8.36917773 7.37978674,8.7663757 Z" id="Path"></path>
                </g>
            </g>
        </g>
    </g>
</svg>