<?xml version="1.0" encoding="UTF-8"?>
<svg width="504px" height="186px" viewBox="0 0 504 186" version="1.1" xmlns="http://www.w3.org/2000/svg" xmlns:xlink="http://www.w3.org/1999/xlink">
    <!-- Generator: Sketch 64 (93537) - https://sketch.com -->
    <title>Group 6</title>
    <desc>Created with Sketch.</desc>
    <g id="Page-1" stroke="none" stroke-width="1" fill="none" fill-rule="evenodd">
        <g id="Articles" transform="translate(-862.000000, 0.000000)">
            <g id="Group-6" transform="translate(862.000000, -52.000000)">
                <path d="M0,52.0026562 C169.175418,51.9991146 253.775951,51.9991146 253.801599,52.0026562 C294.814106,70.9723708 333.225051,85.4146965 369.034436,95.3296334 C404.84382,105.24457 449.832342,114.000061 504,121.596106 L504,238.00277 C422.200785,235.339114 335.084314,218.710024 242.650588,188.115501 C150.216863,157.520978 69.3333333,112.15003 0,52.0026562 Z" id="Shape" fill="#4348B2"></path>
                <path d="M404,155.000198 L382.547461,225.000287 L364,225.000287 L385.448124,155.000198 L404,155.000198 Z M428.984611,155.000198 C431.202918,155.000198 433,156.857562 433,159.148092 C433,159.307065 432.986829,159.460205 432.967387,159.6114 L432.934382,159.83722 L413.78667,225.000287 L396,225.000287 L410.677231,175.054916 C411.116479,173.559319 410.078878,172.049323 408.595073,171.959181 L408.454691,171.954934 L404.363101,171.954934 L409.34794,155.000198 L428.984611,155.000198 Z M494,155.000198 L479.321929,204.945569 C478.884708,206.441165 479.920441,207.951162 481.406142,208.041304 L481.546713,208.045551 L485.638538,208.045551 L480.653413,225.000287 L461.013502,225.000287 C458.797185,225.000287 457,223.142923 457,220.852393 C457,220.693419 457.013171,220.54028 457.032615,220.389085 L457.065622,220.163265 L476.214429,155.000198 L494,155.000198 Z M560,155.000198 L538.551876,225.000287 L520,225.000287 L541.452539,155.000198 L560,155.000198 Z M527,155.000198 L512.322769,204.945569 C511.883521,206.441165 512.921122,207.951162 514.404927,208.041304 L514.545309,208.045551 L518.636899,208.045551 L513.65206,225.000287 L494.015389,225.000287 C491.797082,225.000287 490,223.142923 490,220.852393 C490,220.693419 490.013171,220.54028 490.032613,220.389085 L490.065618,220.163265 L509.21333,155.000198 L527,155.000198 Z M461.986498,155.000198 C464.202815,155.000198 466,156.857562 466,159.148092 C466,159.307065 465.986829,159.460205 465.967385,159.6114 L465.934378,159.83722 L446.785571,225.000287 L429,225.000287 L443.678071,175.054916 C444.115292,173.559319 443.079559,172.049323 441.593858,171.959181 L441.453287,171.954934 L437.361462,171.954934 L442.346587,155.000198 L461.986498,155.000198 Z M547,77.0000982 L525.547461,147.000187 L507,147.000187 L528.448124,77.0000982 L547,77.0000982 Z M572.984611,77.0000982 C575.202918,77.0000982 577,78.8574622 577,81.1479924 C577,81.3069658 576.986829,81.4601054 576.967387,81.6113003 L576.934382,81.8371203 L557.78667,147.000187 L540,147.000187 L554.677231,97.0548164 C555.116479,95.5592197 554.078878,94.0492232 552.595073,93.9590816 L552.454691,93.9548344 L548.363101,93.9548344 L553.34794,77.0000982 L572.984611,77.0000982 Z M638,77.0000982 L623.321929,126.945469 C622.884708,128.441066 623.920441,129.951062 625.406142,130.041204 L625.546713,130.045451 L629.638538,130.045451 L624.653413,147.000187 L605.013502,147.000187 C602.797185,147.000187 601,145.142823 601,142.852293 C601,142.69332 601.013171,142.54018 601.032615,142.388985 L601.065622,142.163165 L620.214429,77.0000982 L638,77.0000982 Z M361,77.0000982 L339.547461,147.000187 L321,147.000187 L342.448124,77.0000982 L361,77.0000982 Z M384.984611,77.0000982 C387.202918,77.0000982 389,78.8574622 389,81.1479924 C389,81.3069658 388.986829,81.4601054 388.967387,81.6113003 L388.934382,81.8371203 L369.78667,147.000187 L352,147.000187 L366.677231,97.0548164 C367.116479,95.5592197 366.078878,94.0492232 364.595073,93.9590816 L364.454691,93.9548344 L360.363101,93.9548344 L365.34794,77.0000982 L384.984611,77.0000982 Z M450,77.0000982 L435.321929,126.945469 C434.884708,128.441066 435.920441,129.951062 437.406142,130.041204 L437.546713,130.045451 L441.638538,130.045451 L436.653413,147.000187 L417.013502,147.000187 C414.797185,147.000187 413,145.142823 413,142.852293 C413,142.69332 413.013171,142.54018 413.032615,142.388985 L413.065622,142.163165 L432.214429,77.0000982 L450,77.0000982 Z M418.986498,76.0000969 C421.202815,76.0000969 423,77.8574609 423,80.1479911 C423,80.3069645 422.986829,80.4601041 422.967385,80.611299 L422.934378,80.8371191 L403.785571,146.000186 L386,146.000186 L400.678071,96.0548152 C401.115292,94.5592184 400.079559,93.0492219 398.593858,92.9590804 L398.453287,92.9548331 L394.361462,92.9548331 L399.346587,76.0000969 L418.986498,76.0000969 Z M515,76.0000969 L493.551876,146.000186 L475,146.000186 L496.452539,76.0000969 L515,76.0000969 Z M484,76.0000969 L469.322769,125.945468 C468.883521,127.441065 469.921122,128.951061 471.404927,129.041203 L471.545309,129.04545 L475.636899,129.04545 L470.65206,146.000186 L451.015389,146.000186 C448.797082,146.000186 447,144.142822 447,141.852292 C447,141.693319 447.013171,141.540179 447.032613,141.388984 L447.065618,141.163164 L466.21333,76.0000969 L484,76.0000969 Z M604.986498,76.0000969 C607.202815,76.0000969 609,77.8574609 609,80.1479911 C609,80.3069645 608.986829,80.4601041 608.967385,80.611299 L608.934378,80.8371191 L589.785571,146.000186 L572,146.000186 L586.678071,96.0548152 C587.115292,94.5592184 586.079559,93.0492219 584.593858,92.9590804 L584.453287,92.9548331 L580.361462,92.9548331 L585.346587,76.0000969 L604.986498,76.0000969 Z M703,76.0000969 L681.551876,146.000186 L663,146.000186 L684.452539,76.0000969 L703,76.0000969 Z M670,76.0000969 L655.322769,125.945468 C654.883521,127.441065 655.921122,128.951061 657.404927,129.041203 L657.545309,129.04545 L661.636899,129.04545 L656.65206,146.000186 L637.015389,146.000186 C634.797082,146.000186 633,144.142822 633,141.852292 C633,141.693319 633.013171,141.540179 633.032613,141.388984 L633.065618,141.163164 L652.21333,76.0000969 L670,76.0000969 Z M440,0 L418.547461,70.0000893 L400,70.0000893 L421.448124,0 L440,0 Z M465.984611,0 C468.202918,0 470,1.85736399 470,4.14789415 C470,4.30686759 469.986829,4.46000714 469.967387,4.61120207 L469.934382,4.83702214 L450.78667,70.0000893 L433,70.0000893 L447.677231,20.0547182 C448.116479,18.5591215 447.078878,17.049125 445.595073,16.9589834 L445.454691,16.9547362 L441.363101,16.9547362 L446.34794,0 L465.984611,0 Z M531,0 L516.321929,49.945371 C515.884708,51.4409678 516.920441,52.9509643 518.406142,53.0411059 L518.546713,53.0453531 L522.638538,53.0453531 L517.653413,70.0000893 L498.013502,70.0000893 C495.797185,70.0000893 494,68.1427253 494,65.8521951 C494,65.6932217 494.013171,65.5400821 494.032615,65.3888872 L494.065622,65.1630671 L513.214429,0 L531,0 Z M497.986498,0 C500.202815,0 502,1.85736399 502,4.14789415 C502,4.30686759 501.986829,4.46000714 501.967385,4.61120207 L501.934378,4.83702214 L482.785571,70.0000893 L465,70.0000893 L479.678071,20.0547182 C480.115292,18.5591215 479.079559,17.049125 477.593858,16.9589834 L477.453287,16.9547362 L473.361462,16.9547362 L478.346587,0 L497.986498,0 Z M563,0 L548.322769,49.945371 C547.883521,51.4409678 548.921122,52.9509643 550.404927,53.0411059 L550.545309,53.0453531 L554.636899,53.0453531 L549.65206,70.0000893 L530.015389,70.0000893 C527.797082,70.0000893 526,68.1427253 526,65.8521951 C526,65.6932217 526.013171,65.5400821 526.032613,65.3888872 L526.065618,65.1630671 L545.21333,0 L563,0 Z M596,0 L574.551876,70.0000893 L556,70.0000893 L577.452539,0 L596,0 Z" id="Combined-Shape" fill="#525CD7" opacity="0.100000001"></path>
            </g>
        </g>
    </g>
</svg>