<?xml version="1.0" encoding="UTF-8"?>
<svg width="105px" height="118px" viewBox="0 0 105 118" version="1.1" xmlns="http://www.w3.org/2000/svg" xmlns:xlink="http://www.w3.org/1999/xlink">
    <!-- Generator: Sketch 64 (93537) - https://sketch.com -->
    <title>Combined Shape</title>
    <desc>Created with Sketch.</desc>
    <defs>
        <filter x="-18.0%" y="-4.5%" width="136.0%" height="109.0%" filterUnits="objectBoundingBox" id="filter-1">
            <feOffset dx="0" dy="2" in="SourceAlpha" result="shadowOffsetOuter1"></feOffset>
            <feGaussianBlur stdDeviation="9.5" in="shadowOffsetOuter1" result="shadowBlurOuter1"></feGaussianBlur>
            <feColorMatrix values="0 0 0 0 0   0 0 0 0 0   0 0 0 0 0  0 0 0 0.278245192 0" type="matrix" in="shadowBlurOuter1" result="shadowMatrixOuter1"></feColorMatrix>
            <feMerge>
                <feMergeNode in="shadowMatrixOuter1"></feMergeNode>
                <feMergeNode in="SourceGraphic"></feMergeNode>
            </feMerge>
        </filter>
    </defs>
    <g id="Page-1" stroke="none" stroke-width="1" fill="none" fill-rule="evenodd" opacity="0.100000001">
        <g id="Articles" transform="translate(-1261.000000, -782.000000)" fill="#525CD7">
            <g id="Group-4" filter="url(#filter-1)" transform="translate(1161.000000, 0.000000)">
                <path d="M156.455497,877.151936 L145.223802,913.801197 L135.513089,913.801197 L146.742473,877.151936 L156.455497,877.151936 Z M169.536445,877.151936 C170.697863,877.151936 171.638743,878.124378 171.638743,879.323608 C171.638743,879.40684 171.631848,879.487018 171.621669,879.566178 L171.604388,879.684408 L161.579409,913.801197 L152.267016,913.801197 L159.95143,887.651788 C160.181403,886.868753 159.638156,886.078179 158.861295,886.030985 L158.787796,886.028761 L156.645602,886.028761 L159.255466,877.151936 L169.536445,877.151936 Z M203.575916,877.151936 L195.891062,903.301345 C195.662151,904.08438 196.204419,904.874954 196.982273,904.922148 L197.055871,904.924372 L199.198187,904.924372 L196.588174,913.801197 L186.305498,913.801197 C185.145123,913.801197 184.204188,912.828755 184.204188,911.629525 C184.204188,911.546293 184.211084,911.466115 184.221264,911.386955 L184.238545,911.268725 L194.264099,877.151936 L203.575916,877.151936 Z M238.13089,877.151936 L226.901506,913.801197 L217.188482,913.801197 L228.420177,877.151936 L238.13089,877.151936 Z M220.853403,877.151936 L213.168989,903.301345 C212.939016,904.08438 213.482263,904.874954 214.259124,904.922148 L214.332623,904.924372 L216.474816,904.924372 L213.864953,913.801197 L203.583973,913.801197 C202.422556,913.801197 201.481675,912.828755 201.481675,911.629525 C201.481675,911.546293 201.488571,911.466115 201.49875,911.386955 L201.51603,911.268725 L211.54101,877.151936 L220.853403,877.151936 Z M186.81492,877.151936 C187.975296,877.151936 188.91623,878.124378 188.91623,879.323608 C188.91623,879.40684 188.909334,879.487018 188.899155,879.566178 L188.881874,879.684408 L178.85632,913.801197 L169.544503,913.801197 L177.229356,887.651788 C177.458268,886.868753 176.916,886.078179 176.138146,886.030985 L176.064548,886.028761 L173.922232,886.028761 L176.532245,877.151936 L186.81492,877.151936 Z M231.324607,836.314188 L220.092912,872.963449 L210.382199,872.963449 L221.611583,836.314188 L231.324607,836.314188 Z M244.929116,836.314188 C246.090533,836.314188 247.031414,837.286629 247.031414,838.48586 C247.031414,838.569092 247.024518,838.64927 247.014339,838.728429 L246.997059,838.84666 L236.972079,872.963449 L227.659686,872.963449 L235.3441,846.81404 C235.574073,846.031005 235.030826,845.240431 234.253965,845.193236 L234.180467,845.191013 L232.038273,845.191013 L234.648136,836.314188 L244.929116,836.314188 Z M278.968586,836.314188 L271.283733,862.463596 C271.054821,863.246631 271.597089,864.037205 272.374943,864.0844 L272.448541,864.086624 L274.590857,864.086624 L271.980844,872.963449 L261.698169,872.963449 C260.537793,872.963449 259.596859,871.991007 259.596859,870.791777 C259.596859,870.708544 259.603755,870.628367 259.613934,870.549207 L259.631215,870.430977 L269.656769,836.314188 L278.968586,836.314188 Z M133.942408,836.314188 L122.710713,872.963449 L113,872.963449 L124.229384,836.314188 L133.942408,836.314188 Z M146.499796,836.314188 C147.661213,836.314188 148.602094,837.286629 148.602094,838.48586 C148.602094,838.569092 148.595199,838.64927 148.585019,838.728429 L148.567739,838.84666 L138.542759,872.963449 L129.230366,872.963449 L136.914781,846.81404 C137.144754,846.031005 136.601507,845.240431 135.824646,845.193236 L135.751147,845.191013 L133.608953,845.191013 L136.218817,836.314188 L146.499796,836.314188 Z M180.539267,836.314188 L172.854413,862.463596 C172.625502,863.246631 173.16777,864.037205 173.945624,864.0844 L174.019222,864.086624 L176.161538,864.086624 L173.551525,872.963449 L163.268849,872.963449 C162.108474,872.963449 161.167539,871.991007 161.167539,870.791777 C161.167539,870.708544 161.174435,870.628367 161.184615,870.549207 L161.201896,870.430977 L171.22745,836.314188 L180.539267,836.314188 Z M164.301831,835.790627 C165.462207,835.790627 166.403141,836.763069 166.403141,837.962299 C166.403141,838.045531 166.396245,838.125709 166.386066,838.204869 L166.368785,838.323099 L156.343231,872.439888 L147.031414,872.439888 L154.716267,846.290479 C154.945179,845.507444 154.402911,844.71687 153.625057,844.669676 L153.551459,844.667452 L151.409143,844.667452 L154.019156,835.790627 L164.301831,835.790627 Z M214.570681,835.790627 L203.341297,872.439888 L193.628272,872.439888 L204.859968,835.790627 L214.570681,835.790627 Z M198.340314,835.790627 L190.6559,861.940036 C190.425927,862.723071 190.969174,863.513645 191.746035,863.560839 L191.819533,863.563063 L193.961727,863.563063 L191.351864,872.439888 L181.070884,872.439888 C179.909467,872.439888 178.968586,871.467446 178.968586,870.268216 C178.968586,870.184984 178.975482,870.104806 178.985661,870.025646 L179.002941,869.907416 L189.027921,835.790627 L198.340314,835.790627 Z M261.68403,835.790627 C262.844406,835.790627 263.78534,836.763069 263.78534,837.962299 C263.78534,838.045531 263.778444,838.125709 263.768265,838.204869 L263.750983,838.323099 L253.72543,872.439888 L244.413613,872.439888 L252.098466,846.290479 C252.327378,845.507444 251.78511,844.71687 251.007256,844.669676 L250.933658,844.667452 L248.791342,844.667452 L251.401355,835.790627 L261.68403,835.790627 Z M313,835.790627 L301.770616,872.439888 L292.057592,872.439888 L303.289287,835.790627 L313,835.790627 Z M295.722513,835.790627 L288.038099,861.940036 C287.808126,862.723071 288.351373,863.513645 289.128234,863.560839 L289.201732,863.563063 L291.343926,863.563063 L288.734063,872.439888 L278.453083,872.439888 C277.291666,872.439888 276.350785,871.467446 276.350785,870.268216 C276.350785,870.184984 276.357681,870.104806 276.36786,870.025646 L276.38514,869.907416 L286.41012,835.790627 L295.722513,835.790627 Z M175.303665,796 L164.071969,832.649261 L154.361257,832.649261 L165.590641,796 L175.303665,796 Z M188.908173,796 C190.06959,796 191.010471,796.972442 191.010471,798.171672 C191.010471,798.254904 191.003576,798.335082 190.993396,798.414242 L190.976116,798.532472 L180.951136,832.649261 L171.638743,832.649261 L179.323158,806.499852 C179.553131,805.716818 179.009884,804.926243 178.233023,804.879049 L178.159524,804.876825 L176.01733,804.876825 L178.627194,796 L188.908173,796 Z M222.947644,796 L215.26279,822.149409 C215.033879,822.932444 215.576147,823.723018 216.354001,823.770212 L216.427598,823.772436 L218.569915,823.772436 L215.959902,832.649261 L205.677226,832.649261 C204.516851,832.649261 203.575916,831.67682 203.575916,830.477589 C203.575916,830.394357 203.582812,830.314179 203.592992,830.235019 L203.610273,830.116789 L213.635827,796 L222.947644,796 Z M205.663088,796 C206.823463,796 207.764398,796.972442 207.764398,798.171672 C207.764398,798.254904 207.757502,798.335082 207.747322,798.414242 L207.730041,798.532472 L197.704488,832.649261 L188.39267,832.649261 L196.077524,806.499852 C196.306435,805.716818 195.764167,804.926243 194.986313,804.879049 L194.912716,804.876825 L192.770399,804.876825 L195.380412,796 L205.663088,796 Z M239.701571,796 L232.017156,822.149409 C231.787184,822.932444 232.33043,823.723018 233.107291,823.770212 L233.18079,823.772436 L235.322984,823.772436 L232.71312,832.649261 L222.432141,832.649261 C221.270724,832.649261 220.329843,831.67682 220.329843,830.477589 C220.329843,830.394357 220.336739,830.314179 220.346918,830.235019 L220.364198,830.116789 L230.389178,796 L239.701571,796 Z M256.979058,796 L245.749674,832.649261 L236.036649,832.649261 L247.268345,796 L256.979058,796 Z" id="Combined-Shape"></path>
            </g>
        </g>
    </g>
</svg>