<?xml version="1.0" encoding="UTF-8"?>
<svg width="283px" height="154px" viewBox="0 0 283 154" version="1.1" xmlns="http://www.w3.org/2000/svg" xmlns:xlink="http://www.w3.org/1999/xlink">
    <!-- Generator: Sketch 64 (93537) - https://sketch.com -->
    <title>Combined Shape</title>
    <desc>Created with Sketch.</desc>
    <g id="Page-1" stroke="none" stroke-width="1" fill="none" fill-rule="evenodd" opacity="0.290243677">
        <g id="League-Settings---League-Admin-View-(Pre-Draft)---Delete-League-Popout" transform="translate(-731.000000, -361.000000)" fill="#525CD7">
            <g id="Group-13" transform="translate(499.770270, 361.000000)">
                <path d="M312.56973,85.8081181 L291.546242,154 L273.36973,154 L294.388891,85.8081181 L312.56973,85.8081181 Z M337.054648,85.8081181 C339.228589,85.8081181 340.98973,87.6175036 340.98973,89.8488659 C340.98973,90.0037328 340.976822,90.1529165 340.957769,90.3002059 L340.925424,90.5201927 L322.160667,154 L304.72973,154 L319.113416,105.344793 C319.54388,103.88783 318.52703,102.416839 317.072902,102.329026 L316.935327,102.324888 L312.925568,102.324888 L317.810711,85.8081181 L337.054648,85.8081181 Z M400.76973,85.8081181 L386.38522,134.463325 C385.956744,135.920288 386.971762,137.391279 388.427749,137.479093 L388.565509,137.48323 L392.575497,137.48323 L387.690074,154 L368.442962,154 C366.270971,154 364.50973,152.190615 364.50973,149.959252 C364.50973,149.804385 364.522638,149.655202 364.541692,149.507912 L364.574039,149.287925 L383.33987,85.8081181 L400.76973,85.8081181 Z M465.44973,85.8081181 L444.430569,154 L426.24973,154 L447.273218,85.8081181 L465.44973,85.8081181 Z M433.10973,85.8081181 L418.726043,134.463325 C418.29558,135.920288 419.312429,137.391279 420.766558,137.479093 L420.904133,137.48323 L424.913891,137.48323 L420.028748,154 L400.784811,154 C398.61087,154 396.84973,152.190615 396.84973,149.959252 C396.84973,149.804385 396.862637,149.655202 396.88169,149.507912 L396.914035,149.287925 L415.678793,85.8081181 L433.10973,85.8081181 Z M369.396498,85.8081181 C371.568488,85.8081181 373.32973,87.6175036 373.32973,89.8488659 C373.32973,90.0037328 373.316822,90.1529165 373.297767,90.3002059 L373.265421,90.5201927 L354.49959,154 L337.06973,154 L351.454239,105.344793 C351.882716,103.88783 350.867698,102.416839 349.411711,102.329026 L349.273951,102.324888 L345.263963,102.324888 L350.149385,85.8081181 L369.396498,85.8081181 Z M452.70973,9.82287823 L431.686242,78.0147601 L413.50973,78.0147601 L434.528891,9.82287823 L452.70973,9.82287823 Z M478.174648,9.82287823 C480.348589,9.82287823 482.10973,11.6322637 482.10973,13.863626 C482.10973,14.018493 482.096822,14.1676767 482.077769,14.314966 L482.045424,14.5349528 L463.280667,78.0147601 L445.84973,78.0147601 L460.233416,29.359553 C460.66388,27.9025897 459.64703,26.4315987 458.192902,26.3437857 L458.055327,26.3396481 L454.045568,26.3396481 L458.930711,9.82287823 L478.174648,9.82287823 Z M514.22973,44.4278081 L514.22973,78.0138081 L509.562962,78.0147601 C507.390971,78.0147601 505.62973,76.2053747 505.62973,73.9740123 C505.62973,73.8191454 505.642638,73.6699617 505.661692,73.5226723 L505.694039,73.3026856 L514.22973,44.4278081 Z M270.42973,9.82287823 L249.406242,78.0147601 L231.22973,78.0147601 L252.248891,9.82287823 L270.42973,9.82287823 Z M293.934648,9.82287823 C296.108589,9.82287823 297.86973,11.6322637 297.86973,13.863626 C297.86973,14.018493 297.856822,14.1676767 297.837769,14.314966 L297.805424,14.5349528 L279.040667,78.0147601 L261.60973,78.0147601 L275.993416,29.359553 C276.42388,27.9025897 275.40703,26.4315987 273.952902,26.3437857 L273.815327,26.3396481 L269.805568,26.3396481 L274.690711,9.82287823 L293.934648,9.82287823 Z M357.64973,9.82287823 L343.26522,58.4780854 C342.836744,59.9350486 343.851762,61.4060396 345.307749,61.4938527 L345.445509,61.4979903 L349.455497,61.4979903 L344.570074,78.0147601 L325.322962,78.0147601 C323.150971,78.0147601 321.38973,76.2053747 321.38973,73.9740123 C321.38973,73.8191454 321.402638,73.6699617 321.421692,73.5226723 L321.454039,73.3026856 L340.21987,9.82287823 L357.64973,9.82287823 Z M327.256498,8.84870849 C329.428488,8.84870849 331.18973,10.658094 331.18973,12.8894563 C331.18973,13.0443232 331.176822,13.193507 331.157767,13.3407963 L331.125421,13.5607831 L312.35959,77.0405904 L294.92973,77.0405904 L309.314239,28.3853833 C309.742716,26.92842 308.727698,25.457429 307.271711,25.3696159 L307.133951,25.3654784 L303.123963,25.3654784 L308.009385,8.84870849 L327.256498,8.84870849 Z M421.34973,8.84870849 L400.330569,77.0405904 L382.14973,77.0405904 L403.173218,8.84870849 L421.34973,8.84870849 Z M390.96973,8.84870849 L376.586043,57.5039156 C376.15558,58.9608789 377.172429,60.4318699 378.626558,60.519683 L378.764133,60.5238205 L382.773891,60.5238205 L377.888748,77.0405904 L358.644811,77.0405904 C356.47087,77.0405904 354.70973,75.2312049 354.70973,72.9998426 C354.70973,72.8449757 354.722637,72.6957919 354.74169,72.5485026 L354.774035,72.3285158 L373.538793,8.84870849 L390.96973,8.84870849 Z M509.536498,8.84870849 C511.708488,8.84870849 513.46973,10.658094 513.46973,12.8894563 C513.46973,13.0443232 513.456822,13.193507 513.437767,13.3407963 L513.405421,13.5607831 L494.63959,77.0405904 L477.20973,77.0405904 L491.594239,28.3853833 C492.022716,26.92842 491.007698,25.457429 489.551711,25.3696159 L489.413951,25.3654784 L485.403963,25.3654784 L490.289385,8.84870849 L509.536498,8.84870849 Z M347.84973,-65.1881919 L326.826242,3.00369004 L308.64973,3.00369004 L329.668891,-65.1881919 L347.84973,-65.1881919 Z M373.314648,-65.1881919 C375.488589,-65.1881919 377.24973,-63.3788064 377.24973,-61.1474441 C377.24973,-60.9925771 377.236822,-60.8433934 377.217769,-60.6961041 L377.185424,-60.4761173 L358.420667,3.00369004 L340.98973,3.00369004 L355.373416,-45.6515171 C355.80388,-47.1084804 354.78703,-48.5794714 353.332902,-48.6672844 L353.195327,-48.671422 L349.185568,-48.671422 L354.070711,-65.1881919 L373.314648,-65.1881919 Z M437.02973,-65.1881919 L422.64522,-16.5329847 C422.216744,-15.0760215 423.231762,-13.6050305 424.687749,-13.5172174 L424.825509,-13.5130798 L428.835497,-13.5130798 L423.950074,3.00369004 L404.702962,3.00369004 C402.530971,3.00369004 400.76973,1.19430454 400.76973,-1.03705778 C400.76973,-1.1919247 400.782638,-1.34110843 400.801692,-1.48839776 L400.834039,-1.70838456 L419.59987,-65.1881919 L437.02973,-65.1881919 Z M404.676498,-65.1881919 C406.848488,-65.1881919 408.60973,-63.3788064 408.60973,-61.1474441 C408.60973,-60.9925771 408.596822,-60.8433934 408.577767,-60.6961041 L408.545421,-60.4761173 L389.77959,3.00369004 L372.34973,3.00369004 L386.734239,-45.6515171 C387.162716,-47.1084804 386.147698,-48.5794714 384.691711,-48.6672844 L384.553951,-48.671422 L380.543963,-48.671422 L385.429385,-65.1881919 L404.676498,-65.1881919 Z M468.38973,-65.1881919 L454.006043,-16.5329847 C453.57558,-15.0760215 454.592429,-13.6050305 456.046558,-13.5172174 L456.184133,-13.5130798 L460.193891,-13.5130798 L455.308748,3.00369004 L436.064811,3.00369004 C433.89087,3.00369004 432.12973,1.19430454 432.12973,-1.03705778 C432.12973,-1.1919247 432.142637,-1.34110843 432.16169,-1.48839776 L432.194035,-1.70838456 L450.958793,-65.1881919 L468.38973,-65.1881919 Z M500.72973,-65.1881919 L479.710569,3.00369004 L461.52973,3.00369004 L482.553218,-65.1881919 L500.72973,-65.1881919 Z" id="Combined-Shape"></path>
            </g>
        </g>
    </g>
</svg>