<?xml version="1.0" encoding="UTF-8"?>
<svg width="160px" height="89px" viewBox="0 0 160 89" version="1.1" xmlns="http://www.w3.org/2000/svg" xmlns:xlink="http://www.w3.org/1999/xlink">
    <title>Combined Shape</title>
    <g id="Page-1" stroke="none" stroke-width="1" fill="none" fill-rule="evenodd" opacity="0.290243677">
        <g id="Free-Market---All-(Market-Closed-popout)" transform="translate(-814.000000, -339.000000)" fill="#525CD7">
            <g id="Group-13" transform="translate(459.000000, 339.000000)">
                <path d="M436.34,19.99631 L415.316512,88.1881919 L397.14,88.1881919 L418.159161,19.99631 L436.34,19.99631 Z M460.824919,19.99631 C462.998859,19.99631 464.76,21.8056955 464.76,24.0370578 C464.76,24.1919247 464.747093,24.3411084 464.728039,24.4883978 L464.695694,24.7083846 L445.930937,88.1881919 L428.5,88.1881919 L442.883686,39.5329847 C443.31415,38.0760215 442.297301,36.6050305 440.843172,36.5172174 L440.705597,36.5130798 L436.695839,36.5130798 L441.580982,19.99631 L460.824919,19.99631 Z M524.54,19.99631 L510.155491,68.6515171 C509.727014,70.1084804 510.742032,71.5794714 512.198019,71.6672844 L512.335779,71.671422 L516.345767,71.671422 L511.460344,88.1881919 L492.213232,88.1881919 C490.041241,88.1881919 488.28,86.3788064 488.28,84.1474441 C488.28,83.9925771 488.292908,83.8433934 488.311962,83.6961041 L488.344309,83.4761173 L507.11014,19.99631 L524.54,19.99631 Z M589.22,19.99631 L568.200839,88.1881919 L550.02,88.1881919 L571.043488,19.99631 L589.22,19.99631 Z M556.88,19.99631 L542.496314,68.6515171 C542.06585,70.1084804 543.082699,71.5794714 544.536828,71.6672844 L544.674403,71.671422 L548.684161,71.671422 L543.799018,88.1881919 L524.555081,88.1881919 C522.381141,88.1881919 520.62,86.3788064 520.62,84.1474441 C520.62,83.9925771 520.632907,83.8433934 520.651961,83.6961041 L520.684306,83.4761173 L539.449063,19.99631 L556.88,19.99631 Z M493.166768,19.99631 C495.338759,19.99631 497.1,21.8056955 497.1,24.0370578 C497.1,24.1919247 497.087092,24.3411084 497.068038,24.4883978 L497.035691,24.7083846 L478.26986,88.1881919 L460.84,88.1881919 L475.224509,39.5329847 C475.652986,38.0760215 474.637968,36.6050305 473.181981,36.5172174 L473.044221,36.5130798 L469.034233,36.5130798 L473.919656,19.99631 L493.166768,19.99631 Z M576.48,-55.9889299 L555.456512,12.202952 L537.28,12.202952 L558.299161,-55.9889299 L576.48,-55.9889299 Z M601.944919,-55.9889299 C604.118859,-55.9889299 605.88,-54.1795444 605.88,-51.9481821 C605.88,-51.7933152 605.867093,-51.6441314 605.848039,-51.4968421 L605.815694,-51.2768553 L587.050937,12.202952 L569.62,12.202952 L584.003686,-36.4522551 C584.43415,-37.9092184 583.417301,-39.3802094 581.963172,-39.4680225 L581.825597,-39.47216 L577.815839,-39.47216 L582.700982,-55.9889299 L601.944919,-55.9889299 Z M638,-21.384 L638,12.202 L633.333232,12.202952 C631.161241,12.202952 629.4,10.3935665 629.4,8.16220421 C629.4,8.00733729 629.412908,7.85815356 629.431962,7.71086423 L629.464309,7.49087743 L638,-21.384 Z M394.2,-55.9889299 L373.176512,12.202952 L355,12.202952 L376.019161,-55.9889299 L394.2,-55.9889299 Z M417.704919,-55.9889299 C419.878859,-55.9889299 421.64,-54.1795444 421.64,-51.9481821 C421.64,-51.7933152 421.627093,-51.6441314 421.608039,-51.4968421 L421.575694,-51.2768553 L402.810937,12.202952 L385.38,12.202952 L399.763686,-36.4522551 C400.19415,-37.9092184 399.177301,-39.3802094 397.723172,-39.4680225 L397.585597,-39.47216 L393.575839,-39.47216 L398.460982,-55.9889299 L417.704919,-55.9889299 Z M481.42,-55.9889299 L467.035491,-7.33372274 C466.607014,-5.87675949 467.622032,-4.40576848 469.078019,-4.3179554 L469.215779,-4.31381785 L473.225767,-4.31381785 L468.340344,12.202952 L449.093232,12.202952 C446.921241,12.202952 445.16,10.3935665 445.16,8.16220421 C445.16,8.00733729 445.172908,7.85815356 445.191962,7.71086423 L445.224309,7.49087743 L463.99014,-55.9889299 L481.42,-55.9889299 Z M451.026768,-56.9630996 C453.198759,-56.9630996 454.96,-55.1537141 454.96,-52.9223518 C454.96,-52.7674849 454.947092,-52.6183012 454.928038,-52.4710118 L454.895691,-52.251025 L436.12986,11.2287823 L418.7,11.2287823 L433.084509,-37.4264249 C433.512986,-38.8833881 432.497968,-40.3543791 431.041981,-40.4421922 L430.904221,-40.4463298 L426.894233,-40.4463298 L431.779656,-56.9630996 L451.026768,-56.9630996 Z M545.12,-56.9630996 L524.100839,11.2287823 L505.92,11.2287823 L526.943488,-56.9630996 L545.12,-56.9630996 Z M514.74,-56.9630996 L500.356314,-8.30789248 C499.92585,-6.85092923 500.942699,-5.37993822 502.396828,-5.29212515 L502.534403,-5.28798759 L506.544161,-5.28798759 L501.659018,11.2287823 L482.415081,11.2287823 C480.241141,11.2287823 478.48,9.41939679 478.48,7.18803447 C478.48,7.03316755 478.492907,6.88398382 478.511961,6.73669449 L478.544306,6.51670769 L497.309063,-56.9630996 L514.74,-56.9630996 Z M633.306768,-56.9630996 C635.478759,-56.9630996 637.24,-55.1537141 637.24,-52.9223518 C637.24,-52.7674849 637.227092,-52.6183012 637.208038,-52.4710118 L637.175691,-52.251025 L618.40986,11.2287823 L600.98,11.2287823 L615.364509,-37.4264249 C615.792986,-38.8833881 614.777968,-40.3543791 613.321981,-40.4421922 L613.184221,-40.4463298 L609.174233,-40.4463298 L614.059656,-56.9630996 L633.306768,-56.9630996 Z M471.62,-131 L450.596512,-62.8081181 L432.42,-62.8081181 L453.439161,-131 L471.62,-131 Z M497.084919,-131 C499.258859,-131 501.02,-129.190615 501.02,-126.959252 C501.02,-126.804385 501.007093,-126.655202 500.988039,-126.507912 L500.955694,-126.287925 L482.190937,-62.8081181 L464.76,-62.8081181 L479.143686,-111.463325 C479.57415,-112.920288 478.557301,-114.391279 477.103172,-114.479093 L476.965597,-114.48323 L472.955839,-114.48323 L477.840982,-131 L497.084919,-131 Z M560.8,-131 L546.415491,-82.3447928 C545.987014,-80.8878296 547.002032,-79.4168386 548.458019,-79.3290255 L548.595779,-79.324888 L552.605767,-79.324888 L547.720344,-62.8081181 L528.473232,-62.8081181 C526.301241,-62.8081181 524.54,-64.6175036 524.54,-66.8488659 C524.54,-67.0037328 524.552908,-67.1529165 524.571962,-67.3002059 L524.604309,-67.5201927 L543.37014,-131 L560.8,-131 Z M528.446768,-131 C530.618759,-131 532.38,-129.190615 532.38,-126.959252 C532.38,-126.804385 532.367092,-126.655202 532.348038,-126.507912 L532.315691,-126.287925 L513.54986,-62.8081181 L496.12,-62.8081181 L510.504509,-111.463325 C510.932986,-112.920288 509.917968,-114.391279 508.461981,-114.479093 L508.324221,-114.48323 L504.314233,-114.48323 L509.199656,-131 L528.446768,-131 Z M592.16,-131 L577.776314,-82.3447928 C577.34585,-80.8878296 578.362699,-79.4168386 579.816828,-79.3290255 L579.954403,-79.324888 L583.964161,-79.324888 L579.079018,-62.8081181 L559.835081,-62.8081181 C557.661141,-62.8081181 555.9,-64.6175036 555.9,-66.8488659 C555.9,-67.0037328 555.912907,-67.1529165 555.931961,-67.3002059 L555.964306,-67.5201927 L574.729063,-131 L592.16,-131 Z M624.5,-131 L603.480839,-62.8081181 L585.3,-62.8081181 L606.323488,-131 L624.5,-131 Z" id="Combined-Shape"></path>
            </g>
        </g>
    </g>
</svg>