<?xml version="1.0" encoding="UTF-8"?>
<svg width="284px" height="129px" viewBox="0 0 284 129" version="1.1" xmlns="http://www.w3.org/2000/svg" xmlns:xlink="http://www.w3.org/1999/xlink">
    <title>Combined Shape</title>
    <g id="Page-1" stroke="none" stroke-width="1" fill="none" fill-rule="evenodd" opacity="0.290243677">
        <g id="Free-Market---Confirm-Transfers-(Successful)" transform="translate(-690.000000, -339.000000)" fill="#525CD7">
            <g id="Group-13" transform="translate(459.000000, 339.000000)">
                <path d="M312.56973,60.8081181 L291.546242,129 L273.36973,129 L294.388891,60.8081181 L312.56973,60.8081181 Z M337.054648,60.8081181 C339.228589,60.8081181 340.98973,62.6175036 340.98973,64.8488659 C340.98973,65.0037328 340.976822,65.1529165 340.957769,65.3002059 L340.925424,65.5201927 L322.160667,129 L304.72973,129 L319.113416,80.3447928 C319.54388,78.8878296 318.52703,77.4168386 317.072902,77.3290255 L316.935327,77.324888 L312.925568,77.324888 L317.810711,60.8081181 L337.054648,60.8081181 Z M400.76973,60.8081181 L386.38522,109.463325 C385.956744,110.920288 386.971762,112.391279 388.427749,112.479093 L388.565509,112.48323 L392.575497,112.48323 L387.690074,129 L368.442962,129 C366.270971,129 364.50973,127.190615 364.50973,124.959252 C364.50973,124.804385 364.522638,124.655202 364.541692,124.507912 L364.574039,124.287925 L383.33987,60.8081181 L400.76973,60.8081181 Z M465.44973,60.8081181 L444.430569,129 L426.24973,129 L447.273218,60.8081181 L465.44973,60.8081181 Z M433.10973,60.8081181 L418.726043,109.463325 C418.29558,110.920288 419.312429,112.391279 420.766558,112.479093 L420.904133,112.48323 L424.913891,112.48323 L420.028748,129 L400.784811,129 C398.61087,129 396.84973,127.190615 396.84973,124.959252 C396.84973,124.804385 396.862637,124.655202 396.88169,124.507912 L396.914035,124.287925 L415.678793,60.8081181 L433.10973,60.8081181 Z M369.396498,60.8081181 C371.568488,60.8081181 373.32973,62.6175036 373.32973,64.8488659 C373.32973,65.0037328 373.316822,65.1529165 373.297767,65.3002059 L373.265421,65.5201927 L354.49959,129 L337.06973,129 L351.454239,80.3447928 C351.882716,78.8878296 350.867698,77.4168386 349.411711,77.3290255 L349.273951,77.324888 L345.263963,77.324888 L350.149385,60.8081181 L369.396498,60.8081181 Z M452.70973,-15.1771218 L431.686242,53.0147601 L413.50973,53.0147601 L434.528891,-15.1771218 L452.70973,-15.1771218 Z M478.174648,-15.1771218 C480.348589,-15.1771218 482.10973,-13.3677363 482.10973,-11.136374 C482.10973,-10.981507 482.096822,-10.8323233 482.077769,-10.685034 L482.045424,-10.4650472 L463.280667,53.0147601 L445.84973,53.0147601 L460.233416,4.35955299 C460.66388,2.90258975 459.64703,1.43159874 458.192902,1.34378566 L458.055327,1.3396481 L454.045568,1.3396481 L458.930711,-15.1771218 L478.174648,-15.1771218 Z M514.22973,19.4278081 L514.22973,53.0138081 L509.562962,53.0147601 C507.390971,53.0147601 505.62973,51.2053747 505.62973,48.9740123 C505.62973,48.8191454 505.642638,48.6699617 505.661692,48.5226723 L505.694039,48.3026856 L514.22973,19.4278081 Z M270.42973,-15.1771218 L249.406242,53.0147601 L231.22973,53.0147601 L252.248891,-15.1771218 L270.42973,-15.1771218 Z M293.934648,-15.1771218 C296.108589,-15.1771218 297.86973,-13.3677363 297.86973,-11.136374 C297.86973,-10.981507 297.856822,-10.8323233 297.837769,-10.685034 L297.805424,-10.4650472 L279.040667,53.0147601 L261.60973,53.0147601 L275.993416,4.35955299 C276.42388,2.90258975 275.40703,1.43159874 273.952902,1.34378566 L273.815327,1.3396481 L269.805568,1.3396481 L274.690711,-15.1771218 L293.934648,-15.1771218 Z M357.64973,-15.1771218 L343.26522,33.4780854 C342.836744,34.9350486 343.851762,36.4060396 345.307749,36.4938527 L345.445509,36.4979903 L349.455497,36.4979903 L344.570074,53.0147601 L325.322962,53.0147601 C323.150971,53.0147601 321.38973,51.2053747 321.38973,48.9740123 C321.38973,48.8191454 321.402638,48.6699617 321.421692,48.5226723 L321.454039,48.3026856 L340.21987,-15.1771218 L357.64973,-15.1771218 Z M327.256498,-16.1512915 C329.428488,-16.1512915 331.18973,-14.341906 331.18973,-12.1105437 C331.18973,-11.9556768 331.176822,-11.806493 331.157767,-11.6592037 L331.125421,-11.4392169 L312.35959,52.0405904 L294.92973,52.0405904 L309.314239,3.38538325 C309.742716,1.92842 308.727698,0.457428999 307.271711,0.36961592 L307.133951,0.365478363 L303.123963,0.365478363 L308.009385,-16.1512915 L327.256498,-16.1512915 Z M421.34973,-16.1512915 L400.330569,52.0405904 L382.14973,52.0405904 L403.173218,-16.1512915 L421.34973,-16.1512915 Z M390.96973,-16.1512915 L376.586043,32.5039156 C376.15558,33.9608789 377.172429,35.4318699 378.626558,35.519683 L378.764133,35.5238205 L382.773891,35.5238205 L377.888748,52.0405904 L358.644811,52.0405904 C356.47087,52.0405904 354.70973,50.2312049 354.70973,47.9998426 C354.70973,47.8449757 354.722637,47.6957919 354.74169,47.5485026 L354.774035,47.3285158 L373.538793,-16.1512915 L390.96973,-16.1512915 Z M509.536498,-16.1512915 C511.708488,-16.1512915 513.46973,-14.341906 513.46973,-12.1105437 C513.46973,-11.9556768 513.456822,-11.806493 513.437767,-11.6592037 L513.405421,-11.4392169 L494.63959,52.0405904 L477.20973,52.0405904 L491.594239,3.38538325 C492.022716,1.92842 491.007698,0.457428999 489.551711,0.36961592 L489.413951,0.365478363 L485.403963,0.365478363 L490.289385,-16.1512915 L509.536498,-16.1512915 Z M347.84973,-90.1881919 L326.826242,-21.99631 L308.64973,-21.99631 L329.668891,-90.1881919 L347.84973,-90.1881919 Z M373.314648,-90.1881919 C375.488589,-90.1881919 377.24973,-88.3788064 377.24973,-86.1474441 C377.24973,-85.9925771 377.236822,-85.8433934 377.217769,-85.6961041 L377.185424,-85.4761173 L358.420667,-21.99631 L340.98973,-21.99631 L355.373416,-70.6515171 C355.80388,-72.1084804 354.78703,-73.5794714 353.332902,-73.6672844 L353.195327,-73.671422 L349.185568,-73.671422 L354.070711,-90.1881919 L373.314648,-90.1881919 Z M437.02973,-90.1881919 L422.64522,-41.5329847 C422.216744,-40.0760215 423.231762,-38.6050305 424.687749,-38.5172174 L424.825509,-38.5130798 L428.835497,-38.5130798 L423.950074,-21.99631 L404.702962,-21.99631 C402.530971,-21.99631 400.76973,-23.8056955 400.76973,-26.0370578 C400.76973,-26.1919247 400.782638,-26.3411084 400.801692,-26.4883978 L400.834039,-26.7083846 L419.59987,-90.1881919 L437.02973,-90.1881919 Z M404.676498,-90.1881919 C406.848488,-90.1881919 408.60973,-88.3788064 408.60973,-86.1474441 C408.60973,-85.9925771 408.596822,-85.8433934 408.577767,-85.6961041 L408.545421,-85.4761173 L389.77959,-21.99631 L372.34973,-21.99631 L386.734239,-70.6515171 C387.162716,-72.1084804 386.147698,-73.5794714 384.691711,-73.6672844 L384.553951,-73.671422 L380.543963,-73.671422 L385.429385,-90.1881919 L404.676498,-90.1881919 Z M468.38973,-90.1881919 L454.006043,-41.5329847 C453.57558,-40.0760215 454.592429,-38.6050305 456.046558,-38.5172174 L456.184133,-38.5130798 L460.193891,-38.5130798 L455.308748,-21.99631 L436.064811,-21.99631 C433.89087,-21.99631 432.12973,-23.8056955 432.12973,-26.0370578 C432.12973,-26.1919247 432.142637,-26.3411084 432.16169,-26.4883978 L432.194035,-26.7083846 L450.958793,-90.1881919 L468.38973,-90.1881919 Z M500.72973,-90.1881919 L479.710569,-21.99631 L461.52973,-21.99631 L482.553218,-90.1881919 L500.72973,-90.1881919 Z" id="Combined-Shape"></path>
            </g>
        </g>
    </g>
</svg>