<?xml version="1.0" encoding="UTF-8"?>
<svg width="120px" height="118px" viewBox="0 0 120 118" version="1.1" xmlns="http://www.w3.org/2000/svg" xmlns:xlink="http://www.w3.org/1999/xlink">
    <title>Combined Shape</title>
    <g id="Page-1" stroke="none" stroke-width="1" fill="none" fill-rule="evenodd" opacity="0.645154391">
        <g id="Free-Market---All-(No-Player-Dropped)" transform="translate(-432.000000, -96.000000)" fill="#3740A7">
            <g id="Left-Widget" transform="translate(119.000000, 88.000000)">
                <path d="M356.528889,89.5793358 L345.278224,126 L335.551111,126 L346.79946,89.5793358 L356.528889,89.5793358 Z M369.631929,89.5793358 C370.795308,89.5793358 371.737778,90.5457121 371.737778,91.7374625 C371.737778,91.8201755 371.73087,91.8998532 371.720674,91.978519 L371.703365,92.096012 L361.661454,126 L352.333333,126 L360.030726,100.013696 C360.261087,99.2355454 359.716923,98.4499024 358.93875,98.4030023 L358.865127,98.4007924 L356.719315,98.4007924 L359.333587,89.5793358 L369.631929,89.5793358 Z M403.728889,89.5793358 L396.031056,115.56564 C395.801758,116.34379 396.344942,117.129433 397.12411,117.176334 L397.197832,117.178543 L399.343766,117.178543 L396.729345,126 L386.429303,126 C385.266968,126 384.324444,125.033624 384.324444,123.841873 C384.324444,123.75916 384.331352,123.679483 384.341549,123.600817 L384.358859,123.483324 L394.401345,89.5793358 L403.728889,89.5793358 Z M438.342222,89.5793358 L427.093873,126 L417.364444,126 L428.615109,89.5793358 L438.342222,89.5793358 Z M421.035556,89.5793358 L413.338163,115.56564 C413.107802,116.34379 413.651966,117.129433 414.430139,117.176334 L414.503762,117.178543 L416.649574,117.178543 L414.035302,126 L403.73696,126 C402.573581,126 401.631111,125.033624 401.631111,123.841873 C401.631111,123.75916 401.638018,123.679483 401.648215,123.600817 L401.665524,123.483324 L411.707435,89.5793358 L421.035556,89.5793358 Z M386.939586,89.5793358 C388.101921,89.5793358 389.044444,90.5457121 389.044444,91.7374625 C389.044444,91.8201755 389.037537,91.8998532 389.02734,91.978519 L389.01003,92.096012 L378.967544,126 L369.64,126 L377.337833,100.013696 C377.567131,99.2355454 377.023947,98.4499024 376.244779,98.4030023 L376.171057,98.4007924 L374.025123,98.4007924 L376.639544,89.5793358 L386.939586,89.5793358 Z M431.524444,48.99631 L420.27378,85.4169742 L410.546667,85.4169742 L421.795016,48.99631 L431.524444,48.99631 Z M445.151929,48.99631 C446.315308,48.99631 447.257778,49.9626863 447.257778,51.1544366 C447.257778,51.2371497 447.25087,51.3168273 447.240674,51.3954932 L447.223365,51.5129862 L437.181454,85.4169742 L427.853333,85.4169742 L435.550726,59.4306703 C435.781087,58.6525195 435.236923,57.8668766 434.45875,57.8199764 L434.385127,57.8177666 L432.239315,57.8177666 L434.853587,48.99631 L445.151929,48.99631 Z M464,68.985 L464,85.416 L461.949303,85.4169742 C460.786968,85.4169742 459.844444,84.4505978 459.844444,83.2588475 C459.844444,83.1761345 459.851352,83.0964568 459.861549,83.0177909 L459.878859,82.900298 L464,68.985 Z M333.977778,48.99631 L322.727113,85.4169742 L313,85.4169742 L324.248349,48.99631 L333.977778,48.99631 Z M346.556374,48.99631 C347.719752,48.99631 348.662222,49.9626863 348.662222,51.1544366 C348.662222,51.2371497 348.655315,51.3168273 348.645119,51.3954932 L348.627809,51.5129862 L338.585898,85.4169742 L329.257778,85.4169742 L336.95517,59.4306703 C337.185531,58.6525195 336.641367,57.8668766 335.863194,57.8199764 L335.789571,57.8177666 L333.643759,57.8177666 L336.258031,48.99631 L346.556374,48.99631 Z M380.653333,48.99631 L372.955501,74.9826138 C372.726203,75.7607646 373.269387,76.5464075 374.048554,76.5933077 L374.122276,76.5955175 L376.268211,76.5955175 L373.65379,85.4169742 L363.353748,85.4169742 C362.191413,85.4169742 361.248889,84.4505978 361.248889,83.2588475 C361.248889,83.1761345 361.255797,83.0964568 361.265994,83.0177909 L361.283304,82.900298 L371.325789,48.99631 L380.653333,48.99631 Z M364.388475,48.4760148 C365.55081,48.4760148 366.493333,49.4423911 366.493333,50.6341414 C366.493333,50.7168545 366.486426,50.7965321 366.476229,50.875198 L366.458918,50.992691 L356.416433,84.896679 L347.088889,84.896679 L354.786722,58.9103751 C355.01602,58.1322243 354.472836,57.3465814 353.693668,57.2996812 L353.619946,57.2974714 L351.474011,57.2974714 L354.088433,48.4760148 L364.388475,48.4760148 Z M414.742222,48.4760148 L403.493873,84.896679 L393.764444,84.896679 L405.015109,48.4760148 L414.742222,48.4760148 Z M398.484444,48.4760148 L390.787052,74.4623186 C390.556691,75.2404694 391.100855,76.0261123 391.879028,76.0730125 L391.952651,76.0752223 L394.098463,76.0752223 L391.484191,84.896679 L381.185849,84.896679 C380.02247,84.896679 379.08,83.9303026 379.08,82.7385523 C379.08,82.6558393 379.086907,82.5761616 379.097104,82.4974957 L379.114413,82.3800028 L389.156324,48.4760148 L398.484444,48.4760148 Z M461.935141,48.4760148 C462.959526,48.4760148 463.813179,49.2266167 464.001379,50.2205792 L464,51.009 L453.9631,84.896679 L444.635556,84.896679 L452.333388,58.9103751 C452.562686,58.1322243 452.019502,57.3465814 451.240335,57.2996812 L451.166613,57.2974714 L449.020678,57.2974714 L451.635099,48.4760148 L461.935141,48.4760148 Z M375.408889,8.93357934 L364.158224,45.3542435 L354.431111,45.3542435 L365.67946,8.93357934 L375.408889,8.93357934 Z M389.036374,8.93357934 C390.199752,8.93357934 391.142222,9.89995568 391.142222,11.091706 C391.142222,11.174419 391.135315,11.2540967 391.125119,11.3327626 L391.107809,11.4502555 L381.065898,45.3542435 L371.737778,45.3542435 L379.43517,19.3679397 C379.665531,18.5897889 379.121367,17.804146 378.343194,17.7572458 L378.269571,17.755036 L376.123759,17.755036 L378.738031,8.93357934 L389.036374,8.93357934 Z M423.133333,8.93357934 L415.435501,34.9198832 C415.206203,35.698034 415.749387,36.4836769 416.528554,36.5305771 L416.602276,36.5327869 L418.748211,36.5327869 L416.13379,45.3542435 L405.833748,45.3542435 C404.671413,45.3542435 403.728889,44.3878672 403.728889,43.1961169 C403.728889,43.1134039 403.735797,43.0337262 403.745994,42.9550603 L403.763304,42.8375673 L413.805789,8.93357934 L423.133333,8.93357934 Z M405.819586,8.93357934 C406.981921,8.93357934 407.924444,9.89995568 407.924444,11.091706 C407.924444,11.174419 407.917537,11.2540967 407.90734,11.3327626 L407.89003,11.4502555 L397.847544,45.3542435 L388.52,45.3542435 L396.217833,19.3679397 C396.447131,18.5897889 395.903947,17.804146 395.124779,17.7572458 L395.051057,17.755036 L392.905123,17.755036 L395.519544,8.93357934 L405.819586,8.93357934 Z M439.915556,8.93357934 L432.218163,34.9198832 C431.987802,35.698034 432.531966,36.4836769 433.310139,36.5305771 L433.383762,36.5327869 L435.529574,36.5327869 L432.915302,45.3542435 L422.61696,45.3542435 C421.453581,45.3542435 420.511111,44.3878672 420.511111,43.1961169 C420.511111,43.1134039 420.518018,43.0337262 420.528215,42.9550603 L420.545524,42.8375673 L430.587435,8.93357934 L439.915556,8.93357934 Z M457.222222,8.93357934 L445.973873,45.3542435 L436.244444,45.3542435 L447.495109,8.93357934 L457.222222,8.93357934 Z M454.575,-41 L453.963676,-38.9335793 L444.635556,-38.9335793 L445.247,-41 L454.575,-41 Z M438.742,-41 L438.104891,-38.9335793 L428.377778,-38.9335793 L429.015,-41 L438.742,-41 Z M464,-41 L464,-38.934 L461.942222,-38.9335793 L462.554,-41 L464,-41 Z" id="Combined-Shape"></path>
            </g>
        </g>
    </g>
</svg>