<?xml version="1.0" encoding="UTF-8"?>
<svg width="11px" height="11px" viewBox="0 0 11 11" version="1.1" xmlns="http://www.w3.org/2000/svg" xmlns:xlink="http://www.w3.org/1999/xlink">
    <title>Group 16</title>
    <g id="Page-1" stroke="none" stroke-width="1" fill="none" fill-rule="evenodd">
        <g id="Free-Market---Confirm-Transfers-(Too-Many-Forwards-Error)" transform="translate(-509.000000, -398.000000)" fill="#55C77C" fill-rule="nonzero">
            <g id="Group-16" transform="translate(509.000000, 398.000000)">
                <path d="M9.20021063,10.4792786 L5.60493473,10.4792786 C4.09461976,10.4792786 2.86575324,9.25041195 2.86575324,7.74009709 L2.86575324,1.09375 C2.86575324,0.489730828 3.35548407,5.22248911e-14 3.95950324,5.22248911e-14 C4.56352241,5.22248911e-14 5.05325324,0.489730828 5.05325324,1.09375 L5.05325324,7.74009709 C5.05325324,8.04450992 5.3005219,8.29177858 5.60493473,8.29177858 L9.20021063,8.29177858 C9.8042298,8.29177858 10.2939606,8.78150941 10.2939606,9.38552858 C10.2939606,9.98954775 9.8042298,10.4792786 9.20021063,10.4792786 Z" id="Path"></path>
                <path d="M6.8257904,5.05378727 C6.54594418,5.05378727 6.26609796,4.94697569 6.05247491,4.73335264 L3.95950324,2.64038086 L1.86706543,4.73335264 C1.43981934,5.16059873 0.747680664,5.16059873 0.32043457,4.73335264 C-0.106811523,4.30664062 -0.106811523,3.61396787 0.32043457,3.18672178 L3.18618776,0.320434516 C3.59634401,-0.0897217344 4.32266237,-0.0897217344 4.73281862,0.320434516 L7.59910588,3.18672178 C8.02635198,3.61396787 8.02635198,4.30610655 7.59910588,4.73335264 C7.38548284,4.94697569 7.10563662,5.05378727 6.8257904,5.05378727 Z" id="Path"></path>
            </g>
        </g>
    </g>
</svg>