<?xml version="1.0" encoding="UTF-8"?>
<svg width="11px" height="11px" viewBox="0 0 11 11" version="1.1" xmlns="http://www.w3.org/2000/svg" xmlns:xlink="http://www.w3.org/1999/xlink">
    <title>Group 14 Copy 11</title>
    <g id="Page-1" stroke="none" stroke-width="1" fill="none" fill-rule="evenodd">
        <g id="Free-Market---Confirm-Transfers-(Too-Many-Forwards-Error)" transform="translate(-738.000000, -399.000000)" fill="#F86364" fill-rule="nonzero">
            <g id="Group-14-Copy-11" transform="translate(738.000000, 399.000000)">
                <path d="M6.33445739,10.4792786 C5.73043822,10.4792786 5.24070739,9.98954775 5.24070739,9.38552858 L5.24070739,2.73918148 C5.24070739,2.43476866 4.99343873,2.1875 4.68902591,2.1875 L1.09375,2.1875 C0.489730828,2.1875 -2.54907206e-14,1.69776917 -2.54907206e-14,1.09375 C-2.54907206e-14,0.489730828 0.489730828,5.22248911e-14 1.09375,5.22248911e-14 L4.68902591,5.22248911e-14 C6.19934087,5.22248911e-14 7.42820739,1.22886663 7.42820739,2.73918148 L7.42820739,9.38552858 C7.42820739,9.98954775 6.93847656,10.4792786 6.33445739,10.4792786 Z" id="Path"></path>
                <path d="M6.33445739,10.4792786 C6.04446412,10.4792786 5.76622003,10.3639221 5.56114191,10.158844 L2.69485464,7.29255669 C2.26760855,6.86531059 2.26760855,6.17317192 2.69485464,5.74592583 C3.12210073,5.31867973 3.81423941,5.31867973 4.2414855,5.74592583 L6.33445728,7.83889761 L8.42689498,5.74592583 C8.85414108,5.31867973 9.54627975,5.31867973 9.97352584,5.74592583 C10.4007719,6.17263784 10.4007719,6.86531059 9.97352584,7.29255669 L7.10777266,10.158844 C6.90269475,10.3639222 6.62445066,10.4792786 6.33445739,10.4792786 Z" id="Path"></path>
            </g>
        </g>
    </g>
</svg>