<?xml version="1.0" encoding="UTF-8"?>
<svg width="76px" height="25px" viewBox="0 0 76 25" version="1.1" xmlns="http://www.w3.org/2000/svg" xmlns:xlink="http://www.w3.org/1999/xlink">
    <title>Shape</title>
    <g id="Page-1" stroke="none" stroke-width="1" fill="none" fill-rule="evenodd" opacity="0.049999997">
        <g id="Free-Market---Available-(No-Player-Dropped)" transform="translate(-314.000000, -757.000000)" fill="#F3F2F6" fill-rule="nonzero">
            <g id="Group-16" transform="translate(339.000000, 738.500000) rotate(90.000000) translate(-339.000000, -738.500000) translate(280.000000, 613.000000)">
                <g id="Shape" transform="translate(82.500000, 150.000000) rotate(-90.000000) translate(-82.500000, -150.000000) translate(7.000000, 130.000000)">
                    <path d="M94.7883212,44 L90.0593674,57 L85.9708029,57 L90.6987835,44 L94.7883212,44 Z M101.546737,44 C102.075385,44 102.50365,44.3449386 102.50365,44.7703222 C102.50365,44.7998458 102.500511,44.828286 102.495878,44.856365 L102.488012,44.898303 L97.924896,57 L93.6861314,57 L97.1838815,47.7244429 C97.2885593,47.4466896 97.0412872,47.166262 96.6876798,47.1495215 L96.654225,47.1487327 L95.6791528,47.1487327 L96.8670965,44 L101.546737,44 Z M116.832117,44 L113.334167,53.2755571 C113.229972,53.5533104 113.476799,53.833738 113.830858,53.8504785 L113.864358,53.8512673 L114.839486,53.8512673 L113.651474,57 L108.971061,57 C108.442888,57 108.014599,56.6550614 108.014599,56.2296778 C108.014599,56.2001542 108.017737,56.171714 108.022371,56.143635 L108.030237,56.101697 L112.593614,44 L116.832117,44 Z M132.262774,44 L127.534793,57 L123.445255,57 L128.174209,44 L132.262774,44 Z M125.649635,44 L122.151885,53.2755571 C122.047207,53.5533104 122.294479,53.833738 122.648087,53.8504785 L122.681541,53.8512673 L123.656614,53.8512673 L122.46867,57 L117.789029,57 C117.260382,57 116.832117,56.6550614 116.832117,56.2296778 C116.832117,56.2001542 116.835256,56.171714 116.839889,56.143635 L116.847754,56.101697 L121.41087,44 L125.649635,44 Z M109.262515,44 C109.790689,44 110.218978,44.3449386 110.218978,44.7703222 C110.218978,44.7998458 110.215839,44.828286 110.211206,44.856365 L110.20334,44.898303 L105.639963,57 L101.40146,57 L104.89941,47.7244429 C105.003605,47.4466896 104.756778,47.166262 104.402719,47.1495215 L104.369219,47.1487327 L103.394091,47.1487327 L104.582103,44 L109.262515,44 Z M130.058394,29 L125.32944,42 L121.240876,42 L125.968856,29 L130.058394,29 Z M136.81681,29 C137.345458,29 137.773723,29.3449386 137.773723,29.7703222 C137.773723,29.7998458 137.770584,29.828286 137.765951,29.856365 L137.758085,29.898303 L133.194969,42 L128.956204,42 L132.453954,32.7244429 C132.558632,32.4466896 132.31136,32.166262 131.957753,32.1495215 L131.924298,32.1487327 L130.949226,32.1487327 L132.137169,29 L136.81681,29 Z M152.10219,29 L148.60424,38.2755571 C148.500045,38.5533104 148.746872,38.833738 149.100931,38.8504785 L149.134431,38.8512673 L150.109559,38.8512673 L148.921547,42 L144.241134,42 C143.712961,42 143.284672,41.6550614 143.284672,41.2296778 C143.284672,41.2001542 143.28781,41.171714 143.292444,41.143635 L143.30031,41.101697 L147.863687,29 L152.10219,29 Z M83.7664234,29 L79.0374696,42 L74.9489051,42 L79.6768856,29 L83.7664234,29 Z M90.5248392,29 C91.0534868,29 91.4817518,29.3449386 91.4817518,29.7703222 C91.4817518,29.7998458 91.4786131,29.828286 91.4739798,29.856365 L91.4661143,29.898303 L86.9029982,42 L82.6642336,42 L86.1619837,32.7244429 C86.2666615,32.4466896 86.0193894,32.166262 85.665782,32.1495215 L85.6323272,32.1487327 L84.657255,32.1487327 L85.8451987,29 L90.5248392,29 Z M105.810219,29 L102.312269,38.2755571 C102.208074,38.5533104 102.454901,38.833738 102.80896,38.8504785 L102.84246,38.8512673 L103.817588,38.8512673 L102.629576,42 L97.9491636,42 C97.4209902,42 96.9927007,41.6550614 96.9927007,41.2296778 C96.9927007,41.2001542 96.9958396,41.171714 97.0004732,41.143635 L97.0083391,41.101697 L101.571716,29 L105.810219,29 Z M98.2406174,29 C98.7687908,29 99.1970803,29.3449386 99.1970803,29.7703222 C99.1970803,29.7998458 99.1939414,29.828286 99.1893078,29.856365 L99.1814419,29.898303 L94.6180647,42 L90.379562,42 L93.8775122,32.7244429 C93.9817069,32.4466896 93.7348802,32.166262 93.3808209,32.1495215 L93.3473211,32.1487327 L92.3721931,32.1487327 L93.5602047,29 L98.2406174,29 Z M121.240876,29 L116.512895,42 L112.423358,42 L117.152311,29 L121.240876,29 Z M113.525547,29 L110.027797,38.2755571 C109.92312,38.5533104 110.170392,38.833738 110.523999,38.8504785 L110.557454,38.8512673 L111.532526,38.8512673 L110.344582,42 L105.664942,42 C105.136294,42 104.708029,41.6550614 104.708029,41.2296778 C104.708029,41.2001542 104.711168,41.171714 104.715801,41.143635 L104.723667,41.101697 L109.286783,29 L113.525547,29 Z M144.532588,29 C145.060762,29 145.489051,29.3449386 145.489051,29.7703222 C145.489051,29.7998458 145.485912,29.828286 145.481279,29.856365 L145.473413,29.898303 L140.910036,42 L136.671533,42 L140.169483,32.7244429 C140.273678,32.4466896 140.026851,32.166262 139.672792,32.1495215 L139.639292,32.1487327 L138.664164,32.1487327 L139.852176,29 L144.532588,29 Z M167.532847,29 L162.804866,42 L158.715328,42 L163.444282,29 L167.532847,29 Z M159.817518,29 L156.319768,38.2755571 C156.21509,38.5533104 156.462362,38.833738 156.81597,38.8504785 L156.849425,38.8512673 L157.824497,38.8512673 L156.636553,42 L151.956913,42 C151.428265,42 151,41.6550614 151,41.2296778 C151,41.2001542 151.003139,41.171714 151.007772,41.143635 L151.015638,41.101697 L155.578754,29 L159.817518,29 Z M103.605839,15 L98.8768856,28 L94.7883212,28 L99.5163017,15 L103.605839,15 Z M110.364255,15 C110.892903,15 111.321168,15.3449386 111.321168,15.7703222 C111.321168,15.7998458 111.318029,15.828286 111.313396,15.856365 L111.30553,15.898303 L106.742414,28 L102.50365,28 L106.0014,18.7244429 C106.106078,18.4466896 105.858805,18.166262 105.505198,18.1495215 L105.471743,18.1487327 L104.496671,18.1487327 L105.684615,15 L110.364255,15 Z M125.649635,15 L122.151685,24.2755571 C122.04749,24.5533104 122.294317,24.833738 122.648376,24.8504785 L122.681876,24.8512673 L123.657004,24.8512673 L122.468992,28 L117.78858,28 C117.260406,28 116.832117,27.6550614 116.832117,27.2296778 C116.832117,27.2001542 116.835256,27.171714 116.839889,27.143635 L116.847755,27.101697 L121.411132,15 L125.649635,15 Z M118.080033,15 C118.608207,15 119.036496,15.3449386 119.036496,15.7703222 C119.036496,15.7998458 119.033357,15.828286 119.028724,15.856365 L119.020858,15.898303 L114.457481,28 L110.218978,28 L113.716928,18.7244429 C113.821123,18.4466896 113.574296,18.166262 113.220237,18.1495215 L113.186737,18.1487327 L112.211609,18.1487327 L113.399621,15 L118.080033,15 Z M133.364964,15 L129.867213,24.2755571 C129.762536,24.5533104 130.009808,24.833738 130.363415,24.8504785 L130.39687,24.8512673 L131.371942,24.8512673 L130.183998,28 L125.504358,28 C124.97571,28 124.547445,27.6550614 124.547445,27.2296778 C124.547445,27.2001542 124.550584,27.171714 124.555217,27.143635 L124.563083,27.101697 L129.126199,15 L133.364964,15 Z M141.080292,15 L136.352311,28 L132.262774,28 L136.991727,15 L141.080292,15 Z"></path>
                </g>
            </g>
        </g>
    </g>
</svg>