<?xml version="1.0" encoding="UTF-8"?>
<svg width="12px" height="11px" viewBox="0 0 12 11" version="1.1" xmlns="http://www.w3.org/2000/svg" xmlns:xlink="http://www.w3.org/1999/xlink">
    <title>noun_Reverse_1746092</title>
    <g id="Page-1" stroke="none" stroke-width="1" fill="none" fill-rule="evenodd">
        <g id="Free-Market---All-(2-Players-Dropped)" transform="translate(-1317.000000, -555.000000)" fill="#5159B6" fill-rule="nonzero">
            <g id="Slide-Out---My-Squad" transform="translate(1031.000000, 0.000000)">
                <g id="Drop-Buttons" transform="translate(261.000000, 192.000000)">
                    <g id="Group-29" transform="translate(0.000000, 353.000000)">
                        <g id="noun_Reverse_1746092" transform="translate(25.000000, 10.000000)">
                            <path d="M0,2.78832332 L2.87659306,0 L3.79817967,0.893318097 L2.49483768,2.15665491 L7.43830305,2.15665491 C9.95766311,2.15665491 12,4.13630371 12,6.57832114 C12,9.02035121 9.95766311,11 7.43830305,11 L1.57325108,11 L1.57325108,9.73666318 L7.43830305,9.73666318 C9.2378925,9.73666318 10.696658,8.32261028 10.696658,6.57832114 C10.696658,4.83402568 9.2378925,3.41999173 7.43830305,3.41999173 L2.49483768,3.41999173 L3.79817967,4.68332855 L2.87659306,5.57664033 L0,2.78832332 Z" id="Path"></path>
                        </g>
                    </g>
                </g>
            </g>
        </g>
    </g>
</svg>