<?xml version="1.0" encoding="UTF-8"?>
<svg width="144px" height="67px" viewBox="0 0 144 67" version="1.1" xmlns="http://www.w3.org/2000/svg" xmlns:xlink="http://www.w3.org/1999/xlink">
    <title>Combined Shape</title>
    <g id="Page-1" stroke="none" stroke-width="1" fill="none" fill-rule="evenodd" opacity="0.645154391">
        <g id="Free-Market---View-My-Squad-(Extra-Position-Error)" transform="translate(-1215.000000, -74.000000)" fill="#3740A7">
            <g id="Group-3" transform="translate(1031.000000, 0.000000)">
                <g id="Squad-Value-Widget" transform="translate(8.000000, 74.000000)">
                    <g id="Combined-Shape">
                        <path d="M219.528889,73.5793358 L208.278224,110 L198.551111,110 L209.79946,73.5793358 L219.528889,73.5793358 Z M232.631929,73.5793358 C233.795308,73.5793358 234.737778,74.5457121 234.737778,75.7374625 C234.737778,75.8201755 234.73087,75.8998532 234.720674,75.978519 L234.703365,76.096012 L224.661454,110 L215.333333,110 L223.030726,84.0136962 C223.261087,83.2355454 222.716923,82.4499024 221.93875,82.4030023 L221.865127,82.4007924 L219.719315,82.4007924 L222.333587,73.5793358 L232.631929,73.5793358 Z M266.728889,73.5793358 L259.031056,99.5656396 C258.801758,100.34379 259.344942,101.129433 260.12411,101.176334 L260.197832,101.178543 L262.343766,101.178543 L259.729345,110 L249.429303,110 C248.266968,110 247.324444,109.033624 247.324444,107.841873 C247.324444,107.75916 247.331352,107.679483 247.341549,107.600817 L247.358859,107.483324 L257.401345,73.5793358 L266.728889,73.5793358 Z M301.342222,73.5793358 L290.093873,110 L280.364444,110 L291.615109,73.5793358 L301.342222,73.5793358 Z M284.035556,73.5793358 L276.338163,99.5656396 C276.107802,100.34379 276.651966,101.129433 277.430139,101.176334 L277.503762,101.178543 L279.649574,101.178543 L277.035302,110 L266.73696,110 C265.573581,110 264.631111,109.033624 264.631111,107.841873 C264.631111,107.75916 264.638018,107.679483 264.648215,107.600817 L264.665524,107.483324 L274.707435,73.5793358 L284.035556,73.5793358 Z M249.939586,73.5793358 C251.101921,73.5793358 252.044444,74.5457121 252.044444,75.7374625 C252.044444,75.8201755 252.037537,75.8998532 252.02734,75.978519 L252.01003,76.096012 L241.967544,110 L232.64,110 L240.337833,84.0136962 C240.567131,83.2355454 240.023947,82.4499024 239.244779,82.4030023 L239.171057,82.4007924 L237.025123,82.4007924 L239.639544,73.5793358 L249.939586,73.5793358 Z M294.524444,32.99631 L283.27378,69.4169742 L273.546667,69.4169742 L284.795016,32.99631 L294.524444,32.99631 Z M308.151929,32.99631 C309.315308,32.99631 310.257778,33.9626863 310.257778,35.1544366 C310.257778,35.2371497 310.25087,35.3168273 310.240674,35.3954932 L310.223365,35.5129862 L300.181454,69.4169742 L290.853333,69.4169742 L298.550726,43.4306703 C298.781087,42.6525195 298.236923,41.8668766 297.45875,41.8199764 L297.385127,41.8177666 L295.239315,41.8177666 L297.853587,32.99631 L308.151929,32.99631 Z M327,52.985 L327,69.416 L324.949303,69.4169742 C323.786968,69.4169742 322.844444,68.4505978 322.844444,67.2588475 C322.844444,67.1761345 322.851352,67.0964568 322.861549,67.0177909 L322.878859,66.900298 L327,52.985 Z M196.977778,32.99631 L185.727113,69.4169742 L176,69.4169742 L187.248349,32.99631 L196.977778,32.99631 Z M209.556374,32.99631 C210.719752,32.99631 211.662222,33.9626863 211.662222,35.1544366 C211.662222,35.2371497 211.655315,35.3168273 211.645119,35.3954932 L211.627809,35.5129862 L201.585898,69.4169742 L192.257778,69.4169742 L199.95517,43.4306703 C200.185531,42.6525195 199.641367,41.8668766 198.863194,41.8199764 L198.789571,41.8177666 L196.643759,41.8177666 L199.258031,32.99631 L209.556374,32.99631 Z M243.653333,32.99631 L235.955501,58.9826138 C235.726203,59.7607646 236.269387,60.5464075 237.048554,60.5933077 L237.122276,60.5955175 L239.268211,60.5955175 L236.65379,69.4169742 L226.353748,69.4169742 C225.191413,69.4169742 224.248889,68.4505978 224.248889,67.2588475 C224.248889,67.1761345 224.255797,67.0964568 224.265994,67.0177909 L224.283304,66.900298 L234.325789,32.99631 L243.653333,32.99631 Z M227.388475,32.4760148 C228.55081,32.4760148 229.493333,33.4423911 229.493333,34.6341414 C229.493333,34.7168545 229.486426,34.7965321 229.476229,34.875198 L229.458918,34.992691 L219.416433,68.896679 L210.088889,68.896679 L217.786722,42.9103751 C218.01602,42.1322243 217.472836,41.3465814 216.693668,41.2996812 L216.619946,41.2974714 L214.474011,41.2974714 L217.088433,32.4760148 L227.388475,32.4760148 Z M277.742222,32.4760148 L266.493873,68.896679 L256.764444,68.896679 L268.015109,32.4760148 L277.742222,32.4760148 Z M261.484444,32.4760148 L253.787052,58.4623186 C253.556691,59.2404694 254.100855,60.0261123 254.879028,60.0730125 L254.952651,60.0752223 L257.098463,60.0752223 L254.484191,68.896679 L244.185849,68.896679 C243.02247,68.896679 242.08,67.9303026 242.08,66.7385523 C242.08,66.6558393 242.086907,66.5761616 242.097104,66.4974957 L242.114413,66.3800028 L252.156324,32.4760148 L261.484444,32.4760148 Z M324.935141,32.4760148 C325.959526,32.4760148 326.813179,33.2266167 327.001379,34.2205792 L327,35.009 L316.9631,68.896679 L307.635556,68.896679 L315.333388,42.9103751 C315.562686,42.1322243 315.019502,41.3465814 314.240335,41.2996812 L314.166613,41.2974714 L312.020678,41.2974714 L314.635099,32.4760148 L324.935141,32.4760148 Z M238.408889,-7.06642066 L227.158224,29.3542435 L217.431111,29.3542435 L228.67946,-7.06642066 L238.408889,-7.06642066 Z M252.036374,-7.06642066 C253.199752,-7.06642066 254.142222,-6.10004432 254.142222,-4.90829399 C254.142222,-4.82558097 254.135315,-4.7459033 254.125119,-4.66723741 L254.107809,-4.54974446 L244.065898,29.3542435 L234.737778,29.3542435 L242.43517,3.36793972 C242.665531,2.5897889 242.121367,1.80414597 241.343194,1.75724581 L241.269571,1.75503597 L239.123759,1.75503597 L241.738031,-7.06642066 L252.036374,-7.06642066 Z M286.133333,-7.06642066 L278.435501,18.9198832 C278.206203,19.698034 278.749387,20.4836769 279.528554,20.5305771 L279.602276,20.5327869 L281.748211,20.5327869 L279.13379,29.3542435 L268.833748,29.3542435 C267.671413,29.3542435 266.728889,28.3878672 266.728889,27.1961169 C266.728889,27.1134039 266.735797,27.0337262 266.745994,26.9550603 L266.763304,26.8375673 L276.805789,-7.06642066 L286.133333,-7.06642066 Z M268.819586,-7.06642066 C269.981921,-7.06642066 270.924444,-6.10004432 270.924444,-4.90829399 C270.924444,-4.82558097 270.917537,-4.7459033 270.90734,-4.66723741 L270.89003,-4.54974446 L260.847544,29.3542435 L251.52,29.3542435 L259.217833,3.36793972 C259.447131,2.5897889 258.903947,1.80414597 258.124779,1.75724581 L258.051057,1.75503597 L255.905123,1.75503597 L258.519544,-7.06642066 L268.819586,-7.06642066 Z M302.915556,-7.06642066 L295.218163,18.9198832 C294.987802,19.698034 295.531966,20.4836769 296.310139,20.5305771 L296.383762,20.5327869 L298.529574,20.5327869 L295.915302,29.3542435 L285.61696,29.3542435 C284.453581,29.3542435 283.511111,28.3878672 283.511111,27.1961169 C283.511111,27.1134039 283.518018,27.0337262 283.528215,26.9550603 L283.545524,26.8375673 L293.587435,-7.06642066 L302.915556,-7.06642066 Z M320.222222,-7.06642066 L308.973873,29.3542435 L299.244444,29.3542435 L310.495109,-7.06642066 L320.222222,-7.06642066 Z M317.575,-57 L316.963676,-54.9335793 L307.635556,-54.9335793 L308.247,-57 L317.575,-57 Z M301.742,-57 L301.104891,-54.9335793 L291.377778,-54.9335793 L292.015,-57 L301.742,-57 Z M327,-57 L327,-54.934 L324.942222,-54.9335793 L325.554,-57 L327,-57 Z"></path>
                    </g>
                </g>
            </g>
        </g>
    </g>
</svg>