<?xml version="1.0" encoding="UTF-8"?>
<svg width="158px" height="75px" viewBox="0 0 158 75" version="1.1" xmlns="http://www.w3.org/2000/svg" xmlns:xlink="http://www.w3.org/1999/xlink">
    <title>Combined Shape</title>
    <g id="Page-1" stroke="none" stroke-width="1" fill="none" fill-rule="evenodd" opacity="0.645154391">
        <g id="Free-Market---Confirm-Transfers-(Too-Many-Forwards-Error)" transform="translate(-825.000000, -250.000000)" fill="#3740A7">
            <g id="Combined-Shape" transform="translate(473.000000, 234.000000)">
                <path d="M400.693333,97.5793358 L388.107844,134 L377.226667,134 L389.809566,97.5793358 L400.693333,97.5793358 Z M415.350972,97.5793358 C416.652378,97.5793358 417.706667,98.5457121 417.706667,99.7374625 C417.706667,99.8201755 417.69894,99.8998532 417.687534,99.978519 L417.668171,100.096012 L406.434847,134 L396,134 L404.610642,108.013696 C404.868335,107.235545 404.259609,106.449902 403.38911,106.403002 L403.306752,106.400792 L400.906352,106.400792 L403.830792,97.5793358 L415.350972,97.5793358 Z M453.493333,97.5793358 L444.882198,123.56564 C444.625696,124.34379 445.233325,125.129433 446.104936,125.176334 L446.187405,125.178543 L448.587942,125.178543 L445.663335,134 L434.141254,134 C432.841015,134 431.786667,133.033624 431.786667,131.841873 C431.786667,131.75916 431.794394,131.679483 431.805801,131.600817 L431.825165,131.483324 L443.059132,97.5793358 L453.493333,97.5793358 Z M492.213333,97.5793358 L479.630434,134 L468.746667,134 L481.332156,97.5793358 L492.213333,97.5793358 Z M472.853333,97.5793358 L464.242691,123.56564 C463.984999,124.34379 464.593725,125.129433 465.464224,125.176334 L465.546581,125.178543 L467.946981,125.178543 L465.022542,134 L453.502362,134 C452.200955,134 451.146667,133.033624 451.146667,131.841873 C451.146667,131.75916 451.154393,131.679483 451.1658,131.600817 L451.185163,131.483324 L462.418487,97.5793358 L472.853333,97.5793358 Z M434.712079,97.5793358 C436.012318,97.5793358 437.066667,98.5457121 437.066667,99.7374625 C437.066667,99.8201755 437.058939,99.8998532 437.047533,99.978519 L437.028169,100.096012 L425.794202,134 L415.36,134 L423.971135,108.013696 C424.227638,107.235545 423.620008,106.449902 422.748397,106.403002 L422.665928,106.400792 L420.265391,106.400792 L423.189998,97.5793358 L434.712079,97.5793358 Z M484.586667,56.99631 L472.001177,93.4169742 L461.12,93.4169742 L473.702899,56.99631 L484.586667,56.99631 Z M499.830972,56.99631 C501.132378,56.99631 502.186667,57.9626863 502.186667,59.1544366 C502.186667,59.2371497 502.17894,59.3168273 502.167534,59.3954932 L502.148171,59.5129862 L490.914847,93.4169742 L480.48,93.4169742 L489.090642,67.4306703 C489.348335,66.6525195 488.739609,65.8668766 487.86911,65.8199764 L487.786752,65.8177666 L485.386352,65.8177666 L488.310792,56.99631 L499.830972,56.99631 Z M521,76.731 L521,93.416 L518.621254,93.4169742 C517.321015,93.4169742 516.266667,92.4505978 516.266667,91.2588475 C516.266667,91.1761345 516.274394,91.0964568 516.285801,91.0177909 L516.305165,90.900298 L521,76.731 Z M375.466667,56.99631 L362.881177,93.4169742 L352,93.4169742 L364.582899,56.99631 L375.466667,56.99631 Z M389.537638,56.99631 C390.839045,56.99631 391.893333,57.9626863 391.893333,59.1544366 C391.893333,59.2371497 391.885607,59.3168273 391.8742,59.3954932 L391.854837,59.5129862 L380.621513,93.4169742 L370.186667,93.4169742 L378.797309,67.4306703 C379.055001,66.6525195 378.446275,65.8668766 377.575776,65.8199764 L377.493419,65.8177666 L375.093019,65.8177666 L378.017458,56.99631 L389.537638,56.99631 Z M427.68,56.99631 L419.068865,82.9826138 C418.812362,83.7607646 419.419992,84.5464075 420.291603,84.5933077 L420.374072,84.5955175 L422.774609,84.5955175 L419.850002,93.4169742 L408.327921,93.4169742 C407.027682,93.4169742 405.973333,92.4505978 405.973333,91.2588475 C405.973333,91.1761345 405.981061,91.0964568 405.992467,91.0177909 L406.011831,90.900298 L417.245798,56.99631 L427.68,56.99631 Z M409.485412,56.4760148 C410.785651,56.4760148 411.84,57.4423911 411.84,58.6341414 C411.84,58.7168545 411.832273,58.7965321 411.820866,58.875198 L411.801502,58.992691 L400.567535,92.896679 L390.133333,92.896679 L398.744468,66.9103751 C399.000971,66.1322243 398.393341,65.3465814 397.52173,65.2996812 L397.439262,65.2974714 L395.038725,65.2974714 L397.963331,56.4760148 L409.485412,56.4760148 Z M465.813333,56.4760148 L453.230434,92.896679 L442.346667,92.896679 L454.932156,56.4760148 L465.813333,56.4760148 Z M447.626667,56.4760148 L439.016024,82.4623186 C438.758332,83.2404694 439.367058,84.0261123 440.237557,84.0730125 L440.319915,84.0752223 L442.720314,84.0752223 L439.795875,92.896679 L428.275695,92.896679 C426.974288,92.896679 425.92,91.9303026 425.92,90.7385523 C425.92,90.6558393 425.927727,90.5761616 425.939133,90.4974957 L425.958496,90.3800028 L437.19182,56.4760148 L447.626667,56.4760148 Z M518.605412,56.4760148 C519.905651,56.4760148 520.96,57.4423911 520.96,58.6341414 C520.96,58.7168545 520.952273,58.7965321 520.940866,58.875198 L520.921502,58.992691 L509.687535,92.896679 L499.253333,92.896679 L507.864468,66.9103751 C508.120971,66.1322243 507.513341,65.3465814 506.64173,65.2996812 L506.559262,65.2974714 L504.158725,65.2974714 L507.083331,56.4760148 L518.605412,56.4760148 Z M421.813333,16.9335793 L409.227844,53.3542435 L398.346667,53.3542435 L410.929566,16.9335793 L421.813333,16.9335793 Z M437.057638,16.9335793 C438.359045,16.9335793 439.413333,17.8999557 439.413333,19.091706 C439.413333,19.174419 439.405607,19.2540967 439.3942,19.3327626 L439.374837,19.4502555 L428.141513,53.3542435 L417.706667,53.3542435 L426.317309,27.3679397 C426.575001,26.5897889 425.966275,25.804146 425.095776,25.7572458 L425.013419,25.755036 L422.613019,25.755036 L425.537458,16.9335793 L437.057638,16.9335793 Z M475.2,16.9335793 L466.588865,42.9198832 C466.332362,43.698034 466.939992,44.4836769 467.811603,44.5305771 L467.894072,44.5327869 L470.294609,44.5327869 L467.370002,53.3542435 L455.847921,53.3542435 C454.547682,53.3542435 453.493333,52.3878672 453.493333,51.1961169 C453.493333,51.1134039 453.501061,51.0337262 453.512467,50.9550603 L453.531831,50.8375673 L464.765798,16.9335793 L475.2,16.9335793 Z M455.832079,16.9335793 C457.132318,16.9335793 458.186667,17.8999557 458.186667,19.091706 C458.186667,19.174419 458.178939,19.2540967 458.167533,19.3327626 L458.148169,19.4502555 L446.914202,53.3542435 L436.48,53.3542435 L445.091135,27.3679397 C445.347638,26.5897889 444.740008,25.804146 443.868397,25.7572458 L443.785928,25.755036 L441.385391,25.755036 L444.309998,16.9335793 L455.832079,16.9335793 Z M493.973333,16.9335793 L485.362691,42.9198832 C485.104999,43.698034 485.713725,44.4836769 486.584224,44.5305771 L486.666581,44.5327869 L489.066981,44.5327869 L486.142542,53.3542435 L474.622362,53.3542435 C473.320955,53.3542435 472.266667,52.3878672 472.266667,51.1961169 C472.266667,51.1134039 472.274393,51.0337262 472.2858,50.9550603 L472.305163,50.8375673 L483.538487,16.9335793 L493.973333,16.9335793 Z M513.333333,16.9335793 L500.750434,53.3542435 L489.866667,53.3542435 L502.452156,16.9335793 L513.333333,16.9335793 Z M510.373,-33 L509.68818,-30.9335793 L499.253333,-30.9335793 L499.938,-33 L510.373,-33 Z M492.661,-33 L491.947844,-30.9335793 L481.066667,-30.9335793 L481.78,-33 L492.661,-33 Z M521,-33 L521,-30.934 L518.613333,-30.9335793 L519.298,-33 L521,-33 Z"></path>
            </g>
        </g>
    </g>
</svg>