<?xml version="1.0" encoding="UTF-8"?>
<svg width="23px" height="19px" viewBox="0 0 23 19" version="1.1" xmlns="http://www.w3.org/2000/svg" xmlns:xlink="http://www.w3.org/1999/xlink">
    <title>noun_credit cart_3266997</title>
    <g id="Page-1" stroke="none" stroke-width="1" fill="none" fill-rule="evenodd" opacity="0.21875">
        <g id="Billing---Add-CreditCard-Popout" transform="translate(-502.000000, -358.000000)" fill="#000000" fill-rule="nonzero">
            <g id="noun_credit-cart_3266997" transform="translate(502.000000, 358.787879)">
                <path d="M2.56897049,0.212121212 C1.16007199,0.212121212 0,1.37323696 0,2.7834091 L0,4.93879275 L0,7.72646026 L0,14.640836 C0,16.0510055 1.16007199,17.2121212 2.56897049,17.2121212 L20.4380443,17.2121212 C21.8469455,17.2121212 23,16.0510055 23,14.640836 L23,7.72646026 L23,4.93879275 L23,2.7834091 C23,1.37323696 21.8469455,0.212121212 20.4380443,0.212121212 L2.56897049,0.212121212 Z M2.56897049,1.65091884 L20.4380443,1.65091884 C21.0754386,1.65091884 21.5624998,2.14544256 21.5624998,2.7834091 L21.5624998,4.22220401 L1.43750089,4.22220401 L1.43750089,2.7834091 C1.43750089,2.14544256 1.9315762,1.65091884 2.56897049,1.65091884 Z M1.43750089,5.66100164 L21.5624998,5.66100164 L21.5624998,7.00987424 L1.43750089,7.00987424 L1.43750089,5.66100164 Z M1.43750089,8.44866915 L21.5624998,8.44866915 L21.5624998,14.640836 C21.5624998,15.2787999 21.0754386,15.7719206 20.4380443,15.7719206 L2.56897049,15.7719206 C1.9315762,15.7719206 1.43750089,15.2787999 1.43750089,14.640836 L1.43750089,8.44866915 Z M3.48565714,10.4410659 C3.09528116,10.4698846 2.7994526,10.8056286 2.81968649,11.1968942 C2.83992039,11.5881599 3.16880054,11.8915394 3.56006305,11.8798635 L8.5800874,11.8798635 C8.84066699,11.8856402 9.08396082,11.7498011 9.21594523,11.5248426 C9.34792965,11.2998841 9.34792965,11.0210454 9.21594523,10.7960869 C9.08396082,10.5711284 8.84066699,10.4352892 8.5800874,10.4410659 L3.56006305,10.4410659 C3.53527771,10.4397802 3.51044248,10.4397802 3.48565714,10.4410659 L3.48565714,10.4410659 Z M3.56006305,12.5964523 C3.29946788,12.5906508 3.05614873,12.7264842 2.92414914,12.9514524 C2.79214955,13.1764207 2.79214955,13.4552787 2.92414914,13.680247 C3.05614873,13.9052153 3.29946788,14.0410487 3.56006305,14.0352472 L5.70367843,14.0352472 C5.9642736,14.0410487 6.20759274,13.9052153 6.33959234,13.680247 C6.47159193,13.4552787 6.47159193,13.1764207 6.33959234,12.9514524 C6.20759274,12.7264842 5.9642736,12.5906508 5.70367843,12.5964523 L3.56006305,12.5964523 Z" id="Shape"></path>
            </g>
        </g>
    </g>
</svg>