<?xml version="1.0" encoding="UTF-8"?>
<svg width="33px" height="25px" viewBox="0 0 33 25" version="1.1" xmlns="http://www.w3.org/2000/svg" xmlns:xlink="http://www.w3.org/1999/xlink">
    <title>noun_credit cart_3266997</title>
    <g id="Page-1" stroke="none" stroke-width="1" fill="none" fill-rule="evenodd" opacity="0.21875">
        <g id="Billing---PP-Not-Activated" transform="translate(-826.000000, -276.000000)" fill="#000000" fill-rule="nonzero">
            <g id="noun_credit-cart_3266997" transform="translate(826.000000, 276.000000)">
                <path d="M3.68591419,0.875 C1.66445112,0.875 0,2.51422224 0,4.5050535 L0,7.54794806 L0,11.4834787 L0,21.2449503 C0,23.2357778 1.66445112,24.875 3.68591419,24.875 L29.3241505,24.875 C31.3456175,24.875 33,23.2357778 33,21.2449503 L33,11.4834787 L33,7.54794806 L33,4.5050535 C33,2.51422224 31.3456175,0.875 29.3241505,0.875 L3.68591419,0.875 Z M3.68591419,2.90624371 L29.3241505,2.90624371 C30.2386728,2.90624371 30.9374997,3.60439484 30.9374997,4.5050535 L30.9374997,6.53629336 L2.06250128,6.53629336 L2.06250128,4.5050535 C2.06250128,3.60439484 2.77139194,2.90624371 3.68591419,2.90624371 Z M2.06250128,8.56753707 L30.9374997,8.56753707 L30.9374997,10.4718278 L2.06250128,10.4718278 L2.06250128,8.56753707 Z M2.06250128,12.5030677 L30.9374997,12.5030677 L30.9374997,21.2449503 C30.9374997,22.1456052 30.2386728,22.8417756 29.3241505,22.8417756 L3.68591419,22.8417756 C2.77139194,22.8417756 2.06250128,22.1456052 2.06250128,21.2449503 L2.06250128,12.5030677 Z M5.00116024,15.3158631 C4.44105558,15.3565483 4.01660591,15.8305398 4.04563714,16.3829149 C4.07466838,16.9352899 4.54653991,17.3635904 5.10791654,17.3471068 L12.3105602,17.3471068 C12.6844352,17.3552622 13.033509,17.1634892 13.2228779,16.8459007 C13.4122469,16.5283123 13.4122469,16.1346576 13.2228779,15.8170692 C13.033509,15.4994807 12.6844352,15.3077077 12.3105602,15.3158631 L5.10791654,15.3158631 C5.07235497,15.3140481 5.03672182,15.3140481 5.00116024,15.3158631 L5.00116024,15.3158631 Z M5.10791654,18.3587615 C4.73401913,18.3505711 4.38490905,18.5423359 4.19551833,18.8599382 C4.00612761,19.1775405 4.00612761,19.5712224 4.19551833,19.8888247 C4.38490905,20.2064269 4.73401913,20.3981917 5.10791654,20.3900014 L8.18353862,20.3900014 C8.55743603,20.3981917 8.90654611,20.2064269 9.09593683,19.8888247 C9.28532755,19.5712224 9.28532755,19.1775405 9.09593683,18.8599382 C8.90654611,18.5423359 8.55743603,18.3505711 8.18353862,18.3587615 L5.10791654,18.3587615 Z" id="Shape"></path>
            </g>
        </g>
    </g>
</svg>