<?xml version="1.0" encoding="UTF-8"?>
<svg width="22px" height="24px" viewBox="0 0 22 24" version="1.1" xmlns="http://www.w3.org/2000/svg" xmlns:xlink="http://www.w3.org/1999/xlink">
    <title>Shape</title>
    <g id="Page-1" stroke="none" stroke-width="1" fill="none" fill-rule="evenodd">
        <g id="Billing---PP-Not-Activated" transform="translate(-786.000000, -164.000000)" fill="#C7C7C7" fill-rule="nonzero">
            <path d="M805.226115,170.616541 C804.341478,166.827068 801.038832,164 797.028477,164 C793.077098,164 789.715476,166.827068 788.830839,170.616541 C787.238492,170.796992 786,172.120301 786,173.804511 L786,184.81203 C786,186.556391 787.41542,188 789.125718,188 L804.87226,188 C806.582559,188 807.997978,186.556391 807.997978,184.81203 L807.997978,173.744361 C808.056954,172.120301 806.818462,170.736842 805.226115,170.616541 Z M797.028777,168 C798.755396,168 800.309353,169.227273 801,171 L793,171 C793.748201,169.227273 795.244604,168 797.028777,168 Z M804,184 L790,184 L790,175 L804,175 L804,184 L804,184 Z" id="Shape"></path>
        </g>
    </g>
</svg>