<?xml version="1.0" encoding="UTF-8"?>
<svg width="347px" height="262px" viewBox="0 0 347 262" version="1.1" xmlns="http://www.w3.org/2000/svg" xmlns:xlink="http://www.w3.org/1999/xlink">
    <title>Combined Shape</title>
    <g id="Page-1" stroke="none" stroke-width="1" fill="none" fill-rule="evenodd" opacity="0.233347286">
        <g id="Billing---PP-Activated" transform="translate(-372.000000, -474.000000)" fill="#525CD7">
            <g id="Bitmap" transform="translate(137.000000, 440.000000)">
                <path d="M345.851111,241.623616 L317.200054,335 L292.428889,335 L321.07405,241.623616 L345.851111,241.623616 Z M379.219447,241.623616 C382.182119,241.623616 384.582222,244.101241 384.582222,247.156686 C384.582222,247.368748 384.564632,247.573028 384.538666,247.774714 L384.494586,248.075946 L358.921753,335 L335.166667,335 L354.768924,268.37554 C355.355565,266.380494 353.969791,264.366239 351.988087,264.245995 L351.800598,264.24033 L346.336052,264.24033 L352.993583,241.623616 L379.219447,241.623616 Z M466.051111,241.623616 L446.447732,308.248076 C445.863799,310.243122 447.247078,312.257377 449.231314,312.377621 L449.419055,312.383287 L454.883913,312.383287 L448.226002,335 L421.99581,335 C419.035796,335 416.635556,332.522376 416.635556,329.466931 C416.635556,329.254868 416.653147,329.050588 416.679114,328.848903 L416.723197,328.547671 L442.297493,241.623616 L466.051111,241.623616 Z M554.197778,241.623616 L525.552617,335 L500.775556,335 L529.426613,241.623616 L554.197778,241.623616 Z M510.124444,241.623616 L490.522187,308.248076 C489.935546,310.243122 491.321321,312.257377 493.303024,312.377621 L493.490513,312.383287 L498.955059,312.383287 L492.297528,335 L466.071664,335 C463.108992,335 460.708889,332.522376 460.708889,329.466931 C460.708889,329.254868 460.726479,329.050588 460.752445,328.848903 L460.796525,328.547671 L486.369358,241.623616 L510.124444,241.623616 Z M423.295301,241.623616 C426.255315,241.623616 428.655556,244.101241 428.655556,247.156686 C428.655556,247.368748 428.637965,247.573028 428.611997,247.774714 L428.567914,248.075946 L402.993619,335 L379.24,335 L398.843379,268.37554 C399.427312,266.380494 398.044034,264.366239 396.059798,264.245995 L395.872056,264.24033 L390.407198,264.24033 L397.065109,241.623616 L423.295301,241.623616 Z M536.835556,137.575646 L508.184498,230.95203 L483.413333,230.95203 L512.058494,137.575646 L536.835556,137.575646 Z M571.539447,137.575646 C574.502119,137.575646 576.902222,140.05327 576.902222,143.108715 C576.902222,143.320777 576.884632,143.525057 576.858666,143.726743 L576.814586,144.027975 L551.241753,230.95203 L527.486667,230.95203 L547.088924,164.32757 C547.675565,162.332523 546.289791,160.318269 544.308087,160.198025 L544.120598,160.192359 L538.656052,160.192359 L545.313583,137.575646 L571.539447,137.575646 Z M621,183.858 L621,230.952 L614.31581,230.95203 C611.355796,230.95203 608.955556,228.474405 608.955556,225.41896 C608.955556,225.206898 608.973147,225.002618 608.999114,224.800932 L609.043197,224.4997 L621,183.858 Z M288.422222,137.575646 L259.771165,230.95203 L235,230.95203 L263.645161,137.575646 L288.422222,137.575646 Z M320.455002,137.575646 C323.417674,137.575646 325.817778,140.05327 325.817778,143.108715 C325.817778,143.320777 325.800188,143.525057 325.774221,143.726743 L325.730141,144.027975 L300.157309,230.95203 L276.402222,230.95203 L296.00448,164.32757 C296.59112,162.332523 295.205346,160.318269 293.223643,160.198025 L293.036154,160.192359 L287.571608,160.192359 L294.229138,137.575646 L320.455002,137.575646 Z M407.286667,137.575646 L387.683288,204.200106 C387.099355,206.195152 388.482633,208.209407 390.466869,208.329651 L390.65461,208.335316 L396.119469,208.335316 L389.461558,230.95203 L363.231366,230.95203 C360.271352,230.95203 357.871111,228.474405 357.871111,225.41896 C357.871111,225.206898 357.888702,225.002618 357.91467,224.800932 L357.958752,224.4997 L383.533048,137.575646 L407.286667,137.575646 Z M365.866412,136.241697 C368.826426,136.241697 371.226667,138.719322 371.226667,141.774767 C371.226667,141.986829 371.209076,142.191109 371.183108,142.392795 L371.139025,142.694027 L345.56473,229.618081 L321.811111,229.618081 L341.41449,162.993621 C341.998423,160.998575 340.615145,158.98432 338.630909,158.864076 L338.443168,158.858411 L332.978309,158.858411 L339.63622,136.241697 L365.866412,136.241697 Z M494.097778,136.241697 L465.452617,229.618081 L440.675556,229.618081 L469.326613,136.241697 L494.097778,136.241697 Z M452.695556,136.241697 L433.093298,202.866157 C432.506657,204.861203 433.892432,206.875458 435.874135,206.995702 L436.061624,207.001368 L441.52617,207.001368 L434.86864,229.618081 L408.642775,229.618081 C405.680103,229.618081 403.28,227.140457 403.28,224.085012 C403.28,223.87295 403.29759,223.66867 403.323556,223.466984 L403.367636,223.165752 L428.940469,136.241697 L452.695556,136.241697 Z M614.279745,136.241697 C617.239759,136.241697 619.64,138.719322 619.64,141.774767 C619.64,141.986829 619.622409,142.191109 619.596441,142.392795 L619.552359,142.694027 L593.978063,229.618081 L570.224444,229.618081 L589.827824,162.993621 C590.411756,160.998575 589.028478,158.98432 587.044242,158.864076 L586.856501,158.858411 L581.391642,158.858411 L588.049553,136.241697 L614.279745,136.241697 Z M393.931111,34.8616236 L365.280054,128.238007 L340.508889,128.238007 L369.15405,34.8616236 L393.931111,34.8616236 Z M428.635002,34.8616236 C431.597674,34.8616236 433.997778,37.3392481 433.997778,40.3946931 C433.997778,40.6067552 433.980188,40.8110352 433.954221,41.0127211 L433.910141,41.313953 L408.337309,128.238007 L384.582222,128.238007 L404.18448,61.6135476 C404.77112,59.6185013 403.385346,57.6042466 401.403643,57.4840025 L401.216154,57.4783369 L395.751608,57.4783369 L402.409138,34.8616236 L428.635002,34.8616236 Z M515.466667,34.8616236 L495.863288,101.486083 C495.279355,103.48113 496.662633,105.495384 498.646869,105.615628 L498.83461,105.621294 L504.299469,105.621294 L497.641558,128.238007 L471.411366,128.238007 C468.451352,128.238007 466.051111,125.760383 466.051111,122.704938 C466.051111,122.492876 466.068702,122.288596 466.09467,122.08691 L466.138752,121.785678 L491.713048,34.8616236 L515.466667,34.8616236 Z M471.375301,34.8616236 C474.335315,34.8616236 476.735556,37.3392481 476.735556,40.3946931 C476.735556,40.6067552 476.717965,40.8110352 476.691997,41.0127211 L476.647914,41.313953 L451.073619,128.238007 L427.32,128.238007 L446.923379,61.6135476 C447.507312,59.6185013 446.124034,57.6042466 444.139798,57.4840025 L443.952056,57.4783369 L438.487198,57.4783369 L445.145109,34.8616236 L471.375301,34.8616236 Z M558.204444,34.8616236 L538.602187,101.486083 C538.015546,103.48113 539.401321,105.495384 541.383024,105.615628 L541.570513,105.621294 L547.035059,105.621294 L540.377528,128.238007 L514.151664,128.238007 C511.188992,128.238007 508.788889,125.760383 508.788889,122.704938 C508.788889,122.492876 508.806479,122.288596 508.832445,122.08691 L508.876525,121.785678 L534.449358,34.8616236 L558.204444,34.8616236 Z M602.277778,34.8616236 L573.632617,128.238007 L548.855556,128.238007 L577.506613,34.8616236 L602.277778,34.8616236 Z M595.491,-93 L593.979531,-87.8616236 L570.224444,-87.8616236 L571.736,-93 L595.491,-93 Z M555.17,-93 L553.593387,-87.8616236 L528.822222,-87.8616236 L530.398,-93 L555.17,-93 Z M621,-93 L621,-87.862 L614.297778,-87.8616236 L615.809,-93 L621,-93 Z" id="Combined-Shape"></path>
            </g>
        </g>
    </g>
</svg>