<?xml version="1.0" encoding="UTF-8"?>
<svg width="37px" height="16px" viewBox="0 0 37 16" version="1.1" xmlns="http://www.w3.org/2000/svg" xmlns:xlink="http://www.w3.org/1999/xlink">
    <title>noun_arrows_184692</title>
    <g id="Page-1" stroke="none" stroke-width="1" fill="none" fill-rule="evenodd">
        <g id="Billing---PP-Not-Activated" transform="translate(-410.000000, -254.000000)" fill="#B2E7F4" fill-rule="nonzero">
            <g id="noun_arrows_184692" transform="translate(428.500000, 262.000000) scale(-1, 1) translate(-428.500000, -262.000000) translate(410.000000, 254.000000)">
                <path d="M6.75,9.67758709 L19.872,9.67758709 C21.006,9.67758709 21.87,8.82758709 21.87,7.76508709 C21.87,6.70258709 20.952,5.85258709 19.872,5.85258709 L6.804,5.85258709 L9.504,3.30258709 C10.26,2.55883709 10.26,1.39008709 9.504,0.64633709 C8.748,-0.0974129098 7.452,-0.0974129098 6.696,0.64633709 L0.594,6.38383709 C0.486,6.49008709 0.486,6.59633709 0.378,6.64946209 C0.27,6.75571209 0.216,6.86196209 0.162,6.96821209 C0.054,7.23383709 0,7.44633709 0,7.71196209 C0,7.97758709 0.054,8.19008709 0.162,8.45571209 C0.216,8.56196209 0.27,8.66821209 0.378,8.77446209 C0.486,8.88071209 0.486,8.98696209 0.594,9.04008709 L6.642,14.8307121 C7.398,15.5744621 8.694,15.5744621 9.45,14.8307121 C10.206,14.0869621 10.206,12.9182121 9.45,12.1744621 L6.75,9.67758709 Z M26.948,9.67758709 C28.136,9.67758709 29.162,8.72133709 29.162,7.60571209 C29.162,6.43696209 28.19,5.53383709 26.948,5.53383709 C25.76,5.53383709 24.734,6.49008709 24.734,7.60571209 C24.734,8.72133709 25.706,9.67758709 26.948,9.67758709 Z M34.186,9.67758709 C35.374,9.67758709 36.4,8.72133709 36.4,7.60571209 C36.4,6.43696209 35.428,5.53383709 34.186,5.53383709 C32.998,5.53383709 31.972,6.49008709 31.972,7.60571209 C31.972,8.72133709 32.998,9.67758709 34.186,9.67758709 Z" id="Shape"></path>
            </g>
        </g>
    </g>
</svg>