<?xml version="1.0" encoding="UTF-8"?>
<svg width="17px" height="17px" viewBox="0 0 17 17" version="1.1" xmlns="http://www.w3.org/2000/svg" xmlns:xlink="http://www.w3.org/1999/xlink">
    <title>noun_add_3325707</title>
    <g id="Page-1" stroke="none" stroke-width="1" fill="none" fill-rule="evenodd">
        <g id="Billing---PP-Activated" transform="translate(-1205.000000, -282.000000)" fill="#606380" fill-rule="nonzero">
            <g id="noun_add_3325707" transform="translate(1205.000000, 282.000000)">
                <path d="M8.5,0 C3.80557963,0 0,3.80557963 0,8.5 C0,13.1944204 3.80557963,17 8.5,17 C13.1944204,17 17,13.1944204 17,8.5 C16.9903057,3.809601 13.190399,0.00969427631 8.5,0 Z M8.5,15.8251555 C4.45442833,15.8251555 1.17484451,12.5455717 1.17484451,8.5 C1.17484451,4.45442833 4.45442833,1.17484451 8.5,1.17484451 C12.5455717,1.17484451 15.8251555,4.45442833 15.8251555,8.5 C15.8154674,12.5415519 12.5415519,15.8154674 8.5,15.8251555 Z M12.7118176,8.5 C12.7118176,8.82442435 12.4488197,9.08742225 12.1243953,9.08742225 L9.08742225,9.08742225 L9.08742225,12.1243953 C9.08742225,12.4488197 8.82442435,12.7118176 8.5,12.7118176 C8.17557565,12.7118176 7.91257775,12.4488197 7.91257775,12.1243953 L7.91257775,9.08742225 L4.8756047,9.08742225 C4.55118035,9.08742225 4.28818245,8.82442435 4.28818245,8.5 C4.28818245,8.17557565 4.55118035,7.91257775 4.8756047,7.91257775 L7.91257775,7.91257775 L7.91257775,4.8756047 C7.91257775,4.55118035 8.17557565,4.28818245 8.5,4.28818245 C8.82442435,4.28818245 9.08742225,4.55118035 9.08742225,4.8756047 L9.08742225,7.91257775 L12.1243953,7.91257775 C12.4488197,7.91257775 12.7118176,8.17557565 12.7118176,8.5 Z" id="Shape"></path>
            </g>
        </g>
    </g>
</svg>