<?xml version="1.0" encoding="UTF-8"?>
<svg width="17px" height="17px" viewBox="0 0 17 17" version="1.1" xmlns="http://www.w3.org/2000/svg" xmlns:xlink="http://www.w3.org/1999/xlink">
    <title>noun_Close_1819443</title>
    <g id="Page-1" stroke="none" stroke-width="1" fill="none" fill-rule="evenodd">
        <g id="Billing---PP-Activated" transform="translate(-1205.000000, -415.000000)" fill="#606380" fill-rule="nonzero">
            <g id="noun_Close_1819443" transform="translate(1205.000000, 415.000000)">
                <path d="M8.5725,0 C4.10471053,0 0.4725,3.63221053 0.4725,8.1 C0.4725,12.5677895 4.10471053,16.2 8.5725,16.2 C13.0402895,16.2 16.6725,12.5677895 16.6725,8.1 C16.6725,3.63221053 13.0402895,0 8.5725,0 Z M12.5628158,10.8795789 C12.6821842,10.9989474 12.6821842,11.1694737 12.5628158,11.2888421 L11.7442895,12.1073684 C11.6249211,12.2267368 11.4543947,12.2267368 11.3350263,12.1073684 L8.5725,9.32778947 L5.79292105,12.0903158 C5.67355263,12.2096842 5.50302632,12.2096842 5.38365789,12.0903158 L4.56513158,11.2717895 C4.44576316,11.1524211 4.44576316,10.9818947 4.56513158,10.8625263 L7.34471053,8.1 L4.58218421,5.32042105 C4.46281579,5.20105263 4.46281579,5.03052632 4.58218421,4.91115789 L5.40071053,4.09263158 C5.52007895,3.97326316 5.69060526,3.97326316 5.80997368,4.09263158 L8.5725,6.87221053 L11.3520789,4.09263158 C11.4714474,3.97326316 11.6419737,3.97326316 11.7613421,4.09263158 L12.5798684,4.91115789 C12.6992368,5.03052632 12.6992368,5.20105263 12.5798684,5.32042105 L9.80028947,8.1 L12.5628158,10.8795789 Z" id="Shape"></path>
            </g>
        </g>
    </g>
</svg>