<?xml version="1.0" encoding="UTF-8"?>
<svg width="16px" height="16px" viewBox="0 0 16 16" version="1.1" xmlns="http://www.w3.org/2000/svg" xmlns:xlink="http://www.w3.org/1999/xlink">
    <title>noun_edit_3325401</title>
    <g id="Page-1" stroke="none" stroke-width="1" fill="none" fill-rule="evenodd">
        <g id="Billing---PP-Activated" transform="translate(-1119.000000, -414.000000)" fill="#606380" fill-rule="nonzero">
            <g id="noun_edit_3325401" transform="translate(1119.000000, 414.000000)">
                <path d="M15.230673,2.05344298 L13.9491691,0.76907458 C12.9227272,-0.256358193 11.2592494,-0.256358193 10.2328076,0.76907458 L0.578811078,10.4199042 C0.473992513,10.5256921 0.407004487,10.663088 0.388228438,10.8107989 L0.0103490641,14.1711797 C-0.0422539778,14.637658 0.107328903,15.1043432 0.421327215,15.4533948 C0.735325527,15.8024463 1.18372519,16.0004996 1.65330286,15.997545 C1.71678821,16.0008183 1.78040015,16.0008183 1.8438855,15.997545 L5.20536897,15.6165047 C5.34731788,15.5966011 5.47886498,15.5308491 5.57996244,15.4292694 L5.9085532,15.1007865 L5.9085532,15.1007865 L15.230673,5.76858535 C16.2564423,4.74248021 16.2564423,3.07954812 15.230673,2.05344298 Z M13.0192572,1.69868138 L14.3007612,2.98304978 C14.8125522,3.4959135 14.8125522,4.32611483 14.3007612,4.83897855 L14.0871772,5.05577731 L10.9458495,1.91548014 L11.1495758,1.69868138 C11.3964959,1.44892389 11.7331484,1.30836365 12.0844165,1.30836365 C12.4356846,1.30836365 12.7723371,1.44892389 13.0192572,1.69868138 Z M5.46166977,13.6883097 L2.31048438,10.5480125 L10.0159377,2.84508694 L13.1572654,5.98538411 L5.46166977,13.6883097 Z M1.68944785,14.6737586 C1.58979905,14.6847588 1.49057841,14.6496801 1.42000342,14.5784985 C1.34879853,14.5079467 1.3137083,14.4087586 1.3247121,14.3091425 L1.62044379,11.6977029 L4.30174438,14.3781239 L1.68944785,14.6737586 Z" id="Shape"></path>
            </g>
        </g>
    </g>
</svg>