<?xml version="1.0" encoding="UTF-8"?>
<svg width="73px" height="43px" viewBox="0 0 73 43" version="1.1" xmlns="http://www.w3.org/2000/svg" xmlns:xlink="http://www.w3.org/1999/xlink">
    <!-- Generator: Sketch 64 (93537) - https://sketch.com -->
    <title>Shape</title>
    <desc>Created with Sketch.</desc>
    <g id="Page-1" stroke="none" stroke-width="1" fill="none" fill-rule="evenodd" opacity="0.229478234">
        <g id="Create-League---League-Settings-(Selected)" transform="translate(-833.000000, -286.000000)" fill="#FFFFFF" fill-rule="nonzero">
            <g id="Group-14" transform="translate(740.000000, 285.000000)">
                <g id="Group-8" transform="translate(0.000000, 1.000000)">
                    <path d="M123,30 L115.491611,57 L109,57 L116.506843,30 L123,30 Z M134.480664,30 C135.320023,30 136,30.7164109 136,31.5999 C136,31.6612182 135.995017,31.7202863 135.98766,31.7786042 L135.975172,31.8657062 L128.730092,57 L122,57 L127.553547,37.7353815 C127.719749,37.1585092 127.327143,36.5760827 126.765703,36.5413138 L126.712586,36.5396756 L125.164416,36.5396756 L127.050572,30 L134.480664,30 Z M159,30 L153.446135,49.2646185 C153.2807,49.8414908 153.672599,50.4239173 154.234756,50.4586862 L154.287946,50.4603244 L155.836203,50.4603244 L153.94994,57 L146.518622,57 C145.680016,57 145,56.2835891 145,55.4001 C145,55.3387818 145.004984,55.2797137 145.012341,55.2213958 L145.02483,55.1342938 L152.270324,30 L159,30 Z M183,30 L175.493157,57 L169,57 L176.508389,30 L183,30 Z M173,30 L167.446453,49.2646185 C167.280251,49.8414908 167.672857,50.4239173 168.234297,50.4586862 L168.287414,50.4603244 L169.835584,50.4603244 L167.949428,57 L160.519336,57 C159.679977,57 159,56.2835891 159,55.4001 C159,55.3387818 159.004983,55.2797137 159.01234,55.2213958 L159.024828,55.1342938 L166.269908,30 L173,30 Z M147.481378,30 C148.319984,30 149,30.7164109 149,31.5999 C149,31.6612182 148.995016,31.7202863 148.987659,31.7786042 L148.97517,31.8657062 L141.729676,57 L135,57 L140.553865,37.7353815 C140.7193,37.1585092 140.327401,36.5760827 139.765244,36.5413138 L139.712054,36.5396756 L138.163797,36.5396756 L140.05006,30 L147.481378,30 Z M180,-1 L172.491611,26 L166,26 L173.506843,-1 L180,-1 Z M190.480664,-1 C191.320023,-1 192,-0.283589087 192,0.599899989 C192,0.661218238 191.995017,0.720286276 191.98766,0.778604244 L191.975172,0.865706159 L184.730092,26 L178,26 L183.553547,6.73538145 C183.719749,6.15850915 183.327143,5.57608268 182.765703,5.54131384 L182.712586,5.5396756 L181.164416,5.5396756 L183.050572,-1 L190.480664,-1 Z M216,-1 L210.446135,18.2646185 C210.2807,18.8414908 210.672599,19.4239173 211.234756,19.4586862 L211.287946,19.4603244 L212.836203,19.4603244 L210.94994,26 L203.518622,26 C202.680016,26 202,25.2835891 202,24.4001 C202,24.3387818 202.004984,24.2797137 202.012341,24.2213958 L202.02483,24.1342938 L209.270324,-1 L216,-1 Z M107,-1 L99.4916115,26 L93,26 L100.506843,-1 L107,-1 Z M117.480664,-1 C118.320023,-1 119,-0.283589087 119,0.599899989 C119,0.661218238 118.995017,0.720286276 118.98766,0.778604244 L118.975172,0.865706159 L111.730092,26 L105,26 L110.553547,6.73538145 C110.719749,6.15850915 110.327143,5.57608268 109.765703,5.54131384 L109.712586,5.5396756 L108.164416,5.5396756 L110.050572,-1 L117.480664,-1 Z M143,-1 L137.446135,18.2646185 C137.2807,18.8414908 137.672599,19.4239173 138.234756,19.4586862 L138.287946,19.4603244 L139.836203,19.4603244 L137.94994,26 L130.518622,26 C129.680016,26 129,25.2835891 129,24.4001 C129,24.3387818 129.004984,24.2797137 129.012341,24.2213958 L129.02483,24.1342938 L136.270324,-1 L143,-1 Z M129.481378,-1 C130.319984,-1 131,-0.283589087 131,0.599899989 C131,0.661218238 130.995016,0.720286276 130.987659,0.778604244 L130.97517,0.865706159 L123.729676,26 L117,26 L122.553865,6.73538145 C122.7193,6.15850915 122.327401,5.57608268 121.765244,5.54131384 L121.712054,5.5396756 L120.163797,5.5396756 L122.05006,-1 L129.481378,-1 Z M167,-1 L159.493157,26 L153,26 L160.508389,-1 L167,-1 Z M155,-1 L149.446453,18.2646185 C149.280251,18.8414908 149.672857,19.4239173 150.234297,19.4586862 L150.287414,19.4603244 L151.835584,19.4603244 L149.949428,26 L142.519336,26 C141.679977,26 141,25.2835891 141,24.4001 C141,24.3387818 141.004983,24.2797137 141.01234,24.2213958 L141.024828,24.1342938 L148.269908,-1 L155,-1 Z M202.481378,-1 C203.319984,-1 204,-0.283589087 204,0.599899989 C204,0.661218238 203.995016,0.720286276 203.987659,0.778604244 L203.97517,0.865706159 L196.729676,26 L190,26 L195.553865,6.73538145 C195.7193,6.15850915 195.327401,5.57608268 194.765244,5.54131384 L194.712054,5.5396756 L193.163797,5.5396756 L195.05006,-1 L202.481378,-1 Z M240,-1 L232.493157,26 L226,26 L233.508389,-1 L240,-1 Z M228,-1 L222.446453,18.2646185 C222.280251,18.8414908 222.672857,19.4239173 223.234297,19.4586862 L223.287414,19.4603244 L224.835584,19.4603244 L222.949428,26 L215.519336,26 C214.679977,26 214,25.2835891 214,24.4001 C214,24.3387818 214.004983,24.2797137 214.01234,24.2213958 L214.024828,24.1342938 L221.269908,-1 L228,-1 Z M139,-30 L131.491611,-3 L125,-3 L132.506843,-30 L139,-30 Z M149.480664,-30 C150.320023,-30 151,-29.2835891 151,-28.4001 C151,-28.3387818 150.995017,-28.2797137 150.98766,-28.2213958 L150.975172,-28.1342938 L143.730092,-3 L137,-3 L142.553547,-22.2646185 C142.719749,-22.8414908 142.327143,-23.4239173 141.765703,-23.4586862 L141.712586,-23.4603244 L140.164416,-23.4603244 L142.050572,-30 L149.480664,-30 Z M173,-30 L167.446135,-10.7353815 C167.2807,-10.1585092 167.672599,-9.57608268 168.234756,-9.54131384 L168.287946,-9.5396756 L169.836203,-9.5396756 L167.94994,-3 L160.518622,-3 C159.680016,-3 159,-3.71641091 159,-4.59989999 C159,-4.66121824 159.004984,-4.72028628 159.012341,-4.77860424 L159.02483,-4.86570616 L166.270324,-30 L173,-30 Z M162.481378,-30 C163.319984,-30 164,-29.2835891 164,-28.4001 C164,-28.3387818 163.995016,-28.2797137 163.987659,-28.2213958 L163.97517,-28.1342938 L156.729676,-3 L150,-3 L155.553865,-22.2646185 C155.7193,-22.8414908 155.327401,-23.4239173 154.765244,-23.4586862 L154.712054,-23.4603244 L153.163797,-23.4603244 L155.05006,-30 L162.481378,-30 Z M186,-30 L180.446453,-10.7353815 C180.280251,-10.1585092 180.672857,-9.57608268 181.234297,-9.54131384 L181.287414,-9.5396756 L182.835584,-9.5396756 L180.949428,-3 L173.519336,-3 C172.679977,-3 172,-3.71641091 172,-4.59989999 C172,-4.66121824 172.004983,-4.72028628 172.01234,-4.77860424 L172.024828,-4.86570616 L179.269908,-30 L186,-30 Z M198,-30 L190.493157,-3 L184,-3 L191.508389,-30 L198,-30 Z" id="Shape"></path>
                </g>
            </g>
        </g>
    </g>
</svg>