<?xml version="1.0" encoding="UTF-8"?>
<svg width="68px" height="68px" viewBox="0 0 68 68" version="1.1" xmlns="http://www.w3.org/2000/svg" xmlns:xlink="http://www.w3.org/1999/xlink">
    <!-- Generator: Sketch 64 (93537) - https://sketch.com -->
    <title>Group 27</title>
    <desc>Created with Sketch.</desc>
    <g id="Page-1" stroke="none" stroke-width="1" fill="none" fill-rule="evenodd" opacity="0.816755022">
        <g id="Create-League---League-type" transform="translate(-792.000000, -336.000000)">
            <g id="Group-7" transform="translate(746.000000, 285.000000)">
                <g id="Group-6">
                    <g id="Group-27" opacity="0.4" transform="translate(49.000000, 54.000000)">
                        <g id="noun_Numbered-List_134108" transform="translate(12.501216, 16.668288)" fill="#FFFFFF" fill-rule="nonzero">
                            <rect id="Rectangle" x="13.1262768" y="4.3754256" width="21.877128" height="6.5631384"></rect>
                            <rect id="Rectangle" x="13.1262768" y="19.6894152" width="21.877128" height="6.5631384"></rect>
                            <polygon id="Path" points="4.01572079 3.19884056 1.503684 5.49685821 0 3.69521238 4.0864824 0.110304851 6.5631384 0.110304851 6.5631384 13.1262768 4.01572079 13.1262768"></polygon>
                            <path d="M0,27.7292597 L4.87142527,23.2262176 C5.11942634,22.9952912 5.36742369,22.7339836 5.61542476,22.4422871 C5.86342583,22.1505906 5.98742452,21.8102831 5.98742452,21.4213546 C5.98742452,20.9838098 5.83390234,20.6404638 5.52685339,20.3913063 C5.21980444,20.142149 4.85961781,20.0175721 4.44628269,20.0175721 C3.95028055,20.0175721 3.56352279,20.175572 3.28599777,20.4915766 C3.00847277,20.807581 2.85199825,21.1965039 2.81656951,21.6583567 L0.159428463,21.4578163 C0.194857188,20.7893453 0.330665262,20.2089994 0.566856758,19.7167616 C0.803048255,19.2245238 1.11599729,18.8143317 1.50571326,18.4861732 C1.89542923,18.1580146 2.3530434,17.9118994 2.87856947,17.7478201 C3.40409556,17.5837408 3.97389898,17.5017024 4.58799688,17.5017024 C5.15485648,17.5017024 5.68627937,17.5837408 6.18228151,17.7478201 C6.67828365,17.9118994 7.10932667,18.1549762 7.4754235,18.4770577 C7.84152032,18.7991392 8.12789821,19.2032544 8.33456577,19.6894152 C8.54123333,20.175576 8.64456555,20.7407296 8.64456555,21.3848926 C8.64456555,21.7981293 8.60323268,22.1718599 8.52056564,22.5060954 C8.43789862,22.8403309 8.322757,23.1441769 8.17513732,23.4176425 C8.02751761,23.6911079 7.85332901,23.9433 7.65256623,24.1742264 C7.45180346,24.4051529 7.2333296,24.6299988 6.99713811,24.8487711 L3.18856927,28.2214951 L8.7508512,28.2214951 L8.7508512,30.6279792 L0,30.6279792 L0,27.7292597 Z" id="Path"></path>
                        </g>
                        <circle id="Oval-Copy" stroke="#FFFFFF" stroke-width="4.167072" cx="31.25304" cy="31.25304" r="31.25304"></circle>
                    </g>
                </g>
            </g>
        </g>
    </g>
</svg>