<?xml version="1.0" encoding="UTF-8"?>
<svg width="87px" height="42px" viewBox="0 0 87 42" version="1.1" xmlns="http://www.w3.org/2000/svg" xmlns:xlink="http://www.w3.org/1999/xlink">
    <!-- Generator: Sketch 64 (93537) - https://sketch.com -->
    <title>Shape</title>
    <desc>Created with Sketch.</desc>
    <g id="Page-1" stroke="none" stroke-width="1" fill="none" fill-rule="evenodd" opacity="0.049999997">
        <g id="Create-League---If-User-Doesn't-have-a-league" transform="translate(-251.000000, -593.000000)" fill="#F3F2F6" fill-rule="nonzero">
            <g id="Group-6" transform="translate(151.000000, 589.000000)">
                <g id="Shape">
                    <path d="M126,56 L119.027925,79 L113,79 L119.97064,56 L126,56 Z M135.589188,56 C136.368593,56 137,56.610276 137,57.3628778 C137,57.4151118 136.995372,57.4654291 136.988541,57.5151073 L136.976945,57.5893052 L130.249371,79 L124,79 L129.156865,62.589399 C129.311195,62.0979893 128.946633,61.6018482 128.425296,61.5722303 L128.375973,61.5708348 L126.938387,61.5708348 L128.689817,56 L135.589188,56 Z M156,56 L150.84284,72.410601 C150.689222,72.9020107 151.053128,73.3981518 151.575131,73.4277697 L151.624521,73.4291652 L153.062189,73.4291652 L151.310658,79 L144.410149,79 C143.631443,79 143,78.389724 143,77.6371222 C143,77.5848882 143.004628,77.5345709 143.011459,77.4848927 L143.023056,77.4106948 L149.751016,56 L156,56 Z M178,56 L171.02936,79 L165,79 L171.972075,56 L178,56 Z M169,56 L163.843135,72.410601 C163.688805,72.9020107 164.053367,73.3981518 164.574704,73.4277697 L164.624027,73.4291652 L166.061613,73.4291652 L164.310183,79 L157.410812,79 C156.631407,79 156,78.389724 156,77.6371222 C156,77.5848882 156.004628,77.5345709 156.011459,77.4848927 L156.023055,77.4106948 L162.750629,56 L169,56 Z M146.589851,56 C147.368557,56 148,56.610276 148,57.3628778 C148,57.4151118 147.995372,57.4654291 147.988541,57.5151073 L147.976944,57.5893052 L141.248984,79 L135,79 L140.15716,62.589399 C140.310778,62.0979893 139.946872,61.6018482 139.424869,61.5722303 L139.375479,61.5708348 L137.937811,61.5708348 L139.689342,56 L146.589851,56 Z M174,29 L167.027925,52 L161,52 L167.97064,29 L174,29 Z M183.589188,29 C184.368593,29 185,29.610276 185,30.3628778 C185,30.4151118 184.995372,30.4654291 184.988541,30.5151073 L184.976945,30.5893052 L178.249371,52 L172,52 L177.156865,35.589399 C177.311195,35.0979893 176.946633,34.6018482 176.425296,34.5722303 L176.375973,34.5708348 L174.938387,34.5708348 L176.689817,29 L183.589188,29 Z M205,29 L199.84284,45.410601 C199.689222,45.9020107 200.053128,46.3981518 200.575131,46.4277697 L200.624521,46.4291652 L202.062189,46.4291652 L200.310658,52 L193.410149,52 C192.631443,52 192,51.389724 192,50.6371222 C192,50.5848882 192.004628,50.5345709 192.011459,50.4848927 L192.023056,50.4106948 L198.751016,29 L205,29 Z M112,29 L105.027925,52 L99,52 L105.97064,29 L112,29 Z M120.589188,29 C121.368593,29 122,29.610276 122,30.3628778 C122,30.4151118 121.995372,30.4654291 121.988541,30.5151073 L121.976945,30.5893052 L115.249371,52 L109,52 L114.156865,35.589399 C114.311195,35.0979893 113.946633,34.6018482 113.425296,34.5722303 L113.375973,34.5708348 L111.938387,34.5708348 L113.689817,29 L120.589188,29 Z M142,29 L136.84284,45.410601 C136.689222,45.9020107 137.053128,46.3981518 137.575131,46.4277697 L137.624521,46.4291652 L139.062189,46.4291652 L137.310658,52 L130.410149,52 C129.631443,52 129,51.389724 129,50.6371222 C129,50.5848882 129.004628,50.5345709 129.011459,50.4848927 L129.023056,50.4106948 L135.751016,29 L142,29 Z M131.589851,29 C132.368557,29 133,29.610276 133,30.3628778 C133,30.4151118 132.995372,30.4654291 132.988541,30.5151073 L132.976944,30.5893052 L126.248984,52 L120,52 L125.15716,35.589399 C125.310778,35.0979893 124.946872,34.6018482 124.424869,34.5722303 L124.375479,34.5708348 L122.937811,34.5708348 L124.689342,29 L131.589851,29 Z M164,29 L157.02936,52 L151,52 L157.972075,29 L164,29 Z M153,29 L147.843135,45.410601 C147.688805,45.9020107 148.053367,46.3981518 148.574704,46.4277697 L148.624027,46.4291652 L150.061613,46.4291652 L148.310183,52 L141.410812,52 C140.631407,52 140,51.389724 140,50.6371222 C140,50.5848882 140.004628,50.5345709 140.011459,50.4848927 L140.023055,50.4106948 L146.750629,29 L153,29 Z M194.589851,29 C195.368557,29 196,29.610276 196,30.3628778 C196,30.4151118 195.995372,30.4654291 195.988541,30.5151073 L195.976944,30.5893052 L189.248984,52 L183,52 L188.15716,35.589399 C188.310778,35.0979893 187.946872,34.6018482 187.424869,34.5722303 L187.375479,34.5708348 L185.937811,34.5708348 L187.689342,29 L194.589851,29 Z M226,29 L219.02936,52 L213,52 L219.972075,29 L226,29 Z M216,29 L210.843135,45.410601 C210.688805,45.9020107 211.053367,46.3981518 211.574704,46.4277697 L211.624027,46.4291652 L213.061613,46.4291652 L211.310183,52 L204.410812,52 C203.631407,52 203,51.389724 203,50.6371222 C203,50.5848882 203.004628,50.5345709 203.011459,50.4848927 L203.023055,50.4106948 L209.750629,29 L216,29 Z M139,4 L132.027925,27 L126,27 L132.97064,4 L139,4 Z M147.589188,4 C148.368593,4 149,4.61027596 149,5.36287777 C149,5.41511183 148.995372,5.46542905 148.988541,5.51510732 L148.976945,5.58930525 L142.249371,27 L136,27 L141.156865,10.589399 C141.311195,10.0979893 140.946633,9.60184821 140.425296,9.5722303 L140.375973,9.57083477 L138.938387,9.57083477 L140.689817,4 L147.589188,4 Z M169,4 L163.84284,20.410601 C163.689222,20.9020107 164.053128,21.3981518 164.575131,21.4277697 L164.624521,21.4291652 L166.062189,21.4291652 L164.310658,27 L157.410149,27 C156.631443,27 156,26.389724 156,25.6371222 C156,25.5848882 156.004628,25.5345709 156.011459,25.4848927 L156.023056,25.4106948 L162.751016,4 L169,4 Z M158.589851,4 C159.368557,4 160,4.61027596 160,5.36287777 C160,5.41511183 159.995372,5.46542905 159.988541,5.51510732 L159.976944,5.58930525 L153.248984,27 L147,27 L152.15716,10.589399 C152.310778,10.0979893 151.946872,9.60184821 151.424869,9.5722303 L151.375479,9.57083477 L149.937811,9.57083477 L151.689342,4 L158.589851,4 Z M180,4 L174.843135,20.410601 C174.688805,20.9020107 175.053367,21.3981518 175.574704,21.4277697 L175.624027,21.4291652 L177.061613,21.4291652 L175.310183,27 L168.410812,27 C167.631407,27 167,26.389724 167,25.6371222 C167,25.5848882 167.004628,25.5345709 167.011459,25.4848927 L167.023055,25.4106948 L173.750629,4 L180,4 Z M190,4 L183.02936,27 L177,27 L183.972075,4 L190,4 Z"></path>
                </g>
            </g>
        </g>
    </g>
</svg>