<?xml version="1.0" encoding="UTF-8"?>
<svg width="20px" height="22px" viewBox="0 0 20 22" version="1.1" xmlns="http://www.w3.org/2000/svg" xmlns:xlink="http://www.w3.org/1999/xlink">
    <!-- Generator: Sketch 64 (93537) - https://sketch.com -->
    <title>Shape</title>
    <desc>Created with Sketch.</desc>
    <g id="Page-1" stroke="none" stroke-width="1" fill="none" fill-rule="evenodd" opacity="0.400018601">
        <g id="Create-League---League-Settings-(Selected)" transform="translate(-872.000000, -522.000000)" fill="#FFFFFF" fill-rule="nonzero">
            <g id="Group-6" transform="translate(859.000000, 512.000000)">
                <g id="noun_Date-and-Time_1856590" transform="translate(13.000000, 10.000000)">
                    <path d="M16.25,1.25 L15,1.25 L15,0.625 C15,0.279822031 14.720178,0 14.375,0 C14.029822,0 13.75,0.279822031 13.75,0.625 L13.75,1.25 L6.25,1.25 L6.25,0.625 C6.25,0.279822031 5.97017797,0 5.625,0 C5.27982203,0 5,0.279822031 5,0.625 L5,1.25 L3.75,1.25 C1.67893219,1.25 -2.13162821e-15,2.92893219 -2.13162821e-15,5 L-2.13162821e-15,17.5 C-2.13162821e-15,19.5710678 1.67893219,21.25 3.75,21.25 L16.25,21.25 C18.3210678,21.25 20,19.5710678 20,17.5 L20,5 C20,2.92893219 18.3210678,1.25 16.25,1.25 Z M18.75,17.5 C18.7484157,18.8800551 17.6300551,19.9984157 16.25,20 L3.75,20 C2.36994491,19.9984157 1.25158433,18.8800551 1.25,17.5 L1.25,5 C1.25158433,3.61994491 2.36994491,2.50158433 3.75,2.5 L5,2.5 L5,3.125 C5,3.47017797 5.27982203,3.75 5.625,3.75 C5.97017797,3.75 6.25,3.47017797 6.25,3.125 L6.25,2.5 L13.75,2.5 L13.75,3.125 C13.75,3.47017797 14.029822,3.75 14.375,3.75 C14.720178,3.75 15,3.47017797 15,3.125 L15,2.5 L16.25,2.5 C17.6300551,2.50158433 18.7484157,3.61994491 18.75,5 L18.75,17.5 Z M10,5 C6.54822031,5 3.75,7.79822031 3.75,11.25 C3.75,14.7017797 6.54822031,17.5 10,17.5 C13.4517797,17.5 16.25,14.7017797 16.25,11.25 C16.25,9.59239694 15.5915197,8.00268498 14.4194174,6.83058262 C13.247315,5.65848025 11.6576031,5 10,5 L10,5 Z M10,16.25 C7.23857625,16.25 5,14.0114237 5,11.25 C5,8.48857625 7.23857625,6.25 10,6.25 C12.7614237,6.25 15,8.48857625 15,11.25 C14.9969001,14.0101387 12.7601387,16.2469001 10,16.25 L10,16.25 Z M13.124925,11.249925 C13.124925,11.595103 12.845103,11.874925 12.499925,11.874925 L12.4995375,11.87485 L10.0007875,11.87485 L10,11.875 C9.65482203,11.875 9.375,11.595178 9.375,11.25 L9.374925,11.25 L9.374925,8.124925 L9.375,8.124925 C9.37502071,7.77974703 9.65485953,7.4999625 10.0000375,7.4999625 C10.3452155,7.4999625 10.6250207,7.77982203 10.625,8.125 L10.624925,8.1253875 L10.624925,10.62485 L12.5,10.62485 L12.5,10.624925 C12.8451487,10.6249664 13.124925,10.9047763 13.124925,11.249925 L13.124925,11.249925 Z" id="Shape"></path>
                </g>
            </g>
        </g>
    </g>
</svg>