<?xml version="1.0" encoding="UTF-8"?>
<svg width="68px" height="68px" viewBox="0 0 68 68" version="1.1" xmlns="http://www.w3.org/2000/svg" xmlns:xlink="http://www.w3.org/1999/xlink">
    <!-- Generator: Sketch 64 (93537) - https://sketch.com -->
    <title>noun_users_2417408</title>
    <desc>Created with Sketch.</desc>
    <g id="Page-1" stroke="none" stroke-width="1" fill="none" fill-rule="evenodd">
        <g id="Create-League---League-type" transform="translate(-603.000000, -336.000000)" fill="#FFFFFF" fill-rule="nonzero">
            <g id="Group-10" transform="translate(561.000000, 286.000000)">
                <g id="Group-9">
                    <g id="noun_users_2417408" transform="translate(42.000000, 50.000000)">
                        <g id="Group">
                            <path d="M34,0 C15.2223185,0 0,15.2223185 0,34 C0,52.7776815 15.2223185,68 34,68 C52.7776815,68 68,52.7776815 68,34 C67.9777521,15.2315416 52.7684584,0.0222479387 34,0 Z M31.875,63.641625 L31.875,42.667875 C30.6244917,42.1337629 29.3333512,41.7003035 28.013875,41.371625 C26.2413545,42.8487955 24.0160792,43.6738049 21.709,43.709125 C19.4019208,43.6738049 17.1766455,42.8487955 15.404125,41.371625 C12.1677915,42.0156859 9.13634146,43.4362451 6.5705,45.511125 C1.34189633,33.0577634 5.15856346,18.6448411 15.8652438,10.4112813 C26.5719241,2.17772148 41.4816233,2.18985352 52.1748901,10.4408265 C62.8681569,18.6917995 66.6613634,33.110914 61.4125,45.55575 C58.8330905,43.5128282 55.8235394,42.0821652 52.61075,41.371625 C48.9873947,44.4940871 43.6243553,44.4940871 40.001,41.371625 C38.6760012,41.6713118 37.3792249,42.0843748 36.125,42.60625 L36.125,63.64375 C35.4195,63.69475 34.71825,63.752125 34,63.752125 C33.28175,63.752125 32.5805,63.692625 31.875,63.641625 Z" id="Shape"></path>
                            <circle id="Oval" cx="22" cy="29" r="10"></circle>
                            <circle id="Oval" cx="46" cy="29" r="10"></circle>
                        </g>
                    </g>
                </g>
            </g>
        </g>
    </g>
</svg>