<?xml version="1.0" encoding="UTF-8"?>
<svg width="18px" height="18px" viewBox="0 0 18 18" version="1.1" xmlns="http://www.w3.org/2000/svg" xmlns:xlink="http://www.w3.org/1999/xlink">
    <!-- Generator: Sketch 64 (93537) - https://sketch.com -->
    <title>noun_Info_933047 (1)</title>
    <desc>Created with Sketch.</desc>
    <g id="Page-1" stroke="none" stroke-width="1" fill="none" fill-rule="evenodd">
        <g id="Create-League---League-type-(tip)" transform="translate(-691.000000, -298.000000)" fill="#918CBD" fill-rule="nonzero">
            <g id="noun_Info_933047-(1)" transform="translate(691.000000, 297.000000)">
                <g id="a-link" transform="translate(9.145920, 9.453807) scale(-1, 1) rotate(-180.000000) translate(-9.145920, -9.453807) translate(0.145920, 0.453807)">
                    <g id="a">
                        <path d="M14.8981482,14.8981482 C13.1941936,16.6021027 10.9603441,17.4538073 8.72704,17.4538073 C6.49373592,17.4538073 4.2598864,16.6021027 2.55593184,14.8981482 C-0.85197728,11.490239 -0.85197728,5.9643864 2.55593184,2.55647728 C4.2598864,0.85197728 6.49373592,0.00027272 8.72704,0.00027272 C10.9603441,0.00027272 13.1941936,0.85197728 14.8981482,2.55647728 C18.3060573,5.9643864 18.3060573,11.490239 14.8981482,14.8981482 Z M13.9338102,3.52054248 C12.5429382,2.12967048 10.6938966,1.36387272 8.72704,1.36387272 C6.76018336,1.36387272 4.91114176,2.1299432 3.51999704,3.52054248 C0.64934632,6.39146592 0.64934632,11.0628868 3.51999704,13.9335375 C4.91086904,15.3244095 6.76018336,16.0902073 8.72704,16.0902073 C10.6938966,16.0902073 12.543211,15.3241368 13.934083,13.9335375 L13.934083,13.934083 C15.3244095,12.543211 16.09048,10.6938966 16.09048,8.72731272 C16.09048,6.76018336 15.3244095,4.91141448 13.9338102,3.52054248 Z" id="Shape"></path>
                        <path d="M8.72704,13.3630073 C8.02260424,13.3630073 7.45152856,12.7919316 7.45152856,12.0877686 C7.45152856,11.3836055 8.02260424,10.8125298 8.72704,10.8125298 C9.43120304,10.8125298 10.0022787,11.3836055 10.0022787,12.0877686 C10.0022787,12.7919316 9.43120304,13.3630073 8.72704,13.3630073 Z" id="Path"></path>
                        <polygon id="Path" points="7.56225288 4.09052728 9.89182712 4.09052728 9.89182712 9.84901008 7.56225288 9.84901008"></polygon>
                    </g>
                </g>
            </g>
        </g>
    </g>
</svg>