<?xml version="1.0" encoding="UTF-8"?>
<svg width="114px" height="91px" viewBox="0 0 114 91" version="1.1" xmlns="http://www.w3.org/2000/svg" xmlns:xlink="http://www.w3.org/1999/xlink">
    <!-- Generator: Sketch 64 (93537) - https://sketch.com -->
    <title>Shape</title>
    <desc>Created with Sketch.</desc>
    <g id="Page-1" stroke="none" stroke-width="1" fill="none" fill-rule="evenodd" opacity="0.049999997">
        <g id="Create-League---League-type" transform="translate(-561.000000, -286.000000)" fill="#F3F2F6" fill-rule="nonzero">
            <g id="Group-10" transform="translate(561.000000, 286.000000)">
                <g id="Group-9">
                    <g id="Shape-2">
                        <g transform="translate(-53.000000, -8.000000)" id="Shape">
                            <path d="M35,68 L26.4189845,99 L19,99 L27.5792494,68 L35,68 Z M47.2636155,68 C48.2228833,68 49,68.8225459 49,69.8369222 C49,69.9073246 48.9943046,69.9751435 48.9858971,70.0421012 L48.9716247,70.1421071 L40.6915332,99 L33,99 L39.3469107,76.8813639 C39.536856,76.219029 39.0881635,75.5503172 38.4465183,75.5103974 L38.3858123,75.5085164 L36.616476,75.5085164 L38.7720823,68 L47.2636155,68 Z M75,68 L68.6527261,90.1186361 C68.4636577,90.780971 68.9115419,91.4496828 69.5540072,91.4896026 L69.6147949,91.4914836 L71.3842325,91.4914836 L69.2285027,99 L60.7355684,99 C59.7771611,99 59,98.1774541 59,97.1630778 C59,97.0926754 59.0056957,97.0248565 59.0141037,96.9578988 L59.0283769,96.8578929 L67.3089422,68 L75,68 Z M103,68 L94.4207506,99 L87,99 L95.5810155,68 L103,68 Z M91,68 L84.6530893,90.1186361 C84.463144,90.780971 84.9118365,91.4496828 85.5534817,91.4896026 L85.6141877,91.4914836 L87.383524,91.4914836 L85.2279177,99 L76.7363845,99 C75.7771167,99 75,98.1774541 75,97.1630778 C75,97.0926754 75.0056954,97.0248565 75.0141029,96.9578988 L75.0283753,96.8578929 L83.3084668,68 L91,68 Z M61.2644316,68 C62.2228389,68 63,68.8225459 63,69.8369222 C63,69.9073246 62.9943043,69.9751435 62.9858963,70.0421012 L62.9716231,70.1421071 L54.6910578,99 L47,99 L53.3472739,76.8813639 C53.5363423,76.219029 53.0884581,75.5503172 52.4459928,75.5103974 L52.3852051,75.5085164 L50.6157675,75.5085164 L52.7714973,68 L61.2644316,68 Z M99,33 L90.4189845,64 L83,64 L91.5792494,33 L99,33 Z M111.263616,33 C112.222883,33 113,33.8225459 113,34.8369222 C113,34.9073246 112.994305,34.9751435 112.985897,35.0421012 L112.971625,35.1421071 L104.691533,64 L97,64 L103.346911,41.8813639 C103.536856,41.219029 103.088164,40.5503172 102.446518,40.5103974 L102.385812,40.5085164 L100.616476,40.5085164 L102.772082,33 L111.263616,33 Z M139,33 L132.652726,55.1186361 C132.463658,55.780971 132.911542,56.4496828 133.554007,56.4896026 L133.614795,56.4914836 L135.384232,56.4914836 L133.228503,64 L124.735568,64 C123.777161,64 123,63.1774541 123,62.1630778 C123,62.0926754 123.005696,62.0248565 123.014104,61.9578988 L123.028377,61.8578929 L131.308942,33 L139,33 Z M16,33 L7.41898454,64 L0,64 L8.57924945,33 L16,33 Z M28.2636155,33 C29.2228833,33 30,33.8225459 30,34.8369222 C30,34.9073246 29.9943046,34.9751435 29.9858971,35.0421012 L29.9716247,35.1421071 L21.6915332,64 L14,64 L20.3469107,41.8813639 C20.536856,41.219029 20.0881635,40.5503172 19.4465183,40.5103974 L19.3858123,40.5085164 L17.616476,40.5085164 L19.7720823,33 L28.2636155,33 Z M56,33 L49.6527261,55.1186361 C49.4636577,55.780971 49.9115419,56.4496828 50.5540072,56.4896026 L50.6147949,56.4914836 L52.3842325,56.4914836 L50.2285027,64 L41.7355684,64 C40.7771611,64 40,63.1774541 40,62.1630778 C40,62.0926754 40.0056957,62.0248565 40.0141037,61.9578988 L40.0283769,61.8578929 L48.3089422,33 L56,33 Z M42.2644316,33 C43.2228389,33 44,33.8225459 44,34.8369222 C44,34.9073246 43.9943043,34.9751435 43.9858963,35.0421012 L43.9716231,35.1421071 L35.6910578,64 L28,64 L34.3472739,41.8813639 C34.5363423,41.219029 34.0884581,40.5503172 33.4459928,40.5103974 L33.3852051,40.5085164 L31.6157675,40.5085164 L33.7714973,33 L42.2644316,33 Z M84,33 L75.4207506,64 L68,64 L76.5810155,33 L84,33 Z M70,33 L63.6530893,55.1186361 C63.463144,55.780971 63.9118365,56.4496828 64.5534817,56.4896026 L64.6141877,56.4914836 L66.383524,56.4914836 L64.2279177,64 L55.7363845,64 C54.7771167,64 54,63.1774541 54,62.1630778 C54,62.0926754 54.0056954,62.0248565 54.0141029,61.9578988 L54.0283753,61.8578929 L62.3084668,33 L70,33 Z M125.264432,33 C126.222839,33 127,33.8225459 127,34.8369222 C127,34.9073246 126.994304,34.9751435 126.985896,35.0421012 L126.971623,35.1421071 L118.691058,64 L111,64 L117.347274,41.8813639 C117.536342,41.219029 117.088458,40.5503172 116.445993,40.5103974 L116.385205,40.5085164 L114.615768,40.5085164 L116.771497,33 L125.264432,33 Z M167,33 L158.420751,64 L151,64 L159.581015,33 L167,33 Z M153,33 L146.653089,55.1186361 C146.463144,55.780971 146.911836,56.4496828 147.553482,56.4896026 L147.614188,56.4914836 L149.383524,56.4914836 L147.227918,64 L138.736384,64 C137.777117,64 137,63.1774541 137,62.1630778 C137,62.0926754 137.005695,62.0248565 137.014103,61.9578988 L137.028375,61.8578929 L145.308467,33 L153,33 Z M52,0 L43.4189845,31 L36,31 L44.5792494,0 L52,0 Z M64.2636155,0 C65.2228833,0 66,0.822545863 66,1.83692221 C66,1.90732464 65.9943046,1.9751435 65.9858971,2.04210117 L65.9716247,2.14210707 L57.6915332,31 L50,31 L56.3469107,8.88136389 C56.536856,8.21902903 56.0881635,7.55031715 55.4465183,7.51039737 L55.3858123,7.50851644 L53.616476,7.50851644 L55.7720823,0 L64.2636155,0 Z M91,0 L84.6527261,22.1186361 C84.4636577,22.780971 84.9115419,23.4496828 85.5540072,23.4896026 L85.6147949,23.4914836 L87.3842325,23.4914836 L85.2285027,31 L76.7355684,31 C75.7771611,31 75,30.1774541 75,29.1630778 C75,29.0926754 75.0056957,29.0248565 75.0141037,28.9578988 L75.0283769,28.8578929 L83.3089422,0 L91,0 Z M78.2644316,0 C79.2228389,0 80,0.822545863 80,1.83692221 C80,1.90732464 79.9943043,1.9751435 79.9858963,2.04210117 L79.9716231,2.14210707 L71.6910578,31 L64,31 L70.3472739,8.88136389 C70.5363423,8.21902903 70.0884581,7.55031715 69.4459928,7.51039737 L69.3852051,7.50851644 L67.6157675,7.50851644 L69.7714973,0 L78.2644316,0 Z M106,0 L99.6530893,22.1186361 C99.463144,22.780971 99.9118365,23.4496828 100.553482,23.4896026 L100.614188,23.4914836 L102.383524,23.4914836 L100.227918,31 L91.7363845,31 C90.7771167,31 90,30.1774541 90,29.1630778 C90,29.0926754 90.0056954,29.0248565 90.0141029,28.9578988 L90.0283753,28.8578929 L98.3084668,0 L106,0 Z M120,0 L111.420751,31 L104,31 L112.581015,0 L120,0 Z"></path>
                        </g>
                    </g>
                </g>
            </g>
        </g>
    </g>
</svg>