<?xml version="1.0" encoding="UTF-8"?>
<svg width="273px" height="79px" viewBox="0 0 273 79" version="1.1" xmlns="http://www.w3.org/2000/svg" xmlns:xlink="http://www.w3.org/1999/xlink">
    <!-- Generator: Sketch 64 (93537) - https://sketch.com -->
    <title>Combined Shape</title>
    <desc>Created with Sketch.</desc>
    <g id="Page-1" stroke="none" stroke-width="1" fill="none" fill-rule="evenodd" opacity="0.29763765">
        <g id="Draftroom-1366-x-900-Filter" transform="translate(-353.000000, -143.000000)" fill="#53A2C9">
            <g id="Group-14" transform="translate(121.000000, 142.787560)">
                <g id="Group-13">
                    <path d="M331.057778,69.957973 L308.556448,170.308526 L289.102222,170.308526 L311.598921,69.957973 L331.057778,69.957973 Z M357.263858,69.957973 C359.590616,69.957973 361.475556,72.6206482 361.475556,75.9043007 C361.475556,76.1322015 361.461741,76.3517389 361.441348,76.5684886 L361.40673,76.8922191 L341.322908,170.308526 L322.666667,170.308526 L338.061451,98.707966 C338.522174,96.5639121 337.433846,94.3992151 335.877499,94.2699902 L335.730254,94.2639014 L331.43863,94.2639014 L336.667173,69.957973 L357.263858,69.957973 Z M425.457778,69.957973 L410.062112,141.558534 C409.603516,143.702587 410.689885,145.867284 412.24822,145.996509 L412.395664,146.002598 L416.687533,146.002598 L411.458691,170.308526 L390.858606,170.308526 C388.533936,170.308526 386.648889,167.645851 386.648889,164.362199 C386.648889,164.134298 386.662704,163.914761 386.683098,163.698011 L386.717719,163.37428 L406.80269,69.957973 L425.457778,69.957973 Z M494.684444,69.957973 L472.187746,170.308526 L452.728889,170.308526 L475.230218,69.957973 L494.684444,69.957973 Z M460.071111,69.957973 L444.676326,141.558534 C444.215604,143.702587 445.303932,145.867284 446.860278,145.996509 L447.007524,146.002598 L451.299148,146.002598 L446.070605,170.308526 L425.473919,170.308526 C423.147162,170.308526 421.262222,167.645851 421.262222,164.362199 C421.262222,164.134298 421.276037,163.914761 421.29643,163.698011 L421.331048,163.37428 L441.41487,69.957973 L460.071111,69.957973 Z M391.879171,69.957973 C394.203841,69.957973 396.088889,72.6206482 396.088889,75.9043007 C396.088889,76.1322015 396.075074,76.3517389 396.05468,76.5684886 L396.020059,76.8922191 L375.935088,170.308526 L357.28,170.308526 L372.675665,98.707966 C373.134261,96.5639121 372.047893,94.3992151 370.489558,94.2699902 L370.342114,94.2639014 L366.050245,94.2639014 L371.279087,69.957973 L391.879171,69.957973 Z M481.048889,-41.8612152 L458.547559,58.4893383 L439.093333,58.4893383 L461.590032,-41.8612152 L481.048889,-41.8612152 Z M508.303858,-41.8612152 C510.630616,-41.8612152 512.515556,-39.19854 512.515556,-35.9148874 C512.515556,-35.6869867 512.501741,-35.4674493 512.481348,-35.2506996 L512.44673,-34.9269691 L492.362908,58.4893383 L473.706667,58.4893383 L489.101451,-13.1112222 C489.562174,-15.2552761 488.473846,-17.4199731 486.917499,-17.549198 L486.770254,-17.5552868 L482.47863,-17.5552868 L487.707173,-41.8612152 L508.303858,-41.8612152 Z M547.372,6.83444005 L547.372,58.48844 L541.898606,58.4893383 C539.573936,58.4893383 537.688889,55.8266631 537.688889,52.5430105 C537.688889,52.3151098 537.702704,52.0955724 537.723098,51.8788227 L537.757719,51.5550922 L547.372,6.83444005 Z M285.955556,-41.8612152 L263.454226,58.4893383 L244,58.4893383 L266.496699,-41.8612152 L285.955556,-41.8612152 Z M311.112747,-41.8612152 C313.439505,-41.8612152 315.324444,-39.19854 315.324444,-35.9148874 C315.324444,-35.6869867 315.31063,-35.4674493 315.290237,-35.2506996 L315.255618,-34.9269691 L295.171797,58.4893383 L276.515556,58.4893383 L291.91034,-13.1112222 C292.371063,-15.2552761 291.282734,-17.4199731 289.726388,-17.549198 L289.579143,-17.5552868 L285.287519,-17.5552868 L290.516062,-41.8612152 L311.112747,-41.8612152 Z M379.306667,-41.8612152 L363.911001,29.7393453 C363.452405,31.8833992 364.538773,34.0480962 366.097109,34.1773211 L366.244552,34.1834099 L370.536422,34.1834099 L365.307579,58.4893383 L344.707495,58.4893383 C342.382825,58.4893383 340.497778,55.8266631 340.497778,52.5430105 C340.497778,52.3151098 340.511593,52.0955724 340.531987,51.8788227 L340.566608,51.5550922 L360.651579,-41.8612152 L379.306667,-41.8612152 Z M346.776949,-43.2947945 C349.101619,-43.2947945 350.986667,-40.6321193 350.986667,-37.3484668 C350.986667,-37.120566 350.972851,-36.9010286 350.952457,-36.684279 L350.917837,-36.3605484 L330.832866,57.055759 L312.177778,57.055759 L327.573443,-14.5448016 C328.032039,-16.6888554 326.945671,-18.8535524 325.387336,-18.9827774 L325.239892,-18.9888661 L320.948023,-18.9888661 L326.176865,-43.2947945 L346.776949,-43.2947945 Z M447.484444,-43.2947945 L424.987746,57.055759 L405.528889,57.055759 L428.030218,-43.2947945 L447.484444,-43.2947945 Z M414.968889,-43.2947945 L399.574104,28.305766 C399.113382,30.4498199 400.20171,32.6145168 401.758056,32.7437418 L401.905302,32.7498306 L406.196925,32.7498306 L400.968383,57.055759 L380.371697,57.055759 C378.04494,57.055759 376.16,54.3930837 376.16,51.1094312 C376.16,50.8815305 376.173815,50.661993 376.194207,50.4452434 L376.228826,50.1215128 L396.312648,-43.2947945 L414.968889,-43.2947945 Z M541.870282,-43.2947945 C544.194953,-43.2947945 546.08,-40.6321193 546.08,-37.3484668 C546.08,-37.120566 546.066185,-36.9010286 546.045791,-36.684279 L546.01117,-36.3605484 L525.926199,57.055759 L507.271111,57.055759 L522.666777,-14.5448016 C523.125373,-16.6888554 522.039004,-18.8535524 520.480669,-18.9827774 L520.333225,-18.9888661 L516.041356,-18.9888661 L521.270198,-43.2947945 L541.870282,-43.2947945 Z M368.817778,-152.246824 L346.316448,-51.8962706 L326.862222,-51.8962706 L349.358921,-152.246824 L368.817778,-152.246824 Z M396.072747,-152.246824 C398.399505,-152.246824 400.284444,-149.584149 400.284444,-146.300496 C400.284444,-146.072596 400.27063,-145.853058 400.250237,-145.636308 L400.215618,-145.312578 L380.131797,-51.8962706 L361.475556,-51.8962706 L376.87034,-123.496831 C377.331063,-125.640885 376.242734,-127.805582 374.686388,-127.934807 L374.539143,-127.940896 L370.247519,-127.940896 L375.476062,-152.246824 L396.072747,-152.246824 Z M464.266667,-152.246824 L448.871001,-80.6462635 C448.412405,-78.5022097 449.498773,-76.3375127 451.057109,-76.2082877 L451.204552,-76.202199 L455.496422,-76.202199 L450.267579,-51.8962706 L429.667495,-51.8962706 C427.342825,-51.8962706 425.457778,-54.5589458 425.457778,-57.8425983 C425.457778,-58.0704991 425.471593,-58.2900365 425.491987,-58.5067861 L425.526608,-58.8305167 L445.611579,-152.246824 L464.266667,-152.246824 Z M429.639171,-152.246824 C431.963841,-152.246824 433.848889,-149.584149 433.848889,-146.300496 C433.848889,-146.072596 433.835074,-145.853058 433.81468,-145.636308 L433.780059,-145.312578 L413.695088,-51.8962706 L395.04,-51.8962706 L410.435665,-123.496831 C410.894261,-125.640885 409.807893,-127.805582 408.249558,-127.934807 L408.102114,-127.940896 L403.810245,-127.940896 L409.039087,-152.246824 L429.639171,-152.246824 Z M497.831111,-152.246824 L482.436326,-80.6462635 C481.975604,-78.5022097 483.063932,-76.3375127 484.620278,-76.2082877 L484.767524,-76.202199 L489.059148,-76.202199 L483.830605,-51.8962706 L463.233919,-51.8962706 C460.907162,-51.8962706 459.022222,-54.5589458 459.022222,-57.8425983 C459.022222,-58.0704991 459.036037,-58.2900365 459.05643,-58.5067861 L459.091048,-58.8305167 L479.17487,-152.246824 L497.831111,-152.246824 Z M532.444444,-152.246824 L509.947746,-51.8962706 L490.488889,-51.8962706 L512.990218,-152.246824 L532.444444,-152.246824 Z M527.142,-289.78756 L525.927352,-284.136123 L507.271111,-284.136123 L508.486,-289.78756 L527.142,-289.78756 Z M495.476,-289.78756 L494.209782,-284.136123 L474.755556,-284.136123 L476.022,-289.78756 L495.476,-289.78756 Z M547.372978,-289.78756 L547.372,-284.13656 L541.884444,-284.136123 L543.099,-289.78756 L547.372978,-289.78756 Z" id="Combined-Shape" transform="translate(395.686489, -59.739517) rotate(6.000000) translate(-395.686489, 59.739517) "></path>
                </g>
            </g>
        </g>
    </g>
</svg>