<?xml version="1.0" encoding="UTF-8"?>
<svg width="231px" height="79px" viewBox="0 0 231 79" version="1.1" xmlns="http://www.w3.org/2000/svg" xmlns:xlink="http://www.w3.org/1999/xlink">
    <!-- Generator: Sketch 64 (93537) - https://sketch.com -->
    <title>Combined Shape</title>
    <desc>Created with Sketch.</desc>
    <defs>
        <rect id="path-1" x="0" y="0" width="311" height="79" rx="10"></rect>
    </defs>
    <g id="Page-1" stroke="none" stroke-width="1" fill="none" fill-rule="evenodd">
        <g id="Draftroom-1366-x-900" transform="translate(-749.000000, -143.000000)">
            <g id="Combined-Shape" transform="translate(749.000000, 143.000000)">
                <mask id="mask-2" fill="white">
                    <use xlink:href="#path-1"></use>
                </mask>
                <g id="Mask"></g>
                <path d="M25,119.999591 L3.54746136,189.999591 L-15,189.999591 L6.44812361,119.999591 L25,119.999591 Z M49.9846109,119.999591 C52.2029176,119.999591 54,121.856952 54,124.147479 C54,124.306453 53.9868293,124.459592 53.967387,124.610787 L53.934382,124.836607 L34.7866704,189.999591 L17,189.999591 L31.6772311,140.054283 C32.1164794,138.558688 31.0788781,137.048694 29.5950735,136.958552 L29.454691,136.954305 L25.3631007,136.954305 L30.3479404,119.999591 L49.9846109,119.999591 Z M115,119.999591 L100.321929,169.944898 C99.8847084,171.440493 100.920441,172.950487 102.406142,173.040629 L102.546713,173.044876 L106.638538,173.044876 L101.653413,189.999591 L82.0135019,189.999591 C79.7971851,189.999591 78,188.142229 78,185.851702 C78,185.692728 78.0131713,185.539589 78.0326148,185.388394 L78.0656216,185.162575 L97.2144287,119.999591 L115,119.999591 Z M181,119.999591 L159.551876,189.999591 L141,189.999591 L162.452539,119.999591 L181,119.999591 Z M148,119.999591 L133.322769,169.944898 C132.883521,171.440493 133.921122,172.950487 135.404927,173.040629 L135.545309,173.044876 L139.636899,173.044876 L134.65206,189.999591 L115.015389,189.999591 C112.797082,189.999591 111,188.142229 111,185.851702 C111,185.692728 111.013171,185.539589 111.032613,185.388394 L111.065618,185.162575 L130.21333,119.999591 L148,119.999591 Z M82.9864981,119.999591 C85.2028149,119.999591 87,121.856952 87,124.147479 C87,124.306453 86.9868287,124.459592 86.9673852,124.610787 L86.9343784,124.836607 L67.7855713,189.999591 L50,189.999591 L64.6780708,140.054283 C65.1152916,138.558688 64.0795593,137.048694 62.5938584,136.958552 L62.4532869,136.954305 L58.3614624,136.954305 L63.3465874,119.999591 L82.9864981,119.999591 Z M168,41.9995906 L146.547461,111.999591 L128,111.999591 L149.448124,41.9995906 L168,41.9995906 Z M193.984611,41.9995906 C196.202918,41.9995906 198,43.8569522 198,46.1474795 C198,46.3064527 197.986829,46.459592 197.967387,46.6107868 L197.934382,46.8366066 L178.78667,111.999591 L161,111.999591 L175.677231,62.0542832 C176.116479,60.5586884 175.078878,59.0486938 173.595073,58.9585524 L173.454691,58.9543051 L169.363101,58.9543051 L174.34794,41.9995906 L193.984611,41.9995906 Z M231,76.757 L231,111.999 L226.013502,111.999591 C223.797185,111.999591 222,110.142229 222,107.851702 C222,107.692728 222.013171,107.539589 222.032615,107.388394 L222.065622,107.162575 L231,76.757 Z M-18,41.9995906 L-39.4525386,111.999591 L-58,111.999591 L-36.5518764,41.9995906 L-18,41.9995906 Z M5.98461085,41.9995906 C8.2029176,41.9995906 10,43.8569522 10,46.1474795 C10,46.3064527 9.98682934,46.459592 9.96738698,46.6107868 L9.93438203,46.8366066 L-9.21332959,111.999591 L-27,111.999591 L-12.3227689,62.0542832 C-11.8835206,60.5586884 -12.9211219,59.0486938 -14.4049265,58.9585524 L-14.545309,58.9543051 L-18.6368993,58.9543051 L-13.6520596,41.9995906 L5.98461085,41.9995906 Z M71,41.9995906 L56.3219292,91.9448979 C55.8847084,93.4404928 56.9204407,94.9504873 58.4061416,95.0406288 L58.5467131,95.0448761 L62.6385376,95.0448761 L57.6534126,111.999591 L38.0135019,111.999591 C35.7971851,111.999591 34,110.142229 34,107.851702 C34,107.692728 34.0131713,107.539589 34.0326148,107.388394 L34.0656216,107.162575 L53.2144287,41.9995906 L71,41.9995906 Z M39.9864981,40.9995906 C42.2028149,40.9995906 44,42.8569522 44,45.1474795 C44,45.3064527 43.9868287,45.459592 43.9673852,45.6107868 L43.9343784,45.8366066 L24.7855713,110.999591 L7,110.999591 L21.6780708,61.0542832 C22.1152916,59.5586884 21.0795593,58.0486938 19.5938584,57.9585524 L19.4532869,57.9543051 L15.3614624,57.9543051 L20.3465874,40.9995906 L39.9864981,40.9995906 Z M136,40.9995906 L114.551876,110.999591 L96,110.999591 L117.452539,40.9995906 L136,40.9995906 Z M105,40.9995906 L90.3227689,90.9448979 C89.8835206,92.4404928 90.9211219,93.9504873 92.4049265,94.0406288 L92.545309,94.0448761 L96.6368993,94.0448761 L91.6520596,110.999591 L72.0153891,110.999591 C69.7970824,110.999591 68,109.142229 68,106.851702 C68,106.692728 68.0131707,106.539589 68.032613,106.388394 L68.065618,106.162575 L87.2133296,40.9995906 L105,40.9995906 Z M225.986498,40.9995906 C228.202815,40.9995906 230,42.8569522 230,45.1474795 C230,45.3064527 229.986829,45.459592 229.967385,45.6107868 L229.934378,45.8366066 L210.785571,110.999591 L193,110.999591 L207.678071,61.0542832 C208.115292,59.5586884 207.079559,58.0486938 205.593858,57.9585524 L205.453287,57.9543051 L201.361462,57.9543051 L206.346587,40.9995906 L225.986498,40.9995906 Z M61,-35.0004094 L39.5474614,34.9995906 L21,34.9995906 L42.4481236,-35.0004094 L61,-35.0004094 Z M86.9846109,-35.0004094 C89.2029176,-35.0004094 91,-33.1430478 91,-30.8525205 C91,-30.6935473 90.9868293,-30.540408 90.967387,-30.3892132 L90.934382,-30.1633934 L71.7866704,34.9995906 L54,34.9995906 L68.6772311,-14.9457168 C69.1164794,-16.4413116 68.0788781,-17.9513062 66.5950735,-18.0414476 L66.454691,-18.0456949 L62.3631007,-18.0456949 L67.3479404,-35.0004094 L86.9846109,-35.0004094 Z M152,-35.0004094 L137.321929,14.9448979 C136.884708,16.4404928 137.920441,17.9504873 139.406142,18.0406288 L139.546713,18.0448761 L143.638538,18.0448761 L138.653413,34.9995906 L119.013502,34.9995906 C116.797185,34.9995906 115,33.142229 115,30.8517017 C115,30.6927285 115.013171,30.5395891 115.032615,30.3883944 L115.065622,30.1625746 L134.214429,-35.0004094 L152,-35.0004094 Z M118.986498,-35.0004094 C121.202815,-35.0004094 123,-33.1430478 123,-30.8525205 C123,-30.6935473 122.986829,-30.540408 122.967385,-30.3892132 L122.934378,-30.1633934 L103.785571,34.9995906 L86,34.9995906 L100.678071,-14.9457168 C101.115292,-16.4413116 100.079559,-17.9513062 98.5938584,-18.0414476 L98.4532869,-18.0456949 L94.3614624,-18.0456949 L99.3465874,-35.0004094 L118.986498,-35.0004094 Z M184,-35.0004094 L169.322769,14.9448979 C168.883521,16.4404928 169.921122,17.9504873 171.404927,18.0406288 L171.545309,18.0448761 L175.636899,18.0448761 L170.65206,34.9995906 L151.015389,34.9995906 C148.797082,34.9995906 147,33.142229 147,30.8517017 C147,30.6927285 147.013171,30.5395891 147.032613,30.3883944 L147.065618,30.1625746 L166.21333,-35.0004094 L184,-35.0004094 Z M217,-35.0004094 L195.551876,34.9995906 L177,34.9995906 L198.452539,-35.0004094 L217,-35.0004094 Z M211.961,-131 L210.78667,-127.000409 L193,-127.000409 L194.175,-131 L211.961,-131 Z M181.773,-131 L180.547461,-127.000409 L162,-127.000409 L163.225,-131 L181.773,-131 Z M231,-131 L231,-127.001 L226,-127.000409 L227.175,-131 L231,-131 Z" fill="#525CD7" opacity="0.29763765" mask="url(#mask-2)"></path>
            </g>
        </g>
    </g>
</svg>