<?xml version="1.0" encoding="UTF-8"?>
<svg width="56px" height="36px" viewBox="0 0 56 36" version="1.1" xmlns="http://www.w3.org/2000/svg" xmlns:xlink="http://www.w3.org/1999/xlink">
    <title>Shape</title>
    <g id="Page-1" stroke="none" stroke-width="1" fill="none" fill-rule="evenodd" opacity="0.229478234">
        <g id="Pre-Draft-Dashboard---Admin" transform="translate(-628.000000, -596.000000)" fill="#FFFFFF" fill-rule="nonzero">
            <g id="Group-8" transform="translate(557.000000, 596.000000)">
                <path d="M94.0612245,25.0344828 L88.28947,48 L83.2993197,48 L89.0698863,25.0344828 L94.0612245,25.0344828 Z M102.886496,25.0344828 C103.531718,25.0344828 104.054422,25.6438438 104.054422,26.3953172 C104.054422,26.447473 104.050591,26.4977148 104.044936,26.5473186 L104.035336,26.6214052 L98.4659887,48 L93.292517,48 L97.5615701,31.6140026 C97.6893308,31.1233296 97.3875318,30.6279324 96.9559489,30.5983589 L96.915117,30.5969655 L95.7250276,30.5969655 L97.1749295,25.0344828 L102.886496,25.0344828 Z M121.734694,25.0344828 L117.465397,41.4204801 C117.338226,41.9111531 117.639481,42.4065504 118.071615,42.4361239 L118.112502,42.4375173 L119.30266,42.4375173 L117.852675,48 L112.140165,48 C111.495522,48 110.972789,47.390639 110.972789,46.6391655 C110.972789,46.5870098 110.97662,46.536768 110.982276,46.4871642 L110.991876,46.4130775 L116.561542,25.0344828 L121.734694,25.0344828 Z M140.183673,25.0344828 L134.413107,48 L129.421769,48 L135.193523,25.0344828 L140.183673,25.0344828 Z M132.496599,25.0344828 L128.227546,41.4204801 C128.099785,41.9111531 128.401584,42.4065504 128.833167,42.4361239 L128.873999,42.4375173 L130.064088,42.4375173 L128.614186,48 L122.902619,48 C122.257397,48 121.734694,47.390639 121.734694,46.6391655 C121.734694,46.5870098 121.738525,46.536768 121.74418,46.4871642 L121.75378,46.4130775 L127.323127,25.0344828 L132.496599,25.0344828 Z M112.880243,25.0344828 C113.524886,25.0344828 114.047619,25.6438438 114.047619,26.3953172 C114.047619,26.447473 114.043788,26.4977148 114.038133,26.5473186 L114.028532,26.6214052 L108.458866,48 L103.285714,48 L107.555012,31.6140026 C107.682183,31.1233296 107.380927,30.6279324 106.948793,30.5983589 L106.907906,30.5969655 L105.717748,30.5969655 L107.167733,25.0344828 L112.880243,25.0344828 Z M137.877551,-1.33333333 L132.105797,21.6321839 L127.115646,21.6321839 L132.886213,-1.33333333 L137.877551,-1.33333333 Z M145.934116,-1.33333333 C146.579337,-1.33333333 147.102041,-0.723972327 147.102041,0.0275011397 C147.102041,0.0796568922 147.09821,0.129898672 147.092555,0.17950246 L147.082955,0.253589147 L141.513608,21.6321839 L136.340136,21.6321839 L140.609189,5.24618652 C140.73695,4.75551353 140.435151,4.26011631 140.003568,4.2305428 L139.962736,4.22914937 L138.772647,4.22914937 L140.222549,-1.33333333 L145.934116,-1.33333333 Z M165.55102,-1.33333333 L161.281723,15.0526641 C161.154552,15.543337 161.455808,16.0387343 161.887942,16.0683078 L161.928829,16.0697012 L163.118986,16.0697012 L161.669001,21.6321839 L155.956492,21.6321839 C155.311849,21.6321839 154.789116,21.0228229 154.789116,20.2713494 C154.789116,20.2191937 154.792947,20.1689519 154.798602,20.1193481 L154.808202,20.0452614 L160.377868,-1.33333333 L165.55102,-1.33333333 Z M81.7619048,-1.33333333 L75.9901503,21.6321839 L71,21.6321839 L76.7705666,-1.33333333 L81.7619048,-1.33333333 Z M89.8184693,-1.33333333 C90.4636911,-1.33333333 90.9863946,-0.723972327 90.9863946,0.0275011397 C90.9863946,0.0796568922 90.9825637,0.129898672 90.9769087,0.17950246 L90.9673088,0.253589147 L85.3979615,21.6321839 L80.2244898,21.6321839 L84.4935429,5.24618652 C84.6213036,4.75551353 84.3195045,4.26011631 83.8879217,4.2305428 L83.8470898,4.22914937 L82.6570004,4.22914937 L84.1069023,-1.33333333 L89.8184693,-1.33333333 Z M109.435374,-1.33333333 L105.166077,15.0526641 C105.038906,15.543337 105.340161,16.0387343 105.772296,16.0683078 L105.813183,16.0697012 L107.00334,16.0697012 L105.553355,21.6321839 L99.8408457,21.6321839 C99.1962028,21.6321839 98.6734694,21.0228229 98.6734694,20.2713494 C98.6734694,20.2191937 98.6773004,20.1689519 98.6829558,20.1193481 L98.6925562,20.0452614 L104.262222,-1.33333333 L109.435374,-1.33333333 Z M99.043508,-1.33333333 C99.688151,-1.33333333 100.210884,-0.723972327 100.210884,0.0275011397 C100.210884,0.0796568922 100.207053,0.129898672 100.201398,0.17950246 L100.191798,0.253589147 L94.6221316,21.6321839 L89.4489796,21.6321839 L93.7182769,5.24618652 C93.8454479,4.75551353 93.5441925,4.26011631 93.1120581,4.2305428 L93.0711711,4.22914937 L91.8810137,4.22914937 L93.3309986,-1.33333333 L99.043508,-1.33333333 Z M127.884354,-1.33333333 L122.113787,21.6321839 L117.122449,21.6321839 L122.894203,-1.33333333 L127.884354,-1.33333333 Z M118.659864,-1.33333333 L114.390811,15.0526641 C114.26305,15.543337 114.564849,16.0387343 114.996432,16.0683078 L115.037264,16.0697012 L116.227353,16.0697012 L114.777451,21.6321839 L109.065884,21.6321839 C108.420663,21.6321839 107.897959,21.0228229 107.897959,20.2713494 C107.897959,20.2191937 107.90179,20.1689519 107.907445,20.1193481 L107.917045,20.0452614 L113.486392,-1.33333333 L118.659864,-1.33333333 Z M155.159154,-1.33333333 C155.803797,-1.33333333 156.326531,-0.723972327 156.326531,0.0275011397 C156.326531,0.0796568922 156.3227,0.129898672 156.317044,0.17950246 L156.307444,0.253589147 L150.737778,21.6321839 L145.564626,21.6321839 L149.833923,5.24618652 C149.961094,4.75551353 149.659839,4.26011631 149.227704,4.2305428 L149.186817,4.22914937 L147.99666,4.22914937 L149.446645,-1.33333333 L155.159154,-1.33333333 Z M184,-1.33333333 L178.229433,21.6321839 L173.238095,21.6321839 L179.00985,-1.33333333 L184,-1.33333333 Z M174.77551,-1.33333333 L170.506457,15.0526641 C170.378696,15.543337 170.680495,16.0387343 171.112078,16.0683078 L171.15291,16.0697012 L172.343,16.0697012 L170.893098,21.6321839 L165.181531,21.6321839 C164.536309,21.6321839 164.013605,21.0228229 164.013605,20.2713494 C164.013605,20.2191937 164.017436,20.1689519 164.023091,20.1193481 L164.032691,20.0452614 L169.602039,-1.33333333 L174.77551,-1.33333333 Z M106.360544,-26 L100.58879,-3.03448276 L95.5986395,-3.03448276 L101.369206,-26 L106.360544,-26 Z M114.417109,-26 C115.062331,-26 115.585034,-25.390639 115.585034,-24.6391655 C115.585034,-24.5870098 115.581203,-24.536768 115.575548,-24.4871642 L115.565948,-24.4130775 L109.996601,-3.03448276 L104.823129,-3.03448276 L109.092182,-19.4204801 C109.219943,-19.9111531 108.918144,-20.4065504 108.486561,-20.4361239 L108.445729,-20.4375173 L107.25564,-20.4375173 L108.705542,-26 L114.417109,-26 Z M132.496599,-26 L128.227301,-9.61400262 C128.10013,-9.12332963 128.401386,-8.6279324 128.83352,-8.59835889 L128.874407,-8.59696546 L130.064565,-8.59696546 L128.61458,-3.03448276 L122.90207,-3.03448276 C122.257427,-3.03448276 121.734694,-3.64384376 121.734694,-4.39531723 C121.734694,-4.44747298 121.738525,-4.49771476 121.74418,-4.54731855 L121.753781,-4.62140524 L127.323447,-26 L132.496599,-26 Z M124.410855,-26 C125.055498,-26 125.578231,-25.390639 125.578231,-24.6391655 C125.578231,-24.5870098 125.5744,-24.536768 125.568745,-24.4871642 L125.559144,-24.4130775 L119.989479,-3.03448276 L114.816327,-3.03448276 L119.085624,-19.4204801 C119.212795,-19.9111531 118.911539,-20.4065504 118.479405,-20.4361239 L118.438518,-20.4375173 L117.248361,-20.4375173 L118.698346,-26 L124.410855,-26 Z M142.489796,-26 L138.220743,-9.61400262 C138.092982,-9.12332963 138.394781,-8.6279324 138.826364,-8.59835889 L138.867196,-8.59696546 L140.057285,-8.59696546 L138.607383,-3.03448276 L132.895816,-3.03448276 C132.250595,-3.03448276 131.727891,-3.64384376 131.727891,-4.39531723 C131.727891,-4.44747298 131.731722,-4.49771476 131.737377,-4.54731855 L131.746977,-4.62140524 L137.316324,-26 L142.489796,-26 Z M151.714286,-26 L145.943719,-3.03448276 L140.952381,-3.03448276 L146.724135,-26 L151.714286,-26 Z" id="Shape"></path>
            </g>
        </g>
    </g>
</svg>