<?xml version="1.0" encoding="UTF-8"?>
<svg width="12px" height="12px" viewBox="0 0 12 12" version="1.1" xmlns="http://www.w3.org/2000/svg" xmlns:xlink="http://www.w3.org/1999/xlink">
    <!-- Generator: Sketch 64 (93537) - https://sketch.com -->
    <title>noun_add_1058879</title>
    <desc>Created with Sketch.</desc>
    <g id="Page-1" stroke="none" stroke-width="1" fill="none" fill-rule="evenodd">
        <g id="Draftroom-1366-x-900-Colum-General" transform="translate(-1338.000000, -300.000000)" fill="#5F6C84" fill-rule="nonzero">
            <g id="Group-12" transform="translate(1221.416488, 289.000000)">
                <g id="Group-8" transform="translate(8.583512, 2.000000)">
                    <g id="noun_add_1058879" transform="translate(114.000000, 15.000000) rotate(-90.000000) translate(-114.000000, -15.000000) translate(108.000000, 9.000000)">
                        <path d="M9.94520548,8.47058824 L9.94520548,7.05672716 C9.94520548,6.66865193 9.6385512,6.35294118 9.26027397,6.35294118 C8.87935945,6.35294118 8.57534247,6.66803689 8.57534247,7.05672716 L8.57534247,8.47058824 L7.20344531,8.47058824 C6.82688829,8.47058824 6.52054795,8.78662253 6.52054795,9.17647059 C6.52054795,9.56903661 6.82629151,9.88235294 7.20344531,9.88235294 L8.57534247,9.88235294 L8.57534247,11.296214 C8.57534247,11.6842892 8.88199675,12 9.26027397,12 C9.64118849,12 9.94520548,11.6849043 9.94520548,11.296214 L9.94520548,9.88235294 L11.3171026,9.88235294 C11.6936597,9.88235294 12,9.56631865 12,9.17647059 C12,8.78390456 11.6942564,8.47058824 11.3171026,8.47058824 L9.94520548,8.47058824 Z M0,0.705882353 C0,0.316034294 0.22373461,1.40554235e-13 0.500347317,1.40554235e-13 L11.4996527,1.40554235e-13 C11.7759869,1.40554235e-13 12,0.313316344 12,0.705882353 C12,1.09573041 11.7762654,1.41176471 11.4996527,1.41176471 L0.500347317,1.41176471 C0.224013124,1.41176471 0,1.09844838 0,0.705882353 Z M0,4.94117647 C0,4.55132841 0.22373461,4.23529412 0.500347317,4.23529412 L11.4996527,4.23529412 C11.7759869,4.23529412 12,4.54861045 12,4.94117647 C12,5.33102453 11.7762654,5.64705882 11.4996527,5.64705882 L0.500347317,5.64705882 C0.224013124,5.64705882 0,5.33374249 0,4.94117647 Z M0,9.17647059 C0,8.78662253 0.221184549,8.47058824 0.494370392,8.47058824 L5.42343782,8.47058824 C5.69647105,8.47058824 5.91780822,8.78390456 5.91780822,9.17647059 C5.91780822,9.56631865 5.69662368,9.88235294 5.42343782,9.88235294 L0.494370392,9.88235294 C0.221337164,9.88235294 0,9.56903661 0,9.17647059 Z" id="Shape"></path>
                    </g>
                </g>
            </g>
        </g>
    </g>
</svg>