<?xml version="1.0" encoding="UTF-8"?>
<svg width="36px" height="36px" viewBox="0 0 36 36" version="1.1" xmlns="http://www.w3.org/2000/svg" xmlns:xlink="http://www.w3.org/1999/xlink">
    <!-- Generator: Sketch 64 (93537) - https://sketch.com -->
    <title>noun_users_2417408</title>
    <desc>Created with Sketch.</desc>
    <g id="Page-1" stroke="none" stroke-width="1" fill="none" fill-rule="evenodd">
        <g id="Draftroom-1366-x-900-End" transform="translate(-588.000000, -355.000000)" fill="#FFFFFF" fill-rule="nonzero">
            <g id="Group-13" transform="translate(475.770270, 252.000000)">
                <g id="noun_users_2417408" transform="translate(111.629730, 103.000000)">
                    <path d="M18.6,0 C8.6588745,0 0.6,8.0588745 0.6,18 C0.6,27.9411255 8.6588745,36 18.6,36 C28.5411255,36 36.6,27.9411255 36.6,18 C36.5882217,8.06375733 28.5362427,0.0117783205 18.6,0 Z M17.475,33.692625 L17.475,22.588875 C16.8129662,22.3061098 16.1294212,22.0766313 15.430875,21.902625 C14.4924818,22.6846565 13.3143949,23.1214261 12.093,23.140125 C10.8716051,23.1214261 9.69351821,22.6846565 8.755125,21.902625 C7.04177198,22.2435984 5.43688665,22.9956592 4.0785,24.094125 C1.3104157,17.5011689 3.33100418,9.87079824 8.9992467,5.51185481 C14.6674892,1.15291137 22.5608594,1.15933422 28.2220006,5.52749638 C33.8831419,9.89565855 35.89131,17.5293074 33.1125,24.11775 C31.7469303,23.0362032 30.1536385,22.2787933 28.45275,21.902625 C26.5345031,23.5556932 23.6952469,23.5556932 21.777,21.902625 C21.0755301,22.0612827 20.3890014,22.2799632 19.725,22.55625 L19.725,33.69375 C19.3515,33.72075 18.98025,33.751125 18.6,33.751125 C18.21975,33.751125 17.8485,33.719625 17.475,33.692625 Z" id="Shape"></path>
                    <circle id="Oval" cx="12.1" cy="15.5" r="5.5"></circle>
                    <circle id="Oval" cx="25.1" cy="15.5" r="5.5"></circle>
                </g>
            </g>
        </g>
    </g>
</svg>