<?xml version="1.0" encoding="UTF-8"?>
<svg width="416px" height="87px" viewBox="0 0 416 87" version="1.1" xmlns="http://www.w3.org/2000/svg" xmlns:xlink="http://www.w3.org/1999/xlink">
    <!-- Generator: Sketch 64 (93537) - https://sketch.com -->
    <title>Group 10</title>
    <desc>Created with Sketch.</desc>
    <g id="Page-1" stroke="none" stroke-width="1" fill="none" fill-rule="evenodd">
        <g id="Draftroom-1366-x-900-Empty-Watchlist" transform="translate(-524.000000, -517.000000)">
            <g id="Group-10" transform="translate(254.000000, 517.000000)">
                <text id="You-haven’t-started" opacity="0.502139137" font-family="Roboto-Bold, Roboto" font-size="15" font-weight="bold" line-spacing="29" fill="#606380">
                    <tspan x="328.362549" y="49">You haven’t started watching any players yet</tspan>
                </text>
                <text id="Click-the-watch-butt" opacity="0.502139137" font-family="Roboto-Regular, Roboto" font-size="15" font-weight="normal" line-spacing="29" fill="#606380">
                    <tspan x="269.790771" y="77">Click the watch button to start adding players to your Watchlist</tspan>
                </text>
                <g id="noun_negative_3057070-copy" opacity="0.535505022" transform="translate(483.000000, 0.000000)" fill="#606380" fill-rule="nonzero">
                    <path d="M2.81098809,3.22222222 L1.22902324,1.57162232 C0.884443235,1.21209183 0.884443235,0.629178016 1.22902324,0.269647524 C1.57360368,-0.0898825079 2.13227868,-0.0898825079 2.47685912,0.269647524 L4.05882353,1.92024789 L5.64078794,0.269647524 C5.98536838,-0.0898825079 6.54404338,-0.0898825079 6.88862382,0.269647524 C7.23320382,0.629178016 7.23320382,1.21209183 6.88862382,1.57162232 L5.30665897,3.22222222 L6.88862382,4.87282213 C7.23320382,5.23235262 7.23320382,5.81526643 6.88862382,6.17479692 C6.54404338,6.53432695 5.98536838,6.53432695 5.64078794,6.17479692 L4.05882353,4.52419656 L2.47685912,6.17479692 C2.13227868,6.53432695 1.57360368,6.53432695 1.22902324,6.17479692 C0.884443235,5.81526643 0.884443235,5.23235262 1.22902324,4.87282213 L2.81098809,3.22222222 Z" id="Shape"></path>
                </g>
                <g id="noun_player_2591774" transform="translate(465.000000, 6.000000)" fill="#A6A9BA" fill-rule="nonzero">
                    <path d="M8.37,10.6059375 C11.2405,10.6059375 13.5675,8.27893749 13.5675,5.4084375 C13.5675,2.53793751 11.2405,0.2109375 8.37,0.2109375 C5.49950001,0.2109375 3.1725,2.53793751 3.1725,5.4084375 C3.17714547,8.27701107 5.50142643,10.601292 8.37,10.6059375 Z M8.37,2.1684375 C9.68957746,2.16503658 10.8807973,2.95821679 11.3865577,4.17702879 C11.892318,5.3958408 11.6126534,6.79938177 10.6783555,7.73125288 C9.74405769,8.66312398 8.33979412,8.93913735 7.12230161,8.43020885 C5.9048091,7.92128035 5.11472967,6.72800165 5.12151853,5.4084375 C5.12151853,3.61300501 6.57457353,2.15621388 8.37,2.1515625 L8.37,2.1684375 Z" id="Shape"></path>
                    <path d="M23.72625,15.879375 C21.3611901,13.5180348 17.6451874,13.1876445 14.900625,15.0946875 C14.6777747,14.7976202 14.4353618,14.5157449 14.175,14.2509375 C12.6438921,12.7038453 10.5550646,11.8373011 8.3784375,11.8461814 C3.84435229,11.8461814 0.16875,15.5218523 0.16875,20.0559375 L0.16875,24.19875 C0.16875,24.4575615 0.272126689,24.7056516 0.455924545,24.887865 C0.6397224,25.0700784 0.888698326,25.171313 1.1475,25.1690992 L24.7725,25.1690992 C25.0313017,25.171313 25.2802776,25.0700784 25.4640755,24.887865 C25.6478733,24.7056516 25.7512598,24.4575615 25.75125,24.19875 L25.75125,20.82375 C25.7693425,18.9702312 25.0393018,17.1877152 23.72625,15.879375 Z M2.1178125,20.0559375 C2.1224604,16.6048767 4.91893925,13.8083979 8.37,13.8037043 C10.0311399,13.7973613 11.6248248,14.4603829 12.79125,15.643125 C13.1912694,16.0489375 13.5321193,16.5090848 13.80375,17.01 C14.3455095,17.9344872 14.6363618,18.9844638 14.6475,20.0559375 L14.6475,23.2284375 L2.1178125,23.2284375 L2.1178125,20.0559375 Z M23.810625,23.2284375 L16.57125,23.2284375 L16.57125,20.0559375 C16.5706278,19.731621 16.5509062,19.4076226 16.5121875,19.085625 C16.5121875,18.984375 16.5121875,18.883125 16.4615625,18.781875 C16.4109375,18.680625 16.385625,18.3515625 16.335,18.1321875 C16.284375,17.9128125 16.2759375,17.904375 16.2421875,17.7946875 C16.2084375,17.685 16.115625,17.3896875 16.0396875,17.195625 C15.96375,17.0015625 15.96375,16.9846875 15.9215625,16.8834375 L15.879375,16.7653125 C17.3986154,15.6456571 19.4203659,15.4813805 21.1004378,16.3410769 C22.7805097,17.2007732 23.8299747,18.9365974 23.810625,20.82375 L23.810625,23.2621875 L23.810625,23.2284375 Z" id="Shape"></path>
                    <path d="M18.86625,12.571875 C21.3266786,12.571875 23.32125,10.5773036 23.32125,8.116875 C23.32125,5.65644644 21.3266786,3.661875 18.86625,3.661875 C16.4058214,3.661875 14.41125,5.65644644 14.41125,8.116875 C14.4158931,10.5753778 16.4077472,12.5672319 18.86625,12.571875 L18.86625,12.571875 Z M18.86625,5.63625 C20.2642208,5.63625 21.3975,6.76952923 21.3975,8.1675 C21.3975,9.56547077 20.2642208,10.69875 18.86625,10.69875 C17.4682792,10.69875 16.335,9.56547077 16.335,8.1675 C16.335,6.76952923 17.4682792,5.63625 18.86625,5.63625 Z" id="Shape"></path>
                </g>
            </g>
        </g>
    </g>
</svg>