<?xml version="1.0" encoding="UTF-8"?>
<svg width="17px" height="13px" viewBox="0 0 17 13" version="1.1" xmlns="http://www.w3.org/2000/svg" xmlns:xlink="http://www.w3.org/1999/xlink">
    <!-- Generator: Sketch 64 (93537) - https://sketch.com -->
    <title>noun_filter_1938478</title>
    <desc>Created with Sketch.</desc>
    <g id="Page-1" stroke="none" stroke-width="1" fill="none" fill-rule="evenodd">
        <g id="Draftroom-1366-x-900" transform="translate(-1318.000000, -253.000000)" fill="#2B2B75" fill-rule="nonzero">
            <g id="noun_filter_1938478" transform="translate(1318.000000, 253.000000)">
                <path d="M5.43551738,0.764 C4.13085482,0.76518986 2.99876892,1.66105543 2.70257568,2.92668781 L0.64527789,2.92668781 C0.28890075,2.92668781 0,3.21445986 0,3.56944467 C0,3.92442948 0.28890075,4.21220153 0.64527789,4.21220154 L2.70257568,4.21220154 C3.00309993,5.47350774 4.13409034,6.364 5.43551738,6.364 C6.73694443,6.364 7.86793483,5.47350774 8.16845909,4.21220154 L16.1547221,4.21220154 C16.5110992,4.21220154 16.8,3.92442948 16.8,3.56944467 C16.8,3.21445986 16.5110992,2.92668781 16.1547221,2.92668781 L8.16845909,2.92668781 C7.87226585,1.66105543 6.74017995,0.76518986 5.43551738,0.764 Z M5.43551738,5.08937561 C4.59698292,5.08937561 3.91721643,4.4122649 3.91721643,3.57700652 C3.91721643,2.74174813 4.59698292,2.06463742 5.43551738,2.06463742 C6.27405184,2.06463742 6.95381833,2.74174813 6.95381833,3.57700652 C6.95381833,4.4122649 6.27405184,5.08937561 5.43551738,5.08937561 L5.43551738,5.08937561 Z" id="Shape"></path>
                <path d="M11.3872571,7.164 C10.0825945,7.16518986 8.95050862,8.06105543 8.65431538,9.32668781 L0.645277876,9.32668781 C0.288900741,9.32668782 0,9.61445987 0,9.96944467 C0,10.3244295 0.288900741,10.6122015 0.645277876,10.6122015 L8.63154087,10.6122015 C8.93206512,11.8735077 10.0630555,12.764 11.3644826,12.764 C12.6659096,12.764 13.7969,11.8735077 14.0974243,10.6122015 L16.1547221,10.6122015 C16.5110992,10.6122015 16.8,10.3244295 16.8,9.96944467 C16.8,9.61445986 16.5110992,9.32668781 16.1547221,9.32668781 L14.0974243,9.32668781 C13.803207,8.06926309 12.683394,7.17566287 11.3872571,7.164 L11.3872571,7.164 Z M11.3872571,11.4742519 C10.5487226,11.4742519 9.86895614,10.7971412 9.86895614,9.96188282 C9.86895614,9.12662444 10.5487226,8.44951373 11.3872571,8.44951373 C12.2257915,8.44951373 12.905558,9.12662444 12.905558,9.96188282 C12.905558,10.7971412 12.2257915,11.4742519 11.3872571,11.4742519 Z" id="Shape"></path>
            </g>
        </g>
    </g>
</svg>