<?xml version="1.0" encoding="UTF-8"?>
<svg width="283px" height="220px" viewBox="0 0 283 220" version="1.1" xmlns="http://www.w3.org/2000/svg" xmlns:xlink="http://www.w3.org/1999/xlink">
    <!-- Generator: Sketch 64 (93537) - https://sketch.com -->
    <title>Combined Shape</title>
    <desc>Created with Sketch.</desc>
    <g id="Page-1" stroke="none" stroke-width="1" fill="none" fill-rule="evenodd" opacity="0.303590031">
        <g id="Draftroom-1366-x-900-Autodraft" transform="translate(-707.000000, -295.000000)" fill="#525CD7">
            <g id="Group-13" transform="translate(475.770270, -24.000000)">
                <path d="M312.56973,470.808118 L291.546242,539 L273.36973,539 L294.388891,470.808118 L312.56973,470.808118 Z M337.054648,470.808118 C339.228589,470.808118 340.98973,472.617504 340.98973,474.848866 C340.98973,475.003733 340.976822,475.152917 340.957769,475.300206 L340.925424,475.520193 L322.160667,539 L304.72973,539 L319.113416,490.344793 C319.54388,488.88783 318.52703,487.416839 317.072902,487.329026 L316.935327,487.324888 L312.925568,487.324888 L317.810711,470.808118 L337.054648,470.808118 Z M400.76973,470.808118 L386.38522,519.463325 C385.956744,520.920288 386.971762,522.391279 388.427749,522.479093 L388.565509,522.48323 L392.575497,522.48323 L387.690074,539 L368.442962,539 C366.270971,539 364.50973,537.190615 364.50973,534.959252 C364.50973,534.804385 364.522638,534.655202 364.541692,534.507912 L364.574039,534.287925 L383.33987,470.808118 L400.76973,470.808118 Z M465.44973,470.808118 L444.430569,539 L426.24973,539 L447.273218,470.808118 L465.44973,470.808118 Z M433.10973,470.808118 L418.726043,519.463325 C418.29558,520.920288 419.312429,522.391279 420.766558,522.479093 L420.904133,522.48323 L424.913891,522.48323 L420.028748,539 L400.784811,539 C398.61087,539 396.84973,537.190615 396.84973,534.959252 C396.84973,534.804385 396.862637,534.655202 396.88169,534.507912 L396.914035,534.287925 L415.678793,470.808118 L433.10973,470.808118 Z M369.396498,470.808118 C371.568488,470.808118 373.32973,472.617504 373.32973,474.848866 C373.32973,475.003733 373.316822,475.152917 373.297767,475.300206 L373.265421,475.520193 L354.49959,539 L337.06973,539 L351.454239,490.344793 C351.882716,488.88783 350.867698,487.416839 349.411711,487.329026 L349.273951,487.324888 L345.263963,487.324888 L350.149385,470.808118 L369.396498,470.808118 Z M452.70973,394.822878 L431.686242,463.01476 L413.50973,463.01476 L434.528891,394.822878 L452.70973,394.822878 Z M478.174648,394.822878 C480.348589,394.822878 482.10973,396.632264 482.10973,398.863626 C482.10973,399.018493 482.096822,399.167677 482.077769,399.314966 L482.045424,399.534953 L463.280667,463.01476 L445.84973,463.01476 L460.233416,414.359553 C460.66388,412.90259 459.64703,411.431599 458.192902,411.343786 L458.055327,411.339648 L454.045568,411.339648 L458.930711,394.822878 L478.174648,394.822878 Z M514.22973,429.427808 L514.22973,463.013808 L509.562962,463.01476 C507.390971,463.01476 505.62973,461.205375 505.62973,458.974012 C505.62973,458.819145 505.642638,458.669962 505.661692,458.522672 L505.694039,458.302686 L514.22973,429.427808 Z M270.42973,394.822878 L249.406242,463.01476 L231.22973,463.01476 L252.248891,394.822878 L270.42973,394.822878 Z M293.934648,394.822878 C296.108589,394.822878 297.86973,396.632264 297.86973,398.863626 C297.86973,399.018493 297.856822,399.167677 297.837769,399.314966 L297.805424,399.534953 L279.040667,463.01476 L261.60973,463.01476 L275.993416,414.359553 C276.42388,412.90259 275.40703,411.431599 273.952902,411.343786 L273.815327,411.339648 L269.805568,411.339648 L274.690711,394.822878 L293.934648,394.822878 Z M357.64973,394.822878 L343.26522,443.478085 C342.836744,444.935049 343.851762,446.40604 345.307749,446.493853 L345.445509,446.49799 L349.455497,446.49799 L344.570074,463.01476 L325.322962,463.01476 C323.150971,463.01476 321.38973,461.205375 321.38973,458.974012 C321.38973,458.819145 321.402638,458.669962 321.421692,458.522672 L321.454039,458.302686 L340.21987,394.822878 L357.64973,394.822878 Z M327.256498,393.848708 C329.428488,393.848708 331.18973,395.658094 331.18973,397.889456 C331.18973,398.044323 331.176822,398.193507 331.157767,398.340796 L331.125421,398.560783 L312.35959,462.04059 L294.92973,462.04059 L309.314239,413.385383 C309.742716,411.92842 308.727698,410.457429 307.271711,410.369616 L307.133951,410.365478 L303.123963,410.365478 L308.009385,393.848708 L327.256498,393.848708 Z M421.34973,393.848708 L400.330569,462.04059 L382.14973,462.04059 L403.173218,393.848708 L421.34973,393.848708 Z M390.96973,393.848708 L376.586043,442.503916 C376.15558,443.960879 377.172429,445.43187 378.626558,445.519683 L378.764133,445.523821 L382.773891,445.523821 L377.888748,462.04059 L358.644811,462.04059 C356.47087,462.04059 354.70973,460.231205 354.70973,457.999843 C354.70973,457.844976 354.722637,457.695792 354.74169,457.548503 L354.774035,457.328516 L373.538793,393.848708 L390.96973,393.848708 Z M509.536498,393.848708 C511.708488,393.848708 513.46973,395.658094 513.46973,397.889456 C513.46973,398.044323 513.456822,398.193507 513.437767,398.340796 L513.405421,398.560783 L494.63959,462.04059 L477.20973,462.04059 L491.594239,413.385383 C492.022716,411.92842 491.007698,410.457429 489.551711,410.369616 L489.413951,410.365478 L485.403963,410.365478 L490.289385,393.848708 L509.536498,393.848708 Z M347.84973,319.811808 L326.826242,388.00369 L308.64973,388.00369 L329.668891,319.811808 L347.84973,319.811808 Z M373.314648,319.811808 C375.488589,319.811808 377.24973,321.621194 377.24973,323.852556 C377.24973,324.007423 377.236822,324.156607 377.217769,324.303896 L377.185424,324.523883 L358.420667,388.00369 L340.98973,388.00369 L355.373416,339.348483 C355.80388,337.89152 354.78703,336.420529 353.332902,336.332716 L353.195327,336.328578 L349.185568,336.328578 L354.070711,319.811808 L373.314648,319.811808 Z M437.02973,319.811808 L422.64522,368.467015 C422.216744,369.923979 423.231762,371.39497 424.687749,371.482783 L424.825509,371.48692 L428.835497,371.48692 L423.950074,388.00369 L404.702962,388.00369 C402.530971,388.00369 400.76973,386.194305 400.76973,383.962942 C400.76973,383.808075 400.782638,383.658892 400.801692,383.511602 L400.834039,383.291615 L419.59987,319.811808 L437.02973,319.811808 Z M404.676498,319.811808 C406.848488,319.811808 408.60973,321.621194 408.60973,323.852556 C408.60973,324.007423 408.596822,324.156607 408.577767,324.303896 L408.545421,324.523883 L389.77959,388.00369 L372.34973,388.00369 L386.734239,339.348483 C387.162716,337.89152 386.147698,336.420529 384.691711,336.332716 L384.553951,336.328578 L380.543963,336.328578 L385.429385,319.811808 L404.676498,319.811808 Z M468.38973,319.811808 L454.006043,368.467015 C453.57558,369.923979 454.592429,371.39497 456.046558,371.482783 L456.184133,371.48692 L460.193891,371.48692 L455.308748,388.00369 L436.064811,388.00369 C433.89087,388.00369 432.12973,386.194305 432.12973,383.962942 C432.12973,383.808075 432.142637,383.658892 432.16169,383.511602 L432.194035,383.291615 L450.958793,319.811808 L468.38973,319.811808 Z M500.72973,319.811808 L479.710569,388.00369 L461.52973,388.00369 L482.553218,319.811808 L500.72973,319.811808 Z" id="Combined-Shape"></path>
            </g>
        </g>
    </g>
</svg>