<?xml version="1.0" encoding="UTF-8"?>
<svg width="283px" height="220px" viewBox="0 0 283 220" version="1.1" xmlns="http://www.w3.org/2000/svg" xmlns:xlink="http://www.w3.org/1999/xlink">
    <!-- Generator: Sketch 64 (93537) - https://sketch.com -->
    <title>Combined Shape</title>
    <desc>Created with Sketch.</desc>
    <g id="Page-1" stroke="none" stroke-width="1" fill="none" fill-rule="evenodd" opacity="0.645154391">
        <g id="Draftroom-1366-x-900-End" transform="translate(-707.000000, -295.000000)" fill="#525CD7">
            <g id="Group-13" transform="translate(475.770270, 252.000000)">
                <path d="M312.56973,194.808118 L291.546242,263 L273.36973,263 L294.388891,194.808118 L312.56973,194.808118 Z M337.054648,194.808118 C339.228589,194.808118 340.98973,196.617504 340.98973,198.848866 C340.98973,199.003733 340.976822,199.152917 340.957769,199.300206 L340.925424,199.520193 L322.160667,263 L304.72973,263 L319.113416,214.344793 C319.54388,212.88783 318.52703,211.416839 317.072902,211.329026 L316.935327,211.324888 L312.925568,211.324888 L317.810711,194.808118 L337.054648,194.808118 Z M400.76973,194.808118 L386.38522,243.463325 C385.956744,244.920288 386.971762,246.391279 388.427749,246.479093 L388.565509,246.48323 L392.575497,246.48323 L387.690074,263 L368.442962,263 C366.270971,263 364.50973,261.190615 364.50973,258.959252 C364.50973,258.804385 364.522638,258.655202 364.541692,258.507912 L364.574039,258.287925 L383.33987,194.808118 L400.76973,194.808118 Z M465.44973,194.808118 L444.430569,263 L426.24973,263 L447.273218,194.808118 L465.44973,194.808118 Z M433.10973,194.808118 L418.726043,243.463325 C418.29558,244.920288 419.312429,246.391279 420.766558,246.479093 L420.904133,246.48323 L424.913891,246.48323 L420.028748,263 L400.784811,263 C398.61087,263 396.84973,261.190615 396.84973,258.959252 C396.84973,258.804385 396.862637,258.655202 396.88169,258.507912 L396.914035,258.287925 L415.678793,194.808118 L433.10973,194.808118 Z M369.396498,194.808118 C371.568488,194.808118 373.32973,196.617504 373.32973,198.848866 C373.32973,199.003733 373.316822,199.152917 373.297767,199.300206 L373.265421,199.520193 L354.49959,263 L337.06973,263 L351.454239,214.344793 C351.882716,212.88783 350.867698,211.416839 349.411711,211.329026 L349.273951,211.324888 L345.263963,211.324888 L350.149385,194.808118 L369.396498,194.808118 Z M452.70973,118.822878 L431.686242,187.01476 L413.50973,187.01476 L434.528891,118.822878 L452.70973,118.822878 Z M478.174648,118.822878 C480.348589,118.822878 482.10973,120.632264 482.10973,122.863626 C482.10973,123.018493 482.096822,123.167677 482.077769,123.314966 L482.045424,123.534953 L463.280667,187.01476 L445.84973,187.01476 L460.233416,138.359553 C460.66388,136.90259 459.64703,135.431599 458.192902,135.343786 L458.055327,135.339648 L454.045568,135.339648 L458.930711,118.822878 L478.174648,118.822878 Z M514.22973,153.427808 L514.22973,187.013808 L509.562962,187.01476 C507.390971,187.01476 505.62973,185.205375 505.62973,182.974012 C505.62973,182.819145 505.642638,182.669962 505.661692,182.522672 L505.694039,182.302686 L514.22973,153.427808 Z M270.42973,118.822878 L249.406242,187.01476 L231.22973,187.01476 L252.248891,118.822878 L270.42973,118.822878 Z M293.934648,118.822878 C296.108589,118.822878 297.86973,120.632264 297.86973,122.863626 C297.86973,123.018493 297.856822,123.167677 297.837769,123.314966 L297.805424,123.534953 L279.040667,187.01476 L261.60973,187.01476 L275.993416,138.359553 C276.42388,136.90259 275.40703,135.431599 273.952902,135.343786 L273.815327,135.339648 L269.805568,135.339648 L274.690711,118.822878 L293.934648,118.822878 Z M357.64973,118.822878 L343.26522,167.478085 C342.836744,168.935049 343.851762,170.40604 345.307749,170.493853 L345.445509,170.49799 L349.455497,170.49799 L344.570074,187.01476 L325.322962,187.01476 C323.150971,187.01476 321.38973,185.205375 321.38973,182.974012 C321.38973,182.819145 321.402638,182.669962 321.421692,182.522672 L321.454039,182.302686 L340.21987,118.822878 L357.64973,118.822878 Z M327.256498,117.848708 C329.428488,117.848708 331.18973,119.658094 331.18973,121.889456 C331.18973,122.044323 331.176822,122.193507 331.157767,122.340796 L331.125421,122.560783 L312.35959,186.04059 L294.92973,186.04059 L309.314239,137.385383 C309.742716,135.92842 308.727698,134.457429 307.271711,134.369616 L307.133951,134.365478 L303.123963,134.365478 L308.009385,117.848708 L327.256498,117.848708 Z M421.34973,117.848708 L400.330569,186.04059 L382.14973,186.04059 L403.173218,117.848708 L421.34973,117.848708 Z M390.96973,117.848708 L376.586043,166.503916 C376.15558,167.960879 377.172429,169.43187 378.626558,169.519683 L378.764133,169.523821 L382.773891,169.523821 L377.888748,186.04059 L358.644811,186.04059 C356.47087,186.04059 354.70973,184.231205 354.70973,181.999843 C354.70973,181.844976 354.722637,181.695792 354.74169,181.548503 L354.774035,181.328516 L373.538793,117.848708 L390.96973,117.848708 Z M509.536498,117.848708 C511.708488,117.848708 513.46973,119.658094 513.46973,121.889456 C513.46973,122.044323 513.456822,122.193507 513.437767,122.340796 L513.405421,122.560783 L494.63959,186.04059 L477.20973,186.04059 L491.594239,137.385383 C492.022716,135.92842 491.007698,134.457429 489.551711,134.369616 L489.413951,134.365478 L485.403963,134.365478 L490.289385,117.848708 L509.536498,117.848708 Z M347.84973,43.8118081 L326.826242,112.00369 L308.64973,112.00369 L329.668891,43.8118081 L347.84973,43.8118081 Z M373.314648,43.8118081 C375.488589,43.8118081 377.24973,45.6211936 377.24973,47.8525559 C377.24973,48.0074229 377.236822,48.1566066 377.217769,48.3038959 L377.185424,48.5238827 L358.420667,112.00369 L340.98973,112.00369 L355.373416,63.3484829 C355.80388,61.8915196 354.78703,60.4205286 353.332902,60.3327156 L353.195327,60.328578 L349.185568,60.328578 L354.070711,43.8118081 L373.314648,43.8118081 Z M437.02973,43.8118081 L422.64522,92.4670153 C422.216744,93.9239785 423.231762,95.3949695 424.687749,95.4827826 L424.825509,95.4869202 L428.835497,95.4869202 L423.950074,112.00369 L404.702962,112.00369 C402.530971,112.00369 400.76973,110.194305 400.76973,107.962942 C400.76973,107.808075 400.782638,107.658892 400.801692,107.511602 L400.834039,107.291615 L419.59987,43.8118081 L437.02973,43.8118081 Z M404.676498,43.8118081 C406.848488,43.8118081 408.60973,45.6211936 408.60973,47.8525559 C408.60973,48.0074229 408.596822,48.1566066 408.577767,48.3038959 L408.545421,48.5238827 L389.77959,112.00369 L372.34973,112.00369 L386.734239,63.3484829 C387.162716,61.8915196 386.147698,60.4205286 384.691711,60.3327156 L384.553951,60.328578 L380.543963,60.328578 L385.429385,43.8118081 L404.676498,43.8118081 Z M468.38973,43.8118081 L454.006043,92.4670153 C453.57558,93.9239785 454.592429,95.3949695 456.046558,95.4827826 L456.184133,95.4869202 L460.193891,95.4869202 L455.308748,112.00369 L436.064811,112.00369 C433.89087,112.00369 432.12973,110.194305 432.12973,107.962942 C432.12973,107.808075 432.142637,107.658892 432.16169,107.511602 L432.194035,107.291615 L450.958793,43.8118081 L468.38973,43.8118081 Z M500.72973,43.8118081 L479.710569,112.00369 L461.52973,112.00369 L482.553218,43.8118081 L500.72973,43.8118081 Z" id="Combined-Shape"></path>
            </g>
        </g>
    </g>
</svg>