<?xml version="1.0" encoding="UTF-8"?>
<svg width="36px" height="36px" viewBox="0 0 36 36" version="1.1" xmlns="http://www.w3.org/2000/svg" xmlns:xlink="http://www.w3.org/1999/xlink">
    <!-- Generator: Sketch 64 (93537) - https://sketch.com -->
    <title>Group 14</title>
    <desc>Created with Sketch.</desc>
    <g id="Page-1" stroke="none" stroke-width="1" fill="none" fill-rule="evenodd">
        <g id="Draftroom-1366-x-900" transform="translate(-122.000000, -53.000000)">
            <g id="Group-14" transform="translate(128.330400, 59.332000)">
                <g id="noun_clock_1495285" transform="translate(4.669600, 4.668000)" fill="#FFFFFF">
                    <path d="M7,14 C3.13400675,14 0,10.8659932 0,7 C0,3.13400675 3.13400675,0 7,0 C10.8659932,0 14,3.13400675 14,7 C14,10.8659932 10.8659932,14 7,14 Z M7,1.16666667 C3.77833896,1.16666667 1.16666667,3.77833896 1.16666667,7 C1.16666667,10.221661 3.77833896,12.8333333 7,12.8333333 C10.221661,12.8333333 12.8333333,10.221661 12.8333333,7 C12.8333333,3.77833896 10.221661,1.16666667 7,1.16666667 Z M8.30083333,9.15833333 L6.59166667,7.44391667 C6.47119484,7.32553575 6.40744676,7.1610657 6.41666667,6.99241667 L6.41666667,4.08333333 C6.41666667,3.76116723 6.6778339,3.5 7,3.5 C7.3221661,3.5 7.58333333,3.76116723 7.58333333,4.08333333 L7.58333333,6.72641667 L9.15833333,8.30141667 C9.39496434,8.53820875 9.39483375,8.921994 9.15804167,9.158625 C8.92124958,9.395256 8.53746434,9.39512542 8.30083333,9.15833333 Z" id="Shape"></path>
                </g>
                <g id="Group-13" stroke="#FFFFFF">
                    <circle id="Oval" stroke-width="5.8176" opacity="0.197684152" cx="11.6352" cy="11.6352" r="14.544"></circle>
                    <circle id="Oval" stroke-width="0.861866667" opacity="0.36437407" cx="11.6352" cy="11.6352" r="11.2042667"></circle>
                </g>
            </g>
        </g>
    </g>
</svg>