<?xml version="1.0" encoding="UTF-8"?>
<svg width="20px" height="11px" viewBox="0 0 20 11" version="1.1" xmlns="http://www.w3.org/2000/svg" xmlns:xlink="http://www.w3.org/1999/xlink">
    <title>Injured</title>
    <g id="Page-1" stroke="none" stroke-width="1" fill="none" fill-rule="evenodd">
        <g id="Upcoming-GW---Proj-Pts-Filter" transform="translate(-235.000000, -441.000000)">
            <g id="Injured" transform="translate(235.000000, 441.000000)">
                <rect id="Rectangle" fill="#F1C351" x="0" y="0" width="20" height="10.7142857" rx="5.35714286"></rect>
                <g id="Group-53" transform="translate(5.714286, 2.142857)" fill="#FFFFFF" fill-rule="nonzero" opacity="0.5">
                    <path d="M8.20303629,-4.43010707e-13 C8.3996909,-4.43010707e-13 8.56038872,0.14504019 8.5708834,0.327820429 L8.57142857,0.346858955 L8.57142857,6.08181146 C8.57142857,6.26697119 8.41738415,6.41818337 8.22325675,6.42805845 L8.20303629,6.42857143 L0.368182009,6.42857143 C0.171629028,6.42857143 0.0110328441,6.28353124 0.00054482402,6.10084042 L0,6.08181146 L0,0.346858955 C0,0.161603541 0.154044418,0.0103881705 0.347981887,0.000512985213 L0.368182009,-4.43010707e-13 L8.20303629,-4.43010707e-13 Z M4.86847639,1.16421466 L3.84509441,1.16421466 C3.7911077,1.16421466 3.74673009,1.20228216 3.74066588,1.25146995 L3.73995963,1.26300611 L3.73995963,2.6170825 L2.3017158,2.6170825 C2.24792434,2.6170825 2.20374198,2.65540605 2.19770466,2.70455116 L2.19700156,2.71607192 L2.19700156,3.67963501 C2.19700156,3.730558 2.23734166,3.77226286 2.28948595,3.77796088 L2.3017158,3.77862444 L3.73995963,3.77862444 L3.73995963,5.13250285 C3.73995963,5.183242 3.78048104,5.22501908 3.83281958,5.23072836 L3.84509441,5.23139329 L4.86847639,5.23139329 C4.92226785,5.23139329 4.96681281,5.19324044 4.97290193,5.14404046 L4.97361117,5.13250285 L4.97361117,3.77862444 L6.41164473,3.77862444 C6.46543619,3.77862444 6.50979985,3.74055695 6.51586307,3.69121065 L6.51656924,3.67963501 L6.51656924,2.71607192 C6.51656924,2.66542469 6.47604783,2.62348348 6.42387764,2.61775028 L6.41164473,2.6170825 L4.97361117,2.6170825 L4.97361117,1.26300611 C4.97361117,1.21226696 4.93290845,1.17057524 4.88071237,1.16487815 L4.86847639,1.16421466 Z" id="Shape"></path>
                </g>
            </g>
        </g>
    </g>
</svg>