<?xml version="1.0" encoding="UTF-8"?>
<svg width="20px" height="11px" viewBox="0 0 20 11" version="1.1" xmlns="http://www.w3.org/2000/svg" xmlns:xlink="http://www.w3.org/1999/xlink">
    <title>Injured</title>
    <g id="Page-1" stroke="none" stroke-width="1" fill="none" fill-rule="evenodd">
        <g id="Upcoming-GW---Proj-Pts-Filter---Sub-Player-Out-of-Starting-Lineup" transform="translate(-172.000000, -462.000000)">
            <g id="Group-9" transform="translate(0.000000, -600.000000)">
                <g id="Injured" transform="translate(172.000000, 1062.000000)">
                    <rect id="Rectangle" fill="#F86364" x="0" y="0" width="20" height="11" rx="5.5"></rect>
                    <g id="Group-53" transform="translate(5.714286, 2.200000)" fill="#FFFFFF" fill-rule="nonzero" opacity="0.5">
                        <path d="M8.20303629,-4.54688139e-13 C8.3996909,-4.54688139e-13 8.56038872,0.148907928 8.5708834,0.336562307 L8.57142857,0.356108528 L8.57142857,6.2439931 C8.57142857,6.43409042 8.41738415,6.58933492 8.22325675,6.59947334 L8.20303629,6.6 L0.368182009,6.6 C0.171629028,6.6 0.0110328441,6.45109207 0.00054482402,6.26352949 L0,6.2439931 L0,0.356108528 C0,0.165912968 0.154044418,0.0106651884 0.347981887,0.000526664818 L0.368182009,-4.54688139e-13 L8.20303629,-4.54688139e-13 Z M4.86847639,1.19526039 L3.84509441,1.19526039 C3.7911077,1.19526039 3.74673009,1.23434302 3.74066588,1.28484248 L3.73995963,1.29668627 L3.73995963,2.68687136 L2.3017158,2.68687136 C2.24792434,2.68687136 2.20374198,2.72621688 2.19770466,2.77667253 L2.19700156,2.78850051 L2.19700156,3.77775862 C2.19700156,3.83003955 2.23734166,3.87285653 2.28948595,3.87870651 L2.3017158,3.87938776 L3.73995963,3.87938776 L3.73995963,5.26936959 C3.73995963,5.32146179 3.78048104,5.36435292 3.83281958,5.37021444 L3.84509441,5.37089711 L4.86847639,5.37089711 C4.92226785,5.37089711 4.96681281,5.33172685 4.97290193,5.28121487 L4.97361117,5.26936959 L4.97361117,3.87938776 L6.41164473,3.87938776 C6.46543619,3.87938776 6.50979985,3.84030513 6.51586307,3.78964293 L6.51656924,3.77775862 L6.51656924,2.78850051 C6.51656924,2.73650268 6.47604783,2.69344303 6.42387764,2.68755695 L6.41164473,2.68687136 L4.97361117,2.68687136 L4.97361117,1.29668627 C4.97361117,1.24459408 4.93290845,1.20179058 4.88071237,1.19594157 L4.86847639,1.19526039 Z" id="Shape"></path>
                    </g>
                </g>
            </g>
        </g>
    </g>
</svg>