<?xml version="1.0" encoding="UTF-8"?>
<svg width="20px" height="11px" viewBox="0 0 20 11" version="1.1" xmlns="http://www.w3.org/2000/svg" xmlns:xlink="http://www.w3.org/1999/xlink">
    <title>Injured</title>
    <g id="Page-1" stroke="none" stroke-width="1" fill="none" fill-rule="evenodd">
        <g id="Upcoming-GW---Proj-Pts-Filter---Bench-Player-Select" transform="translate(-158.000000, -518.000000)">
            <g id="Group-9" transform="translate(0.000000, -698.000000)">
                <g id="Group-11" transform="translate(0.000000, 1197.000000)">
                    <g id="Injured" transform="translate(158.000000, 19.000000)">
                        <rect id="Rectangle" fill="#8F91A6" x="0" y="0" width="20" height="10.7142857" rx="5.35714286"></rect>
                        <g id="Group-53" transform="translate(5.714286, 2.142857)" fill="#FFFFFF" fill-rule="nonzero" opacity="0.5">
                            <path d="M8.20303629,9.09494702e-13 C8.3996909,9.09494702e-13 8.56038872,0.14504019 8.5708834,0.327820429 L8.57142857,0.346858955 L8.57142857,6.08181146 C8.57142857,6.26697119 8.41738415,6.41818337 8.22325675,6.42805845 L8.20303629,6.42857143 L0.368182009,6.42857143 C0.171629028,6.42857143 0.0110328441,6.28353124 0.00054482402,6.10084042 L0,6.08181146 L0,0.346858955 C0,0.161603541 0.154044418,0.0103881705 0.347981887,0.000512985214 L0.368182009,9.09494702e-13 L8.20303629,9.09494702e-13 Z M4.99198124,4.47142857 L3.67927816,4.47142857 L3.67927816,5.50382952 L4.99198124,5.50382952 L4.99198124,4.47142857 Z M5.01132121,0.857142857 L3.66146335,0.857142857 L3.66146335,3.30755092 L5.01132121,3.30755092 L5.01132121,0.857142857 Z" id="Shape"></path>
                        </g>
                    </g>
                </g>
            </g>
        </g>
    </g>
</svg>