<?xml version="1.0" encoding="UTF-8"?>
<svg width="103px" height="54px" viewBox="0 0 103 54" version="1.1" xmlns="http://www.w3.org/2000/svg" xmlns:xlink="http://www.w3.org/1999/xlink">
    <!-- Generator: Sketch 64 (93537) - https://sketch.com -->
    <title>Shape</title>
    <desc>Created with Sketch.</desc>
    <defs>
        <filter x="-3.8%" y="-8.0%" width="107.6%" height="116.1%" filterUnits="objectBoundingBox" id="filter-1">
            <feOffset dx="0" dy="5" in="SourceAlpha" result="shadowOffsetOuter1"></feOffset>
            <feGaussianBlur stdDeviation="6" in="shadowOffsetOuter1" result="shadowBlurOuter1"></feGaussianBlur>
            <feColorMatrix values="0 0 0 0 0.321568627   0 0 0 0 0.360784314   0 0 0 0 0.843137255  0 0 0 0.402616914 0" type="matrix" in="shadowBlurOuter1" result="shadowMatrixOuter1"></feColorMatrix>
            <feMerge>
                <feMergeNode in="shadowMatrixOuter1"></feMergeNode>
                <feMergeNode in="SourceGraphic"></feMergeNode>
            </feMerge>
        </filter>
    </defs>
    <g id="Page-1" stroke="none" stroke-width="1" fill="none" fill-rule="evenodd" opacity="0.189811195">
        <g id="Homepage" transform="translate(-663.000000, -398.000000)" fill="#F3F2F6" fill-rule="nonzero">
            <g id="Group-7" filter="url(#filter-1)" transform="translate(456.000000, 19.000000)">
                <g id="Group-13">
                    <g transform="translate(0.000000, 377.000000)">
                        <path d="M241,47 L234.564238,64 L229,64 L235.434437,47 L241,47 Z M249.697712,47 C250.417162,47 251,47.4510735 251,48.0073444 C251,48.0459522 250.995728,48.0831432 250.989423,48.1198619 L250.978718,48.1747039 L244.76865,64 L239,64 L243.760183,51.8704254 C243.902642,51.5072095 243.566123,51.1404965 243.084889,51.118605 L243.039359,51.1175735 L241.712357,51.1175735 L243.329062,47 L249.697712,47 Z M270,47 L265.239545,59.1295746 C265.097743,59.4927905 265.433656,59.8595035 265.915505,59.881395 L265.961096,59.8824265 L267.288174,59.8824265 L265.671377,64 L259.301676,64 C258.582871,64 258,63.5489265 258,62.9926556 C258,62.9540478 258.004272,62.9168568 258.010578,62.8801381 L258.021283,62.8252961 L264.231707,47 L270,47 Z M291,47 L284.565563,64 L279,64 L285.435762,47 L291,47 Z M282,47 L277.239817,59.1295746 C277.097358,59.4927905 277.433877,59.8595035 277.915111,59.881395 L277.960641,59.8824265 L279.287643,59.8824265 L277.670938,64 L271.302288,64 C270.582838,64 270,63.5489265 270,62.9926556 C270,62.9540478 270.004272,62.9168568 270.010577,62.8801381 L270.021282,62.8252961 L276.23135,47 L282,47 Z M259.698324,47 C260.417129,47 261,47.4510735 261,48.0073444 C261,48.0459522 260.995728,48.0831432 260.989422,48.1198619 L260.978717,48.1747039 L254.768293,64 L249,64 L253.760455,51.8704254 C253.902257,51.5072095 253.566344,51.1404965 253.084495,51.118605 L253.038904,51.1175735 L251.711826,51.1175735 L253.328623,47 L259.698324,47 Z M287,27 L280.564238,44 L275,44 L281.434437,27 L287,27 Z M295.697712,27 C296.417162,27 297,27.4510735 297,28.0073444 C297,28.0459522 296.995728,28.0831432 296.989423,28.1198619 L296.978718,28.1747039 L290.76865,44 L285,44 L289.760183,31.8704254 C289.902642,31.5072095 289.566123,31.1404965 289.084889,31.118605 L289.039359,31.1175735 L287.712357,31.1175735 L289.329062,27 L295.697712,27 Z M316,27 L311.239545,39.1295746 C311.097743,39.4927905 311.433656,39.8595035 311.915505,39.881395 L311.961096,39.8824265 L313.288174,39.8824265 L311.671377,44 L305.301676,44 C304.582871,44 304,43.5489265 304,42.9926556 C304,42.9540478 304.004272,42.9168568 304.010578,42.8801381 L304.021283,42.8252961 L310.231707,27 L316,27 Z M227,27 L220.564238,44 L215,44 L221.434437,27 L227,27 Z M235.697712,27 C236.417162,27 237,27.4510735 237,28.0073444 C237,28.0459522 236.995728,28.0831432 236.989423,28.1198619 L236.978718,28.1747039 L230.76865,44 L225,44 L229.760183,31.8704254 C229.902642,31.5072095 229.566123,31.1404965 229.084889,31.118605 L229.039359,31.1175735 L227.712357,31.1175735 L229.329062,27 L235.697712,27 Z M256,27 L251.239545,39.1295746 C251.097743,39.4927905 251.433656,39.8595035 251.915505,39.881395 L251.961096,39.8824265 L253.288174,39.8824265 L251.671377,44 L245.301676,44 C244.582871,44 244,43.5489265 244,42.9926556 C244,42.9540478 244.004272,42.9168568 244.010578,42.8801381 L244.021283,42.8252961 L250.231707,27 L256,27 Z M246.698324,27 C247.417129,27 248,27.4510735 248,28.0073444 C248,28.0459522 247.995728,28.0831432 247.989422,28.1198619 L247.978717,28.1747039 L241.768293,44 L236,44 L240.760455,31.8704254 C240.902257,31.5072095 240.566344,31.1404965 240.084495,31.118605 L240.038904,31.1175735 L238.711826,31.1175735 L240.328623,27 L246.698324,27 Z M277,27 L270.565563,44 L265,44 L271.435762,27 L277,27 Z M267,27 L262.239817,39.1295746 C262.097358,39.4927905 262.433877,39.8595035 262.915111,39.881395 L262.960641,39.8824265 L264.287643,39.8824265 L262.670938,44 L256.302288,44 C255.582838,44 255,43.5489265 255,42.9926556 C255,42.9540478 255.004272,42.9168568 255.010577,42.8801381 L255.021282,42.8252961 L261.23135,27 L267,27 Z M306.698324,27 C307.417129,27 308,27.4510735 308,28.0073444 C308,28.0459522 307.995728,28.0831432 307.989422,28.1198619 L307.978717,28.1747039 L301.768293,44 L296,44 L300.760455,31.8704254 C300.902257,31.5072095 300.566344,31.1404965 300.084495,31.118605 L300.038904,31.1175735 L298.711826,31.1175735 L300.328623,27 L306.698324,27 Z M337,27 L330.565563,44 L325,44 L331.435762,27 L337,27 Z M327,27 L322.239817,39.1295746 C322.097358,39.4927905 322.433877,39.8595035 322.915111,39.881395 L322.960641,39.8824265 L324.287643,39.8824265 L322.670938,44 L316.302288,44 C315.582838,44 315,43.5489265 315,42.9926556 C315,42.9540478 315.004272,42.9168568 315.010577,42.8801381 L315.021282,42.8252961 L321.23135,27 L327,27 Z M253,8 L246.564238,25 L241,25 L247.434437,8 L253,8 Z M261.697712,8 C262.417162,8 263,8.45107354 263,9.00734444 C263,9.04595222 262.995728,9.08314321 262.989423,9.11986193 L262.978718,9.17470388 L256.76865,25 L251,25 L255.760183,12.8704254 C255.902642,12.5072095 255.566123,12.1404965 255.084889,12.118605 L255.039359,12.1175735 L253.712357,12.1175735 L255.329062,8 L261.697712,8 Z M282,8 L277.239545,20.1295746 C277.097743,20.4927905 277.433656,20.8595035 277.915505,20.881395 L277.961096,20.8824265 L279.288174,20.8824265 L277.671377,25 L271.301676,25 C270.582871,25 270,24.5489265 270,23.9926556 C270,23.9540478 270.004272,23.9168568 270.010578,23.8801381 L270.021283,23.8252961 L276.231707,8 L282,8 Z M271.698324,8 C272.417129,8 273,8.45107354 273,9.00734444 C273,9.04595222 272.995728,9.08314321 272.989422,9.11986193 L272.978717,9.17470388 L266.768293,25 L261,25 L265.760455,12.8704254 C265.902257,12.5072095 265.566344,12.1404965 265.084495,12.118605 L265.038904,12.1175735 L263.711826,12.1175735 L265.328623,8 L271.698324,8 Z M292,8 L287.239817,20.1295746 C287.097358,20.4927905 287.433877,20.8595035 287.915111,20.881395 L287.960641,20.8824265 L289.287643,20.8824265 L287.670938,25 L281.302288,25 C280.582838,25 280,24.5489265 280,23.9926556 C280,23.9540478 280.004272,23.9168568 280.010577,23.8801381 L280.021282,23.8252961 L286.23135,8 L292,8 Z M303,8 L296.565563,25 L291,25 L297.435762,8 L303,8 Z" id="Shape"></path>
                    </g>
                </g>
            </g>
        </g>
    </g>
</svg>