<?xml version="1.0" encoding="UTF-8"?>
<svg width="35px" height="35px" viewBox="0 0 35 35" version="1.1" xmlns="http://www.w3.org/2000/svg" xmlns:xlink="http://www.w3.org/1999/xlink">
    <!-- Generator: Sketch 64 (93537) - https://sketch.com -->
    <title>frown</title>
    <desc>Created with Sketch.</desc>
    <defs>
        <path d="M17.5,3.828125 C25.0558984,3.828125 31.171875,9.94293945 31.171875,17.5 C31.171875,25.0558984 25.0570605,31.171875 17.5,31.171875 C9.94410156,31.171875 3.828125,25.0570605 3.828125,17.5 C3.828125,9.94410156 9.94293945,3.828125 17.5,3.828125 L17.5,3.828125 Z M17.5,0.546875 C8.13702148,0.546875 0.546875,8.13702148 0.546875,17.5 C0.546875,26.8629785 8.13702148,34.453125 17.5,34.453125 C26.8629785,34.453125 34.453125,26.8629785 34.453125,17.5 C34.453125,8.13702148 26.8629785,0.546875 17.5,0.546875 Z M21.875,9.84375 C21.2231934,9.84375 20.6095312,10.0068555 20.0723633,10.2941699 L20.0735254,10.2941699 C20.944082,10.2941699 21.6498242,10.9999121 21.6498242,11.8704688 C21.6498242,12.7410254 20.944082,13.4467676 20.0735254,13.4467676 C19.2029687,13.4467676 18.4972266,12.7410254 18.4972266,11.8704688 L18.4972266,11.8693066 C18.2099805,12.4064062 18.046875,13.0200684 18.046875,13.671875 C18.046875,15.7860937 19.7607813,17.5 21.875,17.5 C23.9892187,17.5 25.703125,15.7860937 25.703125,13.671875 C25.703125,11.5576563 23.9892187,9.84375 21.875,9.84375 Z M13.125,9.84375 C12.4731934,9.84375 11.8595312,10.0068555 11.3223633,10.2941699 L11.3235254,10.2941699 C12.194082,10.2941699 12.8998242,10.9999121 12.8998242,11.8704688 C12.8998242,12.7410254 12.194082,13.4467676 11.3235254,13.4467676 C10.4529687,13.4467676 9.74722656,12.7410254 9.74722656,11.8704688 L9.74722656,11.8693066 C9.45998047,12.4064062 9.296875,13.0200684 9.296875,13.671875 C9.296875,15.7860937 11.0107813,17.5 13.125,17.5 C15.2392187,17.5 16.953125,15.7860937 16.953125,13.671875 C16.953125,11.5576563 15.2392187,9.84375 13.125,9.84375 Z M24.8518457,23.6374414 C20.9830469,18.3762305 14.0248828,18.3693262 10.1506836,23.637373 C8.86416016,25.3868945 11.5081641,27.3300098 12.7941406,25.581377 C15.3583691,22.0943652 19.6550293,22.1089941 22.2083887,25.5813086 C23.4736523,27.3020508 26.1609961,25.4175879 24.8518457,23.6374414 L24.8518457,23.6374414 Z" id="path-1"></path>
    </defs>
    <g id="Page-1" stroke="none" stroke-width="1" fill="none" fill-rule="evenodd">
        <g id="Homepage" transform="translate(-256.000000, -439.000000)">
            <g id="Regular/frown" transform="translate(256.000000, 439.000000)">
                <mask id="mask-2" fill="white">
                    <use xlink:href="#path-1"></use>
                </mask>
                <use id="Mask" fill="#000000" fill-rule="nonzero" xlink:href="#path-1"></use>
                <g id="Color/Purple" mask="url(#mask-2)" fill="#BFC0CC" fill-rule="evenodd">
                    <rect id="Purple" x="0" y="0" width="35" height="35"></rect>
                </g>
            </g>
        </g>
    </g>
</svg>