<?xml version="1.0" encoding="UTF-8"?>
<svg width="127px" height="162px" viewBox="0 0 127 162" version="1.1" xmlns="http://www.w3.org/2000/svg" xmlns:xlink="http://www.w3.org/1999/xlink">
    <!-- Generator: Sketch 64 (93537) - https://sketch.com -->
    <title>Combined Shape</title>
    <desc>Created with Sketch.</desc>
    <g id="Page-1" stroke="none" stroke-width="1" fill="none" fill-rule="evenodd" opacity="0.554799109">
        <g id="Homepage" transform="translate(-1214.000000, -450.000000)" fill="#51ADA7">
            <g id="Group-17-Copy" transform="translate(1053.000000, 450.000000)">
                <path d="M228.559218,105.35607 L211.097571,162 L196.000559,162 L213.458612,105.35607 L228.559218,105.35607 Z M248.895854,105.35607 C250.701481,105.35607 252.164246,106.859045 252.164246,108.712537 C252.164246,108.841178 252.153525,108.965099 252.1377,109.087445 L252.110835,109.270178 L236.52524,162 L222.047486,162 L233.99426,121.584307 C234.351794,120.374073 233.507221,119.152187 232.299454,119.079245 L232.185187,119.075808 L228.85477,119.075808 L232.912262,105.35607 L248.895854,105.35607 Z M301.816201,105.35607 L289.868743,145.771763 C289.51286,146.981997 290.355912,148.203883 291.565223,148.276825 L291.679643,148.280262 L295.010251,148.280262 L290.952526,162 L274.966297,162 C273.16229,162 271.699441,160.497025 271.699441,158.643532 C271.699441,158.514891 271.710162,158.390971 271.725989,158.268625 L271.752855,158.085892 L287.339342,105.35607 L301.816201,105.35607 Z M355.537989,105.35607 L338.079935,162 L322.97933,162 L340.440977,105.35607 L355.537989,105.35607 Z M328.677095,105.35607 L316.730321,145.771763 C316.372787,146.981997 317.21736,148.203883 318.425127,148.276825 L318.539394,148.280262 L321.869811,148.280262 L317.812319,162 L301.828727,162 C300.0231,162 298.560335,160.497025 298.560335,158.643532 C298.560335,158.514891 298.571056,158.390971 298.586881,158.268625 L298.613746,158.085892 L314.199341,105.35607 L328.677095,105.35607 Z M275.758284,105.35607 C277.562291,105.35607 279.02514,106.859045 279.02514,108.712537 C279.02514,108.841178 279.014419,108.965099 278.998592,109.087445 L278.971726,109.270178 L263.385239,162 L248.90838,162 L260.855838,121.584307 C261.211721,120.374073 260.368669,119.152187 259.159358,119.079245 L259.044938,119.075808 L255.71433,119.075808 L259.772055,105.35607 L275.758284,105.35607 Z M344.956425,42.2385478 L327.494777,98.8824779 L312.397765,98.8824779 L329.855819,42.2385478 L344.956425,42.2385478 Z M366.107027,42.2385478 C367.912654,42.2385478 369.375419,43.741523 369.375419,45.5950154 C369.375419,45.7236563 369.364699,45.8475766 369.348873,45.9699232 L369.322008,46.1526563 L353.736413,98.8824779 L339.258659,98.8824779 L351.205433,58.4667851 C351.562967,57.2565512 350.718394,56.0346652 349.510627,55.9617228 L349.39636,55.9582859 L346.065943,55.9582859 L350.123435,42.2385478 L366.107027,42.2385478 Z M395.999,71.167 L395.999,98.882 L392.177471,98.8824779 C390.373463,98.8824779 388.910615,97.3795027 388.910615,95.5260104 C388.910615,95.3973694 388.921336,95.2734492 388.937162,95.1511026 L388.964028,94.9683694 L395.999,71.167 Z M193.558659,42.2385478 L176.097012,98.8824779 L161,98.8824779 L178.458054,42.2385478 L193.558659,42.2385478 Z M213.081328,42.2385478 C214.886956,42.2385478 216.349721,43.741523 216.349721,45.5950154 C216.349721,45.7236563 216.339,45.8475766 216.323175,45.9699232 L216.29631,46.1526563 L200.710714,98.8824779 L186.232961,98.8824779 L198.179735,58.4667851 C198.537268,57.2565512 197.692696,56.0346652 196.484929,55.9617228 L196.370662,55.9582859 L193.040245,55.9582859 L197.097737,42.2385478 L213.081328,42.2385478 Z M266.001676,42.2385478 L254.054218,82.6542407 C253.698335,83.8644745 254.541387,85.0863606 255.750697,85.159303 L255.865118,85.1627399 L259.195726,85.1627399 L255.138001,98.8824779 L239.151772,98.8824779 C237.347765,98.8824779 235.884916,97.3795027 235.884916,95.5260104 C235.884916,95.3973694 235.895637,95.2734492 235.911464,95.1511026 L235.93833,94.9683694 L251.524817,42.2385478 L266.001676,42.2385478 Z M240.757725,41.4293488 C242.561733,41.4293488 244.024581,42.932324 244.024581,44.7858164 C244.024581,44.9144573 244.01386,45.0383776 243.998034,45.1607242 L243.971167,45.3434573 L228.38468,98.0732789 L213.907821,98.0732789 L225.855279,57.6575861 C226.211162,56.4473522 225.368111,55.2254662 224.1588,55.1525238 L224.044379,55.1490869 L220.713771,55.1490869 L224.771496,41.4293488 L240.757725,41.4293488 Z M318.909497,41.4293488 L301.451444,98.0732789 L286.350838,98.0732789 L303.812485,41.4293488 L318.909497,41.4293488 Z M293.676536,41.4293488 L281.729762,81.8450417 C281.372229,83.0552755 282.216801,84.2771616 283.424569,84.350104 L283.538835,84.3535409 L286.869253,84.3535409 L282.81176,98.0732789 L266.828169,98.0732789 C265.022541,98.0732789 263.559777,96.5703037 263.559777,94.7168114 C263.559777,94.5881704 263.570497,94.4642502 263.586322,94.3419036 L263.613187,94.1591704 L279.198783,41.4293488 L293.676536,41.4293488 Z M392.15549,41.4293488 C393.959498,41.4293488 395.422346,42.932324 395.422346,44.7858164 C395.422346,44.9144573 395.411625,45.0383776 395.395799,45.1607242 L395.368933,45.3434573 L379.782445,98.0732789 L365.305587,98.0732789 L377.253044,57.6575861 C377.608927,56.4473522 376.765876,55.2254662 375.556565,55.1525238 L375.442145,55.1490869 L372.111537,55.1490869 L376.169261,41.4293488 L392.15549,41.4293488 Z M257.862011,-20.0697752 L240.400364,36.5741548 L225.303352,36.5741548 L242.761406,-20.0697752 L257.862011,-20.0697752 Z M279.012613,-20.0697752 C280.818241,-20.0697752 282.281006,-18.5668001 282.281006,-16.7133077 C282.281006,-16.5846667 282.270285,-16.4607465 282.25446,-16.3383999 L282.227595,-16.1556668 L266.641999,36.5741548 L252.164246,36.5741548 L264.11102,-3.84153798 C264.468553,-5.05177184 263.623981,-6.27365792 262.416213,-6.3466003 L262.301947,-6.35003718 L258.971529,-6.35003718 L263.029022,-20.0697752 L279.012613,-20.0697752 Z M331.932961,-20.0697752 L319.985503,20.3459176 C319.62962,21.5561514 320.472672,22.7780375 321.681982,22.8509799 L321.796403,22.8544168 L325.127011,22.8544168 L321.069286,36.5741548 L305.083057,36.5741548 C303.27905,36.5741548 301.816201,35.0711797 301.816201,33.2176873 C301.816201,33.0890463 301.826922,32.9651261 301.842748,32.8427795 L301.869615,32.6600463 L317.456102,-20.0697752 L331.932961,-20.0697752 Z M305.061077,-20.0697752 C306.865085,-20.0697752 308.327933,-18.5668001 308.327933,-16.7133077 C308.327933,-16.5846667 308.317212,-16.4607465 308.301386,-16.3383999 L308.274519,-16.1556668 L292.688032,36.5741548 L278.211173,36.5741548 L290.158631,-3.84153798 C290.514514,-5.05177184 289.671462,-6.27365792 288.462152,-6.3466003 L288.347731,-6.35003718 L285.017123,-6.35003718 L289.074848,-20.0697752 L305.061077,-20.0697752 Z M357.979888,-20.0697752 L346.033114,20.3459176 C345.675581,21.5561514 346.520153,22.7780375 347.727921,22.8509799 L347.842187,22.8544168 L351.172605,22.8544168 L347.115112,36.5741548 L331.131521,36.5741548 C329.325893,36.5741548 327.863128,35.0711797 327.863128,33.2176873 C327.863128,33.0890463 327.873849,32.9651261 327.889674,32.8427795 L327.916539,32.6600463 L343.502135,-20.0697752 L357.979888,-20.0697752 Z M384.840782,-20.0697752 L367.382728,36.5741548 L352.282123,36.5741548 L369.74377,-20.0697752 L384.840782,-20.0697752 Z M380.812,-98 L379.78334,-94.5160833 L365.305587,-94.5160833 L366.335,-98 L380.812,-98 Z M356.243,-98 L355.169638,-94.5160833 L340.072626,-94.5160833 L341.145,-98 L356.243,-98 Z M396,-98 L395.999,-94.517 L392.16648,-94.5160833 L393.196,-98 L396,-98 Z" id="Combined-Shape"></path>
            </g>
        </g>
    </g>
</svg>