<?xml version="1.0" encoding="UTF-8"?>
<svg width="309px" height="247px" viewBox="0 0 309 247" version="1.1" xmlns="http://www.w3.org/2000/svg" xmlns:xlink="http://www.w3.org/1999/xlink">
    <!-- Generator: Sketch 64 (93537) - https://sketch.com -->
    <title>Combined Shape</title>
    <desc>Created with Sketch.</desc>
    <defs>
        <filter x="-3.8%" y="-8.0%" width="107.6%" height="116.1%" filterUnits="objectBoundingBox" id="filter-1">
            <feOffset dx="0" dy="5" in="SourceAlpha" result="shadowOffsetOuter1"></feOffset>
            <feGaussianBlur stdDeviation="6" in="shadowOffsetOuter1" result="shadowBlurOuter1"></feGaussianBlur>
            <feColorMatrix values="0 0 0 0 0.321568627   0 0 0 0 0.360784314   0 0 0 0 0.843137255  0 0 0 0.402616914 0" type="matrix" in="shadowBlurOuter1" result="shadowMatrixOuter1"></feColorMatrix>
            <feMerge>
                <feMergeNode in="shadowMatrixOuter1"></feMergeNode>
                <feMergeNode in="SourceGraphic"></feMergeNode>
            </feMerge>
        </filter>
    </defs>
    <g id="Page-1" stroke="none" stroke-width="1" fill="none" fill-rule="evenodd" opacity="0.100000001">
        <g id="Homepage" transform="translate(-457.000000, -25.000000)" fill="#525CD7">
            <g id="Group-7" filter="url(#filter-1)" transform="translate(456.000000, 19.000000)">
                <g id="Combined-Shape">
                    <path d="M93,167.000198 L71.5474614,237.000287 L53,237.000287 L74.4481236,167.000198 L93,167.000198 Z M117.984611,167.000198 C120.202918,167.000198 122,168.857562 122,171.148092 C122,171.307065 121.986829,171.460205 121.967387,171.6114 L121.934382,171.83722 L102.78667,237.000287 L85,237.000287 L99.6772311,187.054916 C100.116479,185.559319 99.0788781,184.049323 97.5950735,183.959181 L97.454691,183.954934 L93.3631007,183.954934 L98.3479404,167.000198 L117.984611,167.000198 Z M183,167.000198 L168.321929,216.945569 C167.884708,218.441165 168.920441,219.951162 170.406142,220.041304 L170.546713,220.045551 L174.638538,220.045551 L169.653413,237.000287 L150.013502,237.000287 C147.797185,237.000287 146,235.142923 146,232.852393 C146,232.693419 146.013171,232.54028 146.032615,232.389085 L146.065622,232.163265 L165.214429,167.000198 L183,167.000198 Z M249,167.000198 L227.551876,237.000287 L209,237.000287 L230.452539,167.000198 L249,167.000198 Z M216,167.000198 L201.322769,216.945569 C200.883521,218.441165 201.921122,219.951162 203.404927,220.041304 L203.545309,220.045551 L207.636899,220.045551 L202.65206,237.000287 L183.015389,237.000287 C180.797082,237.000287 179,235.142923 179,232.852393 C179,232.693419 179.013171,232.54028 179.032613,232.389085 L179.065618,232.163265 L198.21333,167.000198 L216,167.000198 Z M150.986498,167.000198 C153.202815,167.000198 155,168.857562 155,171.148092 C155,171.307065 154.986829,171.460205 154.967385,171.6114 L154.934378,171.83722 L135.785571,237.000287 L118,237.000287 L132.678071,187.054916 C133.115292,185.559319 132.079559,184.049323 130.593858,183.959181 L130.453287,183.954934 L126.361462,183.954934 L131.346587,167.000198 L150.986498,167.000198 Z M236,89.0000982 L214.547461,159.000187 L196,159.000187 L217.448124,89.0000982 L236,89.0000982 Z M261.984611,89.0000982 C264.202918,89.0000982 266,90.8574622 266,93.1479924 C266,93.3069658 265.986829,93.4601054 265.967387,93.6113003 L265.934382,93.8371203 L246.78667,159.000187 L229,159.000187 L243.677231,109.054816 C244.116479,107.55922 243.078878,106.049223 241.595073,105.959082 L241.454691,105.954834 L237.363101,105.954834 L242.34794,89.0000982 L261.984611,89.0000982 Z M299,123.758 L299,159 L294.013502,159.000187 C291.797185,159.000187 290,157.142823 290,154.852293 C290,154.69332 290.013171,154.54018 290.032615,154.388985 L290.065622,154.163165 L299,123.758 Z M50,89.0000982 L28.5474614,159.000187 L10,159.000187 L31.4481236,89.0000982 L50,89.0000982 Z M73.9846109,89.0000982 C76.2029176,89.0000982 78,90.8574622 78,93.1479924 C78,93.3069658 77.9868293,93.4601054 77.967387,93.6113003 L77.934382,93.8371203 L58.7866704,159.000187 L41,159.000187 L55.6772311,109.054816 C56.1164794,107.55922 55.0788781,106.049223 53.5950735,105.959082 L53.454691,105.954834 L49.3631007,105.954834 L54.3479404,89.0000982 L73.9846109,89.0000982 Z M139,89.0000982 L124.321929,138.945469 C123.884708,140.441066 124.920441,141.951062 126.406142,142.041204 L126.546713,142.045451 L130.638538,142.045451 L125.653413,159.000187 L106.013502,159.000187 C103.797185,159.000187 102,157.142823 102,154.852293 C102,154.69332 102.013171,154.54018 102.032615,154.388985 L102.065622,154.163165 L121.214429,89.0000982 L139,89.0000982 Z M107.986498,88.0000969 C110.202815,88.0000969 112,89.8574609 112,92.1479911 C112,92.3069645 111.986829,92.4601041 111.967385,92.611299 L111.934378,92.8371191 L92.7855713,158.000186 L75,158.000186 L89.6780708,108.054815 C90.1152916,106.559218 89.0795593,105.049222 87.5938584,104.95908 L87.4532869,104.954833 L83.3614624,104.954833 L88.3465874,88.0000969 L107.986498,88.0000969 Z M204,88.0000969 L182.551876,158.000186 L164,158.000186 L185.452539,88.0000969 L204,88.0000969 Z M173,88.0000969 L158.322769,137.945468 C157.883521,139.441065 158.921122,140.951061 160.404927,141.041203 L160.545309,141.04545 L164.636899,141.04545 L159.65206,158.000186 L140.015389,158.000186 C137.797082,158.000186 136,156.142822 136,153.852292 C136,153.693319 136.013171,153.540179 136.032613,153.388984 L136.065618,153.163164 L155.21333,88.0000969 L173,88.0000969 Z M293.986498,88.0000969 C296.202815,88.0000969 298,89.8574609 298,92.1479911 C298,92.3069645 297.986829,92.4601041 297.967385,92.611299 L297.934378,92.8371191 L278.785571,158.000186 L261,158.000186 L275.678071,108.054815 C276.115292,106.559218 275.079559,105.049222 273.593858,104.95908 L273.453287,104.954833 L269.361462,104.954833 L274.346587,88.0000969 L293.986498,88.0000969 Z M129,12 L107.547461,82.0000893 L89,82.0000893 L110.448124,12 L129,12 Z M154.984611,12 C157.202918,12 159,13.857364 159,16.1478941 C159,16.3068676 158.986829,16.4600071 158.967387,16.6112021 L158.934382,16.8370221 L139.78667,82.0000893 L122,82.0000893 L136.677231,32.0547182 C137.116479,30.5591215 136.078878,29.049125 134.595073,28.9589834 L134.454691,28.9547362 L130.363101,28.9547362 L135.34794,12 L154.984611,12 Z M220,12 L205.321929,61.945371 C204.884708,63.4409678 205.920441,64.9509643 207.406142,65.0411059 L207.546713,65.0453531 L211.638538,65.0453531 L206.653413,82.0000893 L187.013502,82.0000893 C184.797185,82.0000893 183,80.1427253 183,77.8521951 C183,77.6932217 183.013171,77.5400821 183.032615,77.3888872 L183.065622,77.1630671 L202.214429,12 L220,12 Z M186.986498,12 C189.202815,12 191,13.857364 191,16.1478941 C191,16.3068676 190.986829,16.4600071 190.967385,16.6112021 L190.934378,16.8370221 L171.785571,82.0000893 L154,82.0000893 L168.678071,32.0547182 C169.115292,30.5591215 168.079559,29.049125 166.593858,28.9589834 L166.453287,28.9547362 L162.361462,28.9547362 L167.346587,12 L186.986498,12 Z M252,12 L237.322769,61.945371 C236.883521,63.4409678 237.921122,64.9509643 239.404927,65.0411059 L239.545309,65.0453531 L243.636899,65.0453531 L238.65206,82.0000893 L219.015389,82.0000893 C216.797082,82.0000893 215,80.1427253 215,77.8521951 C215,77.6932217 215.013171,77.5400821 215.032613,77.3888872 L215.065618,77.1630671 L234.21333,12 L252,12 Z M285,12 L263.551876,82.0000893 L245,82.0000893 L266.452539,12 L285,12 Z"></path>
                </g>
            </g>
        </g>
    </g>
</svg>