<?xml version="1.0" encoding="UTF-8"?>
<svg width="58px" height="32px" viewBox="0 0 58 32" version="1.1" xmlns="http://www.w3.org/2000/svg" xmlns:xlink="http://www.w3.org/1999/xlink">
    <!-- Generator: Sketch 64 (93537) - https://sketch.com -->
    <title>Shape</title>
    <desc>Created with Sketch.</desc>
    <g id="Page-1" stroke="none" stroke-width="1" fill="none" fill-rule="evenodd" opacity="0.049999997">
        <g id="(Live-State)---Past-Gameweek" transform="translate(-227.000000, -848.000000)" fill="#F3F2F6" fill-rule="nonzero">
            <g id="Group-11" transform="translate(117.000000, 838.000000)">
                <path d="M129.647887,46.5952381 L124.730422,63 L120.478873,63 L125.395327,46.5952381 L129.647887,46.5952381 Z M136.511984,46.5952381 C137.061705,46.5952381 137.507042,47.0305177 137.507042,47.5673114 C137.507042,47.6045673 137.503778,47.6404561 137.49896,47.6758892 L137.490781,47.7288109 L132.745764,63 L128.338028,63 L131.97521,51.2951304 C132.084061,50.9446321 131.826932,50.5907592 131.459228,50.5696342 L131.42444,50.5686389 L130.410498,50.5686389 L131.645797,46.5952381 L136.511984,46.5952381 Z M151.915493,46.5952381 L148.278103,58.3001077 C148.169755,58.650606 148.426421,59.0044789 148.794594,59.0256039 L148.829429,59.0265992 L149.843429,59.0265992 L148.608059,63 L143.74107,63 C143.191841,63 142.746479,62.5647204 142.746479,62.0279267 C142.746479,61.9906708 142.749743,61.954782 142.754561,61.9193489 L142.762741,61.8664272 L147.508029,46.5952381 L151.915493,46.5952381 Z M167.633803,46.5952381 L162.717349,63 L158.464789,63 L163.382254,46.5952381 L167.633803,46.5952381 Z M161.084507,46.5952381 L157.447325,58.3001077 C157.338474,58.650606 157.595603,59.0044789 157.963307,59.0256039 L157.998095,59.0265992 L159.012037,59.0265992 L157.776738,63 L152.910551,63 C152.36083,63 151.915493,62.5647204 151.915493,62.0279267 C151.915493,61.9906708 151.918757,61.954782 151.923575,61.9193489 L151.931754,61.8664272 L156.676771,46.5952381 L161.084507,46.5952381 Z M144.371606,46.5952381 C144.920835,46.5952381 145.366197,47.0305177 145.366197,47.5673114 C145.366197,47.6045673 145.362933,47.6404561 145.358115,47.6758892 L145.349935,47.7288109 L140.604647,63 L136.197183,63 L139.834573,51.2951304 C139.942922,50.9446321 139.686255,50.5907592 139.318082,50.5696342 L139.283247,50.5686389 L138.269247,50.5686389 L139.504617,46.5952381 L144.371606,46.5952381 Z M165.014085,27.6666667 L160.096619,44.0714286 L155.84507,44.0714286 L160.761524,27.6666667 L165.014085,27.6666667 Z M171.878181,27.6666667 C172.427902,27.6666667 172.873239,28.1019463 172.873239,28.6387399 C172.873239,28.6759959 172.869976,28.7118847 172.865158,28.7473177 L172.856979,28.8002395 L168.111961,44.0714286 L163.704225,44.0714286 L167.341407,32.3665589 C167.450258,32.0160607 167.193129,31.6621878 166.825426,31.6410628 L166.790637,31.6400675 L165.776695,31.6400675 L167.011994,27.6666667 L171.878181,27.6666667 Z M187.28169,27.6666667 L183.6443,39.3715363 C183.535952,39.7220346 183.792618,40.0759074 184.160791,40.0970324 L184.195626,40.0980278 L185.209626,40.0980278 L183.974256,44.0714286 L179.107267,44.0714286 C178.558039,44.0714286 178.112676,43.6361489 178.112676,43.0993553 C178.112676,43.0620993 178.11594,43.0262105 178.120758,42.9907775 L178.128938,42.9378558 L182.874227,27.6666667 L187.28169,27.6666667 Z M119.169014,27.6666667 L114.251548,44.0714286 L110,44.0714286 L114.916454,27.6666667 L119.169014,27.6666667 Z M126.033111,27.6666667 C126.582832,27.6666667 127.028169,28.1019463 127.028169,28.6387399 C127.028169,28.6759959 127.024905,28.7118847 127.020087,28.7473177 L127.011908,28.8002395 L122.266891,44.0714286 L117.859155,44.0714286 L121.496337,32.3665589 C121.605188,32.0160607 121.348058,31.6621878 120.980355,31.6410628 L120.945567,31.6400675 L119.931625,31.6400675 L121.166924,27.6666667 L126.033111,27.6666667 Z M141.43662,27.6666667 L137.799229,39.3715363 C137.690881,39.7220346 137.947547,40.0759074 138.315721,40.0970324 L138.350556,40.0980278 L139.364556,40.0980278 L138.129186,44.0714286 L133.262196,44.0714286 C132.712968,44.0714286 132.267606,43.6361489 132.267606,43.0993553 C132.267606,43.0620993 132.27087,43.0262105 132.275688,42.9907775 L132.283867,42.9378558 L137.029156,27.6666667 L141.43662,27.6666667 Z M133.892733,27.6666667 C134.441961,27.6666667 134.887324,28.1019463 134.887324,28.6387399 C134.887324,28.6759959 134.88406,28.7118847 134.879242,28.7473177 L134.871062,28.8002395 L130.125773,44.0714286 L125.71831,44.0714286 L129.3557,32.3665589 C129.464048,32.0160607 129.207382,31.6621878 128.839209,31.6410628 L128.804374,31.6400675 L127.790374,31.6400675 L129.025744,27.6666667 L133.892733,27.6666667 Z M157.15493,27.6666667 L152.238476,44.0714286 L147.985915,44.0714286 L152.903381,27.6666667 L157.15493,27.6666667 Z M149.295775,27.6666667 L145.658593,39.3715363 C145.549742,39.7220346 145.806871,40.0759074 146.174574,40.0970324 L146.209363,40.0980278 L147.223305,40.0980278 L145.988006,44.0714286 L141.121819,44.0714286 C140.572098,44.0714286 140.126761,43.6361489 140.126761,43.0993553 C140.126761,43.0620993 140.130024,43.0262105 140.134842,42.9907775 L140.143021,42.9378558 L144.888039,27.6666667 L149.295775,27.6666667 Z M179.737804,27.6666667 C180.287032,27.6666667 180.732394,28.1019463 180.732394,28.6387399 C180.732394,28.6759959 180.72913,28.7118847 180.724312,28.7473177 L180.716133,28.8002395 L175.970844,44.0714286 L171.56338,44.0714286 L175.200771,32.3665589 C175.309119,32.0160607 175.052453,31.6621878 174.684279,31.6410628 L174.649444,31.6400675 L173.635444,31.6400675 L174.870814,27.6666667 L179.737804,27.6666667 Z M203,27.6666667 L198.083546,44.0714286 L193.830986,44.0714286 L198.748452,27.6666667 L203,27.6666667 Z M195.140845,27.6666667 L191.503663,39.3715363 C191.394812,39.7220346 191.651942,40.0759074 192.019645,40.0970324 L192.054433,40.0980278 L193.068375,40.0980278 L191.833076,44.0714286 L186.966889,44.0714286 C186.417168,44.0714286 185.971831,43.6361489 185.971831,43.0993553 C185.971831,43.0620993 185.975095,43.0262105 185.979913,42.9907775 L185.988092,42.9378558 L190.733109,27.6666667 L195.140845,27.6666667 Z M138.816901,10 L133.899436,26.4047619 L129.647887,26.4047619 L134.564341,10 L138.816901,10 Z M145.680998,10 C146.230719,10 146.676056,10.4352796 146.676056,10.9720733 C146.676056,11.0093292 146.672793,11.045218 146.667974,11.0806511 L146.659795,11.1335728 L141.914778,26.4047619 L137.507042,26.4047619 L141.144224,14.6998923 C141.253075,14.349394 140.995946,13.9955211 140.628242,13.9743961 L140.593454,13.9734008 L139.579512,13.9734008 L140.814811,10 L145.680998,10 Z M161.084507,10 L157.447117,21.7048696 C157.338769,22.0553679 157.595435,22.4092408 157.963608,22.4303658 L157.998443,22.4313611 L159.012443,22.4313611 L157.777073,26.4047619 L152.910084,26.4047619 C152.360856,26.4047619 151.915493,25.9694823 151.915493,25.4326886 C151.915493,25.3954327 151.918757,25.3595439 151.923575,25.3241108 L151.931755,25.2711891 L156.677043,10 L161.084507,10 Z M153.540621,10 C154.089849,10 154.535211,10.4352796 154.535211,10.9720733 C154.535211,11.0093292 154.531947,11.045218 154.527129,11.0806511 L154.51895,11.1335728 L149.773661,26.4047619 L145.366197,26.4047619 L149.003587,14.6998923 C149.111936,14.349394 148.85527,13.9955211 148.487096,13.9743961 L148.452261,13.9734008 L147.438261,13.9734008 L148.673631,10 L153.540621,10 Z M168.943662,10 L165.30648,21.7048696 C165.197629,22.0553679 165.454758,22.4092408 165.822462,22.4303658 L165.85725,22.4313611 L166.871192,22.4313611 L165.635893,26.4047619 L160.769706,26.4047619 C160.219985,26.4047619 159.774648,25.9694823 159.774648,25.4326886 C159.774648,25.3954327 159.777912,25.3595439 159.78273,25.3241108 L159.790909,25.2711891 L164.535926,10 L168.943662,10 Z M176.802817,10 L171.886363,26.4047619 L167.633803,26.4047619 L172.551269,10 L176.802817,10 Z" id="Shape"></path>
            </g>
        </g>
    </g>
</svg>