<?xml version="1.0" encoding="UTF-8"?>
<svg width="248px" height="256px" viewBox="0 0 248 256" version="1.1" xmlns="http://www.w3.org/2000/svg" xmlns:xlink="http://www.w3.org/1999/xlink">
    <!-- Generator: Sketch 64 (93537) - https://sketch.com -->
    <title>Combined Shape</title>
    <desc>Created with Sketch.</desc>
    <g id="Page-1" stroke="none" stroke-width="1" fill="none" fill-rule="evenodd" opacity="0.100000001">
        <g id="Your-Bench" transform="translate(-1118.000000, -644.000000)" fill="#525CD7">
            <path d="M1225.76963,820.982318 L1197.91503,912 L1173.83246,912 L1201.68133,820.982318 L1225.76963,820.982318 Z M1258.21038,820.982318 C1261.0907,820.982318 1263.42408,823.397357 1263.42408,826.375621 C1263.42408,826.582326 1263.40698,826.781446 1263.38174,826.978038 L1263.33888,827.27166 L1238.47693,912 L1215.3822,912 L1234.43955,847.058484 C1235.00988,845.113833 1233.66263,843.150459 1231.73601,843.033252 L1231.55373,843.02773 L1226.24109,843.02773 L1232.71356,820.982318 L1258.21038,820.982318 Z M1342.62827,820.982318 L1323.56983,885.923834 C1323.00213,887.868485 1324.34696,889.831859 1326.27604,889.949066 L1326.45856,889.954588 L1331.7715,889.954588 L1325.29867,912 L1299.79764,912 C1296.91991,912 1294.58639,909.584961 1294.58639,906.606697 C1294.58639,906.399991 1294.60349,906.200871 1294.62874,906.00428 L1294.67159,905.710657 L1319.53497,820.982318 L1342.62827,820.982318 Z M1428.32461,820.982318 L1400.47573,912 L1376.38743,912 L1404.24204,820.982318 L1428.32461,820.982318 Z M1385.47644,820.982318 L1366.41909,885.923834 C1365.84876,887.868485 1367.19601,889.831859 1369.12263,889.949066 L1369.3049,889.954588 L1374.61754,889.954588 L1368.14508,912 L1342.64825,912 C1339.76794,912 1337.43455,909.584961 1337.43455,906.606697 C1337.43455,906.399991 1337.45166,906.200871 1337.4769,906.00428 L1337.51976,905.710657 L1362.38171,820.982318 L1385.47644,820.982318 Z M1301.061,820.982318 C1303.93873,820.982318 1306.27225,823.397357 1306.27225,826.375621 C1306.27225,826.582326 1306.25515,826.781446 1306.2299,826.978038 L1306.18705,827.27166 L1281.32367,912 L1258.23037,912 L1277.2888,847.058484 C1277.8565,845.113833 1276.51168,843.150459 1274.5826,843.033252 L1274.40008,843.02773 L1269.08713,843.02773 L1275.55997,820.982318 L1301.061,820.982318 Z M1411.44503,719.562615 L1383.59042,810.580297 L1359.50785,810.580297 L1387.35673,719.562615 L1411.44503,719.562615 Z M1445.18421,719.562615 C1448.06452,719.562615 1450.39791,721.977654 1450.39791,724.955918 C1450.39791,725.162623 1450.3808,725.361743 1450.35556,725.558335 L1450.31271,725.851957 L1425.45076,810.580297 L1402.35602,810.580297 L1421.41337,745.638781 C1421.9837,743.69413 1420.63645,741.730756 1418.70983,741.613549 L1418.52756,741.608027 L1413.21492,741.608027 L1419.68738,719.562615 L1445.18421,719.562615 Z M1529.60209,719.562615 L1510.54366,784.504131 C1509.97596,786.448782 1511.32078,788.412156 1513.24986,788.529363 L1513.43238,788.534885 L1518.74533,788.534885 L1512.27249,810.580297 L1486.77146,810.580297 C1483.89373,810.580297 1481.56021,808.165258 1481.56021,805.186994 C1481.56021,804.980288 1481.57731,804.781169 1481.60256,804.584577 L1481.64541,804.290954 L1506.50879,719.562615 L1529.60209,719.562615 Z M1169.93717,719.562615 L1142.08257,810.580297 L1118,810.580297 L1145.84887,719.562615 L1169.93717,719.562615 Z M1201.07949,719.562615 C1203.95981,719.562615 1206.29319,721.977654 1206.29319,724.955918 C1206.29319,725.162623 1206.27609,725.361743 1206.25085,725.558335 L1206.20799,725.851957 L1181.34604,810.580297 L1158.25131,810.580297 L1177.30866,745.638781 C1177.87899,743.69413 1176.53174,741.730756 1174.60512,741.613549 L1174.42284,741.608027 L1169.1102,741.608027 L1175.58267,719.562615 L1201.07949,719.562615 Z M1285.49738,719.562615 L1266.43894,784.504131 C1265.87124,786.448782 1267.21607,788.412156 1269.14515,788.529363 L1269.32767,788.534885 L1274.64061,788.534885 L1268.16778,810.580297 L1242.66675,810.580297 C1239.78902,810.580297 1237.4555,808.165258 1237.4555,805.186994 C1237.4555,804.980288 1237.4726,804.781169 1237.49785,804.584577 L1237.5407,804.290954 L1262.40408,719.562615 L1285.49738,719.562615 Z M1245.22854,718.262362 C1248.10627,718.262362 1250.43979,720.677402 1250.43979,723.655666 C1250.43979,723.862371 1250.42269,724.061491 1250.39744,724.258082 L1250.35459,724.551705 L1225.49121,809.280044 L1202.39791,809.280044 L1221.45634,744.338529 C1222.02404,742.393877 1220.67922,740.430503 1218.75014,740.313296 L1218.56762,740.307774 L1213.25467,740.307774 L1219.72751,718.262362 L1245.22854,718.262362 Z M1369.89529,718.262362 L1342.04642,809.280044 L1317.95812,809.280044 L1345.81272,718.262362 L1369.89529,718.262362 Z M1329.64398,718.262362 L1310.58663,783.203878 C1310.0163,785.148529 1311.36355,787.111904 1313.29017,787.22911 L1313.47244,787.234633 L1318.78508,787.234633 L1312.31262,809.280044 L1286.81579,809.280044 C1283.93548,809.280044 1281.60209,806.865005 1281.60209,803.886741 C1281.60209,803.680036 1281.6192,803.480916 1281.64444,803.284325 L1281.68729,802.990702 L1306.54924,718.262362 L1329.64398,718.262362 Z M1486.7364,718.262362 C1489.61413,718.262362 1491.94764,720.677402 1491.94764,723.655666 C1491.94764,723.862371 1491.93054,724.061491 1491.9053,724.258082 L1491.86244,724.551705 L1466.99907,809.280044 L1443.90576,809.280044 L1462.9642,744.338529 C1463.5319,742.393877 1462.18707,740.430503 1460.25799,740.313296 L1460.07547,740.307774 L1454.76253,740.307774 L1461.23536,718.262362 L1486.7364,718.262362 Z M1614,718.262362 L1586.15113,809.280044 L1562.06283,809.280044 L1589.91743,718.262362 L1614,718.262362 Z M1571.15183,718.262362 L1552.09449,783.203878 C1551.52415,785.148529 1552.8714,787.111904 1554.79802,787.22911 L1554.9803,787.234633 L1560.29294,787.234633 L1553.82048,809.280044 L1528.32365,809.280044 C1525.44333,809.280044 1523.10995,806.865005 1523.10995,803.886741 C1523.10995,803.680036 1523.12705,803.480916 1523.15229,803.284325 L1523.19515,802.990702 L1548.0571,718.262362 L1571.15183,718.262362 Z M1264.997,644.001 L1244.65848,710.460847 L1220.57592,710.460847 L1240.91,644.001 L1264.997,644.001 Z M1306.02,644.001 L1286.51882,710.460847 L1263.42408,710.460847 L1282.48143,645.519331 C1282.63292,645.002816 1282.64912,644.484981 1282.55512,644.000768 L1306.02,644.001 Z M1383.463,644.001 L1371.61172,684.38468 C1371.04402,686.329331 1372.38884,688.292706 1374.31792,688.409912 L1374.50044,688.415435 L1379.81339,688.415435 L1373.34056,710.460847 L1347.83952,710.460847 C1344.96179,710.460847 1342.62827,708.045807 1342.62827,705.067543 C1342.62827,704.860838 1342.64537,704.661718 1342.67062,704.465127 L1342.71348,704.171504 L1360.37,644.001 L1383.463,644.001 Z M1347.569,644.001 L1328.06713,710.460847 L1304.97382,710.460847 L1324.03226,645.519331 C1324.18305,645.002816 1324.19891,644.484981 1324.10473,644.000768 L1347.569,644.001 Z M1425.013,644.001 L1413.16255,684.38468 C1412.59222,686.329331 1413.93947,688.292706 1415.86608,688.409912 L1416.04836,688.415435 L1421.361,688.415435 L1414.88854,710.460847 L1389.39171,710.460847 C1386.51139,710.460847 1384.17801,708.045807 1384.17801,705.067543 C1384.17801,704.860838 1384.19511,704.661718 1384.22036,704.465127 L1384.26321,704.171504 L1401.919,644.001 L1425.013,644.001 Z M1467.554,644.001 L1447.21919,710.460847 L1423.13089,710.460847 L1443.469,644.001 L1467.554,644.001 Z" id="Combined-Shape"></path>
        </g>
    </g>
</svg>