<?xml version="1.0" encoding="UTF-8"?>
<svg width="69px" height="20px" viewBox="0 0 69 20" version="1.1" xmlns="http://www.w3.org/2000/svg" xmlns:xlink="http://www.w3.org/1999/xlink">
    <!-- Generator: Sketch 64 (93537) - https://sketch.com -->
    <title>Shape</title>
    <desc>Created with Sketch.</desc>
    <g id="Symbols" stroke="none" stroke-width="1" fill="none" fill-rule="evenodd" opacity="0.049999997">
        <g id="Player-Card---State-2-(Normal)" transform="translate(-59.000000, -159.000000)" fill="#F3F2F6" fill-rule="nonzero">
            <g id="Group-31" transform="translate(16.000000, 156.000000)">
                <g id="Group-40">
                    <path d="M56,32 L52.2458057,45 L49,45 L52.7534216,32 L56,32 Z M61.2403318,32 C61.6600114,32 62,32.3449386 62,32.7703222 C62,32.7998458 61.9975083,32.828286 61.99383,32.856365 L61.9875858,32.898303 L58.3650458,45 L55,45 L57.7767735,35.7244429 C57.8598745,35.4466896 57.6635715,35.166262 57.3828517,35.1495215 L57.3562929,35.1487327 L56.5822082,35.1487327 L57.525286,32 L61.2403318,32 Z M73,32 L70.2230677,41.2755571 C70.1403502,41.5533104 70.3362996,41.833738 70.6173781,41.8504785 L70.6439728,41.8512673 L71.4181017,41.8512673 L70.4749699,45 L66.7593112,45 C66.340008,45 66,44.6550614 66,44.2296778 C66,44.2001542 66.0024919,44.171714 66.0061704,44.143635 L66.0124149,44.101697 L69.6351622,32 L73,32 Z M85,32 L81.2465784,45 L78,45 L81.7541943,32 L85,32 Z M80,32 L77.2232265,41.2755571 C77.1401255,41.5533104 77.3364285,41.833738 77.6171483,41.8504785 L77.6437071,41.8512673 L78.4177918,41.8512673 L77.474714,45 L73.7596682,45 C73.3399886,45 73,44.6550614 73,44.2296778 C73,44.2001542 73.0024917,44.171714 73.00617,44.143635 L73.0124142,44.101697 L76.6349542,32 L80,32 Z M67.2406888,32 C67.659992,32 68,32.3449386 68,32.7703222 C68,32.7998458 67.9975081,32.828286 67.9938296,32.856365 L67.9875851,32.898303 L64.3648378,45 L61,45 L63.7769323,35.7244429 C63.8596498,35.4466896 63.6637004,35.166262 63.3826219,35.1495215 L63.3560272,35.1487327 L62.5818983,35.1487327 L63.5250301,32 L67.2406888,32 Z M83,17 L79.2458057,30 L76,30 L79.7534216,17 L83,17 Z M88.2403318,17 C88.6600114,17 89,17.3449386 89,17.7703222 C89,17.7998458 88.9975083,17.828286 88.99383,17.856365 L88.9875858,17.898303 L85.3650458,30 L82,30 L84.7767735,20.7244429 C84.8598745,20.4466896 84.6635715,20.166262 84.3828517,20.1495215 L84.3562929,20.1487327 L83.5822082,20.1487327 L84.525286,17 L88.2403318,17 Z M100,17 L97.2230677,26.2755571 C97.1403502,26.5533104 97.3362996,26.833738 97.6173781,26.8504785 L97.6439728,26.8512673 L98.4181017,26.8512673 L97.4749699,30 L93.7593112,30 C93.340008,30 93,29.6550614 93,29.2296778 C93,29.2001542 93.0024919,29.171714 93.0061704,29.143635 L93.0124149,29.101697 L96.6351622,17 L100,17 Z M48,17 L44.2458057,30 L41,30 L44.7534216,17 L48,17 Z M53.2403318,17 C53.6600114,17 54,17.3449386 54,17.7703222 C54,17.7998458 53.9975083,17.828286 53.99383,17.856365 L53.9875858,17.898303 L50.3650458,30 L47,30 L49.7767735,20.7244429 C49.8598745,20.4466896 49.6635715,20.166262 49.3828517,20.1495215 L49.3562929,20.1487327 L48.5822082,20.1487327 L49.525286,17 L53.2403318,17 Z M65,17 L62.2230677,26.2755571 C62.1403502,26.5533104 62.3362996,26.833738 62.6173781,26.8504785 L62.6439728,26.8512673 L63.4181017,26.8512673 L62.4749699,30 L58.7593112,30 C58.340008,30 58,29.6550614 58,29.2296778 C58,29.2001542 58.0024919,29.171714 58.0061704,29.143635 L58.0124149,29.101697 L61.6351622,17 L65,17 Z M59.2406888,17 C59.659992,17 60,17.3449386 60,17.7703222 C60,17.7998458 59.9975081,17.828286 59.9938296,17.856365 L59.9875851,17.898303 L56.3648378,30 L53,30 L55.7769323,20.7244429 C55.8596498,20.4466896 55.6637004,20.166262 55.3826219,20.1495215 L55.3560272,20.1487327 L54.5818983,20.1487327 L55.5250301,17 L59.2406888,17 Z M77,17 L73.2465784,30 L70,30 L73.7541943,17 L77,17 Z M71,17 L68.2232265,26.2755571 C68.1401255,26.5533104 68.3364285,26.833738 68.6171483,26.8504785 L68.6437071,26.8512673 L69.4177918,26.8512673 L68.474714,30 L64.7596682,30 C64.3399886,30 64,29.6550614 64,29.2296778 C64,29.2001542 64.0024917,29.171714 64.00617,29.143635 L64.0124142,29.101697 L67.6349542,17 L71,17 Z M94.2406888,17 C94.659992,17 95,17.3449386 95,17.7703222 C95,17.7998458 94.9975081,17.828286 94.9938296,17.856365 L94.9875851,17.898303 L91.3648378,30 L88,30 L90.7769323,20.7244429 C90.8596498,20.4466896 90.6637004,20.166262 90.3826219,20.1495215 L90.3560272,20.1487327 L89.5818983,20.1487327 L90.5250301,17 L94.2406888,17 Z M112,17 L108.246578,30 L105,30 L108.754194,17 L112,17 Z M106,17 L103.223227,26.2755571 C103.140126,26.5533104 103.336428,26.833738 103.617148,26.8504785 L103.643707,26.8512673 L104.417792,26.8512673 L103.474714,30 L99.7596682,30 C99.3399886,30 99,29.6550614 99,29.2296778 C99,29.2001542 99.0024917,29.171714 99.00617,29.143635 L99.0124142,29.101697 L102.634954,17 L106,17 Z M63,3 L59.2458057,16 L56,16 L59.7534216,3 L63,3 Z M68.2403318,3 C68.6600114,3 69,3.34493859 69,3.77032222 C69,3.79984582 68.9975083,3.82828598 68.99383,3.85636501 L68.9875858,3.89830297 L65.3650458,16 L62,16 L64.7767735,6.72444292 C64.8598745,6.44668959 64.6635715,6.16626203 64.3828517,6.14952148 L64.3562929,6.1487327 L63.5822082,6.1487327 L64.525286,3 L68.2403318,3 Z M80,3 L77.2230677,12.2755571 C77.1403502,12.5533104 77.3362996,12.833738 77.6173781,12.8504785 L77.6439728,12.8512673 L78.4181017,12.8512673 L77.4749699,16 L73.7593112,16 C73.340008,16 73,15.6550614 73,15.2296778 C73,15.2001542 73.0024919,15.171714 73.0061704,15.143635 L73.0124149,15.101697 L76.6351622,3 L80,3 Z M74.2406888,3 C74.659992,3 75,3.34493859 75,3.77032222 C75,3.79984582 74.9975081,3.82828598 74.9938296,3.85636501 L74.9875851,3.89830297 L71.3648378,16 L68,16 L70.7769323,6.72444292 C70.8596498,6.44668959 70.6637004,6.16626203 70.3826219,6.14952148 L70.3560272,6.1487327 L69.5818983,6.1487327 L70.5250301,3 L74.2406888,3 Z M86,3 L83.2232265,12.2755571 C83.1401255,12.5533104 83.3364285,12.833738 83.6171483,12.8504785 L83.6437071,12.8512673 L84.4177918,12.8512673 L83.474714,16 L79.7596682,16 C79.3399886,16 79,15.6550614 79,15.2296778 C79,15.2001542 79.0024917,15.171714 79.00617,15.143635 L79.0124142,15.101697 L82.6349542,3 L86,3 Z M92,3 L88.2465784,16 L85,16 L88.7541943,3 L92,3 Z" id="Shape"></path>
                </g>
            </g>
        </g>
    </g>
</svg>