<?xml version="1.0" encoding="UTF-8"?>
<svg width="33px" height="25px" viewBox="0 0 33 25" version="1.1" xmlns="http://www.w3.org/2000/svg" xmlns:xlink="http://www.w3.org/1999/xlink">
    <!-- Generator: Sketch 64 (93537) - https://sketch.com -->
    <title>Shape</title>
    <desc>Created with Sketch.</desc>
    <g id="Page-1" stroke="none" stroke-width="1" fill="none" fill-rule="evenodd" opacity="0.049999997">
        <g id="(Live-State)---Past-Gameweek" transform="translate(-118.000000, -850.000000)" fill="#F3F2F6" fill-rule="nonzero">
            <g id="Group-11" transform="translate(117.000000, 838.000000)">
                <g id="Group-5" transform="translate(0.000000, 4.000000)">
                    <g id="Group-4">
                        <path d="M7,37 L3.24580574,50 L0,50 L3.75342163,37 L7,37 Z M12.2403318,37 C12.6600114,37 13,37.3449386 13,37.7703222 C13,37.7998458 12.9975083,37.828286 12.99383,37.856365 L12.9875858,37.898303 L9.36504575,50 L6,50 L8.77677345,40.7244429 C8.85987449,40.4466896 8.66357154,40.166262 8.38285174,40.1495215 L8.3562929,40.1487327 L7.58220824,40.1487327 L8.52528602,37 L12.2403318,37 Z M24,37 L21.2230677,46.2755571 C21.1403502,46.5533104 21.3362996,46.833738 21.6173781,46.8504785 L21.6439728,46.8512673 L22.4181017,46.8512673 L21.4749699,50 L17.7593112,50 C17.340008,50 17,49.6550614 17,49.2296778 C17,49.2001542 17.0024919,49.171714 17.0061704,49.143635 L17.0124149,49.101697 L20.6351622,37 L24,37 Z M36,37 L32.2465784,50 L29,50 L32.7541943,37 L36,37 Z M31,37 L28.2232265,46.2755571 C28.1401255,46.5533104 28.3364285,46.833738 28.6171483,46.8504785 L28.6437071,46.8512673 L29.4177918,46.8512673 L28.474714,50 L24.7596682,50 C24.3399886,50 24,49.6550614 24,49.2296778 C24,49.2001542 24.0024917,49.171714 24.00617,49.143635 L24.0124142,49.101697 L27.6349542,37 L31,37 Z M18.2406888,37 C18.659992,37 19,37.3449386 19,37.7703222 C19,37.7998458 18.9975081,37.828286 18.9938296,37.856365 L18.9875851,37.898303 L15.3648378,50 L12,50 L14.7769323,40.7244429 C14.8596498,40.4466896 14.6637004,40.166262 14.3826219,40.1495215 L14.3560272,40.1487327 L13.5818983,40.1487327 L14.5250301,37 L18.2406888,37 Z M34,22 L30.2458057,35 L27,35 L30.7534216,22 L34,22 Z M39.2403318,22 C39.6600114,22 40,22.3449386 40,22.7703222 C40,22.7998458 39.9975083,22.828286 39.99383,22.856365 L39.9875858,22.898303 L36.3650458,35 L33,35 L35.7767735,25.7244429 C35.8598745,25.4466896 35.6635715,25.166262 35.3828517,25.1495215 L35.3562929,25.1487327 L34.5822082,25.1487327 L35.525286,22 L39.2403318,22 Z M51,22 L48.2230677,31.2755571 C48.1403502,31.5533104 48.3362996,31.833738 48.6173781,31.8504785 L48.6439728,31.8512673 L49.4181017,31.8512673 L48.4749699,35 L44.7593112,35 C44.340008,35 44,34.6550614 44,34.2296778 C44,34.2001542 44.0024919,34.171714 44.0061704,34.143635 L44.0124149,34.101697 L47.6351622,22 L51,22 Z M-1,22 L-4.75419426,35 L-8,35 L-4.24657837,22 L-1,22 Z M4.24033178,22 C4.66001144,22 5,22.3449386 5,22.7703222 C5,22.7998458 4.99750825,22.828286 4.99382997,22.856365 L4.98758579,22.898303 L1.36504575,35 L-2,35 L0.776773453,25.7244429 C0.85987449,25.4466896 0.663571541,25.166262 0.382851741,25.1495215 L0.356292896,25.1487327 L-0.417791758,25.1487327 L0.525286021,22 L4.24033178,22 Z M16,22 L13.2230677,31.2755571 C13.1403502,31.5533104 13.3362996,31.833738 13.6173781,31.8504785 L13.6439728,31.8512673 L14.4181017,31.8512673 L13.4749699,35 L9.75931117,35 C9.34000799,35 9,34.6550614 9,34.2296778 C9,34.2001542 9.00249187,34.171714 9.00617036,34.143635 L9.0124149,34.101697 L12.6351622,22 L16,22 Z M10.2406888,22 C10.659992,22 11,22.3449386 11,22.7703222 C11,22.7998458 10.9975081,22.828286 10.9938296,22.856365 L10.9875851,22.898303 L7.36483781,35 L4,35 L6.77693232,25.7244429 C6.85964976,25.4466896 6.6637004,25.166262 6.38262186,25.1495215 L6.35602725,25.1487327 L5.5818983,25.1487327 L6.52503006,22 L10.2406888,22 Z M28,22 L24.2465784,35 L21,35 L24.7541943,22 L28,22 Z M22,22 L19.2232265,31.2755571 C19.1401255,31.5533104 19.3364285,31.833738 19.6171483,31.8504785 L19.6437071,31.8512673 L20.4177918,31.8512673 L19.474714,35 L15.7596682,35 C15.3399886,35 15,34.6550614 15,34.2296778 C15,34.2001542 15.0024917,34.171714 15.00617,34.143635 L15.0124142,34.101697 L18.6349542,22 L22,22 Z M45.2406888,22 C45.659992,22 46,22.3449386 46,22.7703222 C46,22.7998458 45.9975081,22.828286 45.9938296,22.856365 L45.9875851,22.898303 L42.3648378,35 L39,35 L41.7769323,25.7244429 C41.8596498,25.4466896 41.6637004,25.166262 41.3826219,25.1495215 L41.3560272,25.1487327 L40.5818983,25.1487327 L41.5250301,22 L45.2406888,22 Z M63,22 L59.2465784,35 L56,35 L59.7541943,22 L63,22 Z M57,22 L54.2232265,31.2755571 C54.1401255,31.5533104 54.3364285,31.833738 54.6171483,31.8504785 L54.6437071,31.8512673 L55.4177918,31.8512673 L54.474714,35 L50.7596682,35 C50.3399886,35 50,34.6550614 50,34.2296778 C50,34.2001542 50.0024917,34.171714 50.00617,34.143635 L50.0124142,34.101697 L53.6349542,22 L57,22 Z M14,8 L10.2458057,21 L7,21 L10.7534216,8 L14,8 Z M19.2403318,8 C19.6600114,8 20,8.34493859 20,8.77032222 C20,8.79984582 19.9975083,8.82828598 19.99383,8.85636501 L19.9875858,8.89830297 L16.3650458,21 L13,21 L15.7767735,11.7244429 C15.8598745,11.4466896 15.6635715,11.166262 15.3828517,11.1495215 L15.3562929,11.1487327 L14.5822082,11.1487327 L15.525286,8 L19.2403318,8 Z M31,8 L28.2230677,17.2755571 C28.1403502,17.5533104 28.3362996,17.833738 28.6173781,17.8504785 L28.6439728,17.8512673 L29.4181017,17.8512673 L28.4749699,21 L24.7593112,21 C24.340008,21 24,20.6550614 24,20.2296778 C24,20.2001542 24.0024919,20.171714 24.0061704,20.143635 L24.0124149,20.101697 L27.6351622,8 L31,8 Z M25.2406888,8 C25.659992,8 26,8.34493859 26,8.77032222 C26,8.79984582 25.9975081,8.82828598 25.9938296,8.85636501 L25.9875851,8.89830297 L22.3648378,21 L19,21 L21.7769323,11.7244429 C21.8596498,11.4466896 21.6637004,11.166262 21.3826219,11.1495215 L21.3560272,11.1487327 L20.5818983,11.1487327 L21.5250301,8 L25.2406888,8 Z M37,8 L34.2232265,17.2755571 C34.1401255,17.5533104 34.3364285,17.833738 34.6171483,17.8504785 L34.6437071,17.8512673 L35.4177918,17.8512673 L34.474714,21 L30.7596682,21 C30.3399886,21 30,20.6550614 30,20.2296778 C30,20.2001542 30.0024917,20.171714 30.00617,20.143635 L30.0124142,20.101697 L33.6349542,8 L37,8 Z M43,8 L39.2465784,21 L36,21 L39.7541943,8 L43,8 Z" id="Shape"></path>
                    </g>
                </g>
            </g>
        </g>
    </g>
</svg>