<?xml version="1.0" encoding="UTF-8"?>
<svg width="50px" height="19px" viewBox="0 0 50 19" version="1.1" xmlns="http://www.w3.org/2000/svg" xmlns:xlink="http://www.w3.org/1999/xlink">
    <!-- Generator: Sketch 64 (93537) - https://sketch.com -->
    <title>Shape</title>
    <desc>Created with Sketch.</desc>
    <g id="Page-1" stroke="none" stroke-width="1" fill="none" fill-rule="evenodd" opacity="0.049999997">
        <g id="Player-pop-out" transform="translate(-631.000000, -363.000000)" fill="#F3F2F6" fill-rule="nonzero">
            <g id="Group-7" transform="translate(589.000000, 341.000000)">
                <g id="Group-8" transform="translate(10.000000, 11.000000)">
                    <g id="Shape">
                        <path d="M46.0674157,33 L42.6084952,42.75 L39.6179775,42.75 L43.0761862,33 L46.0674157,33 Z M50.8955866,33 C51.2822577,33 51.5955056,33.2587039 51.5955056,33.5777417 C51.5955056,33.5998844 51.5932099,33.6212145 51.5898209,33.6422738 L51.5840678,33.6737272 L48.2464466,42.75 L45.1460674,42.75 L47.704443,35.7933322 C47.781008,35.5850172 47.6001446,35.3746965 47.3415039,35.3621411 L47.3170339,35.3615495 L46.6038323,35.3615495 L47.4727354,33 L50.8955866,33 Z M61.7303371,33 L59.1718152,39.9566678 C59.0956036,40.1649828 59.2761412,40.3753035 59.5351124,40.3878589 L59.5596153,40.3884505 L60.2728577,40.3884505 L59.4039049,42.75 L55.9804889,42.75 C55.5941647,42.75 55.2808989,42.4912961 55.2808989,42.1722583 C55.2808989,42.1501156 55.2831948,42.1287855 55.2865839,42.1077262 L55.2923373,42.0762728 L58.6301494,33 L61.7303371,33 Z M72.7865169,33 L69.3283082,42.75 L66.3370787,42.75 L69.7959992,33 L72.7865169,33 Z M68.1797753,33 L65.6213997,39.9566678 C65.5448347,40.1649828 65.7256981,40.3753035 65.9843388,40.3878589 L66.0088088,40.3884505 L66.7220104,40.3884505 L65.8531073,42.75 L62.4302561,42.75 C62.043585,42.75 61.7303371,42.4912961 61.7303371,42.1722583 C61.7303371,42.1501156 61.7326328,42.1287855 61.7360218,42.1077262 L61.7417749,42.0762728 L65.079396,33 L68.1797753,33 Z M56.4240054,33 C56.8103297,33 57.1235955,33.2587039 57.1235955,33.5777417 C57.1235955,33.5998844 57.1212996,33.6212145 57.1179105,33.6422738 L57.1121571,33.6737272 L53.7743449,42.75 L50.6741573,42.75 L53.2326792,35.7933322 C53.3088908,35.5850172 53.1283532,35.3746965 52.8693819,35.3621411 L52.844879,35.3615495 L52.1316366,35.3615495 L53.0005895,33 L56.4240054,33 Z M70.9438202,21.75 L67.4848997,31.5 L64.494382,31.5 L67.9525907,21.75 L70.9438202,21.75 Z M75.7719911,21.75 C76.1586622,21.75 76.4719101,22.0087039 76.4719101,22.3277417 C76.4719101,22.3498844 76.4696143,22.3712145 76.4662254,22.3922738 L76.4604723,22.4237272 L73.1228511,31.5 L70.0224719,31.5 L72.5808475,24.5433322 C72.6574125,24.3350172 72.4765491,24.1246965 72.2179083,24.1121411 L72.1934384,24.1115495 L71.4802368,24.1115495 L72.3491399,21.75 L75.7719911,21.75 Z M86.6067416,21.75 L84.0482197,28.7066678 C83.9720081,28.9149828 84.1525457,29.1253035 84.4115169,29.1378589 L84.4360198,29.1384505 L85.1492622,29.1384505 L84.2803094,31.5 L80.8568934,31.5 C80.4705692,31.5 80.1573034,31.2412961 80.1573034,30.9222583 C80.1573034,30.9001156 80.1595993,30.8787855 80.1629884,30.8577262 L80.1687418,30.8262728 L83.5065539,21.75 L86.6067416,21.75 Z M38.6966292,21.75 L35.2377087,31.5 L32.247191,31.5 L35.7053997,21.75 L38.6966292,21.75 Z M43.5248001,21.75 C43.9114712,21.75 44.2247191,22.0087039 44.2247191,22.3277417 C44.2247191,22.3498844 44.2224233,22.3712145 44.2190344,22.3922738 L44.2132813,22.4237272 L40.8756601,31.5 L37.7752809,31.5 L40.3336564,24.5433322 C40.4102214,24.3350172 40.229358,24.1246965 39.9707173,24.1121411 L39.9462474,24.1115495 L39.2330458,24.1115495 L40.1019489,21.75 L43.5248001,21.75 Z M54.3595506,21.75 L51.8010286,28.7066678 C51.7248171,28.9149828 51.9053547,29.1253035 52.1643259,29.1378589 L52.1888288,29.1384505 L52.9020712,29.1384505 L52.0331184,31.5 L48.6097024,31.5 C48.2233781,31.5 47.9101124,31.2412961 47.9101124,30.9222583 C47.9101124,30.9001156 47.9124082,30.8787855 47.9157974,30.8577262 L47.9215508,30.8262728 L51.2593629,21.75 L54.3595506,21.75 Z M49.0532189,21.75 C49.4395432,21.75 49.752809,22.0087039 49.752809,22.3277417 C49.752809,22.3498844 49.7505131,22.3712145 49.7471239,22.3922738 L49.7413705,22.4237272 L46.4035584,31.5 L43.3033708,31.5 L45.8618927,24.5433322 C45.9381043,24.3350172 45.7575667,24.1246965 45.4985954,24.1121411 L45.4740925,24.1115495 L44.7608501,24.1115495 L45.629803,21.75 L49.0532189,21.75 Z M65.4157303,21.75 L61.9575216,31.5 L58.9662921,31.5 L62.4252127,21.75 L65.4157303,21.75 Z M59.8876404,21.75 L57.3292649,28.7066678 C57.2526999,28.9149828 57.4335633,29.1253035 57.692204,29.1378589 L57.716674,29.1384505 L58.4298756,29.1384505 L57.5609724,31.5 L54.1381213,31.5 C53.7514501,31.5 53.4382022,31.2412961 53.4382022,30.9222583 C53.4382022,30.9001156 53.440498,30.8787855 53.443887,30.8577262 L53.4496401,30.8262728 L56.7872612,21.75 L59.8876404,21.75 Z M81.3004099,21.75 C81.6867342,21.75 82,22.0087039 82,22.3277417 C82,22.3498844 81.9977041,22.3712145 81.9943149,22.3922738 L81.9885616,22.4237272 L78.6507494,31.5 L75.5505618,31.5 L78.1090837,24.5433322 C78.1852953,24.3350172 78.0047577,24.1246965 77.7457864,24.1121411 L77.7212835,24.1115495 L77.0080411,24.1115495 L77.876994,21.75 L81.3004099,21.75 Z M97.6629213,21.75 L94.2047127,31.5 L91.2134831,31.5 L94.6724037,21.75 L97.6629213,21.75 Z M92.1348315,21.75 L89.5764559,28.7066678 C89.4998909,28.9149828 89.6807543,29.1253035 89.939395,29.1378589 L89.963865,29.1384505 L90.6770666,29.1384505 L89.8081634,31.5 L86.3853123,31.5 C85.9986411,31.5 85.6853933,31.2412961 85.6853933,30.9222583 C85.6853933,30.9001156 85.687689,30.8787855 85.691078,30.8577262 L85.6968311,30.8262728 L89.0344522,21.75 L92.1348315,21.75 Z M52.5168539,11.25 L49.0579334,21 L46.0674157,21 L49.5256244,11.25 L52.5168539,11.25 Z M57.3450248,11.25 C57.7316959,11.25 58.0449438,11.5087039 58.0449438,11.8277417 C58.0449438,11.8498844 58.0426481,11.8712145 58.0392591,11.8922738 L58.033506,11.9237272 L54.6958849,21 L51.5955056,21 L54.1538812,14.0433322 C54.2304462,13.8350172 54.0495828,13.6246965 53.7909421,13.6121411 L53.7664721,13.6115495 L53.0532705,13.6115495 L53.9221736,11.25 L57.3450248,11.25 Z M68.1797753,11.25 L65.6212534,18.2066678 C65.5450418,18.4149828 65.7255794,18.6253035 65.9845507,18.6378589 L66.0090535,18.6384505 L66.7222959,18.6384505 L65.8533431,21 L62.4299271,21 C62.0436029,21 61.7303371,20.7412961 61.7303371,20.4222583 C61.7303371,20.4001156 61.732633,20.3787855 61.7360221,20.3577262 L61.7417755,20.3262728 L65.0795876,11.25 L68.1797753,11.25 Z M62.8734436,11.25 C63.2597679,11.25 63.5730337,11.5087039 63.5730337,11.8277417 C63.5730337,11.8498844 63.5707378,11.8712145 63.5673487,11.8922738 L63.5615953,11.9237272 L60.2237831,21 L57.1235955,21 L59.6821174,14.0433322 C59.758329,13.8350172 59.5777914,13.6246965 59.3188201,13.6121411 L59.2943172,13.6115495 L58.5810748,13.6115495 L59.4500277,11.25 L62.8734436,11.25 Z M73.7078652,11.25 L71.1494896,18.2066678 C71.0729246,18.4149828 71.253788,18.6253035 71.5124287,18.6378589 L71.5368987,18.6384505 L72.2501003,18.6384505 L71.3811971,21 L67.958346,21 C67.5716749,21 67.258427,20.7412961 67.258427,20.4222583 C67.258427,20.4001156 67.2607227,20.3787855 67.2641117,20.3577262 L67.2698648,20.3262728 L70.6074859,11.25 L73.7078652,11.25 Z M79.2359551,11.25 L75.7777464,21 L72.7865169,21 L76.2454374,11.25 L79.2359551,11.25 Z"></path>
                    </g>
                </g>
            </g>
        </g>
    </g>
</svg>