<?xml version="1.0" encoding="UTF-8"?>
<svg width="51px" height="51px" viewBox="0 0 51 51" version="1.1" xmlns="http://www.w3.org/2000/svg" xmlns:xlink="http://www.w3.org/1999/xlink">
    <!-- Generator: Sketch 64 (93537) - https://sketch.com -->
    <title>(Live State) - Past Gameweek</title>
    <desc>Created with Sketch.</desc>
    <defs>
        <rect id="path-1" x="0" y="0" width="45" height="45" rx="22.5"></rect>
        <filter x="-15.6%" y="-11.1%" width="131.1%" height="131.1%" filterUnits="objectBoundingBox" id="filter-2">
            <feOffset dx="0" dy="2" in="SourceAlpha" result="shadowOffsetOuter1"></feOffset>
            <feGaussianBlur stdDeviation="2" in="shadowOffsetOuter1" result="shadowBlurOuter1"></feGaussianBlur>
            <feColorMatrix values="0 0 0 0 0   0 0 0 0 0   0 0 0 0 0  0 0 0 0.5 0" type="matrix" in="shadowBlurOuter1"></feColorMatrix>
        </filter>
    </defs>
    <g id="Page-1" stroke="none" stroke-width="1" fill="none" fill-rule="evenodd">
        <g id="Artboard" transform="translate(-80.000000, -126.000000)">
            <g id="Group-10" transform="translate(83.000000, 129.000000)">
                <g id="Group-8">
                    <g id="Rectangle-Copy-9">
                        <use fill="black" fill-opacity="1" filter="url(#filter-2)" xlink:href="#path-1"></use>
                        <use fill="#353780" fill-rule="evenodd" xlink:href="#path-1"></use>
                    </g>
                    <path d="M20,35 L16.2458057,48 L13,48 L16.7534216,35 L20,35 Z M25.2403318,35 C25.6600114,35 26,35.3449386 26,35.7703222 C26,35.7998458 25.9975083,35.828286 25.99383,35.856365 L25.9875858,35.898303 L22.3650458,48 L19,48 L21.7767735,38.7244429 C21.8598745,38.4466896 21.6635715,38.166262 21.3828517,38.1495215 L21.3562929,38.1487327 L20.5822082,38.1487327 L21.525286,35 L25.2403318,35 Z M37,35 L34.2230677,44.2755571 C34.1403502,44.5533104 34.3362996,44.833738 34.6173781,44.8504785 L34.6439728,44.8512673 L35.4181017,44.8512673 L34.4749699,48 L30.7593112,48 C30.340008,48 30,47.6550614 30,47.2296778 C30,47.2001542 30.0024919,47.171714 30.0061704,47.143635 L30.0124149,47.101697 L33.6351622,35 L37,35 Z M49,35 L45.2465784,48 L42,48 L45.7541943,35 L49,35 Z M44,35 L41.2232265,44.2755571 C41.1401255,44.5533104 41.3364285,44.833738 41.6171483,44.8504785 L41.6437071,44.8512673 L42.4177918,44.8512673 L41.474714,48 L37.7596682,48 C37.3399886,48 37,47.6550614 37,47.2296778 C37,47.2001542 37.0024917,47.171714 37.00617,47.143635 L37.0124142,47.101697 L40.6349542,35 L44,35 Z M31.2406888,35 C31.659992,35 32,35.3449386 32,35.7703222 C32,35.7998458 31.9975081,35.828286 31.9938296,35.856365 L31.9875851,35.898303 L28.3648378,48 L25,48 L27.7769323,38.7244429 C27.8596498,38.4466896 27.6637004,38.166262 27.3826219,38.1495215 L27.3560272,38.1487327 L26.5818983,38.1487327 L27.5250301,35 L31.2406888,35 Z M47,20 L43.2458057,33 L40,33 L43.7534216,20 L47,20 Z M52.2403318,20 C52.6600114,20 53,20.3449386 53,20.7703222 C53,20.7998458 52.9975083,20.828286 52.99383,20.856365 L52.9875858,20.898303 L49.3650458,33 L46,33 L48.7767735,23.7244429 C48.8598745,23.4466896 48.6635715,23.166262 48.3828517,23.1495215 L48.3562929,23.1487327 L47.5822082,23.1487327 L48.525286,20 L52.2403318,20 Z M64,20 L61.2230677,29.2755571 C61.1403502,29.5533104 61.3362996,29.833738 61.6173781,29.8504785 L61.6439728,29.8512673 L62.4181017,29.8512673 L61.4749699,33 L57.7593112,33 C57.340008,33 57,32.6550614 57,32.2296778 C57,32.2001542 57.0024919,32.171714 57.0061704,32.143635 L57.0124149,32.101697 L60.6351622,20 L64,20 Z M12,20 L8.24580574,33 L5,33 L8.75342163,20 L12,20 Z M17.2403318,20 C17.6600114,20 18,20.3449386 18,20.7703222 C18,20.7998458 17.9975083,20.828286 17.99383,20.856365 L17.9875858,20.898303 L14.3650458,33 L11,33 L13.7767735,23.7244429 C13.8598745,23.4466896 13.6635715,23.166262 13.3828517,23.1495215 L13.3562929,23.1487327 L12.5822082,23.1487327 L13.525286,20 L17.2403318,20 Z M29,20 L26.2230677,29.2755571 C26.1403502,29.5533104 26.3362996,29.833738 26.6173781,29.8504785 L26.6439728,29.8512673 L27.4181017,29.8512673 L26.4749699,33 L22.7593112,33 C22.340008,33 22,32.6550614 22,32.2296778 C22,32.2001542 22.0024919,32.171714 22.0061704,32.143635 L22.0124149,32.101697 L25.6351622,20 L29,20 Z M23.2406888,20 C23.659992,20 24,20.3449386 24,20.7703222 C24,20.7998458 23.9975081,20.828286 23.9938296,20.856365 L23.9875851,20.898303 L20.3648378,33 L17,33 L19.7769323,23.7244429 C19.8596498,23.4466896 19.6637004,23.166262 19.3826219,23.1495215 L19.3560272,23.1487327 L18.5818983,23.1487327 L19.5250301,20 L23.2406888,20 Z M41,20 L37.2465784,33 L34,33 L37.7541943,20 L41,20 Z M35,20 L32.2232265,29.2755571 C32.1401255,29.5533104 32.3364285,29.833738 32.6171483,29.8504785 L32.6437071,29.8512673 L33.4177918,29.8512673 L32.474714,33 L28.7596682,33 C28.3399886,33 28,32.6550614 28,32.2296778 C28,32.2001542 28.0024917,32.171714 28.00617,32.143635 L28.0124142,32.101697 L31.6349542,20 L35,20 Z M58.2406888,20 C58.659992,20 59,20.3449386 59,20.7703222 C59,20.7998458 58.9975081,20.828286 58.9938296,20.856365 L58.9875851,20.898303 L55.3648378,33 L52,33 L54.7769323,23.7244429 C54.8596498,23.4466896 54.6637004,23.166262 54.3826219,23.1495215 L54.3560272,23.1487327 L53.5818983,23.1487327 L54.5250301,20 L58.2406888,20 Z M76,20 L72.2465784,33 L69,33 L72.7541943,20 L76,20 Z M70,20 L67.2232265,29.2755571 C67.1401255,29.5533104 67.3364285,29.833738 67.6171483,29.8504785 L67.6437071,29.8512673 L68.4177918,29.8512673 L67.474714,33 L63.7596682,33 C63.3399886,33 63,32.6550614 63,32.2296778 C63,32.2001542 63.0024917,32.171714 63.00617,32.143635 L63.0124142,32.101697 L66.6349542,20 L70,20 Z M27,6 L23.2458057,19 L20,19 L23.7534216,6 L27,6 Z M32.2403318,6 C32.6600114,6 33,6.34493859 33,6.77032222 C33,6.79984582 32.9975083,6.82828598 32.99383,6.85636501 L32.9875858,6.89830297 L29.3650458,19 L26,19 L28.7767735,9.72444292 C28.8598745,9.44668959 28.6635715,9.16626203 28.3828517,9.14952148 L28.3562929,9.1487327 L27.5822082,9.1487327 L28.525286,6 L32.2403318,6 Z M44,6 L41.2230677,15.2755571 C41.1403502,15.5533104 41.3362996,15.833738 41.6173781,15.8504785 L41.6439728,15.8512673 L42.4181017,15.8512673 L41.4749699,19 L37.7593112,19 C37.340008,19 37,18.6550614 37,18.2296778 C37,18.2001542 37.0024919,18.171714 37.0061704,18.143635 L37.0124149,18.101697 L40.6351622,6 L44,6 Z M38.2406888,6 C38.659992,6 39,6.34493859 39,6.77032222 C39,6.79984582 38.9975081,6.82828598 38.9938296,6.85636501 L38.9875851,6.89830297 L35.3648378,19 L32,19 L34.7769323,9.72444292 C34.8596498,9.44668959 34.6637004,9.16626203 34.3826219,9.14952148 L34.3560272,9.1487327 L33.5818983,9.1487327 L34.5250301,6 L38.2406888,6 Z M50,6 L47.2232265,15.2755571 C47.1401255,15.5533104 47.3364285,15.833738 47.6171483,15.8504785 L47.6437071,15.8512673 L48.4177918,15.8512673 L47.474714,19 L43.7596682,19 C43.3399886,19 43,18.6550614 43,18.2296778 C43,18.2001542 43.0024917,18.171714 43.00617,18.143635 L43.0124142,18.101697 L46.6349542,6 L50,6 Z M56,6 L52.2465784,19 L49,19 L52.7541943,6 L56,6 Z" id="Shape" fill="#F3F2F6" fill-rule="nonzero" opacity="0.049999997"></path>
                </g>
                <g id="noun_bullet-points_243832" transform="translate(13.000000, 17.000000)" fill="#FFFFFF" fill-rule="nonzero">
                    <path d="M19.012,8.68 C19.012,9.156 18.62,9.576 18.116,9.576 L7.028,9.576 C6.552,9.576 6.132,9.184 6.132,8.68 C6.132,8.176 6.524,7.784 7.028,7.784 L18.144,7.784 C18.62,7.784 19.012,8.204 19.012,8.68 Z M2.184,6.524 C1.008,6.524 0.028,7.476 0.028,8.68 C0.028,9.884 0.98,10.836 2.184,10.836 C3.388,10.836 4.34,9.884 4.34,8.68 C4.34,7.476 3.36,6.524 2.184,6.524 Z M18.144,1.288 L7.028,1.288 C6.552,1.288 6.132,1.68 6.132,2.184 C6.132,2.66 6.524,3.08 7.028,3.08 L18.144,3.08 C18.62,3.08 19.04,2.688 19.04,2.184 C19.012,1.68 18.62,1.288 18.144,1.288 Z M2.184,0.028 C1.008,0.028 0.028,0.98 0.028,2.184 C0.028,3.36 0.98,4.34 2.184,4.34 C3.388,4.34 4.34,3.388 4.34,2.184 C4.312,0.98 3.36,0.028 2.184,0.028 Z" id="Shape"></path>
                </g>
            </g>
        </g>
    </g>
</svg>