<?xml version="1.0" encoding="UTF-8"?>
<svg width="238px" height="134px" viewBox="0 0 238 134" version="1.1" xmlns="http://www.w3.org/2000/svg" xmlns:xlink="http://www.w3.org/1999/xlink">
    <title>Combined Shape</title>
    <g id="Symbols" stroke="none" stroke-width="1" fill="none" fill-rule="evenodd" opacity="0.100000001">
        <g id="Bench---Sub-In" transform="translate(-2.000000, -119.000000)" fill="#525CD7">
            <g id="Group-6" transform="translate(2.000000, 9.000000)">
                <path d="M-12.2303665,152.982318 L-40.0849716,244 L-64.1675393,244 L-36.3186667,152.982318 L-12.2303665,152.982318 Z M20.2103848,152.982318 C23.0906993,152.982318 25.4240838,155.397357 25.4240838,158.375621 C25.4240838,158.582326 25.4069826,158.781446 25.3817381,158.978038 L25.3388835,159.27166 L0.476933309,244 L-22.617801,244 L-3.56045385,179.058484 C-2.99012093,177.113833 -4.33737288,175.150459 -6.26398835,175.033252 L-6.44626506,175.02773 L-11.7589059,175.02773 L-5.28644389,152.982318 L20.2103848,152.982318 Z M104.628272,152.982318 L85.5698347,217.923834 C85.0021344,219.868485 86.3469597,221.831859 88.2760373,221.949066 L88.4585595,221.954588 L93.7715043,221.954588 L87.2986718,244 L61.797636,244 C58.9199052,244 56.5863874,241.584961 56.5863874,238.606697 C56.5863874,238.399991 56.6034895,238.200871 56.6287354,238.00428 L56.6715924,237.710657 L81.5349651,152.982318 L104.628272,152.982318 Z M190.324607,152.982318 L162.475735,244 L138.387435,244 L166.24204,152.982318 L190.324607,152.982318 Z M147.47644,152.982318 L128.419093,217.923834 C127.84876,219.868485 129.196012,221.831859 131.122627,221.949066 L131.304904,221.954588 L136.617545,221.954588 L130.145083,244 L104.648254,244 C101.767939,244 99.434555,241.584961 99.434555,238.606697 C99.434555,238.399991 99.4516561,238.200871 99.4769007,238.00428 L99.5197553,237.710657 L124.381705,152.982318 L147.47644,152.982318 Z M63.0610028,152.982318 C65.9387335,152.982318 68.2722513,155.397357 68.2722513,158.375621 C68.2722513,158.582326 68.2551493,158.781446 68.2299033,158.978038 L68.1870463,159.27166 L43.3236737,244 L20.2303665,244 L39.288804,179.058484 C39.8565043,177.113833 38.511679,175.150459 36.5826015,175.033252 L36.4000793,175.02773 L31.0871345,175.02773 L37.5599669,152.982318 L63.0610028,152.982318 Z M173.445026,51.5626148 L145.590421,142.580297 L121.507853,142.580297 L149.356726,51.5626148 L173.445026,51.5626148 Z M207.184207,51.5626148 C210.064521,51.5626148 212.397906,53.9776541 212.397906,56.9559181 C212.397906,57.1626235 212.380805,57.3617433 212.35556,57.5583347 L212.312705,57.8519574 L187.450755,142.580297 L164.356021,142.580297 L183.413368,77.6387811 C183.983701,75.6941301 182.636449,73.7307557 180.709834,73.613549 L180.527557,73.6080265 L175.214916,73.6080265 L181.687378,51.5626148 L207.184207,51.5626148 Z M291.602094,51.5626148 L272.543657,116.504131 C271.975956,118.448782 273.320782,120.412156 275.249859,120.529363 L275.432381,120.534885 L280.745326,120.534885 L274.272494,142.580297 L248.771458,142.580297 C245.893727,142.580297 243.560209,140.165258 243.560209,137.186994 C243.560209,136.980288 243.577311,136.781169 243.602557,136.584577 L243.645414,136.290954 L268.508787,51.5626148 L291.602094,51.5626148 Z M-68.0628272,51.5626148 L-95.9174324,142.580297 L-120,142.580297 L-92.1511275,51.5626148 L-68.0628272,51.5626148 Z M-36.9205053,51.5626148 C-34.0401908,51.5626148 -31.7068063,53.9776541 -31.7068063,56.9559181 C-31.7068063,57.1626235 -31.7239075,57.3617433 -31.749152,57.5583347 L-31.7920066,57.8519574 L-56.6539567,142.580297 L-79.7486911,142.580297 L-60.6913439,77.6387811 C-60.121011,75.6941301 -61.4682629,73.7307557 -63.3948784,73.613549 L-63.5771551,73.6080265 L-68.8897959,73.6080265 L-62.4173339,51.5626148 L-36.9205053,51.5626148 Z M47.4973822,51.5626148 L28.4389447,116.504131 C27.8712444,118.448782 29.2160697,120.412156 31.1451472,120.529363 L31.3276694,120.534885 L36.6406142,120.534885 L30.1677818,142.580297 L4.66674593,142.580297 C1.78901518,142.580297 -0.544502618,140.165258 -0.544502618,137.186994 C-0.544502618,136.980288 -0.527400576,136.781169 -0.502154647,136.584577 L-0.459297607,136.290954 L24.404075,51.5626148 L47.4973822,51.5626148 Z M7.22854202,50.2623622 C10.1062728,50.2623622 12.4397906,52.6774015 12.4397906,55.6556655 C12.4397906,55.8623709 12.4226885,56.0614907 12.3974426,56.2580821 L12.3545856,56.5517048 L-12.5087871,141.280044 L-35.6020942,141.280044 L-16.5436567,76.3385285 C-15.9759564,74.3938775 -17.3207817,72.4305031 -19.2498593,72.3132964 L-19.4323814,72.3077739 L-24.7453263,72.3077739 L-18.2724938,50.2623622 L7.22854202,50.2623622 Z M131.895288,50.2623622 L104.046415,141.280044 L79.9581152,141.280044 L107.81272,50.2623622 L131.895288,50.2623622 Z M91.6439791,50.2623622 L72.5866319,115.203878 C72.0162989,117.148529 73.3635509,119.111904 75.2901664,119.22911 L75.4724431,119.234633 L80.7850839,119.234633 L74.3126219,141.280044 L48.8157932,141.280044 C45.9354787,141.280044 43.6020942,138.865005 43.6020942,135.886741 C43.6020942,135.680036 43.6191954,135.480916 43.6444399,135.284325 L43.6872945,134.990702 L68.5492447,50.2623622 L91.6439791,50.2623622 Z M248.736395,50.2623622 C251.614126,50.2623622 253.947644,52.6774015 253.947644,55.6556655 C253.947644,55.8623709 253.930542,56.0614907 253.905296,56.2580821 L253.862439,56.5517048 L228.999066,141.280044 L205.905759,141.280044 L224.964197,76.3385285 C225.531897,74.3938775 224.187072,72.4305031 222.257994,72.3132964 L222.075472,72.3077739 L216.762527,72.3077739 L223.23536,50.2623622 L248.736395,50.2623622 Z M376,50.2623622 L348.151127,141.280044 L324.062827,141.280044 L351.917432,50.2623622 L376,50.2623622 Z M333.151832,50.2623622 L314.094485,115.203878 C313.524152,117.148529 314.871404,119.111904 316.79802,119.22911 L316.980296,119.234633 L322.292937,119.234633 L315.820475,141.280044 L290.323647,141.280044 C287.443332,141.280044 285.109948,138.865005 285.109948,135.886741 C285.109948,135.680036 285.127049,135.480916 285.152293,135.284325 L285.195148,134.990702 L310.057098,50.2623622 L333.151832,50.2623622 Z M26.997,-23.999 L6.65848386,42.4608466 L-17.4240838,42.4608466 L2.91,-23.999 L26.997,-23.999 Z M68.02,-23.999 L48.5188181,42.4608466 L25.4240838,42.4608466 L44.481431,-22.4806692 C44.6329159,-22.9971839 44.6491199,-23.5150195 44.5551186,-23.9992316 L68.02,-23.999 Z M145.463,-23.999 L133.61172,16.3846803 C133.044019,18.3293314 134.388845,20.2927057 136.317922,20.4099124 L136.500444,20.4154349 L141.813389,20.4154349 L135.340557,42.4608466 L109.839521,42.4608466 C106.96179,42.4608466 104.628272,40.0458073 104.628272,37.0675433 C104.628272,36.860838 104.645374,36.6617181 104.67062,36.4651268 L104.713477,36.171504 L122.37,-23.999 L145.463,-23.999 Z M109.569,-23.999 L90.0671292,42.4608466 L66.973822,42.4608466 L86.0322595,-22.4806692 C86.1830452,-22.9971839 86.1989069,-23.5150195 86.1047337,-23.9992316 L109.569,-23.999 Z M187.013,-23.999 L175.162548,16.3846803 C174.592215,18.3293314 175.939467,20.2927057 177.866083,20.4099124 L178.048359,20.4154349 L183.361,20.4154349 L176.888538,42.4608466 L151.391709,42.4608466 C148.511395,42.4608466 146.17801,40.0458073 146.17801,37.0675433 C146.17801,36.860838 146.195112,36.6617181 146.220356,36.4651268 L146.263211,36.171504 L163.919,-23.999 L187.013,-23.999 Z M229.554,-23.999 L209.21919,42.4608466 L185.13089,42.4608466 L205.469,-23.999 L229.554,-23.999 Z" id="Combined-Shape"></path>
            </g>
        </g>
    </g>
</svg>