<?xml version="1.0" encoding="UTF-8"?>
<svg width="25px" height="50px" viewBox="0 0 25 50" version="1.1" xmlns="http://www.w3.org/2000/svg" xmlns:xlink="http://www.w3.org/1999/xlink">
    <!-- Generator: Sketch 64 (93537) - https://sketch.com -->
    <title>Group 12</title>
    <desc>Created with Sketch.</desc>
    <g id="Page-1" stroke="none" stroke-width="1" fill="none" fill-rule="evenodd">
        <g id="(Live-State)---Past-Gameweek" transform="translate(-1294.000000, -34.000000)">
            <g id="Group-9" transform="translate(1279.000000, 11.000000)">
                <g id="Group-6" transform="translate(0.000000, 9.000000)">
                    <g id="Group-12" transform="translate(15.000000, 14.000000)">
                        <path d="M21.5160355,0.613565786 L21.7095619,4.65224766 C19.4900582,2.04476385 16.1844933,0.390371106 12.4918754,0.390371106 C6.57838749,0.390371106 1.65580784,4.63194836 0.60000039,10.2386534 C0.532271003,10.598234 0.810215231,10.930391 1.17613935,10.930391 L3.57126127,10.930391 C3.84305715,10.930391 4.07762139,10.7429153 4.1410079,10.4785852 C5.04588812,6.70501412 8.43840822,3.90371106 12.4918754,3.90371106 C15.4632339,3.90371106 18.0796474,5.40937242 19.6212229,7.70011887 L14.6669256,7.46272444 C14.3329143,7.44671922 14.0533598,7.7131963 14.0533598,8.04759795 L14.0533598,10.3610835 C14.0533598,10.6844572 14.3155428,10.9466402 14.6389165,10.9466402 L24.4144433,10.9466402 C24.737817,10.9466402 25,10.6844572 25,10.3610835 L25,0.585556659 C25,0.262182994 24.737817,3.55271368e-15 24.4144433,3.55271368e-15 L22.1009578,3.55271368e-15 C21.7665561,3.55271368e-15 21.5000303,0.279554508 21.5160355,0.613565786 Z M12.4918754,45.9133731 C9.52041934,45.9133731 6.9038594,44.4076141 5.36228391,42.1167701 L10.3330744,42.3544573 C10.6670857,42.3704137 10.9465914,42.1039366 10.9465914,41.7695838 L10.9465914,39.4560494 C10.9465914,39.1326758 10.6844084,38.8704928 10.3610347,38.8704928 L0.585556659,38.8704928 C0.262182994,38.8704928 -1.0658141e-14,39.1326758 -1.0658141e-14,39.4560494 L-1.0658141e-14,49.2315275 C-1.0658141e-14,49.5549011 0.262182994,49.8170841 0.585556659,49.8170841 L2.89777352,49.8170841 C3.23266313,49.8170841 3.49933539,49.5367489 3.48259823,49.2022984 L3.28111794,45.1729367 C5.50057287,47.775736 8.80311243,49.426713 12.4918754,49.426713 C18.4053633,49.426713 23.327943,45.1851358 24.3837504,39.5784308 C24.4514798,39.2188502 24.1735356,38.8866932 23.8076115,38.8866932 L21.4124895,38.8866932 C21.1406937,38.8866932 20.9061294,39.0741689 20.8427429,39.3384989 C19.9378627,43.11207 16.5453426,45.9133731 12.4918754,45.9133731 Z" id="Mask" fill="#FFFFFF" fill-rule="nonzero"></path>
                        <circle id="Oval" fill="#2A3255" cx="13" cy="25" r="10"></circle>
                        <path d="M13,15 C7.4771371,15 3,19.4771371 3,25 C3,30.5228629 7.4771371,35 13,35 C18.5228629,35 23,30.5228629 23,25 C23,19.4771371 18.5228629,15 13,15 Z M8.48387097,23.0645161 C8.48387097,20.5703226 10.5058065,18.5483871 13,18.5483871 C15.4941935,18.5483871 17.516129,20.5703226 17.516129,23.0645161 C17.516129,25.5587097 15.4941935,27.5806452 13,27.5806452 C10.5058065,27.5806452 8.48387097,25.5587097 8.48387097,23.0645161 Z M19.3067742,30.0267339 C16.0670161,34.0755645 9.93681452,34.0803629 6.69318548,30.0267339 C7.39528226,29.3134274 8.37169355,28.8709677 9.4516129,28.8709677 L10.1856452,28.8709677 C11.9610484,29.7312903 14.03625,29.7325806 15.8143548,28.8709677 L16.5483871,28.8709677 C17.6283065,28.8709677 18.6047177,29.3134274 19.3067742,30.0267339 Z" id="Mask" fill="#A4D5E4" fill-rule="nonzero"></path>
                    </g>
                </g>
            </g>
        </g>
    </g>
</svg>