<?xml version="1.0" encoding="UTF-8"?>
<svg width="24px" height="24px" viewBox="0 0 24 24" version="1.1" xmlns="http://www.w3.org/2000/svg" xmlns:xlink="http://www.w3.org/1999/xlink">
    <!-- Generator: Sketch 64 (93537) - https://sketch.com -->
    <title>Group 20</title>
    <desc>Created with Sketch.</desc>
    <g id="Page-1" stroke="none" stroke-width="1" fill="none" fill-rule="evenodd">
        <g id="Chanes-to-lineup-message" transform="translate(-436.000000, -487.000000)">
            <g id="Group-20" transform="translate(448.000000, 499.000000) rotate(-90.000000) translate(-448.000000, -499.000000) translate(436.000000, 487.000000)">
                <circle id="Oval" fill="#FFFFFF" cx="12" cy="12" r="12"></circle>
                <g id="noun_expand_1554644" transform="translate(8.000000, 9.000000)" fill="#1F224F" fill-rule="nonzero" stroke="#1F2150" stroke-width="0.66">
                    <path d="M2.02272272,5.45696821e-13 C1.77390831,0.01295712 1.55931338,0.25113528 1.57227256,0.49995 C1.58523126,0.74876472 1.82340831,0.963360288 2.07222272,0.9504 L5.35902272,0.9504 L0.151622717,6.1578 C-0.042197265,6.32956896 -0.0517837914,6.66833904 0.132012956,6.85076832 C0.315809703,7.03321344 0.654501533,7.02112752 0.824822717,6.82604208 L6.03222272,1.61865 L6.03222272,4.91039842 C6.02867297,5.16145291 6.25634351,5.39236526 6.50742272,5.39236526 C6.75850192,5.39236526 6.98617325,5.16145291 6.9826637,4.91039842 L6.9826637,0.4752 C6.9826637,0.2263932 6.75623015,5.45696821e-13 6.50742272,5.45696821e-13 C5.01409151,5.45696821e-13 3.5123453,5.45696821e-13 2.02272272,5.45696821e-13 Z" id="Shape"></path>
                </g>
            </g>
        </g>
    </g>
</svg>