<?xml version="1.0" encoding="UTF-8"?>
<svg width="124px" height="62px" viewBox="0 0 124 62" version="1.1" xmlns="http://www.w3.org/2000/svg" xmlns:xlink="http://www.w3.org/1999/xlink">
    <!-- Generator: Sketch 64 (93537) - https://sketch.com -->
    <title>Shape</title>
    <desc>Created with Sketch.</desc>
    <g id="Symbols" stroke="none" stroke-width="1" fill="none" fill-rule="evenodd" opacity="0.7">
        <g id="Player-Card---State-1-(Vice-Captain)" transform="translate(-11.000000, -11.000000)" fill="#AEABAB" fill-rule="nonzero">
            <g id="Player-Card" transform="translate(11.000000, -4.000000)">
                <path d="M18,61 L13.1731788,77 L9,77 L13.8258278,61 L18,61 Z M25.0232837,61 C25.5628718,61 26,61.4245398 26,61.9480889 L25.9953018,62.0279714 L25.9953018,62.0279714 L25.9840389,62.1056036 L21.3264874,77 L17,77 L20.5701373,65.5839297 C20.6711384,65.2607744 20.4511227,64.9346779 20.1218661,64.8825726 L20.0295194,64.8753633 L19.0342677,64.8753633 L20.2467963,61 L25.0232837,61 Z M40,61 L36.4296584,72.4160703 C36.3291235,72.7392256 36.5487585,73.0653221 36.8783618,73.1174274 L36.9708221,73.1246367 L37.9661308,73.1246367 L36.7535328,77 L31.9762572,77 C31.4371531,77 31,76.5754602 31,76.0519111 L31.0046985,75.9720286 L31.0046985,75.9720286 L31.015962,75.8943964 L35.67378,61 L40,61 Z M55,61 L50.1741722,77 L46,77 L50.8268212,61 L55,61 Z M48,61 L44.4298627,72.4160703 C44.3288616,72.7392256 44.5488773,73.0653221 44.8781339,73.1174274 L44.9704806,73.1246367 L45.9657323,73.1246367 L44.7532037,77 L39.9767163,77 C39.4371282,77 39,76.5754602 39,76.0519111 L39.0046982,75.9720286 L39.0046982,75.9720286 L39.0159611,75.8943963 L43.6735126,61 L48,61 Z M32.0237428,61 C32.5628469,61 33,61.4245398 33,61.9480889 L32.9953015,62.0279714 L32.9953015,62.0279714 L32.984038,62.1056036 L28.32622,77 L24,77 L27.5703416,65.5839297 C27.6708765,65.2607744 27.4512415,64.9346779 27.1216382,64.8825726 L27.0291779,64.8753633 L26.0338692,64.8753633 L27.2464672,61 L32.0237428,61 Z M52,42 L47.1731788,58 L43,58 L47.8258278,42 L52,42 Z M58.0232837,42 C58.5628718,42 59,42.4245398 59,42.9480889 L58.9953018,43.0279714 L58.9953018,43.0279714 L58.9840389,43.1056036 L54.3264874,58 L50,58 L53.5701373,46.5839298 C53.6711384,46.2607744 53.4511227,45.9346779 53.1218661,45.8825726 L53.0295194,45.8753633 L52.0342677,45.8753633 L53.2467963,42 L58.0232837,42 Z M73,42 L69.4296584,53.4160703 C69.3291235,53.7392256 69.5487585,54.0653221 69.8783618,54.1174274 L69.9708221,54.1246367 L70.9661308,54.1246367 L69.7535328,58 L64.9762572,58 C64.4371531,58 64,57.5754602 64,57.0519111 L64.0046985,56.9720286 L64.0046985,56.9720286 L64.015962,56.8943963 L68.67378,42 L73,42 Z M8,42 L3.17317881,58 L-1,58 L3.82582781,42 L8,42 Z M14.0232837,42 C14.5628718,42 15,42.4245398 15,42.9480889 L14.9953018,43.0279714 L14.9953018,43.0279714 L14.9840389,43.1056036 L10.3264874,58 L6,58 L9.5701373,46.5839298 C9.67113845,46.2607744 9.45112272,45.9346779 9.12186605,45.8825726 L9.02951944,45.8753633 L8.03426774,45.8753633 L9.24679631,42 L14.0232837,42 Z M30,42 L26.4296584,53.4160703 C26.3291235,53.7392256 26.5487585,54.0653221 26.8783618,54.1174274 L26.9708221,54.1246367 L27.9661308,54.1246367 L26.7535328,58 L21.9762572,58 C21.4371531,58 21,57.5754602 21,57.0519111 L21.0046985,56.9720286 L21.0046985,56.9720286 L21.015962,56.8943963 L25.67378,42 L30,42 Z M22.0237428,42 C22.5628469,42 23,42.4245398 23,42.9480889 L22.9953015,43.0279714 L22.9953015,43.0279714 L22.984038,43.1056036 L18.32622,58 L14,58 L17.5703416,46.5839298 C17.6708765,46.2607744 17.4512415,45.9346779 17.1216382,45.8825726 L17.0291779,45.8753633 L16.0338692,45.8753633 L17.2464672,42 L22.0237428,42 Z M45,42 L40.1741722,58 L36,58 L40.8268212,42 L45,42 Z M37,42 L33.4298627,53.4160703 C33.3288616,53.7392256 33.5488773,54.0653221 33.8781339,54.1174274 L33.9704806,54.1246367 L34.9657323,54.1246367 L33.7532037,58 L28.9767163,58 C28.4371282,58 28,57.5754602 28,57.0519111 L28.0046982,56.9720286 L28.0046982,56.9720286 L28.0159611,56.8943963 L32.6735126,42 L37,42 Z M66.0237428,42 C66.5628469,42 67,42.4245398 67,42.9480889 L66.9953015,43.0279714 L66.9953015,43.0279714 L66.984038,43.1056036 L62.32622,58 L58,58 L61.5703416,46.5839298 C61.6708765,46.2607744 61.4512415,45.9346779 61.1216382,45.8825726 L61.0291779,45.8753633 L60.0338692,45.8753633 L61.2464672,42 L66.0237428,42 Z M88,42 L83.1741722,58 L79,58 L83.8268212,42 L88,42 Z M81,42 L77.4298627,53.4160703 C77.3288616,53.7392256 77.5488773,54.0653221 77.8781339,54.1174274 L77.9704806,54.1246367 L78.9657323,54.1246367 L77.7532037,58 L72.9767163,58 C72.4371282,58 72,57.5754602 72,57.0519111 L72.0046982,56.9720286 L72.0046982,56.9720286 L72.0159611,56.8943963 L76.6735126,42 L81,42 Z M109.023284,33 C109.562872,33 110,33.4245398 110,33.9480889 L109.995302,34.0279714 L109.995302,34.0279714 L109.984039,34.1056036 L105.326487,49 L101,49 L104.570137,37.5839297 C104.671138,37.2607744 104.451123,36.9346779 104.121866,36.8825726 L104.029519,36.8753633 L103.034268,36.8753633 L104.246796,33 L109.023284,33 Z M103,33 L98.1731788,49 L94,49 L98.8258278,33 L103,33 Z M124,33 L120.429658,44.4160703 C120.329124,44.7392256 120.548758,45.0653221 120.878362,45.1174274 L120.970822,45.1246367 L121.966131,45.1246367 L120.753533,49 L115.976257,49 C115.437153,49 115,48.5754602 115,48.0519111 L115.004698,47.9720286 L115.004698,47.9720286 L115.015962,47.8943963 L119.67378,33 L124,33 Z M139,33 L134.174172,49 L130,49 L134.826821,33 L139,33 Z M132,33 L128.429863,44.4160702 C128.328862,44.7392256 128.548877,45.0653221 128.878134,45.1174274 L128.970481,45.1246367 L129.965732,45.1246367 L128.753204,49 L123.976716,49 C123.437128,49 123,48.5754602 123,48.0519111 L123.004698,47.9720286 L123.004698,47.9720286 L123.015961,47.8943964 L127.673513,33 L132,33 Z M116.023743,33 C116.562847,33 117,33.4245398 117,33.9480889 L116.995302,34.0279714 L116.995302,34.0279714 L116.984038,34.1056036 L112.32622,49 L108,49 L111.570342,37.5839297 C111.670876,37.2607744 111.451242,36.9346779 111.121638,36.8825726 L111.029178,36.8753633 L110.033869,36.8753633 L111.246467,33 L116.023743,33 Z M27,24 L22.1731788,40 L18,40 L22.8258278,24 L27,24 Z M33.0232837,24 C33.5628718,24 34,24.4245398 34,24.9480889 L33.9953018,25.0279714 L33.9953018,25.0279714 L33.9840389,25.1056037 L29.3264874,40 L25,40 L28.5701373,28.5839297 C28.6711384,28.2607744 28.4511227,27.9346779 28.1218661,27.8825726 L28.0295194,27.8753633 L27.0342677,27.8753633 L28.2467963,24 L33.0232837,24 Z M48,24 L44.4296584,35.4160702 C44.3291235,35.7392256 44.5487585,36.0653221 44.8783618,36.1174274 L44.9708221,36.1246367 L45.9661308,36.1246367 L44.7535328,40 L39.9762572,40 C39.4371531,40 39,39.5754602 39,39.0519111 L39.0046985,38.9720286 L39.0046985,38.9720286 L39.015962,38.8943964 L43.67378,24 L48,24 Z M41.0237428,24 C41.5628469,24 42,24.4245398 42,24.9480889 L41.9953015,25.0279714 L41.9953015,25.0279714 L41.984038,25.1056037 L37.32622,40 L33,40 L36.5703416,28.5839297 C36.6708765,28.2607744 36.4512415,27.9346779 36.1216382,27.8825726 L36.0291779,27.8753633 L35.0338692,27.8753633 L36.2464672,24 L41.0237428,24 Z M63,24 L58.1741722,40 L54,40 L58.8268212,24 L63,24 Z M56,24 L52.4298627,35.4160702 C52.3288616,35.7392256 52.5488773,36.0653221 52.8781339,36.1174274 L52.9704806,36.1246367 L53.9657323,36.1246367 L52.7532037,40 L47.9767163,40 C47.4371282,40 47,39.5754602 47,39.0519111 L47.0046982,38.9720286 L47.0046982,38.9720286 L47.0159611,38.8943964 L51.6735126,24 L56,24 Z M92,15 L87.1731788,31 L83,31 L87.8258278,15 L92,15 Z M99.0232837,15 C99.5628718,15 100,15.4245398 100,15.9480889 L99.9953018,16.0279714 L99.9953018,16.0279714 L99.9840389,16.1056036 L95.3264874,31 L91,31 L94.5701373,19.5839297 C94.6711384,19.2607744 94.4511227,18.9346779 94.1218661,18.8825726 L94.0295194,18.8753633 L93.0342677,18.8753633 L94.2467963,15 L99.0232837,15 Z M114,15 L110.429658,26.4160702 C110.329124,26.7392256 110.548758,27.0653221 110.878362,27.1174274 L110.970822,27.1246367 L111.966131,27.1246367 L110.753533,31 L105.976257,31 C105.437153,31 105,30.5754602 105,30.0519111 L105.004698,29.9720286 L105.004698,29.9720286 L105.015962,29.8943963 L109.67378,15 L114,15 Z M106.023743,15 C106.562847,15 107,15.4245398 107,15.9480889 L106.995302,16.0279714 L106.995302,16.0279714 L106.984038,16.1056037 L102.32622,31 L98,31 L101.570342,19.5839297 C101.670876,19.2607744 101.451242,18.9346779 101.121638,18.8825726 L101.029178,18.8753633 L100.033869,18.8753633 L101.246467,15 L106.023743,15 Z M129,15 L124.174172,31 L120,31 L124.826821,15 L129,15 Z M122,15 L118.429863,26.4160702 C118.328862,26.7392256 118.548877,27.0653221 118.878134,27.1174274 L118.970481,27.1246367 L119.965732,27.1246367 L118.753204,31 L113.976716,31 C113.437128,31 113,30.5754602 113,30.0519111 L113.004698,29.9720286 L113.004698,29.9720286 L113.015961,29.8943963 L117.673513,15 L122,15 Z M111,-3 L106.173179,13 L102,13 L106.825828,-3 L111,-3 Z M117.023284,-3 C117.562872,-3 118,-2.5754602 118,-2.05191112 L117.995302,-1.97202863 L117.995302,-1.97202863 L117.984039,-1.89439635 L113.326487,13 L109,13 L112.570137,1.58392975 C112.671138,1.26077443 112.451123,0.934677907 112.121866,0.88257262 L112.029519,0.875363321 L111.034268,0.875363321 L112.246796,-3 L117.023284,-3 Z M132,-3 L128.429658,8.41607025 C128.329124,8.73922557 128.548758,9.06532209 128.878362,9.11742738 L128.970822,9.12463668 L129.966131,9.12463668 L128.753533,13 L123.976257,13 C123.437153,13 123,12.5754602 123,12.0519111 L123.004698,11.9720286 L123.004698,11.9720286 L123.015962,11.8943963 L127.67378,-3 L132,-3 Z M125.023743,-3 C125.562847,-3 126,-2.5754602 126,-2.05191112 L125.995302,-1.97202863 L125.995302,-1.97202863 L125.984038,-1.89439635 L121.32622,13 L117,13 L120.570342,1.58392975 C120.670876,1.26077443 120.451242,0.934677907 120.121638,0.88257262 L120.029178,0.875363321 L119.033869,0.875363321 L120.246467,-3 L125.023743,-3 Z M147,-3 L142.174172,13 L138,13 L142.826821,-3 L147,-3 Z M140,-3 L136.429863,8.41607025 C136.328862,8.73922557 136.548877,9.06532209 136.878134,9.11742738 L136.970481,9.12463668 L137.965732,9.12463668 L136.753204,13 L131.976716,13 C131.437128,13 131,12.5754602 131,12.0519111 L131.004698,11.9720286 L131.004698,11.9720286 L131.015961,11.8943963 L135.673513,-3 L140,-3 Z" id="Shape"></path>
            </g>
        </g>
    </g>
</svg>